<svg xmlns="http://www.w3.org/2000/svg" width="1200" height="675" viewBox="0 0 1200 675"><rect width="1200" height="675" fill="#FFFFFF"></rect><rect x="52" y="46" width="6" height="54" rx="3" fill="#1B4C84"></rect><text x="70" y="61" fill="#5B6B7F" text-anchor="start" style="font-family:Inter, sans-serif;font-size:12px;font-weight:600;letter-spacing:2.5px;">ANCHOR DIAGRAM</text><text x="70" y="89" fill="#0F2A4A" text-anchor="start" style="font-family:Montserrat, sans-serif;font-size:30px;font-weight:700;">The Pilot-to-Production Ladder</text><line x1="56" y1="512" x2="1144" y2="512" stroke="#E8E8EC" stroke-width="2"></line><rect x="170" y="396" width="148" height="116" rx="12" fill="#9DB4CF"></rect><circle cx="244" cy="426" r="15" fill="#fff"></circle><text x="244" y="431" fill="#0F2A4A" text-anchor="middle" style="font-family:Montserrat, sans-serif;font-size:15px;font-weight:700;">1</text><text x="244" y="546" fill="#0F2A4A" text-anchor="middle" style="font-family:Montserrat, sans-serif;font-size:16px;font-weight:700;">Sandbox</text><text x="244" y="566" fill="#5B6B7F" text-anchor="middle" style="font-family:Inter, sans-serif;font-size:12px;font-weight:500;">Works in a demo, on</text><text x="244" y="582" fill="#5B6B7F" text-anchor="middle" style="font-family:Inter, sans-serif;font-size:12px;font-weight:500;">curated data.</text><rect x="348" y="354" width="148" height="158" rx="12" fill="#7B99BE"></rect><circle cx="422" cy="384" r="15" fill="#fff"></circle><text x="422" y="389" fill="#0F2A4A" text-anchor="middle" style="font-family:Montserrat, sans-serif;font-size:15px;font-weight:700;">2</text><text x="422" y="546" fill="#0F2A4A" text-anchor="middle" style="font-family:Montserrat, sans-serif;font-size:16px;font-weight:700;">Validated pilot</text><text x="422" y="566" fill="#5B6B7F" text-anchor="middle" style="font-family:Inter, sans-serif;font-size:12px;font-weight:500;">Works on real data, measured</text><text x="422" y="582" fill="#5B6B7F" text-anchor="middle" style="font-family:Inter, sans-serif;font-size:12px;font-weight:500;">against a KPI.</text><rect x="526" y="312" width="148" height="200" rx="12" fill="#5E84B2"></rect><circle cx="600" cy="342" r="15" fill="#fff"></circle><text x="600" y="347" fill="#0F2A4A" text-anchor="middle" style="font-family:Montserrat, sans-serif;font-size:15px;font-weight:700;">3</text><text x="600" y="546" fill="#0F2A4A" text-anchor="middle" style="font-family:Montserrat, sans-serif;font-size:16px;font-weight:700;">Hardened build</text><text x="600" y="566" fill="#5B6B7F" text-anchor="middle" style="font-family:Inter, sans-serif;font-size:12px;font-weight:500;">Reliable, evaluated, integrated.</text><rect x="704" y="270" width="148" height="242" rx="12" fill="#3C6699"></rect><circle cx="778" cy="300" r="15" fill="#fff"></circle><text x="778" y="305" fill="#0F2A4A" text-anchor="middle" style="font-family:Montserrat, sans-serif;font-size:15px;font-weight:700;">4</text><text x="778" y="546" fill="#0F2A4A" text-anchor="middle" style="font-family:Montserrat, sans-serif;font-size:16px;font-weight:700;">Governed rollout</text><text x="778" y="566" fill="#5B6B7F" text-anchor="middle" style="font-family:Inter, sans-serif;font-size:12px;font-weight:500;">Monitored, owned, compliant,</text><text x="778" y="582" fill="#5B6B7F" text-anchor="middle" style="font-family:Inter, sans-serif;font-size:12px;font-weight:500;">cost-controlled.</text><rect x="882" y="224" width="148" height="288" rx="12" fill="#1B4C84"></rect><circle cx="956" cy="254" r="15" fill="#fff"></circle><text x="956" y="259" fill="#1B4C84" text-anchor="middle" style="font-family:Montserrat, sans-serif;font-size:15px;font-weight:700;">5</text><text x="956" y="546" fill="#0F2A4A" text-anchor="middle" style="font-family:Montserrat, sans-serif;font-size:16px;font-weight:700;">Scaled operation</text><text x="956" y="566" fill="#5B6B7F" text-anchor="middle" style="font-family:Inter, sans-serif;font-size:12px;font-weight:500;">Multi-team, durable,</text><text x="956" y="582" fill="#5B6B7F" text-anchor="middle" style="font-family:Inter, sans-serif;font-size:12px;font-weight:500;">ROI-positive.</text><rect x="902" y="182" width="108" height="26" rx="6" fill="#0F2A4A"></rect><text x="956" y="200" fill="#fff" text-anchor="middle" style="font-family:Inter, sans-serif;font-size:12px;font-weight:700;letter-spacing:1.5px;">★ GOAL</text><polygon points="956,214 949,208 963,208" fill="#0F2A4A"></polygon><rect x="268.2" y="430" width="129.6" height="26" rx="6" fill="#FCE9EB"></rect><text x="333" y="447" fill="#C02638" text-anchor="middle" style="font-family:Inter, sans-serif;font-size:11px;font-weight:700;">Value definition</text><text x="333" y="469" fill="#C02638" text-anchor="middle" style="font-family:Inter, sans-serif;font-size:9px;font-weight:700;letter-spacing:1px;">GAP</text><polygon points="333,476 325,490 341,490" fill="#C02638"></polygon><rect x="331.75" y="490" width="2.5" height="18" rx="0" fill="#C02638"></rect><rect x="485.8" y="430" width="50.4" height="26" rx="6" fill="#FCE9EB"></rect><text x="511" y="447" fill="#C02638" text-anchor="middle" style="font-family:Inter, sans-serif;font-size:11px;font-weight:700;">Data</text><text x="511" y="469" fill="#C02638" text-anchor="middle" style="font-family:Inter, sans-serif;font-size:9px;font-weight:700;letter-spacing:1px;">GAP</text><polygon points="511,476 503,490 519,490" fill="#C02638"></polygon><rect x="509.75" y="490" width="2.5" height="18" rx="0" fill="#C02638"></rect><rect x="640.7" y="430" width="96.6" height="26" rx="6" fill="#FCE9EB"></rect><text x="689" y="447" fill="#C02638" text-anchor="middle" style="font-family:Inter, sans-serif;font-size:11px;font-weight:700;">Reliability</text><text x="689" y="469" fill="#C02638" text-anchor="middle" style="font-family:Inter, sans-serif;font-size:9px;font-weight:700;letter-spacing:1px;">GAP</text><polygon points="689,476 681,490 697,490" fill="#C02638"></polygon><rect x="687.75" y="490" width="2.5" height="18" rx="0" fill="#C02638"></rect><rect x="782.4" y="430" width="169.2" height="26" rx="6" fill="#FCE9EB"></rect><text x="867" y="447" fill="#C02638" text-anchor="middle" style="font-family:Inter, sans-serif;font-size:11px;font-weight:700;">Governance &amp; ownership</text><text x="867" y="469" fill="#C02638" text-anchor="middle" style="font-family:Inter, sans-serif;font-size:9px;font-weight:700;letter-spacing:1px;">GAP</text><polygon points="867,476 859,490 875,490" fill="#C02638"></polygon><rect x="865.75" y="490" width="2.5" height="18" rx="0" fill="#C02638"></rect><text x="600" y="640" fill="#5B6B7F" text-anchor="middle" style="font-family:Inter, sans-serif;font-size:14px;font-weight:500;font-style:italic;">Find the highest rung you fully satisfy, then close the gap blocking the next one.</text></svg>