<svg width="24" height="24" viewBox="0 0 24 24" fill="none" xmlns="http://www.w3.org/2000/svg">
<g clip-path="url(#clip0_10293_30380)">
<path d="M0 12.186C0 12.0375 0 11.8892 0 11.7407C0.00445312 11.6747 0.0128906 11.6088 0.0128906 11.5429C0.0133594 11.2104 0.039375 10.8793 0.0810938 10.5499C0.265078 9.0945 0.691172 7.71604 1.37531 6.415C1.94367 5.33382 2.65852 4.36245 3.52055 3.50182C4.38258 2.64142 5.3557 1.92908 6.43711 1.36151C7.5293 0.788303 8.68219 0.403507 9.89086 0.176384C10.8441 -0.00240531 11.8064 -0.0253992 12.7718 0.020354C13.1112 0.0365435 13.4496 0.069392 13.7855 0.122888C15.1146 0.334056 16.3788 0.739265 17.5727 1.36737C18.863 2.04616 19.9922 2.92791 20.9613 4.01331C21.885 5.04804 22.6097 6.20876 23.1274 7.49783C23.576 8.61444 23.8641 9.76883 23.9583 10.9697C23.9791 11.2339 23.9864 11.4992 24 11.7641V12.1625C23.9955 12.2245 23.9873 12.2867 23.9876 12.3486C23.9897 12.7752 23.9564 13.1996 23.8964 13.6215C23.6974 15.026 23.2748 16.358 22.6085 17.6135C21.9366 18.8798 21.0691 19.992 20.0013 20.9448C18.5909 22.2034 16.9751 23.0889 15.1467 23.5825C14.4284 23.7766 13.7011 23.9098 12.9586 23.9654C12.6935 23.9852 12.428 23.9704 12.1638 23.9997H11.7654C11.7112 23.9952 11.6569 23.9873 11.6027 23.987C11.0388 23.9849 10.4796 23.9281 9.92578 23.8263C8.69672 23.6004 7.52508 23.209 6.41648 22.6243C5.14102 21.9516 4.02281 21.0809 3.06211 20.0096C2.14172 18.983 1.41586 17.8322 0.894609 16.553C0.427031 15.4051 0.134062 14.217 0.0360937 12.9805C0.0152344 12.7156 0.0274219 12.45 0 12.1858L0 12.186ZM10.6034 11.3662C10.6399 11.3108 10.687 11.3165 10.7271 11.3068C11.3665 11.1539 11.7933 10.7658 11.9822 10.137C12.0984 9.75006 12.0898 9.34884 12.0345 8.95114C11.9552 8.37887 11.7204 7.88122 11.2849 7.4929C10.7515 7.01707 10.1095 6.82303 9.40852 6.82045C7.69008 6.81435 5.97141 6.81834 4.25297 6.81857C4.08891 6.81857 4.08047 6.82702 4.08047 6.99102C4.08047 10.198 4.08047 13.4051 4.08047 16.6121C4.08047 16.7688 4.0868 16.7745 4.24828 16.7747C5.90836 16.7747 7.5682 16.7806 9.22828 16.7716C9.79008 16.7686 10.3392 16.6757 10.856 16.4333C11.3459 16.2036 11.7703 15.8911 12.0255 15.4084C12.5653 14.3883 12.5644 13.3397 12.097 12.296C11.8652 11.7784 11.442 11.4845 10.8762 11.4019C10.789 11.3892 10.6976 11.4063 10.6031 11.3662H10.6034ZM17.5409 13.655C18.357 13.655 19.1733 13.6541 19.9894 13.6564C20.0869 13.6567 20.1438 13.6346 20.1492 13.5236C20.1837 12.7911 20.1227 12.0699 19.863 11.3791C19.5302 10.4938 18.9401 9.86127 18.0255 9.55743C17.3709 9.33992 16.7011 9.31083 16.024 9.39084C15.5871 9.44246 15.1645 9.55696 14.7729 9.76202C14.0754 10.1273 13.5811 10.6827 13.2619 11.3998C12.8393 12.3484 12.7238 13.3317 12.9745 14.3397C13.3001 15.6478 14.1002 16.5096 15.4322 16.8338C16.1107 16.999 16.7986 17.0283 17.4891 16.931C17.9745 16.8624 18.4463 16.7379 18.8763 16.491C19.642 16.0516 20.0276 15.3838 20.0618 14.5067C20.0651 14.4235 20.0651 14.3498 19.946 14.3505C19.4541 14.3533 18.9619 14.3521 18.4699 14.3509C18.401 14.3509 18.3635 14.3721 18.3506 14.4467C18.2798 14.8578 18.0307 15.1184 17.6534 15.2747C17.3091 15.4171 16.9491 15.4462 16.5841 15.4277C15.589 15.3772 15.0098 14.7834 14.9503 13.8301C14.9402 13.6682 14.9555 13.6557 15.116 13.6557C15.9244 13.6555 16.7327 13.6557 17.5411 13.6555L17.5409 13.655ZM16.5818 8.59168C17.2184 8.59168 17.8549 8.59004 18.4917 8.59332C18.5923 8.59379 18.6312 8.56048 18.6298 8.45818C18.6255 8.14964 18.6244 7.84086 18.6302 7.53255C18.6326 7.41641 18.5866 7.38755 18.4777 7.38779C17.224 7.3906 15.9703 7.38943 14.7166 7.38966C14.5645 7.38966 14.5552 7.39811 14.5547 7.54663C14.5538 7.83969 14.554 8.13251 14.5547 8.42556C14.5552 8.58535 14.5617 8.59192 14.7192 8.59192C15.3403 8.59215 15.9612 8.59192 16.5823 8.59192L16.5818 8.59168Z" fill="#3CC4E5"/>
<path d="M7.88678 15.043C7.36623 15.043 6.94061 15.0435 6.51521 15.043C6.33709 15.0428 6.32701 15.0332 6.32701 14.86C6.32654 14.0712 6.32654 13.2826 6.32701 12.4937C6.32701 12.3232 6.33264 12.3185 6.50701 12.3185C7.3817 12.3182 8.25615 12.3185 9.13061 12.3185C9.73787 12.3185 10.1267 12.6148 10.2741 13.2047C10.3768 13.6157 10.3716 14.0261 10.1979 14.4205C10.0231 14.818 9.68818 14.9879 9.27826 15.0252C8.78373 15.0702 8.28709 15.0315 7.88654 15.0435L7.88678 15.043Z" fill="#3CC4E5"/>
<path d="M7.85734 8.54658C8.29843 8.54658 8.73976 8.54892 9.18085 8.54564C9.50804 8.54329 9.74406 8.70214 9.86499 8.98839C10.0673 9.46797 10.0434 9.96 9.83124 10.4323C9.69367 10.739 9.40773 10.8218 9.10023 10.8237C8.22179 10.8288 7.34335 10.8251 6.46515 10.827C6.36554 10.827 6.32593 10.7866 6.32617 10.6871C6.32804 10.0194 6.32827 9.35183 6.32593 8.68407C6.32546 8.57473 6.37351 8.54423 6.4757 8.54493C6.93624 8.54822 7.39702 8.54634 7.85781 8.54634L7.85734 8.54658Z" fill="#3CC4E5"/>
<path d="M16.5849 12.3585C16.0854 12.3585 15.5857 12.359 15.0863 12.3583C14.9374 12.3583 14.9206 12.3376 14.9618 12.1929C15.1449 11.5516 15.4943 11.0507 16.1642 10.8557C16.6793 10.7058 17.1849 10.7325 17.6438 11.0502C18.0099 11.3036 18.1648 11.6809 18.2379 12.0999C18.2829 12.3573 18.2766 12.3583 18.0131 12.3585C17.5369 12.3585 17.0609 12.3585 16.5846 12.3585H16.5849Z" fill="#3CC4E5"/>
</g>
<defs>
<clipPath id="clip0_10293_30380">
<rect width="24" height="24" fill="white"/>
</clipPath>
</defs>
</svg>
