<svg xmlns="http://www.w3.org/2000/svg" viewBox="0 0 24 24">
  <path fill="#1769FF" d="M6.938 4.503c.702 0 1.34.06 1.92.188.577.13 1.07.33 1.485.61.41.28.733.65.96 1.12.225.47.34 1.05.34 1.73 0 .74-.17 1.36-.507 1.86-.338.49-.837.9-1.502 1.22.906.26 1.576.72 2.022 1.37.448.66.665 1.45.665 2.36 0 .75-.13 1.39-.41 1.93-.28.54-.66 1-1.16 1.35-.5.37-1.07.63-1.725.8-.65.17-1.32.25-2.02.25H0V4.52h6.938zm-.418 5.907c.58 0 1.06-.14 1.44-.42.37-.27.55-.7.55-1.28 0-.32-.06-.59-.18-.81-.12-.22-.29-.4-.5-.53-.21-.14-.46-.23-.73-.28-.28-.06-.57-.08-.87-.08H2.49v3.41h4.03zm.188 5.864c.32 0 .63-.03.93-.09.3-.07.57-.17.8-.33.23-.15.42-.37.56-.64.14-.27.22-.61.22-1.01 0-.8-.22-1.38-.67-1.74-.44-.36-1.03-.54-1.76-.54H2.49v4.35h4.218zm11.652.297c.39.38.96.57 1.7.57.53 0 .98-.13 1.36-.4.38-.26.62-.54.7-.84h2.44c-.39 1.25-1 2.14-1.85 2.67-.84.53-1.86.8-3.06.8-.83 0-1.58-.13-2.25-.4-.67-.27-1.24-.65-1.72-1.16-.48-.5-.84-1.1-1.1-1.8-.26-.7-.38-1.46-.38-2.28 0-.8.13-1.54.4-2.22.27-.68.65-1.26 1.13-1.75.48-.5 1.06-.88 1.74-1.16.68-.27 1.43-.41 2.26-.41 1.18 0 2.15.23 2.9.68.76.46 1.37 1.07 1.82 1.84.45.77.76 1.65.93 2.63.06.26.09.53.1.8h-6.96c.04.76.24 1.34.63 1.73zm2.892-4.972c-.32-.35-.8-.52-1.43-.52-.41 0-.75.07-1.03.22-.27.14-.49.31-.67.53-.18.22-.3.45-.37.7-.07.25-.11.48-.12.7h4.27c-.08-.73-.3-1.28-.65-1.63zM15.96 6.986h5.22v1.35H15.96V6.986z"/>
</svg>
