<svg xmlns="http://www.w3.org/2000/svg" viewBox="0 0 24 24">
  <path fill="#EA4C89" d="M12 24C5.385 24 0 18.615 0 12S5.385 0 12 0s12 5.385 12 12-5.385 12-12 12zm10.12-10.358c-.35-.11-3.17-.953-6.384-.438 1.34 3.684 1.887 6.684 1.992 7.308 2.3-1.555 3.936-4.02 4.395-6.87zm-6.115 7.808c-.153-.9-.75-4.032-2.19-7.77l-.066.02c-5.79 2.015-7.86 6.017-8.04 6.4 1.73 1.358 3.92 2.166 6.29 2.166 1.42 0 2.77-.29 4-.816zm-11.62-2.073c.232-.4 3.045-5.055 8.332-6.765.135-.045.27-.084.405-.12-.26-.585-.54-1.167-.832-1.74C7.17 12.3 2.265 12.17 1.685 12.15l-.01.24c0 2.406.977 4.6 2.554 6.187zm-2.49-8.618c.062.003 4.083.153 8.23-1.112-1.48-2.63-3.08-4.843-3.337-5.176-2.65 1.252-4.507 3.83-4.893 6.288zM10.86 3.236c.264.346 1.84 2.555 3.33 5.13 3.18-1.19 4.52-3.003 4.69-3.24C17.355 3.698 15.26 2.5 12.92 2.5c-.705 0-1.39.1-2.057.28zm8.745 3.84c-.22.26-1.705 2.195-5.02 3.56.21.43.41.864.6 1.296.065.154.13.305.19.454 3.404-.428 6.786.258 7.126.33-.067-2.15-.873-4.11-2.196-5.65z"/>
</svg>
