<svg width="24" height="24" viewBox="0 0 24 24" fill="none" xmlns="http://www.w3.org/2000/svg">
<path d="M0 13.44V10.56C0.0266667 10.4213 0.0565333 10.2827 0.08 10.144C0.634667 6.90027 2.20587 4.27307 4.84373 2.29547C6.544 1.0208 8.47253 0.311467 10.56 0C11.52 0 12.48 0 13.44 0C13.5605 0.0245333 13.6811 0.0544 13.8027 0.0746667C17.1125 0.618667 19.7739 2.2304 21.7675 4.93013C23.0069 6.608 23.6896 8.512 24 10.5611V13.4411C23.9733 13.5797 23.9435 13.7184 23.9189 13.8571C23.3643 17.1008 21.792 19.728 19.1552 21.7056C17.456 22.9803 15.5243 23.6821 13.4389 24H10.5589C10.4555 23.9765 10.3531 23.9477 10.2485 23.9317C6.9568 23.4069 4.2976 21.824 2.2944 19.1563C1.01973 17.4571 0.314667 15.5264 0 13.44ZM12.1792 21.9477C12.9792 21.9861 13.9467 21.7771 14.9088 21.5083C15.3323 21.3899 15.4752 21.1648 15.4123 20.7328C15.0869 18.4971 14.5984 16.2997 13.872 14.1579C13.6192 13.4133 13.6075 13.392 12.8533 13.6768C9.97547 14.7627 7.8976 16.7883 6.24747 19.3173C5.97227 19.7397 6.04053 19.9861 6.45547 20.2645C8.128 21.3856 9.95947 21.9563 12.1792 21.9477ZM4.08107 11.5659C3.6192 11.5659 3.15627 11.5915 2.69653 11.5584C2.20373 11.5232 2.0448 11.7152 2.04907 12.2027C2.07253 14.3989 2.79467 16.3381 4.1248 18.0661C4.46613 18.5099 4.47147 18.4949 4.79467 18.0011C6.688 15.1061 9.1808 12.9504 12.4949 11.8347C12.8843 11.7035 12.9301 11.5467 12.7541 11.2277C12.6859 11.104 12.6219 10.9739 12.5813 10.8395C12.4469 10.3872 12.2016 10.3093 11.7419 10.4459C9.24373 11.1861 6.68693 11.5605 4.08 11.5659H4.08107ZM4.54827 9.4944C6.72 9.48373 8.81813 9.16693 10.8832 8.61333C11.2192 8.52373 11.3973 8.43307 11.1648 8.04587C10.1856 6.4128 9.09973 4.86187 7.776 3.4848C7.56587 3.26613 7.39093 3.1712 7.0912 3.34507C4.84267 4.6528 3.3504 6.5664 2.50667 9.008C2.40107 9.31307 2.4736 9.4688 2.8256 9.49653C3.4112 9.5424 3.99467 9.55413 4.5472 9.4944H4.54827ZM18.8565 13.0432C18.0064 13.056 17.1552 13.0315 16.3061 13.1253C15.9936 13.1595 15.8347 13.2395 15.9509 13.5829C16.6475 15.6384 17.0944 17.7515 17.3931 19.8965C17.4475 20.2891 17.5915 20.2229 17.8293 20.048C19.9808 18.4565 21.2992 16.3445 21.8048 13.7195C21.8763 13.3472 21.76 13.1669 21.3547 13.1243C20.5227 13.0379 19.6896 13.0571 18.8565 13.0421V13.0432ZM11.8656 2.05333C11.3739 2.03413 10.7061 2.112 10.0448 2.26027C9.79413 2.3168 9.66827 2.3904 9.8944 2.63147C11.2384 4.06613 12.3243 5.68533 13.2981 7.38453C13.4219 7.6 13.5499 7.696 13.8112 7.57653C15.3589 6.86933 16.7861 5.9936 17.9616 4.73813C18.2667 4.4128 18.2496 4.21333 17.8773 3.9456C16.1333 2.6944 14.2037 2.0416 11.8667 2.0512L11.8656 2.05333ZM19.7568 11.1904C20.1621 11.2096 20.7648 11.2256 21.3664 11.2704C21.7696 11.3003 21.8955 11.1573 21.8517 10.7499C21.6587 8.9728 20.9888 7.39733 19.9189 5.9776C19.7205 5.71413 19.5509 5.68427 19.3387 5.96373C19.1563 6.20267 18.9547 6.42987 18.7467 6.6464C17.6469 7.7888 16.3179 8.59947 14.896 9.26613C14.5376 9.43467 14.4 9.61067 14.608 9.99573C14.7755 10.3061 14.8939 10.6443 15.0176 10.9771C15.1264 11.2693 15.3003 11.3728 15.6256 11.3451C16.9333 11.232 18.2453 11.1808 19.7557 11.1915L19.7568 11.1904Z" fill="#3CC4E5"/>
</svg>
