<svg width="24" height="24" viewBox="0 0 24 24" fill="none" xmlns="http://www.w3.org/2000/svg">
<path d="M17.9996 0H5.99985C2.70023 0 0 2.70023 0 5.99985V18.0001C0 21.2989 2.70023 24 5.99985 24H17.9996C21.2992 24 23.9994 21.2989 23.9994 18.0001V5.99985C23.9994 2.70023 21.2992 0 17.9996 0ZM21.9994 18.0001C21.9994 20.2051 20.2057 22 17.9996 22H5.99985C3.79461 22 2.00005 20.2051 2.00005 18.0001V5.99985C2.00005 3.79432 3.79461 2.00005 5.99985 2.00005H17.9996C20.2057 2.00005 21.9994 3.79432 21.9994 5.99985V18.0001Z" fill="#3CC4E5"/>
<path d="M18.5005 6.99968C19.3289 6.99968 20.0004 6.32813 20.0004 5.49972C20.0004 4.67131 19.3289 3.99976 18.5005 3.99976C17.672 3.99976 17.0005 4.67131 17.0005 5.49972C17.0005 6.32813 17.672 6.99968 18.5005 6.99968Z" fill="#3CC4E5"/>
<path d="M11.9996 5.99976C8.68528 5.99976 5.99976 8.68557 5.99976 11.9996C5.99976 15.3124 8.68528 18 11.9996 18C15.313 18 17.9995 15.3124 17.9995 11.9996C17.9995 8.68557 15.313 5.99976 11.9996 5.99976ZM11.9996 16C9.79074 16 7.9998 14.2091 7.9998 11.9996C7.9998 9.79015 9.79074 7.9998 11.9996 7.9998C14.2085 7.9998 15.9994 9.79015 15.9994 11.9996C15.9994 14.2091 14.2085 16 11.9996 16Z" fill="#3CC4E5"/>
</svg>
