<svg width="32" height="33" viewBox="0 0 32 33" fill="none" xmlns="http://www.w3.org/2000/svg">
<path d="M0 5.63257H32V27.1406H0V5.63257Z" fill="#D6D4D1"/>
<path d="M0.266602 19.7974H31.7435V26.8794H0.266602V19.7974Z" fill="#11892E"/>
<path d="M0.266602 5.89282H31.7435V12.9754H0.266602V5.89282Z" fill="#F2963B"/>
<path d="M0.264648 12.9753H31.7435V19.795H0.264648V12.9753Z" fill="white"/>
<path d="M18.8641 16.0095C18.6561 14.43 17.2067 13.3176 15.6271 13.5255C14.0457 13.7342 12.9344 15.1828 13.1422 16.7623C13.3501 18.3418 14.7995 19.4533 16.3807 19.2463C17.9603 19.0375 19.0719 17.5892 18.8641 16.0095ZM18.5224 16.5726C18.4447 16.5644 18.3724 16.6185 18.3633 16.6963C18.3525 16.7741 18.4048 16.8454 18.4827 16.8571C18.4716 16.9159 18.4572 16.9747 18.4428 17.0324L17.1235 16.6005L16.4982 16.4784C16.5016 16.4603 16.5055 16.4423 16.5072 16.4241L17.1395 16.4683L18.5276 16.3933C18.5279 16.4532 18.5243 16.5128 18.5224 16.5726ZM13.4857 16.1992C13.5633 16.2074 13.6338 16.1522 13.6446 16.0755C13.6556 15.9978 13.6013 15.9273 13.5236 15.9138C13.5344 15.856 13.5489 15.7972 13.5633 15.7394L14.8826 16.1714L15.5097 16.2934C15.5062 16.3105 15.5025 16.3286 15.5008 16.3476L14.8663 16.3034L13.4801 16.3784C13.4801 16.3186 13.4819 16.2589 13.4857 16.1992ZM13.5236 16.8571C13.6013 16.8454 13.6556 16.7739 13.6446 16.6963C13.6338 16.6185 13.5633 16.5643 13.4857 16.5726C13.482 16.5128 13.4801 16.4524 13.4801 16.3937L14.8663 16.4687L15.5025 16.4244C15.5043 16.4335 15.5025 16.4425 15.5043 16.4524C15.5043 16.4615 15.5079 16.4695 15.5097 16.4787L14.8826 16.6008L13.5633 17.0328C13.5489 16.9747 13.5361 16.9168 13.5236 16.8571ZM17.1399 16.3034L16.5055 16.3476C16.5036 16.3386 16.5055 16.3295 16.5036 16.3196C16.5036 16.3106 16.5001 16.3015 16.4982 16.2934L17.1235 16.1714L18.4428 15.7394C18.4572 15.7972 18.4716 15.856 18.4827 15.9147C18.4048 15.9274 18.3524 15.9979 18.3633 16.0755C18.3724 16.1524 18.4428 16.2074 18.5206 16.1992C18.524 16.2589 18.5278 16.3194 18.5278 16.3782L17.1399 16.3034ZM18.3869 15.5543C18.405 15.6103 18.4248 15.6672 18.4413 15.725L17.0804 16.0115L16.4804 16.2184C16.4731 16.2012 16.4641 16.185 16.4571 16.1678L17.0301 15.8886L18.1924 15.1304C18.223 15.1818 18.2502 15.2343 18.277 15.2885C18.2068 15.321 18.1722 15.4033 18.2026 15.4756C18.2313 15.547 18.3146 15.5821 18.3869 15.5543ZM17.8917 14.9379C17.9386 14.9994 18.0273 15.011 18.0887 14.9668C18.1248 15.0156 18.1555 15.0662 18.1845 15.1177L16.9466 15.7457L16.4189 16.1018C16.4078 16.0873 16.3989 16.071 16.3864 16.0574L16.8652 15.64L17.7923 14.6062C17.8338 14.6487 17.8757 14.692 17.9152 14.7382C17.8538 14.7878 17.8447 14.8755 17.8917 14.9379ZM17.4525 14.4977C17.5139 14.5456 17.6026 14.5339 17.6514 14.4742C17.6968 14.513 17.7402 14.5537 17.7834 14.5962L16.7497 15.5234L16.3302 16.0041C16.3158 15.9924 16.3033 15.9806 16.2867 15.9707L16.6445 15.4421L17.2716 14.2041C17.3221 14.2339 17.3727 14.2665 17.4231 14.2999C17.3785 14.3632 17.3892 14.4508 17.4525 14.4977ZM16.914 14.1869C16.9862 14.2168 17.0675 14.1834 17.1 14.1129C17.1543 14.139 17.2083 14.167 17.2591 14.1968L16.5001 15.3598L16.2218 15.931C16.2053 15.9228 16.1873 15.9174 16.1693 15.9111L16.3788 15.3084L16.6627 13.9503C16.7205 13.9656 16.7784 13.9837 16.8362 14.0036C16.8074 14.0759 16.8417 14.1571 16.914 14.1869ZM16.1892 13.8689C16.1819 13.9457 16.2362 14.0161 16.3139 14.0261C16.3917 14.0361 16.4621 13.9836 16.4747 13.906C16.5346 13.9177 16.5923 13.9313 16.6499 13.9466L16.2181 15.2659L16.0969 15.8921C16.0768 15.8886 16.0608 15.8841 16.0409 15.8822L16.0862 15.2479L16.0105 13.8616C16.0699 13.8616 16.1313 13.8645 16.1892 13.8689ZM15.6922 14.0261C15.77 14.0162 15.826 13.9457 15.8188 13.8689C15.8766 13.8644 15.938 13.8625 15.996 13.8616L15.9218 15.2479L15.9651 15.884C15.9561 15.8849 15.9471 15.884 15.938 15.8849C15.9291 15.8858 15.9182 15.8903 15.9091 15.8921L15.7881 15.2659L15.3561 13.9457C15.4139 13.9313 15.4717 13.9177 15.5314 13.906C15.5441 13.9836 15.6146 14.036 15.6922 14.0261ZM15.0923 14.1869C15.1664 14.1571 15.199 14.0748 15.1718 14.0017C15.2278 13.9827 15.2856 13.9656 15.3434 13.9502L15.629 15.3083L15.8351 15.9093C15.8187 15.9166 15.8025 15.9246 15.7862 15.9328L15.5061 15.3599L14.7488 14.196C14.7993 14.1671 14.8519 14.139 14.906 14.1129C14.9386 14.1834 15.0199 14.2168 15.0923 14.1869ZM14.5555 14.4977C14.617 14.4507 14.6297 14.3622 14.5826 14.2989C14.6331 14.2654 14.682 14.2338 14.7362 14.204L15.3615 15.442L15.7193 15.9706C15.7049 15.9805 15.6885 15.9914 15.6741 16.0031L15.2567 15.5233L14.2228 14.5961C14.2681 14.5536 14.3095 14.5129 14.3565 14.4741C14.4037 14.5339 14.4922 14.5456 14.5555 14.4977ZM14.1162 14.9379C14.1632 14.8755 14.1524 14.7879 14.0927 14.7382C14.1289 14.6931 14.1722 14.6497 14.2139 14.6062L15.141 15.64L15.6218 16.0584C15.611 16.072 15.5983 16.0873 15.5875 16.1018L15.0598 15.7457L13.8218 15.1177C13.8507 15.0662 13.8832 15.0147 13.9175 14.9659C13.9789 15.011 14.0694 14.9993 14.1162 14.9379ZM13.8036 15.4755C13.8344 15.4033 13.8018 15.321 13.7294 15.2884C13.7565 15.2351 13.7837 15.1817 13.8143 15.1302L14.9764 15.8884L15.5494 16.1677C15.5421 16.1839 15.535 16.202 15.5296 16.2192L14.9259 16.0114L13.5669 15.7258C13.5831 15.667 13.6012 15.6111 13.6192 15.5542C13.6916 15.5821 13.7747 15.547 13.8036 15.4755ZM13.6193 17.2177C13.6013 17.1617 13.5832 17.1039 13.567 17.046L14.9261 16.7597L15.5278 16.5536C15.5334 16.5706 15.5423 16.5871 15.5495 16.6033L14.9765 16.8836L13.8144 17.6416C13.7837 17.5902 13.7566 17.5378 13.7295 17.4834C13.8019 17.4519 13.8344 17.3687 13.8037 17.2965C13.7747 17.224 13.6916 17.1888 13.6193 17.2177ZM14.1162 17.8341C14.0694 17.7726 13.9789 17.7608 13.9174 17.8061C13.8831 17.7562 13.8506 17.7057 13.8217 17.6543L15.0597 17.0262L15.5874 16.6692C15.5982 16.6847 15.609 16.7 15.6217 16.7145L15.1409 17.132L14.2138 18.1648C14.1722 18.1224 14.1306 18.0791 14.0926 18.0337C14.1525 17.9839 14.1634 17.8964 14.1162 17.8341ZM14.5555 18.274C14.4922 18.2261 14.4038 18.2379 14.3567 18.2975C14.3114 18.2587 14.2681 18.2181 14.2229 18.1755L15.2568 17.2484L15.6761 16.7667C15.6905 16.7792 15.705 16.791 15.7194 16.8001L15.3616 17.3287L14.7363 18.5675C14.6839 18.5377 14.6332 18.5052 14.5827 18.4717C14.6296 18.4095 14.617 18.321 14.5555 18.274ZM15.0923 18.5839C15.0199 18.555 14.9386 18.5874 14.9061 18.6587C14.8519 18.6325 14.7995 18.6036 14.7489 18.5748L15.5062 17.4118L15.7863 16.8397C15.8026 16.8479 15.8207 16.8541 15.8369 16.8596L15.629 17.4631L15.3434 18.8213C15.2856 18.806 15.2296 18.7888 15.1718 18.7689C15.199 18.6959 15.1645 18.6146 15.0923 18.5839ZM15.8188 18.903C15.8261 18.8261 15.77 18.7558 15.6922 18.7457C15.6146 18.7349 15.5441 18.7891 15.5314 18.8651C15.4716 18.8542 15.4138 18.8406 15.3561 18.8253L15.7881 17.506L15.9091 16.8798C15.9291 16.8833 15.9471 16.8878 15.9651 16.8897L15.9218 17.5232L15.996 18.9103C15.9362 18.9102 15.8766 18.9084 15.8188 18.903ZM16.3139 18.7457C16.2362 18.7557 16.1819 18.8252 16.1892 18.903C16.1295 18.9065 16.0699 18.9094 16.0103 18.9094L16.0861 17.5232L16.0407 16.8871C16.0497 16.8861 16.0608 16.888 16.0677 16.8861C16.0765 16.8852 16.0877 16.8816 16.0967 16.8798L16.2178 17.506L16.6497 18.8253C16.5919 18.8406 16.534 18.8542 16.4745 18.8651C16.4622 18.7891 16.3917 18.7349 16.3139 18.7457ZM16.914 18.5839C16.8416 18.6146 16.8073 18.6959 16.8362 18.769C16.7784 18.7888 16.7205 18.806 16.6627 18.8214L16.3788 17.4633L16.1711 16.8624C16.1873 16.8552 16.2033 16.8471 16.2215 16.8381L16.4998 17.4118L17.2588 18.5748C17.2084 18.6046 17.154 18.6326 17.0998 18.6587C17.0675 18.5877 16.9862 18.555 16.914 18.5839ZM17.4525 18.274C17.3892 18.321 17.3784 18.4095 17.4236 18.4729C17.3731 18.5054 17.3243 18.5379 17.2719 18.5677L16.645 17.3289L16.2874 16.8003C16.3038 16.7912 16.3197 16.7805 16.3327 16.7689L16.7502 17.2487L17.7839 18.1757C17.7406 18.2182 17.6972 18.2589 17.6519 18.2977C17.6025 18.2378 17.5139 18.2261 17.4525 18.274ZM17.8917 17.8341C17.8447 17.8964 17.8557 17.9841 17.9152 18.0329C17.8773 18.079 17.8338 18.1224 17.7923 18.1649L16.8652 17.1321L16.3844 16.7137C16.3954 16.6993 16.4078 16.6848 16.4189 16.6693L16.9466 17.0263L18.1845 17.6534C18.1555 17.7059 18.123 17.7564 18.0887 17.8062C18.0255 17.7607 17.9386 17.7724 17.8917 17.8341ZM18.2025 17.2965C18.1715 17.3687 18.2061 17.4509 18.2767 17.4835C18.2496 17.5368 18.2223 17.5892 18.1918 17.6416L17.0297 16.8836L16.4586 16.6043C16.4659 16.588 16.4713 16.5699 16.4785 16.5529L17.0804 16.7598L18.4397 17.0461C18.4252 17.104 18.4051 17.1619 18.3873 17.2169C18.3146 17.1897 18.2313 17.2249 18.2025 17.2965Z" fill="#21296F"/>
</svg>
