<svg width="32" height="33" viewBox="0 0 32 33" fill="none" xmlns="http://www.w3.org/2000/svg">
<path d="M32 7.59375H0V26.2617H32V7.59375Z" fill="#F0F0F0"/>
<path d="M32 7.59375H0V10.2602H32V7.59375Z" fill="#D80027"/>
<path d="M32 12.9258H0V15.5922H32V12.9258Z" fill="#D80027"/>
<path d="M32 18.2617H0V20.9282H32V18.2617Z" fill="#D80027"/>
<path d="M32 23.5938H0V26.2602H32V23.5938Z" fill="#D80027"/>
<path d="M16 7.59375H0V19.0811H16V7.59375Z" fill="#2E52B2"/>
<path d="M6.23962 12.2969L5.98194 13.0896H5.14844L5.82288 13.5793L5.56519 14.372L6.23962 13.8823L6.91363 14.372L6.656 13.5793L7.33044 13.0896H6.49688L6.23962 12.2969Z" fill="#F0F0F0"/>
<path d="M6.49688 15.9528L6.23962 15.1602L5.98194 15.9528H5.14844L5.82288 16.4426L5.56519 17.2353L6.23962 16.7455L6.91363 17.2353L6.656 16.4426L7.33044 15.9528H6.49688Z" fill="#F0F0F0"/>
<path d="M2.9735 15.9528L2.71619 15.1602L2.4585 15.9528H1.625L2.29944 16.4426L2.04175 17.2353L2.71619 16.7455L3.39025 17.2353L3.13263 16.4426L3.80694 15.9528H2.9735Z" fill="#F0F0F0"/>
<path d="M2.71619 12.2969L2.4585 13.0896H1.625L2.29944 13.5793L2.04175 14.372L2.71619 13.8823L3.39025 14.372L3.13263 13.5793L3.80694 13.0896H2.9735L2.71619 12.2969Z" fill="#F0F0F0"/>
<path d="M6.23962 9.4375L5.98194 10.2303H5.14844L5.82288 10.7201L5.56519 11.5128L6.23962 11.023L6.91363 11.5128L6.656 10.7201L7.33044 10.2303H6.49688L6.23962 9.4375Z" fill="#F0F0F0"/>
<path d="M2.71619 9.4375L2.4585 10.2303H1.625L2.29944 10.7201L2.04175 11.5128L2.71619 11.023L3.39025 11.5128L3.13263 10.7201L3.80694 10.2303H2.9735L2.71619 9.4375Z" fill="#F0F0F0"/>
<path d="M9.76105 12.2969L9.50342 13.0896H8.66992L9.3443 13.5793L9.08673 14.372L9.76105 13.8823L10.4352 14.372L10.1775 13.5793L10.8519 13.0896H10.0184L9.76105 12.2969Z" fill="#F0F0F0"/>
<path d="M10.0184 15.9528L9.76105 15.1602L9.50342 15.9528H8.66992L9.3443 16.4426L9.08673 17.2353L9.76105 16.7455L10.4352 17.2353L10.1775 16.4426L10.8519 15.9528H10.0184Z" fill="#F0F0F0"/>
<path d="M13.5418 15.9528L13.2845 15.1602L13.0268 15.9528H12.1934L12.8677 16.4426L12.61 17.2353L13.2845 16.7455L13.9585 17.2353L13.7009 16.4426L14.3753 15.9528H13.5418Z" fill="#F0F0F0"/>
<path d="M13.2845 12.2969L13.0268 13.0896H12.1934L12.8677 13.5793L12.61 14.372L13.2845 13.8823L13.9585 14.372L13.7009 13.5793L14.3753 13.0896H13.5418L13.2845 12.2969Z" fill="#F0F0F0"/>
<path d="M9.76105 9.4375L9.50342 10.2303H8.66992L9.3443 10.7201L9.08673 11.5128L9.76105 11.023L10.4352 11.5128L10.1775 10.7201L10.8519 10.2303H10.0184L9.76105 9.4375Z" fill="#F0F0F0"/>
<path d="M13.2845 9.4375L13.0268 10.2303H12.1934L12.8677 10.7201L12.61 11.5128L13.2845 11.023L13.9585 11.5128L13.7009 10.7201L14.3753 10.2303H13.5418L13.2845 9.4375Z" fill="#F0F0F0"/>
</svg>
