<svg class="tool" width="229" height="56" viewBox="0 0 229 56" fill="none" xmlns="http://www.w3.org/2000/svg">
<g clip-path="url(#clip0_1_2524)">
<g clip-path="url(#clip1_1_2524)">
<path d="M2.18726 10.9382V6.56323C2.18726 4.14703 4.14605 2.18823 6.56226 2.18823H10.9373" stroke="black" stroke-width="3.7" stroke-miterlimit="10" stroke-linecap="round" stroke-linejoin="round"></path>
<path d="M53.8121 10.9382V6.56323C53.8121 4.14703 51.8533 2.18823 49.4371 2.18823H45.0621" stroke="black" stroke-width="3.7" stroke-miterlimit="10" stroke-linecap="round" stroke-linejoin="round"></path>
<path d="M2.18726 45.0631V49.4381C2.18726 51.8543 4.14605 53.8131 6.56226 53.8131H10.9373" stroke="black" stroke-width="3.7" stroke-miterlimit="10" stroke-linecap="round" stroke-linejoin="round"></path>
<path d="M53.8121 45.0631V49.4381C53.8121 51.8543 51.8533 53.8131 49.4371 53.8131H45.0621" stroke="black" stroke-width="3.7" stroke-miterlimit="10" stroke-linecap="round" stroke-linejoin="round"></path>
<path d="M14.8751 19.2506C17.2914 19.2506 19.2501 17.2919 19.2501 14.8756C19.2501 12.4594 17.2914 10.5006 14.8751 10.5006C12.4589 10.5006 10.5001 12.4594 10.5001 14.8756C10.5001 17.2919 12.4589 19.2506 14.8751 19.2506Z" stroke="black" stroke-width="3.7" stroke-miterlimit="10" stroke-linecap="round" stroke-linejoin="round"></path>
<path d="M41.1248 45.5007C43.541 45.5007 45.4998 43.542 45.4998 41.1257C45.4998 38.7095 43.541 36.7507 41.1248 36.7507C38.7085 36.7507 36.7498 38.7095 36.7498 41.1257C36.7498 43.542 38.7085 45.5007 41.1248 45.5007Z" stroke="black" stroke-width="3.7" stroke-miterlimit="10" stroke-linecap="round" stroke-linejoin="round"></path>
<path d="M45.4998 10.5006H36.7498V19.2506H45.4998V10.5006Z" stroke="black" stroke-width="3.7" stroke-miterlimit="10" stroke-linecap="round" stroke-linejoin="round"></path>
<path d="M19.2495 27.9998L10.4996 36.7498L19.2495 45.4997L27.9995 36.7498L19.2495 27.9998Z" stroke="black" stroke-width="3.7" stroke-miterlimit="10" stroke-linecap="round" stroke-linejoin="round"></path>
<circle cx="28" cy="14.875" r="2.1875" fill="black"></circle>
<circle cx="32.3748" cy="28" r="2.1875" fill="black"></circle>
<circle cx="45.4998" cy="28" r="2.1875" fill="black"></circle>
</g>
<g opacity="0.86">
<path d="M65.8497 21.833V29.0042C65.8497 30.0415 65.7639 30.9267 65.5923 31.6598C65.4208 32.3851 65.0737 33.0793 64.5512 33.7422C63.8883 34.5845 63.0577 35.2396 62.0594 35.7075C61.0611 36.1755 60.016 36.4095 58.9241 36.4095C57.9961 36.4095 57.107 36.2535 56.2569 35.9415C55.4146 35.6217 54.6698 35.1772 54.0224 34.6079C53.3751 34.0307 52.8682 33.3405 52.5016 32.5372C52.1351 31.7339 51.9518 30.8682 51.9518 29.9401V21.833C51.9518 21.2637 52.1156 20.784 52.4431 20.3941C52.7707 19.9963 53.223 19.7974 53.8002 19.7974C54.3617 19.7974 54.8023 19.9963 55.1221 20.3941C55.4497 20.784 55.6134 21.2637 55.6134 21.833V29.4137C55.6134 30.4354 55.8708 31.2543 56.3856 31.8704C56.6741 32.2214 57.0485 32.4943 57.5086 32.6893C57.9688 32.8843 58.4328 32.9818 58.9007 32.9818C59.3921 32.9818 59.8717 32.8726 60.3397 32.6542C60.8154 32.4358 61.1976 32.1278 61.4861 31.73C61.9463 31.1217 62.1764 30.2131 62.1764 29.0042V21.833C62.1764 21.2637 62.3401 20.784 62.6677 20.3941C62.9953 19.9963 63.4398 19.7974 64.0013 19.7974C64.5707 19.7974 65.0191 19.9963 65.3467 20.3941C65.682 20.784 65.8497 21.2637 65.8497 21.833Z" fill="black"></path>
<path d="M72.3424 26.3136V34.1984C72.3424 34.7756 72.1787 35.2591 71.8511 35.649C71.5313 36.039 71.0868 36.234 70.5175 36.234C69.9481 36.234 69.4958 36.039 69.1604 35.649C68.8329 35.2591 68.6691 34.7756 68.6691 34.1984V21.6692C68.6691 21.1311 68.8368 20.6826 69.1721 20.3239C69.5075 19.9573 69.9403 19.7741 70.4707 19.7741C71.0712 19.7741 71.582 20.047 72.0032 20.593L79.0691 29.4839V21.8096C79.0691 21.2403 79.2329 20.7606 79.5605 20.3707C79.888 19.9729 80.3404 19.7741 80.9175 19.7741C81.479 19.7741 81.9197 19.969 82.2395 20.359C82.567 20.7489 82.7308 21.2325 82.7308 21.8096V34.1282C82.7308 34.8145 82.5709 35.3332 82.2511 35.6841C81.8846 36.0507 81.479 36.234 81.0345 36.234C80.4028 36.234 79.9153 36.0039 79.5722 35.5438L72.3424 26.3136Z" fill="black"></path>
<path d="M85.3162 24.7343C85.3162 23.7126 85.5853 22.8157 86.1234 22.0436C86.6615 21.2637 87.3751 20.667 88.2642 20.2537C89.1611 19.8403 90.1126 19.6337 91.1187 19.6337C91.727 19.6337 92.3704 19.7 93.049 19.8325C93.7353 19.9573 94.3319 20.1874 94.8388 20.5228C95.3458 20.8581 95.5992 21.3105 95.5992 21.8798C95.5992 22.3789 95.4394 22.804 95.1196 23.1549C94.8076 23.5059 94.4099 23.6814 93.9263 23.6814C93.7158 23.6814 93.5325 23.658 93.3765 23.6112L92.698 23.3655C92.1209 23.1627 91.571 23.0614 91.0485 23.0614C90.5883 23.0614 90.1672 23.1783 89.785 23.4123C89.4107 23.6385 89.2235 23.9582 89.2235 24.3716C89.2235 25.0267 89.7188 25.483 90.7092 25.7403L91.6919 26.0094C93.2361 26.4228 94.4606 26.9882 95.3653 27.7057C96.27 28.4154 96.7223 29.4449 96.7223 30.7941C96.7223 32.4475 96.27 33.75 95.3653 34.7015C94.8193 35.2942 94.1369 35.727 93.318 36C92.5069 36.273 91.6529 36.4095 90.756 36.4095C89.126 36.4095 87.73 36.1287 86.5679 35.5672C86.1546 35.3722 85.8231 35.107 85.5736 34.7717C85.324 34.4363 85.1992 34.0541 85.1992 33.6252C85.1992 33.204 85.3552 32.8258 85.6671 32.4904C85.9869 32.1473 86.3574 31.9757 86.7785 31.9757C87.1373 31.9757 87.4492 32.0303 87.7144 32.1395L88.9895 32.6191C89.6057 32.8609 90.2023 32.9818 90.7794 32.9818C91.302 32.9818 91.766 32.8336 92.1716 32.5372C92.5849 32.2409 92.7916 31.8353 92.7916 31.3206C92.7916 30.798 92.5927 30.4081 92.195 30.1507C91.8674 29.9479 91.5476 29.7958 91.2357 29.6945C90.9237 29.5853 90.3895 29.4176 89.633 29.1914C88.6581 28.9107 87.8743 28.6143 87.2815 28.3023C86.6888 27.9904 86.2131 27.5497 85.8543 26.9804C85.4956 26.4033 85.3162 25.6545 85.3162 24.7343Z" fill="black"></path>
<path d="M105.777 23.2953V34.1984C105.777 34.7833 105.613 35.2708 105.286 35.6607C104.966 36.0429 104.517 36.234 103.94 36.234C103.371 36.234 102.919 36.039 102.583 35.649C102.256 35.2591 102.092 34.7756 102.092 34.1984V23.2953H99.916C99.4013 23.2953 98.9684 23.151 98.6175 22.8625C98.2665 22.5739 98.091 22.1762 98.091 21.6692C98.091 21.1623 98.2626 20.7606 98.6058 20.4643C98.9567 20.1679 99.3935 20.0197 99.916 20.0197H107.894C108.417 20.0197 108.85 20.1679 109.193 20.4643C109.536 20.7528 109.708 21.1545 109.708 21.6692C109.708 22.1684 109.532 22.5661 109.181 22.8625C108.83 23.151 108.401 23.2953 107.894 23.2953H105.777Z" fill="black"></path>
<path d="M115.229 29.5073V34.1984C115.229 34.7756 115.066 35.2591 114.738 35.649C114.418 36.039 113.974 36.234 113.405 36.234C112.835 36.234 112.383 36.039 112.047 35.649C111.72 35.2591 111.556 34.7756 111.556 34.1984V22.2425C111.556 21.5483 111.751 21.0102 112.141 20.628C112.539 20.2381 113.089 20.0431 113.791 20.0431H117.476C119.106 20.0431 120.424 20.4565 121.43 21.2832C121.952 21.7199 122.358 22.2503 122.646 22.8742C122.935 23.4981 123.079 24.1493 123.079 24.8278C123.079 26.2707 122.666 27.3976 121.839 28.2087C121.293 28.7313 120.455 29.1251 119.324 29.3903L122.436 32.8063C122.912 33.321 123.192 33.7539 123.278 34.1048C123.309 34.2998 123.325 34.4363 123.325 34.5143C123.325 34.951 123.173 35.3488 122.869 35.7075C122.572 36.0585 122.221 36.234 121.816 36.234C120.981 36.234 120.365 35.9727 119.967 35.4502L115.229 29.5073ZM115.229 26.9453H117.499C118.068 26.9453 118.54 26.7776 118.915 26.4423C119.297 26.1069 119.488 25.6662 119.488 25.1203C119.488 24.5822 119.281 24.1337 118.868 23.775C118.454 23.4084 117.975 23.2251 117.429 23.2251H115.229V26.9453Z" fill="black"></path>
<path d="M139.644 21.833V29.0042C139.644 30.0415 139.559 30.9267 139.387 31.6598C139.216 32.3851 138.868 33.0793 138.346 33.7422C137.683 34.5845 136.852 35.2396 135.854 35.7075C134.856 36.1755 133.811 36.4095 132.719 36.4095C131.791 36.4095 130.902 36.2535 130.052 35.9415C129.209 35.6217 128.465 35.1772 127.817 34.6079C127.17 34.0307 126.663 33.3405 126.296 32.5372C125.93 31.7339 125.747 30.8682 125.747 29.9401V21.833C125.747 21.2637 125.91 20.784 126.238 20.3941C126.565 19.9963 127.018 19.7974 127.595 19.7974C128.156 19.7974 128.597 19.9963 128.917 20.3941C129.244 20.784 129.408 21.2637 129.408 21.833V29.4137C129.408 30.4354 129.666 31.2543 130.18 31.8704C130.469 32.2214 130.843 32.4943 131.303 32.6893C131.764 32.8843 132.228 32.9818 132.696 32.9818C133.187 32.9818 133.666 32.8726 134.134 32.6542C134.61 32.4358 134.992 32.1278 135.281 31.73C135.741 31.1217 135.971 30.2131 135.971 29.0042V21.833C135.971 21.2637 136.135 20.784 136.462 20.3941C136.79 19.9963 137.235 19.7974 137.796 19.7974C138.365 19.7974 138.814 19.9963 139.141 20.3941C139.477 20.784 139.644 21.2637 139.644 21.833Z" fill="black"></path>
<path d="M141.867 27.5419C141.867 26.4189 142.058 25.3738 142.44 24.4067C142.823 23.4318 143.369 22.5856 144.078 21.8681C144.788 21.1506 145.626 20.6008 146.593 20.2186C147.568 19.8286 148.629 19.6337 149.775 19.6337C150.399 19.6337 151.078 19.7117 151.811 19.8676C152.552 20.0236 153.191 20.2888 153.73 20.6631C154.268 21.0297 154.537 21.5093 154.537 22.1021C154.537 22.5934 154.412 23.0029 154.162 23.3304C153.921 23.658 153.57 23.8218 153.11 23.8218C152.821 23.8218 152.365 23.7048 151.741 23.4708C151.062 23.1978 150.438 23.0614 149.869 23.0614C148.949 23.0614 148.184 23.2797 147.576 23.7165C146.968 24.1454 146.515 24.7304 146.219 25.4713C145.923 26.2044 145.775 27.0311 145.775 27.9514C145.775 29.7841 146.231 31.1256 147.143 31.9757C147.861 32.6464 148.762 32.9818 149.846 32.9818C150.446 32.9818 150.934 32.8999 151.308 32.7361L152.384 32.2331C152.673 32.1239 152.915 32.0693 153.11 32.0693C153.601 32.0693 153.987 32.2409 154.268 32.584C154.548 32.9272 154.689 33.3288 154.689 33.789C154.689 34.4831 154.311 35.0524 153.554 35.497C152.548 36.1053 151.249 36.4095 149.658 36.4095C148.66 36.4095 147.693 36.234 146.757 35.883C145.829 35.5243 145.014 35.0095 144.312 34.3388C142.682 32.7946 141.867 30.529 141.867 27.5419Z" fill="black"></path>
<path d="M163.451 23.2953V34.1984C163.451 34.7833 163.287 35.2708 162.96 35.6607C162.64 36.0429 162.192 36.234 161.614 36.234C161.045 36.234 160.593 36.039 160.257 35.649C159.93 35.2591 159.766 34.7756 159.766 34.1984V23.2953H157.59C157.075 23.2953 156.643 23.151 156.292 22.8625C155.941 22.5739 155.765 22.1762 155.765 21.6692C155.765 21.1623 155.937 20.7606 156.28 20.4643C156.631 20.1679 157.068 20.0197 157.59 20.0197H165.569C166.091 20.0197 166.524 20.1679 166.867 20.4643C167.21 20.7528 167.382 21.1545 167.382 21.6692C167.382 22.1684 167.206 22.5661 166.855 22.8625C166.504 23.151 166.076 23.2953 165.569 23.2953H163.451Z" fill="black"></path>
<path d="M182.953 21.833V29.0042C182.953 30.0415 182.867 30.9267 182.695 31.6598C182.524 32.3851 182.177 33.0793 181.654 33.7422C180.991 34.5845 180.161 35.2396 179.162 35.7075C178.164 36.1755 177.119 36.4095 176.027 36.4095C175.099 36.4095 174.21 36.2535 173.36 35.9415C172.518 35.6217 171.773 35.1772 171.125 34.6079C170.478 34.0307 169.971 33.3405 169.605 32.5372C169.238 31.7339 169.055 30.8682 169.055 29.9401V21.833C169.055 21.2637 169.219 20.784 169.546 20.3941C169.874 19.9963 170.326 19.7974 170.903 19.7974C171.465 19.7974 171.905 19.9963 172.225 20.3941C172.553 20.784 172.716 21.2637 172.716 21.833V29.4137C172.716 30.4354 172.974 31.2543 173.489 31.8704C173.777 32.2214 174.151 32.4943 174.612 32.6893C175.072 32.8843 175.536 32.9818 176.004 32.9818C176.495 32.9818 176.975 32.8726 177.443 32.6542C177.918 32.4358 178.301 32.1278 178.589 31.73C179.049 31.1217 179.279 30.2131 179.279 29.0042V21.833C179.279 21.2637 179.443 20.784 179.771 20.3941C180.098 19.9963 180.543 19.7974 181.104 19.7974C181.674 19.7974 182.122 19.9963 182.45 20.3941C182.785 20.784 182.953 21.2637 182.953 21.833Z" fill="black"></path>
<path d="M189.445 29.5073V34.1984C189.445 34.7756 189.282 35.2591 188.954 35.649C188.634 36.039 188.19 36.234 187.62 36.234C187.051 36.234 186.599 36.039 186.263 35.649C185.936 35.2591 185.772 34.7756 185.772 34.1984V22.2425C185.772 21.5483 185.967 21.0102 186.357 20.628C186.755 20.2381 187.305 20.0431 188.006 20.0431H191.692C193.322 20.0431 194.64 20.4565 195.646 21.2832C196.168 21.7199 196.574 22.2503 196.862 22.8742C197.151 23.4981 197.295 24.1493 197.295 24.8278C197.295 26.2707 196.882 27.3976 196.055 28.2087C195.509 28.7313 194.671 29.1251 193.54 29.3903L196.652 32.8063C197.127 33.321 197.408 33.7539 197.494 34.1048C197.525 34.2998 197.541 34.4363 197.541 34.5143C197.541 34.951 197.389 35.3488 197.085 35.7075C196.788 36.0585 196.437 36.234 196.032 36.234C195.197 36.234 194.581 35.9727 194.183 35.4502L189.445 29.5073ZM189.445 26.9453H191.715C192.284 26.9453 192.756 26.7776 193.13 26.4423C193.513 26.1069 193.704 25.6662 193.704 25.1203C193.704 24.5822 193.497 24.1337 193.084 23.775C192.67 23.4084 192.191 23.2251 191.645 23.2251H189.445V26.9453Z" fill="black"></path>
<path d="M203.811 23.2953V26.337H207.227C207.742 26.337 208.175 26.4851 208.526 26.7815C208.877 27.0701 209.052 27.4756 209.052 27.9982C209.052 28.4895 208.873 28.8834 208.514 29.1797C208.163 29.4761 207.734 29.6243 207.227 29.6243H203.811V32.7127H207.59C208.12 32.7127 208.557 32.857 208.9 33.1455C209.243 33.4341 209.415 33.8397 209.415 34.3622C209.415 34.8613 209.239 35.2591 208.888 35.5555C208.545 35.8518 208.112 36 207.59 36H202.372C201.663 36 201.113 35.805 200.723 35.4151C200.333 35.0251 200.138 34.4753 200.138 33.7656V22.2425C200.138 21.5483 200.333 21.0063 200.723 20.6163C201.121 20.2186 201.67 20.0197 202.372 20.0197H207.59C208.12 20.0197 208.557 20.1679 208.9 20.4643C209.243 20.7528 209.415 21.1545 209.415 21.6692C209.415 22.1684 209.239 22.5661 208.888 22.8625C208.545 23.151 208.112 23.2953 207.59 23.2953H203.811Z" fill="black"></path>
<path d="M211.907 33.7188V22.2425C211.907 21.5483 212.102 21.0063 212.492 20.6163C212.889 20.2186 213.439 20.0197 214.141 20.0197H217.592C219.667 20.0197 221.367 20.5072 222.693 21.482C223.66 22.1918 224.393 23.1354 224.892 24.3131C225.391 25.4908 225.641 26.7269 225.641 28.0216C225.641 29.5424 225.341 30.9111 224.74 32.1278C224.14 33.3366 223.27 34.2842 222.131 34.9705C220.993 35.6568 219.655 36 218.119 36L214.094 35.9532C213.408 35.9532 212.87 35.7543 212.48 35.3566C212.098 34.9588 211.907 34.4129 211.907 33.7188ZM215.58 32.8063H217.393C218.758 32.8063 219.78 32.4475 220.458 31.73C221.308 30.8409 221.734 29.6048 221.734 28.0216C221.734 26.3292 221.246 25.0579 220.271 24.2078C219.538 23.5527 218.442 23.2251 216.984 23.2251H215.58V32.8063Z" fill="black"></path>
</g>
</g>
<defs>
<clipPath id="clip0_1_2524">
<rect width="228.226" height="56" fill="white"></rect>
</clipPath>
<clipPath id="clip1_1_2524">
<rect width="56" height="56" fill="white"></rect>
</clipPath>
</defs>
</svg>