<svg class="tool" xmlns="http://www.w3.org/2000/svg" width="155" height="56" fill="none" viewBox="0 0 155 56">
  <path fill="#000" stroke="#fff" stroke-width="3.952" d="M151.463 14.043v.008c-.706 2.824-2.729 4.871-4.183 6.162l-.037.033a7.925 7.925 0 0 1-.712.55c.107.222.2.448.271.682l.012.043c.278.93.347 1.91.207 2.872a23.084 23.084 0 0 1-1.295 4.694c-.262.736-.512 1.432-.706 2.118-.526 1.832-1.129 3.998-1.613 6.213a17.969 17.969 0 0 0-.361 4.918 4.135 4.135 0 0 1-1.773 3.764 13.358 13.358 0 0 1-3.878 2.078c-2.303.702-3.913.09-4.855-.547a4.491 4.491 0 0 1-.444-.34 9.865 9.865 0 0 1-3.824 1.407c-.545.08-1.091.123-1.64.127a7.564 7.564 0 0 1-5.717-2.372 7.752 7.752 0 0 1-.544-.638c-.511.368-1.049.698-1.608.987a8.419 8.419 0 0 1-5.15.892 7.752 7.752 0 0 1-4.065-1.711 7.573 7.573 0 0 1-2.465-4.559c-.083-.438-.138-.88-.167-1.325-.787 1.123-1.636 2.176-2.455 3.167a16.503 16.503 0 0 1-5.634 4.559 10.182 10.182 0 0 1-7.316.627 13.016 13.016 0 0 1-3.792-1.608 7.74 7.74 0 0 1-1.663-1.46c-.478.494-.956.948-1.412 1.386-.278.266-.56.532-.835.802a4.5 4.5 0 0 1-3.251 1.3 5.83 5.83 0 0 1-.955-.08 15.925 15.925 0 0 1-4.038-1.157l-.04-.02a7.606 7.606 0 0 1-3.216-2.7 18.09 18.09 0 0 1-3.96 2.462 13.578 13.578 0 0 1-4.486 1.279 28.543 28.543 0 0 1-4.129.161 12.668 12.668 0 0 1-6.483-2.066 9.929 9.929 0 0 1-4.05-5.82c-.01-.05-.027-.1-.039-.15a9.234 9.234 0 0 1-2.081.675 9.944 9.944 0 0 1-5.614-.395 5.957 5.957 0 0 1-3.73-4.401 62.197 62.197 0 0 0-3.992 6.525c-.125.232-.25.514-.387.807a15.41 15.41 0 0 1-.922 1.787 6.506 6.506 0 0 1-5.725 3.155h-.02a7.478 7.478 0 0 1-3.53-.77 5.368 5.368 0 0 1-.363-.212c-.17.086-.34.17-.513.25a15.14 15.14 0 0 1-5.02 1.513l-.283.032c-.722.07-1.517.15-2.354.15-.238 0-.482-.009-.724-.02A11.337 11.337 0 0 1 7.3 47.4a10.578 10.578 0 0 1-3.68-6.136 14.24 14.24 0 0 1-.15-4.954c.35-2.4 1.129-4.717 2.295-6.843a28.194 28.194 0 0 1 3.167-4.787 20.035 20.035 0 0 1 4.647-4.139 12.99 12.99 0 0 1 4.68-1.882c2.273-.423 4.458.121 6.691 1.666a10.993 10.993 0 0 1 2.931 2.964c1.525-2.133 3.435-3.365 5.676-3.655a5.662 5.662 0 0 1 5.808 2.743 13.95 13.95 0 0 1 2.035-1.158 10.172 10.172 0 0 1 4.797-1.045c2.562.113 4.51.962 5.95 2.598a6.4 6.4 0 0 1 1.28 2.24c.576-.7 1.208-1.352 1.886-1.951a12.934 12.934 0 0 1 6.487-3.24c.89-.127 1.792-.155 2.689-.085l.566.02c1.358.052 2.69.374 3.922.947a8.58 8.58 0 0 1 3.814 3.22c.196-.324.408-.646.63-.955 1.331-1.844 2.997-2.931 4.954-3.236a6.402 6.402 0 0 1 4.996 1.146 5.472 5.472 0 0 1 1.961 5.634c-.074.353-.153.708-.232 1.061.319-.678.644-1.361.983-2.037 1.026-2.068 2.38-3.48 4.135-4.313a6.597 6.597 0 0 1 6.781.539c.886.605 1.97 1.78 2.119 3.973a10.447 10.447 0 0 1-.6 3.888l-.262.853.164-.375c.332-.759.67-1.52 1.01-2.27 1.041-2.31 2.108-4.667 4.962-6.432a10.033 10.033 0 0 1 2.01-1.003c2.21-.75 6.773-.565 8.385 2.36a11.74 11.74 0 0 1 2.881-1.936 10.33 10.33 0 0 1 4.605-1.078l.149.005c1.22-.034 2.438.12 3.611.457a6.36 6.36 0 0 1 2.077 1.094c1.755-.624 3.988-.585 5.634.712.325.258.616.56.862.895.5-.786 1.069-1.53 1.698-2.218a8.113 8.113 0 0 1 2.508-1.886 12.836 12.836 0 0 1-.787-2.623 14.74 14.74 0 0 1-.313-2.606v-.067a7.62 7.62 0 0 1 1.398-4.603 6.53 6.53 0 0 1 5.188-2.792 8.212 8.212 0 0 1 4.182.912 6.152 6.152 0 0 1 2.983 7.02Z"></path>
  <path fill="#262626" d="M151.463 14.043v.008c-.706 2.824-2.729 4.871-4.183 6.162l-.037.033a7.925 7.925 0 0 1-.712.55c.107.222.2.448.271.682l.012.043c.278.93.347 1.91.207 2.872a23.084 23.084 0 0 1-1.295 4.694c-.262.736-.512 1.432-.706 2.118-.526 1.832-1.129 3.998-1.613 6.213a17.969 17.969 0 0 0-.361 4.918 4.135 4.135 0 0 1-1.773 3.764 13.36 13.36 0 0 1-3.878 2.078c-2.303.702-3.913.09-4.855-.547a4.491 4.491 0 0 1-.444-.34 9.865 9.865 0 0 1-3.824 1.407c-.545.08-1.091.123-1.64.127a7.564 7.564 0 0 1-5.717-2.372 7.752 7.752 0 0 1-.544-.638c-.511.368-1.049.698-1.608.987a8.419 8.419 0 0 1-5.15.892 7.752 7.752 0 0 1-4.065-1.711 7.573 7.573 0 0 1-2.465-4.559c-.083-.438-.138-.88-.167-1.325-.787 1.123-1.636 2.176-2.455 3.167a16.503 16.503 0 0 1-5.634 4.559 10.182 10.182 0 0 1-7.316.627 13.016 13.016 0 0 1-3.792-1.608 7.74 7.74 0 0 1-1.663-1.46c-.478.494-.956.948-1.412 1.386-.278.266-.56.532-.835.802a4.5 4.5 0 0 1-3.251 1.3 5.83 5.83 0 0 1-.955-.08 15.925 15.925 0 0 1-4.038-1.157l-.04-.02a7.606 7.606 0 0 1-3.216-2.7 18.09 18.09 0 0 1-3.96 2.462 13.578 13.578 0 0 1-4.486 1.279 28.543 28.543 0 0 1-4.129.161 12.668 12.668 0 0 1-6.483-2.066 9.929 9.929 0 0 1-4.05-5.82c-.01-.05-.027-.1-.039-.15a9.234 9.234 0 0 1-2.081.675 9.944 9.944 0 0 1-5.614-.395 5.957 5.957 0 0 1-3.73-4.401 62.197 62.197 0 0 0-3.992 6.525c-.125.232-.25.514-.387.807a15.394 15.394 0 0 1-.922 1.787 6.506 6.506 0 0 1-5.725 3.155h-.02a7.478 7.478 0 0 1-3.53-.77 5.368 5.368 0 0 1-.363-.212c-.17.086-.34.17-.513.25a15.14 15.14 0 0 1-5.02 1.513l-.283.032c-.722.07-1.517.15-2.354.15-.238 0-.482-.009-.724-.02A11.337 11.337 0 0 1 7.3 47.4a10.578 10.578 0 0 1-3.68-6.136 14.24 14.24 0 0 1-.15-4.954c.35-2.4 1.129-4.717 2.295-6.843a28.194 28.194 0 0 1 3.167-4.787 20.035 20.035 0 0 1 4.647-4.139 12.99 12.99 0 0 1 4.68-1.882c2.273-.423 4.458.121 6.691 1.666a10.993 10.993 0 0 1 2.931 2.964c1.525-2.133 3.435-3.365 5.676-3.655a5.662 5.662 0 0 1 5.808 2.743 13.95 13.95 0 0 1 2.035-1.158 10.174 10.174 0 0 1 4.797-1.045c2.562.113 4.51.962 5.95 2.598a6.4 6.4 0 0 1 1.28 2.24c.576-.7 1.208-1.352 1.886-1.951a12.934 12.934 0 0 1 6.487-3.24c.89-.127 1.792-.155 2.689-.085l.566.02c1.358.052 2.69.374 3.922.947a8.58 8.58 0 0 1 3.814 3.22c.196-.324.408-.646.63-.955 1.331-1.844 2.997-2.931 4.954-3.236a6.402 6.402 0 0 1 4.996 1.146 5.472 5.472 0 0 1 1.961 5.634c-.074.353-.153.708-.232 1.061.319-.678.644-1.361.983-2.037 1.026-2.068 2.38-3.48 4.135-4.313a6.597 6.597 0 0 1 6.781.539c.886.605 1.97 1.78 2.119 3.973a10.447 10.447 0 0 1-.6 3.888l-.262.853.164-.375c.332-.759.67-1.52 1.01-2.27 1.041-2.31 2.108-4.667 4.962-6.432a10.033 10.033 0 0 1 2.01-1.003c2.21-.75 6.773-.565 8.385 2.36a11.74 11.74 0 0 1 2.881-1.936 10.33 10.33 0 0 1 4.605-1.078l.149.005c1.22-.034 2.438.12 3.611.457a6.36 6.36 0 0 1 2.077 1.094c1.755-.624 3.988-.585 5.634.712.325.258.616.56.862.895.5-.786 1.069-1.53 1.698-2.218a8.113 8.113 0 0 1 2.508-1.886 12.836 12.836 0 0 1-.787-2.623 14.74 14.74 0 0 1-.313-2.606v-.067a7.62 7.62 0 0 1 1.398-4.603 6.53 6.53 0 0 1 5.188-2.792 8.212 8.212 0 0 1 4.182.912 6.152 6.152 0 0 1 2.983 7.02Z"></path>
  <path fill="#FF5A50" d="M148.612 13.35c-.47 1.881-1.87 3.426-3.284 4.679a6.499 6.499 0 0 1-1.674 1.043c-.734.325-1.229.119-1.67-.545a8.102 8.102 0 0 1-1.086-2.925 11.701 11.701 0 0 1-.254-2.102 4.714 4.714 0 0 1 .841-2.872 3.611 3.611 0 0 1 2.921-1.573 5.297 5.297 0 0 1 2.707.576c1.342.696 1.852 2.296 1.499 3.718Zm-4.609 9.018c-.309-.982-1.213-1.158-2.086-1.24-1.432-.13-2.554.59-3.459 1.565a15.067 15.067 0 0 0-1.937 2.723c-1.134 1.963-1.823 4.129-2.485 6.281a331.54 331.54 0 0 0-1.341 4.446c-.319 1.073-.676 2.73-1.671 3.567a1.37 1.37 0 0 1-.911.363c-.416-.059-.565-.496-.583-.904-.024-.45-.025-.9-.004-1.35.113-1.38.403-2.739.857-4.046.666-2.15 1.382-4.289 2.025-6.447a3.472 3.472 0 0 0 .036-2.318 1.704 1.704 0 0 0-.508-.68c-.896-.705-2.521-.586-3.502.067-.325.222-.645.454-.986.688-.075-.121-.133-.208-.188-.302a3.587 3.587 0 0 0-2.118-1.772 9.857 9.857 0 0 0-2.904-.32 7.481 7.481 0 0 0-3.317.794 10.46 10.46 0 0 0-3.994 3.553 34.905 34.905 0 0 0-2.949 4.784 20.248 20.248 0 0 0-1.922 5.342c-.131.682-.21 1.372-.234 2.066a8.168 8.168 0 0 0 .151 1.674 4.691 4.691 0 0 0 1.479 2.856 4.91 4.91 0 0 0 2.588 1.043 5.458 5.458 0 0 0 3.364-.587 10.751 10.751 0 0 0 2.97-2.306c.357-.383.732-.75 1.139-1.174.047.246.081.404.105.561a5.83 5.83 0 0 0 1.428 3.149c1.322 1.392 3.016 1.624 4.801 1.361a7.033 7.033 0 0 0 2.758-1.032c.435-.279 1.714-1.78 2.217-1.39.613.478.675 1.363 1.361 1.825a2.757 2.757 0 0 0 2.362.174 10.838 10.838 0 0 0 3.028-1.662 1.24 1.24 0 0 0 .545-1.225c-.115-1.91.026-3.826.423-5.698.472-2.146 1.053-4.273 1.658-6.385.612-2.152 1.616-4.19 1.923-6.432a3.755 3.755 0 0 0-.119-1.612Zm-19.74 6.762a17.66 17.66 0 0 1-3.55 7.148 9.287 9.287 0 0 1-2.127 2.05c-.484.323-.952.44-1.218-.156a1.681 1.681 0 0 1-.137-.516c-.105-1.023.399-2.086.748-3.018a37.106 37.106 0 0 1 1.287-3.08c.686-1.452 1.487-2.844 2.74-3.889a4.96 4.96 0 0 1 1.349-.72c.333-.133.724.165.875.532a2.69 2.69 0 0 1 .033 1.648Z"></path>
  <path fill="#fff" d="M50.858 34.557c-.696 2.165-2.084 3.57-4.362 4.026a7.015 7.015 0 0 1-3.983-.258 3.082 3.082 0 0 1-1.981-2.802c-.093-1.632.56-3.04 1.319-4.417.317-.571.645-1.138.908-1.735a2.11 2.11 0 0 0 .125-.94.706.706 0 0 0-.967-.549c-.564.262-1.089.6-1.565 1.003-1.904 1.749-3.435 3.812-4.91 5.93a65.308 65.308 0 0 0-4.296 6.998c-.418.797-.733 1.658-1.204 2.416a3.595 3.595 0 0 1-3.248 1.774 4.612 4.612 0 0 1-2.177-.438 2.42 2.42 0 0 1-1.127-1.311c-.779.433-1.55.916-2.362 1.299a12.413 12.413 0 0 1-4.055 1.248c-.96.125-1.93.175-2.899.148a8.402 8.402 0 0 1-4.93-1.824 7.645 7.645 0 0 1-2.662-4.478 11.335 11.335 0 0 1-.107-3.95 17.369 17.369 0 0 1 1.979-5.858 25.352 25.352 0 0 1 2.84-4.29 17.182 17.182 0 0 1 3.968-3.54 10.164 10.164 0 0 1 3.639-1.463c1.678-.312 3.126.267 4.472 1.197a7.948 7.948 0 0 1 2.32 2.426 4.36 4.36 0 0 1 .403 3.224 15.866 15.866 0 0 1-1.271 3.423c-.508 1.13-1.013 2.255-1.533 3.379a.978.978 0 0 1-1.245.597 4.356 4.356 0 0 1-2.935-3.194 5.831 5.831 0 0 1 .5-3.11c.467-1.2 1.003-2.374 1.52-3.55a.678.678 0 0 0-.263-.952 3.018 3.018 0 0 0-1.54.9 31.929 31.929 0 0 0-2.074 2.265 27.636 27.636 0 0 0-3.367 5.365 9.717 9.717 0 0 0-1.049 3.528 9.03 9.03 0 0 0 .09 2.845 2.634 2.634 0 0 0 2.486 2.198 11.16 11.16 0 0 0 6.574-1.7 25.202 25.202 0 0 0 2.15-1.66 1.04 1.04 0 0 0 .274-.43c.694-1.852 1.344-3.718 2.078-5.547.54-1.36 1.182-2.68 1.785-4.008a21.646 21.646 0 0 1 2.074-3.726c.916-1.287 2.07-2.261 3.677-2.47 1.295-.167 2.49.267 3.107 1.732.544 1.287.232 2.521-.188 3.76-.109.316-.214.633-.35 1.04.754-.822 1.395-1.605 2.12-2.293a14.96 14.96 0 0 1 4.005-2.899 7.363 7.363 0 0 1 3.436-.778c1.476.066 2.852.437 3.887 1.607.45.529.746 1.17.855 1.856.242 1.271-.18 2.413-.65 3.554-.346.848-.703 1.69-.966 2.564-.21.708.166 1.21.916 1.4.168.044.337.073.508.083.279.012.317.17.253.383l-.002.002Zm61.408-10.277c-.617-1.384-3.661-1.53-4.917-1.102a7.02 7.02 0 0 0-1.414.72c-2.102 1.301-2.849 2.97-3.835 5.15-.978 2.153-1.878 4.343-2.925 6.461a32.305 32.305 0 0 1-2.372 3.92 3.62 3.62 0 0 1-2.235 1.613c-.553.11-.779-.139-.975-.619a4.56 4.56 0 0 1-.324-1.386 11.035 11.035 0 0 1 .52-4.038c.621-2.086 1.291-4.156 1.92-6.237a7.794 7.794 0 0 0 .478-2.824 2.176 2.176 0 0 0-.84-1.745 3.716 3.716 0 0 0-3.87-.317c-1.299.617-2.148 1.72-2.771 2.973-.88 1.761-1.674 3.565-2.536 5.334-.59 1.224-1.228 2.429-1.846 3.639a28.524 28.524 0 0 1-2.813 4.726c-.172.218-.478.525-.674.488-.234-.034-.424-.391-.621-.613a.344.344 0 0 1-.071-.141 7.458 7.458 0 0 1-.153-3.31 54.84 54.84 0 0 1 .736-3.712c.565-2.455 1.206-4.892 1.735-7.359a2.542 2.542 0 0 0-.878-2.686 3.51 3.51 0 0 0-2.76-.58c-1.302.202-2.258.993-3.025 2.05a11.901 11.901 0 0 0-1.947 4.337c-.302 1.291-.5 2.604-.716 3.92-.097.605-.1 1.224-.175 1.839a.848.848 0 0 1-.208.458 49.334 49.334 0 0 1-1.594 1.596 13.582 13.582 0 0 1-3.495 2.44 6.618 6.618 0 0 1-5.503.345 3.63 3.63 0 0 1-2.276-2.672c.763 0 1.497.008 2.233 0a10.6 10.6 0 0 0 4.977-1.304 7.639 7.639 0 0 0 3.342-3.34 7.256 7.256 0 0 0 .559-5.208 5.45 5.45 0 0 0-3.211-3.706 7.32 7.32 0 0 0-2.81-.696 14.05 14.05 0 0 0-2.691.026 10.062 10.062 0 0 0-5.029 2.542 16.354 16.354 0 0 0-3.627 4.72 17.024 17.024 0 0 0-1.91 6.374 10.683 10.683 0 0 0 .31 3.8 7.028 7.028 0 0 0 2.86 4.164 9.76 9.76 0 0 0 5 1.57c1.24.037 2.48-.015 3.713-.154a10.86 10.86 0 0 0 3.538-1.032 15.512 15.512 0 0 0 4.86-3.49c.43-.452.84-.924 1.21-1.336.35.858.668 1.745 1.069 2.59a4.905 4.905 0 0 0 2.455 2.478 12.94 12.94 0 0 0 3.318.95 1.85 1.85 0 0 0 1.699-.41c.754-.744 1.54-1.46 2.277-2.223.411-.456.799-.932 1.162-1.428.537-.686 1.063-1.382 1.624-2.11.06.357.105.658.171.956.35 1.513.995 2.828 2.344 3.718.916.563 1.916.976 2.961 1.228a7.288 7.288 0 0 0 5.267-.443 13.685 13.685 0 0 0 4.638-3.783 41.263 41.263 0 0 0 2.797-3.697 127.97 127.97 0 0 0 3.744-6.167c.61-1.06 1.203-2.132 1.79-3.205.482-.875 1.769-2.42 1.845-3.403a1.305 1.305 0 0 0-.105-.65Zm-51.857 7.665a9.292 9.292 0 0 1 1.793-2.994 3.426 3.426 0 0 1 1.85-1.19 1.455 1.455 0 0 1 1.636 1.84c-.559 2.378-2.136 3.724-4.43 4.31-.5.085-1.006.133-1.513.146.242-.783.43-1.457.666-2.114l-.002.002Z"></path>
</svg>