<svg class="tool" width="237" height="56" viewBox="0 0 237 56" fill="none" xmlns="http://www.w3.org/2000/svg">
<g clip-path="url(#clip0_1_1808)">
<path d="M75.6792 37H71.5905L77.8205 18.9532H82.7375L88.9588 37H84.87L80.3495 23.0771H80.2085L75.6792 37ZM75.4236 29.9064H85.0815V32.8848H75.4236V29.9064Z" fill="black"></path>
<path d="M93.3757 37L88.212 18.9532H92.38L95.3672 31.4925H95.517L98.8127 18.9532H102.382L105.668 31.519H105.827L108.814 18.9532H112.982L107.819 37H104.1L100.663 25.2008H100.522L97.0944 37H93.3757Z" fill="black"></path>
<path d="M124.645 24.1434C124.574 23.4326 124.272 22.8803 123.737 22.4867C123.203 22.0931 122.477 21.8963 121.561 21.8963C120.938 21.8963 120.412 21.9845 119.983 22.1607C119.555 22.3311 119.226 22.569 118.996 22.8745C118.773 23.1799 118.662 23.5265 118.662 23.9143C118.65 24.2374 118.717 24.5194 118.864 24.7602C119.017 25.0011 119.226 25.2096 119.49 25.3859C119.754 25.5562 120.06 25.706 120.406 25.8353C120.753 25.9586 121.123 26.0644 121.517 26.1525L123.138 26.5402C123.925 26.7165 124.648 26.9515 125.306 27.2452C125.964 27.5389 126.534 27.9002 127.015 28.329C127.497 28.7579 127.87 29.2631 128.134 29.8447C128.405 30.4263 128.543 31.0931 128.549 31.845C128.543 32.9494 128.261 33.907 127.703 34.7177C127.15 35.5225 126.351 36.1482 125.306 36.5946C124.266 37.0352 123.012 37.2555 121.543 37.2555C120.086 37.2555 118.817 37.0323 117.736 36.5858C116.661 36.1394 115.821 35.4785 115.216 34.6031C114.617 33.722 114.303 32.6322 114.273 31.3339H117.965C118.007 31.939 118.18 32.4442 118.485 32.8496C118.797 33.249 119.211 33.5516 119.728 33.7572C120.251 33.9569 120.841 34.0568 121.499 34.0568C122.145 34.0568 122.706 33.9628 123.182 33.7748C123.664 33.5868 124.037 33.3254 124.301 32.9906C124.566 32.6557 124.698 32.2709 124.698 31.8362C124.698 31.4308 124.577 31.0901 124.336 30.814C124.101 30.5379 123.755 30.3029 123.297 30.1091C122.844 29.9152 122.289 29.739 121.631 29.5803L119.666 29.0869C118.145 28.7168 116.943 28.1381 116.062 27.3509C115.181 26.5637 114.743 25.5034 114.749 24.1698C114.743 23.0771 115.034 22.1225 115.621 21.3059C116.215 20.4894 117.028 19.852 118.062 19.3938C119.096 18.9355 120.271 18.7064 121.587 18.7064C122.927 18.7064 124.096 18.9355 125.094 19.3938C126.099 19.852 126.88 20.4894 127.438 21.3059C127.996 22.1225 128.284 23.0683 128.302 24.1434H124.645Z" fill="black"></path>
<path d="M136.858 37V18.9532H144.084C145.412 18.9532 146.519 19.15 147.406 19.5436C148.293 19.9372 148.96 20.4835 149.406 21.1826C149.853 21.8758 150.076 22.6747 150.076 23.5794C150.076 24.2844 149.935 24.9041 149.653 25.4387C149.371 25.9675 148.983 26.4022 148.49 26.7429C148.002 27.0778 147.444 27.3157 146.816 27.4567V27.6329C147.503 27.6623 148.146 27.8561 148.746 28.2145C149.351 28.5728 149.841 29.0751 150.217 29.7213C150.593 30.3617 150.781 31.1254 150.781 32.0124C150.781 32.97 150.543 33.8248 150.067 34.5767C149.597 35.3228 148.901 35.9132 147.979 36.3479C147.057 36.7826 145.92 37 144.569 37H136.858ZM140.674 33.8806H143.784C144.848 33.8806 145.623 33.6779 146.111 33.2725C146.598 32.8613 146.842 32.315 146.842 31.6335C146.842 31.1342 146.722 30.6936 146.481 30.3117C146.24 29.9299 145.896 29.6303 145.45 29.4129C145.009 29.1956 144.483 29.0869 143.873 29.0869H140.674V33.8806ZM140.674 26.505H143.502C144.025 26.505 144.489 26.4139 144.895 26.2318C145.306 26.0438 145.629 25.7795 145.864 25.4387C146.105 25.098 146.225 24.6897 146.225 24.2139C146.225 23.5618 145.993 23.036 145.529 22.6365C145.071 22.2371 144.419 22.0373 143.573 22.0373H140.674V26.505Z" fill="black"></path>
<path d="M159.362 37.2643C157.969 37.2643 156.771 36.9824 155.766 36.4184C154.768 35.8486 153.998 35.0437 153.458 34.0039C152.917 32.9583 152.647 31.7216 152.647 30.2941C152.647 28.9018 152.917 27.6799 153.458 26.6283C153.998 25.5768 154.759 24.7573 155.74 24.1698C156.727 23.5824 157.884 23.2886 159.212 23.2886C160.105 23.2886 160.936 23.4326 161.706 23.7204C162.481 24.0024 163.157 24.4283 163.732 24.9981C164.314 25.568 164.766 26.2847 165.089 27.1483C165.413 28.0059 165.574 29.0105 165.574 30.1619V31.1929H154.145V28.8666H162.041C162.041 28.3261 161.923 27.8473 161.688 27.4302C161.453 27.0131 161.127 26.6871 160.71 26.4521C160.299 26.2112 159.82 26.0908 159.274 26.0908C158.704 26.0908 158.199 26.223 157.758 26.4874C157.323 26.7458 156.982 27.0954 156.736 27.536C156.489 27.9707 156.363 28.4554 156.357 28.9899V31.2017C156.357 31.8714 156.48 32.4501 156.727 32.9377C156.98 33.4253 157.335 33.8013 157.793 34.0656C158.251 34.33 158.795 34.4622 159.423 34.4622C159.84 34.4622 160.222 34.4034 160.569 34.2859C160.916 34.1684 161.212 33.9922 161.459 33.7572C161.706 33.5222 161.894 33.2344 162.023 32.8936L165.495 33.1227C165.319 33.9569 164.957 34.6854 164.411 35.3081C163.87 35.9249 163.171 36.4067 162.314 36.7533C161.462 37.094 160.478 37.2643 159.362 37.2643Z" fill="black"></path>
<path d="M173.011 37.2203C171.983 37.2203 171.052 36.9559 170.218 36.4272C169.39 35.8926 168.732 35.1084 168.244 34.0744C167.762 33.0346 167.522 31.7598 167.522 30.25C167.522 28.6992 167.771 27.4097 168.271 26.3816C168.77 25.3477 169.434 24.5752 170.262 24.0641C171.096 23.5471 172.01 23.2886 173.003 23.2886C173.76 23.2886 174.392 23.4179 174.897 23.6764C175.408 23.929 175.819 24.2462 176.131 24.628C176.448 25.004 176.689 25.3741 176.853 25.7383H176.968V18.9532H180.713V37H177.012V34.8323H176.853C176.677 35.2082 176.427 35.5813 176.104 35.9514C175.787 36.3156 175.373 36.6181 174.862 36.859C174.357 37.0999 173.74 37.2203 173.011 37.2203ZM174.201 34.233C174.806 34.233 175.317 34.0686 175.734 33.7396C176.157 33.4047 176.48 32.9377 176.704 32.3385C176.933 31.7393 177.047 31.0372 177.047 30.2324C177.047 29.4276 176.936 28.7285 176.712 28.1352C176.489 27.5419 176.166 27.0836 175.743 26.7605C175.32 26.4374 174.806 26.2759 174.201 26.2759C173.584 26.2759 173.064 26.4433 172.641 26.7781C172.218 27.113 171.898 27.5771 171.681 28.1704C171.463 28.7638 171.355 29.4511 171.355 30.2324C171.355 31.0196 171.463 31.7158 171.681 32.3209C171.904 32.9201 172.224 33.39 172.641 33.7308C173.064 34.0656 173.584 34.233 174.201 34.233Z" fill="black"></path>
<path d="M183.799 37V23.4649H187.439V25.8265H187.58C187.826 24.9864 188.241 24.3519 188.822 23.9231C189.404 23.4884 190.073 23.271 190.831 23.271C191.019 23.271 191.222 23.2828 191.439 23.3062C191.657 23.3297 191.848 23.3621 192.012 23.4032V26.7341C191.836 26.6812 191.592 26.6342 191.281 26.5931C190.969 26.552 190.684 26.5314 190.426 26.5314C189.874 26.5314 189.38 26.6518 188.946 26.8927C188.517 27.1277 188.176 27.4567 187.923 27.8796C187.677 28.3026 187.553 28.7902 187.553 29.3424V37H183.799Z" fill="black"></path>
<path d="M199.438 37.2643C198.07 37.2643 196.886 36.9736 195.887 36.392C194.894 35.8045 194.128 34.9879 193.587 33.9422C193.047 32.8907 192.777 31.6717 192.777 30.2853C192.777 28.8871 193.047 27.6652 193.587 26.6195C194.128 25.568 194.894 24.7514 195.887 24.1698C196.886 23.5824 198.07 23.2886 199.438 23.2886C200.807 23.2886 201.988 23.5824 202.981 24.1698C203.979 24.7514 204.749 25.568 205.289 26.6195C205.83 27.6652 206.1 28.8871 206.1 30.2853C206.1 31.6717 205.83 32.8907 205.289 33.9422C204.749 34.9879 203.979 35.8045 202.981 36.392C201.988 36.9736 200.807 37.2643 199.438 37.2643ZM199.456 34.3564C200.079 34.3564 200.599 34.1802 201.016 33.8277C201.433 33.4693 201.747 32.9817 201.959 32.3649C202.176 31.7481 202.285 31.0461 202.285 30.2589C202.285 29.4717 202.176 28.7696 201.959 28.1528C201.747 27.536 201.433 27.0484 201.016 26.69C200.599 26.3317 200.079 26.1525 199.456 26.1525C198.827 26.1525 198.299 26.3317 197.87 26.69C197.447 27.0484 197.127 27.536 196.909 28.1528C196.698 28.7696 196.592 29.4717 196.592 30.2589C196.592 31.0461 196.698 31.7481 196.909 32.3649C197.127 32.9817 197.447 33.4693 197.87 33.8277C198.299 34.1802 198.827 34.3564 199.456 34.3564Z" fill="black"></path>
<path d="M214.657 37.2643C213.27 37.2643 212.078 36.9706 211.079 36.3832C210.086 35.7898 209.322 34.9674 208.788 33.9158C208.259 32.8643 207.995 31.6541 207.995 30.2853C207.995 28.8989 208.262 27.6828 208.797 26.6372C209.337 25.5856 210.104 24.7661 211.097 24.1786C212.089 23.5853 213.27 23.2886 214.639 23.2886C215.82 23.2886 216.854 23.503 217.741 23.9319C218.628 24.3607 219.33 24.9629 219.847 25.7383C220.364 26.5138 220.649 27.4244 220.702 28.47H217.159C217.059 27.7945 216.795 27.2511 216.366 26.8398C215.943 26.4227 215.388 26.2142 214.701 26.2142C214.119 26.2142 213.611 26.3728 213.176 26.69C212.747 27.0014 212.412 27.4567 212.172 28.0559C211.931 28.6551 211.81 29.3806 211.81 30.2324C211.81 31.096 211.928 31.8303 212.163 32.4354C212.404 33.0405 212.741 33.5017 213.176 33.8189C213.611 34.1361 214.119 34.2947 214.701 34.2947C215.129 34.2947 215.514 34.2066 215.855 34.0304C216.202 33.8541 216.486 33.5986 216.71 33.2637C216.939 32.923 217.089 32.5147 217.159 32.0389H220.702C220.643 33.0728 220.361 33.9834 219.856 34.7706C219.356 35.5519 218.666 36.1629 217.785 36.6035C216.904 37.044 215.861 37.2643 214.657 37.2643Z" fill="black"></path>
<path d="M226.506 33.1051L226.515 28.6022H227.062L231.397 23.4649H235.706L229.881 30.2677H228.991L226.506 33.1051ZM223.105 37V18.9532H226.859V37H223.105ZM231.564 37L227.581 31.1048L230.084 28.4524L235.962 37H231.564Z" fill="black"></path>
<path d="M56 0H0V56H56V0Z" fill="#01A88D"></path>
<path fill-rule="evenodd" clip-rule="evenodd" d="M44.8016 27.3015C44.0295 27.3015 43.4016 26.6736 43.4016 25.9015C43.4016 25.1294 44.0295 24.5015 44.8016 24.5015C45.5737 24.5015 46.2016 25.1294 46.2016 25.9015C46.2016 26.6736 45.5737 27.3015 44.8016 27.3015ZM22.4807 46.1371L20.2071 44.8113L24.8726 41.8951L24.1306 40.7079L18.8407 44.014L14.7016 41.5997V35.376L18.5901 32.7839L17.8131 31.6191L13.9729 34.179L9.80161 31.7955V28.4075L14.3488 25.8091L13.6544 24.5939L9.80161 26.7954V24.2075L14.0016 21.8079L18.2016 24.2075V26.9053L15.0411 28.8016L15.7621 30.0014L18.9016 28.1177L22.0411 30.0014L22.7621 28.8016L19.6016 26.9053V24.176L23.4901 21.5839C23.6847 21.4537 23.8016 21.2353 23.8016 21.0015V16.1015H22.4016V20.627L18.8729 22.979L14.7016 20.5955V14.4033L18.2016 12.3621V18.2015H19.6016V11.5452L22.4807 9.86594L28.0016 11.7062V31.8053L17.8411 37.9016L18.5621 39.1014L28.0016 33.4377V44.2968L22.4807 46.1371ZM43.4016 35.0015C43.4016 35.7736 42.7737 36.4015 42.0016 36.4015C41.2295 36.4015 40.6016 35.7736 40.6016 35.0015C40.6016 34.2294 41.2295 33.6015 42.0016 33.6015C42.7737 33.6015 43.4016 34.2294 43.4016 35.0015ZM36.4016 42.0015C36.4016 42.7736 35.7737 43.4015 35.0016 43.4015C34.2295 43.4015 33.6016 42.7736 33.6016 42.0015C33.6016 41.2294 34.2295 40.6015 35.0016 40.6015C35.7737 40.6015 36.4016 41.2294 36.4016 42.0015ZM35.7016 14.0015C35.7016 13.2294 36.3295 12.6015 37.1016 12.6015C37.8737 12.6015 38.5016 13.2294 38.5016 14.0015C38.5016 14.7736 37.8737 15.4015 37.1016 15.4015C36.3295 15.4015 35.7016 14.7736 35.7016 14.0015ZM44.8016 23.1015C43.5003 23.1015 42.4139 23.9975 42.101 25.2015H29.4016V21.7015H37.1016C37.4887 21.7015 37.8016 21.3879 37.8016 21.0015V16.7021C39.0056 16.3892 39.9016 15.3021 39.9016 14.0015C39.9016 12.4573 38.6458 11.2015 37.1016 11.2015C35.5574 11.2015 34.3016 12.4573 34.3016 14.0015C34.3016 15.3021 35.1976 16.3892 36.4016 16.7021V20.3015H29.4016V11.2015C29.4016 10.8998 29.2091 10.6331 28.9228 10.5372L22.6228 8.43724C22.431 8.37424 22.2224 8.39524 22.0488 8.49674L13.6488 13.3967C13.4332 13.522 13.3016 13.753 13.3016 14.0015V20.5955L8.75441 23.1939C8.53601 23.3185 8.40161 23.5502 8.40161 23.8015V32.2015C8.40161 32.4528 8.53601 32.6845 8.75441 32.8091L13.3016 35.4075V42.0015C13.3016 42.25 13.4332 42.481 13.6488 42.6063L22.0488 47.5063C22.1566 47.5693 22.2791 47.6015 22.4016 47.6015C22.4758 47.6015 22.5507 47.5896 22.6228 47.5658L28.9228 45.4658C29.2091 45.3699 29.4016 45.1032 29.4016 44.8015V36.4015H34.3016V39.3009C33.0976 39.6138 32.2016 40.7009 32.2016 42.0015C32.2016 43.5457 33.4574 44.8015 35.0016 44.8015C36.5458 44.8015 37.8016 43.5457 37.8016 42.0015C37.8016 40.7009 36.9056 39.6138 35.7016 39.3009V35.7015C35.7016 35.3151 35.3887 35.0015 35.0016 35.0015H29.4016V31.5015H38.1516L39.6482 33.4965C39.3689 33.9319 39.2016 34.4464 39.2016 35.0015C39.2016 36.5457 40.4574 37.8015 42.0016 37.8015C43.5458 37.8015 44.8016 36.5457 44.8016 35.0015C44.8016 33.4573 43.5458 32.2015 42.0016 32.2015C41.5228 32.2015 41.079 32.3331 40.6849 32.5459L39.0616 30.3815C38.9293 30.2051 38.7214 30.1015 38.5016 30.1015H29.4016V26.6015H42.101C42.4139 27.8055 43.5003 28.7015 44.8016 28.7015C46.3458 28.7015 47.6016 27.4457 47.6016 25.9015C47.6016 24.3573 46.3458 23.1015 44.8016 23.1015Z" fill="white"></path>
</g>
<defs>
<clipPath id="clip0_1_1808">
<rect width="237" height="56" fill="white"></rect>
</clipPath>
</defs>
</svg>