<svg class="tool" width="199" height="56" viewBox="0 0 199 56" fill="none" xmlns="http://www.w3.org/2000/svg">
<g clip-path="url(#clip0_1_1669)">
<path d="M10.4745 13.209H19.7776L10.1193 41.8131C10.0202 42.1073 9.83156 42.3631 9.57974 42.5445C9.32792 42.7259 9.02561 42.8237 8.71533 42.8243H1.48004C1.08751 42.8243 0.711056 42.6683 0.433495 42.3906C0.155933 42.1129 9.19415e-07 41.7362 9.19415e-07 41.3435C-0.000177189 41.1825 0.025523 41.0225 0.0761173 40.8697L9.06631 14.2159C9.16682 13.9221 9.35658 13.6672 9.60907 13.4866C9.86155 13.3061 10.1641 13.209 10.4745 13.209Z" fill="url(#paint0_linear_1_1669)"></path>
<path d="M23.9808 32.3945H9.23962C9.14878 32.3945 9.05884 32.4127 8.97512 32.448C8.89139 32.4832 8.81558 32.5349 8.75213 32.6C8.68869 32.665 8.63889 32.7421 8.60569 32.8267C8.57249 32.9113 8.55655 33.0017 8.5588 33.0926C8.55847 33.1868 8.57744 33.2801 8.61453 33.3667C8.65162 33.4533 8.70605 33.5313 8.77447 33.5961L18.2467 42.4383C18.5184 42.7042 18.8817 42.8556 19.2616 42.8614H27.609L23.9808 32.3945Z" fill="#0078D4"></path>
<path d="M10.474 13.209C10.1601 13.2066 9.85378 13.3052 9.60021 13.4903C9.34665 13.6755 9.15931 13.9373 9.06588 14.2371L0.0883706 40.8443C0.0225423 41.0271 -0.00658875 41.2211 0.00264689 41.4151C0.0118825 41.6092 0.0593033 41.7995 0.142192 41.9752C0.22508 42.1509 0.341806 42.3085 0.48568 42.4389C0.629555 42.5694 0.797749 42.6702 0.980624 42.7355C1.14178 42.7947 1.31217 42.8247 1.48384 42.8243H8.90518C9.18176 42.775 9.44027 42.653 9.65425 42.4709C9.86824 42.2888 10.03 42.053 10.123 41.7878L11.9118 36.512L18.3056 42.4774C18.5745 42.6971 18.9098 42.8194 19.257 42.8243H27.5748L23.9255 32.3955H13.2946L19.8025 13.209H10.474Z" fill="url(#paint1_linear_1_1669)"></path>
<path d="M22.344 14.2159C22.245 13.9228 22.0568 13.6681 21.8058 13.4875C21.5547 13.3069 21.2535 13.2095 20.9443 13.209H10.5713C10.8805 13.2095 11.1818 13.3069 11.4328 13.4875C11.6838 13.6681 11.872 13.9228 11.971 14.2159L20.9654 40.8697C21.0413 41.0916 21.0633 41.3284 21.0295 41.5604C20.9958 41.7925 20.9072 42.0132 20.7712 42.2043C20.6353 42.3953 20.4558 42.5512 20.2476 42.659C20.0394 42.7668 19.8086 42.8235 19.5742 42.8243H29.9345C30.327 42.8243 30.7034 42.6683 30.981 42.3906C31.2586 42.1129 31.4145 41.7362 31.4145 41.3435C31.4147 41.1825 31.389 41.0225 31.3384 40.8697L22.344 14.2159Z" fill="url(#paint2_linear_1_1669)"></path>
<path d="M53.8015 37.0031H51.0021V26.0031C51.0021 25.1034 51.0585 24.0006 51.1712 22.6947H51.1205C51.0059 23.2382 50.8519 23.7727 50.6596 24.2939L45.5851 37.0115H43.6399L38.5655 24.3912C38.374 23.8388 38.2228 23.2732 38.113 22.6989H38.0581C38.1215 23.3758 38.1553 24.4885 38.1553 26.0285V37.0285H35.542V19.9785H39.5127L43.9782 31.3212C44.2407 31.9551 44.4625 32.6051 44.6421 33.2673H44.7013C44.9931 32.3746 45.2341 31.7104 45.416 31.2746L49.9703 19.9785H53.8015V37.0031Z" fill="#36BAED"></path>
<path d="M58.6009 23.05C58.1747 23.0634 57.7597 22.9118 57.4423 22.6269C57.2867 22.4864 57.1634 22.3137 57.0809 22.1209C56.9984 21.9281 56.9587 21.7197 56.9644 21.51C56.9599 21.2993 57.0002 21.09 57.0826 20.896C57.1649 20.702 57.2875 20.5277 57.4423 20.3846C57.7539 20.087 58.1702 19.9244 58.6009 19.9319C59.0393 19.9236 59.4638 20.0859 59.7849 20.3846C59.9423 20.5261 60.0672 20.6999 60.1511 20.8941C60.2351 21.0884 60.276 21.2985 60.2712 21.51C60.2737 21.7169 60.2316 21.9219 60.1476 22.111C60.0637 22.3001 59.94 22.4689 59.7849 22.6058C59.6266 22.7543 59.4405 22.87 59.2373 22.9463C59.0341 23.0225 58.8178 23.0578 58.6009 23.05ZM59.9626 37.0115H57.2139V24.8565H59.9626V37.0115Z" fill="#36BAED"></path>
<path d="M71.7819 36.4436C70.7276 37.0281 69.5363 37.3202 68.3313 37.2897C67.5267 37.3232 66.7238 37.1902 65.9729 36.899C65.222 36.6078 64.5392 36.1647 63.9673 35.5974C63.41 35.0161 62.9756 34.3284 62.6901 33.5753C62.4045 32.8222 62.2737 32.0192 62.3054 31.2144C62.3054 29.2118 62.9003 27.6041 64.0899 26.3913C65.2796 25.1785 66.871 24.5707 68.8641 24.5678C69.8717 24.5474 70.8717 24.7466 71.7946 25.1517V27.7113C71.0218 27.1052 70.0702 26.772 69.0883 26.7636C68.556 26.7463 68.0262 26.8427 67.534 27.0462C67.0418 27.2497 66.5986 27.5558 66.2339 27.944C65.4703 28.788 65.0707 29.8994 65.1217 31.0367C65.0671 32.1236 65.4441 33.1881 66.1705 33.9982C66.538 34.3663 66.9784 34.6536 67.4634 34.8416C67.9484 35.0295 68.4672 35.1141 68.9868 35.0897C70.0145 35.074 71.0045 34.6999 71.7862 34.032L71.7819 36.4436Z" fill="#36BAED"></path>
<path d="M81.085 27.4749C80.6638 27.1893 80.1593 27.0523 79.6515 27.0857C79.2471 27.0874 78.8494 27.1891 78.4938 27.3817C78.1382 27.5744 77.8357 27.852 77.6133 28.1899C77.0234 29.075 76.7357 30.1273 76.7929 31.1895V37.0026H74.04V24.8561H76.7929V27.3565H76.8394C77.0571 26.5878 77.4865 25.8958 78.0784 25.3596C78.5917 24.8978 79.2572 24.6417 79.9475 24.6403C80.3395 24.6185 80.7306 24.6956 81.085 24.8646V27.4749Z" fill="#36BAED"></path>
<path d="M87.7328 37.2873C85.8581 37.2873 84.3625 36.7232 83.2462 35.595C82.1298 34.4668 81.566 32.9621 81.5547 31.0808C81.5547 29.0416 82.1382 27.448 83.3054 26.3C84.4725 25.1521 86.0427 24.5781 88.0161 24.5781C89.9162 24.5781 91.3948 25.1422 92.452 26.2704C93.5092 27.3986 94.0392 28.9499 94.042 30.9243C94.042 32.8619 93.4782 34.4132 92.3505 35.5781C91.2229 36.743 89.6836 37.3127 87.7328 37.2873ZM87.8639 26.7485C87.3827 26.7297 86.9037 26.8218 86.4638 27.0176C86.0238 27.2135 85.6348 27.5079 85.3267 27.8781C84.6568 28.7695 84.3256 29.8702 84.3921 30.9835C84.3291 32.0684 84.6662 33.1387 85.3394 33.9916C85.6528 34.3535 86.0436 34.6402 86.4828 34.8306C86.9219 35.021 87.3983 35.1102 87.8766 35.0916C88.3481 35.1185 88.8194 35.0346 89.2526 34.8465C89.6859 34.6584 90.0691 34.3714 90.3715 34.0085C90.9551 33.2893 91.2468 32.2654 91.2468 30.937C91.2468 29.6085 90.9551 28.5762 90.3715 27.84C90.0695 27.4727 89.6848 27.1823 89.2489 26.9925C88.813 26.8028 88.3384 26.7192 87.8639 26.7485Z" fill="#36BAED"></path>
<path d="M95.627 36.6213V34.0828C96.598 34.8446 97.797 35.2574 99.031 35.2547C100.689 35.2547 101.522 34.764 101.522 33.7824C101.529 33.5309 101.454 33.2839 101.306 33.0801C101.149 32.8725 100.954 32.6972 100.731 32.564C100.465 32.3926 100.182 32.2507 99.8852 32.1409L98.79 31.7178C98.3272 31.537 97.8766 31.3264 97.4411 31.0874C97.0719 30.8909 96.7364 30.6366 96.4473 30.3344C96.1842 30.0599 95.9798 29.7345 95.8468 29.3782C95.7057 28.9791 95.6383 28.5576 95.6481 28.1344C95.6387 27.5884 95.7854 27.0512 96.071 26.5859C96.3512 26.1412 96.7249 25.7629 97.1662 25.4774C97.6552 25.1626 98.1922 24.9296 98.7562 24.7878C99.3571 24.633 99.9751 24.5548 100.596 24.5551C101.621 24.5445 102.641 24.7223 103.602 25.0797V27.4871C102.736 26.8989 101.71 26.593 100.663 26.6113C100.346 26.607 100.029 26.6426 99.7203 26.7171C99.4664 26.7766 99.2237 26.8766 99.0014 27.0132C98.8105 27.127 98.6484 27.2833 98.5278 27.4701C98.415 27.6453 98.3562 27.8498 98.3587 28.0582C98.3506 28.2912 98.4093 28.5217 98.5278 28.7224C98.6516 28.9181 98.8196 29.0818 99.0184 29.2005C99.2649 29.3549 99.5271 29.4825 99.8007 29.5813C100.105 29.6955 100.456 29.8224 100.849 29.9536C101.33 30.1483 101.8 30.3671 102.258 30.6094C102.644 30.81 103.002 31.0635 103.319 31.3624C103.607 31.6373 103.836 31.9685 103.991 32.3355C104.16 32.7517 104.24 33.1982 104.228 33.647C104.244 34.2138 104.098 34.7732 103.805 35.259C103.518 35.7201 103.129 36.1093 102.668 36.397C102.162 36.711 101.607 36.9384 101.027 37.0697C100.383 37.2162 99.725 37.2886 99.0649 37.2855C97.8846 37.3127 96.7122 37.0862 95.627 36.6213Z" fill="#36BAED"></path>
<path d="M111.772 37.286C109.897 37.286 108.402 36.7219 107.285 35.5937C106.169 34.4655 105.605 32.9608 105.594 31.0795C105.594 29.0403 106.176 27.4467 107.34 26.2987C108.504 25.1508 110.078 24.574 112.059 24.5684C113.96 24.5684 115.438 25.1325 116.495 26.2607C117.552 27.3889 118.082 28.9401 118.085 30.9145C118.085 32.8522 117.513 34.4035 116.368 35.5683C115.224 36.7332 113.692 37.3058 111.772 37.286ZM111.903 26.7472C111.422 26.7284 110.943 26.8205 110.503 27.0163C110.063 27.2122 109.674 27.5066 109.366 27.8768C108.694 28.7677 108.362 29.8684 108.427 30.9822C108.365 32.0676 108.704 33.138 109.378 33.9903C109.691 34.3529 110.082 34.6401 110.521 34.8306C110.961 35.0211 111.437 35.1098 111.916 35.0903C112.387 35.1172 112.858 35.0333 113.292 34.8452C113.725 34.6571 114.108 34.3701 114.411 34.0072C114.994 33.288 115.282 32.2641 115.282 30.9357C115.282 29.6072 114.994 28.5664 114.411 27.8387C114.109 27.4714 113.724 27.181 113.288 26.9912C112.852 26.8015 112.377 26.7179 111.903 26.7472Z" fill="#36BAED"></path>
<path d="M126.141 21.2479C125.754 21.0316 125.316 20.9207 124.873 20.9264C123.536 20.9264 122.868 21.6823 122.868 23.1941V24.8441H125.689V27.0018H122.881V37.0033H120.128V27.0145H118.052V24.8568H120.128V22.8852C120.102 22.3178 120.202 21.7517 120.422 21.2278C120.641 20.7039 120.974 20.2354 121.397 19.856C122.267 19.1043 123.389 18.7085 124.539 18.7476C125.086 18.7265 125.633 18.8025 126.154 18.9718L126.141 21.2479Z" fill="#36BAED"></path>
<path d="M133.288 36.8713C132.625 37.1723 131.902 37.3171 131.174 37.2943C128.814 37.2943 127.636 36.1661 127.638 33.9097V27.0136H125.592V24.8559H127.622V22.0425L130.37 21.2598V24.8559H133.28V27.0136H130.37V33.0932C130.321 33.6365 130.46 34.1802 130.763 34.6332C130.933 34.8021 131.137 34.9315 131.363 35.012C131.588 35.0924 131.828 35.122 132.066 35.0986C132.507 35.1033 132.937 34.9537 133.28 34.6755L133.288 36.8713Z" fill="#36BAED"></path>
<path d="M154.181 37.0031H151.086L149.555 32.6708H142.87L141.398 36.9989H138.315L144.684 19.9785H147.86L154.181 37.0031ZM148.811 30.3735L146.451 23.6043C146.351 23.253 146.275 22.8954 146.223 22.5339H146.177C146.126 22.8964 146.047 23.2544 145.94 23.6043L143.606 30.3735H148.811Z" fill="#36BAED"></path>
<path d="M165.456 26.0062L158.897 34.857H165.431V37.002H155.045V35.9697L161.743 27.0005H155.683V24.8555H165.456V26.0062Z" fill="#36BAED"></path>
<path d="M177.888 37.002H175.139V35.0812H175.093C174.753 35.7708 174.219 36.3465 173.558 36.7379C172.896 37.1293 172.135 37.3196 171.367 37.2854C168.495 37.2854 167.06 35.5621 167.063 32.1154V24.8555H169.815V31.8235C169.815 34.0066 170.661 35.0981 172.353 35.0981C172.734 35.108 173.112 35.0317 173.46 34.8749C173.808 34.7182 174.116 34.485 174.361 34.1928C174.908 33.5282 175.185 32.6828 175.139 31.8235V24.8555H177.888V37.002Z" fill="#36BAED"></path>
<path d="M187.301 27.4748C186.878 27.1897 186.372 27.0528 185.863 27.0855C185.459 27.0876 185.061 27.1894 184.706 27.3821C184.35 27.5747 184.048 27.8521 183.825 28.1898C183.237 29.0754 182.95 30.1276 183.009 31.1894V37.0024H180.256V24.8559H183.009V27.3563H183.055C183.27 26.5862 183.7 25.8934 184.294 25.3594C184.808 24.8976 185.473 24.6415 186.163 24.6402C186.555 24.6189 186.946 24.696 187.301 24.8644V27.4748Z" fill="#36BAED"></path>
<path d="M198.845 31.6772H190.57C190.554 32.1583 190.638 32.6374 190.816 33.0844C190.995 33.5315 191.263 33.9368 191.606 34.2749C192.359 34.9258 193.335 35.2608 194.329 35.2099C195.616 35.2093 196.869 34.7939 197.902 34.0253V36.2464C196.794 36.9403 195.331 37.2872 193.513 37.2872C191.695 37.2872 190.292 36.7358 189.305 35.633C188.291 34.533 187.783 32.9817 187.783 30.9791C187.718 29.2753 188.325 27.6142 189.475 26.3549C190.003 25.7777 190.648 25.3199 191.367 25.012C192.086 24.7041 192.862 24.5533 193.644 24.5695C195.304 24.5695 196.59 25.104 197.501 26.173C198.411 27.242 198.865 28.7256 198.862 30.6238L198.845 31.6772ZM196.211 29.7311C196.254 28.904 196.005 28.088 195.509 27.4253C195.28 27.1477 194.989 26.9269 194.661 26.7801C194.332 26.6333 193.974 26.5645 193.614 26.5792C193.237 26.5729 192.862 26.647 192.515 26.7965C192.168 26.946 191.857 27.1676 191.602 27.4465C191.029 28.0718 190.674 28.866 190.591 29.7099L196.211 29.7311Z" fill="#36BAED"></path>
</g>
<defs>
<linearGradient id="paint0_linear_1_1669" x1="14.943" y1="15.4239" x2="5.29668" y2="43.9065" gradientUnits="userSpaceOnUse">
<stop stop-color="#114A8B"></stop>
<stop offset="1" stop-color="#0669BC"></stop>
</linearGradient>
<linearGradient id="paint1_linear_1_1669" x1="17.9507" y1="28.7031" x2="15.7208" y2="29.4548" gradientUnits="userSpaceOnUse">
<stop stop-opacity="0.3"></stop>
<stop offset="0.07" stop-opacity="0.2"></stop>
<stop offset="0.32" stop-opacity="0.1"></stop>
<stop offset="0.62" stop-opacity="0.05"></stop>
<stop offset="1" stop-opacity="0"></stop>
</linearGradient>
<linearGradient id="paint2_linear_1_1669" x1="16.7963" y1="14.5659" x2="27.3865" y2="42.7642" gradientUnits="userSpaceOnUse">
<stop stop-color="#3CCBF4"></stop>
<stop offset="1" stop-color="#2892DF"></stop>
</linearGradient>
<clipPath id="clip0_1_1669">
<rect width="199" height="56" fill="white"></rect>
</clipPath>
</defs>
</svg>