<svg class="tool" width="230" height="56" viewBox="0 0 230 56" fill="none" xmlns="http://www.w3.org/2000/svg">
<path d="M221.567 36.36C222.126 36.3999 222.725 36.3201 223.243 36.1205C223.563 35.9608 223.762 35.6016 223.722 35.2423C223.682 34.8432 223.443 34.4839 223.084 34.3641C222.485 34.0049 221.806 33.6855 221.128 33.486C220.449 33.2464 219.851 32.967 219.292 32.6876C218.773 32.4481 218.334 32.1288 217.895 31.7296C217.496 31.3304 217.216 30.8913 217.017 30.3724C216.777 29.7736 216.697 29.1349 216.697 28.4963C216.657 27.179 217.256 25.9016 218.294 25.1033C219.372 24.265 220.809 23.8658 222.645 23.8658C223.523 23.8658 224.441 23.9457 225.319 24.1452C225.998 24.265 226.676 24.4247 227.355 24.6642L226.596 28.0572C226.037 27.8576 225.519 27.7378 224.96 27.5782C224.321 27.4185 223.643 27.3786 223.004 27.3786C221.647 27.3786 220.968 27.7378 220.968 28.4963C220.968 28.6559 221.008 28.8156 221.048 28.9753C221.128 29.1349 221.248 29.2547 221.407 29.3744C221.567 29.4942 221.806 29.614 222.086 29.7736C222.365 29.9333 222.764 30.093 223.243 30.2526C224.042 30.5321 224.84 30.8913 225.558 31.2905C226.117 31.5699 226.596 31.9292 226.995 32.4082C227.355 32.7674 227.594 33.2065 227.754 33.7255C227.913 34.2843 227.993 34.8432 227.993 35.402C228.073 36.7592 227.435 38.0765 226.277 38.8349C225.159 39.5933 223.563 39.9925 221.487 39.9925C220.33 40.0324 219.212 39.9127 218.094 39.6333C217.456 39.4736 216.857 39.274 216.258 39.0744L216.977 35.5617C217.695 35.8411 218.454 36.0806 219.212 36.2403C220.01 36.2802 220.769 36.36 221.567 36.36ZM199.574 31.9691C199.534 30.7716 199.773 29.574 200.172 28.4563C200.532 27.4983 201.09 26.6601 201.809 25.9016C202.487 25.223 203.246 24.7041 204.124 24.3847C205.002 24.0255 205.92 23.8658 206.838 23.8658C208.994 23.8658 210.71 24.5444 211.947 25.8617C213.185 27.179 213.823 29.1349 213.823 31.6897C213.823 31.9292 213.823 32.2086 213.783 32.5279C213.783 32.8473 213.744 33.0868 213.744 33.3263H204.004C204.084 34.1646 204.523 34.9629 205.242 35.4419C206.12 36.0008 207.158 36.2802 208.195 36.2403C208.954 36.2403 209.752 36.1604 210.51 36.0407C211.149 35.9209 211.788 35.7213 212.386 35.4419L212.985 38.9547C212.706 39.1143 212.386 39.1942 212.067 39.3139C211.628 39.4337 211.189 39.5534 210.75 39.5933C210.271 39.6732 209.792 39.753 209.233 39.8328C208.714 39.8728 208.155 39.9127 207.597 39.9127C206.359 39.9526 205.162 39.753 204.004 39.3139C203.046 38.9547 202.208 38.3958 201.49 37.6773C200.811 36.9588 200.332 36.0806 200.013 35.1625C199.733 34.0847 199.574 33.0069 199.574 31.9691ZM209.672 30.3325C209.672 29.9732 209.592 29.614 209.473 29.2547C209.393 28.8954 209.193 28.616 208.994 28.3366C208.754 28.0572 208.475 27.8177 208.155 27.658C207.756 27.4584 207.357 27.3786 206.918 27.3786C206.479 27.3786 206.08 27.4584 205.681 27.658C205.361 27.8177 205.042 28.0172 204.803 28.2967C204.563 28.5761 204.363 28.8954 204.244 29.2547C204.124 29.614 204.044 29.9732 204.004 30.3325H209.672ZM187.878 20.4329L192.189 19.7543V24.2251H197.378V27.8177H192.189V33.1666C192.149 33.925 192.309 34.6835 192.668 35.3222C192.988 35.8411 193.626 36.1205 194.624 36.1205C195.103 36.1205 195.582 36.0806 196.021 36.0008C196.5 35.9209 196.939 35.8012 197.378 35.6415L197.977 38.9946C197.418 39.2341 196.819 39.3938 196.221 39.5534C195.462 39.7131 194.664 39.7929 193.866 39.7929C192.868 39.8328 191.87 39.6732 190.952 39.3139C190.233 39.0345 189.595 38.5555 189.116 37.9966C188.637 37.3979 188.317 36.6794 188.118 35.9209C187.918 35.0427 187.838 34.1246 187.878 33.2464V20.4329ZM170.435 31.9691C170.396 30.7716 170.635 29.574 171.034 28.4563C171.393 27.4983 171.952 26.6601 172.671 25.9016C173.349 25.223 174.108 24.7041 174.986 24.3847C175.864 24.0255 176.782 23.8658 177.7 23.8658C179.855 23.8658 181.572 24.5444 182.809 25.8617C184.047 27.179 184.685 29.1349 184.685 31.6897C184.685 31.9292 184.685 32.2086 184.645 32.5279C184.605 32.8473 184.605 33.0868 184.605 33.3263H174.826C174.906 34.1646 175.345 34.9629 176.063 35.4419C176.942 36.0008 177.979 36.2802 179.017 36.2403C179.776 36.2403 180.574 36.1604 181.332 36.0407C181.971 35.9209 182.61 35.7213 183.248 35.4419L183.847 38.9547C183.568 39.1143 183.248 39.1942 182.929 39.3139C182.49 39.4337 182.051 39.5534 181.612 39.5933C181.133 39.6732 180.654 39.753 180.095 39.8328C179.576 39.8728 179.017 39.9127 178.458 39.9127C177.221 39.9526 176.024 39.753 174.866 39.3139C173.908 38.9547 173.07 38.3958 172.351 37.6773C171.673 36.9588 171.194 36.0806 170.874 35.1625C170.555 34.0847 170.396 33.0069 170.435 31.9691ZM180.534 30.3325C180.534 29.9732 180.454 29.614 180.334 29.2547C180.255 28.8954 180.055 28.616 179.855 28.3366C179.616 28.0572 179.337 27.8177 179.017 27.658C178.618 27.4584 178.219 27.3786 177.78 27.3786C177.341 27.3786 176.942 27.4584 176.542 27.658C176.223 27.8177 175.944 28.0172 175.704 28.2967C175.465 28.5761 175.265 28.8954 175.145 29.2547C175.026 29.614 174.946 29.9732 174.906 30.3325H180.534ZM154.07 24.744C154.988 24.5045 155.946 24.3049 156.904 24.1452C158.102 23.9457 159.339 23.8658 160.536 23.8658C161.614 23.8259 162.692 24.0255 163.73 24.3847C164.528 24.6642 165.246 25.1432 165.765 25.7819C166.284 26.4205 166.643 27.179 166.843 27.9773C167.083 28.8954 167.162 29.8535 167.162 30.8115V39.3938H162.891V31.3703C162.891 29.9732 162.692 29.0152 162.333 28.4164C161.973 27.8576 161.295 27.5382 160.297 27.5382C159.978 27.5382 159.658 27.5382 159.299 27.5782C158.94 27.5782 158.66 27.6181 158.381 27.658V39.3938H154.07V24.744ZM151.037 28.0572C150.637 27.9773 150.198 27.8576 149.679 27.7777C149.121 27.658 148.562 27.6181 148.003 27.6181C147.684 27.6181 147.364 27.658 147.005 27.6979C146.726 27.7378 146.446 27.7777 146.167 27.8576V39.4736H141.856V25.0234C142.734 24.7041 143.652 24.4646 144.57 24.265C145.728 23.9856 146.925 23.8658 148.083 23.9057C148.362 23.9057 148.642 23.9457 148.921 23.9457C149.24 23.9457 149.56 23.9856 149.919 24.0654C150.238 24.1053 150.558 24.1452 150.917 24.2251C151.196 24.265 151.476 24.3448 151.755 24.4646L151.037 28.0572ZM124.253 31.9691C124.213 30.7716 124.453 29.574 124.852 28.4563C125.211 27.4983 125.77 26.6601 126.489 25.9016C127.167 25.223 127.926 24.7041 128.804 24.3847C129.682 24.0255 130.6 23.8658 131.518 23.8658C133.673 23.8658 135.39 24.5444 136.627 25.8617C137.865 27.179 138.503 29.1349 138.503 31.6497C138.503 31.8893 138.503 32.1687 138.463 32.488C138.423 32.8074 138.423 33.0469 138.423 33.2864H128.644C128.724 34.1246 129.163 34.923 129.881 35.402C130.76 35.9608 131.797 36.2403 132.835 36.2003C133.594 36.2003 134.392 36.1205 135.15 36.0008C135.789 35.881 136.428 35.6814 137.026 35.4419L137.625 38.9547C137.346 39.1143 137.026 39.1942 136.707 39.3139C136.268 39.4337 135.829 39.5534 135.39 39.5933C134.911 39.6732 134.432 39.753 133.873 39.8328C133.354 39.8728 132.795 39.9127 132.236 39.9127C130.999 39.9526 129.802 39.753 128.644 39.3139C127.686 38.9547 126.848 38.3958 126.129 37.6773C125.451 36.9588 124.972 36.0806 124.653 35.1625C124.413 34.0847 124.253 33.0469 124.253 31.9691ZM134.392 30.3325C134.392 29.9732 134.312 29.614 134.192 29.2547C134.112 28.8954 133.913 28.616 133.713 28.3366C133.474 28.0572 133.194 27.8177 132.875 27.658C132.476 27.4584 132.077 27.3786 131.638 27.3786C131.199 27.3786 130.8 27.4584 130.4 27.658C130.081 27.8177 129.762 28.0172 129.522 28.2967C129.283 28.5761 129.083 28.8954 128.963 29.2547C128.844 29.614 128.764 29.9732 128.724 30.3325H134.392ZM117.268 31.7296C117.268 28.9354 116.23 27.5782 114.195 27.5782C113.756 27.5782 113.317 27.6181 112.878 27.7378C112.518 27.8177 112.159 27.9773 111.84 28.1769V36.0008C112.039 36.0407 112.319 36.0806 112.638 36.1205C112.957 36.1604 113.317 36.1604 113.716 36.1604C114.754 36.2403 115.751 35.8012 116.39 34.9629C116.989 34.0049 117.308 32.8872 117.268 31.7296ZM121.659 31.8893C121.659 33.0069 121.499 34.1246 121.1 35.2024C120.781 36.1604 120.262 36.9987 119.583 37.7172C118.865 38.4357 118.027 38.9946 117.109 39.3538C116.031 39.753 114.913 39.9127 113.756 39.9127C113.237 39.9127 112.678 39.8728 112.119 39.8328C111.56 39.7929 111.002 39.7131 110.443 39.6732C109.924 39.5933 109.405 39.5135 108.886 39.3938C108.367 39.3139 107.928 39.1942 107.569 39.0345V17.6786L111.88 17V24.5843C112.359 24.3847 112.878 24.2251 113.396 24.1053C113.955 23.9856 114.514 23.9457 115.073 23.9457C116.071 23.9457 117.029 24.1053 117.947 24.5444C118.745 24.9037 119.464 25.4625 120.022 26.1411C120.621 26.8996 121.06 27.7378 121.3 28.6559C121.539 29.6539 121.659 30.7716 121.659 31.8893ZM103.458 38.9147C102.539 39.1542 101.581 39.3538 100.624 39.4736C99.4261 39.6732 98.1887 39.753 96.9912 39.753C95.8736 39.7929 94.7959 39.5933 93.7581 39.2341C92.9598 38.9147 92.2812 38.4357 91.7224 37.7971C91.2035 37.1185 90.8443 36.36 90.6447 35.5218C90.4052 34.6036 90.3254 33.6057 90.3254 32.6477V24.2251H94.6362V32.1687C94.6362 33.5658 94.8358 34.5637 95.195 35.1625C95.5543 35.7613 96.2328 36.0806 97.2307 36.0806C97.55 36.0806 97.8694 36.0806 98.2286 36.0407C98.5878 36.0008 98.8672 36.0008 99.1467 35.9209V24.2251H103.458V38.9147ZM78.3109 29.7337C78.7499 29.2547 79.1491 28.7757 79.6281 28.2967C80.0671 27.7777 80.5062 27.2987 80.9453 26.8197C81.3843 26.3008 81.7835 25.8617 82.1427 25.4226C82.502 24.9835 82.8612 24.5843 83.1406 24.265H88.2498C87.212 25.4226 86.2141 26.5802 85.2561 27.658C84.2582 28.7358 83.2204 29.8535 82.0629 30.9711C82.7015 31.5699 83.3003 32.1687 83.8591 32.8473C84.4578 33.5658 85.0565 34.2843 85.6553 35.0827C86.2141 35.8411 86.7729 36.6394 87.2519 37.3979C87.7309 38.1563 88.13 38.8748 88.4493 39.5135H83.4998C83.1805 38.9946 82.8213 38.4757 82.4221 37.8769C82.023 37.2781 81.5839 36.6794 81.1848 36.0407C80.7457 35.4419 80.2667 34.8432 79.7478 34.2843C79.3087 33.7654 78.8298 33.2864 78.3109 32.8872V39.5534H74V17.6786L78.3109 17V29.7337Z" fill="black"></path>
<path d="M51.841 13.3357C51.5285 12.3357 50.7785 11.5232 49.841 11.0232L30.779 1.89843C30.279 1.64844 29.7165 1.58594 29.2165 1.58594C28.7165 1.58594 28.154 1.58594 27.654 1.71093L8.59199 10.8982C7.65451 11.3357 6.96703 12.1482 6.71704 13.2107L2.02965 33.7727C1.84215 34.8352 2.09214 35.8976 2.71713 36.7726L15.9043 53.0847C16.6543 53.8347 17.7168 54.3347 18.7792 54.3972H39.7788C40.9037 54.5222 41.9662 54.0222 42.6537 53.0847L55.8409 36.7726C56.4659 35.8976 56.7159 34.8352 56.5909 33.7727L51.841 13.3357Z" fill="#326DE6"></path>
<path d="M48.9031 32.9567C48.8406 32.9567 48.7781 32.9567 48.7781 32.8942C48.7781 32.8317 48.6531 32.8317 48.5282 32.8317C48.2782 32.7692 48.0282 32.7692 47.7782 32.7692C47.6532 32.7692 47.5282 32.7692 47.4032 32.7067H47.3407C46.6532 32.6442 45.9032 32.5192 45.2157 32.3317C45.0282 32.2692 44.8407 32.0817 44.7782 31.8942L44.2782 31.7692C44.5282 29.9568 44.4032 28.0818 44.0283 26.2694C43.5908 24.4569 42.8408 22.7069 41.8408 21.1445L42.2158 20.7695V20.707C42.2158 20.5195 42.2783 20.2695 42.4033 20.1445C42.9658 19.6445 43.5283 19.2695 44.1533 18.8945C44.2783 18.832 44.4032 18.7695 44.5282 18.707C44.7782 18.582 44.9657 18.457 45.2157 18.332C45.2782 18.2696 45.3407 18.2696 45.4032 18.2071C45.4657 18.1446 45.4032 18.1446 45.4032 18.0821C45.9657 17.6446 46.0907 16.8946 45.6532 16.3321C45.4657 16.0821 45.0907 15.8946 44.7782 15.8946C44.4657 15.8946 44.1533 16.0196 43.9033 16.2071L43.8408 16.2696C43.7783 16.3321 43.7158 16.3946 43.6533 16.3946C43.4658 16.5821 43.2783 16.7696 43.1533 16.9571C43.0908 17.0821 42.9658 17.1446 42.9033 17.2071C42.4658 17.7071 41.9033 18.2071 41.3408 18.582C41.2158 18.6445 41.0908 18.707 40.9658 18.707C40.9033 18.707 40.7783 18.707 40.7158 18.6445H40.6533L40.1533 18.957C39.6534 18.457 39.0909 17.9571 38.5909 17.4571C36.2784 15.6446 33.4035 14.5196 30.4661 14.2071L30.4036 13.7072V13.7697C30.2161 13.6447 30.1536 13.4572 30.0911 13.2697C30.0911 12.5822 30.0911 11.8947 30.2161 11.1447V11.0822C30.2161 10.9572 30.2786 10.8322 30.2786 10.7072C30.3411 10.4572 30.3411 10.2072 30.4036 9.95725V9.58226C30.4661 8.95727 29.9661 8.33229 29.3411 8.26979C28.9661 8.20729 28.5911 8.39478 28.2786 8.70728C28.0286 8.95727 27.9036 9.26976 27.9036 9.58226V9.89475C27.9036 10.1447 27.9661 10.3947 28.0286 10.6447C28.0911 10.7697 28.0911 10.8947 28.0911 11.0197V11.0822C28.2161 11.7697 28.2161 12.4572 28.2161 13.2072C28.1536 13.3947 28.0911 13.5822 27.9036 13.7072V13.8322L27.8411 14.3321C27.1537 14.3946 26.4662 14.5196 25.7162 14.6446C22.7788 15.2696 20.0913 16.8321 18.0289 19.0195L17.6539 18.7695H17.5914C17.5289 18.7695 17.4664 18.832 17.3414 18.832C17.2164 18.832 17.0914 18.7695 16.9664 18.707C16.4039 18.2696 15.8414 17.7696 15.4039 17.2696C15.3414 17.1446 15.2164 17.0821 15.1539 17.0196C14.9664 16.8321 14.8414 16.6446 14.654 16.4571C14.5915 16.3946 14.529 16.3946 14.4665 16.3321C14.404 16.2696 14.404 16.2696 14.404 16.2696C14.154 16.0821 13.8415 15.9571 13.529 15.9571C13.154 15.9571 12.8415 16.0821 12.654 16.3946C12.279 16.9571 12.404 17.7071 12.904 18.1446C12.9665 18.1446 12.9665 18.2071 12.9665 18.2071C12.9665 18.2071 13.0915 18.332 13.154 18.332C13.3415 18.457 13.5915 18.582 13.8415 18.707C13.9665 18.7695 14.0915 18.832 14.2165 18.8945C14.8414 19.2695 15.4664 19.6445 15.9664 20.1445C16.0914 20.2695 16.2164 20.5195 16.1539 20.707V20.6445L16.5289 21.0195C16.4664 21.1445 16.4039 21.207 16.3414 21.332C14.404 24.3944 13.5915 28.0193 14.154 31.5817L13.654 31.7067C13.654 31.7692 13.5915 31.7692 13.5915 31.7692C13.529 31.9567 13.3415 32.0817 13.154 32.2067C12.4665 32.3942 11.779 32.5192 11.029 32.5817C10.904 32.5817 10.779 32.5817 10.654 32.6442C10.4041 32.6442 10.1541 32.7067 9.90406 32.7067C9.84156 32.7067 9.77907 32.7692 9.65407 32.7692C9.59157 32.7692 9.59157 32.7692 9.52907 32.8317C8.84159 32.9567 8.4041 33.5817 8.5291 34.2692C8.65409 34.8317 9.21658 35.2067 9.77907 35.1442C9.90406 35.1442 9.96656 35.1442 10.0916 35.0817C10.1541 35.0817 10.1541 35.0817 10.1541 35.0192C10.1541 34.9567 10.3416 35.0192 10.4041 35.0192C10.654 34.9567 10.904 34.8317 11.0915 34.7692C11.2165 34.7067 11.3415 34.6442 11.4665 34.6442H11.529C12.2165 34.3942 12.8415 34.2067 13.5915 34.0817H13.654C13.8415 34.0817 14.029 34.1442 14.154 34.2692C14.2165 34.2692 14.2165 34.3317 14.2165 34.3317L14.7789 34.2692C15.7164 37.1441 17.4664 39.7065 19.9038 41.5815C20.4663 42.019 20.9663 42.394 21.5913 42.7065L21.2788 43.144C21.2788 43.2065 21.3413 43.2065 21.3413 43.2065C21.4663 43.394 21.4663 43.644 21.4038 43.8314C21.1538 44.4564 20.7788 45.0814 20.4038 45.6439V45.7064C20.3413 45.8314 20.2788 45.8939 20.1538 46.0189C20.0288 46.1439 19.9038 46.3939 19.7163 46.6439C19.6538 46.7064 19.6538 46.7689 19.5913 46.8314C19.5913 46.8314 19.5913 46.8939 19.5288 46.8939C19.2163 47.5189 19.4663 48.2688 20.0288 48.5813C20.1538 48.6438 20.3413 48.7063 20.4663 48.7063C20.9663 48.7063 21.4038 48.3938 21.6538 47.9563C21.6538 47.9563 21.6538 47.8938 21.7163 47.8938C21.7163 47.8314 21.7788 47.7689 21.8413 47.7064C21.9038 47.4564 22.0288 47.2689 22.0913 47.0189L22.2163 46.6439C22.4038 45.9564 22.7163 45.3314 23.0288 44.7064C23.1538 44.5189 23.3412 44.3939 23.5287 44.3314C23.5912 44.3314 23.5912 44.3314 23.5912 44.2689L23.8412 43.7689C25.5912 44.4564 27.4037 44.7689 29.2786 44.7689C30.4036 44.7689 31.5286 44.6439 32.6535 44.3314C33.341 44.2064 34.0285 43.9564 34.6535 43.7689L34.9035 44.2064C34.966 44.2064 34.966 44.2064 34.966 44.2689C35.1535 44.3314 35.341 44.4564 35.466 44.6439C35.7785 45.2689 36.0909 45.8939 36.2784 46.5814V46.6439L36.4034 47.0189C36.4659 47.2689 36.5284 47.5189 36.6534 47.7064C36.7159 47.7689 36.7159 47.8314 36.7784 47.8938C36.7784 47.8938 36.7784 47.9563 36.8409 47.9563C37.0909 48.3938 37.5284 48.7063 38.0284 48.7063C38.2159 48.7063 38.3409 48.6438 38.5284 48.5813C38.7784 48.4563 39.0284 48.2063 39.0909 47.8938C39.1534 47.5814 39.1534 47.2689 39.0284 46.9564C39.0284 46.8939 38.9659 46.8939 38.9659 46.8939C38.9659 46.8314 38.9034 46.7689 38.8409 46.7064C38.7159 46.4564 38.5909 46.2689 38.4034 46.0814C38.3409 45.9564 38.2784 45.8939 38.1534 45.7689V45.6439C37.7159 45.0814 37.4034 44.4564 37.1534 43.8314C37.0909 43.644 37.0909 43.394 37.2159 43.2065C37.2159 43.144 37.2784 43.144 37.2784 43.144L37.0909 42.644C40.2783 40.7065 42.7158 37.7066 43.8408 34.1442L44.3408 34.2067C44.4032 34.2067 44.4032 34.1442 44.4032 34.1442C44.5282 34.0192 44.7157 33.9567 44.9032 33.9567H44.9657C45.6532 34.0817 46.3407 34.2692 46.9657 34.5192H47.0282C47.1532 34.5817 47.2782 34.6442 47.4032 34.6442C47.6532 34.7692 47.8407 34.8942 48.0907 34.9567C48.1532 34.9567 48.2157 35.0192 48.3407 35.0192C48.4032 35.0192 48.4032 35.0192 48.4657 35.0817C48.5906 35.1442 48.6531 35.1442 48.7781 35.1442C49.3406 35.1442 49.8406 34.7692 50.0281 34.2692C49.9656 33.5817 49.4656 33.0817 48.9031 32.9567ZM30.8411 31.0192L29.1536 31.8317L27.4661 31.0192L27.0287 29.2068L28.2161 27.7068H30.0911L31.2786 29.2068L30.8411 31.0192ZM41.0283 26.9568C41.3408 28.2693 41.4033 29.5818 41.2783 30.8943L35.341 29.2068C34.7785 29.0818 34.466 28.5193 34.591 27.9568C34.6535 27.7693 34.716 27.6443 34.841 27.5193L39.5284 23.2694C40.2158 24.3944 40.7158 25.6444 41.0283 26.9568ZM37.6534 20.957L32.5285 24.5819C32.091 24.8319 31.4661 24.7694 31.1536 24.3319C31.0286 24.2069 30.9661 24.0819 30.9661 23.8944L30.5911 17.5821C33.341 17.8946 35.7785 19.082 37.6534 20.957ZM26.3412 17.7696L27.5911 17.5196L27.2787 23.7694C27.2787 24.3319 26.7787 24.7694 26.2162 24.7694C26.0287 24.7694 25.9037 24.7069 25.7162 24.6444L20.5288 20.957C22.1538 19.3945 24.1537 18.2696 26.3412 17.7696ZM18.7164 23.2694L23.3412 27.3943C23.7787 27.7693 23.8412 28.3943 23.4662 28.8318C23.3412 29.0193 23.2162 29.0818 22.9663 29.1443L16.9039 30.8943C16.7164 28.2693 17.3414 25.5819 18.7164 23.2694ZM17.6539 33.8317L23.8412 32.7692C24.3412 32.7692 24.8412 33.0817 24.9037 33.5817C24.9662 33.7692 24.9662 34.0192 24.8412 34.2067L22.4663 39.9565C20.2788 38.5191 18.5289 36.3316 17.6539 33.8317ZM31.841 41.5815C30.9661 41.769 30.0911 41.894 29.1536 41.894C27.8411 41.894 26.4662 41.644 25.2162 41.269L28.2786 35.7066C28.5911 35.3316 29.0911 35.2067 29.5286 35.4566C29.7161 35.5816 29.8411 35.7066 30.0286 35.8941L33.0285 41.3315C32.6535 41.394 32.2785 41.4565 31.841 41.5815ZM39.4659 36.1441C38.5284 37.6441 37.2159 38.9566 35.716 39.894L33.2785 34.0192C33.1535 33.5192 33.4035 33.0192 33.841 32.8317C34.0285 32.7692 34.216 32.7067 34.4035 32.7067L40.6533 33.7692C40.3408 34.6442 39.9659 35.4566 39.4659 36.1441Z" fill="white"></path>
</svg>