<svg class="tool" xmlns="http://www.w3.org/2000/svg" width="194" height="56" fill="none" viewBox="0 0 194 56">
  <g clip-path="url(#a)">
    <path fill="#000" fill-rule="evenodd" d="m82.288 15.414 9.287 24.612h-4.713l-2.182-6.108h-9.722l-2.098 6.108h-4.68l9.289-24.612h4.819Zm-2.426 4.567h-.12l-3.65 10.366h7.398l-3.627-10.368-.001.002Zm13.837 2.401h14.125v1.665l-9.273 12.685h9.325v3.294H93.044v-1.974l9.136-12.374h-8.481v-3.296Zm32.503 0v17.644h-4.2v-2.315h-.067a5.625 5.625 0 0 1-2.211 1.878c-.926.452-1.96.68-3.107.68-2.055 0-3.615-.582-4.687-1.744-1.073-1.16-1.612-2.966-1.612-5.416V22.382h4.219v10.23c0 1.489.294 2.606.886 3.355.59.75 1.48 1.125 2.673 1.125 1.182 0 2.129-.414 2.841-1.244.711-.829 1.065-1.915 1.065-3.252V22.382h4.2Zm11.964-.291c.332 0 .63.022.894.068.264.046.489.102.672.172v4.205c-.22-.16-.535-.311-.954-.454-.419-.143-.926-.215-1.521-.215-1.022 0-1.887.43-2.593 1.287-.705.86-1.058 2.181-1.058 3.965v8.907h-4.164V22.382h4.164v2.78h.07c.376-.96.954-1.712 1.719-2.256.77-.543 1.692-.815 2.771-.815Zm10.305-.068c2.445 0 4.347.744 5.709 2.24 1.356 1.492 2.036 3.556 2.036 6.187v2.007h-12.112c.185 1.773.755 3.012 1.714 3.717.953.704 2.193 1.055 3.705 1.055.97.004 1.935-.15 2.856-.456a9.26 9.26 0 0 0 2.409-1.191v3.417c-.688.434-1.587.786-2.701 1.053-1.113.27-2.299.404-3.563.404-2.696 0-4.79-.795-6.286-2.385-1.499-1.592-2.245-3.804-2.245-6.642 0-2.734.799-4.988 2.4-6.756 1.598-1.767 3.626-2.65 6.078-2.65Zm0 3.174c-.995 0-1.889.359-2.68 1.075-.793.713-1.321 1.762-1.585 3.147h7.915c0-1.372-.317-2.418-.954-3.14-.637-.72-1.534-1.082-2.696-1.082Z" clip-rule="evenodd"></path>
    <path fill="#000" fill-rule="evenodd" d="m82.288 15.414 9.287 24.612h-4.713l-2.182-6.108h-9.722l-2.098 6.108h-4.68l9.289-24.612h4.819Zm-2.426 4.567h-.12l-3.65 10.366h7.398l-3.627-10.368-.001.002Zm13.837 2.401h14.125v1.665l-9.273 12.685h9.325v3.294H93.044v-1.974l9.136-12.374h-8.481v-3.296Zm32.503 0v17.644h-4.2v-2.315h-.067a5.625 5.625 0 0 1-2.211 1.878c-.926.452-1.96.68-3.107.68-2.055 0-3.615-.582-4.687-1.744-1.073-1.16-1.612-2.966-1.612-5.416V22.382h4.219v10.23c0 1.489.294 2.606.886 3.355.59.75 1.48 1.125 2.673 1.125 1.182 0 2.129-.414 2.841-1.244.711-.829 1.065-1.915 1.065-3.252V22.382h4.2Zm11.964-.291c.332 0 .63.022.894.068.264.046.489.102.672.172v4.205c-.22-.16-.535-.311-.954-.454-.419-.143-.926-.215-1.521-.215-1.022 0-1.887.43-2.593 1.287-.705.86-1.058 2.181-1.058 3.965v8.907h-4.164V22.382h4.164v2.78h.07c.376-.96.954-1.712 1.719-2.256.77-.543 1.692-.815 2.771-.815Zm10.305-.068c2.445 0 4.347.744 5.709 2.24 1.356 1.492 2.036 3.556 2.036 6.187v2.007h-12.112c.185 1.773.755 3.012 1.714 3.717.953.704 2.193 1.055 3.705 1.055.97.004 1.935-.15 2.856-.456a9.26 9.26 0 0 0 2.409-1.191v3.417c-.688.434-1.587.786-2.701 1.053-1.113.27-2.299.404-3.563.404-2.696 0-4.79-.795-6.286-2.385-1.499-1.592-2.245-3.804-2.245-6.642 0-2.734.799-4.988 2.4-6.756 1.598-1.767 3.626-2.65 6.078-2.65Zm0 3.174c-.995 0-1.889.359-2.68 1.075-.793.713-1.321 1.762-1.585 3.147h7.915c0-1.372-.317-2.418-.954-3.14-.637-.72-1.534-1.082-2.696-1.082Zm27.834-9.783 9.287 24.612h-4.713l-2.182-6.108h-9.722l-2.098 6.108h-4.68l9.288-24.612h4.82Zm-2.426 4.567h-.121l-3.649 10.366h7.398l-3.627-10.368-.001.002Zm17.48 20.045h-4.163V15.414h4.163v24.612Z" clip-rule="evenodd"></path>
    <g clip-path="url(#b)">
      <path fill="url(#c)" fill-rule="evenodd" d="M37.38-.5c1.663 0 3.138 1.286 3.667 3.101.53 1.815 3.629 13.043 3.629 13.043v22.312h-11.23L33.673-.5h3.705Z" clip-rule="evenodd"></path>
      <path fill="url(#d)" d="M53.862 16.94c0-.794-.642-1.4-1.4-1.4h-6.615a8.44 8.44 0 0 0-8.433 8.434v13.99h8.017a8.44 8.44 0 0 0 8.43-8.432V16.94Z"></path>
      <path fill="url(#e)" fill-rule="evenodd" d="M37.38-.5a2.291 2.291 0 0 0-2.307 2.308l-.226 42.462a11.233 11.233 0 0 1-11.23 11.23H3.236a1.394 1.394 0 0 1-1.323-1.853L18.247 7.025A11.244 11.244 0 0 1 28.834-.5h8.584-.037Z" clip-rule="evenodd"></path>
    </g>
  </g>
  <defs>
    <linearGradient id="c" x1="42.067" x2="32.615" y1="38.786" y2=".937" gradientUnits="userSpaceOnUse">
      <stop stop-color="#712575"></stop>
      <stop offset=".09" stop-color="#9A2884"></stop>
      <stop offset=".18" stop-color="#BF2C92"></stop>
      <stop offset=".27" stop-color="#DA2E9C"></stop>
      <stop offset=".34" stop-color="#EB30A2"></stop>
      <stop offset=".4" stop-color="#F131A5"></stop>
      <stop offset=".5" stop-color="#EC30A3"></stop>
      <stop offset=".61" stop-color="#DF2F9E"></stop>
      <stop offset=".72" stop-color="#C92D96"></stop>
      <stop offset=".83" stop-color="#AA2A8A"></stop>
      <stop offset=".95" stop-color="#83267C"></stop>
      <stop offset="1" stop-color="#712575"></stop>
    </linearGradient>
    <linearGradient id="d" x1="45.658" x2="45.658" y1=".302" y2="53.694" gradientUnits="userSpaceOnUse">
      <stop stop-color="#DA7ED0"></stop>
      <stop offset=".08" stop-color="#B17BD5"></stop>
      <stop offset=".19" stop-color="#8778DB"></stop>
      <stop offset=".3" stop-color="#6276E1"></stop>
      <stop offset=".41" stop-color="#4574E5"></stop>
      <stop offset=".54" stop-color="#2E72E8"></stop>
      <stop offset=".67" stop-color="#1D71EB"></stop>
      <stop offset=".81" stop-color="#1471EC"></stop>
      <stop offset="1" stop-color="#1171ED"></stop>
    </linearGradient>
    <linearGradient id="e" x1="42.446" x2="7.054" y1="1.504" y2="58.26" gradientUnits="userSpaceOnUse">
      <stop stop-color="#DA7ED0"></stop>
      <stop offset=".05" stop-color="#B77BD4"></stop>
      <stop offset=".11" stop-color="#9079DA"></stop>
      <stop offset=".18" stop-color="#6E77DF"></stop>
      <stop offset=".25" stop-color="#5175E3"></stop>
      <stop offset=".33" stop-color="#3973E7"></stop>
      <stop offset=".42" stop-color="#2772E9"></stop>
      <stop offset=".54" stop-color="#1A71EB"></stop>
      <stop offset=".68" stop-color="#1371EC"></stop>
      <stop offset="1" stop-color="#1171ED"></stop>
    </linearGradient>
    <clipPath id="a">
      <path fill="#fff" d="M0 0h194v56H0z"></path>
    </clipPath>
    <clipPath id="b">
      <path fill="#fff" d="M-.5-.5h56v56h-56z"></path>
    </clipPath>
  </defs>
</svg>