<svg class="tool" width="248" height="56" viewBox="0 0 248 56" fill="none" xmlns="http://www.w3.org/2000/svg">
<path d="M59.8449 16.5005L49.6312 10.5726C47.9089 9.57123 45.746 10.8129 45.746 12.8156V27.8356L38.4963 23.6701C34.6111 21.4271 29.8047 21.4271 25.9195 23.6701L18.6698 27.8356V12.7755C18.6698 10.7728 16.507 9.57123 14.7847 10.5325L4.57101 16.5005C3.3694 17.1814 2.64844 18.4631 2.64844 19.8249V33.9638C2.64844 34.9652 2.88876 35.8864 3.3694 36.7275C3.85004 37.5686 4.4909 38.2896 5.33202 38.8503L10.6191 42.2148L14.6645 44.7783C17.1078 46.3404 20.1919 46.1801 22.515 44.4578L22.8354 44.2175C22.8354 44.2175 22.8755 44.1775 22.9155 44.1374L29.0036 39.4912C30.766 38.1294 33.6899 38.1294 35.4923 39.4912L41.5404 44.0974L41.9009 44.3777C44.1839 46.1 47.3081 46.2202 49.7514 44.6982L53.7968 42.1347L59.0838 38.7702C59.925 38.2495 60.6059 37.4885 61.0465 36.6474C61.487 35.8063 61.7674 34.885 61.7674 33.8837V19.7849C61.7674 18.4231 61.0465 17.1413 59.8449 16.4604V16.5005Z" fill="url(#paint0_linear_1_1265)"></path>
<path d="M45.8291 36.9713V42.0581C45.8291 43.6202 44.7077 44.9019 43.3458 44.9019C41.984 44.9019 42.1442 44.6215 41.5034 44.1409L35.4553 39.4947C33.6929 38.1328 30.769 38.1328 28.9666 39.4947L22.8785 44.1409C22.2777 44.5815 21.8771 44.7417 21.3164 44.7417C19.9145 44.7417 18.6328 43.7003 18.6328 42.018V36.9713L27.3244 31.3638C30.2884 29.4412 34.1335 29.4412 37.0975 31.3638L45.8291 36.8511V36.9713Z" fill="url(#paint1_linear_1_1265)"></path>
<path d="M45.7481 27.8009V37.0533L37.1365 31.5259C34.1726 29.6033 30.3675 29.6033 27.3635 31.5259L18.6719 37.0533V27.8009L25.9216 23.6354C29.8068 21.3924 34.5731 21.3924 38.4984 23.6354L45.7481 27.8009Z" fill="url(#paint2_linear_1_1265)"></path>
<path d="M61.7714 19.8249V33.9238C61.7714 34.9251 61.5311 35.8463 61.0504 36.6875L45.75 27.7956V12.7755C45.75 10.7728 47.9129 9.57123 49.6352 10.5325L59.8488 16.4604C61.0504 17.1413 61.7714 18.4231 61.7714 19.7849V19.8249Z" fill="url(#paint3_linear_1_1265)"></path>
<path d="M18.6698 12.7756V27.8357L3.3694 36.7276C2.88876 35.8865 2.64844 34.9652 2.64844 33.9639V19.825C2.64844 18.4632 3.3694 17.1815 4.57101 16.5006L14.7847 10.5727C16.507 9.57131 18.6698 10.813 18.6698 12.8156V12.7756Z" fill="url(#paint4_linear_1_1265)"></path>
<path d="M43.149 44.7059C44.5108 44.7059 45.7925 43.6245 45.7925 42.1024V37.0156L53.8834 42.1825L49.7979 44.786C47.3546 46.3481 44.2305 46.2279 41.9474 44.4656L41.5469 44.1452C42.1076 44.5457 42.5883 44.7059 43.149 44.7059Z" fill="url(#paint5_linear_1_1265)"></path>
<path d="M61.0504 36.7278C60.6099 37.5689 59.9289 38.2899 59.0878 38.8507L53.8008 42.2151L45.75 37.0883V27.8359L61.0504 36.7679V36.7278Z" fill="url(#paint6_linear_1_1265)"></path>
<path d="M18.6679 42.0936C18.6679 43.6557 19.9497 44.8573 21.3115 44.6971C21.9123 44.617 22.3929 44.5369 22.8736 44.1764L22.5131 44.4568C20.23 46.1791 17.1059 46.2992 14.6626 44.7772L10.6172 42.2138L18.6679 37.0469V42.0936Z" fill="url(#paint7_linear_1_1265)"></path>
<path d="M18.6676 27.7969V37.0492L10.6169 42.2161L5.32981 38.8516C4.48869 38.3309 3.80778 37.5699 3.36719 36.7288L18.6676 27.8369V27.7969Z" fill="url(#paint8_linear_1_1265)"></path>
<path d="M243.856 28.3975C244.577 27.7567 244.938 26.6752 244.938 25.1532C244.938 23.6312 244.738 23.2707 244.297 22.3494C243.856 21.4282 243.256 20.5871 242.455 19.8261C241.653 19.0651 240.652 18.4643 239.531 18.0637C238.409 17.5831 237.127 17.3828 235.726 17.3828C233.643 17.3828 231.8 17.8635 230.158 18.7446C228.556 19.6258 227.274 20.8675 226.393 22.3895C225.472 23.9115 225.031 25.7139 225.031 27.6766C225.031 29.6392 225.272 30.5604 225.752 31.8421C226.233 33.1238 226.954 34.2854 227.875 35.2867C228.796 36.248 229.958 37.0491 231.32 37.6098C232.641 38.1706 234.203 38.451 235.886 38.451C237.568 38.451 238.77 38.2907 239.971 37.9303C241.173 37.6098 242.174 37.1692 242.855 36.6886C243.616 36.1679 243.977 35.6472 243.977 35.1666C243.977 34.6859 243.977 34.6859 243.896 34.4456C243.816 34.2053 243.696 34.005 243.536 33.7246C243.376 33.4042 243.135 33.1639 242.815 33.0838C242.535 32.9636 242.254 32.9236 241.934 33.0037C241.694 33.0838 241.413 33.1639 241.173 33.3241C240.973 33.4443 240.692 33.6045 240.412 33.7246C240.131 33.8448 239.771 34.005 239.33 34.1252C238.93 34.2453 238.449 34.3655 237.928 34.4456C237.408 34.5257 236.727 34.5658 235.966 34.5658C235.205 34.5658 233.923 34.3254 232.922 33.8849C231.92 33.4443 231.119 32.7634 230.438 31.9623C229.878 31.2013 229.557 30.28 229.517 29.2387H241.333C242.374 29.2387 243.256 28.9182 243.977 28.3174L243.856 28.3975ZM240.932 25.2333C240.932 25.7139 240.852 26.0344 240.652 26.1145C240.492 26.1946 240.212 26.2747 239.611 26.2747H229.397C229.397 25.3935 229.677 24.5924 230.198 23.8715C230.759 23.0704 231.52 22.4296 232.481 21.989C233.483 21.5083 234.564 21.268 235.766 21.268C236.967 21.268 237.688 21.4683 238.449 21.8288C239.25 22.1892 239.851 22.7099 240.332 23.3107C240.772 23.8715 240.973 24.5123 240.973 25.2333H240.932Z" fill="#130C49"></path>
<path d="M220.626 17.7899C220.305 17.7097 219.945 17.6697 219.544 17.6697H215.859C215.859 17.7097 215.859 12.3426 215.859 12.3426C215.859 11.902 215.819 11.5415 215.739 11.2611C215.619 10.9007 215.419 10.6203 215.058 10.4601C214.738 10.2598 214.297 10.1797 213.736 10.1797C213.176 10.1797 212.735 10.2598 212.415 10.5001C212.094 10.7004 211.894 10.9407 211.814 11.3012C211.734 11.6216 211.694 11.9821 211.694 12.4227V17.7899H209.811C209.17 17.7899 208.69 17.9501 208.409 18.3105C208.129 18.631 207.969 19.1517 207.969 19.8726C207.969 20.5936 208.089 21.1143 208.289 21.4347C208.57 21.7952 209.05 21.9554 209.731 21.9554H211.694V31.368C211.694 32.6898 211.814 33.8113 212.094 34.6924C212.375 35.5736 212.815 36.3346 213.416 36.9354C214.017 37.4962 214.818 37.9368 215.739 38.2171C216.66 38.4975 217.822 38.6177 219.144 38.6177C220.465 38.6177 219.865 38.5776 220.145 38.4975C220.546 38.4174 220.826 38.2171 220.986 37.8967C221.186 37.5763 221.266 37.0956 221.266 36.4948C221.266 35.894 221.186 35.4935 221.026 35.2131C220.866 34.8927 220.586 34.6924 220.225 34.5723C219.905 34.4922 219.544 34.4521 219.064 34.4521C218.583 34.4521 217.902 34.4521 217.461 34.372C217.061 34.332 216.74 34.2118 216.54 34.0115C216.34 33.8113 216.18 33.5309 216.06 33.1704C215.939 32.7298 215.899 32.1691 215.899 31.4481V22.0355H219.624C220.025 22.0756 220.385 22.0355 220.706 21.9554C221.066 21.8353 221.307 21.635 221.507 21.2745C221.667 20.9541 221.747 20.5135 221.747 19.9127C221.747 19.3119 221.667 18.8713 221.467 18.5909C221.307 18.2304 221.026 18.0302 220.666 17.9501L220.626 17.7899Z" fill="#130C49"></path>
<path d="M203.835 17.7042C203.555 17.504 203.154 17.3838 202.554 17.3838C201.953 17.3838 201.312 17.544 200.951 17.8644C200.631 18.1849 200.471 18.7056 200.471 19.3865V20.3077C200.15 19.9072 199.75 19.5467 199.349 19.1862C198.708 18.6255 197.947 18.1849 197.066 17.8644C196.185 17.504 195.104 17.3438 193.822 17.3438C192.54 17.3438 191.178 17.6241 189.977 18.1849C188.815 18.7456 187.774 19.5066 186.853 20.4679C185.931 21.4292 185.21 22.5507 184.69 23.8324C184.209 25.0741 183.969 26.4359 183.969 27.8378C183.969 29.2396 184.209 30.6415 184.69 31.9232C185.21 33.2049 185.891 34.3264 186.772 35.3278C187.694 36.3291 188.735 37.0901 189.897 37.6509C191.098 38.2116 192.38 38.492 193.782 38.492C195.184 38.492 196.385 38.2517 197.387 37.8111C198.348 37.3305 199.149 36.8098 199.75 36.209C200.03 35.9286 200.271 35.6482 200.471 35.4079L200.391 36.5294C200.471 37.1702 200.631 37.6509 200.911 37.9313C201.232 38.2517 201.753 38.3718 202.433 38.3718C203.114 38.3718 203.435 38.2917 203.755 38.0915C204.076 37.9313 204.276 37.6108 204.396 37.2503C204.476 36.9299 204.516 36.5294 204.516 36.1288V19.747C204.516 19.2663 204.476 18.8658 204.396 18.5053C204.316 18.1448 204.076 17.8244 203.795 17.6241L203.835 17.7042ZM200.271 27.9179C200.271 29.1595 199.99 30.281 199.469 31.2824C198.989 32.2036 198.268 33.0047 197.347 33.5654C196.465 34.1262 195.504 34.4065 194.463 34.4065C193.421 34.4065 192.1 34.1262 191.138 33.6055C190.217 33.0447 189.456 32.2837 188.935 31.3224C188.415 30.3611 188.134 29.2396 188.134 28.038C188.134 26.8364 188.415 25.6749 188.935 24.7136C189.456 23.7523 190.177 22.9512 191.098 22.3905C192.02 21.7897 193.141 21.5093 194.383 21.5093C195.624 21.5093 196.425 21.7897 197.267 22.3504C198.148 22.8711 198.869 23.6322 199.429 24.6335C199.99 25.5547 200.271 26.7163 200.271 27.9579V27.9179Z" fill="#130C49"></path>
<path d="M179.571 17.6632C179.25 17.4629 178.85 17.3828 178.249 17.3828C177.648 17.3828 177.207 17.4629 176.847 17.6231C176.527 17.7833 176.326 18.0637 176.206 18.4242C176.126 18.7446 176.086 19.1051 176.086 19.5056V36.3682C176.086 36.7687 176.126 37.1292 176.206 37.4496C176.326 37.8101 176.527 38.0504 176.847 38.2507C177.167 38.451 177.608 38.5311 178.209 38.5311C178.81 38.5311 179.21 38.451 179.49 38.2907C179.851 38.1305 180.051 37.8502 180.171 37.4897C180.252 37.1692 180.292 36.8088 180.292 36.4082V19.5858C180.292 19.1452 180.252 18.7446 180.171 18.4643C180.051 18.1038 179.851 17.8635 179.571 17.6632Z" fill="#130C49"></path>
<path d="M179.731 10.4132C179.37 10.2129 178.89 10.1328 178.249 10.1328C177.608 10.1328 177.087 10.2129 176.727 10.4132C176.366 10.5734 176.086 10.8938 175.966 11.2944C175.846 11.6148 175.766 12.0554 175.766 12.536C175.766 13.0167 175.806 13.4172 175.886 13.7777C176.006 14.1782 176.286 14.4986 176.647 14.739C177.007 14.9392 177.488 15.0193 178.169 15.0193C178.85 15.0193 179.33 14.9392 179.691 14.739C180.051 14.5387 180.292 14.2583 180.412 13.8578C180.532 13.4973 180.612 13.0567 180.612 12.6161C180.612 12.1755 180.572 11.735 180.452 11.3745C180.332 10.9739 180.091 10.6535 179.731 10.4532V10.4132Z" fill="#130C49"></path>
<path d="M171.151 17.7496C170.27 17.309 169.589 17.269 169.148 17.6295C168.748 17.9499 168.387 18.4305 168.067 19.1115L162.259 32.8899L156.291 18.6709C155.971 17.9499 155.57 17.5494 155.09 17.4292C154.649 17.309 154.088 17.4292 153.488 17.7096C152.807 18.03 152.366 18.4305 152.206 18.8311C152.006 19.2316 152.046 19.8324 152.406 20.5934L160.096 37.4159C160.297 37.8164 160.577 38.1369 160.938 38.2971C161.298 38.4573 161.699 38.5374 162.219 38.5374C162.74 38.5374 163.221 38.4573 163.581 38.257C163.942 38.0568 164.222 37.7764 164.382 37.3759L172.032 20.8338C172.313 20.273 172.433 19.7523 172.433 19.2717C172.433 18.791 171.992 18.1902 171.151 17.7496Z" fill="#130C49"></path>
<path d="M148.007 17.7042C147.727 17.504 147.326 17.3838 146.725 17.3838C146.125 17.3838 145.484 17.544 145.123 17.8644C144.763 18.1849 144.643 18.7056 144.643 19.3865V20.3077C144.322 19.9072 143.922 19.5467 143.521 19.1862C142.88 18.6255 142.119 18.1849 141.238 17.8644C140.357 17.504 139.276 17.3438 137.994 17.3438C136.712 17.3438 135.35 17.6241 134.149 18.1849C132.987 18.7456 131.946 19.5066 131.024 20.4679C130.103 21.4292 129.382 22.5507 128.862 23.8324C128.381 25.0741 128.141 26.4359 128.141 27.8378C128.141 29.2396 128.381 30.6415 128.862 31.9232C129.382 33.2049 130.063 34.3264 130.944 35.3278C131.866 36.3291 132.907 37.0901 134.069 37.6509C135.27 38.2116 136.552 38.492 137.954 38.492C139.356 38.492 140.557 38.2517 141.559 37.8111C142.52 37.3305 143.321 36.8098 143.922 36.209C144.202 35.9286 144.442 35.6482 144.643 35.4079L144.563 36.5294C144.603 37.1702 144.803 37.6509 145.123 37.9313C145.444 38.2517 145.964 38.3718 146.645 38.3718C147.326 38.3718 147.647 38.2917 147.967 38.0915C148.288 37.9313 148.488 37.6108 148.608 37.2503C148.688 36.9299 148.728 36.5294 148.728 36.1288V19.747C148.728 19.2663 148.688 18.8658 148.608 18.5053C148.528 18.1448 148.288 17.8244 148.007 17.6241V17.7042ZM144.442 27.9179C144.442 29.1595 144.162 30.281 143.641 31.2824C143.161 32.2036 142.44 33.0047 141.518 33.5654C140.637 34.1262 139.676 34.4065 138.635 34.4065C137.593 34.4065 136.271 34.1262 135.31 33.6055C134.389 33.0447 133.628 32.2837 133.107 31.3224C132.587 30.3611 132.306 29.2396 132.306 28.038C132.306 26.8364 132.587 25.6749 133.107 24.7136C133.628 23.7523 134.349 22.9512 135.27 22.3905C136.191 21.7897 137.313 21.5093 138.555 21.5093C139.796 21.5093 140.597 21.7897 141.438 22.3504C142.32 22.8711 143.041 23.6322 143.601 24.6335C144.162 25.5547 144.442 26.7163 144.442 27.9579V27.9179Z" fill="#130C49"></path>
<path d="M122.291 19.873C121.49 19.1119 120.489 18.5111 119.368 18.1106C118.246 17.63 116.964 17.4297 115.562 17.4297C113.48 17.4297 111.597 17.9103 109.995 18.7915C108.393 19.6727 107.111 20.9143 106.19 22.4364C105.269 23.9584 104.828 25.7608 104.828 27.7234C104.828 29.6861 105.068 30.6073 105.549 31.889C106.03 33.1707 106.751 34.3323 107.672 35.3336C108.633 36.2949 109.755 37.096 111.117 37.6567C112.438 38.2175 114 38.4978 115.683 38.4978C117.365 38.4978 118.566 38.3376 119.768 37.9771C120.97 37.6567 121.971 37.2161 122.652 36.7355C123.413 36.2148 123.773 35.6941 123.773 35.2134C123.773 34.7328 123.773 34.7328 123.693 34.4925C123.613 34.2522 123.493 34.0519 123.333 33.7715C123.173 33.4511 122.932 33.2108 122.612 33.1307C122.332 33.0105 122.051 32.9704 121.731 33.0506C121.49 33.1307 121.21 33.2108 120.97 33.371C120.769 33.4911 120.489 33.6514 120.209 33.7715C119.928 33.8917 119.568 34.0519 119.167 34.1721C118.767 34.2922 118.286 34.4124 117.765 34.4925C117.205 34.5726 116.564 34.6126 115.803 34.6126C115.042 34.6126 113.76 34.3723 112.759 33.9317C111.757 33.4911 110.956 32.8102 110.275 32.0092C109.715 31.2481 109.394 30.3269 109.354 29.2855H121.17C122.211 29.2855 123.093 28.9651 123.813 28.3643C124.534 27.7234 124.895 26.642 124.895 25.12C124.895 23.5979 124.695 23.2374 124.254 22.3162C123.813 21.395 123.213 20.5539 122.412 19.7928L122.291 19.873ZM120.769 25.2401C120.769 25.7208 120.689 26.0412 120.489 26.1213C120.329 26.2014 120.048 26.2815 119.448 26.2815H109.234C109.234 25.4003 109.514 24.5993 110.035 23.8783C110.596 23.0772 111.357 22.4364 112.318 21.9958C113.319 21.5151 114.401 21.2748 115.562 21.2748C116.724 21.2748 117.485 21.4751 118.246 21.8356C119.047 22.1961 119.648 22.7168 120.089 23.3176C120.529 23.8783 120.729 24.5192 120.729 25.2401H120.769Z" fill="#130C49"></path>
<path d="M101.461 17.6285C100.74 17.3482 100.1 17.3081 99.659 17.5484C99.2184 17.7887 98.898 18.2694 98.6176 18.9904L94.1717 30.9263L90.0862 19.0304C90.0061 18.7901 89.886 18.5498 89.6857 18.3094C89.5255 18.0691 89.2852 17.9089 89.0448 17.7487C88.7645 17.5885 88.404 17.5084 87.9233 17.5084C87.4427 17.5084 87.1223 17.5885 86.8419 17.7487C86.5615 17.9089 86.3212 18.1092 86.161 18.3895C86.0408 18.5898 85.9607 18.8301 85.8406 19.0705L81.675 30.8462L77.2291 18.7901C76.9887 18.1092 76.6283 17.6686 76.1877 17.5084C75.7471 17.3482 75.1863 17.3882 74.4654 17.6686C74.0248 17.8288 73.6643 17.989 73.424 18.2293C73.1837 18.4697 73.0635 18.75 73.0234 19.1105C73.0234 19.4309 73.1035 19.8315 73.2638 20.2721L79.7124 36.8542C79.7524 37.1346 79.8726 37.3749 79.9927 37.6152C80.153 37.8556 80.3532 38.0558 80.6336 38.176C80.914 38.3362 81.3145 38.4163 81.7551 38.4163C82.1957 38.4163 82.5161 38.3362 82.7965 38.216C83.0769 38.0959 83.2771 37.8956 83.4374 37.6152C83.5976 37.3749 83.7177 37.0945 83.8379 36.7341L88.0435 24.5177L92.2491 36.7341C92.3693 37.0144 92.4894 37.2948 92.6497 37.5752C92.8099 37.8556 93.0502 38.0558 93.2905 38.176C93.5709 38.2961 93.8913 38.3763 94.3319 38.3763C94.7725 38.3763 95.133 38.2961 95.3733 38.1359C95.6537 38.0158 95.894 37.8155 96.0142 37.5752C96.1744 37.3349 96.2945 37.0945 96.3746 36.8542L102.823 20.2721C103.144 19.511 103.184 18.9102 102.943 18.4697C102.703 18.0291 102.262 17.7086 101.622 17.5084L101.461 17.6285Z" fill="#130C49"></path>
<defs>
<linearGradient id="paint0_linear_1_1265" x1="34.4509" y1="48.9438" x2="29.8047" y2="3.32288" gradientUnits="userSpaceOnUse">
<stop stop-color="#75BE2C"></stop>
<stop offset="0.9" stop-color="#9DC03B"></stop>
</linearGradient>
<linearGradient id="paint1_linear_1_1265" x1="32.251" y1="29.9219" x2="32.251" y2="44.8618" gradientUnits="userSpaceOnUse">
<stop stop-color="#238D37"></stop>
<stop offset="0.9" stop-color="#35537F"></stop>
</linearGradient>
<linearGradient id="paint2_linear_1_1265" x1="30.6479" y1="22.1934" x2="32.971" y2="37.4138" gradientUnits="userSpaceOnUse">
<stop stop-color="#67D84D"></stop>
<stop offset="1" stop-color="#348522"></stop>
</linearGradient>
<linearGradient id="paint3_linear_1_1265" x1="53.7607" y1="10.172" x2="53.7607" y2="36.6875" gradientUnits="userSpaceOnUse">
<stop stop-color="#E4D00A"></stop>
<stop offset="0.6" stop-color="#C4D132"></stop>
</linearGradient>
<linearGradient id="paint4_linear_1_1265" x1="10.6591" y1="10.1721" x2="10.6591" y2="36.6875" gradientUnits="userSpaceOnUse">
<stop stop-color="#E4D00A"></stop>
<stop offset="0.6" stop-color="#C4D132"></stop>
</linearGradient>
<linearGradient id="paint5_linear_1_1265" x1="47.7151" y1="37.0156" x2="47.7151" y2="45.8675" gradientUnits="userSpaceOnUse">
<stop stop-color="#8AB11B"></stop>
<stop offset="1" stop-color="#6EAF02"></stop>
</linearGradient>
<linearGradient id="paint6_linear_1_1265" x1="54.1212" y1="26.3139" x2="52.2787" y2="41.2138" gradientUnits="userSpaceOnUse">
<stop stop-color="#75BE2C"></stop>
<stop offset="0.9" stop-color="#9DC03B"></stop>
</linearGradient>
<linearGradient id="paint7_linear_1_1265" x1="16.7454" y1="37.0469" x2="16.7454" y2="45.8186" gradientUnits="userSpaceOnUse">
<stop stop-color="#8AB11B"></stop>
<stop offset="1" stop-color="#6EAF02"></stop>
</linearGradient>
<linearGradient id="paint8_linear_1_1265" x1="12.0989" y1="26.395" x2="10.2564" y2="44.2989" gradientUnits="userSpaceOnUse">
<stop stop-color="#75BE2C"></stop>
<stop offset="0.9" stop-color="#9DC03B"></stop>
</linearGradient>
</defs>
</svg>