<svg class="tool" width="191" height="56" viewBox="0 0 191 56" fill="none" xmlns="http://www.w3.org/2000/svg">
<g clip-path="url(#clip0_1_166)">
<path d="M82.5852 37.5579H78.25L84.8556 18.4232H90.069L96.6653 37.5579H92.3301L87.5371 22.7958H87.3876L82.5852 37.5579ZM82.3143 30.0367H92.5543V33.1947H82.3143V30.0367Z" fill="black"></path>
<path d="M108.097 31.4475V23.2069H112.077V37.5579H108.255V34.9512H108.106C107.782 35.7921 107.243 36.4679 106.49 36.9787C105.742 37.4894 104.83 37.7448 103.752 37.7448C102.793 37.7448 101.949 37.5268 101.22 37.0908C100.491 36.6548 99.9214 36.035 99.5103 35.2315C99.1054 34.428 98.8999 33.4656 98.8936 32.3445V23.2069H102.874V31.6344C102.88 32.4815 103.107 33.1511 103.556 33.6432C104.004 34.1352 104.605 34.3813 105.359 34.3813C105.839 34.3813 106.287 34.2723 106.704 34.0543C107.122 33.83 107.458 33.4999 107.714 33.0639C107.975 32.6279 108.103 32.0891 108.097 31.4475Z" fill="black"></path>
<path d="M122.894 23.2069V26.1967H114.251V23.2069H122.894ZM116.213 19.7686H120.194V33.148C120.194 33.5155 120.25 33.802 120.362 34.0076C120.474 34.2069 120.63 34.347 120.829 34.428C121.034 34.509 121.271 34.5495 121.539 34.5495C121.726 34.5495 121.913 34.5339 122.1 34.5027C122.286 34.4654 122.43 34.4373 122.529 34.4186L123.155 37.3804C122.956 37.4427 122.676 37.5143 122.314 37.5953C121.953 37.6825 121.514 37.7355 120.997 37.7541C120.038 37.7915 119.197 37.6638 118.474 37.3711C117.758 37.0783 117.201 36.6236 116.802 36.007C116.403 35.3903 116.207 34.6117 116.213 33.6712V19.7686Z" fill="black"></path>
<path d="M131.816 37.8382C130.365 37.8382 129.11 37.5299 128.051 36.9133C126.999 36.2904 126.186 35.4246 125.613 34.3159C125.04 33.2009 124.753 31.9085 124.753 30.4385C124.753 28.956 125.04 27.6605 125.613 26.5517C126.186 25.4368 126.999 24.571 128.051 23.9544C129.11 23.3315 130.365 23.02 131.816 23.02C133.268 23.02 134.52 23.3315 135.572 23.9544C136.631 24.571 137.447 25.4368 138.02 26.5517C138.593 27.6605 138.88 28.956 138.88 30.4385C138.88 31.9085 138.593 33.2009 138.02 34.3159C137.447 35.4246 136.631 36.2904 135.572 36.9133C134.52 37.5299 133.268 37.8382 131.816 37.8382ZM131.835 34.755C132.495 34.755 133.047 34.5681 133.489 34.1944C133.931 33.8145 134.264 33.2975 134.489 32.6435C134.719 31.9894 134.834 31.2451 134.834 30.4104C134.834 29.5758 134.719 28.8315 134.489 28.1774C134.264 27.5234 133.931 27.0064 133.489 26.6265C133.047 26.2465 132.495 26.0566 131.835 26.0566C131.169 26.0566 130.608 26.2465 130.153 26.6265C129.705 27.0064 129.365 27.5234 129.135 28.1774C128.911 28.8315 128.799 29.5758 128.799 30.4104C128.799 31.2451 128.911 31.9894 129.135 32.6435C129.365 33.2975 129.705 33.8145 130.153 34.1944C130.608 34.5681 131.169 34.755 131.835 34.755Z" fill="black"></path>
<path d="M154.231 24.6084C154.1 24.1537 153.916 23.7519 153.679 23.4031C153.443 23.0481 153.153 22.7491 152.81 22.5062C152.474 22.257 152.088 22.067 151.652 21.9362C151.222 21.8054 150.746 21.74 150.222 21.74C149.244 21.74 148.385 21.983 147.644 22.4688C146.909 22.9546 146.336 23.6616 145.925 24.5897C145.513 25.5115 145.308 26.6389 145.308 27.9719C145.308 29.3048 145.51 30.4385 145.915 31.3728C146.32 32.3071 146.893 33.0203 147.634 33.5124C148.376 33.9982 149.251 34.2411 150.26 34.2411C151.175 34.2411 151.957 34.0792 152.605 33.7553C153.259 33.4252 153.757 32.9611 154.1 32.3632C154.449 31.7652 154.623 31.0582 154.623 30.2423L155.445 30.3637H150.512V27.3179H158.519V29.7284C158.519 31.4102 158.164 32.8552 157.454 34.0636C156.744 35.2658 155.766 36.1938 154.52 36.8479C153.274 37.4956 151.848 37.8195 150.241 37.8195C148.447 37.8195 146.871 37.424 145.513 36.633C144.156 35.8357 143.097 34.7052 142.337 33.2414C141.583 31.7714 141.206 30.0274 141.206 28.0093C141.206 26.4583 141.431 25.0755 141.879 23.8609C142.334 22.6401 142.969 21.6061 143.785 20.759C144.601 19.9119 145.551 19.2672 146.635 18.825C147.718 18.3827 148.893 18.1616 150.157 18.1616C151.241 18.1616 152.25 18.3205 153.184 18.6381C154.118 18.9496 154.947 19.3918 155.669 19.9648C156.398 20.5379 156.993 21.2199 157.454 22.011C157.915 22.7958 158.211 23.6616 158.342 24.6084H154.231Z" fill="black"></path>
<path d="M168.023 37.8382C166.547 37.8382 165.276 37.5392 164.211 36.9413C163.152 36.3371 162.337 35.4838 161.763 34.3813C161.19 33.2726 160.904 31.9614 160.904 30.4478C160.904 28.9716 161.19 27.676 161.763 26.5611C162.337 25.4461 163.143 24.5772 164.183 23.9544C165.23 23.3315 166.457 23.02 167.865 23.02C168.811 23.02 169.693 23.1726 170.509 23.4779C171.331 23.7768 172.047 24.2284 172.658 24.8326C173.274 25.4368 173.754 26.1967 174.096 27.1123C174.439 28.0217 174.61 29.0868 174.61 30.3077V31.4008H162.492V28.9342H170.864C170.864 28.3612 170.739 27.8535 170.49 27.4113C170.241 26.9691 169.895 26.6234 169.453 26.3742C169.017 26.1188 168.509 25.9912 167.93 25.9912C167.326 25.9912 166.79 26.1313 166.323 26.4116C165.862 26.6857 165.501 27.0563 165.239 27.5234C164.978 27.9844 164.844 28.4982 164.837 29.065V31.4102C164.837 32.1202 164.968 32.7338 165.23 33.2508C165.498 33.7677 165.874 34.1664 166.36 34.4467C166.846 34.727 167.422 34.8671 168.089 34.8671C168.531 34.8671 168.936 34.8048 169.303 34.6803C169.671 34.5557 169.985 34.3688 170.247 34.1197C170.509 33.8705 170.708 33.5653 170.845 33.204L174.526 33.447C174.339 34.3314 173.956 35.1038 173.377 35.7641C172.804 36.4181 172.063 36.9288 171.153 37.2963C170.25 37.6576 169.207 37.8382 168.023 37.8382Z" fill="black"></path>
<path d="M181.188 29.2612V37.5579H177.208V23.2069H181.001V25.7389H181.169C181.487 24.9042 182.019 24.244 182.767 23.7581C183.514 23.2661 184.421 23.02 185.486 23.02C186.482 23.02 187.351 23.238 188.092 23.6741C188.834 24.1101 189.41 24.7329 189.821 25.5427C190.232 26.3462 190.438 27.3054 190.438 28.4204V37.5579H186.457V29.1304C186.464 28.2522 186.239 27.567 185.785 27.075C185.33 26.5767 184.704 26.3275 183.907 26.3275C183.371 26.3275 182.898 26.4427 182.487 26.6732C182.082 26.9037 181.764 27.24 181.534 27.6823C181.309 28.1183 181.194 28.6446 181.188 29.2612Z" fill="black"></path>
<g clip-path="url(#clip1_1_166)">
<path d="M59.2956 0H3.95441C1.77126 0 0.00146484 1.76979 0.00146484 3.95294V52.0471C0.00146484 54.2302 1.77126 56 3.95441 56H59.2956C61.4787 56 63.2485 54.2302 63.2485 52.0471V3.95294C63.2485 1.76979 61.4787 0 59.2956 0Z" fill="#2D2D2F"></path>
<path d="M21.511 18.9154L15.3963 37.553H10.4706L18.8243 15.0706H21.9588L21.511 18.9154ZM26.5912 37.553L20.461 18.9154L19.9669 15.0706H23.1324L31.5324 37.553H26.5912ZM26.3132 29.1839V32.8125H14.439V29.1839H26.3132ZM51.1581 25.8023V34.7118C50.8081 35.1338 50.2677 35.5919 49.5368 36.086C48.8059 36.5699 47.864 36.9868 46.711 37.3368C45.5581 37.6868 44.1632 37.8618 42.5265 37.8618C41.075 37.8618 39.7522 37.625 38.5581 37.1515C37.364 36.6676 36.3345 35.9625 35.4698 35.0361C34.6155 34.1096 33.9566 32.9772 33.4934 31.639C33.0301 30.2905 32.7985 28.7515 32.7985 27.0221V25.6169C32.7985 23.8875 33.0199 22.3486 33.4625 21C33.9155 19.6515 34.5588 18.514 35.3927 17.5875C36.2265 16.6611 37.2199 15.9559 38.3728 15.4721C39.5258 14.9883 40.8074 14.7463 42.2176 14.7463C44.1736 14.7463 45.7794 15.0655 47.0353 15.7037C48.2912 16.3317 49.2485 17.2066 49.9074 18.3287C50.5765 19.4405 50.9882 20.7169 51.1427 22.1581H46.6493C46.536 21.3964 46.3199 20.7324 46.0007 20.1662C45.6816 19.6 45.2235 19.1574 44.6265 18.8383C44.0397 18.5192 43.278 18.3596 42.3412 18.3596C41.5692 18.3596 40.8794 18.5192 40.2721 18.8383C39.675 19.1471 39.1706 19.6052 38.7588 20.2125C38.347 20.8199 38.0331 21.5714 37.8169 22.467C37.6007 23.3625 37.4926 24.4023 37.4926 25.586V27.0221C37.4926 28.1956 37.6059 29.2353 37.8324 30.1412C38.0588 31.0368 38.3934 31.7934 38.836 32.411C39.289 33.0184 39.8449 33.4765 40.5037 33.7853C41.1625 34.0941 41.9294 34.2486 42.8045 34.2486C43.5353 34.2486 44.1427 34.1868 44.6265 34.0632C45.1206 33.9397 45.5169 33.7905 45.8155 33.6154C46.1243 33.4302 46.361 33.2552 46.5257 33.0905V29.1066H42.2948V25.8023H51.1581Z" fill="url(#paint0_linear_1_166)"></path>
</g>
</g>
<defs>
<linearGradient id="paint0_linear_1_166" x1="30.8143" y1="17.3958" x2="30.8143" y2="37.8618" gradientUnits="userSpaceOnUse">
<stop stop-color="white"></stop>
<stop offset="1" stop-color="#7B7D7F"></stop>
</linearGradient>
<clipPath id="clip0_1_166">
<rect width="190.438" height="56" fill="white"></rect>
</clipPath>
<clipPath id="clip1_1_166">
<rect width="63.2471" height="56" fill="white"></rect>
</clipPath>
</defs>
</svg>