<svg class="tool" width="247" height="56" viewBox="0 0 247 56" fill="none" xmlns="http://www.w3.org/2000/svg">
<g clip-path="url(#clip0_1_3046)">
<mask id="mask0_1_3046" style="mask-type:luminance" maskUnits="userSpaceOnUse" x="0" y="3" width="49" height="51">
<path d="M48.1175 23.8969H24.8095V33.436H38.2024C37.9871 34.7861 37.5037 36.1141 36.7957 37.3251C35.9846 38.7125 34.9819 39.7688 33.9541 40.5732C30.8754 42.9828 27.286 43.4755 24.7932 43.4755C18.4962 43.4755 13.1157 39.3186 11.0329 33.6702C10.9488 33.4652 10.893 33.2535 10.825 33.0442C10.3647 31.6066 10.1133 30.084 10.1133 28.5016C10.1133 26.8547 10.3856 25.2781 10.8821 23.7892C12.8408 17.9168 18.3425 13.5307 24.7978 13.5307C26.0962 13.5307 27.3465 13.6886 28.5322 14.0034C31.2421 14.723 33.1589 16.1402 34.3334 17.2611L41.4205 10.1723C37.1095 6.13515 31.4896 3.68884 24.786 3.68884C19.4268 3.68872 14.4791 5.39416 10.4245 8.27639C7.13641 10.6138 4.4397 13.7433 2.61974 17.3779C0.926925 20.7479 0 24.4825 0 28.4978C0 32.5134 0.928341 36.2868 2.62117 39.6257V39.6482C4.4092 43.1928 7.02393 46.2447 10.2019 48.5714C12.9781 50.6041 17.9562 53.3111 24.786 53.3111C28.7136 53.3111 32.1946 52.5879 35.2645 51.2325C37.4791 50.2547 39.4412 48.9794 41.2177 47.3403C43.565 45.1746 45.4033 42.4958 46.6581 39.4138C47.9129 36.3317 48.5841 32.8465 48.5841 29.0679C48.5841 27.3082 48.411 25.521 48.1175 23.8968V23.8969Z" fill="white"></path>
</mask>
<g mask="url(#mask0_1_3046)">
<g filter="url(#filter0_f_1_3046)">
<path d="M-0.3573 28.6662C-0.331537 32.6184 0.771065 36.6961 2.44004 39.9879V40.0105C3.64595 42.4011 5.29408 44.2895 7.17128 46.1605L18.5091 41.9352C16.364 40.8223 16.0367 40.1403 14.4991 38.896C12.9277 37.2777 11.7566 35.4198 11.0273 33.2414H10.9979L11.0273 33.2187C10.5474 31.7802 10.5001 30.2531 10.4824 28.6662H-0.3573Z" fill="url(#paint0_radial_1_3046)"></path>
</g>
<g filter="url(#filter1_f_1_3046)">
<path d="M24.8096 3.50824C23.689 7.52929 24.1175 11.4379 24.8096 13.7121C26.1037 13.713 27.3503 13.8706 28.5323 14.1845C31.2422 14.904 33.1588 16.3212 34.3333 17.4422L41.6018 10.1723C37.2959 6.13994 32.1141 3.51459 24.8096 3.50824Z" fill="url(#paint1_radial_1_3046)"></path>
</g>
<g filter="url(#filter2_f_1_3046)">
<path d="M24.7854 3.47644C19.2887 3.47632 14.2139 5.22554 10.0553 8.18177C8.5112 9.27943 7.09421 10.5474 5.83247 11.9574C5.50193 15.1247 8.30685 19.0176 13.8615 18.9854C16.5565 15.7834 20.5425 13.7117 24.9789 13.7117C24.9829 13.7117 24.9869 13.712 24.9909 13.7121L24.8097 3.47716C24.8015 3.47716 24.7936 3.47644 24.7854 3.47644Z" fill="url(#paint2_radial_1_3046)"></path>
</g>
<g filter="url(#filter3_f_1_3046)">
<path d="M42.9276 29.8123L38.0214 33.2548C37.8061 34.6048 37.3223 35.9328 36.6144 37.1438C35.8033 38.5312 34.8006 39.5876 33.7728 40.392C30.7005 42.7966 27.1206 43.2917 24.6285 43.2937C22.0526 47.7746 21.601 50.019 24.8097 53.6355C28.78 53.6325 32.2999 52.9005 35.4046 51.5297C37.6489 50.5388 39.6373 49.2463 41.4376 47.5853C43.8164 45.3905 45.6797 42.6757 46.9513 39.5523C48.2229 36.4289 48.9029 32.8971 48.9029 29.0678L42.9276 29.8123Z" fill="url(#paint3_radial_1_3046)"></path>
</g>
<g filter="url(#filter4_f_1_3046)">
<path d="M24.4474 23.5344V33.7983H48.0522C48.2598 32.3926 48.9465 30.5736 48.9465 29.0678C48.9465 27.3081 48.7735 25.1586 48.4801 23.5344H24.4474Z" fill="#3086FF"></path>
</g>
<g filter="url(#filter5_f_1_3046)">
<path d="M5.94517 11.5951C4.4885 13.2229 3.24406 15.045 2.25737 17.0155C0.564579 20.3855 -0.362305 24.4824 -0.362305 28.4978C-0.362305 28.5544 -0.357719 28.6098 -0.35735 28.6663C0.392336 30.1344 9.99819 29.8532 10.4824 28.6663C10.4818 28.6109 10.4757 28.5569 10.4757 28.5013C10.4757 26.8544 10.7481 25.6405 11.2446 24.1516C11.8572 22.315 12.8163 20.6237 14.0428 19.1666C14.3208 18.804 15.0624 18.0247 15.2787 17.5572C15.3611 17.3791 15.1291 17.2792 15.1161 17.2165C15.1016 17.1464 14.7905 17.2028 14.7208 17.1506C14.4995 16.9848 14.0613 16.8982 13.7951 16.8212C13.2264 16.6567 12.2837 16.294 11.7601 15.9179C10.1052 14.7293 7.5224 13.3095 5.94517 11.5951Z" fill="url(#paint4_radial_1_3046)"></path>
</g>
<g filter="url(#filter6_f_1_3046)">
<path d="M11.7957 17.2235C15.6334 19.5979 16.7371 16.025 19.2887 14.907L14.8501 5.50592C13.2174 6.20682 11.6748 7.07763 10.2435 8.0951C8.10595 9.6146 6.21835 11.4688 4.65906 13.579L11.7957 17.2235Z" fill="url(#paint5_radial_1_3046)"></path>
</g>
<g filter="url(#filter7_f_1_3046)">
<path d="M13.3576 41.2089C8.2059 43.1085 7.39938 43.1766 6.92517 46.4375C7.83136 47.3407 8.805 48.1762 9.83965 48.9337C12.6159 50.9663 17.9562 53.6734 24.786 53.6734C24.794 53.6734 24.8017 53.6727 24.8097 53.6727V43.1126C24.8045 43.1126 24.7986 43.1129 24.7934 43.1129C22.2359 43.1129 20.1922 42.4268 18.0968 41.2337C17.5801 40.9395 16.6428 41.7295 16.1663 41.3763C15.5091 40.8893 13.9276 41.796 13.3576 41.2089Z" fill="url(#paint6_radial_1_3046)"></path>
</g>
<g opacity="0.5" filter="url(#filter8_f_1_3046)">
<path d="M21.7927 42.78V53.4898C22.7483 53.6041 23.7428 53.6735 24.7861 53.6735C25.8319 53.6735 26.8437 53.6186 27.8269 53.5178V42.8522C26.7251 43.0445 25.6874 43.113 24.7935 43.113C23.764 43.113 22.7628 42.9905 21.7927 42.78Z" fill="url(#paint7_linear_1_3046)"></path>
</g>
</g>
<path d="M66.6875 38.6117H65.5298V18.4865H58.584V17.4179H73.663V18.4865H66.6875V38.6117Z" fill="#595555"></path>
<path d="M80.2033 22.5828C81.5489 22.5828 82.6472 22.9093 83.4981 23.5624C84.3688 24.1956 85.012 25.0663 85.4275 26.1745C85.8629 27.2629 86.0806 28.4997 86.0806 29.8849V30.805H74.5635C74.5635 33.0808 75.078 34.8321 76.107 36.059C77.136 37.2661 78.6202 37.8696 80.5595 37.8696C81.5291 37.8696 82.3603 37.8004 83.0529 37.6619C83.7653 37.5035 84.5667 37.2166 85.4572 36.801V37.929C84.6855 38.2654 83.9137 38.5128 83.1419 38.6711C82.39 38.8294 81.5192 38.9086 80.5298 38.9086C78.9269 38.9086 77.5912 38.5721 76.5226 37.8993C75.454 37.2265 74.6624 36.2865 74.1479 35.0794C73.6334 33.8525 73.3762 32.4574 73.3762 30.8941C73.3762 29.3506 73.6334 27.9555 74.1479 26.7088C74.6624 25.4621 75.4243 24.4627 76.4335 23.7108C77.4428 22.9588 78.6993 22.5828 80.2033 22.5828ZM80.2033 23.6217C78.6202 23.6217 77.3339 24.1461 76.3445 25.1949C75.355 26.2437 74.7713 27.7774 74.5932 29.7958H84.8932C84.8932 28.5689 84.725 27.4904 84.3886 26.5604C84.0522 25.6303 83.5377 24.908 82.8451 24.3935C82.1525 23.879 81.2719 23.6217 80.2033 23.6217Z" fill="#595555"></path>
<path d="M100.178 34.5451C100.178 35.4554 99.9502 36.2371 99.495 36.8901C99.0399 37.5431 98.3671 38.0477 97.4766 38.4039C96.5861 38.7403 95.4878 38.9086 94.1817 38.9086C93.0934 38.9086 92.1138 38.8096 91.2431 38.6117C90.3724 38.4138 89.6501 38.1764 89.0762 37.8993V36.712C89.8282 37.0682 90.6395 37.3551 91.5103 37.5728C92.4007 37.7905 93.3011 37.8993 94.2114 37.8993C95.9133 37.8993 97.1402 37.6025 97.8921 37.0088C98.6441 36.4152 99.0201 35.6137 99.0201 34.6045C99.0201 33.9119 98.8222 33.3479 98.4264 32.9126C98.0504 32.4772 97.5161 32.1111 96.8235 31.8143C96.1309 31.5174 95.3394 31.2305 94.4489 30.9535C93.499 30.6368 92.6481 30.3301 91.8961 30.0333C91.1442 29.7167 90.5505 29.3011 90.1151 28.7866C89.6798 28.2523 89.4621 27.5102 89.4621 26.5604C89.4621 25.2939 89.9568 24.3143 90.9463 23.6217C91.9555 22.9291 93.3011 22.5828 94.9832 22.5828C95.9133 22.5828 96.784 22.6719 97.5953 22.85C98.4264 23.0281 99.1586 23.2556 99.7919 23.5327L99.3466 24.5419C98.9706 24.3638 98.5353 24.2055 98.0406 24.067C97.5656 23.9087 97.061 23.7998 96.5267 23.7405C95.9924 23.6613 95.468 23.6217 94.9535 23.6217C93.5881 23.6217 92.5195 23.8691 91.7477 24.3638C90.9957 24.8387 90.6198 25.561 90.6198 26.5307C90.6198 27.2629 90.8078 27.8268 91.1837 28.2226C91.5597 28.6184 92.0742 28.9449 92.7273 29.2022C93.4001 29.4396 94.1521 29.7068 94.9832 30.0036C95.8935 30.3004 96.7444 30.6171 97.5359 30.9535C98.3275 31.2701 98.9607 31.7054 99.4357 32.2595C99.9304 32.8136 100.178 33.5755 100.178 34.5451Z" fill="#595555"></path>
<path d="M113.889 34.5451C113.889 35.4554 113.661 36.2371 113.206 36.8901C112.751 37.5431 112.078 38.0477 111.188 38.4039C110.297 38.7403 109.199 38.9086 107.893 38.9086C106.804 38.9086 105.825 38.8096 104.954 38.6117C104.083 38.4138 103.361 38.1764 102.787 37.8993V36.712C103.539 37.0682 104.351 37.3551 105.221 37.5728C106.112 37.7905 107.012 37.8993 107.922 37.8993C109.624 37.8993 110.851 37.6025 111.603 37.0088C112.355 36.4152 112.731 35.6137 112.731 34.6045C112.731 33.9119 112.533 33.3479 112.138 32.9126C111.762 32.4772 111.227 32.1111 110.535 31.8143C109.842 31.5174 109.05 31.2305 108.16 30.9535C107.21 30.6368 106.359 30.3301 105.607 30.0333C104.855 29.7167 104.262 29.3011 103.826 28.7866C103.391 28.2523 103.173 27.5102 103.173 26.5604C103.173 25.2939 103.668 24.3143 104.657 23.6217C105.667 22.9291 107.012 22.5828 108.694 22.5828C109.624 22.5828 110.495 22.6719 111.306 22.85C112.137 23.0281 112.87 23.2556 113.503 23.5327L113.058 24.5419C112.682 24.3638 112.246 24.2055 111.752 24.067C111.277 23.9087 110.772 23.7998 110.238 23.7405C109.703 23.6613 109.179 23.6217 108.665 23.6217C107.299 23.6217 106.231 23.8691 105.459 24.3638C104.707 24.8387 104.331 25.561 104.331 26.5307C104.331 27.2629 104.519 27.8268 104.895 28.2226C105.271 28.6184 105.785 28.9449 106.438 29.2022C107.111 29.4396 107.863 29.7068 108.694 30.0036C109.605 30.3004 110.455 30.6171 111.247 30.9535C112.039 31.2701 112.672 31.7054 113.147 32.2595C113.641 32.8136 113.889 33.5755 113.889 34.5451Z" fill="#595555"></path>
<path d="M123.8 22.5828C125.146 22.5828 126.244 22.9093 127.095 23.5624C127.966 24.1956 128.609 25.0663 129.025 26.1745C129.46 27.2629 129.678 28.4997 129.678 29.8849V30.805H118.161C118.161 33.0808 118.675 34.8321 119.704 36.059C120.733 37.2661 122.217 37.8696 124.157 37.8696C125.126 37.8696 125.957 37.8004 126.65 37.6619C127.362 37.5035 128.164 37.2166 129.054 36.801V37.929C128.283 38.2654 127.511 38.5128 126.739 38.6711C125.987 38.8294 125.116 38.9086 124.127 38.9086C122.524 38.9086 121.188 38.5721 120.12 37.8993C119.051 37.2265 118.26 36.2865 117.745 35.0794C117.231 33.8525 116.973 32.4574 116.973 30.8941C116.973 29.3506 117.231 27.9555 117.745 26.7088C118.26 25.4621 119.021 24.4627 120.031 23.7108C121.04 22.9588 122.296 22.5828 123.8 22.5828ZM123.8 23.6217C122.217 23.6217 120.931 24.1461 119.942 25.1949C118.952 26.2437 118.368 27.7774 118.19 29.7958H128.49C128.49 28.5689 128.322 27.4904 127.986 26.5604C127.649 25.6303 127.135 24.908 126.442 24.3935C125.75 23.879 124.869 23.6217 123.8 23.6217Z" fill="#595555"></path>
<path d="M140.035 22.6422C140.47 22.6422 140.876 22.6719 141.252 22.7312C141.628 22.7708 141.984 22.8401 142.32 22.939L142.113 24.0076C141.756 23.9087 141.42 23.8394 141.103 23.7998C140.787 23.7405 140.411 23.7108 139.975 23.7108C139.204 23.7108 138.521 23.8592 137.927 24.156C137.334 24.4331 136.839 24.8486 136.443 25.4027C136.047 25.937 135.741 26.5801 135.523 27.3321C135.325 28.0841 135.226 28.9251 135.226 29.8552V38.6117H134.098V22.8796H135.107L135.196 25.8776H135.285C135.503 25.2642 135.82 24.72 136.235 24.2451C136.671 23.7504 137.205 23.3645 137.838 23.0874C138.491 22.7906 139.223 22.6422 140.035 22.6422Z" fill="#595555"></path>
<path d="M150.195 22.6125C151.877 22.6125 153.133 23.0577 153.965 23.9482C154.815 24.8189 155.241 26.2141 155.241 28.1336V38.6117H154.321L154.113 35.7028H154.054C153.737 36.2964 153.331 36.8406 152.837 37.3353C152.362 37.8301 151.768 38.2159 151.056 38.493C150.343 38.77 149.463 38.9086 148.414 38.9086C147.385 38.9086 146.514 38.7403 145.802 38.4039C145.089 38.0477 144.545 37.553 144.169 36.9198C143.813 36.2865 143.635 35.5346 143.635 34.6639C143.635 33.1005 144.278 31.9231 145.564 31.1316C146.87 30.3202 148.721 29.8552 151.115 29.7365L154.083 29.5584V28.371C154.083 26.6692 153.757 25.4621 153.104 24.7497C152.451 24.0175 151.471 23.6514 150.165 23.6514C149.354 23.6514 148.572 23.7504 147.82 23.9482C147.088 24.1263 146.316 24.4232 145.505 24.8387L145.149 23.8295C145.92 23.4733 146.722 23.1864 147.553 22.9687C148.404 22.7312 149.285 22.6125 150.195 22.6125ZM151.234 30.6566C149.215 30.7556 147.642 31.1217 146.514 31.7549C145.386 32.3882 144.822 33.3578 144.822 34.6639C144.822 35.6929 145.149 36.4943 145.802 37.0682C146.455 37.6223 147.365 37.8993 148.533 37.8993C150.393 37.8993 151.778 37.3749 152.688 36.3261C153.598 35.2773 154.063 33.8723 154.083 32.1111V30.5379L151.234 30.6566Z" fill="#595555"></path>
<path d="M166.654 38.9086C165.031 38.9086 163.685 38.5721 162.617 37.8993C161.548 37.2265 160.747 36.2865 160.212 35.0794C159.678 33.8525 159.411 32.4376 159.411 30.8347C159.411 29.1725 159.728 27.7279 160.361 26.501C160.994 25.2543 161.875 24.2945 163.003 23.6217C164.15 22.9291 165.506 22.5828 167.069 22.5828C167.801 22.5828 168.474 22.6521 169.088 22.7906C169.721 22.9093 170.305 23.0874 170.839 23.3249L170.572 24.3638C169.998 24.1065 169.414 23.9285 168.82 23.8295C168.227 23.7108 167.643 23.6514 167.069 23.6514C165.724 23.6514 164.566 23.9482 163.596 24.5419C162.646 25.1356 161.904 25.9766 161.37 27.065C160.856 28.1336 160.598 29.3902 160.598 30.8347C160.598 32.1606 160.806 33.3578 161.222 34.4264C161.657 35.495 162.31 36.336 163.181 36.9495C164.071 37.5629 165.219 37.8696 166.624 37.8696C167.376 37.8696 168.098 37.8004 168.791 37.6619C169.483 37.5035 170.117 37.3057 170.691 37.0682V38.1071C170.196 38.3248 169.602 38.5128 168.91 38.6711C168.237 38.8294 167.485 38.9086 166.654 38.9086Z" fill="#595555"></path>
<path d="M178.368 37.8696C178.843 37.8696 179.268 37.84 179.644 37.7806C180.02 37.7014 180.366 37.6124 180.683 37.5134V38.493C180.366 38.6117 180.01 38.7107 179.614 38.7898C179.218 38.869 178.773 38.9086 178.279 38.9086C177.368 38.9086 176.636 38.7403 176.082 38.4039C175.528 38.0477 175.112 37.5332 174.835 36.8604C174.578 36.1876 174.449 35.3565 174.449 34.367V23.8889H172.075V23.1171L174.449 22.85L174.806 19.0505H175.607V22.8796H180.594V23.8889H175.607V34.278C175.607 35.4455 175.805 36.336 176.201 36.9495C176.616 37.5629 177.339 37.8696 178.368 37.8696Z" fill="#595555"></path>
<path d="M209.858 27.9852C209.858 29.588 209.66 31.0623 209.264 32.4079C208.869 33.7338 208.275 34.8815 207.484 35.8512C206.712 36.8208 205.732 37.5728 204.545 38.1071C203.377 38.6414 202.012 38.9086 200.449 38.9086C198.885 38.9086 197.51 38.6414 196.323 38.1071C195.155 37.5728 194.176 36.8208 193.384 35.8512C192.612 34.8815 192.028 33.7239 191.633 32.3783C191.257 31.0326 191.069 29.5584 191.069 27.9555C191.069 25.8183 191.425 23.9383 192.137 22.3157C192.869 20.6732 193.948 19.3968 195.373 18.4865C196.798 17.5565 198.539 17.0914 200.597 17.0914C202.596 17.0914 204.278 17.5268 205.643 18.3975C207.009 19.2682 208.047 20.5149 208.76 22.1376C209.492 23.7602 209.858 25.7094 209.858 27.9852ZM192.256 27.9555C192.256 29.8948 192.553 31.6065 193.147 33.0907C193.74 34.5748 194.641 35.7423 195.848 36.5933C197.075 37.4244 198.618 37.84 200.478 37.84C202.338 37.84 203.872 37.4343 205.079 36.6229C206.306 35.7918 207.206 34.6342 207.78 33.15C208.354 31.6659 208.641 29.9442 208.641 27.9852C208.641 24.8783 207.949 22.4641 206.563 20.7425C205.198 19.0208 203.209 18.16 200.597 18.16C198.717 18.16 197.164 18.5756 195.937 19.4067C194.71 20.2378 193.79 21.3955 193.176 22.8796C192.563 24.344 192.256 26.036 192.256 27.9555Z" fill="#595555"></path>
<path d="M223.744 18.1897C222.319 18.1897 221.052 18.4371 219.944 18.9318C218.836 19.4067 217.896 20.0795 217.124 20.9502C216.372 21.8012 215.789 22.8302 215.373 24.0373C214.977 25.2246 214.779 26.5307 214.779 27.9555C214.779 29.9343 215.096 31.6659 215.729 33.15C216.362 34.6342 217.312 35.7918 218.579 36.6229C219.845 37.4343 221.409 37.84 223.269 37.84C224.377 37.84 225.366 37.7608 226.237 37.6025C227.127 37.4442 227.939 37.2364 228.671 36.9791V37.9884C227.978 38.2654 227.187 38.4831 226.296 38.6414C225.406 38.8195 224.377 38.9086 223.209 38.9086C221.092 38.9086 219.321 38.4534 217.896 37.5431C216.471 36.6328 215.393 35.3565 214.661 33.714C213.948 32.0715 213.592 30.1421 213.592 27.9258C213.592 26.3823 213.81 24.9575 214.245 23.6514C214.7 22.3256 215.363 21.1778 216.234 20.2082C217.124 19.2385 218.193 18.4865 219.44 17.9522C220.706 17.3982 222.141 17.1211 223.744 17.1211C224.733 17.1211 225.673 17.2201 226.564 17.4179C227.474 17.596 228.335 17.8731 229.146 18.2491L228.671 19.288C227.86 18.8724 227.038 18.5855 226.207 18.4272C225.396 18.2689 224.575 18.1897 223.744 18.1897Z" fill="#595555"></path>
<path d="M238.056 17.4179C239.718 17.4179 241.103 17.596 242.211 17.9522C243.339 18.2887 244.19 18.8724 244.764 19.7035C245.338 20.5347 245.625 21.6725 245.625 23.1171C245.625 24.1857 245.427 25.1059 245.031 25.8776C244.655 26.6494 244.111 27.2925 243.399 27.8071C242.706 28.3018 241.885 28.6778 240.935 28.935L246.753 38.6117H245.358L239.777 29.2615H234.256V38.6117H233.099V17.4179H238.056ZM237.907 18.4865H234.256V28.2226H238.738C239.886 28.2226 240.886 28.0247 241.736 27.629C242.587 27.2332 243.24 26.6593 243.696 25.9073C244.17 25.1554 244.408 24.2352 244.408 23.1468C244.408 21.9595 244.17 21.0294 243.696 20.3566C243.221 19.664 242.498 19.1791 241.529 18.9021C240.579 18.6251 239.372 18.4865 237.907 18.4865Z" fill="#595555"></path>
</g>
<defs>
<filter id="filter0_f_1_3046" x="-0.442469" y="28.581" width="19.0367" height="17.6647" filterUnits="userSpaceOnUse" color-interpolation-filters="sRGB">
<feFlood flood-opacity="0" result="BackgroundImageFix"></feFlood>
<feBlend mode="normal" in="SourceGraphic" in2="BackgroundImageFix" result="shape"></feBlend>
<feGaussianBlur stdDeviation="0.0425847" result="effect1_foregroundBlur_1_3046"></feGaussianBlur>
</filter>
<filter id="filter1_f_1_3046" x="24.0354" y="3.42307" width="17.6515" height="14.1043" filterUnits="userSpaceOnUse" color-interpolation-filters="sRGB">
<feFlood flood-opacity="0" result="BackgroundImageFix"></feFlood>
<feBlend mode="normal" in="SourceGraphic" in2="BackgroundImageFix" result="shape"></feBlend>
<feGaussianBlur stdDeviation="0.0425847" result="effect1_foregroundBlur_1_3046"></feGaussianBlur>
</filter>
<filter id="filter2_f_1_3046" x="5.72111" y="3.39127" width="19.3549" height="15.6794" filterUnits="userSpaceOnUse" color-interpolation-filters="sRGB">
<feFlood flood-opacity="0" result="BackgroundImageFix"></feFlood>
<feBlend mode="normal" in="SourceGraphic" in2="BackgroundImageFix" result="shape"></feBlend>
<feGaussianBlur stdDeviation="0.0425847" result="effect1_foregroundBlur_1_3046"></feGaussianBlur>
</filter>
<filter id="filter3_f_1_3046" x="22.4635" y="28.9826" width="26.5245" height="24.738" filterUnits="userSpaceOnUse" color-interpolation-filters="sRGB">
<feFlood flood-opacity="0" result="BackgroundImageFix"></feFlood>
<feBlend mode="normal" in="SourceGraphic" in2="BackgroundImageFix" result="shape"></feBlend>
<feGaussianBlur stdDeviation="0.0425847" result="effect1_foregroundBlur_1_3046"></feGaussianBlur>
</filter>
<filter id="filter4_f_1_3046" x="24.3622" y="23.4492" width="24.6694" height="10.4343" filterUnits="userSpaceOnUse" color-interpolation-filters="sRGB">
<feFlood flood-opacity="0" result="BackgroundImageFix"></feFlood>
<feBlend mode="normal" in="SourceGraphic" in2="BackgroundImageFix" result="shape"></feBlend>
<feGaussianBlur stdDeviation="0.0425847" result="effect1_foregroundBlur_1_3046"></feGaussianBlur>
</filter>
<filter id="filter5_f_1_3046" x="-0.447474" y="11.5099" width="15.829" height="18.2399" filterUnits="userSpaceOnUse" color-interpolation-filters="sRGB">
<feFlood flood-opacity="0" result="BackgroundImageFix"></feFlood>
<feBlend mode="normal" in="SourceGraphic" in2="BackgroundImageFix" result="shape"></feBlend>
<feGaussianBlur stdDeviation="0.0425847" result="effect1_foregroundBlur_1_3046"></feGaussianBlur>
</filter>
<filter id="filter6_f_1_3046" x="4.06028" y="4.90714" width="15.8272" height="13.7132" filterUnits="userSpaceOnUse" color-interpolation-filters="sRGB">
<feFlood flood-opacity="0" result="BackgroundImageFix"></feFlood>
<feBlend mode="normal" in="SourceGraphic" in2="BackgroundImageFix" result="shape"></feBlend>
<feGaussianBlur stdDeviation="0.299388" result="effect1_foregroundBlur_1_3046"></feGaussianBlur>
</filter>
<filter id="filter7_f_1_3046" x="6.84" y="41.0815" width="18.0549" height="12.6772" filterUnits="userSpaceOnUse" color-interpolation-filters="sRGB">
<feFlood flood-opacity="0" result="BackgroundImageFix"></feFlood>
<feBlend mode="normal" in="SourceGraphic" in2="BackgroundImageFix" result="shape"></feBlend>
<feGaussianBlur stdDeviation="0.0425847" result="effect1_foregroundBlur_1_3046"></feGaussianBlur>
</filter>
<filter id="filter8_f_1_3046" x="21.7076" y="42.6948" width="6.20452" height="11.0638" filterUnits="userSpaceOnUse" color-interpolation-filters="sRGB">
<feFlood flood-opacity="0" result="BackgroundImageFix"></feFlood>
<feBlend mode="normal" in="SourceGraphic" in2="BackgroundImageFix" result="shape"></feBlend>
<feGaussianBlur stdDeviation="0.0425847" result="effect1_foregroundBlur_1_3046"></feGaussianBlur>
</filter>
<radialGradient id="paint0_radial_1_3046" cx="0" cy="0" r="1" gradientUnits="userSpaceOnUse" gradientTransform="translate(18.2821 45.7882) rotate(-92.3395) scale(24.7323 36.3288)">
<stop offset="0.141612" stop-color="#1ABD4D"></stop>
<stop offset="0.247515" stop-color="#6EC30D"></stop>
<stop offset="0.311547" stop-color="#8AC502"></stop>
<stop offset="0.366013" stop-color="#A2C600"></stop>
<stop offset="0.445673" stop-color="#C8C903"></stop>
<stop offset="0.540305" stop-color="#EBCB03"></stop>
<stop offset="0.615636" stop-color="#F7CD07"></stop>
<stop offset="0.699345" stop-color="#FDCD04"></stop>
<stop offset="0.771242" stop-color="#FDCE05"></stop>
<stop offset="0.860566" stop-color="#FFCE0A"></stop>
</radialGradient>
<radialGradient id="paint1_radial_1_3046" cx="0" cy="0" r="1" gradientTransform="matrix(17.1454 -4.20873e-05 -2.40986e-05 22.1424 40.9218 16.9162)" gradientUnits="userSpaceOnUse">
<stop offset="0.408458" stop-color="#FB4E5A"></stop>
<stop offset="1" stop-color="#FF4540"></stop>
</radialGradient>
<radialGradient id="paint2_radial_1_3046" cx="0" cy="0" r="1" gradientUnits="userSpaceOnUse" gradientTransform="translate(31.5587 0.271246) rotate(151.02) scale(27.4604 37.2636)">
<stop offset="0.231273" stop-color="#FF4541"></stop>
<stop offset="0.311547" stop-color="#FF4540"></stop>
<stop offset="0.457516" stop-color="#FF4640"></stop>
<stop offset="0.540305" stop-color="#FF473F"></stop>
<stop offset="0.699346" stop-color="#FF5138"></stop>
<stop offset="0.771242" stop-color="#FF5B33"></stop>
<stop offset="0.860566" stop-color="#FF6C29"></stop>
<stop offset="1" stop-color="#FF8C18"></stop>
</radialGradient>
<radialGradient id="paint3_radial_1_3046" cx="0" cy="0" r="1" gradientUnits="userSpaceOnUse" gradientTransform="translate(25.1668 50.4239) rotate(-127.454) scale(71.6374 26.4432)">
<stop offset="0.131546" stop-color="#0CBA65"></stop>
<stop offset="0.209784" stop-color="#0BB86D"></stop>
<stop offset="0.297297" stop-color="#09B479"></stop>
<stop offset="0.396257" stop-color="#08AD93"></stop>
<stop offset="0.477124" stop-color="#0AA6A9"></stop>
<stop offset="0.568425" stop-color="#0D9CC6"></stop>
<stop offset="0.667385" stop-color="#1893DD"></stop>
<stop offset="0.768727" stop-color="#258BF1"></stop>
<stop offset="0.858506" stop-color="#3086FF"></stop>
</radialGradient>
<radialGradient id="paint4_radial_1_3046" cx="0" cy="0" r="1" gradientUnits="userSpaceOnUse" gradientTransform="translate(22.6809 8.16315) rotate(96.6178) scale(26.7513 36.9884)">
<stop offset="0.366013" stop-color="#FF4E3A"></stop>
<stop offset="0.457516" stop-color="#FF8A1B"></stop>
<stop offset="0.540305" stop-color="#FFA312"></stop>
<stop offset="0.615636" stop-color="#FFB60C"></stop>
<stop offset="0.771242" stop-color="#FFCD0A"></stop>
<stop offset="0.860566" stop-color="#FECF0A"></stop>
<stop offset="0.915033" stop-color="#FECF08"></stop>
<stop offset="1" stop-color="#FDCD01"></stop>
</radialGradient>
<radialGradient id="paint5_radial_1_3046" cx="0" cy="0" r="1" gradientUnits="userSpaceOnUse" gradientTransform="translate(18.3454 7.88749) rotate(132.119) scale(13.2872 37.477)">
<stop offset="0.315904" stop-color="#FF4C3C"></stop>
<stop offset="0.603818" stop-color="#FF692C"></stop>
<stop offset="0.726837" stop-color="#FF7825"></stop>
<stop offset="0.884534" stop-color="#FF8D1B"></stop>
<stop offset="1" stop-color="#FF9F13"></stop>
</radialGradient>
<radialGradient id="paint6_radial_1_3046" cx="0" cy="0" r="1" gradientUnits="userSpaceOnUse" gradientTransform="translate(31.5587 56.7278) rotate(-151.02) scale(27.4604 37.2636)">
<stop offset="0.231273" stop-color="#0FBC5F"></stop>
<stop offset="0.311547" stop-color="#0FBC5F"></stop>
<stop offset="0.366013" stop-color="#0FBC5E"></stop>
<stop offset="0.457516" stop-color="#0FBC5D"></stop>
<stop offset="0.540305" stop-color="#12BC58"></stop>
<stop offset="0.699346" stop-color="#28BF3C"></stop>
<stop offset="0.771242" stop-color="#38C02B"></stop>
<stop offset="0.860566" stop-color="#52C218"></stop>
<stop offset="0.915033" stop-color="#67C30F"></stop>
<stop offset="1" stop-color="#86C504"></stop>
</radialGradient>
<linearGradient id="paint7_linear_1_3046" x1="21.7927" y1="48.2267" x2="27.8269" y2="48.2267" gradientUnits="userSpaceOnUse">
<stop stop-color="#0FBC5C"></stop>
<stop offset="1" stop-color="#0CBA65"></stop>
</linearGradient>
<clipPath id="clip0_1_3046">
<rect width="247" height="56" fill="white"></rect>
</clipPath>
</defs>
</svg>