<svg class="tool" width="177" height="56" viewBox="0 0 177 56" fill="none" xmlns="http://www.w3.org/2000/svg">
<g clip-path="url(#clip0_1_3032)">
<path d="M53.4121 29.1313C57.6553 31.6278 60.507 36.2385 60.5162 41.5186C60.5298 49.4662 54.0985 55.9203 46.1509 55.934C38.203 55.9479 31.749 49.5162 31.7351 41.5686C31.7259 36.2888 34.5613 31.6681 38.7959 29.1568L42.931 36.1446C43.0347 36.3198 42.9759 36.545 42.8074 36.6596C41.2438 37.7241 40.2183 39.5198 40.222 41.5539C40.2275 44.8143 42.8754 47.4531 46.1358 47.4472C49.3966 47.4417 52.035 44.7937 52.0294 41.5333C52.0258 39.4993 50.994 37.7072 49.4267 36.6481C49.2579 36.5341 49.1983 36.3091 49.3013 36.1334L53.4121 29.1313Z" fill="#128DFF"></path>
<path d="M21.6503 29.0475C19.5724 27.8829 17.176 27.2189 14.6246 27.2189C6.67693 27.2189 0.23407 33.6617 0.23407 41.6096C0.23407 49.5571 6.67693 55.9999 14.6246 55.9999C22.6114 55.9999 29.2113 49.2195 29.0105 41.2403H20.9095C20.6968 41.2403 20.5293 41.4202 20.5279 41.6331C20.5074 44.813 17.8542 47.5131 14.6246 47.5131C11.364 47.5131 8.72081 44.87 8.72081 41.6096C8.72081 38.3488 11.364 35.7056 14.6246 35.7056C15.4785 35.7056 16.2901 35.8869 17.0229 36.2131C17.202 36.2928 17.4157 36.2324 17.5152 36.0635L21.6503 29.0475Z" fill="#8BDA67"></path>
<path d="M22.814 26.79C18.5749 24.2862 15.7314 19.6704 15.7314 14.3905C15.7314 6.44286 22.1743 0 30.122 0C38.0698 0 44.5126 6.44286 44.5126 14.3905C44.5126 19.6704 41.669 24.2862 37.4298 26.79L33.3073 19.7951C33.2039 19.6196 33.263 19.3945 33.4315 19.2802C34.9971 18.2185 36.0258 16.4247 36.0258 14.3905C36.0258 11.13 33.3826 8.48675 30.122 8.48675C26.8614 8.48675 24.2182 11.13 24.2182 14.3905C24.2182 16.4247 25.2469 18.2185 26.8124 19.2802C26.981 19.3945 27.0401 19.6196 26.9367 19.7951L22.814 26.79Z" fill="#FF2A44"></path>
<path d="M94.0842 20.565L94.3362 22.8649C95.0502 22.0667 95.9953 21.4158 97.1714 20.9114C98.3685 20.4078 99.5341 20.1553 100.668 20.1553C104.175 20.1553 105.929 22.9068 105.929 28.4093C105.929 31.3281 105.446 33.3867 104.48 34.5833C103.535 35.7805 102.044 36.3795 100.007 36.3795C97.9274 36.3795 96.1423 35.8751 94.6512 34.8671C94.7352 35.9384 94.7668 37.0091 94.7457 38.0804V42.1437H90.934V20.565H94.0842ZM94.7457 25.2273V32.5986C96.7198 33.0396 98.0955 33.2601 98.8725 33.2601C100.049 33.2601 100.857 32.9457 101.298 32.3154C101.76 31.6645 101.991 30.352 101.991 28.3773C101.991 26.4452 101.781 25.1221 101.361 24.4085C100.962 23.673 100.259 23.3059 99.2505 23.3059C98.5575 23.3059 97.8749 23.4631 97.2029 23.7783C96.5519 24.0721 95.7328 24.5551 94.7457 25.2273Z" fill="black"></path>
<path d="M127.83 20.5652L128.082 22.8337C130.476 21.0276 132.702 20.1241 134.76 20.1241C136.125 20.1241 137.175 20.4919 137.91 21.2268C138.646 21.9616 139.013 23.0223 139.013 24.4087V36.0012H135.17V25.574C135.17 24.7132 135.054 24.1356 134.823 23.8417C134.592 23.5266 134.162 23.3687 133.532 23.3687C132.818 23.3687 132.083 23.516 131.327 23.8098C130.592 24.1042 129.636 24.5873 128.46 25.2588V36.0012H124.617V20.5652H127.83Z" fill="black"></path>
<path d="M118.342 29.8898H112.041C112.188 31.2343 112.566 32.1371 113.175 32.5988C113.785 33.0398 114.782 33.2603 116.168 33.2603C117.743 33.2603 119.591 33.1344 121.713 32.8826L122.059 35.3397C120.61 36.0325 118.489 36.3797 115.696 36.3797C112.902 36.3797 110.918 35.76 109.742 34.5208C108.566 33.2816 107.978 31.1917 107.978 28.2516C107.978 25.2488 108.555 23.1482 109.71 21.9516C110.865 20.7331 112.776 20.1241 115.444 20.1241C117.901 20.1241 119.686 20.5758 120.799 21.4786C121.912 22.3607 122.469 23.6945 122.469 25.4794C122.469 28.4195 121.093 29.8898 118.342 29.8898ZM111.978 27.2122H117.271C118.195 27.2122 118.657 26.614 118.657 25.4167C118.657 24.5766 118.436 23.9883 117.995 23.6525C117.554 23.3167 116.756 23.1482 115.601 23.1482C114.257 23.1482 113.322 23.432 112.797 23.999C112.293 24.5453 112.02 25.6159 111.978 27.2122Z" fill="black"></path>
<path d="M176.766 14.2646L170.623 34.8987C170.413 35.6335 169.93 36.0013 169.173 36.0013H165.457C165.121 36.0013 164.816 35.9067 164.543 35.7181C164.291 35.5076 164.123 35.2351 164.039 34.8987L157.865 14.2646H161.928L166.37 30.5828C166.433 30.8353 166.528 31.2443 166.654 31.8113C166.78 32.3576 166.874 32.7567 166.937 33.0085H167.724C167.85 32.3363 168.05 31.5282 168.323 30.5828L172.702 14.2646H176.766Z" fill="black"></path>
<path d="M156.597 32.5994L156.943 35.5608C155.2 36.1071 152.974 36.3803 150.265 36.3803C147.01 36.3803 144.72 35.5401 143.397 33.8599C142.074 32.1796 141.413 29.2708 141.413 25.1335C141.413 20.9962 142.074 18.0874 143.397 16.4078C144.72 14.7276 147.01 13.8875 150.265 13.8875C152.68 13.8875 154.759 14.1186 156.502 14.5803L156.124 17.5731C154.297 17.4258 152.344 17.3525 150.265 17.3525C148.459 17.3525 147.219 17.9095 146.548 19.0221C145.896 20.1141 145.571 22.1514 145.571 25.1335C145.571 28.1156 145.896 30.1636 146.548 31.2769C147.219 32.3689 148.459 32.9145 150.265 32.9145C152.932 32.9145 155.042 32.8099 156.597 32.5994Z" fill="black"></path>
<path d="M79.4628 13.8562C82.8231 13.8562 85.1542 14.6643 86.4563 16.282C87.7794 17.8989 88.441 20.8497 88.441 25.1336C88.441 29.4181 87.7794 32.3689 86.4563 33.9859C85.1542 35.6028 82.8231 36.4116 79.4628 36.4116C76.1236 36.4116 73.7925 35.6028 72.4694 33.9859C71.1673 32.3689 70.5162 29.4181 70.5162 25.1336C70.5162 20.8497 71.1673 17.8989 72.4694 16.282C73.7925 14.6643 76.1236 13.8562 79.4628 13.8562ZM79.4628 17.2267C77.6357 17.2267 76.3756 17.7937 75.6826 18.9276C75.0105 20.0409 74.6745 22.1095 74.6745 25.1336C74.6745 28.1576 75.0105 30.237 75.6826 31.3709C76.3756 32.4842 77.6357 33.0405 79.4628 33.0405C81.311 33.0405 82.5711 32.4842 83.2431 31.3709C83.9361 30.237 84.2826 28.1576 84.2826 25.1336C84.2826 22.1095 83.9361 20.0409 83.2431 18.9276C82.5711 17.7937 81.311 17.2267 79.4628 17.2267Z" fill="black"></path>
</g>
<defs>
<clipPath id="clip0_1_3032">
<rect width="177" height="56" fill="white"></rect>
</clipPath>
</defs>
</svg>