<svg class="tool" width="62" height="56" viewBox="0 0 62 56" fill="none" xmlns="http://www.w3.org/2000/svg">
<path d="M18.7729 23.4099C18.7729 24.0995 18.8517 24.6511 18.9699 25.0649C19.1276 25.4786 19.3049 25.9121 19.561 26.4046C19.6595 26.5622 19.6989 26.7001 19.6989 26.838C19.6989 27.0154 19.5807 27.2124 19.3443 27.3897L18.1622 28.1778C17.9848 28.296 17.8272 28.3551 17.6696 28.3551C17.4923 28.3551 17.2953 28.2566 17.118 28.099C16.8618 27.8231 16.6254 27.5276 16.4481 27.2321C16.2708 26.9168 16.0738 26.5622 15.8767 26.1288C14.4188 27.8428 12.6062 28.69 10.3996 28.69C8.8432 28.69 7.58229 28.2369 6.676 27.3503C5.76972 26.4637 5.29688 25.2619 5.29688 23.7646C5.29688 22.1884 5.84853 20.8881 6.99123 19.9227C8.13394 18.9573 9.63127 18.4648 11.5621 18.4648C12.1925 18.4648 12.8427 18.5239 13.5322 18.6224C14.2218 18.7209 14.9311 18.8588 15.6797 19.0361V17.6767C15.6797 16.2582 15.3842 15.2731 14.8129 14.7017C14.2218 14.1304 13.217 13.8545 11.7788 13.8545C11.1286 13.8545 10.4588 13.9334 9.76919 14.091C9.07962 14.2683 8.40976 14.4653 7.7596 14.7214C7.46407 14.8593 7.24735 14.9184 7.10944 14.9578C6.97153 14.9973 6.89272 15.017 6.81391 15.017C6.55779 15.017 6.41988 14.8396 6.41988 14.4456V13.5393C6.41988 13.2438 6.45928 13.0271 6.55779 12.8892C6.6563 12.7512 6.81392 12.633 7.07004 12.4951C7.7202 12.1405 8.48857 11.8647 9.41455 11.6479C10.3208 11.4115 11.2862 11.2933 12.3107 11.2933C14.537 11.2933 16.1526 11.8056 17.1968 12.8103C18.2213 13.8151 18.7335 15.3519 18.7335 17.4009V23.4296H18.7729V23.4099ZM11.2074 26.247C11.8182 26.247 12.4486 26.1288 13.1185 25.9121C13.7884 25.6953 14.3794 25.2816 14.8917 24.7102C15.1872 24.3556 15.4039 23.9616 15.5221 23.5084C15.6403 23.0553 15.6994 22.5233 15.6994 21.8929V21.1048C15.1675 20.9669 14.5764 20.8684 13.9854 20.7896C13.3943 20.7108 12.8033 20.6714 12.2319 20.6714C10.9907 20.6714 10.0647 20.9078 9.45396 21.42C8.8432 21.9323 8.54767 22.6219 8.54767 23.5675C8.54767 24.4344 8.76439 25.1043 9.23724 25.5377C9.71008 26.0303 10.3602 26.247 11.2074 26.247ZM26.1611 28.2566C25.8262 28.2566 25.6094 28.1975 25.4518 28.0793C25.2942 27.961 25.176 27.7049 25.0578 27.3503L20.7037 12.9483C20.5855 12.5739 20.5264 12.3375 20.5264 12.1996C20.5264 11.9041 20.684 11.7267 20.9795 11.7267H22.8118C23.1664 11.7267 23.4028 11.7859 23.5408 11.9041C23.6984 12.0223 23.7969 12.2784 23.9151 12.633L27.028 24.9861L29.9241 12.6527C30.0227 12.2784 30.1212 12.042 30.2788 11.9238C30.4364 11.8056 30.6925 11.7465 31.0274 11.7465H32.5248C32.8794 11.7465 33.1158 11.8056 33.2735 11.9238C33.4311 12.042 33.5493 12.2981 33.6281 12.6527L36.5637 25.124L39.7948 12.6527C39.913 12.2784 40.0312 12.042 40.1691 11.9238C40.3267 11.8056 40.5631 11.7465 40.8981 11.7465H42.6318C42.9273 11.7465 43.1047 11.9041 43.1047 12.2193C43.1047 12.3178 43.085 12.3966 43.0653 12.5148C43.0456 12.633 43.0061 12.7709 42.9273 12.9877L38.4353 27.3897C38.3171 27.764 38.1989 28.0004 38.0413 28.1187C37.8837 28.2369 37.6473 28.296 37.332 28.296H35.7362C35.3815 28.296 35.1451 28.2369 34.9875 28.1187C34.8299 27.9807 34.7117 27.7443 34.6329 27.37L31.7367 15.3519L28.8602 27.3503C28.7617 27.7246 28.6632 27.961 28.5056 28.099C28.348 28.2369 28.0919 28.2763 27.7569 28.2763H26.1611V28.2566ZM50.0988 28.7688C49.1334 28.7688 48.168 28.6506 47.2223 28.4339C46.2964 28.2172 45.5674 27.961 45.0748 27.6852C44.7793 27.5079 44.5626 27.3306 44.5035 27.173C44.4247 26.9957 44.3853 26.8183 44.3853 26.6607V25.715C44.3853 25.321 44.5429 25.1437 44.8187 25.1437C44.9369 25.1437 45.0354 25.1634 45.1536 25.2028C45.2719 25.2422 45.4295 25.321 45.6265 25.3801C46.257 25.6559 46.9465 25.8924 47.6755 26.0303C48.4242 26.1879 49.1531 26.247 49.9018 26.247C51.0839 26.247 51.9902 26.05 52.6206 25.6362C53.2511 25.2225 53.586 24.6314 53.586 23.8631C53.586 23.3508 53.4087 22.9174 53.0738 22.5627C52.7388 22.2081 52.1084 21.8929 51.2021 21.5974L48.503 20.7305C47.1435 20.297 46.1387 19.6666 45.528 18.8391C44.9172 18.0116 44.602 17.1053 44.602 16.14C44.602 15.3519 44.7793 14.6623 45.1142 14.0713C45.4492 13.4802 45.9023 12.9483 46.454 12.5345C47.0056 12.1011 47.6558 11.7859 48.3847 11.5691C49.1137 11.3524 49.9018 11.2539 50.7293 11.2539C51.143 11.2539 51.5764 11.2736 51.9705 11.3327C52.4039 11.3918 52.798 11.4706 53.1723 11.5297C53.5466 11.6282 53.9013 11.707 54.2362 11.8253C54.5711 11.9435 54.8272 12.042 55.0243 12.1602C55.2804 12.3178 55.4774 12.4557 55.5759 12.633C55.6941 12.7906 55.7532 12.9877 55.7532 13.2438V14.1107C55.7532 14.5047 55.5956 14.7017 55.3198 14.7017C55.1622 14.7017 54.9258 14.6229 54.6105 14.485C53.5466 13.9925 52.3645 13.756 51.0248 13.756C49.9609 13.756 49.1334 13.9334 48.5424 14.2683C47.971 14.6229 47.6755 15.1549 47.6755 15.9232C47.6755 16.4355 47.8528 16.8886 48.2271 17.2433C48.6015 17.5979 49.291 17.9525 50.2761 18.2678L52.9162 19.1149C54.2559 19.5484 55.2213 20.1394 55.8123 20.9078C56.4034 21.6762 56.6595 22.543 56.6595 23.5084C56.6595 24.3162 56.4822 25.0452 56.167 25.6756C55.832 26.3061 55.3789 26.8774 54.8075 27.3109C54.2362 27.7837 53.5466 28.1187 52.7388 28.3551C51.9311 28.6309 51.0642 28.7688 50.0988 28.7688Z" fill="#252F3E"></path>
<path d="M53.6258 37.8108C47.4985 42.3422 38.5933 44.7458 30.9293 44.7458C20.1918 44.7458 10.5379 40.7857 3.22854 34.1856C2.65719 33.6734 3.16944 32.9641 3.859 33.3581C11.7594 37.9487 21.4921 40.7069 31.5795 40.7069C38.3766 40.7069 45.8436 39.2884 52.7195 36.3922C53.7637 35.9391 54.6306 37.0621 53.6258 37.8108ZM56.187 34.9146C55.3989 33.9098 51.0054 34.422 49.0156 34.6782C48.4245 34.757 48.326 34.225 48.8579 33.831C52.3649 31.3683 58.1178 32.0775 58.7877 32.905C59.4575 33.7522 58.6103 39.5051 55.3201 42.2634C54.8079 42.6968 54.3351 42.4604 54.5518 41.9087C55.3004 40.0568 56.9554 35.8997 56.187 34.9146Z" fill="#FF9900"></path>
</svg>