<svg class="tool" width="179" height="56" viewBox="0 0 179 56" fill="none" xmlns="http://www.w3.org/2000/svg">
<g clip-path="url(#clip0_1_2117)">
<path d="M50.2776 24.6541C49.0243 23.8064 45.7321 23.4444 43.3389 24.0928C43.2104 21.6971 41.98 19.678 39.7312 17.9162L38.899 17.3549L38.3442 18.1973C37.2536 19.8605 36.7938 22.0774 36.9565 24.0928C37.0849 25.3345 37.5143 26.7297 38.3442 27.7423C35.229 29.5583 32.357 29.1459 19.6394 29.1459H0.00434748C-0.0526516 32.0318 0.408661 37.5822 3.92133 42.1008C4.30968 42.6002 4.73451 43.0829 5.19659 43.548C8.05262 46.4216 12.3678 48.5294 18.8201 48.5347C28.6643 48.5439 37.0978 43.1967 42.2285 30.2693C43.9165 30.2968 48.373 30.5732 50.5542 26.3387C50.6074 26.2677 51.109 25.2161 51.109 25.2161L50.2776 24.6548V24.6541ZM12.8185 22.0156H7.29719V27.5636H12.8185V22.0156ZM19.951 22.0156H14.4297V27.5636H19.951V22.0156ZM27.0842 22.0156H21.5629V27.5636H27.0842V22.0156ZM34.2175 22.0156H28.6962V27.5636H34.2175V22.0156ZM5.68526 22.0156H0.163945V27.5636H5.68526V22.0156ZM12.8185 15.0082H7.29719V20.5562H12.8185V15.0082ZM19.951 15.0082H14.4297V20.5562H19.951V15.0082ZM27.0842 15.0082H21.5629V20.5562H27.0842V15.0082ZM27.0842 8H21.5629V13.548H27.0842V8Z" fill="#1D63ED"></path>
<path d="M177.656 40.0395C177.656 41.484 176.522 42.618 175.047 42.618C173.572 42.618 172.422 41.484 172.422 40.0395C172.422 38.595 173.586 37.4922 175.047 37.4922C176.507 37.4922 177.656 38.6263 177.656 40.0395ZM173.075 40.0395C173.075 41.1736 173.914 42.0743 175.063 42.0743C176.212 42.0743 177.005 41.1736 177.005 40.0555C177.005 38.9374 176.181 38.0047 175.048 38.0047C173.916 38.0047 173.075 38.9214 173.075 40.0395H173.075ZM174.644 41.3757H174.054V38.8284C174.286 38.7819 174.613 38.7506 175.032 38.7506C175.514 38.7506 175.73 38.8284 175.917 38.9374C176.057 39.0457 176.166 39.2478 176.166 39.4965C176.166 39.7764 175.948 39.9937 175.639 40.0868V40.118C175.886 40.2103 176.026 40.3972 176.104 40.7388C176.181 41.127 176.228 41.2826 176.291 41.3757H175.654C175.576 41.2826 175.529 41.05 175.452 40.7541C175.405 40.475 175.25 40.3506 174.923 40.3506H174.644V41.3764V41.3757ZM174.659 39.9312H174.938C175.264 39.9312 175.528 39.8229 175.528 39.559C175.528 39.3256 175.358 39.1693 174.984 39.1693C174.83 39.1693 174.721 39.1853 174.659 39.2021V39.9312Z" fill="#1D63ED"></path>
<path d="M77.5754 14.2572C77.21 13.9003 76.7715 13.7188 76.246 13.7188C75.7206 13.7188 75.2691 13.9003 74.9175 14.2572C74.5651 14.6141 74.3928 15.0717 74.3928 15.617V24.7232C72.5853 23.2291 70.4994 22.4756 68.1267 22.4756C65.369 22.4756 63.0108 23.4717 61.0569 25.4706C59.1029 27.4627 58.1328 29.8727 58.1328 32.6991C58.1328 35.5256 59.1098 37.9287 61.0569 39.9276C63.0108 41.9197 65.3629 42.9226 68.1267 42.9226C70.8906 42.9226 73.2167 41.9266 75.1966 39.9276C77.1506 37.9554 78.1207 35.5461 78.1207 32.6991V15.617C78.1207 15.0717 77.9414 14.6141 77.5754 14.2572ZM73.9009 35.1625V35.1763C73.5752 35.9504 73.1298 36.6299 72.5654 37.2087C72.0011 37.7945 71.336 38.2521 70.5787 38.5953C69.8145 38.9385 69.0038 39.107 68.1336 39.107C67.2634 39.107 66.4329 38.9385 65.6687 38.5953C64.9045 38.2521 64.2463 37.7945 63.6888 37.2156C63.1305 36.6368 62.6859 35.9572 62.3602 35.1831C62.0346 34.4022 61.8683 33.5747 61.8683 32.6991C61.8683 31.8236 62.0346 30.9961 62.3602 30.2151C62.6859 29.4342 63.1313 28.7615 63.6888 28.1826C64.2471 27.6038 64.9114 27.1462 65.6687 26.803C66.4329 26.4598 67.2504 26.2912 68.1336 26.2912C69.0168 26.2912 69.8145 26.4598 70.5787 26.803C71.3429 27.1462 72.0011 27.6038 72.5654 28.1895C73.1298 28.7752 73.5752 29.4548 73.9009 30.222C74.2265 30.9961 74.3928 31.8175 74.3928 32.6923C74.3928 33.567 74.2265 34.3953 73.9009 35.1625Z" fill="#1D63ED"></path>
<path d="M160.137 28.7779C159.652 27.566 158.913 26.4693 157.944 25.4862L157.931 25.4794C155.957 23.4873 153.598 22.4844 150.861 22.4844C148.125 22.4844 145.744 23.4804 143.79 25.4794C141.837 27.4714 140.867 29.8814 140.867 32.7079C140.867 35.5343 141.844 37.9374 143.79 39.9364C145.744 41.9285 148.097 42.9314 150.861 42.9314C153.372 42.9314 155.545 42.1039 157.393 40.4481C157.75 40.0714 157.931 39.6138 157.931 39.0814C157.931 38.5491 157.759 38.0785 157.406 37.7216C157.054 37.3647 156.609 37.1832 156.077 37.1832C155.613 37.1969 155.2 37.3517 154.848 37.6614C154.29 38.1456 153.685 38.5163 153.028 38.7588C152.37 39.0014 151.652 39.1226 150.869 39.1226C150.177 39.1226 149.513 39.0151 148.882 38.7931C148.25 38.5712 147.659 38.2677 147.134 37.8711C146.602 37.4737 146.144 37.0032 145.752 36.4441C145.36 35.892 145.061 35.2796 144.862 34.6069H158.996C159.52 34.6069 159.958 34.4254 160.324 34.0685C160.69 33.7115 160.87 33.2539 160.87 32.7086C160.87 31.2954 160.622 29.9829 160.139 28.7779H160.137ZM144.848 30.8104C145.04 30.1438 145.333 29.5314 145.725 28.9731C146.117 28.4209 146.582 27.9435 147.113 27.5462C147.652 27.1488 148.236 26.846 148.88 26.6241C149.524 26.4022 150.182 26.2946 150.861 26.2946C151.541 26.2946 152.197 26.4022 152.833 26.6241C153.472 26.846 154.057 27.1488 154.581 27.5462C155.114 27.9435 155.578 28.4141 155.97 28.9731C156.368 29.5253 156.669 30.1377 156.875 30.8104H144.847H144.848Z" fill="#1D63ED"></path>
<path d="M177.512 23.7643C177.18 23.4348 176.761 23.1786 176.256 22.9902C175.751 22.8018 175.2 22.6737 174.595 22.5997C173.997 22.5257 173.432 22.4922 172.908 22.4922C171.717 22.4922 170.602 22.6874 169.552 23.0779C168.502 23.4684 167.532 24.0267 166.641 24.7535V24.3905C166.641 23.8657 166.462 23.4211 166.096 23.0512C165.731 22.6813 165.299 22.4929 164.788 22.4929C164.277 22.4929 163.824 22.6813 163.459 23.0512C163.093 23.4211 162.914 23.8726 162.914 24.3905V41.0356C162.914 41.5603 163.093 42.0049 163.459 42.3748C163.824 42.7447 164.262 42.9331 164.788 42.9331C165.313 42.9331 165.737 42.7447 166.096 42.3748C166.462 42.0049 166.641 41.5534 166.641 41.0356V32.7096C166.641 31.8211 166.807 30.9867 167.133 30.2058C167.459 29.4248 167.904 28.7521 168.469 28.1733C169.034 27.5944 169.699 27.1368 170.455 26.8066C171.219 26.4702 172.031 26.3017 172.902 26.3017C173.773 26.3017 174.595 26.4565 175.347 26.7593C175.645 26.8943 175.905 26.9614 176.131 26.9614C176.39 26.9614 176.636 26.9141 176.862 26.8134C177.087 26.7128 177.287 26.5778 177.453 26.4031C177.62 26.2285 177.752 26.0264 177.852 25.7907C177.951 25.5619 178.005 25.3125 178.005 25.0433C178.005 24.5186 177.839 24.0945 177.507 23.7643H177.513H177.512Z" fill="#1D63ED"></path>
<path d="M99.4832 28.784C98.9982 27.579 98.2736 26.4754 97.2974 25.4793C95.3244 23.4873 92.9655 22.4844 90.2275 22.4844C87.4896 22.4844 85.1116 23.4804 83.1577 25.4793C81.2037 27.4714 80.2344 29.8814 80.2344 32.7079C80.2344 35.5343 81.2114 37.9374 83.1577 39.9364C85.1116 41.9284 87.4637 42.9314 90.2275 42.9314C92.9914 42.9314 95.3175 41.9353 97.2974 39.9364C99.2514 37.9641 100.221 35.5549 100.221 32.7079C100.208 31.2946 99.9622 29.989 99.484 28.784H99.4832ZM96.0017 35.1644V35.1781C95.676 35.9522 95.2306 36.6318 94.6662 37.2106C94.1019 37.7963 93.4368 38.2539 92.6795 38.5971C91.9222 38.9403 91.1046 39.1089 90.2344 39.1089C89.3642 39.1089 88.5337 38.9403 87.7695 38.5971C87.0053 38.2539 86.3471 37.7963 85.7896 37.2175C85.2313 36.6386 84.7867 35.9591 84.4611 35.185C84.1354 34.404 83.9691 33.5765 83.9691 32.701C83.9691 31.8255 84.1354 30.998 84.4611 30.217C84.7867 29.436 85.2321 28.7634 85.7896 28.1845C86.3479 27.6057 87.0122 27.1481 87.7695 26.8049C88.5337 26.4617 89.3512 26.2931 90.2344 26.2931C91.1176 26.2931 91.9153 26.4617 92.6795 26.8049C93.4437 27.1481 94.1019 27.6057 94.6662 28.1914C95.2306 28.7771 95.676 29.4566 96.0017 30.2239C96.3273 30.998 96.4936 31.8194 96.4936 32.6941C96.4936 33.5689 96.3273 34.3972 96.0017 35.1644Z" fill="#1D63ED"></path>
<path d="M139.456 24.3783C139.456 24.1228 139.402 23.8803 139.303 23.6515C139.203 23.4227 139.071 23.2145 138.904 23.0391C138.738 22.8644 138.539 22.7226 138.313 22.6287C138.087 22.5349 137.842 22.4808 137.583 22.4808C137.21 22.4808 136.878 22.5754 136.586 22.7706L125.915 29.8718V15.629C125.915 15.0906 125.735 14.6399 125.37 14.2692C125.005 13.8993 124.573 13.7109 124.061 13.7109C123.55 13.7109 123.098 13.8993 122.732 14.2692C122.367 14.6391 122.188 15.0906 122.188 15.629V41.0036C122.188 41.5283 122.367 41.9798 122.732 42.3565C123.097 42.7333 123.536 42.9217 124.061 42.9217C124.587 42.9217 125.012 42.7333 125.37 42.3565C125.735 41.9798 125.915 41.5283 125.915 41.0036V34.4142L128.094 32.9537L136.34 42.4236C136.673 42.7531 137.091 42.9148 137.589 42.9148C137.849 42.9148 138.094 42.8675 138.32 42.7668C138.546 42.6723 138.746 42.5312 138.911 42.3565C139.077 42.1819 139.21 41.9798 139.31 41.7441C139.41 41.5153 139.463 41.2659 139.463 41.0173C139.463 40.5193 139.29 40.0746 138.944 39.6849L131.269 30.848L138.744 25.8807C139.222 25.5513 139.455 25.0464 139.455 24.3661V24.3798L139.456 24.3783Z" fill="#1D63ED"></path>
<path d="M107.86 28.1748C108.431 27.5959 109.096 27.1383 109.861 26.8081C110.625 26.4718 111.435 26.3032 112.306 26.3032C113.09 26.3032 113.814 26.4382 114.485 26.7067C115.15 26.9759 115.788 27.3732 116.392 27.8911C116.75 28.1801 117.156 28.3281 117.608 28.3281C118.146 28.3281 118.585 28.1466 118.937 27.7828C119.289 27.419 119.462 26.9614 119.462 26.4161C119.462 25.8708 119.249 25.3659 118.817 24.9762C116.983 23.3204 114.811 22.4922 112.306 22.4922C109.548 22.4922 107.19 23.4882 105.236 25.4872C103.282 27.4792 102.312 29.8892 102.312 32.7157C102.312 35.5421 103.289 37.9452 105.236 39.9442C107.19 41.9363 109.542 42.9392 112.306 42.9392C114.804 42.9392 116.977 42.1117 118.817 40.4552C119.209 40.0517 119.409 39.5873 119.409 39.0488C119.409 38.5104 119.236 38.0459 118.884 37.689C118.532 37.3321 118.087 37.1506 117.556 37.1506C117.104 37.1643 116.712 37.2985 116.38 37.554C115.782 38.0787 115.157 38.4692 114.486 38.7316C113.822 38.9939 113.097 39.122 112.306 39.122C111.436 39.122 110.626 38.9535 109.861 38.6172C109.097 38.2808 108.433 37.8232 107.861 37.2512C107.29 36.6792 106.837 35.9928 106.512 35.2187C106.186 34.4378 106.02 33.6034 106.02 32.7149C106.02 31.8264 106.186 30.9921 106.512 30.2111C106.837 29.4301 107.289 28.7575 107.861 28.1786V28.1717L107.86 28.1748Z" fill="#1D63ED"></path>
</g>
<defs>
<clipPath id="clip0_1_2117">
<rect width="179" height="56" fill="white"></rect>
</clipPath>
</defs>
</svg>