<svg class="tool" width="165" height="56" viewBox="0 0 165 56" fill="none" xmlns="http://www.w3.org/2000/svg">
<g clip-path="url(#clip0_1_728)">
<path d="M46.791 20.031H50.8514V23.8525H51.1381C51.7113 22.4194 52.4438 21.3367 53.3355 20.6042C54.2272 19.8717 55.3418 19.5055 56.6793 19.5055C56.8386 19.5055 57.0774 19.5373 57.3959 19.601C57.7462 19.6329 58.1124 19.7284 58.4946 19.8877C58.9086 20.015 59.3067 20.2061 59.6888 20.4609C60.1028 20.7157 60.4532 21.0341 60.7398 21.4163L59.1156 24.378C58.829 23.964 58.3672 23.5182 57.7303 23.0405C57.1252 22.5628 56.4564 22.3239 55.724 22.3239C55.1826 22.3239 54.6252 22.4513 54.052 22.7061C53.4788 22.9608 52.9533 23.3748 52.4756 23.9481C51.9979 24.5213 51.5998 25.2697 51.2814 26.1933C50.9948 27.085 50.8514 28.1837 50.8514 29.4894V43.9158H46.791V20.031Z" fill="black"></path>
<path d="M73.8208 19.5055C76.1456 19.5055 77.945 19.8399 79.2188 20.5087C80.4927 21.1456 81.4162 21.9895 81.9895 23.0405C82.5945 24.0914 82.9449 25.3016 83.0404 26.671C83.1359 28.0403 83.1837 29.4416 83.1837 30.8747V43.9158H79.3144V41.5751C78.3908 42.4668 77.2125 43.1834 75.7794 43.7247C74.3463 44.2343 72.9132 44.4891 71.4801 44.4891C70.1107 44.4891 68.9006 44.2502 67.8496 43.7725C66.7987 43.2948 65.9229 42.6738 65.2223 41.9095C64.5217 41.1452 63.9962 40.2853 63.6459 39.3299C63.2956 38.3745 63.1204 37.4032 63.1204 36.416C63.1204 35.3969 63.3115 34.3778 63.6937 33.3587C64.0758 32.3396 64.649 31.432 65.4134 30.6358C66.1777 29.8078 67.1172 29.1391 68.2318 28.6295C69.3464 28.12 70.6203 27.8652 72.0534 27.8652C73.4864 27.8652 74.8399 28.1518 76.1138 28.725C77.4195 29.2664 78.4863 30.0467 79.3144 31.0658V29.0117C79.3144 26.4003 78.9163 24.4576 78.1201 23.1838C77.3558 21.9099 75.9386 21.273 73.8686 21.273C72.9769 21.273 72.1967 21.3844 71.5279 21.6074C70.8591 21.8303 70.254 22.1488 69.7126 22.5628C69.2031 22.9449 68.7254 23.4385 68.2795 24.0436C67.8337 24.6169 67.3878 25.2697 66.942 26.0022L64.458 23.5182C64.9038 23.0405 65.3656 22.5628 65.8433 22.0851C66.3528 21.6074 66.9579 21.1774 67.6585 20.7953C68.391 20.4131 69.2509 20.1106 70.2381 19.8877C71.2253 19.6329 72.4196 19.5055 73.8208 19.5055ZM79.3144 34.4574C79.1551 34.0753 78.9163 33.6294 78.5978 33.1199C78.3112 32.6103 77.929 32.1167 77.4513 31.639C76.9736 31.1613 76.4004 30.7632 75.7316 30.4448C75.0628 30.0944 74.2667 29.9193 73.3431 29.9193C72.4196 29.9193 71.5757 30.1104 70.8113 30.4925C70.047 30.8428 69.3942 31.3205 68.8528 31.9256C68.3432 32.4989 67.9452 33.1836 67.6585 33.9797C67.3719 34.7759 67.2286 35.6039 67.2286 36.4637C67.2286 37.4828 67.4038 38.3745 67.7541 39.1388C68.1362 39.8713 68.6139 40.5082 69.1872 41.0496C69.7604 41.5592 70.3973 41.9413 71.098 42.1961C71.7986 42.4509 72.4674 42.5783 73.1043 42.5783C73.7094 42.5783 74.3145 42.4668 74.9195 42.2439C75.5565 42.021 76.1456 41.7184 76.687 41.3363C77.2603 40.9223 77.7698 40.4446 78.2157 39.9032C78.6615 39.3618 79.0277 38.7726 79.3144 38.1357V34.4574Z" fill="black"></path>
<path d="M107.883 45.9221V40.0942H107.691C107.15 41.6229 106.211 42.7375 104.873 43.4381C103.567 44.1387 102.023 44.4891 100.239 44.4891C98.6152 44.4891 97.1343 44.2024 95.7968 43.6292C94.4911 43.0241 93.3605 42.1802 92.4051 41.0974C91.4497 39.9828 90.7013 38.6612 90.1599 37.1325C89.6504 35.572 89.3956 33.8364 89.3956 31.9256C89.3956 30.0467 89.6504 28.3429 90.1599 26.8143C90.7013 25.2856 91.4497 23.9799 92.4051 22.8971C93.3605 21.8144 94.507 20.9864 95.8445 20.4131C97.1821 19.808 98.663 19.5055 100.287 19.5055C102.325 19.5055 103.965 19.8877 105.207 20.652C106.481 21.3844 107.309 22.4194 107.691 23.757H107.883V20.031H111.943V43.4859C111.943 45.0782 111.784 46.6068 111.465 48.0718C111.179 49.5686 110.621 50.8902 109.793 52.0367C108.965 53.1831 107.803 54.0908 106.306 54.7595C104.809 55.4602 102.851 55.8105 100.43 55.8105C99.1247 55.8105 97.9623 55.6353 96.9432 55.285C95.9242 54.9665 95.0484 54.5685 94.3159 54.0908C93.5834 53.6449 92.9784 53.1831 92.5007 52.7054C92.023 52.2596 91.6726 51.8934 91.4497 51.6067L94.0771 49.2183C94.9369 50.6514 95.8764 51.7978 96.8955 52.6577C97.9464 53.5175 99.3158 53.9475 101.004 53.9475C101.959 53.9475 102.851 53.8041 103.679 53.5175C104.539 53.2309 105.271 52.7691 105.876 52.1322C106.513 51.4953 107.007 50.6673 107.357 49.6482C107.707 48.6291 107.883 47.3871 107.883 45.9221ZM107.883 33.7409V30.2059C107.883 29.1231 107.739 28.0722 107.453 27.0531C107.166 26.034 106.736 25.1423 106.163 24.378C105.621 23.5818 104.937 22.9608 104.109 22.515C103.281 22.0373 102.341 21.7984 101.29 21.7984C100.813 21.7984 100.144 21.9099 99.284 22.1328C98.4559 22.3239 97.6279 22.7698 96.7999 23.4704C96.0038 24.171 95.3032 25.1901 94.6981 26.5276C94.093 27.8333 93.7904 29.6008 93.7904 31.8301C93.7904 33.9319 94.0293 35.6517 94.507 36.9892C95.0165 38.3268 95.6375 39.3618 96.37 40.0942C97.1343 40.8267 97.9464 41.3363 98.8063 41.6229C99.698 41.8776 100.526 42.005 101.29 42.005C102.15 42.005 102.978 41.8299 103.774 41.4796C104.57 41.0974 105.271 40.556 105.876 39.8554C106.481 39.1548 106.959 38.2949 107.309 37.2758C107.691 36.2567 107.883 35.0784 107.883 33.7409Z" fill="black"></path>
<path d="M128.355 19.5055C130.68 19.5055 132.479 19.8399 133.753 20.5087C135.027 21.1456 135.95 21.9895 136.523 23.0405C137.129 24.0914 137.479 25.3016 137.574 26.671C137.67 28.0403 137.718 29.4416 137.718 30.8747V43.9158H133.848V41.5751C132.925 42.4668 131.746 43.1834 130.313 43.7247C128.88 44.2343 127.447 44.4891 126.014 44.4891C124.645 44.4891 123.435 44.2502 122.384 43.7725C121.333 43.2948 120.457 42.6738 119.756 41.9095C119.056 41.1452 118.53 40.2853 118.18 39.3299C117.83 38.3745 117.654 37.4032 117.654 36.416C117.654 35.3969 117.845 34.3778 118.228 33.3587C118.61 32.3396 119.183 31.432 119.947 30.6358C120.712 29.8078 121.651 29.1391 122.766 28.6295C123.88 28.12 125.154 27.8652 126.587 27.8652C128.02 27.8652 129.374 28.1518 130.648 28.725C131.953 29.2664 133.02 30.0467 133.848 31.0658V29.0117C133.848 26.4003 133.45 24.4576 132.654 23.1838C131.89 21.9099 130.473 21.273 128.403 21.273C127.511 21.273 126.731 21.3844 126.062 21.6074C125.393 21.8303 124.788 22.1488 124.247 22.5628C123.737 22.9449 123.259 23.4385 122.814 24.0436C122.368 24.6169 121.922 25.2697 121.476 26.0022L118.992 23.5182C119.438 23.0405 119.9 22.5628 120.377 22.0851C120.887 21.6074 121.492 21.1774 122.193 20.7953C122.925 20.4131 123.785 20.1106 124.772 19.8877C125.759 19.6329 126.954 19.5055 128.355 19.5055ZM133.848 34.4574C133.689 34.0753 133.45 33.6294 133.132 33.1199C132.845 32.6103 132.463 32.1167 131.985 31.639C131.508 31.1613 130.934 30.7632 130.266 30.4448C129.597 30.0944 128.801 29.9193 127.877 29.9193C126.954 29.9193 126.11 30.1104 125.345 30.4925C124.581 30.8428 123.928 31.3205 123.387 31.9256C122.877 32.4989 122.479 33.1836 122.193 33.9797C121.906 34.7759 121.763 35.6039 121.763 36.4637C121.763 37.4828 121.938 38.3745 122.288 39.1388C122.67 39.8713 123.148 40.5082 123.721 41.0496C124.294 41.5592 124.931 41.9413 125.632 42.1961C126.333 42.4509 127.001 42.5783 127.638 42.5783C128.243 42.5783 128.848 42.4668 129.454 42.2439C130.09 42.021 130.68 41.7184 131.221 41.3363C131.794 40.9223 132.304 40.4446 132.75 39.9032C133.195 39.3618 133.562 38.7726 133.848 38.1357V34.4574Z" fill="black"></path>
<path d="M160.601 25.4767H157.878C157.878 25.0627 157.767 24.6169 157.544 24.1392C157.321 23.6615 156.971 23.2315 156.493 22.8494C156.015 22.4354 155.426 22.101 154.726 21.8462C154.025 21.5596 153.197 21.4163 152.242 21.4163C151.286 21.4163 150.49 21.5596 149.853 21.8462C149.216 22.101 148.707 22.4354 148.324 22.8494C147.942 23.2315 147.672 23.6615 147.512 24.1392C147.353 24.585 147.273 25.0149 147.273 25.4289C147.273 26.4162 147.624 27.1805 148.324 27.7219C149.057 28.2633 149.965 28.725 151.047 29.1072C152.13 29.4894 153.292 29.8556 154.534 30.2059C155.808 30.5562 156.987 31.018 158.069 31.5912C159.152 32.1326 160.044 32.8651 160.745 33.7886C161.477 34.7122 161.843 35.9383 161.843 37.4669C161.843 39.5688 161.095 41.2726 159.598 42.5783C158.133 43.8521 155.936 44.4891 153.006 44.4891C151.382 44.4891 149.949 44.298 148.707 43.9158C147.496 43.5018 146.461 42.9604 145.602 42.2916C144.774 41.6229 144.153 40.8745 143.739 40.0465C143.325 39.1866 143.118 38.3108 143.118 37.4191H146.223C146.223 37.8013 146.334 38.279 146.557 38.8522C146.812 39.4255 147.21 39.9987 147.751 40.5719C148.324 41.1133 149.041 41.591 149.901 42.005C150.793 42.3872 151.875 42.5783 153.149 42.5783C154.168 42.5783 155.012 42.4509 155.681 42.1961C156.35 41.9095 156.875 41.5751 157.257 41.1929C157.64 40.7789 157.894 40.3331 158.022 39.8554C158.181 39.3777 158.261 38.9159 158.261 38.4701C158.261 37.4191 157.91 36.5911 157.21 35.986C156.509 35.381 155.633 34.8873 154.582 34.5052C153.531 34.0912 152.385 33.7249 151.143 33.4065C149.933 33.0562 148.802 32.6103 147.751 32.0689C146.7 31.5275 145.824 30.811 145.124 29.9193C144.423 29.0276 144.073 27.8174 144.073 26.2888C144.073 25.1742 144.28 24.2028 144.694 23.3748C145.108 22.515 145.665 21.7984 146.366 21.2252C147.098 20.652 147.942 20.222 148.898 19.9354C149.885 19.6488 150.936 19.5055 152.05 19.5055C153.229 19.5055 154.327 19.6647 155.347 19.9832C156.398 20.2698 157.305 20.6838 158.069 21.2252C158.866 21.7347 159.487 22.3558 159.932 23.0882C160.378 23.8207 160.601 24.6169 160.601 25.4767Z" fill="black"></path>
<g clip-path="url(#clip1_1_728)">
<path d="M40.7539 53.2722L36.4641 48.9824C36.3818 48.8239 36.2757 48.679 36.1494 48.5527L12.8847 25.288L12.8849 25.2879L2.68262 15.0857C1.83259 14.2356 0.379028 14.8377 0.379028 16.0399V28.1238L0.476417 28.1017L0.379028 54.3659C0.379028 54.7172 0.522005 55.0271 0.740261 55.2146C0.927857 55.4329 1.23769 55.5758 1.589 55.5758L27.7378 55.4788L27.7157 55.5758H39.7997C41.002 55.5758 41.604 54.1223 40.7539 53.2722ZM23.8112 48.5475H7.98146C7.82921 48.5475 7.68319 48.487 7.57552 48.3793C7.46786 48.2717 7.40738 48.1257 7.40738 47.9734V32.1436C7.40738 31.6321 8.02576 31.376 8.38739 31.7377L24.2172 47.5675C24.5788 47.9291 24.3227 48.5475 23.8112 48.5475Z" fill="#FFD469"></path>
<path d="M18.1817 36.1772C18.1402 36.1358 18.1073 36.0866 18.0849 36.0324C18.0625 35.9782 18.0509 35.9202 18.0509 35.8616C18.0509 35.8029 18.0625 35.7449 18.0849 35.6907C18.1073 35.6365 18.1402 35.5873 18.1817 35.5459L20.6621 33.0654L21.2935 33.6968L18.813 36.1772C18.7293 36.2609 18.6157 36.3079 18.4974 36.3079C18.379 36.3079 18.2654 36.2609 18.1817 36.1772ZM21.8109 37.286L23.3469 35.7501L22.7155 35.1187L21.1796 36.6547C21.1381 36.6961 21.1052 36.7453 21.0828 36.7995C21.0604 36.8537 21.0488 36.9117 21.0488 36.9703C21.0488 37.029 21.0604 37.087 21.0828 37.1412C21.1052 37.1954 21.1381 37.2446 21.1796 37.286C21.221 37.3275 21.2702 37.3604 21.3244 37.3828C21.3786 37.4052 21.4366 37.4168 21.4953 37.4168C21.5539 37.4168 21.6119 37.4052 21.6661 37.3828C21.7203 37.3604 21.7695 37.3275 21.8109 37.286ZM22.9198 40.284L25.4003 37.8035L24.7689 37.1721L22.2884 39.6526C22.247 39.694 22.2141 39.7432 22.1917 39.7974C22.1692 39.8516 22.1577 39.9096 22.1577 39.9682C22.1577 40.0269 22.1692 40.0849 22.1917 40.1391C22.2141 40.1933 22.247 40.2425 22.2884 40.2839C22.3299 40.3254 22.3791 40.3583 22.4333 40.3808C22.4874 40.4033 22.5455 40.4148 22.6041 40.4148C22.6628 40.4148 22.7208 40.4033 22.775 40.3808C22.8292 40.3584 22.8784 40.3255 22.9198 40.284ZM25.9178 41.3928L27.4537 39.8569L26.8224 39.2255L25.2864 40.7614C25.245 40.8029 25.2121 40.8521 25.1897 40.9063C25.1672 40.9604 25.1557 41.0185 25.1557 41.0771C25.1557 41.1357 25.1672 41.1938 25.1897 41.248C25.2121 41.3021 25.245 41.3513 25.2864 41.3928C25.3279 41.4343 25.3771 41.4671 25.4313 41.4896C25.4854 41.512 25.5435 41.5236 25.6021 41.5236C25.6607 41.5236 25.7188 41.512 25.773 41.4896C25.8271 41.4671 25.8763 41.4343 25.9178 41.3928ZM27.0266 44.3908L29.5071 41.9103L28.8757 41.279L26.3952 43.7594C26.3538 43.8009 26.3209 43.8501 26.2984 43.9043C26.276 43.9584 26.2645 44.0165 26.2645 44.0751C26.2645 44.1337 26.276 44.1918 26.2984 44.246C26.3209 44.3001 26.3538 44.3493 26.3952 44.3908C26.4367 44.4322 26.4859 44.4651 26.5401 44.4876C26.5942 44.51 26.6523 44.5216 26.7109 44.5216C26.7695 44.5216 26.8276 44.51 26.8818 44.4876C26.9359 44.4651 26.9851 44.4322 27.0266 44.3908ZM30.0246 45.4997L31.5605 43.9637L30.9292 43.3323L29.3932 44.8683C29.3518 44.9097 29.3189 44.959 29.2964 45.0131C29.274 45.0673 29.2624 45.1254 29.2624 45.184C29.2624 45.2426 29.274 45.3007 29.2964 45.3548C29.3189 45.409 29.3518 45.4582 29.3932 45.4997C29.4347 45.5411 29.4839 45.574 29.538 45.5964C29.5922 45.6189 29.6503 45.6304 29.7089 45.6304C29.7675 45.6304 29.8256 45.6189 29.8797 45.5964C29.9339 45.574 29.9831 45.5411 30.0246 45.4997ZM31.1335 48.4976L33.6139 46.0171L32.9825 45.3857L30.5021 47.8662C30.4184 47.9499 30.3713 48.0635 30.3713 48.1819C30.3713 48.3003 30.4184 48.4138 30.5021 48.4976C30.5858 48.5813 30.6994 48.6283 30.8178 48.6283C30.9362 48.6283 31.0497 48.5813 31.1335 48.4976ZM34.1314 49.6064L35.6673 48.0705L35.0359 47.4391L33.5 48.9751C33.4585 49.0165 33.4256 49.0657 33.4032 49.1199C33.3808 49.1741 33.3692 49.2321 33.3692 49.2908C33.3692 49.3494 33.3808 49.4074 33.4032 49.4616C33.4256 49.5158 33.4585 49.565 33.5 49.6064C33.5414 49.6479 33.5907 49.6808 33.6448 49.7032C33.699 49.7257 33.757 49.7372 33.8157 49.7372C33.8743 49.7372 33.9324 49.7257 33.9865 49.7032C34.0407 49.6808 34.0899 49.6479 34.1314 49.6064ZM6.49263 23.8568L8.97309 21.3764L8.34172 20.745L5.86126 23.2254C5.77752 23.3091 5.73048 23.4227 5.73047 23.5411C5.73046 23.6595 5.77749 23.7731 5.86122 23.8568C5.94494 23.9405 6.0585 23.9876 6.17692 23.9876C6.29533 23.9876 6.40889 23.9406 6.49263 23.8568ZM9.49053 24.9656L11.0265 23.4297L10.3951 22.7983L8.85916 24.3342C8.81771 24.3757 8.78482 24.4249 8.76238 24.4791C8.73995 24.5333 8.7284 24.5913 8.7284 24.6499C8.7284 24.7086 8.73995 24.7666 8.76238 24.8208C8.78482 24.8749 8.81771 24.9242 8.85916 24.9656C8.90062 25.0071 8.94983 25.04 9.004 25.0624C9.05817 25.0848 9.11622 25.0964 9.17485 25.0964C9.23348 25.0964 9.29153 25.0848 9.3457 25.0624C9.39986 25.04 9.44908 25.0071 9.49053 24.9656ZM10.5994 27.9636L13.0799 25.4831L12.4485 24.8518L9.96804 27.3322C9.88431 27.416 9.83727 27.5295 9.83727 27.6479C9.83727 27.7663 9.88431 27.8799 9.96804 27.9636C10.0518 28.0473 10.1653 28.0944 10.2837 28.0944C10.4021 28.0944 10.5157 28.0473 10.5994 27.9636ZM13.5974 29.0724L15.1333 27.5365L14.502 26.9051L12.966 28.441C12.9246 28.4825 12.8917 28.5317 12.8692 28.5859C12.8468 28.64 12.8353 28.6981 12.8353 28.7567C12.8353 28.8153 12.8468 28.8734 12.8692 28.9276C12.8917 28.9817 12.9246 29.0309 12.966 29.0724C13.0075 29.1139 13.0567 29.1467 13.1109 29.1692C13.165 29.1916 13.2231 29.2032 13.2817 29.2032C13.3403 29.2032 13.3984 29.1916 13.4526 29.1692C13.5067 29.1467 13.5559 29.1139 13.5974 29.0724ZM14.7062 32.0704L17.1866 29.5899L16.5553 28.9585L14.0748 31.439C13.9911 31.5227 13.9441 31.6363 13.9441 31.7547C13.9441 31.8731 13.9911 31.9867 14.0748 32.0704C14.1585 32.1541 14.2721 32.2011 14.3905 32.2011C14.5089 32.2011 14.6225 32.1541 14.7062 32.0704ZM17.7042 33.1793L19.2401 31.6433L18.6087 31.0119L17.0728 32.5479C17.0313 32.5893 16.9985 32.6386 16.976 32.6927C16.9536 32.7469 16.942 32.8049 16.942 32.8636C16.942 32.9222 16.9536 32.9803 16.976 33.0344C16.9985 33.0886 17.0313 33.1378 17.0728 33.1793C17.1143 33.2207 17.1635 33.2536 17.2176 33.276C17.2718 33.2985 17.3299 33.31 17.3885 33.31C17.4471 33.31 17.5052 33.2985 17.5593 33.276C17.6135 33.2536 17.6627 33.2207 17.7042 33.1793Z" fill="#AA8F4D"></path>
</g>
</g>
<defs>
<clipPath id="clip0_1_728">
<rect width="164.67" height="56" fill="white"></rect>
</clipPath>
<clipPath id="clip1_1_728">
<rect width="41.3114" height="41.3114" fill="white" transform="translate(0.000854492 14.6876)"></rect>
</clipPath>
</defs>
</svg>