<svg class="tool" xmlns="http://www.w3.org/2000/svg" width="243" height="56" fill="none" viewBox="0 0 243 56">
  <mask id="a" width="186" height="37" x="51" y="12" maskUnits="userSpaceOnUse" style="mask-type:luminance">
    <path fill="#fff" d="M236.332 12.788H51.782v36.09h184.55v-36.09Z"></path>
  </mask>
  <g mask="url(#a)">
    <path fill="#000" d="M129.028 23.9h-.038c-.707-1.649-2.75-3.417-6.128-3.417-5.496 0-9.424 3.849-9.424 10.29 0 6.44 3.966 10.367 9.462 10.367 3.495 0 5.301-1.727 6.087-3.65h.038v2.435c0 3.457-1.768 5.105-4.947 5.105-2.671 0-4.436-.944-4.907-3.142h-4.947c.55 4.007 4.243 6.99 9.936 6.99 5.38 0 10.169-2.712 10.169-9.66V21.031h-5.298V23.9h-.003Zm-5.029 13.275c-3.653 0-5.5-3.025-5.5-6.362s1.885-6.32 5.5-6.32 5.497 3.415 5.497 6.32c0 2.905-1.494 6.362-5.497 6.362ZM89.91 29.048c0-4.988-2.354-8.64-8.72-8.64-5.34 0-8.123 3.5-8.713 6.834h4.751c.512-1.884 2.005-3.062 4.007-3.062 2.314 0 3.728.94 3.728 2.55 0 1.728-1.256 2.122-3.886 2.514-2.829.43-9.503.979-9.503 6.557 0 3.416 2.67 6.087 7.107 6.087 3.848 0 5.537-2.042 6.361-3.65h.041v1.02c0 .667.041 1.415.158 2.081h5.064c-.277-1.297-.391-3.378-.391-4.947v-7.344h-.003Zm-4.868 2.87c0 4.713-2.393 6.242-4.985 6.242-2.276 0-3.457-1.061-3.457-2.592 0-1.532 1.219-2.356 3.928-2.908 2.983-.587 4.044-1.49 4.514-2.472v1.73Zm19.085-11.432c-3.141 0-4.944 1.686-6.087 4.044v-3.495h-4.947V41.34h5.064v-9.112c0-4.947 1.847-7.343 4.556-7.343 2.907 0 3.69 2.317 3.69 5.263V41.34h5.026V28.93c0-4.986-2.042-8.443-7.305-8.443h.003Zm47.182-3.221c3.808 0 6.4 1.531 7.893 4.83h5.184c-1.727-5.733-6.049-9.307-13.077-9.307-8.521 0-14.295 6.052-14.295 14.57 0 8.519 5.733 14.492 14.254 14.489 6.952 0 11.704-3.729 13.118-9.308h-5.222c-1.139 2.984-3.574 4.831-7.855 4.831-5.42 0-9.032-4.24-9.032-10.011 0-5.772 3.574-10.09 9.032-10.09v-.004Zm77.715 3.219c-3.141 0-4.944 1.686-6.087 4.045v-3.495h-4.948v20.303h5.065v-9.111c0-4.947 1.847-7.344 4.556-7.344 2.904 0 3.691 2.318 3.691 5.263v11.192h5.026v-12.41c0-4.986-2.042-8.443-7.306-8.443h.003Zm-14.449-5.44h-5.221v4.714h5.221v-4.714Zm-5.143 9.506v16.784h5.064V21.031h-1.55a3.515 3.515 0 0 0-3.514 3.518Zm-31.145-4.07c-3.14 0-4.944 1.689-6.087 4.006v-11.19h-4.945V41.33h5.062v-9.112c0-4.947 1.848-7.343 4.557-7.343 2.907 0 3.691 2.317 3.691 5.263V41.33h5.025V28.92c0-4.986-2.042-8.443-7.304-8.443l.001.003Zm27.845 8.568c0-4.988-2.355-8.64-8.72-8.64-5.342 0-8.122 3.5-8.71 6.834h4.751c.512-1.884 2.005-3.062 4.006-3.062 2.315 0 3.729.94 3.729 2.55 0 1.728-1.257 2.122-3.886 2.514-2.829.43-9.504.979-9.504 6.557 0 3.416 2.672 6.087 7.108 6.087 3.849 0 5.537-2.042 6.361-3.65h.038v1.02c0 .667.039 1.415.159 2.081h5.062c-.274-1.297-.391-3.378-.391-4.947v-7.344h-.003Zm-4.871 2.87c0 4.713-2.393 6.242-4.985 6.242-2.276 0-3.457-1.061-3.457-2.592 0-1.532 1.219-2.356 3.928-2.908 2.983-.587 4.043-1.49 4.514-2.472v1.73Zm-144.391.107V13.297h-5.087v22.261h1.554a3.532 3.532 0 0 0 3.533-3.533Zm13.12 4.815H51.784v4.498H69.99V36.84Z"></path>
  </g>
  <mask id="b" width="38" height="38" x="6" y="6" maskUnits="userSpaceOnUse" style="mask-type:luminance">
    <path fill="#fff" d="M43.912 6.494H6.492v37.42h37.42V6.494Z"></path>
  </mask>
  <g mask="url(#b)">
    <path fill="#000" d="M18.235 31.403a11.746 11.746 0 0 0 0-16.607L9.93 6.494a11.751 11.751 0 0 0-3.438 8.303c0 3.113 1.238 6.102 3.438 8.304l8.302 8.302h.002Zm17.374.769a11.75 11.75 0 0 0-8.302-3.44 11.752 11.752 0 0 0-8.303 3.44l8.303 8.303a11.75 11.75 0 0 0 8.303 3.44c3.113 0 6.102-1.24 8.303-3.44l-8.303-8.303h-.001ZM9.953 40.456a11.75 11.75 0 0 0 8.303 3.44V32.152H6.513a11.752 11.752 0 0 0 3.44 8.303Zm28.86-20.561a11.746 11.746 0 0 0-16.607.001l8.303 8.303 8.304-8.304Z"></path>
  </g>
</svg>