<svg class="tool" width="287" height="56" viewBox="0 0 287 56" fill="none" xmlns="http://www.w3.org/2000/svg">
<g clip-path="url(#clip0_1_1209)">
<path d="M47.6195 0H9.37146C4.42459 0 0.414062 4.01052 0.414062 8.9574V47.2055C0.414062 52.1523 4.42459 56.1629 9.37146 56.1629H47.6195C52.5664 56.1629 56.5769 52.1523 56.5769 47.2055V8.9574C56.5769 4.01052 52.5664 0 47.6195 0Z" fill="black"></path>
<path d="M43.0987 48.5162C43.0987 48.5162 45.577 44.3898 39.7785 41.4339C39.7785 41.4339 40.9012 45.8469 38.2737 49.9375H35.5745C35.5745 49.9375 35.4551 49.0775 36.5957 48.6416C38.9843 47.722 39.0799 43.7987 38.3812 43.3269C36.2493 41.8937 35.4073 40.6695 35.9567 37.5524C35.9567 37.5524 32.2663 38.9019 27.6801 38.3227C27.4412 38.2928 27.2083 38.4063 27.0889 38.6153C26.8441 39.0393 26.3484 39.8037 25.5303 40.6875C25.5303 40.6875 25.3213 43.1298 24.7719 44.8676C24.7719 44.8676 24.9809 47.8414 24.2285 49.9315H21.0038C21.0038 49.9315 21.0397 48.6357 22.5923 48.4684C24.4912 48.2654 22.2519 42.3595 22.2519 42.3595C22.2519 42.3595 22.1564 45.5782 20.2216 49.9195H17.7553C17.7553 49.9195 17.7553 48.6655 19.0093 48.355C21.0456 47.8474 20.138 44.1808 19.8095 42.1445C19.4811 40.1022 19.0213 36.2864 17.3552 34.1665C15.6891 32.0466 14.8411 32.0645 14.7396 28.171C14.7396 28.171 13.3244 25.9376 13.8319 22.9936C13.8319 22.9936 12.775 19.4584 14.3634 14.2333C14.3634 14.2333 10.6073 13.4689 10.5356 12.5373C10.458 11.6058 10.7387 10.5488 11.7419 10.4592C12.7451 10.3697 14.2141 10.2204 14.2201 9.16339C14.2201 8.10642 12.9422 6.70309 13.7364 6.29105C14.4769 5.9029 15.3368 8.405 15.9041 8.01087C16.2743 7.75409 14.8949 6.40451 15.7966 6.58963C16.1668 6.66726 19.3079 7.70632 20.3708 13.1882C21.4338 18.6702 20.9919 22.3308 22.5266 22.3308C24.0613 22.3308 31.0779 22.074 35.1744 23.0772C39.271 24.0804 39.4382 25.651 41.2356 25.1971C43.0331 24.7433 45.0992 23.6565 46.2697 27.6395C47.3027 31.1448 44.4006 30.7029 44.4006 31.8017C44.4006 32.9005 44.0124 34.6024 44.4543 35.6415C44.8962 36.6805 44.6514 39.1886 45.0395 40.6098C45.4277 42.0311 45.8935 43.3209 45.0156 45.1542C45.0156 45.1542 45.4456 48.2415 44.4782 49.9375H42.1493C42.1493 49.9375 41.9821 48.9701 43.1167 48.5162H43.0987Z" fill="url(#paint0_linear_1_1209)"></path>
<path d="M69.7422 12.0391H74.6062V39.2026H90.1136V43.5858H69.7422V12.0391Z" fill="black"></path>
<path d="M116.796 40.9264C114.827 43.3353 112.326 44.123 109.57 44.123C104.532 44.123 101.289 41.714 101.289 37.3308C101.289 33.3005 104.266 31.2394 109.743 30.2318L116.623 28.9634V27.475C116.623 25.0661 115.134 24.0585 112.065 24.0585C109.437 24.0585 106.895 24.9791 106.767 27.9558H102.21C102.343 22.4781 106.9 20.2891 112.065 20.2891C118.198 20.2891 121.134 22.8719 121.134 26.9892V43.5911H116.796V40.9161V40.9264ZM110.27 40.4456C113.38 40.4456 116.623 38.7373 116.623 34.661V32.385L110.531 33.6535C107.769 34.2212 106.02 34.881 106.02 37.203C106.02 39.1312 107.334 40.4456 110.27 40.4456Z" fill="black"></path>
<path d="M149.348 24.3654C147.552 24.3654 143.957 25.373 143.957 30.9785V43.5962H139.359V29.4032C139.359 26.4675 137.911 24.3654 135.109 24.3654C133.313 24.3654 129.723 25.373 129.723 30.9785V43.5962H125.125V20.8159H129.549V24.0125C130.864 21.9104 133.053 20.2891 136.341 20.2891C139.63 20.2891 141.947 22.0434 143.087 24.6262C144.576 22.1712 146.985 20.2891 150.58 20.2891C155.577 20.2891 158.206 24.2324 158.206 28.9174V43.5911H153.608V29.3981C153.608 26.4624 152.161 24.3603 149.358 24.3603L149.348 24.3654Z" fill="black"></path>
<path d="M176.703 40.9264C174.734 43.3353 172.233 44.123 169.476 44.123C164.438 44.123 161.195 41.714 161.195 37.3308C161.195 33.3005 164.172 31.2394 169.65 30.2318L176.529 28.9634V27.475C176.529 25.0661 175.04 24.0585 171.972 24.0585C169.343 24.0585 166.801 24.9791 166.673 27.9558H162.116C162.249 22.4781 166.806 20.2891 171.972 20.2891C178.104 20.2891 181.04 22.8719 181.04 26.9892V43.5911H176.703V40.9161V40.9264ZM170.177 40.4456C173.286 40.4456 176.529 38.7373 176.529 34.661V32.385L170.437 33.6535C167.675 34.2212 165.926 34.881 165.926 37.203C165.926 39.1312 167.241 40.4456 170.177 40.4456Z" fill="black"></path>
<path d="M185.727 12.0391H190.212V43.5807H185.727V12.0391Z" fill="black"></path>
<path d="M93.2188 12.0391H97.7042V43.5807H93.2188V12.0391Z" fill="black"></path>
<path d="M205.47 24.3654C203.716 24.3654 199.645 25.373 199.645 30.9785V43.5962H195.047V20.8159H199.471V24.0125C201.005 21.8644 203.368 20.2891 206.698 20.2891C212.217 20.2891 214.804 24.2324 214.804 28.9174V43.5911H210.247V29.3981C210.247 26.4624 208.8 24.3603 205.47 24.3603V24.3654Z" fill="black"></path>
<path d="M235.853 43.5885V40.3458C234.278 42.6678 231.777 44.1153 228.406 44.1153C221.706 44.1153 218.023 39.0314 218.023 32.1983C218.023 25.3652 221.706 20.2813 228.406 20.2813C231.69 20.2813 234.104 21.5958 235.679 23.8309V12.0469H240.277V43.5885H235.853ZM229.281 40.1668C233.705 40.1668 235.807 36.8833 235.807 32.1932C235.807 27.5031 233.705 24.2196 229.281 24.2196C224.857 24.2196 222.754 27.5031 222.754 32.1932C222.754 36.8833 224.857 40.1668 229.281 40.1668Z" fill="black"></path>
<path d="M243.406 32.206C243.406 25.3729 247.61 20.2891 254.357 20.2891C261.103 20.2891 265.307 25.2809 265.307 32.426V33.7404H248.091C248.531 37.6837 250.674 40.2666 254.357 40.2666C257.159 40.2666 259.261 38.9522 260.228 36.6301H264.826C263.379 41.1412 259.568 44.123 254.357 44.123C247.61 44.123 243.406 39.0391 243.406 32.206ZM260.535 30.0988C259.967 26.5084 257.819 24.1403 254.357 24.1403C250.894 24.1403 248.746 26.5084 248.178 30.0988H260.535Z" fill="black"></path>
<path d="M276.003 35.5732L270.219 43.5928H264.961L273.374 31.9418L265.355 20.8125H270.699L276.044 28.2184L281.343 20.8125H286.601L278.673 31.8498L287.087 43.5928H281.742L276.003 35.5732Z" fill="black"></path>
</g>
<defs>
<linearGradient id="paint0_linear_1_1209" x1="8.83969" y1="7.45551" x2="42.7225" y2="52.7202" gradientUnits="userSpaceOnUse">
<stop stop-color="#37D7FA"></stop>
<stop offset="0.4" stop-color="#4B72FE"></stop>
<stop offset="0.68" stop-color="#FF8DF2"></stop>
<stop offset="1" stop-color="#FF8705"></stop>
</linearGradient>
<clipPath id="clip0_1_1209">
<rect width="287" height="56" fill="white"></rect>
</clipPath>
</defs>
</svg>