<svg class="tool" width="242" height="56" viewBox="0 0 242 56" fill="none" xmlns="http://www.w3.org/2000/svg">
<g clip-path="url(#clip0_1_786)">
<path d="M63.0701 18.3282C62.405 17.612 61.5608 17.0364 60.512 16.6015C59.4632 16.1667 58.1841 15.9492 56.6876 15.9492H45.8926V39.8672H51.1495V31.2977H56.6748C58.1713 31.2977 59.4376 31.0802 60.4992 30.6454C61.548 30.2105 62.405 29.6349 63.0573 28.9186C63.7096 28.2024 64.1957 27.3838 64.5026 26.4501C64.8096 25.5292 64.9503 24.5827 64.9503 23.6234C64.9503 22.6386 64.7968 21.6921 64.5026 20.7712C64.2084 19.8503 63.7224 19.0317 63.0701 18.3282ZM59.476 25.4524C59.2202 25.9257 58.8748 26.2838 58.4527 26.5396C58.0306 26.7954 57.5318 26.9745 56.9818 27.064C56.4192 27.1536 55.8436 27.1919 55.2424 27.1919H51.1495V20.0294H55.2424C55.8436 20.0294 56.4319 20.0805 56.9818 20.1573C57.5446 20.2468 58.0306 20.4259 58.4527 20.6817C58.8748 20.9375 59.2202 21.2956 59.476 21.7689C59.7318 22.2421 59.8597 22.8559 59.8597 23.6106C59.8725 24.378 59.7318 24.992 59.476 25.4524Z" fill="black"></path>
<path d="M78.0594 22.2405C77.6757 22.1254 77.3304 22.0742 77.0234 22.0742C76.4224 22.0742 75.834 22.1638 75.284 22.3428C74.7212 22.5219 74.1968 22.7777 73.7108 23.0975C73.2248 23.4172 72.7899 23.8137 72.4062 24.2742C72.0224 24.7346 71.7283 25.2335 71.498 25.7707H71.4341V22.5475H66.9062V39.8657H71.6643V32.0636C71.6643 31.2834 71.7411 30.5543 71.8945 29.8892C72.048 29.2241 72.3166 28.6357 72.6876 28.1369C73.0585 27.6381 73.5445 27.2416 74.1457 26.9474C74.7468 26.6532 75.4887 26.5125 76.3584 26.5125C76.6526 26.5125 76.9467 26.5253 77.2664 26.5637C77.5734 26.6021 77.842 26.6404 78.0722 26.6788V22.2405H78.0594Z" fill="black"></path>
<path d="M93.4323 24.5684C92.6521 23.7754 91.7056 23.1614 90.6056 22.7265C89.5057 22.2917 88.265 22.0742 86.9093 22.0742C85.5407 22.0742 84.3128 22.2917 83.2256 22.7265C82.1257 23.1614 81.192 23.7754 80.4117 24.5684C79.6315 25.3614 79.0304 26.3207 78.6083 27.4462C78.1862 28.5718 77.9688 29.8253 77.9688 31.2194C77.9688 32.6007 78.1862 33.8541 78.6083 34.9669C79.0304 36.0797 79.6315 37.039 80.4117 37.832C81.192 38.625 82.1257 39.2389 83.2256 39.661C84.3256 40.0831 85.5535 40.3006 86.9093 40.3006C88.2778 40.3006 89.5057 40.0831 90.6056 39.661C91.7056 39.2389 92.6521 38.625 93.4323 37.832C94.2126 37.039 94.8137 36.0797 95.2358 34.9669C95.6579 33.8541 95.8753 32.6007 95.8753 31.2194C95.8753 29.8381 95.6579 28.5846 95.2358 27.4462C94.8137 26.3207 94.2126 25.3614 93.4323 24.5684ZM90.9126 33.2402C90.7847 33.9053 90.5545 34.4937 90.2219 35.0181C89.9022 35.5425 89.4673 35.9646 88.9173 36.2715C88.3673 36.5913 87.6895 36.7448 86.8965 36.7448C86.0907 36.7448 85.4256 36.5913 84.8884 36.2715C84.3512 35.9646 83.9163 35.5425 83.5966 35.0181C83.2768 34.4937 83.0466 33.9053 82.9059 33.2402C82.778 32.5879 82.7012 31.9101 82.7012 31.2194C82.7012 30.5287 82.7652 29.8508 82.9059 29.1729C83.0338 28.5078 83.264 27.9067 83.5966 27.3951C83.9163 26.8834 84.3512 26.4614 84.8884 26.1416C85.4256 25.8218 86.0907 25.6556 86.8965 25.6556C87.7023 25.6556 88.3801 25.8218 88.9173 26.1416C89.4673 26.4614 89.9022 26.8834 90.2219 27.3951C90.5417 27.9067 90.7719 28.495 90.9126 29.1729C91.0405 29.8381 91.1173 30.5287 91.1173 31.2194C91.1173 31.9101 91.0533 32.5879 90.9126 33.2402Z" fill="black"></path>
<path d="M122.941 23.4803C122.379 22.9943 121.714 22.6361 120.933 22.4059C120.153 22.1885 119.296 22.0733 118.388 22.0733C117.186 22.0733 116.137 22.3675 115.254 22.9431C114.372 23.5187 113.668 24.1964 113.157 24.9511C112.683 23.8768 112.005 23.1349 111.097 22.7001C110.189 22.278 109.192 22.0605 108.104 22.0605C106.966 22.0605 105.956 22.3036 105.073 22.8024C104.191 23.2884 103.436 23.9919 102.809 24.8743H102.745V22.5338H98.2559V39.8519H103.014V29.7987C103.014 28.9545 103.142 28.2638 103.385 27.7394C103.628 27.215 103.922 26.8185 104.267 26.5371C104.613 26.2557 104.971 26.0638 105.342 25.9615C105.713 25.8592 106.007 25.808 106.224 25.808C106.979 25.808 107.554 25.9359 107.951 26.1918C108.347 26.4476 108.616 26.7929 108.782 27.215C108.949 27.6371 109.051 28.0975 109.064 28.6092C109.089 29.108 109.102 29.6196 109.102 30.1312V39.8519H113.86V30.208C113.86 29.6708 113.898 29.1464 113.975 28.6219C114.052 28.0975 114.205 27.6243 114.448 27.215C114.691 26.8057 115.011 26.4604 115.42 26.2045C115.83 25.9487 116.38 25.8208 117.045 25.8208C117.71 25.8208 118.247 25.9359 118.631 26.1534C119.027 26.3708 119.322 26.6778 119.513 27.0615C119.718 27.4452 119.833 27.8929 119.884 28.4045C119.923 28.9161 119.948 29.4661 119.948 30.0417V39.8519H124.706V28.2638C124.706 27.151 124.553 26.1918 124.233 25.3987C123.939 24.6185 123.504 23.9663 122.941 23.4803Z" fill="black"></path>
<path d="M143.34 24.8881C142.689 24.044 141.883 23.3533 140.899 22.8416C139.914 22.33 138.75 22.0742 137.381 22.0742C136.307 22.0742 135.322 22.2917 134.439 22.7137C133.544 23.1358 132.815 23.8137 132.227 24.7602H132.163V22.5475H127.635V45.9282H132.393V37.7169H132.457C133.032 38.561 133.774 39.2134 134.682 39.6482C135.59 40.0831 136.575 40.3006 137.65 40.3006C138.916 40.3006 140.029 40.0575 140.988 39.5587C141.935 39.0727 142.726 38.4076 143.366 37.5762C144.005 36.7448 144.479 35.7983 144.786 34.7239C145.093 33.6495 145.259 32.5367 145.259 31.3729C145.259 30.145 145.105 28.9683 144.786 27.8427C144.466 26.73 143.993 25.7323 143.34 24.8881ZM140.297 33.2914C140.169 33.9565 139.939 34.5448 139.607 35.0437C139.287 35.5425 138.852 35.9518 138.328 36.2715C137.803 36.5913 137.151 36.7448 136.371 36.7448C135.616 36.7448 134.964 36.5913 134.427 36.2715C133.889 35.9646 133.454 35.5553 133.135 35.0437C132.815 34.5448 132.572 33.9565 132.431 33.2914C132.291 32.6263 132.214 31.9357 132.214 31.245C132.214 30.5287 132.278 29.8381 132.418 29.1729C132.546 28.5078 132.777 27.9067 133.109 27.3951C133.429 26.8834 133.851 26.4614 134.375 26.1416C134.9 25.8218 135.552 25.6556 136.332 25.6556C137.087 25.6556 137.739 25.8218 138.264 26.1416C138.788 26.4614 139.223 26.8962 139.556 27.4206C139.888 27.9451 140.131 28.5462 140.272 29.2113C140.412 29.8764 140.489 30.5671 140.489 31.2578C140.502 31.9485 140.425 32.6263 140.297 33.2914Z" fill="black"></path>
<path d="M153.29 17.3555H148.532V22.5484H145.654V25.7331H148.532V35.9526C148.532 36.8223 148.673 37.5258 148.967 38.063C149.261 38.6002 149.658 39.0095 150.157 39.3037C150.655 39.5979 151.244 39.7897 151.896 39.8921C152.548 39.9944 153.252 40.0455 153.994 40.0455C154.467 40.0455 154.94 40.0328 155.439 40.0072C155.925 39.9816 156.373 39.9432 156.782 39.8793V36.1828C156.565 36.234 156.322 36.2596 156.079 36.2851C155.836 36.3107 155.58 36.3235 155.311 36.3235C154.505 36.3235 153.968 36.1956 153.7 35.927C153.431 35.6585 153.303 35.1213 153.303 34.3155V25.7459H156.782V22.5612H153.303V17.3555H153.29Z" fill="black"></path>
<path d="M163.97 15.9492H158.713V39.8672H175.635V35.4418H163.97V15.9492Z" fill="black"></path>
<path d="M192.789 36.0029V26.9858C192.789 25.9369 192.559 25.0928 192.085 24.4533C191.612 23.8137 191.011 23.3149 190.282 22.9696C189.54 22.6114 188.734 22.3684 187.839 22.2533C186.945 22.1254 186.062 22.0742 185.193 22.0742C184.233 22.0742 183.274 22.1638 182.327 22.3556C181.381 22.5475 180.524 22.8672 179.769 23.3149C179.015 23.7626 178.388 24.3509 177.889 25.0928C177.403 25.8346 177.122 26.7555 177.058 27.8683H181.816C181.905 26.9346 182.212 26.2567 182.75 25.8602C183.287 25.4637 184.029 25.2591 184.962 25.2591C185.384 25.2591 185.781 25.2846 186.152 25.3486C186.523 25.3997 186.841 25.5149 187.123 25.6811C187.404 25.8474 187.621 26.0776 187.788 26.3846C187.954 26.6916 188.044 27.0881 188.044 27.6125C188.069 28.0985 187.916 28.4823 187.609 28.7381C187.302 28.9939 186.868 29.1857 186.331 29.3264C185.794 29.4543 185.18 29.5567 184.489 29.6334C183.798 29.6974 183.095 29.7869 182.379 29.902C181.662 30.0171 180.959 30.1706 180.255 30.3497C179.552 30.5415 178.925 30.8229 178.375 31.2066C177.825 31.5904 177.378 32.0892 177.032 32.7286C176.687 33.3681 176.508 34.1739 176.508 35.1588C176.508 36.0541 176.661 36.8215 176.955 37.4739C177.262 38.1262 177.672 38.6634 178.209 39.0855C178.746 39.5075 179.373 39.8273 180.089 40.0192C180.805 40.2238 181.573 40.3261 182.404 40.3261C183.479 40.3261 184.527 40.1726 185.551 39.8529C186.574 39.5459 187.468 38.9959 188.235 38.2157C188.261 38.5099 188.299 38.7913 188.351 39.0727C188.402 39.3541 188.478 39.6227 188.568 39.8913H193.39C193.173 39.5331 193.006 38.9959 192.917 38.2797C192.827 37.5378 192.789 36.796 192.789 36.0029ZM188.031 33.1635C188.031 33.4321 188.005 33.7902 187.941 34.2379C187.89 34.6855 187.737 35.1204 187.494 35.5553C187.251 35.9902 186.867 36.3611 186.356 36.6808C185.845 37.0006 185.116 37.1541 184.182 37.1541C183.798 37.1541 183.427 37.1157 183.082 37.0518C182.724 36.9878 182.417 36.8727 182.148 36.7064C181.88 36.5401 181.662 36.3099 181.509 36.0157C181.355 35.7216 181.279 35.3634 181.279 34.9413C181.279 34.4937 181.355 34.1227 181.509 33.8414C181.662 33.5472 181.867 33.3169 182.123 33.1251C182.379 32.9332 182.686 32.7797 183.031 32.6774C183.376 32.5751 183.734 32.4728 184.08 32.4088C184.464 32.345 184.834 32.281 185.218 32.2427C185.602 32.1915 185.96 32.1403 186.305 32.0764C186.651 32.0124 186.97 31.9229 187.277 31.8206C187.583 31.7183 187.826 31.5776 188.031 31.3985V33.1635Z" fill="black"></path>
<path d="M206.487 22.5479L202.701 34.4046H202.637L198.723 22.5479H193.672L199.733 38.7918C199.861 39.1243 199.938 39.4824 199.938 39.8662C199.938 40.3778 199.784 40.851 199.49 41.2731C199.183 41.6951 198.723 41.9381 198.096 42.0148C197.623 42.0404 197.162 42.0276 196.689 41.9765C196.216 41.9253 195.768 41.8869 195.321 41.8486V45.7624C195.807 45.8136 196.293 45.852 196.779 45.8776C197.265 45.9159 197.751 45.9287 198.237 45.9287C199.861 45.9287 201.14 45.6218 202.061 45.0206C202.982 44.4194 203.686 43.409 204.21 42.002L211.449 22.5352H206.487V22.5479Z" fill="black"></path>
<path d="M226.734 25.2207C226.03 24.2614 225.135 23.494 224.035 22.9312C222.935 22.3556 221.656 22.0742 220.185 22.0742C218.868 22.0742 217.665 22.3044 216.578 22.7777C215.491 23.2509 214.557 23.8905 213.777 24.7091C212.997 25.5277 212.396 26.4869 211.974 27.6125C211.551 28.7253 211.334 29.9404 211.334 31.2322C211.334 32.5751 211.539 33.803 211.948 34.9158C212.357 36.0285 212.946 36.9878 213.7 37.7936C214.455 38.5994 215.389 39.2134 216.476 39.6482C217.576 40.0831 218.804 40.3006 220.159 40.3006C222.129 40.3006 223.805 39.8529 225.186 38.9576C226.567 38.0622 227.604 36.5785 228.269 34.5065H224.086C223.933 35.0437 223.511 35.5553 222.82 36.0285C222.129 36.5146 221.298 36.7448 220.338 36.7448C218.995 36.7448 217.972 36.3995 217.256 35.7088C216.54 35.0181 216.156 33.8925 216.079 32.3578H228.576C228.665 31.0148 228.55 29.7357 228.243 28.5078C227.949 27.28 227.437 26.18 226.734 25.2207ZM216.105 29.3392C216.13 29.0067 216.194 28.623 216.322 28.2009C216.45 27.7788 216.655 27.3695 216.962 26.9986C217.269 26.6148 217.665 26.2951 218.164 26.0393C218.663 25.7835 219.302 25.6556 220.057 25.6556C221.221 25.6556 222.078 25.9625 222.654 26.5893C223.229 27.216 223.626 28.1241 223.843 29.3392H216.105Z" fill="black"></path>
<path d="M240.688 22.0742C240.086 22.0742 239.498 22.1638 238.948 22.3428C238.385 22.5219 237.861 22.7777 237.375 23.0975C236.889 23.4172 236.454 23.8137 236.07 24.2742C235.687 24.7346 235.392 25.2335 235.162 25.7707H235.098V22.5475H230.57V39.8657H235.328V32.0636C235.328 31.2834 235.405 30.5543 235.559 29.8892C235.712 29.2241 235.981 28.6357 236.352 28.1369C236.723 27.6381 237.209 27.2416 237.81 26.9474C238.411 26.6532 239.153 26.5125 240.022 26.5125C240.317 26.5125 240.611 26.5253 240.931 26.5637C241.238 26.6021 241.506 26.6404 241.736 26.6788V22.2405C241.34 22.1254 240.995 22.0742 240.688 22.0742Z" fill="black"></path>
<path d="M34.7131 21.4852C34.7131 21.4724 34.7131 21.4596 34.7131 21.4596C34.7131 21.4596 34.7131 21.4596 34.7131 21.4468V21.434C34.7131 21.434 34.7131 21.434 34.7131 21.4212V21.4084C34.7131 21.4084 34.7131 21.4084 34.7131 21.3956C34.7131 21.3956 34.7131 21.3828 34.7131 21.3701C34.7131 21.3573 34.7131 21.3573 34.7003 21.3445C34.7003 21.3445 34.7003 21.3445 34.7003 21.3317V21.3189C34.7003 21.3189 34.7003 21.3189 34.7003 21.3061C34.7003 21.3061 34.7003 21.2933 34.6875 21.2933C34.6875 21.2933 34.6875 21.2933 34.6875 21.2805C34.6875 21.2805 34.6875 21.2677 34.6747 21.2549C34.5596 21.0503 31.9375 16.5098 17.1646 16.5098C15.9239 16.5098 14.5939 16.5481 13.1741 16.6121C13.0846 16.6121 13.0078 16.6377 12.9311 16.6888L0.230229 24.4014C0.230229 24.4014 0.230229 24.4014 0.217439 24.4014C0.204648 24.4014 0.204648 24.4142 0.191858 24.4142C0.191858 24.4142 0.179067 24.4142 0.179067 24.427C0.179067 24.427 0.166276 24.4398 0.153486 24.4398L0.140696 24.4526L0.127905 24.4654L0.115114 24.4781L0.102324 24.4909L0.0895331 24.5037C0.0895331 24.5037 0.0767429 24.5165 0.0767429 24.5293C0.0767429 24.5293 0.0767426 24.5421 0.0639521 24.5421C0.0511616 24.5549 0.0511617 24.5677 0.0383712 24.5805C0.0383712 24.5805 0.0383712 24.5805 0.0383712 24.5933C0.0383712 24.606 0.025581 24.606 0.025581 24.6188V24.6316C0.025581 24.6444 0.0255807 24.6444 0.0127902 24.6572V24.67C0.0127902 24.6828 0.0127905 24.6828 0 24.6956V24.7084C0 24.7212 0 24.7212 0 24.734V24.7467C0 24.7595 0 24.7595 0 24.7723V24.7851C0 24.7851 0 24.7979 0 24.8107V24.8235V30.1699V36.6546V42.001C0 42.1417 0.0639527 42.2824 0.166277 42.3719C0.25581 42.4615 0.383715 42.4998 0.51162 42.4998C0.524411 42.4998 0.549992 42.4998 0.562782 42.4998L34.2526 39.1743C34.5084 39.1487 34.7131 38.9313 34.7131 38.6755V33.329V26.8444V21.4852Z" fill="#FFC483"></path>
<path d="M33.7032 27.3984L0.972656 30.6344V36.1088L33.7032 32.8728V27.3984Z" fill="#FFED9F"></path>
<path d="M23.9052 17.8924C26.348 18.1994 28.4457 18.6982 30.1468 19.3633C31.6561 19.9517 32.5514 20.5656 33.0503 20.9749C33.0886 21.0133 33.127 21.0517 33.1654 21.0773L2.63477 24.0958L13.3274 17.5983C17.3181 17.4192 20.8738 17.5087 23.9052 17.8924Z" fill="#FFED9F"></path>
<path d="M24.6851 16.46C25.8619 16.6391 26.5525 15.2833 26.5525 15.2833C26.5525 15.2833 25.1328 14.7589 24.8514 13.1601C23.2398 12.8787 22.7282 11.459 22.7282 11.459C22.7282 11.459 21.3724 12.1497 21.5515 13.3264L24.6851 16.46Z" fill="#7ACC7A"></path>
<path d="M24.9669 19.1579C23.2785 20.8462 19.5565 21.831 17.8683 20.1427C16.1799 18.4544 17.1648 14.7324 18.8532 13.0441C20.5414 11.3557 22.2937 12.3406 23.982 14.0289C25.6704 15.7173 26.6552 17.4695 24.9669 19.1579Z" fill="#F04C74"></path>
</g>
<defs>
<clipPath id="clip0_1_786">
<rect width="242" height="56" fill="white"></rect>
</clipPath>
</defs>
</svg>