<svg class="tool" xmlns="http://www.w3.org/2000/svg" width="258" height="56" fill="none" viewBox="0 0 258 56">
  <path fill="#000" fill-rule="evenodd" d="M54.94 33.398 42.83 14.54h-6.54v26.94h5.575V22.622L53.978 41.48h6.538V14.541h-5.577v18.857h.001Zm10.188-13.662h9.037v21.743h5.767V19.736h9.037V14.54H65.128v5.196Zm46.927 5.542h-12.69V14.54h-5.767v26.94h5.768V30.474h12.689v11.005h5.768V14.541h-5.768v10.737Zm18.654-5.542h7.116c2.846 0 4.346 1.04 4.346 3.002 0 1.962-1.5 3-4.346 3h-7.115v-6.003l-.001.001Zm17.232 3.002c0-5.08-3.732-8.197-9.846-8.197H124.94V41.48h5.77V30.934h6.422l5.77 10.545h6.385l-6.389-11.348c3.207-1.233 5.043-3.83 5.043-7.393Zm17.673 13.806c-4.537 0-7.305-3.232-7.305-8.504 0-5.35 2.768-8.581 7.305-8.581 4.5 0 7.229 3.232 7.229 8.581 0 5.272-2.731 8.504-7.229 8.504Zm0-22.474c-7.767 0-13.265 5.773-13.265 13.97 0 8.119 5.498 13.892 13.265 13.892 7.727 0 13.187-5.773 13.187-13.892 0-8.197-5.458-13.97-13.187-13.97Zm31.47 12.44h-7.118v-6.774h7.119c2.846 0 4.346 1.155 4.346 3.385 0 2.233-1.5 3.388-4.346 3.388h-.001Zm.27-11.969h-13.158V41.48h5.77v-9.775h7.388c6.115 0 9.849-3.232 9.849-8.581 0-5.35-3.734-8.582-9.849-8.582Zm48.908 17.886c-1 2.616-2.999 4.118-5.73 4.118-4.537 0-7.305-3.232-7.305-8.505 0-5.35 2.768-8.581 7.305-8.581 2.731 0 4.73 1.5 5.73 4.116h6.113c-1.499-5.771-5.997-9.505-11.841-9.505-7.768 0-13.266 5.773-13.266 13.97 0 8.119 5.498 13.892 13.264 13.892 5.883 0 10.383-3.771 11.882-9.505h-6.152ZM209.499 14.54l10.733 26.94h5.886l-10.732-26.94H209.5l-.001-.001ZM14.583 30.82l3.672-9.467 3.674 9.468H14.58h.002Zm.596-16.277L4.445 41.479h6l2.196-5.656h11.228l2.194 5.656h6L21.331 14.541h-6.153l.001.002Z" clip-rule="evenodd"></path>
</svg>