<svg class="tool" xmlns="http://www.w3.org/2000/svg" width="177" height="56" fill="none" viewBox="0 0 177 56">
  <g clip-path="url(#a)">
    <path fill="#00B3FF" d="M28.246 38.479c5.536 0 10.024-4.585 10.024-10.242 0-5.656-4.488-10.24-10.024-10.24-5.536 0-10.023 4.584-10.023 10.24 0 5.657 4.487 10.242 10.023 10.242Z"></path>
    <path fill="#00B3FF" fill-rule="evenodd" d="M13.038 13.785c7.95-7.979 20.84-7.979 28.79 0 7.963 7.978 7.963 20.914 0 28.88-7.95 7.965-20.84 7.965-28.79-.014L.045 29.611a1.972 1.972 0 0 1 0-2.786l12.993-13.04Zm4.57 25.047c5.838 5.86 15.31 5.86 21.148 0 5.837-5.86 5.837-15.355-.013-21.215-5.837-5.86-15.31-5.86-21.148 0l-9.55 9.574a1.459 1.459 0 0 0 0 2.054l9.563 9.587Z" clip-rule="evenodd"></path>
    <path fill="#00B3FF" d="m53.132 20.992 5.722 5.847a2.012 2.012 0 0 1 0 2.799l-5.722 5.846c-.333.34-.909.026-.806-.458.985-4.46.985-9.116 0-13.576-.116-.484.46-.811.806-.458Zm48.366-4.976c0-.826.257-1.54.809-2.103.551-.564 1.213-.864 2.058-.864a2.8 2.8 0 0 1 2.059.864c.551.563.845 1.277.845 2.103 0 .826-.294 1.54-.845 2.103-.551.564-1.25.827-2.059.827-.808 0-1.507-.263-2.058-.827-.515-.6-.809-1.277-.809-2.103Zm.295 6.834c0-.864.257-1.465.735-1.803.478-.338 1.14-.526 1.949-.526.588 0 1.102.076 1.58.226.478.15.772.225.919.263v16.3h-5.183V22.85ZM70.84 26.53c0-1.088.184-2.027.551-2.816a5.915 5.915 0 0 1 1.544-2.028 6.301 6.301 0 0 1 2.316-1.24 10.248 10.248 0 0 1 2.904-.413c1.287 0 2.426.226 3.456.676.992.451 1.838 1.052 2.463 1.84.625-.788 1.433-1.389 2.426-1.84.992-.45 2.132-.676 3.419-.676 1.029 0 1.985.15 2.867.413a6.301 6.301 0 0 1 2.316 1.24 5.915 5.915 0 0 1 1.544 2.028c.367.789.551 1.728.551 2.817v10.742h-5.183v-9.24c0-1.127-.22-1.915-.662-2.403-.44-.489-1.066-.714-1.911-.714-.846 0-1.507.3-2.059.864-.514.563-.772 1.465-.772 2.741v8.79h-5.183v-8.79c0-1.239-.258-2.14-.772-2.741-.515-.564-1.177-.864-2.022-.864-.809 0-1.47.225-1.911.714-.478.488-.699 1.277-.699 2.403v9.24H70.84V26.53Zm41.649-12.955c-.478.338-.735.939-.735 1.803v21.897h5.183V13.537c-.147-.038-.441-.113-.919-.263a5.194 5.194 0 0 0-1.581-.225c-.808 0-1.47.188-1.948.526Zm13.932 23.698a86.982 86.982 0 0 1-1.948-3.718 305.031 305.031 0 0 1-1.728-3.569 116.034 116.034 0 0 1-1.287-2.817 32.392 32.392 0 0 0-.661-1.502c-.184-.45-.368-.939-.552-1.465a3.996 3.996 0 0 1-.294-1.465c0-.6.221-1.126.662-1.577.441-.413 1.066-.639 1.948-.639.699 0 1.25.076 1.691.226.44.15.662.225.735.263.368 1.089.736 2.178 1.177 3.267.324.875.649 1.701.955 2.48l.001.002.22.56a46.69 46.69 0 0 0 1.029 2.48c.294.713.515 1.202.662 1.502.082-.167.175-.392.292-.675.093-.226.203-.49.333-.79.196-.45.392-.95.599-1.48.103-.263.21-.536.32-.81.165-.414.331-.836.496-1.259.166-.422.331-.845.497-1.258.33-.827.625-1.578.845-2.141l.094-.22c.106-.252.204-.485.347-.72.147-.3.368-.525.588-.75.221-.226.515-.376.809-.489.331-.112.735-.15 1.176-.15.442 0 .809.038 1.177.15.331.075.661.188.919.3.257.113.477.226.624.301.085.065.157.105.211.134.04.022.068.038.083.054-.073.413-.294.977-.624 1.803-.12.286-.245.592-.376.914l-.001.004c-.232.565-.482 1.179-.763 1.824a197.813 197.813 0 0 1-1.433 3.23c-.243.532-.487 1.056-.726 1.572l-.002.004c-.266.574-.528 1.139-.78 1.692a66.907 66.907 0 0 1-1.396 2.854c-.442.826-.772 1.502-.993 1.953h-4.926v-.075Zm22.903-4.394c-2.021 0-3.014-1.127-3.014-3.418V21.01c-.147-.038-.441-.113-.918-.263a5.199 5.199 0 0 0-1.581-.226c-.81 0-1.471.188-1.949.526s-.735.94-.735 1.803v7.587c0 1.202.22 2.291.625 3.193.441.901.992 1.652 1.728 2.253.735.601 1.618 1.052 2.61 1.352.992.3 2.058.451 3.234.451 1.141 0 2.243-.15 3.236-.45 1.029-.301 1.874-.752 2.609-1.353a6.118 6.118 0 0 0 1.729-2.253c.404-.902.625-1.953.625-3.193V21.01c-.147-.038-.441-.113-.919-.263a5.2 5.2 0 0 0-1.582-.226c-.809 0-1.47.188-1.948.526s-.735.94-.735 1.803v6.61c0 2.292-.992 3.419-3.015 3.419Zm13.455-.714c.183.15.441.3.845.488a9.04 9.04 0 0 0 1.433.526c.552.15 1.178.3 1.876.413.698.113 1.433.188 2.205.188.882 0 1.544-.075 1.985-.263.441-.15.661-.45.661-.864 0-.45-.183-.751-.551-.901-.367-.15-.956-.3-1.764-.413l-1.691-.188a16.404 16.404 0 0 1-2.427-.489c-.771-.225-1.47-.525-2.058-.938a4.382 4.382 0 0 1-1.396-1.578c-.331-.639-.515-1.427-.515-2.404 0-.826.147-1.577.441-2.253a4.855 4.855 0 0 1 1.36-1.803c.625-.526 1.433-.94 2.389-1.202.957-.3 2.133-.45 3.456-.45 1.36 0 2.499.074 3.493.262.992.188 1.801.45 2.536.826.404.226.735.489.992.79.257.3.367.713.367 1.164 0 .337-.073.675-.22.939-.147.262-.294.525-.478.713a4.84 4.84 0 0 1-.514.45c-.147.114-.258.189-.294.189-.045-.047-.134-.108-.255-.192a11.55 11.55 0 0 1-.26-.184c-.294-.188-.661-.338-1.176-.526-.478-.15-1.066-.3-1.729-.45-.661-.15-1.433-.188-2.315-.188-.956 0-1.654.112-2.021.338-.368.225-.552.526-.552.901 0 .376.184.639.515.789.331.15.845.3 1.543.413l2.941.413a12.22 12.22 0 0 1 2.096.488c.661.226 1.286.526 1.801.902.514.413.955.901 1.249 1.502.294.601.478 1.352.478 2.254 0 1.84-.698 3.267-2.058 4.32-1.36 1.013-3.271 1.54-5.698 1.54-1.25 0-2.389-.076-3.381-.264a23.92 23.92 0 0 1-2.538-.6 11.77 11.77 0 0 1-1.727-.714c-.317-.19-.558-.34-.738-.451a15.928 15.928 0 0 0-.181-.113l1.875-3.38Z"></path>
  </g>
  <defs>
    <clipPath id="a">
      <path fill="#fff" d="M0 0h177v56H0z"></path>
    </clipPath>
  </defs>
</svg>