<svg class="tool" xmlns="http://www.w3.org/2000/svg" width="275" height="56" fill="none" viewBox="0 0 275 56">
  <path fill="#111" d="M62.72 13.085h14.05c10.157 0 12.754 5.982 12.754 10.843 0 4.862-2.622 10.844-12.753 10.844h-8.68v17.105H62.72V13.085Zm5.396 17.105h7.102c4.276 0 8.527-.967 8.527-6.236 0-5.27-4.276-6.237-8.527-6.237h-7.102V30.19Zm28.459-17.282c2.036 0 3.691 1.603 3.716 3.563.026 1.986-1.578 3.615-3.614 3.666-2.037.05-3.717-1.502-3.793-3.488a3.668 3.668 0 0 1 1.043-2.647c.662-.687 1.63-1.094 2.648-1.094ZM94.08 25.915h4.99v25.99h-4.99v-25.99Zm10.795 0h5.065v4.021h.128c1.756-3.054 5.167-4.887 8.756-4.658 5.167 0 9.622 3.03 9.622 9.928v16.723h-4.989V36.605c0-4.887-2.877-6.694-6.084-6.694-4.2 0-7.407 2.622-7.407 8.654V51.93h-5.091V25.915Zm32.809 14.814c0 4.53 4.328 7.509 8.986 7.509 2.927-.076 5.651-1.527 7.305-3.87l3.844 2.852c-2.8 3.589-7.229 5.6-11.837 5.37-8.45 0-13.694-5.905-13.694-13.643-.153-3.614 1.247-7.127 3.844-9.698 2.596-2.571 6.16-3.996 9.876-3.946 9.393 0 12.982 7 12.982 13.695v1.756h-21.306v-.025Zm15.986-3.946c-.128-4.327-2.597-7.509-7.688-7.509-4.352-.025-7.992 3.258-8.272 7.51h15.96Zm28.228-3.943a8.424 8.424 0 0 0-6.644-2.902c-5.498 0-8.324 4.327-8.324 9.215a8.27 8.27 0 0 0 2.342 6.236 8.592 8.592 0 0 0 6.262 2.596 8.064 8.064 0 0 0 6.465-2.901l3.59 3.461c-2.622 2.698-6.313 4.15-10.106 3.997-3.742.178-7.382-1.171-10.029-3.768-2.647-2.57-4.073-6.134-3.895-9.774-.178-3.666 1.248-7.23 3.895-9.826 2.647-2.596 6.287-3.996 10.055-3.869a13.91 13.91 0 0 1 10.232 4.099l-3.843 3.436Zm18.66-7.59c7.687.128 13.847 6.288 13.771 13.797-.077 7.51-6.364 13.542-14.077 13.491-7.687-.05-13.923-6.134-13.923-13.643 0-3.666 1.501-7.153 4.174-9.724a14.286 14.286 0 0 1 10.055-3.92Zm0 22.706c5.371 0 8.756-3.742 8.756-9.062 0-5.294-3.385-9.036-8.756-9.036s-8.782 3.742-8.782 9.037c0 5.294 3.385 9.061 8.782 9.061Zm18.278-22.041h5.066v4.022c1.756-3.08 5.192-4.888 8.782-4.659 5.167 0 9.621 3.03 9.621 9.928v16.723h-5.065V36.606c0-4.888-2.876-6.695-6.058-6.695-4.226 0-7.408 2.622-7.408 8.655v13.363h-4.912V25.915h-.026Zm32.861 14.815c0 4.531 4.327 7.51 8.985 7.51 2.927-.102 5.651-1.528 7.306-3.87l3.843 2.851c-2.8 3.564-7.203 5.55-11.811 5.295-8.425 0-13.694-5.906-13.694-13.644-.153-3.614 1.247-7.153 3.843-9.724 2.597-2.596 6.186-3.996 9.902-3.92 9.393 0 12.982 7 12.982 13.695v1.756l-21.356.051Zm15.96-3.97c-.128-4.328-2.571-7.51-7.688-7.51-4.352-.025-7.992 3.258-8.272 7.51h15.96Z"></path>
  <path fill="#111" fill-rule="evenodd" d="M32.329 1.633a1.684 1.684 0 0 0-2.138-.382l-.662.357-7.204 4.098 1.68 2.953 4.684-2.673-1.145 6.262 3.334.61 1.171-6.287 3.462 4.124 2.596-2.19-5.243-6.26h-.026l-.509-.612ZM22.224 54.451c1.73 0 3.13-1.374 3.13-3.054 0-1.68-1.4-3.055-3.13-3.055-1.731 0-3.131 1.375-3.131 3.055-.026 1.68 1.4 3.054 3.13 3.054Zm4.2-16.774-1.12 6.287-3.36-.61 1.12-6.263-4.684 2.698-1.706-2.952 7.153-4.098.662-.382a1.684 1.684 0 0 1 2.138.382l.51.61 5.32 6.237L29.86 41.8l-3.436-4.123Zm2.723-15.018-1.12 6.287-3.36-.611 1.12-6.236-4.658 2.672-1.68-2.952 7.127-4.073v-.051h.051l.662-.382a1.684 1.684 0 0 1 2.138.382l.51.585 5.294 6.262-2.597 2.215-3.487-4.098ZM7.18 47.502h-.026l-.687-.203c-.738-.204-1.222-.917-1.17-1.68l.61-8.502 3.233.229-.382 5.167 5.015-3.41 1.807 2.672-4.913 3.334 5.015 1.451-.891 3.106-7.611-2.164Zm33.269 3.513-.23.738c-.228.713-.89 1.197-1.654 1.146l-.712-.051-.051.025-.026-.025-7.89-.535.203-3.233 5.244.357-3.437-4.811 2.622-1.884 3.513 4.938 1.527-4.989 3.08.942-2.189 7.382Zm9.266-17.513.381.688a1.64 1.64 0 0 1-.381 2.061l-.56.484v.025h-.026l-6.135 5.193-2.138-2.52 4.022-3.41-6.033-1.07.586-3.258 6.084 1.07-2.546-4.583 2.876-1.603 3.87 6.923ZM43.477 19.3l-5.447 2.927-1.578-2.902 5.37-2.876-4.912-2.011 1.247-3.055 7.484 3.03.025-.026.026.05.687.28a1.68 1.68 0 0 1 1.018 1.833l-.127.764-1.4 7.764-3.258-.586.865-5.192ZM6.925 26.12l6.058 1.019-.56 3.258-6.109-1.044 2.597 4.582-2.877 1.63-3.92-6.9-.381-.66a1.668 1.668 0 0 1 .356-2.063l.56-.483v-.026h.025l6.059-5.218 2.163 2.52-3.97 3.385Zm9.139-14.101 4.021 4.48-2.469 2.214-4.123-4.582-.942 5.218-3.258-.585 1.425-7.738.153-.79a1.63 1.63 0 0 1 1.553-1.348l.712-.026.026-.025.025.025 8.095-.33.127 3.308-5.345.179Z" clip-rule="evenodd"></path>
</svg>