<svg class="tool" width="329" height="56" viewBox="0 0 329 56" fill="none" xmlns="http://www.w3.org/2000/svg">
<g clip-path="url(#clip0_1_2060)">
<path d="M254.188 18.189C254.541 18.2018 254.892 18.1445 255.222 18.0204C255.552 17.8963 255.854 17.7079 256.11 17.4661C256.374 17.2278 256.583 16.936 256.725 16.6102C256.867 16.2844 256.937 15.9321 256.932 15.5769C256.939 15.2238 256.869 14.8734 256.728 14.5499C256.586 14.2265 256.375 13.9379 256.11 13.7041C255.854 13.4623 255.552 13.2739 255.222 13.1498C254.892 13.0258 254.541 12.9685 254.188 12.9813C253.457 12.9558 252.745 13.2149 252.201 13.7041C251.936 13.9379 251.725 14.2265 251.583 14.5499C251.442 14.8734 251.372 15.2238 251.379 15.5769C251.374 15.9321 251.444 16.2844 251.586 16.6102C251.728 16.936 251.937 17.2278 252.201 17.4661C252.749 17.9481 253.458 18.2061 254.188 18.189ZM105.663 29.0643C105.714 27.7176 105.396 26.3827 104.743 25.2037C104.187 24.1386 103.337 23.255 102.295 22.6574C101.16 22.0316 99.8781 21.7197 98.5822 21.7538C97.0609 21.7599 95.565 22.1437 94.2288 22.8709C92.8362 23.6217 91.694 24.7639 90.9432 26.1565C90.0722 27.686 89.6348 29.424 89.6782 31.1835C89.6349 32.8937 90.0188 34.5876 90.7953 36.1119C91.4829 37.4302 92.5388 38.5204 93.8345 39.2497C95.2082 40.0024 96.7531 40.3873 98.3194 40.3668C99.8559 40.4005 101.372 40.0143 102.706 39.2497C103.951 38.4885 104.967 37.4042 105.646 36.1119L104.595 35.1427C103.997 35.7844 103.311 36.3375 102.558 36.7855C101.734 37.2373 100.802 37.4533 99.8636 37.4097C99.1416 37.4166 98.4261 37.2742 97.7617 36.9915C97.0974 36.7088 96.4986 36.2919 96.003 35.7669C94.8946 34.4442 94.3101 32.7607 94.3602 31.0357H105.548C105.619 30.3808 105.657 29.7229 105.663 29.0643ZM101.079 28.8343C100.8 29.2121 100.209 29.36 99.3379 29.36H94.3274C94.3712 28.1721 94.6156 27.0001 95.0502 25.8937C95.3933 25.2062 95.8875 24.6053 96.4958 24.1359C97.0074 23.7778 97.613 23.5778 98.2372 23.5609C98.6777 23.5492 99.1152 23.6377 99.5165 23.8199C99.9177 24.002 100.272 24.273 100.554 24.6123C101.206 25.3814 101.551 26.3642 101.523 27.3722C101.489 27.8923 101.337 28.3979 101.079 28.8507V28.8343ZM132.342 23.2488C130.838 22.145 128.997 21.599 127.134 21.7045C125.254 21.5823 123.396 22.1684 121.926 23.3473C121.306 23.8714 120.814 24.5299 120.486 25.2729C120.159 26.0159 120.005 26.8238 120.037 27.6351C119.964 28.6656 120.2 29.6944 120.715 30.5899C121.231 31.4854 122.001 32.2069 122.929 32.662C122.147 33.3325 121.466 34.1127 120.908 34.9784C120.508 35.5952 120.291 36.3131 120.284 37.0483C120.279 37.6685 120.462 38.2756 120.809 38.7897C121.238 39.3083 121.809 39.6908 122.452 39.8904C121.497 40.302 120.64 40.9124 119.939 41.681C119.457 42.3001 119.202 43.0653 119.216 43.8495C119.213 44.6319 119.467 45.3935 119.939 46.018C120.602 46.772 121.452 47.3385 122.403 47.6608C123.875 48.0863 125.405 48.2803 126.937 48.2358C128.782 48.2978 130.621 47.9848 132.342 47.3158C133.635 46.8302 134.771 46.0009 135.627 44.9173C136.366 43.9827 136.76 42.8226 136.744 41.6317C136.774 40.9449 136.651 40.2601 136.384 39.6266C136.117 38.9931 135.712 38.4268 135.2 37.9683C133.718 36.9106 131.903 36.4261 130.091 36.6048H125.491C124.918 36.6448 124.346 36.5132 123.848 36.2269C123.704 36.0801 123.592 35.9052 123.518 35.7129C123.445 35.5207 123.412 35.3154 123.421 35.1098C123.426 34.3819 123.662 33.6743 124.095 33.0892C125.081 33.3782 126.107 33.5113 127.134 33.4834C129.012 33.5839 130.862 33.0002 132.342 31.8406C132.95 31.3042 133.433 30.6406 133.757 29.8969C134.081 29.1531 134.237 28.3473 134.215 27.5365C134.257 26.4545 133.989 25.383 133.442 24.448H136.974V21.951L136.367 21.5567L132.342 23.2488ZM123.471 40.3668C124.26 40.5312 125.063 40.6138 125.869 40.6132H129.927C130.811 40.528 131.693 40.7869 132.391 41.336C132.616 41.5657 132.793 41.8381 132.912 42.1371C133.03 42.4361 133.088 42.7558 133.081 43.0774C133.064 43.5623 132.915 44.0335 132.652 44.4413C132.389 44.849 132.021 45.1781 131.586 45.3937C130.26 46.1165 128.757 46.4524 127.249 46.363C126.023 46.4409 124.799 46.1734 123.717 45.5909C123.311 45.326 122.981 44.9588 122.762 44.5262C122.543 44.0936 122.442 43.6109 122.469 43.1267C122.46 42.1162 122.816 41.1365 123.471 40.3668ZM129.401 30.7071C129.157 31.0967 128.814 31.4145 128.407 31.6281C128 31.8417 127.544 31.9434 127.085 31.9228C126.65 31.9565 126.215 31.8721 125.824 31.6783C125.434 31.4845 125.103 31.1886 124.867 30.8221C124.295 29.8798 124.025 28.7846 124.095 27.6843C124.042 26.5791 124.329 25.4842 124.916 24.5466C125.167 24.1647 125.512 23.8538 125.917 23.6437C126.323 23.4337 126.776 23.3316 127.233 23.3473C127.671 23.3257 128.107 23.4207 128.497 23.6228C128.886 23.8248 129.216 24.1266 129.45 24.4973C130.031 25.4196 130.318 26.4968 130.272 27.5858C130.291 28.6887 129.988 29.7732 129.401 30.7071ZM156.458 34.8798V28.3086C156.587 26.5671 156.13 24.8325 155.16 23.3802C154.716 22.8402 154.152 22.4108 153.514 22.1258C152.875 21.8407 152.179 21.7077 151.48 21.7374C150.264 21.7801 149.074 22.0979 147.998 22.667C146.923 23.2361 145.99 24.0416 145.271 25.023V18.4518L145.418 13.2934L144.876 12.9648L138.305 14.6076V16.0533L140.95 16.4312V37.7711L138.552 38.2476V39.7425H147.571V38.2476L145.402 37.8204V26.9122C146.492 25.6973 148.012 24.9549 149.64 24.8423C150.004 24.803 150.372 24.8579 150.709 25.0018C151.045 25.1456 151.339 25.3735 151.563 25.6637C152.039 26.5663 152.245 27.5876 152.154 28.6043V37.7711L149.838 38.2476V39.7425H158.807V38.2476L156.59 37.8204C156.458 36.9005 156.458 35.9312 156.458 34.8798ZM90.9103 15.5276H82.8442V17.1704L85.8341 17.614L81.3985 33.5656L76.5358 17.5647L79.9528 17.1704V15.5276H69.5375V17.1704L72.7245 17.5647L67.6975 33.4341L63.5577 17.5647L66.5969 17.1704V15.5276H55.9844V17.1704L58.6293 17.5647L65.2005 39.8904H67.6975L73.2009 22.0495L78.9836 39.8411H81.4971L87.8219 17.6633L90.7625 17.1704V15.5276H90.9103ZM112.858 18.3368C113.214 18.3431 113.567 18.278 113.897 18.1454C114.228 18.0128 114.528 17.8153 114.78 17.5647C115.044 17.3263 115.253 17.0345 115.395 16.7087C115.536 16.3829 115.607 16.0307 115.602 15.6755C115.609 15.3224 115.539 14.9719 115.397 14.6485C115.256 14.3251 115.045 14.0364 114.78 13.8027C114.524 13.5609 114.222 13.3725 113.892 13.2484C113.562 13.1243 113.21 13.067 112.858 13.0798C112.128 13.0578 111.416 13.3164 110.87 13.8027C110.605 14.0449 110.397 14.3429 110.26 14.6752C110.124 15.0076 110.063 15.366 110.082 15.7248C110.079 16.0692 110.148 16.4105 110.284 16.7272C110.419 17.0438 110.619 17.329 110.87 17.5647C111.412 18.0631 112.122 18.3388 112.858 18.3368ZM115.01 34.8305V27.2079L115.109 22.0495L114.517 21.6553L107.946 23.9716V25.368L110.558 25.713C110.558 26.4358 110.657 27.1586 110.657 27.8322V37.7219L108.242 38.1983V39.6932H117.31V38.1983L115.092 37.7711C115.01 36.8512 115.01 35.8819 115.01 34.8305ZM276.415 37.8204C275.693 37.8204 275.364 37.2947 275.364 36.1776V28.2265C275.543 26.4097 275.02 24.5934 273.902 23.1502C273.278 22.5919 272.547 22.167 271.753 21.9014C270.959 21.6359 270.12 21.5353 269.286 21.606C267.412 21.5301 265.556 21.9858 263.93 22.9202C263.296 23.2837 262.755 23.7912 262.353 24.4019C261.951 25.0126 261.697 25.7093 261.614 26.4358C261.636 26.6773 261.707 26.9118 261.821 27.1257C261.935 27.3396 262.091 27.5286 262.279 27.6816C262.467 27.8345 262.684 27.9485 262.917 28.0166C263.149 28.0848 263.393 28.1059 263.634 28.0786C263.921 28.0882 264.207 28.0376 264.473 27.9301C264.739 27.8226 264.979 27.6605 265.179 27.4544C265.646 26.9131 265.918 26.2303 265.951 25.5158L266.378 23.4952C266.632 23.442 266.89 23.4091 267.15 23.3966C267.391 23.3757 267.632 23.3757 267.873 23.3966C268.328 23.3358 268.79 23.3879 269.22 23.5483C269.65 23.7088 270.033 23.9727 270.337 24.3166C270.937 25.3491 271.19 26.5466 271.06 27.7336V28.7522C270.436 28.9493 269.811 29.0807 269.187 29.2779C268.563 29.475 268.021 29.6228 267.544 29.8036C266.129 30.2261 264.768 30.8104 263.487 31.5449C262.686 31.9887 262.022 32.6417 261.565 33.4341C261.19 34.0942 261.003 34.844 261.022 35.6026C260.984 36.2419 261.092 36.8815 261.337 37.4733C261.581 38.0652 261.957 38.5939 262.435 39.0197C263.418 39.8032 264.645 40.2161 265.902 40.1861C266.892 40.2192 267.873 39.9866 268.744 39.5125C269.627 38.876 270.452 38.1612 271.208 37.3769C271.392 38.1735 271.83 38.8886 272.456 39.4139C273.143 39.9101 273.975 40.1643 274.822 40.1368C275.578 40.1544 276.326 39.9732 276.99 39.6111C277.684 39.1662 278.25 38.5493 278.633 37.8204L277.812 37.0976C277.46 37.5128 276.958 37.7725 276.415 37.8204ZM271.076 35.9312C270.464 36.3792 269.822 36.7853 269.154 37.1469C268.755 37.323 268.325 37.4179 267.889 37.4262C267.21 37.4545 266.543 37.2324 266.016 36.8019C265.758 36.5262 265.561 36.1997 265.436 35.8433C265.312 35.4868 265.263 35.1083 265.294 34.732C265.306 34.0053 265.541 33.3 265.967 32.7113C266.639 31.9446 267.509 31.3764 268.481 31.0685C268.856 30.9143 269.24 30.7827 269.631 30.6742C270.123 30.5475 270.605 30.3884 271.076 30.1978V35.9312ZM288.671 29.0643L287.225 28.6207C286.314 28.3563 285.449 27.9517 284.662 27.4215C284.444 27.2082 284.271 26.9524 284.155 26.6699C284.039 26.3873 283.983 26.084 283.989 25.7787C283.99 25.4601 284.065 25.1461 284.207 24.8612C284.35 24.5763 284.556 24.328 284.81 24.1359C285.473 23.6762 286.273 23.456 287.077 23.5116C287.854 23.5042 288.624 23.6494 289.344 23.9388L290.018 27.0272H292.433L292.63 23.1666C291.806 22.6964 290.929 22.3268 290.018 22.066C289.099 21.778 288.138 21.6447 287.176 21.6717C285.863 21.6302 284.558 21.8946 283.364 22.4438C282.408 22.8793 281.602 23.5881 281.048 24.4809C280.499 25.3079 280.213 26.2813 280.227 27.2736C280.178 28.4782 280.596 29.655 281.393 30.5592C282.301 31.4764 283.434 32.1391 284.679 32.4813L286.519 33.1056C287.413 33.3667 288.249 33.7961 288.983 34.3705C289.219 34.5726 289.406 34.8251 289.532 35.1095C289.657 35.3939 289.716 35.7028 289.706 36.0133C289.721 36.3729 289.645 36.7305 289.484 37.0524C289.323 37.3743 289.083 37.65 288.786 37.8533C287.942 38.3502 286.97 38.5846 285.993 38.5268C285.016 38.525 284.048 38.347 283.134 38.0011L282.461 34.617H279.997V38.8718C280.878 39.3665 281.823 39.7369 282.806 39.9725C283.81 40.2592 284.851 40.3921 285.894 40.3668C287.905 40.481 289.895 39.9011 291.529 38.724C292.071 38.3074 292.525 37.7875 292.865 37.1945C293.205 36.6014 293.424 35.9469 293.51 35.2687C293.595 34.5905 293.545 33.9021 293.363 33.2432C293.181 32.5843 292.871 31.968 292.449 31.4299C291.474 30.2587 290.15 29.4298 288.671 29.0643ZM312.146 28.9493C312.192 27.6032 311.874 26.2698 311.226 25.0887C310.706 24.0128 309.884 23.1112 308.861 22.4931C307.713 21.8515 306.413 21.5335 305.099 21.5731C303.582 21.577 302.091 21.9611 300.762 22.6902C299.369 23.4402 298.226 24.5826 297.476 25.9758C296.612 27.5015 296.181 29.2337 296.228 30.9864C296.182 32.6967 296.566 34.3912 297.345 35.9148C298.023 37.24 299.081 38.3326 300.384 39.0525C301.758 39.8053 303.302 40.1901 304.869 40.1696C306.405 40.1992 307.92 39.8133 309.255 39.0525C310.491 38.28 311.491 37.1833 312.146 35.8819L311.079 34.9291C310.487 35.5704 309.806 36.1236 309.058 36.5719C308.236 37.0294 307.304 37.2511 306.364 37.2126C305.642 37.2205 304.926 37.0785 304.261 36.7958C303.597 36.513 302.998 36.0956 302.503 35.5698C301.395 34.247 300.81 32.5636 300.86 30.8385H312.048C312.134 30.2127 312.167 29.5807 312.146 28.9493ZM307.563 28.6536C307.267 29.0314 306.692 29.1793 305.822 29.1793H300.893C300.931 27.9906 301.175 26.8176 301.616 25.713C301.943 24.9925 302.439 24.3614 303.062 23.873C303.572 23.5123 304.178 23.312 304.803 23.2981C305.244 23.2931 305.681 23.3863 306.081 23.571C306.482 23.7557 306.837 24.0272 307.119 24.3659C307.766 25.1307 308.106 26.1084 308.072 27.1094C308.089 27.6653 307.915 28.2104 307.579 28.6536H307.563ZM168.894 37.8697C168.622 37.8769 168.352 37.8247 168.102 37.7169C167.853 37.6091 167.63 37.4482 167.448 37.2454C167.065 36.6562 166.881 35.9594 166.923 35.2577V24.4973H171.358V22.2302H166.972L167.12 17.3018H164.179L162.783 22.3124L159.826 22.7067V24.5794H162.536V35.8326C162.481 36.4738 162.564 37.1194 162.779 37.7259C162.995 38.3323 163.338 38.8856 163.785 39.3482C164.754 40.1288 165.976 40.5263 167.218 40.4653C168.237 40.5017 169.248 40.2813 170.159 39.8246C170.948 39.436 171.601 38.8175 172.032 38.0504L171.178 37.1305C170.494 37.5711 169.707 37.8259 168.894 37.8697ZM327.507 31.2164C326.443 30.1322 325.111 29.3498 323.646 28.9493L322.184 28.5057C321.277 28.242 320.418 27.8373 319.638 27.3065C319.416 27.0957 319.241 26.8403 319.125 26.5572C319.009 26.2741 318.954 25.9695 318.964 25.6637C318.964 25.3449 319.038 25.0305 319.181 24.7453C319.323 24.4602 319.53 24.2122 319.785 24.0209C320.448 23.5612 321.248 23.341 322.052 23.3966C322.829 23.3892 323.599 23.5344 324.319 23.8238L324.993 26.9122H327.408L327.589 23.0516C326.768 22.5884 325.897 22.2192 324.993 21.951C324.074 21.663 323.114 21.5297 322.151 21.5567C320.838 21.5134 319.533 21.7778 318.34 22.3288C317.383 22.7643 316.577 23.4731 316.023 24.3659C315.475 25.1929 315.188 26.1663 315.202 27.1586C315.149 28.3609 315.561 29.5375 316.352 30.4443C317.26 31.3614 318.393 32.0241 319.638 32.3663L321.461 32.9906C322.358 33.2443 323.196 33.6743 323.925 34.2555C324.164 34.4552 324.354 34.7073 324.479 34.9923C324.604 35.2773 324.662 35.5873 324.648 35.8983C324.667 36.2566 324.594 36.6138 324.436 36.9359C324.277 37.2579 324.04 37.5342 323.745 37.7383C322.896 38.2384 321.918 38.473 320.935 38.4118C319.964 38.4088 319.001 38.2307 318.093 37.8861L317.42 34.502H314.956V38.7568C316.761 39.737 318.782 40.2509 320.837 40.2518C322.853 40.3685 324.848 39.7885 326.488 38.609C327.139 38.1493 327.669 37.5384 328.033 36.8288C328.396 36.1192 328.582 35.332 328.574 34.5348C328.63 33.9382 328.564 33.3366 328.38 32.7663C328.197 32.196 327.899 31.6687 327.507 31.2164ZM182.217 29.0643L180.772 28.6372C179.858 28.3723 178.992 27.9618 178.209 27.4215C177.987 27.2107 177.812 26.9553 177.696 26.6722C177.58 26.389 177.525 26.0845 177.535 25.7787C177.536 25.4601 177.611 25.1461 177.754 24.8612C177.896 24.5763 178.103 24.328 178.357 24.1359C179.016 23.6687 179.818 23.4478 180.624 23.5116C181.401 23.4961 182.173 23.6416 182.891 23.9388L183.564 27.0272H185.979L186.176 23.2159C185.353 22.7457 184.476 22.3761 183.564 22.1152C182.641 21.855 181.68 21.7495 180.722 21.8031C179.409 21.7599 178.104 22.0243 176.911 22.5752C175.953 22.9995 175.145 23.7039 174.595 24.5959C174.051 25.4313 173.765 26.4083 173.773 27.4051C173.715 28.6081 174.127 29.7866 174.923 30.6907C175.835 31.6072 176.966 32.2746 178.209 32.6292L180.049 33.2534C180.942 33.5103 181.778 33.934 182.513 34.502C182.757 34.7288 182.947 35.0066 183.072 35.3156C183.196 35.6246 183.251 35.9571 183.232 36.2896C183.213 36.6221 183.121 36.9463 182.963 37.2393C182.805 37.5323 182.584 37.7868 182.316 37.9847C181.468 38.4848 180.489 38.7194 179.507 38.6583C178.535 38.6552 177.573 38.4771 176.665 38.1326L175.991 34.7484H173.527V38.9868C174.404 39.4934 175.35 39.8697 176.336 40.1039C177.341 40.3848 178.382 40.5122 179.424 40.4818C181.436 40.6042 183.428 40.0235 185.059 38.839C185.694 38.3753 186.208 37.7665 186.56 37.0635C186.911 36.3605 187.09 35.5836 187.08 34.7977C187.123 33.6053 186.732 32.4379 185.979 31.5121C185.024 30.3098 183.703 29.4507 182.217 29.0643ZM256.291 34.6827V27.0601L256.39 21.9017L255.798 21.5074L249.227 23.8238V25.2201L251.839 25.5651V37.574L249.441 38.0668V39.5618H258.509V38.0668L256.291 37.6233V34.6827ZM211.114 25.138L213.956 25.6144C213.696 26.8453 213.339 28.0538 212.888 29.2286C212.434 30.3681 211.885 31.4672 211.245 32.5142C210.621 31.8899 210.046 31.2656 209.422 30.5757C208.798 29.8857 208.157 29.1793 207.434 28.4072C206.711 27.6351 206.284 27.1586 205.791 26.6822L204.576 25.3187C206.144 24.6426 207.575 23.6849 208.798 22.4931C209.621 21.5959 210.084 20.4254 210.096 19.2075C210.114 18.5629 209.984 17.9228 209.716 17.3362C209.449 16.7495 209.05 16.232 208.551 15.8233C207.275 14.8759 205.702 14.4157 204.116 14.5255C202.463 14.4351 200.834 14.9489 199.532 15.9712C198.938 16.4503 198.466 17.0634 198.155 17.7602C197.844 18.4569 197.702 19.2175 197.742 19.9796C197.756 20.9352 197.94 21.8807 198.284 22.7724C198.708 23.8747 199.326 24.8927 200.107 25.7787C200.107 25.7787 200.206 25.7787 200.206 25.8773L200.304 25.9758C198.677 26.6721 197.237 27.7413 196.099 29.0972C195.2 30.2562 194.724 31.6882 194.752 33.1549C194.739 34.3153 195.059 35.4552 195.672 36.4405C196.331 37.4466 197.243 38.2623 198.317 38.8061C199.585 39.401 200.974 39.6934 202.374 39.6604C203.861 39.7043 205.34 39.4298 206.711 38.8554C207.782 38.3343 208.764 37.6467 209.619 36.8183L210.145 37.3604C210.336 37.5189 210.512 37.6949 210.671 37.8861C211.288 38.4982 212.026 38.974 212.839 39.2825C213.694 39.5772 214.597 39.7055 215.5 39.6604C215.983 39.6585 216.466 39.6311 216.946 39.5782C217.535 39.5117 218.117 39.3963 218.687 39.2332L218.917 37.2126L215.402 36.5883C214.876 35.9969 214.383 35.5205 213.907 34.9455C213.43 34.3705 212.987 33.9763 212.56 33.4999C213.389 32.3101 214.114 31.0515 214.728 29.7378C215.408 28.3573 215.958 26.9163 216.371 25.4337L219.016 25.0066V23.3638H211.295L211.114 25.138ZM202.079 16.7433C202.343 16.4734 202.661 16.2612 203.011 16.1198C203.362 15.9785 203.738 15.9111 204.116 15.9219C204.491 15.9104 204.865 15.9775 205.213 16.119C205.561 16.2604 205.875 16.4731 206.136 16.7433C206.417 17.0377 206.634 17.3862 206.776 17.7675C206.917 18.1488 206.979 18.555 206.958 18.9611C206.936 19.9021 206.652 20.8183 206.136 21.606C205.473 22.5424 204.694 23.3923 203.82 24.1359L203.294 23.4623L202.769 22.7888C202.269 22.1612 201.875 21.4566 201.602 20.7024C201.417 20.1292 201.323 19.5306 201.323 18.9282C201.285 18.5311 201.332 18.1304 201.463 17.7533C201.593 17.3763 201.803 17.0318 202.079 16.7433ZM204.099 37.0483C203.127 37.0595 202.167 36.828 201.307 36.3748C200.533 35.9239 199.897 35.2707 199.467 34.4855C199.03 33.7077 198.798 32.8314 198.793 31.9392C198.809 31.0599 198.987 30.1911 199.319 29.3764C199.714 28.4397 200.37 27.6359 201.208 27.0601L202.851 29.0314C203.475 29.7543 204.198 30.625 205.019 31.6435C205.545 32.2678 206.071 32.9413 206.662 33.6149C207.253 34.2884 207.861 34.9784 208.486 35.6519C207.202 36.5822 205.652 37.0721 204.066 37.0483H204.099ZM239.945 26.8137C241.676 26.6376 243.295 25.8721 244.529 24.6452C245.367 23.6838 245.833 22.4542 245.843 21.1789C245.856 20.3744 245.678 19.5783 245.324 18.8559C244.97 18.1335 244.45 17.5052 243.806 17.0226C241.982 15.7863 239.792 15.2069 237.596 15.3798H226.392V17.1211L229.481 17.4661V37.574L226.392 37.919V39.6439H236.577C238.283 39.6875 239.985 39.494 241.637 39.069C242.84 38.7706 243.962 38.2096 244.923 37.4262C245.665 36.8493 246.261 36.1066 246.664 35.2577C247.018 34.502 247.197 33.6769 247.19 32.8427C247.202 32.1079 247.063 31.3784 246.78 30.6999C246.497 30.0215 246.078 29.4087 245.547 28.9C243.958 27.6112 241.99 26.8784 239.945 26.8137ZM234.261 21.8853V17.2526H236.183C237.486 17.1489 238.784 17.5097 239.847 18.2711C240.3 18.6817 240.65 19.1928 240.87 19.7635C241.09 20.3341 241.172 20.9483 241.112 21.5567C241.153 22.1959 241.058 22.8365 240.835 23.4366C240.611 24.0368 240.263 24.5829 239.814 25.0394C238.604 25.8909 237.13 26.2813 235.658 26.1401H234.163L234.261 21.8853ZM236.052 37.7054H234.31V27.9308H235.953C237.637 27.7968 239.316 28.2369 240.717 29.1793C241.247 29.6344 241.663 30.2074 241.931 30.8521C242.199 31.4969 242.312 32.1955 242.262 32.892C242.212 36.0791 240.192 37.7219 236.052 37.7219V37.7054Z" fill="black"></path>
<path d="M4.16832 13.41C4.51117 13.4143 4.85145 13.3503 5.16926 13.2216C5.48707 13.0929 5.77603 12.9022 6.01924 12.6605C6.26245 12.4188 6.45503 12.131 6.58572 11.8141C6.71641 11.4971 6.78259 11.1572 6.78038 10.8143C6.85497 10.4358 6.84478 10.0454 6.75053 9.67125C6.65628 9.2971 6.48031 8.94848 6.23527 8.65045C5.99023 8.35241 5.68221 8.11236 5.33335 7.94755C4.98448 7.78274 4.60344 7.69727 4.21761 7.69727C3.83177 7.69727 3.45073 7.78274 3.10186 7.94755C2.753 8.11236 2.44498 8.35241 2.19994 8.65045C1.9549 8.94848 1.77894 9.2971 1.68468 9.67125C1.59043 10.0454 1.58024 10.4358 1.65484 10.8143C1.65031 11.49 1.9111 12.1404 2.38113 12.6258C2.85115 13.1112 3.49288 13.3928 4.16832 13.41ZM5.08829 25.1888C6.09827 24.8952 6.95863 24.2282 7.49462 23.3232C8.03061 22.4182 8.20205 21.3432 7.9741 20.3164C7.74616 19.2896 7.13593 18.388 6.26735 17.7949C5.39878 17.2017 4.33699 16.9614 3.29764 17.1227C2.24051 17.377 1.3251 18.0354 0.747743 18.9567C0.170381 19.878 -0.0229639 20.9889 0.209171 22.0511C0.322139 22.5782 0.538185 23.0778 0.84489 23.5212C1.15159 23.9645 1.54291 24.3428 1.99633 24.6344C2.44975 24.926 2.95634 25.1251 3.48697 25.2203C4.0176 25.3154 4.5618 25.3047 5.08829 25.1888ZM5.08829 45.8717C5.88977 45.6933 6.62008 45.2806 7.18638 44.686C7.75269 44.0914 8.12939 43.3419 8.26861 42.5327C8.40783 41.7235 8.30326 40.8912 7.96822 40.1415C7.63317 39.3919 7.08278 38.7588 6.38701 38.3228C5.69125 37.8868 4.88154 37.6675 4.06083 37.6929C3.24013 37.7183 2.4455 37.9871 1.77798 38.4652C1.11046 38.9434 0.600198 39.6092 0.312074 40.3781C0.0239491 41.147 -0.0290248 41.9842 0.159887 42.7832C0.410336 43.8426 1.06796 44.7607 1.99036 45.3387C2.91277 45.9168 4.02574 46.1083 5.08829 45.8717ZM6.73109 31.4972C6.73327 31.1557 6.66763 30.8172 6.53796 30.5013C6.40829 30.1854 6.21718 29.8984 5.97572 29.6569C5.73425 29.4155 5.44725 29.2244 5.13135 29.0947C4.81544 28.965 4.47694 28.8994 4.13547 28.9016C3.61747 28.8983 3.1102 29.0492 2.67814 29.3349C2.24608 29.6207 1.90874 30.0285 1.70901 30.5064C1.50928 30.9844 1.45617 31.5109 1.55643 32.0191C1.65669 32.5274 1.9058 32.9943 2.27209 33.3606C2.63838 33.7269 3.1053 33.976 3.61352 34.0762C4.12173 34.1765 4.64828 34.1234 5.12624 33.9237C5.60419 33.7239 6.01197 33.3866 6.29773 32.9545C6.5835 32.5225 6.73434 32.0152 6.73109 31.4972ZM20.0378 31.2179C19.215 31.2179 18.4108 31.4621 17.727 31.9195C17.0431 32.377 16.5104 33.0271 16.1963 33.7875C15.8822 34.5479 15.8009 35.3844 15.9626 36.1911C16.1243 36.9978 16.5218 37.7384 17.1047 38.319C17.6876 38.8996 18.4297 39.2941 19.237 39.4526C20.0444 39.6111 20.8806 39.5265 21.6397 39.2094C22.3989 38.8923 23.0469 38.357 23.5016 37.6714C23.9563 36.9857 24.1973 36.1805 24.1941 35.3578C24.1854 34.2597 23.7442 33.2092 22.9662 32.4342C22.1881 31.6592 21.1359 31.2222 20.0378 31.2179ZM20.0378 43.079C19.5205 43.079 19.0148 43.2326 18.5849 43.5203C18.155 43.8081 17.8202 44.217 17.623 44.6952C17.4258 45.1735 17.3751 45.6995 17.4772 46.2067C17.5793 46.7138 17.8297 47.1792 18.1967 47.5438C18.5636 47.9085 19.0306 48.1559 19.5383 48.2549C20.0461 48.3538 20.5718 48.2997 21.0488 48.0995C21.5258 47.8993 21.9326 47.5619 22.2176 47.1302C22.5027 46.6985 22.6531 46.1919 22.6498 45.6746C22.6371 44.9873 22.3573 44.332 21.8697 43.8475C21.3821 43.363 20.7251 43.0874 20.0378 43.079ZM20.0378 27.5873C20.5558 27.5906 21.0631 27.4397 21.4951 27.154C21.9272 26.8682 22.2645 26.4604 22.4642 25.9825C22.664 25.5045 22.7171 24.978 22.6168 24.4698C22.5166 23.9615 22.2674 23.4946 21.9012 23.1283C21.5349 22.762 21.0679 22.5129 20.5597 22.4127C20.0515 22.3124 19.525 22.3655 19.047 22.5653C18.5691 22.765 18.1613 23.1023 17.8755 23.5344C17.5898 23.9664 17.4389 24.4737 17.4422 24.9917C17.44 25.3332 17.5056 25.6717 17.6353 25.9876C17.765 26.3035 17.9561 26.5905 18.1975 26.832C18.439 27.0734 18.726 27.2645 19.0419 27.3942C19.3578 27.5239 19.6963 27.5895 20.0378 27.5873ZM20.4321 17.2213C20.9323 17.14 21.3973 16.9122 21.7681 16.5667C22.139 16.2212 22.399 15.7735 22.5154 15.2802C22.6318 14.7869 22.5993 14.2701 22.422 13.7953C22.2448 13.3205 21.9307 12.9089 21.5195 12.6125C21.1083 12.3162 20.6185 12.1484 20.1119 12.1305C19.6054 12.1125 19.1049 12.2452 18.6738 12.5116C18.2426 12.7781 17.9002 13.1664 17.6897 13.6275C17.4793 14.0886 17.4103 14.6017 17.4914 15.102C17.6083 15.7691 17.9812 16.364 18.5306 16.76C19.08 17.1559 19.7623 17.3214 20.4321 17.2213ZM38.815 24.1374C39.3893 23.5598 39.7796 22.8251 39.9368 22.0259C40.0939 21.2266 40.0109 20.3988 39.6981 19.6467C39.3853 18.8947 38.8568 18.2521 38.1792 17.8001C37.5016 17.348 36.7053 17.1068 35.8908 17.1068C35.0763 17.1068 34.28 17.348 33.6025 17.8001C32.9249 18.2521 32.3964 18.8947 32.0836 19.6467C31.7708 20.3988 31.6877 21.2266 31.8449 22.0259C32.002 22.8251 32.3924 23.5598 32.9666 24.1374C33.3476 24.5269 33.8025 24.8363 34.3046 25.0476C34.8068 25.2588 35.346 25.3676 35.8908 25.3676C36.4356 25.3676 36.9749 25.2588 37.477 25.0476C37.9792 24.8363 38.4341 24.5269 38.815 24.1374ZM35.9072 13.41C36.2501 13.4143 36.5904 13.3503 36.9082 13.2216C37.226 13.0929 37.5149 12.9022 37.7582 12.6605C38.0014 12.4188 38.194 12.131 38.3246 11.8141C38.4553 11.4971 38.5215 11.1572 38.5193 10.8143C38.5479 10.455 38.5017 10.0936 38.3838 9.75301C38.2659 9.41237 38.0788 9.09983 37.8342 8.83503C37.5897 8.57024 37.2929 8.35894 36.9627 8.21442C36.6325 8.0699 36.2759 7.99529 35.9155 7.99529C35.555 7.99529 35.1984 8.0699 34.8682 8.21442C34.538 8.35894 34.2412 8.57024 33.9967 8.83503C33.7521 9.09983 33.565 9.41237 33.4471 9.75301C33.3292 10.0936 33.2831 10.455 33.3116 10.8143C33.3094 11.1558 33.3751 11.4943 33.5048 11.8102C33.6344 12.1261 33.8255 12.4131 34.067 12.6546C34.3085 12.896 34.5955 13.0872 34.9114 13.2168C35.2273 13.3465 35.5658 13.4121 35.9072 13.41ZM35.9072 28.9509C35.3899 28.9509 34.8843 29.1045 34.4544 29.3922C34.0245 29.68 33.6897 30.0889 33.4925 30.5672C33.2953 31.0454 33.2445 31.5714 33.3466 32.0786C33.4488 32.5857 33.6992 33.0511 34.0661 33.4157C34.4331 33.7804 34.9 34.0278 35.4078 34.1268C35.9156 34.2257 36.4413 34.1716 36.9183 33.9714C37.3953 33.7712 37.8021 33.4338 38.0871 33.0021C38.3721 32.5704 38.5226 32.0638 38.5193 31.5465C38.5065 30.8592 38.2267 30.204 37.7392 29.7194C37.2516 29.2349 36.5946 28.9593 35.9072 28.9509ZM35.9072 39.2676C35.3899 39.2677 34.8843 39.4213 34.4544 39.709C34.0245 39.9968 33.6897 40.4057 33.4925 40.8839C33.2953 41.3622 33.2445 41.8882 33.3466 42.3954C33.4488 42.9025 33.6992 43.3679 34.0661 43.7325C34.4331 44.0972 34.9 44.3446 35.4078 44.4436C35.9156 44.5425 36.4413 44.4884 36.9183 44.2882C37.3953 44.088 37.8021 43.7506 38.0871 43.3189C38.3721 42.8872 38.5226 42.3806 38.5193 41.8633C38.5065 41.176 38.2267 40.5207 37.7392 40.0362C37.2516 39.5517 36.5946 39.2761 35.9072 39.2676Z" fill="#FCBC32"></path>
</g>
<defs>
<clipPath id="clip0_1_2060">
<rect width="329" height="56" fill="white"></rect>
</clipPath>
</defs>
</svg>