<svg class="tool" width="247" height="56" viewBox="0 0 247 56" fill="none" xmlns="http://www.w3.org/2000/svg">
<path d="M39.6897 37.0256C39.5036 37.3311 38.9453 37.3478 38.4676 37.0672C38.2396 36.9396 38.0557 36.7459 37.9398 36.5117C37.851 36.3145 37.8482 36.1284 37.9343 35.9868C38.0315 35.8285 38.2343 35.7479 38.4731 35.7479C38.687 35.7479 38.9314 35.8118 39.1564 35.9451C39.6286 36.2256 39.8758 36.7228 39.6897 37.0256ZM67.2147 28.1181C67.2147 37.3061 59.6154 44.7831 50.2747 44.7831H17.4974C8.15393 44.7831 0.554688 37.3089 0.554688 28.1181C0.554688 18.9274 8.15393 11.4531 17.4947 11.4531H50.2719C59.6155 11.4531 67.2147 18.9302 67.2147 28.1181ZM33.2014 36.4784C33.4681 36.1562 32.2349 35.2591 31.9821 34.9313C31.471 34.3842 31.4683 33.5981 31.1211 32.9593C30.2767 31.0317 29.3046 29.118 27.9464 27.4876C26.5077 25.7017 24.7356 24.2241 23.1802 22.5492C22.022 21.3799 21.7137 19.7162 20.6943 18.4552C19.2861 16.4137 14.8394 15.8555 14.1867 18.7413C14.1894 18.8329 14.1617 18.8885 14.0811 18.9468C13.72 19.2051 13.4006 19.4995 13.1312 19.8551C12.4702 20.7577 12.3702 22.2909 13.1923 23.1047C13.2201 22.677 13.234 22.2715 13.5812 21.966C14.2172 22.5048 15.1782 22.6937 15.9143 22.2909C17.5474 24.5824 17.1419 27.7543 18.4362 30.2235C18.7973 30.8067 19.1556 31.4039 19.6139 31.915C19.9889 32.4844 21.2748 33.1593 21.3498 33.687C21.3637 34.5925 21.2554 35.584 21.8609 36.3423C22.1442 36.9117 21.4443 37.4811 20.8832 37.4116C20.15 37.5089 19.2584 36.9256 18.6168 37.2839C18.389 37.5255 17.9474 37.2589 17.7502 37.595C17.6835 37.7672 17.3169 38.0116 17.5363 38.1782C17.778 37.9977 18.0029 37.8088 18.3307 37.9144C18.2807 38.1782 18.4918 38.2143 18.6584 38.2893C18.6529 38.4671 18.5473 38.6504 18.6862 38.8004C18.8473 38.6393 18.9417 38.4115 19.2 38.3477C20.05 39.4614 20.9165 37.2172 22.7552 38.2282C22.3831 38.2116 22.0525 38.256 21.7998 38.5587C21.7359 38.6254 21.6831 38.706 21.7942 38.7948C22.7886 38.1643 22.783 39.0115 23.4274 38.7504C23.9218 38.4949 24.4162 38.1782 25.005 38.2671C24.4329 38.431 24.4106 38.8837 24.0746 39.267C24.019 39.3226 23.9912 39.392 24.0551 39.4892C25.2467 39.3892 25.3439 39.0004 26.3049 38.5226C27.0215 38.0921 27.7353 39.1365 28.3547 38.5421C28.4936 38.4143 28.6797 38.4588 28.8491 38.4393C28.6324 37.3005 26.2493 38.6476 26.2854 37.1228C27.052 36.6089 26.8771 35.6257 26.9298 34.8341C27.8103 35.3146 28.7908 35.5952 29.6573 36.0562C30.0934 36.7478 30.7767 37.6644 31.6905 37.6033L31.7599 37.4033C32.0377 37.4505 32.3932 37.6283 32.5459 37.2839C32.957 37.7116 33.5653 37.6894 34.1041 37.5811C34.5041 37.2589 33.3542 36.8034 33.1986 36.4756L33.2014 36.4784ZM45.5669 31.1012L43.7531 28.6931C42.17 30.4762 41.1145 31.3428 41.0951 31.3595C41.084 31.3678 40.0757 32.3344 39.1564 33.1648C38.2537 33.9787 37.5399 34.6203 37.176 35.3257C37.067 35.5829 37.0099 35.8591 37.008 36.1384C37.0061 36.4178 37.0594 36.6947 37.1649 36.9534C37.401 37.5089 37.8815 37.9033 38.5953 38.1282C38.8092 38.1949 39.012 38.2227 39.2092 38.2227C40.4951 38.2227 41.3395 36.9534 41.3451 36.945C41.3562 36.9284 42.4505 35.3896 43.7809 33.4509C44.2253 32.8065 44.7308 32.1233 45.5669 31.1012ZM54.0938 36.6478C54.0933 36.2916 53.9607 35.9481 53.7216 35.684L53.4966 35.4341L47.2889 28.5153C45.9904 27.0437 44.7335 25.5359 43.5198 23.9935L43.2921 23.5269V22.7048C43.2914 22.4049 43.23 22.1082 43.1115 21.8326L42.6283 20.6994C42.6199 20.6828 42.6171 20.6633 42.6199 20.6467L42.6394 20.4883C42.6394 20.4633 42.6533 20.4411 42.6755 20.4244C43.7874 19.5121 45.1998 19.0476 46.6362 19.1218C46.9223 19.1329 46.9695 18.9829 46.9806 18.9163C47.0195 18.5996 46.2862 18.2302 45.6085 18.0914C44.6725 17.9053 42.1866 17.4053 40.2007 18.6885L40.1841 18.6996C38.9009 19.7551 37.8676 20.5605 37.8565 20.5717L37.8343 20.5939C37.7216 20.7311 37.6377 20.8896 37.5876 21.06C37.5375 21.2303 37.5222 21.4091 37.5427 21.5854C37.5982 21.9382 37.4149 22.066 37.4038 22.0715C37.3927 22.0798 37.1371 22.2382 36.8761 22.0576C36.5566 21.8243 36.0039 22.2243 35.89 22.3159L35.0568 23.0214L35.0401 23.0381C35.0235 23.0547 34.6652 23.4658 35.1457 24.1269C35.5595 24.699 35.704 24.8907 36.0623 25.3295C36.4289 25.7739 37.0844 26.3405 37.1205 26.3683C37.1371 26.3822 37.5371 26.6822 38.0926 26.2655C38.5453 25.9211 38.9092 25.6128 38.9092 25.6128C38.937 25.5878 39.2036 25.3767 39.2147 25.0601V24.8212C39.2064 24.599 39.2064 24.5324 39.3758 24.4268C39.4591 24.4268 39.7063 24.5157 39.9202 24.6213C40.2404 24.7991 40.5984 24.8982 40.9645 24.9101C41.2701 24.949 41.6089 25.2934 41.7256 25.4323C41.7367 25.4434 42.7727 26.5155 44.2309 28.3875C44.5086 28.7458 45.5307 30.0818 45.8085 30.454L47.7389 33.0399C49.0554 34.8008 50.5275 36.7756 51.1968 37.6644C51.419 37.9588 51.744 38.1588 52.1106 38.2282L52.3606 38.2754C52.6199 38.3288 52.8888 38.3104 53.1384 38.2223C53.388 38.1343 53.6088 37.9798 53.7771 37.7755L53.7883 37.7561C53.9879 37.503 54.0956 37.1896 54.0938 36.8673V36.6451V36.6478ZM55.2603 20.8327L54.9687 20.5494C54.9265 20.5078 54.8762 20.4754 54.8209 20.4541C54.7656 20.4328 54.7066 20.4232 54.6474 20.4258C54.5882 20.4284 54.5302 20.4432 54.477 20.4693C54.4238 20.4953 54.3765 20.5321 54.3382 20.5772L52.5245 22.6881C52.4723 22.7486 52.3986 22.7865 52.319 22.7937L51.6746 22.8575C51.6335 22.8617 51.5919 22.8577 51.5524 22.8458C51.5128 22.8339 51.476 22.8143 51.444 22.7881L50.4136 21.9271C50.3808 21.9003 50.3539 21.867 50.3348 21.8292C50.3156 21.7914 50.3046 21.75 50.3025 21.7077L50.2886 21.1994C50.2857 21.1255 50.3105 21.0532 50.358 20.9966L52.1245 18.9052C52.1898 18.8295 52.2257 18.7329 52.2257 18.633C52.2257 18.533 52.1898 18.4364 52.1245 18.3608L51.944 18.1552C51.8864 18.0893 51.8103 18.0423 51.7255 18.0205C51.6407 17.9987 51.5513 18.003 51.469 18.033C50.7075 18.3117 49.9628 18.6344 49.2387 18.9996C48.1638 19.569 47.4167 20.4744 47.2889 21.3605C47.1945 22.0104 47.2334 23.0825 47.2667 23.6602C47.2787 23.8905 47.2258 24.1196 47.1139 24.3213C46.975 24.574 46.7306 24.9795 46.3612 25.4684C46.1696 25.7239 46.0501 25.8211 45.889 26.01L47.8861 28.3209C48.3666 27.7682 48.7888 27.3488 49.1554 26.946C49.8248 26.2128 50.0331 26.2044 50.5914 26.1878C50.9358 26.1739 51.4079 26.16 52.1551 25.9767C54.1938 25.4767 54.8382 23.3047 54.8659 23.2075L55.3714 21.2355C55.3892 21.1649 55.3883 21.0909 55.3688 21.0208C55.3494 20.9507 55.312 20.8868 55.2603 20.8355V20.8327ZM23.9135 34.598C23.6913 35.4396 23.6218 36.8756 22.508 36.9172C22.4164 37.4033 22.8497 37.5866 23.2441 37.4311C23.6357 37.2533 23.8218 37.57 23.9551 37.8866C24.5578 37.9727 25.455 37.6866 25.4855 36.9839C24.5828 36.4728 24.3051 35.4979 23.9107 34.5953L23.9135 34.598Z" fill="#1C3C3C"></path>
<path fill-rule="evenodd" clip-rule="evenodd" d="M75.2148 11.6965V37.1215H92.731V33.2844H79.1908V11.6965H75.2148ZM102.066 17.7305C98.2484 17.7305 95.3932 19.5192 94.235 22.6383L93.9378 23.4396L97.2096 25.5561L97.654 24.3979C98.4123 22.4217 99.8149 21.501 102.066 21.501C104.316 21.501 105.605 22.5925 105.58 24.7437L105.574 25.0936C105.574 25.0936 102.595 25.5769 101.368 25.8366C96.1306 26.9434 93.9378 28.9432 93.9378 32.2137C93.9378 33.9551 94.9043 35.8424 96.6708 36.9007C97.7304 37.5339 99.115 37.7756 100.643 37.7756C101.647 37.7756 102.622 37.6256 103.527 37.3506C105.581 36.6674 106.154 35.3258 106.154 35.3258V37.0798H109.557V24.5395C109.557 20.2761 106.756 17.7305 102.066 17.7305ZM105.593 31.1124C105.593 32.4317 104.159 34.2871 100.815 34.2871C99.8705 34.2871 99.2011 34.0371 98.7553 33.6649C98.4896 33.4428 98.2848 33.1567 98.1604 32.8335C98.036 32.5104 97.996 32.1608 98.0443 31.8179C98.079 31.5443 98.2456 30.9513 98.8609 30.4389C99.49 29.9139 100.601 29.5376 102.319 29.164C103.408 28.9334 104.501 28.7181 105.596 28.5182V31.1152L105.593 31.1124ZM122.139 17.7305C121.667 17.7305 121.204 17.7625 120.757 17.825C117.71 18.2833 116.817 19.8303 116.817 19.8303L116.82 18.2833H113.007V37.084H116.984V26.6546C116.984 23.1119 119.567 21.4982 121.969 21.4982C124.566 21.4982 125.827 22.8939 125.827 25.7658V37.084H129.803V25.22C129.803 20.5969 126.866 17.7278 122.14 17.7278L122.139 17.7305ZM146.397 18.2694V20.2067C146.397 20.2067 145.422 17.7292 140.99 17.7292C135.482 17.7292 132.06 21.5301 132.06 27.6503C132.06 31.1027 133.164 33.8218 135.111 35.5383C136.625 36.8743 138.648 37.5575 141.056 37.6047C142.731 37.6367 143.817 37.1812 144.495 36.7493C145.796 35.9216 146.279 35.1342 146.279 35.1342C146.279 35.1342 146.224 35.7508 146.124 36.584C146.052 37.1867 145.915 37.6117 145.915 37.6117C145.31 39.767 143.538 41.0141 140.956 41.0141C138.373 41.0141 136.808 40.1628 136.498 38.4866L132.632 39.6406C133.299 42.8611 136.322 44.7831 140.715 44.7831C143.703 44.7831 146.045 43.9721 147.676 42.3681C149.322 40.7516 150.157 38.4213 150.157 35.4439V18.2666H146.397V18.2694ZM146.147 27.8183C146.147 31.5818 144.309 33.8302 141.23 33.8302C137.93 33.8302 136.039 31.5762 136.039 27.6475C136.039 23.7202 137.93 21.4996 141.228 21.4996C144.235 21.4996 146.118 23.7368 146.147 27.3392V27.8183ZM173.465 33.2413C174.001 32.2664 174.273 31.118 174.273 29.825C174.273 28.5321 174.044 27.5392 173.589 26.7351C173.162 25.9601 172.567 25.2906 171.847 24.7756C171.164 24.2902 170.42 23.897 169.634 23.6063C168.868 23.3285 168.166 23.1036 167.546 22.9397L163.007 21.6746C162.425 21.5193 161.855 21.3268 161.298 21.0982C160.761 20.8858 160.275 20.5615 159.872 20.1469C159.483 19.7387 159.285 19.2082 159.285 18.5666C159.285 17.8916 159.515 17.2931 159.965 16.7876C160.414 16.2863 161.011 15.896 161.743 15.6294C162.505 15.3571 163.311 15.2272 164.12 15.2461C164.995 15.2697 165.833 15.4488 166.606 15.7808C167.382 16.1141 168.05 16.6029 168.589 17.2362C169.114 17.8541 169.478 18.6054 169.673 19.472L174.062 18.7082C173.687 17.207 173.051 15.903 172.165 14.8364C171.256 13.7439 170.096 12.8865 168.785 12.3367C167.441 11.7604 165.89 11.4646 164.17 11.4535C162.48 11.4423 160.915 11.7118 159.532 12.2575C158.152 12.8005 157.041 13.6296 156.227 14.7198C155.414 15.8071 155.002 17.1723 155.002 18.7749C155.002 19.872 155.185 20.8024 155.548 21.5454C155.909 22.2884 156.382 22.9064 156.95 23.3827C157.522 23.8632 158.136 24.2423 158.778 24.5131C159.424 24.7867 160.032 25.0089 160.589 25.1686L167.133 27.1045C167.605 27.2476 168.028 27.4184 168.389 27.6128C168.753 27.8086 169.056 28.0294 169.288 28.2697C169.524 28.5113 169.704 28.7904 169.824 29.0987C169.945 29.407 170.004 29.7459 170.004 30.1056C170.004 30.9083 169.748 31.5971 169.236 32.1498C168.731 32.6956 168.066 33.1191 167.259 33.4024C166.429 33.6905 165.557 33.8352 164.679 33.8302C163.144 33.8302 161.769 33.4108 160.594 32.5845C159.435 31.7693 158.652 30.6055 158.265 29.1265L154.026 29.7695C154.288 31.3665 154.889 32.7664 155.816 33.9302C156.778 35.131 158.024 36.0744 159.44 36.6757C160.907 37.3145 162.582 37.6367 164.412 37.6367C165.701 37.6367 166.951 37.4728 168.128 37.1479C169.256 36.8466 170.322 36.3502 171.278 35.6813C172.183 35.0441 172.93 34.208 173.461 33.2372L173.465 33.2413ZM194.295 21.8676C194.845 21.5537 195.475 21.394 196.167 21.394C197.289 21.394 198.193 21.769 198.85 22.512C199.505 23.2522 199.84 24.2868 199.84 25.5936V36.9465H203.912V24.5312C203.912 22.5272 203.354 20.8885 202.254 19.6609C201.155 18.4374 199.551 17.8139 197.486 17.8139C196.239 17.8139 195.093 18.093 194.078 18.6416C193.139 19.1454 192.343 19.8788 191.765 20.7733L191.687 20.8927L191.62 20.7677C191.164 19.9204 190.493 19.2075 189.676 18.6999C188.737 18.1138 187.552 17.8153 186.158 17.8153C184.888 17.8153 183.727 18.0972 182.706 18.6499C181.94 19.0607 181.264 19.6207 180.717 20.2969L180.567 20.483V18.286H176.988V36.9465H181.096V25.438C181.096 24.2479 181.432 23.2674 182.095 22.5217C182.759 21.7745 183.652 21.3968 184.753 21.3968C185.853 21.3968 186.794 21.7745 187.454 22.5217C188.109 23.2674 188.443 24.3187 188.443 25.6463V36.9451H192.495V25.438C192.495 24.602 192.659 23.8715 192.981 23.2619C193.277 22.6812 193.733 22.1977 194.296 21.869L194.295 21.8676ZM216.869 32.1692C216.899 33.0367 217.131 33.8853 217.545 34.6481C218.013 35.5167 218.761 36.2011 219.668 36.5896C220.604 36.9993 221.679 37.2228 222.865 37.2506C224.033 37.2784 225.244 37.1812 226.464 36.9576V33.5719C225.316 33.7357 224.276 33.7802 223.375 33.6982C222.424 33.6149 221.722 33.2038 221.286 32.4803C221.057 32.1081 220.932 31.6193 220.914 31.0319C220.897 30.4569 220.888 29.782 220.888 29.0251V21.2718H226.464V18.1152H220.888V11.727H216.834V18.1152H213.386V21.2718H216.834V29.2709C216.834 30.3486 216.845 31.3249 216.869 32.1706V32.1692ZM238.504 17.7014C238.068 17.7014 237.644 17.7292 237.23 17.7833C234.232 18.2513 233.35 19.7789 233.35 19.7789V19.3318L233.349 11.6687H229.372V37.0576H233.349V26.6296C233.349 23.0633 235.933 21.4399 238.334 21.4399C240.931 21.4399 242.192 22.8341 242.192 25.7074V37.059H246.168V25.1603C246.168 20.6316 243.16 17.7028 238.505 17.7028L238.504 17.7014ZM210.714 18.2819H206.757V37.0992H210.715L210.714 18.2819ZM208.735 16.8806C209.073 16.8806 209.409 16.814 209.721 16.6844C210.034 16.5549 210.318 16.365 210.557 16.1257C210.797 15.8864 210.987 15.6022 211.116 15.2895C211.246 14.9768 211.312 14.6416 211.312 14.3031C211.312 13.9647 211.246 13.6295 211.116 13.3168C210.987 13.0041 210.797 12.7199 210.557 12.4806C210.318 12.2412 210.034 12.0514 209.721 11.9218C209.409 11.7923 209.073 11.7256 208.735 11.7256C208.051 11.7256 207.396 11.9972 206.912 12.4806C206.429 12.964 206.157 13.6195 206.157 14.3031C206.157 14.9867 206.429 15.6423 206.912 16.1257C207.396 16.6091 208.051 16.8806 208.735 16.8806Z" fill="black"></path>
</svg>