<svg class="tool" width="123" height="56" viewBox="0 0 123 56" fill="none" xmlns="http://www.w3.org/2000/svg">
<g clip-path="url(#clip0_1_3120)">
<path d="M18.5976 24.9252C18.9103 25.9032 19.0734 26.9225 19.0814 27.9489C19.091 28.9894 18.9304 30.0245 18.6058 31.0135L21.7997 32.8564C22.6022 32.0412 23.5779 31.4158 24.655 31.0261C25.7321 30.6365 26.8832 30.4926 28.0235 30.6049C29.7163 30.7545 31.3073 31.4752 32.5335 32.648C33.8017 33.8347 34.6255 35.4174 34.8685 37.1342C35.1115 38.851 34.7592 40.599 33.8698 42.0891C32.9805 43.5792 31.6074 44.7221 29.9776 45.3288C28.3479 45.9354 26.5592 45.9694 24.9075 45.4252C23.0377 44.8039 21.4814 43.4861 20.5644 41.7473C19.6474 40.0086 19.4407 37.9838 19.9875 36.0966L16.8838 34.2865C15.4821 35.8283 13.6457 36.9122 11.6153 37.396V40.9591C13.4359 41.4616 15.0069 42.615 16.0283 44.1989C17.0496 45.7828 17.4496 47.6862 17.1518 49.5455C16.8541 51.4047 15.8795 53.0894 14.4142 54.2778C12.9489 55.4662 11.0957 56.075 9.20857 55.9878C7.51476 55.9261 5.89082 55.2993 4.59718 54.2079C3.30354 53.1164 2.41518 51.6237 2.07457 49.9689C1.85227 49.0102 1.82963 48.0163 2.00804 47.0485C2.18646 46.0807 2.56214 45.1597 3.11187 44.3424C4.19791 42.6596 5.87972 41.446 7.82277 40.9427C7.82277 39.7782 7.82277 38.6178 7.82277 37.4246C5.14137 36.8607 2.98887 35.5205 1.51287 33.2078C0.396029 31.4883 -0.126582 29.4523 0.0245684 27.4096C0.291068 23.4215 2.82077 19.6623 7.78997 18.5591V15.0573L7.33077 14.8898C4.23117 13.762 2.33287 11.5882 1.97207 8.31932C1.67277 5.59389 2.72647 3.30159 4.89537 1.58543C6.33876 0.424418 8.17628 -0.136239 10.0245 0.0204534C11.6606 0.124791 13.2201 0.748765 14.4744 1.80089C15.7286 2.85302 16.6117 4.27794 16.9941 5.86676C17.3765 7.45557 17.2381 9.12468 16.5992 10.6294C15.9603 12.1341 14.8544 13.3952 13.4439 14.2278C12.8781 14.5506 12.2549 14.7754 11.6153 15.045V18.4774C12.5337 18.886 13.4808 19.2415 14.3787 19.7032C15.2982 20.215 16.121 20.8829 16.81 21.6768L19.8768 19.8789C18.7657 14.8367 21.8571 11.6536 24.6779 10.6443C26.3417 10.0507 28.1605 10.0495 29.8251 10.6409C31.4898 11.2323 32.8977 12.3798 33.8096 13.8884C34.7216 15.3971 35.0813 17.1738 34.8278 18.9169C34.5742 20.6599 33.723 22.2617 32.4187 23.4501C30.1924 25.5422 25.5922 26.719 21.7177 23.1314L18.5976 24.9252ZM3.96467 27.9694C3.80887 30.9359 6.46567 33.4856 9.38487 33.5306C10.8561 33.5539 12.2764 32.9937 13.3332 31.9734C14.3901 30.9531 14.9969 29.5562 15.0203 28.0899C15.0437 26.6237 14.4817 25.2082 13.4579 24.1549C12.4341 23.1017 11.0324 22.4969 9.56117 22.4736C6.49027 22.4205 3.83347 25.0682 3.96467 27.9694ZM13.0298 7.63286C13.0298 6.69166 12.6546 5.78902 11.9868 5.12349C11.319 4.45797 10.4133 4.08408 9.46892 4.08408C8.52452 4.08408 7.61881 4.45797 6.95102 5.12349C6.28323 5.78902 5.90807 6.69166 5.90807 7.63286C5.90807 8.57405 6.28323 9.4767 6.95102 10.1422C7.61881 10.8077 8.52452 11.1816 9.46892 11.1816C10.4133 11.1816 11.319 10.8077 11.9868 10.1422C12.6546 9.4767 13.0298 8.57405 13.0298 7.63286ZM9.47507 51.9221C10.4165 51.9221 11.3196 51.5508 11.9872 50.8893C12.6548 50.2278 13.0326 49.3299 13.038 48.3917C13.038 47.4494 12.6624 46.5457 11.9938 45.8794C11.3253 45.2132 10.4185 44.8388 9.47302 44.8388C8.52753 44.8388 7.62078 45.2132 6.95222 45.8794C6.28366 46.5457 5.90807 47.4494 5.90807 48.3917C5.91241 49.3309 6.29039 50.2301 6.9591 50.892C7.62781 51.5538 8.53263 51.9243 9.47507 51.9221ZM30.8238 17.8072C30.8265 17.3423 30.737 16.8813 30.5604 16.4509C30.3839 16.0205 30.1237 15.6291 29.7949 15.2991C29.4662 14.9692 29.0752 14.7072 28.6446 14.5283C28.2139 14.3493 27.752 14.257 27.2855 14.2564C26.34 14.2564 25.4332 14.6307 24.7647 15.297C24.0961 15.9633 23.7205 16.867 23.7205 17.8093C23.7205 18.7516 24.0961 19.6553 24.7647 20.3215C25.4332 20.9878 26.34 21.3622 27.2855 21.3622C27.7522 21.3611 28.2142 21.2682 28.6449 21.0888C29.0756 20.9094 29.4665 20.6471 29.7952 20.3168C30.1239 19.9866 30.384 19.5949 30.5605 19.1642C30.737 18.7336 30.8265 18.2724 30.8238 17.8072ZM27.306 34.6583C26.8391 34.6502 26.3753 34.7344 25.9412 34.906C25.5072 35.0775 25.1116 35.3331 24.7772 35.658C24.4429 35.9828 24.1765 36.3705 23.9933 36.7985C23.8102 37.2266 23.714 37.6866 23.7103 38.1519C23.7021 39.0937 24.0697 40.0001 24.7321 40.6717C25.3945 41.3434 26.2975 41.7253 27.2424 41.7334C28.1874 41.7415 29.0968 41.3752 29.7708 40.7151C30.4447 40.0549 30.8279 39.155 30.8361 38.2132C30.8399 37.7484 30.7514 37.2875 30.5758 36.8569C30.4002 36.4263 30.1409 36.0345 29.8128 35.7041C29.4847 35.3738 29.0944 35.1113 28.6642 34.9318C28.2339 34.7523 27.7724 34.6594 27.306 34.6583Z" fill="black"></path>
<path d="M41.7954 41.4167C41.656 40.7507 41.6765 14.6814 41.7954 14.2401H45.428V30.6212C45.7847 30.2984 46.0676 30.0614 46.33 29.804C47.5887 28.5782 48.8474 27.3115 50.0897 26.0489C50.2201 25.903 50.3818 25.7883 50.5628 25.7133C50.7438 25.6383 50.9395 25.605 51.1352 25.6158C52.3652 25.6444 53.5952 25.6158 54.8252 25.6158C55.0015 25.6158 55.1819 25.6158 55.5017 25.6566C53.2057 27.9367 50.9343 30.0451 48.6834 32.2761C51.0655 35.2916 53.5091 38.2418 55.9281 41.3023C55.7951 41.3495 55.6577 41.3837 55.5181 41.4044C54.2143 41.4044 52.9146 41.4044 51.6108 41.4044C51.442 41.3993 51.2775 41.3502 51.1336 41.262C50.9898 41.1738 50.8716 41.0497 50.7908 40.9019L46.2808 35.1813C46.2029 35.0792 46.1127 34.9893 46.0307 34.8912C45.839 34.9769 45.6798 35.1215 45.5766 35.3039C45.4733 35.4862 45.4313 35.6967 45.4567 35.9046C45.4813 37.5022 45.4567 39.0999 45.4567 40.6975V41.3595C44.2021 41.4616 43.009 41.4004 41.7954 41.4167Z" fill="black"></path>
<path d="M89.5932 30.5967C90.1713 30.0328 90.6551 29.567 91.1348 29.0889C92.1762 28.0552 93.2217 27.0214 94.2508 25.9753C94.3557 25.8577 94.4856 25.7648 94.6309 25.7034C94.7763 25.6419 94.9335 25.6134 95.0913 25.6198C96.4115 25.6198 97.7317 25.6198 99.0519 25.6198C99.1831 25.6198 99.3102 25.6198 99.4619 25.6198C99.3184 25.9712 98.2934 26.9969 97.2971 27.8917C96.5263 28.5823 95.8088 29.33 95.0626 30.0492C94.3164 30.7683 93.5456 31.4997 92.7584 32.2516L100.04 41.3227C99.9066 41.3669 99.7694 41.3984 99.63 41.4167C98.3098 41.4167 96.9896 41.4167 95.6694 41.4167C95.5388 41.4236 95.4087 41.3968 95.2916 41.3388C95.1745 41.2808 95.0744 41.1936 95.0011 41.0857C93.5087 39.1789 92.0054 37.272 90.4911 35.3652C90.364 35.2058 90.2328 35.0546 90.1016 34.8994C89.9317 34.9734 89.7895 35.0989 89.6952 35.2581C89.601 35.4173 89.5596 35.602 89.5768 35.7861C89.5768 37.4205 89.5768 39.0549 89.5768 40.6894V41.2778C89.0807 41.4576 86.3911 41.4657 85.854 41.3064V14.2401H89.544C89.6178 15.6048 89.5686 16.9491 89.5768 18.2975C89.585 19.646 89.5768 21.0066 89.5768 22.3591V26.4207C89.5932 27.7732 89.5932 29.1257 89.5932 30.5967Z" fill="black"></path>
<path d="M115.69 41.3799H112.028C111.778 40.9509 112.028 40.4728 111.844 39.9948C111.717 40.0806 111.598 40.1459 111.491 40.2318C110.267 41.2703 108.718 41.85 107.111 41.8709C105.503 41.8918 103.939 41.3525 102.689 40.3462C101.87 39.6934 101.188 38.8853 100.685 37.9687C100.181 37.052 99.864 36.0449 99.753 35.0056C99.4788 33.366 99.6429 31.6832 100.229 30.1268C101.233 27.6139 102.98 25.8855 105.719 25.3502C106.738 25.1369 107.794 25.1711 108.797 25.4499C109.8 25.7287 110.722 26.2438 111.483 26.9519L111.893 27.3197L111.93 25.6852C113.201 25.6158 114.39 25.6607 115.657 25.6525C115.693 25.8402 115.718 26.0299 115.731 26.2205C115.731 31.1075 115.731 35.9945 115.731 40.8814C115.731 41.0081 115.706 41.1552 115.69 41.3799ZM112.135 33.649C112.22 32.3919 111.846 31.1465 111.081 30.1432C110.424 29.3441 109.497 28.8121 108.474 28.6473C107.45 28.4825 106.402 28.6962 105.526 29.2483C104.784 29.7475 104.212 30.4601 103.886 31.2914C103.346 32.6683 103.314 34.1917 103.796 35.5899C104.085 36.4913 104.66 37.2744 105.436 37.821C106.92 38.9038 109.818 38.8343 111.225 36.7749C111.863 35.86 112.182 34.7621 112.135 33.649Z" fill="black"></path>
<path d="M71.5737 25.6321V41.2859C71.135 41.4534 68.4905 41.478 67.855 41.3145V39.8721C67.5393 40.1132 67.3056 40.2807 67.0678 40.4769C65.9609 41.3441 64.601 41.8289 63.1933 41.858C62.0566 41.9045 60.9257 41.673 59.8994 41.1836C58.8732 40.6943 57.9827 39.9621 57.3057 39.0508C56.2779 37.6928 55.6759 36.0622 55.5755 34.3641C55.4235 32.8843 55.6272 31.3898 56.17 30.0042C57.0884 27.765 58.63 26.1387 61.0285 25.4809C62.0802 25.1587 63.197 25.1093 64.2732 25.3374C65.3494 25.5655 66.3494 26.0635 67.1785 26.7844L67.8222 27.3115V25.6484C69.0973 25.6076 70.3109 25.628 71.5737 25.6321ZM68.1256 33.5591C68.0523 32.9484 67.9428 32.3426 67.7976 31.7449C67.5621 30.849 67.0372 30.0553 66.3039 29.4863C65.5707 28.9174 64.6699 28.6048 63.7407 28.5969C62.8114 28.589 61.9054 28.8862 61.1625 29.4426C60.4197 29.999 59.8812 30.7837 59.6304 31.6754C59.3179 32.6842 59.2671 33.7554 59.4828 34.789C59.8436 36.7626 61.3893 38.6504 63.9395 38.4665C64.6302 38.4497 65.3047 38.2549 65.8975 37.9012C66.4903 37.5475 66.981 37.0468 67.322 36.448C67.8283 35.5658 68.1046 34.5711 68.1256 33.555V33.5591Z" fill="black"></path>
<path d="M83.1972 14.3463V18.1177C82.9512 18.0115 82.7872 17.942 82.5945 17.8521C82.1259 17.6143 81.622 17.4529 81.1021 17.3741C80.9138 17.3246 80.7169 17.3165 80.5252 17.3506C80.3335 17.3846 80.1515 17.4598 79.9919 17.571C79.8323 17.6823 79.6989 17.8268 79.601 17.9946C79.5032 18.1624 79.4432 18.3494 79.4252 18.5427C79.3476 18.9663 79.3037 19.3953 79.294 19.8257C79.294 21.5909 79.294 23.3602 79.294 25.1377C79.294 25.2848 79.294 25.4278 79.3309 25.6402H83.0906C83.2751 26.1224 83.2915 28.57 83.1234 29.1543H79.3063C79.3063 30.5599 79.3063 31.9042 79.3063 33.2404C79.3063 34.5765 79.3063 35.9086 79.3063 37.2448V41.2737C78.8963 41.4534 76.3666 41.5025 75.563 41.3513C75.5056 40.0233 75.563 38.6749 75.5384 37.3347C75.5138 35.9944 75.5384 34.6297 75.5384 33.2731C75.5384 31.9165 75.5384 30.5763 75.5384 29.187L74.3412 29.1298C74.1735 27.9767 74.1735 26.8056 74.3412 25.6525H75.5056C75.5056 25.4073 75.5302 25.2112 75.5302 25.011C75.5302 22.9679 75.5302 20.9249 75.5507 18.8818C75.581 18.2463 75.6744 17.6153 75.8295 16.9981C75.9427 16.4713 76.1707 15.9758 76.4973 15.5465C76.8239 15.1172 77.2412 14.7646 77.7196 14.5138C79.5031 13.4964 81.3317 13.5454 83.1972 14.3463Z" fill="black"></path>
<path d="M120.216 35.8841C120.763 35.8858 121.297 36.0484 121.751 36.3517C122.205 36.6549 122.559 37.0852 122.768 37.5884C122.977 38.0916 123.033 38.6453 122.927 39.1798C122.822 39.7142 122.56 40.2057 122.175 40.5923C121.79 40.9789 121.299 41.2434 120.763 41.3525C120.227 41.4616 119.672 41.4105 119.165 41.2056C118.659 41.0007 118.224 40.6511 117.917 40.2008C117.609 39.7505 117.442 39.2196 117.436 38.6749C117.426 38.3073 117.49 37.9413 117.626 37.5993C117.761 37.2572 117.965 36.9462 118.225 36.6852C118.485 36.4242 118.796 36.2186 119.138 36.0809C119.48 35.9431 119.847 35.8762 120.216 35.8841ZM120.237 36.4602C119.946 36.4473 119.656 36.494 119.384 36.5974C119.112 36.7007 118.864 36.8586 118.656 37.0612C118.447 37.2638 118.283 37.5068 118.173 37.7752C118.062 38.0437 118.009 38.3318 118.014 38.6218C118.01 38.9083 118.062 39.1929 118.168 39.4593C118.274 39.7257 118.432 39.9687 118.632 40.1743C118.833 40.38 119.072 40.5443 119.336 40.6579C119.6 40.7715 119.883 40.8322 120.171 40.8365C120.463 40.8424 120.753 40.7908 121.025 40.6846C121.296 40.5785 121.544 40.4198 121.754 40.2178C121.964 40.0158 122.132 39.7744 122.248 39.5075C122.364 39.2406 122.426 38.9535 122.43 38.6627C122.439 38.3727 122.389 38.084 122.282 37.8141C122.176 37.5442 122.015 37.2988 121.81 37.0927C121.605 36.8867 121.361 36.7243 121.091 36.6156C120.821 36.5069 120.532 36.454 120.241 36.4602H120.237Z" fill="black"></path>
<path d="M67.9493 19.0535H67.2605V17.0105H65.477L65.4319 19.0535H64.6857V14.5139H65.4196C65.4196 14.8121 65.4483 15.09 65.4524 15.3638C65.4565 15.6375 65.4524 15.8827 65.4524 16.2055C66.0551 16.2464 66.6127 16.2055 67.24 16.2055V14.5139H67.9411C68.0969 14.9797 68.1051 18.5019 67.9493 19.0535Z" fill="black"></path>
<path d="M71.5819 19.0617H69.0809C68.9407 17.5604 68.9257 16.0502 69.0358 14.5465C69.8683 14.4418 70.71 14.4308 71.545 14.5138V15.2248H69.8312V16.1483L71.4712 16.2096V16.9492H69.9132C69.775 17.3967 69.7664 17.874 69.8886 18.3262H71.5491L71.5819 19.0617Z" fill="black"></path>
<path d="M50.6063 14.2891L52.7465 19.0494H51.9019L51.414 18.0238H49.61C49.5198 18.1913 49.4214 18.367 49.3312 18.5509C49.0401 19.1556 49.036 19.1597 48.2775 19.0126C48.9909 17.419 49.733 15.8581 50.471 14.2972L50.6063 14.2891ZM50.512 16.0052C50.2748 16.383 50.1016 16.7972 49.9995 17.2311H51.0696C50.9261 16.8919 50.8072 16.6018 50.6801 16.3117C50.6294 16.2067 50.5733 16.1044 50.512 16.0052Z" fill="black"></path>
<path d="M56.4816 19.0576H55.6616C55.9773 18.179 56.3873 17.4231 56.7522 16.6059C57.1171 15.7887 57.4779 15.0491 57.9002 14.1542C58.6874 15.7887 59.3803 17.3659 60.106 19.0208L59.3106 19.1025L58.7858 18.0115H56.99L56.4816 19.0576ZM58.4783 17.227L57.9125 15.9562L57.3221 17.227H58.4783Z" fill="black"></path>
<path d="M53.2508 14.5465C53.8396 14.4189 54.4509 14.4386 55.0302 14.6037C55.2969 14.7001 55.5267 14.8771 55.6876 15.1101C55.8484 15.343 55.9322 15.6201 55.9272 15.9028C55.9222 16.1855 55.8287 16.4596 55.6598 16.6868C55.4909 16.9139 55.255 17.0828 54.9851 17.1698C54.7145 17.2474 54.4316 17.2761 54.079 17.3373L54.038 19.0494H53.3369C53.2342 18.5593 53.2066 18.0564 53.2549 17.558C53.2549 17.0717 53.2549 16.5814 53.2549 16.0911L53.2508 14.5465ZM54.0708 15.2943V16.4629C54.4357 16.5079 54.7719 16.5446 55.0138 16.2341C55.0865 16.1465 55.1303 16.0386 55.1391 15.9252C55.1479 15.8118 55.1213 15.6985 55.063 15.6008C54.8662 15.2289 54.53 15.2207 54.0872 15.2943H54.0708Z" fill="black"></path>
<path d="M63.7509 17.9257V18.743C62.8448 19.4458 61.4467 19.1516 60.7743 18.4161C60.3833 18.0028 60.1551 17.4627 60.1317 16.8952C60.1084 16.3276 60.2914 15.7708 60.6472 15.327C60.9975 14.8584 61.5133 14.5399 62.0903 14.436C62.6672 14.3321 63.2623 14.4504 63.755 14.7672V15.5354C63.5131 15.5721 63.3778 15.3842 63.2015 15.3065C63.0062 15.2119 62.7933 15.1589 62.5763 15.1509C62.3593 15.1429 62.143 15.1801 61.9412 15.2601C61.7394 15.34 61.5566 15.461 61.4044 15.6154C61.2522 15.7697 61.1339 15.954 61.0572 16.1565C60.9711 16.3552 60.9262 16.5693 60.9255 16.7858C60.9247 17.0022 60.9679 17.2166 61.0526 17.416C61.1373 17.6154 61.2617 17.7955 61.4182 17.9456C61.5747 18.0958 61.7601 18.2127 61.9633 18.2894C62.1651 18.3691 62.382 18.4038 62.5988 18.3911C62.8155 18.3784 63.0268 18.3186 63.2179 18.2158C63.3778 18.1423 63.55 18.0483 63.7509 17.9257Z" fill="black"></path>
<path d="M119.827 39.1735V40.146H119.351C119.351 39.1489 119.351 38.1683 119.351 37.1386C119.68 37.1162 120.01 37.1162 120.339 37.1386C120.51 37.1512 120.673 37.2172 120.805 37.3272C120.937 37.4372 121.031 37.5856 121.073 37.7515C121.132 37.9416 121.123 38.1462 121.049 38.3307C120.974 38.5153 120.838 38.6686 120.663 38.7649C120.602 38.8057 120.536 38.8425 120.454 38.8915L121.36 40.0928C121.02 40.2399 120.798 40.2318 120.606 39.9743C120.413 39.7169 120.167 39.4186 119.95 39.1571L119.827 39.1735ZM119.88 38.3562C120.126 38.3848 120.36 38.4461 120.499 38.2173C120.529 38.1534 120.545 38.0837 120.545 38.013C120.545 37.9424 120.529 37.8726 120.499 37.8087C120.36 37.5554 120.118 37.5799 119.864 37.6453L119.88 38.3562Z" fill="black"></path>
</g>
<defs>
<clipPath id="clip0_1_3120">
<rect width="123" height="56" fill="white"></rect>
</clipPath>
</defs>
</svg>