<svg class="tool" xmlns="http://www.w3.org/2000/svg" width="165" height="56" fill="none" viewBox="0 0 165 56">
  <g clip-path="url(#a)">
    <path fill="#000" d="M.073 44.493V16.025h5.661v3.478h.256c.252-.558.616-1.124 1.092-1.699.485-.584 1.114-1.07 1.887-1.456.782-.395 1.753-.593 2.912-.593 1.51 0 2.902.396 4.178 1.187 1.276.781 2.296 1.963 3.06 3.545.764 1.572 1.146 3.545 1.146 5.917 0 2.31-.373 4.26-1.119 5.85-.737 1.582-1.743 2.781-3.02 3.599-1.266.809-2.686 1.213-4.259 1.213-1.114 0-2.062-.184-2.844-.553-.773-.368-1.406-.83-1.9-1.388a7.045 7.045 0 0 1-1.133-1.712h-.175v11.08H.073Zm5.62-18.116c0 1.231.171 2.305.513 3.222.341.916.836 1.63 1.483 2.143.647.503 1.433.755 2.358.755.935 0 1.726-.257 2.373-.769.647-.52 1.137-1.24 1.47-2.156.34-.926.511-1.99.511-3.195 0-1.195-.166-2.246-.498-3.154-.333-.908-.823-1.618-1.47-2.13-.647-.512-1.442-.768-2.386-.768-.934 0-1.725.247-2.372.741-.638.494-1.128 1.195-1.47 2.103-.34.908-.511 1.977-.511 3.208ZM33.42 44.925c-1.86 0-3.455-.257-4.785-.769-1.32-.503-2.372-1.19-3.154-2.062-.782-.872-1.29-1.851-1.523-2.939l5.31-.714c.163.413.419.8.77 1.16.35.359.813.646 1.388.862.584.224 1.294.337 2.13.337 1.248 0 2.277-.306 3.086-.917.818-.602 1.227-1.613 1.227-3.033v-3.787h-.243a5.462 5.462 0 0 1-1.132 1.63c-.503.513-1.15.93-1.941 1.254-.791.324-1.734.486-2.83.486-1.555 0-2.97-.36-4.247-1.079-1.267-.728-2.278-1.837-3.033-3.33-.745-1.5-1.118-3.396-1.118-5.687 0-2.346.381-4.305 1.145-5.877.764-1.573 1.78-2.75 3.047-3.532a7.873 7.873 0 0 1 4.192-1.173c1.159 0 2.13.198 2.911.593.782.387 1.411.872 1.887 1.456a7.807 7.807 0 0 1 1.12 1.699h.215v-3.478h5.702V36.93c0 1.762-.432 3.235-1.294 4.422-.863 1.186-2.058 2.075-3.586 2.668-1.519.602-3.267.904-5.243.904Zm.122-12.806c.925 0 1.707-.229 2.345-.687.647-.467 1.142-1.133 1.483-1.995.35-.872.526-1.914.526-3.127 0-1.213-.171-2.265-.513-3.154-.341-.9-.835-1.596-1.482-2.09-.647-.494-1.434-.741-2.36-.741-.943 0-1.738.256-2.385.768-.647.503-1.137 1.204-1.47 2.103-.332.898-.498 1.936-.498 3.114 0 1.195.166 2.228.499 3.1.341.863.831 1.532 1.469 2.008.647.468 1.442.701 2.386.701Zm33.873-16.094-7.238 20.704h-6.47l-7.239-20.704h6.066l4.3 14.814h.216l4.286-14.814h6.08Zm11.707 21.108c-2.13 0-3.963-.43-5.5-1.294-1.527-.871-2.704-2.102-3.531-3.693-.827-1.6-1.24-3.491-1.24-5.675 0-2.13.413-3.998 1.24-5.607.827-1.608 1.99-2.862 3.491-3.76 1.51-.9 3.28-1.349 5.31-1.349 1.367 0 2.638.22 3.816.66a8.463 8.463 0 0 1 3.1 1.955c.89.872 1.581 1.968 2.076 3.29.494 1.311.74 2.848.74 4.61v1.576H71.143v-3.558H83.22c0-.827-.18-1.56-.54-2.197a3.862 3.862 0 0 0-1.496-1.497c-.629-.368-1.361-.552-2.197-.552-.871 0-1.644.202-2.318.606a4.252 4.252 0 0 0-1.564 1.604 4.53 4.53 0 0 0-.58 2.224v3.384c0 1.024.19 1.91.567 2.655a4.14 4.14 0 0 0 1.63 1.725c.702.405 1.533.607 2.494.607.638 0 1.223-.09 1.753-.27.53-.18.984-.449 1.361-.808.377-.36.665-.8.863-1.321l5.31.35a7.251 7.251 0 0 1-1.657 3.343c-.827.944-1.896 1.68-3.208 2.21-1.303.522-2.809.782-4.516.782Zm22.605 0c-2.121 0-3.945-.449-5.473-1.347-1.519-.908-2.687-2.166-3.504-3.775-.81-1.608-1.214-3.46-1.214-5.553 0-2.12.41-3.981 1.227-5.58.827-1.609 2-2.863 3.518-3.761 1.519-.908 3.325-1.362 5.419-1.362 1.806 0 3.388.328 4.745.984 1.356.656 2.43 1.577 3.221 2.764.791 1.186 1.227 2.579 1.308 4.178h-5.419c-.153-1.033-.557-1.864-1.213-2.494-.647-.638-1.496-.957-2.548-.957-.889 0-1.667.243-2.332.728-.656.477-1.168 1.173-1.536 2.09-.369.916-.553 2.026-.553 3.329 0 1.321.18 2.444.54 3.37.368.925.884 1.63 1.55 2.116.664.485 1.442.728 2.331.728.656 0 1.245-.135 1.766-.404.53-.27.966-.66 1.307-1.173.351-.521.58-1.146.688-1.874h5.419c-.09 1.582-.522 2.975-1.294 4.179-.764 1.195-1.82 2.13-3.168 2.803-1.348.675-2.943 1.011-4.785 1.011Zm23.936-21.108v4.313h-12.469v-4.313h12.469Zm-9.638-4.96h5.742v19.302c0 .53.081.943.243 1.24.161.288.386.49.674.607.296.116.638.175 1.024.175.27 0 .539-.023.809-.068.269-.053.476-.094.62-.12l.903 4.272c-.288.09-.692.193-1.213.31-.521.126-1.155.202-1.901.23-1.384.053-2.597-.131-3.639-.553-1.034-.423-1.838-1.079-2.413-1.968-.575-.89-.858-2.013-.849-3.37V11.065Zm22.51 26.068c-2.094 0-3.904-.444-5.432-1.334-1.519-.899-2.691-2.148-3.518-3.747-.827-1.609-1.24-3.473-1.24-5.594 0-2.139.413-4.008 1.24-5.607.827-1.609 1.999-2.858 3.518-3.748 1.528-.898 3.338-1.348 5.432-1.348 2.094 0 3.9.45 5.419 1.348 1.528.89 2.705 2.139 3.532 3.747.826 1.6 1.24 3.47 1.24 5.608 0 2.12-.414 3.985-1.24 5.594-.827 1.6-2.004 2.848-3.532 3.747-1.519.89-3.325 1.334-5.419 1.334Zm.027-4.448c.953 0 1.748-.27 2.386-.808.638-.549 1.119-1.294 1.442-2.238.333-.944.499-2.017.499-3.221 0-1.205-.166-2.278-.499-3.222-.323-.944-.804-1.69-1.442-2.238-.638-.548-1.433-.822-2.386-.822-.961 0-1.77.274-2.426.822-.647.549-1.137 1.294-1.469 2.238-.324.944-.486 2.017-.486 3.221 0 1.205.162 2.278.486 3.222.332.944.822 1.69 1.469 2.238.656.539 1.465.808 2.426.808Zm13.897 4.045V16.024h5.567v3.612h.216c.377-1.285 1.011-2.255 1.901-2.911.889-.665 1.914-.998 3.073-.998.287 0 .597.018.93.054.332.036.624.086.876.149v5.095a7.493 7.493 0 0 0-1.119-.216 10.046 10.046 0 0 0-1.307-.094c-.845 0-1.6.184-2.265.552a4.065 4.065 0 0 0-1.563 1.51c-.378.647-.566 1.393-.566 2.238v11.713h-5.743Z"></path>
  </g>
  <defs>
    <clipPath id="a">
      <path fill="#fff" d="M0 0h164.989v56H0z"></path>
    </clipPath>
  </defs>
</svg>