<?xml version="1.0" encoding="UTF-8"?> <svg xmlns="http://www.w3.org/2000/svg" id="Layer_2" data-name="Layer 2" viewBox="0 0 129.9 29.68"><defs><style> .cls-1 { fill: #fff; } </style></defs><g id="Layer_1-2" data-name="Layer 1"><g><path class="cls-1" d="M117.25,0h-6.61l-12.52,29.68h6.57l2.65-7.07h12.9l2.73,7.07h6.94L117.25,0ZM109.35,17.32l4.34-11.41,4.51,11.41h-8.85Z"></path><path class="cls-1" d="M27.49,16.58c-.33-.85-.83-1.58-1.49-2.19-.72-.69-1.54-1.16-2.48-1.43-.94-.26-1.89-.42-2.85-.48-.33-.03-.66-.04-.99-.04s-.65-.01-.95-.04l-8.27.04c-1.05,0-1.96-.25-2.75-.74-.79-.5-1.18-1.32-1.18-2.48,0-1.52.46-2.54,1.39-3.08.92-.54,2.06-.82,3.41-.85h15.42V0L10.42.04C7.25.04,4.73.67,2.87,1.92,1.01,3.18.06,5.53,0,8.97c-.03,3.28.85,5.55,2.63,6.8,1.78,1.25,4.2,1.87,7.25,1.84l7.36.04c1.13.03,2.11.19,2.93.5.83.3,1.31,1.1,1.45,2.4.19,1.65-.21,2.71-1.22,3.18-1.01.47-2.2.69-3.58.66H1.2v5.29h16.62c2.17,0,4.03-.29,5.59-.87l4.57-10.56c-.11-.57-.27-1.13-.48-1.68Z"></path><polygon class="cls-1" points="98.83 0 89.69 22.12 84.23 8.6 77.47 8.6 86.63 29.68 93.08 29.68 105.48 0 98.83 0"></polygon><polygon class="cls-1" points="80.76 0 80.31 0 73.74 0 51.18 0 53.45 5.21 64.23 5.21 64.23 29.68 70.68 29.68 70.68 5.21 76 5.21 76 5.21 82.87 5.21 80.76 0"></polygon><path class="cls-1" d="M40.36,0l-9.04,21.42-3.49,8.26h6.57l2.65-7.07h12.9l2.73,7.07h6.94L46.98,0h-6.61ZM39.08,17.32l4.34-11.41,4.51,11.41h-8.85Z"></path></g></g></svg> 