<svg width="56" height="56" viewBox="0 0 56 56" fill="none" xmlns="http://www.w3.org/2000/svg">
<path d="M20.0789 9.51953H14.7983C13.3977 9.51953 12.0546 10.0759 11.0643 11.0662C10.0739 12.0565 9.51758 13.3997 9.51758 14.8002V46.4842C9.51758 47.8848 10.0739 49.2279 11.0643 50.2182C12.0546 51.2086 13.3977 51.7649 14.7983 51.7649H41.2016C42.6021 51.7649 43.9453 51.2086 44.9356 50.2182C45.9259 49.2279 46.4823 47.8848 46.4823 46.4842V14.8002C46.4823 13.3997 45.9259 12.0565 44.9356 11.0662C43.9453 10.0759 42.6021 9.51953 41.2016 9.51953H35.9209" stroke="#127AFF" stroke-width="2.7" stroke-linecap="round" stroke-linejoin="round"/>
<path d="M20.0791 9.517C20.0791 8.11648 20.6355 6.77332 21.6258 5.783C22.6161 4.79268 23.9593 4.23633 25.3598 4.23633H30.6404C32.041 4.23633 33.3841 4.79268 34.3744 5.783C35.3648 6.77332 35.9211 8.11648 35.9211 9.517C35.9211 10.9175 35.3648 12.2607 34.3744 13.251C33.3841 14.2413 32.041 14.7977 30.6404 14.7977H25.3598C23.9593 14.7977 22.6161 14.2413 21.6258 13.251C20.6355 12.2607 20.0791 10.9175 20.0791 9.517Z" stroke="#127AFF" stroke-width="2.7" stroke-linecap="round" stroke-linejoin="round"/>
<path d="M20.0791 33.2807L25.3598 38.5613L35.9211 28" stroke="#127AFF" stroke-width="2.7" stroke-linecap="round" stroke-linejoin="round"/>
</svg>
