<svg width="56" height="56" viewBox="0 0 56 56" fill="none" xmlns="http://www.w3.org/2000/svg">
<path d="M50.4592 23.3465V41.8479C50.4592 43.1574 49.3975 44.2191 48.088 44.2191H7.91129C6.61928 44.2191 5.54004 43.1399 5.54004 41.8479V15.0939C5.54004 13.8019 6.61928 12.7227 7.91129 12.7227H34.9633C34.4443 13.8995 34.1565 15.2008 34.1565 16.5689C34.1565 16.6573 34.1575 16.7457 34.1606 16.8341C34.2192 19.0213 35.0137 21.0246 36.3047 22.6075L35.6366 26.6593L39.8025 25.2933C40.3996 25.5626 41.0297 25.7712 41.6845 25.9131C42.3392 26.0539 43.0186 26.1289 43.7165 26.1289C44.6292 26.1289 45.5122 26.0015 46.3478 25.762C47.9225 25.3128 49.3306 24.47 50.4592 23.3465Z" stroke="#127AFF" stroke-width="2.7" stroke-miterlimit="10" stroke-linecap="round" stroke-linejoin="round"/>
<path d="M31.9401 48.993H50.7625C52.1558 48.993 53.2852 47.8636 53.2852 46.4704V44.2188H2.71484V46.4704C2.71484 47.8636 3.84425 48.993 5.2375 48.993H22.8988" stroke="#127AFF" stroke-width="2.7" stroke-miterlimit="10" stroke-linecap="round" stroke-linejoin="round"/>
<path d="M40.3737 37.8162H11.7959V26.3262H17.231L20.2928 29.388H24.4488L26.982 31.9211L30.712 28.1911L35.11 32.5891H40.3737" stroke="#127AFF" stroke-width="2.7" stroke-miterlimit="10" stroke-linecap="round" stroke-linejoin="round"/>
<path d="M43.7174 7.00781C38.4374 7.00781 34.1572 11.288 34.1572 16.568C34.1572 18.8581 34.9629 20.9598 36.3056 22.6061H36.3055L35.6373 26.6576L39.8031 25.2925C40.9978 25.8293 42.3227 26.1282 43.7173 26.1282C48.9972 26.1282 53.2774 21.848 53.2774 16.5681C53.2774 11.2881 48.9972 7.00781 43.7174 7.00781Z" stroke="#127AFF" stroke-width="2.7" stroke-miterlimit="10" stroke-linecap="round" stroke-linejoin="round"/>
<path d="M39.4503 14.6419L37.4854 16.6321L39.5543 18.6337C41.9177 20.9199 45.5218 20.9199 47.8852 18.6337L49.9541 16.6321L47.9892 14.6419C45.5964 12.2183 41.8431 12.2183 39.4503 14.6419Z" stroke="#127AFF" stroke-width="2.7" stroke-miterlimit="10" stroke-linecap="round" stroke-linejoin="round"/>
<path d="M43.7193 17.1652C44.9181 17.1652 45.8899 16.1935 45.8899 14.9947C45.8899 13.796 44.9181 12.8242 43.7193 12.8242C42.5206 12.8242 41.5488 13.796 41.5488 14.9947C41.5488 16.1935 42.5206 17.1652 43.7193 17.1652Z" stroke="#127AFF" stroke-width="2.7" stroke-miterlimit="10" stroke-linecap="round" stroke-linejoin="round"/>
<path d="M11.7959 20.7363V37.8173H43.7197" stroke="#127AFF" stroke-width="2.7" stroke-miterlimit="10" stroke-linecap="round" stroke-linejoin="round"/>
</svg>
