<svg width="56" height="56" viewBox="0 0 56 56" fill="none" xmlns="http://www.w3.org/2000/svg">
<path d="M30.5772 49.3838C28.3377 51.0348 24.6359 50.2205 23.8414 46.9432C23.6828 46.2883 23.3717 45.6801 22.9335 45.1681C22.4953 44.6561 21.9424 44.2548 21.3198 43.9968C20.6973 43.7389 20.0226 43.6316 19.3507 43.6837C18.6788 43.7358 18.0287 43.9458 17.4533 44.2966C13.6224 46.6304 9.23541 42.2459 11.5692 38.4125C11.9195 37.8373 12.1292 37.1877 12.1812 36.5162C12.2331 35.8448 12.1259 35.1706 11.8683 34.5484C11.6107 33.9262 11.2098 33.3735 10.6984 32.9354C10.187 32.4973 9.57943 32.186 8.92506 32.0268C4.56534 30.9692 4.56534 24.7673 8.92506 23.7096C9.58001 23.5509 10.1882 23.2398 10.7002 22.8016C11.2122 22.3635 11.6135 21.8106 11.8715 21.188C12.1294 20.5654 12.2367 19.8907 12.1846 19.2188C12.1325 18.547 11.9225 17.8969 11.5717 17.3215C9.23789 13.4906 13.6224 9.10357 17.4558 11.4374C19.9386 12.9469 23.1562 11.6112 23.8414 8.79323C24.8991 4.43351 31.101 4.43351 32.1587 8.79323C32.3174 9.44817 32.6285 10.0564 33.0666 10.5684C33.5048 11.0804 34.0577 11.4817 34.6803 11.7396C35.3029 11.9976 35.9776 12.1048 36.6494 12.0528C37.3213 12.0007 37.9714 11.7907 38.5468 11.4398C42.3777 9.10605 46.7647 13.4906 44.4309 17.324C43.8878 18.2159 43.6895 19.2756 43.8733 20.3035C44.0572 21.3315 44.6104 22.2568 45.429 22.9052" stroke="#127AFF" stroke-width="2.7" stroke-linecap="round" stroke-linejoin="round"/>
<path d="M35.4483 27.8699C35.4478 26.2572 34.9239 24.6883 33.9554 23.3988C32.9869 22.1094 31.626 21.1691 30.0773 20.7194C28.5286 20.2696 26.8758 20.3346 25.3673 20.9047C23.8587 21.4747 22.5759 22.519 21.7116 23.8805C20.8474 25.242 20.4484 26.8473 20.5746 28.455C20.7008 30.0627 21.3454 31.5861 22.4115 32.7961C23.4777 34.0061 24.9077 34.8374 26.4867 35.165C28.0658 35.4927 29.7085 35.299 31.168 34.613" stroke="#127AFF" stroke-width="2.7" stroke-linecap="round" stroke-linejoin="round"/>
<path d="M50.3451 35.3164H44.1382C43.1505 35.3164 42.2032 35.7088 41.5048 36.4072C40.8064 37.1056 40.4141 38.0528 40.4141 39.0405C40.4141 40.0282 40.8064 40.9755 41.5048 41.6739C42.2032 42.3723 43.1505 42.7647 44.1382 42.7647H46.621C47.6087 42.7647 48.5559 43.157 49.2543 43.8554C49.9527 44.5539 50.3451 45.5011 50.3451 46.4888C50.3451 47.4765 49.9527 48.4238 49.2543 49.1222C48.5559 49.8206 47.6087 50.2129 46.621 50.2129H40.4141" stroke="#127AFF" stroke-width="2.7" stroke-linecap="round" stroke-linejoin="round"/>
<path d="M45.3789 50.2133V52.696M45.3789 32.834V35.3167" stroke="#127AFF" stroke-width="2.7" stroke-linecap="round" stroke-linejoin="round"/>
</svg>
