<svg width="56" height="56" viewBox="0 0 56 56" fill="none" xmlns="http://www.w3.org/2000/svg">
<g clip-path="url(#clip0_1101_584)">
<path d="M16.1007 28.669C15.6418 27.5447 15.3869 26.3154 15.3869 25.026C15.3869 19.6974 19.7066 15.3777 25.0353 15.3777C26.3247 15.3777 27.554 15.6325 28.6782 16.0915L34.2383 10.5314C32.5872 9.47934 30.7451 8.70214 28.7768 8.26305V1.63867H21.2939V8.26305C19.3256 8.70203 17.4835 9.47934 15.8324 10.5314L11.1439 5.84292L5.85279 11.1341L10.5412 15.8224C9.489 17.4735 8.71168 19.3157 8.27259 21.2841H1.64844V28.7669H8.27227C8.71125 30.7354 9.48856 32.5777 10.5406 34.229L16.1007 28.669Z" stroke="#127AFF" stroke-width="2.7" stroke-miterlimit="10" stroke-linecap="round" stroke-linejoin="round"/>
<path d="M34.6088 22.0395C38.131 23.4772 40.6142 26.9348 40.6142 30.974C40.6142 36.3027 36.2944 40.6224 30.9658 40.6224C26.9264 40.6224 23.4689 38.1392 22.0312 34.617L16.4712 40.177L11.7832 44.865L17.0744 50.1562L21.7623 45.4684C23.4135 46.5205 25.2559 47.2979 27.2243 47.737V54.3605H34.7072V47.737C36.6758 47.2979 38.5181 46.5206 40.1693 45.4684L44.8572 50.1562L50.1484 44.865L45.4603 40.177C46.5125 38.5258 47.2898 36.6834 47.7288 34.715H54.3526V27.2322H47.7286C47.2895 25.2638 46.5122 23.4216 45.46 21.7705L50.1484 17.0822L44.8572 11.791L40.1687 16.4795L34.6088 22.0395Z" stroke="#127AFF" stroke-width="2.7" stroke-miterlimit="10" stroke-linecap="round" stroke-linejoin="round"/>
<path d="M28.0176 22.6211V26.812" stroke="#127AFF" stroke-width="2.7" stroke-miterlimit="10" stroke-linecap="round" stroke-linejoin="round"/>
<circle cx="28.0181" cy="33.356" r="1.63921" fill="#127AFF"/>
</g>
<defs>
<clipPath id="clip0_1101_584">
<rect width="56" height="56" fill="white"/>
</clipPath>
</defs>
</svg>
