<svg width="56" height="56" viewBox="0 0 56 56" fill="none" xmlns="http://www.w3.org/2000/svg">
<g clip-path="url(#clip0_1117_846)">
<path d="M30.1143 6.36328C35.5437 6.8068 40.6332 9.04187 44.4868 12.675C47.6219 15.6307 49.7909 19.373 50.736 23.4571" stroke="#127AFF" stroke-width="2.7" stroke-miterlimit="22.9256" stroke-linecap="round" stroke-linejoin="round"/>
<path d="M32.1496 8.55072L29.6055 6.33478L32.7813 5.03125" stroke="#127AFF" stroke-width="2.7" stroke-miterlimit="22.9256" stroke-linecap="round" stroke-linejoin="round"/>
<path d="M25.886 49.6377C20.4565 49.1942 15.3671 46.9591 11.5134 43.326C9.00449 40.9606 7.10574 38.0832 5.96387 34.916" stroke="#127AFF" stroke-width="2.7" stroke-miterlimit="22.9256" stroke-linecap="round" stroke-linejoin="round"/>
<path d="M23.8504 47.4492L26.3945 49.665L23.2188 50.9686" stroke="#127AFF" stroke-width="2.7" stroke-miterlimit="22.9256" stroke-linecap="round" stroke-linejoin="round"/>
<path fill-rule="evenodd" clip-rule="evenodd" d="M21.6484 7.434V27.3078H1.64062V1.64062H15.9109L21.6484 7.434Z" stroke="#127AFF" stroke-width="2.7" stroke-miterlimit="22.9256" stroke-linecap="round" stroke-linejoin="round"/>
<path d="M14.3281 1.64062V8.96383H21.6513" stroke="#127AFF" stroke-width="2.7" stroke-miterlimit="22.9256" stroke-linecap="round" stroke-linejoin="round"/>
<path d="M54.3594 44.248V50.7508C54.3594 52.7436 49.291 54.3591 43.0391 54.3591C36.787 54.3591 31.7188 52.7436 31.7188 50.7508V44.248" stroke="#127AFF" stroke-width="2.7" stroke-miterlimit="22.9256" stroke-linecap="round" stroke-linejoin="round"/>
<path d="M54.3594 37.3906V43.6529C54.3594 45.6457 49.291 47.2611 43.0391 47.2611C36.787 47.2611 31.7188 45.6456 31.7188 43.6529V37.3906" stroke="#127AFF" stroke-width="2.7" stroke-miterlimit="22.9256" stroke-linecap="round" stroke-linejoin="round"/>
<path d="M43.0391 40.1599C49.2911 40.1599 54.3594 38.5444 54.3594 36.5516C54.3594 34.5588 49.2911 32.9434 43.0391 32.9434C36.787 32.9434 31.7188 34.5588 31.7188 36.5516C31.7188 38.5444 36.787 40.1599 43.0391 40.1599Z" stroke="#127AFF" stroke-width="2.7" stroke-miterlimit="22.9256" stroke-linecap="round" stroke-linejoin="round"/>
</g>
<defs>
<clipPath id="clip0_1117_846">
<rect width="56" height="56" fill="white"/>
</clipPath>
</defs>
</svg>
