<svg width="56" height="56" viewBox="0 0 56 56" fill="none" xmlns="http://www.w3.org/2000/svg">
<path d="M9.29838 42.8762C5.77728 42.8762 2.92285 40.0218 2.92285 36.5007V10.9986C2.92285 7.47748 5.77728 4.62305 9.29838 4.62305H46.7015C50.2226 4.62305 53.077 7.47748 53.077 10.9986V36.5007C53.077 40.0218 50.2226 42.8762 46.7015 42.8762H36.5007" stroke="#127AFF" stroke-width="2.7" stroke-miterlimit="10" stroke-linecap="round" stroke-linejoin="round"/>
<path d="M28 51.3777V42.877H9.98242" stroke="#127AFF" stroke-width="2.7" stroke-miterlimit="10" stroke-linecap="round" stroke-linejoin="round"/>
<path d="M19.499 51.377H36.5004" stroke="#127AFF" stroke-width="2.7" stroke-miterlimit="10" stroke-linecap="round" stroke-linejoin="round"/>
<path d="M15.249 25.8741C15.249 18.8319 20.9579 13.123 28.0001 13.123C28.2386 13.123 28.4758 13.1296 28.7112 13.1425" stroke="#127AFF" stroke-width="2.7" stroke-miterlimit="10" stroke-linecap="round" stroke-linejoin="round"/>
<path d="M37.0156 16.8574C39.3231 19.1649 40.7503 22.3527 40.7503 25.8738" stroke="#127AFF" stroke-width="2.7" stroke-miterlimit="10" stroke-linecap="round" stroke-linejoin="round"/>
<path d="M28 25.8741L40.7511 13.123" stroke="#127AFF" stroke-width="2.7" stroke-miterlimit="10" stroke-linecap="round" stroke-linejoin="round"/>
<circle cx="28.0002" cy="34.3752" r="2.12518" fill="#127AFF"/>
<circle cx="19.4992" cy="34.3752" r="2.12518" fill="#127AFF"/>
<circle cx="36.5012" cy="34.3752" r="2.12518" fill="#127AFF"/>
</svg>
