<svg width="56" height="56" viewBox="0 0 56 56" fill="none" xmlns="http://www.w3.org/2000/svg">
<path d="M21.7559 43.0248C18.8078 41.3829 16.9766 39.3099 16.9766 35.9242V22.7721C22.8154 21.9935 26.057 20.3315 27.8553 17.625H28.1395C29.9378 20.3315 33.1794 21.9934 39.0183 22.7721V35.9242C39.0183 39.3099 37.187 41.3829 34.2389 43.0248L27.9974 46.501L21.7559 43.0248Z" stroke="#127AFF" stroke-width="2.7" stroke-miterlimit="10" stroke-linecap="round" stroke-linejoin="round"/>
<path d="M24.7969 31.8724L27.4634 34.7609L31.2091 30.2734" stroke="#127AFF" stroke-width="2.7" stroke-miterlimit="10" stroke-linecap="round" stroke-linejoin="round"/>
<path d="M13.492 15.5842C17.1026 15.5842 20.0296 12.6572 20.0296 9.04662V2.1875L6.63281 15.5842H13.492Z" stroke="#127AFF" stroke-width="2.7" stroke-miterlimit="10" stroke-linecap="round" stroke-linejoin="round"/>
<path d="M49.3615 36.2962V8.72506C49.3615 5.11448 46.4345 2.1875 42.8239 2.1875H20.0296L6.63281 15.5842V47.2749C6.63281 50.8855 9.5598 53.8125 13.1704 53.8125H42.8239C46.4345 53.8125 49.3615 50.8855 49.3615 47.2749V47.2337" stroke="#127AFF" stroke-width="2.7" stroke-miterlimit="10" stroke-linecap="round" stroke-linejoin="round"/>
</svg>
