<svg width="56" height="56" viewBox="0 0 56 56" fill="none" xmlns="http://www.w3.org/2000/svg">
<path d="M31.9375 23.625H28.4375V19.25C28.4375 16.8338 26.4787 14.875 24.0625 14.875H19.6875V10.5C19.6875 8.08369 17.7288 6.125 15.3125 6.125C12.8962 6.125 10.9375 8.08369 10.9375 10.5V14.875H6.5625C4.1463 14.875 2.1875 16.8338 2.1875 19.25V36.75C2.1875 39.1662 4.1463 41.125 6.5625 41.125H10.9375V36.75C10.9375 34.3337 12.8962 32.375 15.3125 32.375C17.7288 32.375 19.6875 34.3337 19.6875 36.75V41.125H24.0625C26.4787 41.125 28.4375 39.1662 28.4375 36.75V32.375H31.9375C34.3538 32.375 36.3125 30.4161 36.3125 28C36.3125 25.5837 34.3538 23.625 31.9375 23.625Z" stroke="#127AFF" stroke-width="2.7" stroke-miterlimit="10" stroke-linecap="round" stroke-linejoin="round"/>
<path d="M36.3125 41.125V45.5C36.3125 47.9062 38.2812 49.875 40.6875 49.875C43.0938 49.875 45.0625 47.9062 45.0625 45.5V41.125H49.4375C51.8537 41.125 53.8125 39.1662 53.8125 36.75V32.375H49.4375C47.0213 32.375 45.0625 30.4162 45.0625 28C45.0625 25.5838 47.0213 23.625 49.4375 23.625H53.8125V19.25C53.8125 16.8338 51.8537 14.875 49.4375 14.875H36.3125" stroke="#127AFF" stroke-width="2.7" stroke-miterlimit="10" stroke-linecap="round" stroke-linejoin="round"/>
</svg>
