<svg width="56" height="56" viewBox="0 0 56 56" fill="none" xmlns="http://www.w3.org/2000/svg">
<path d="M28 53.8125V49.875" stroke="#127AFF" stroke-width="2.7" stroke-miterlimit="10" stroke-linecap="round" stroke-linejoin="round"/>
<path d="M2.1875 28H6.125" stroke="#127AFF" stroke-width="2.7" stroke-miterlimit="10" stroke-linecap="round" stroke-linejoin="round"/>
<path d="M28 2.1875V6.125" stroke="#127AFF" stroke-width="2.7" stroke-miterlimit="10" stroke-linecap="round" stroke-linejoin="round"/>
<path d="M53.8125 28H49.875C49.875 40.0812 40.0812 49.875 28 49.875C15.9188 49.875 6.125 40.0812 6.125 28C6.125 15.9188 15.9188 6.125 28 6.125C36.9702 6.125 44.6793 11.5242 48.0548 19.25" stroke="#127AFF" stroke-width="2.7" stroke-miterlimit="10" stroke-linecap="round" stroke-linejoin="round"/>
<path d="M28 41.125V36.75" stroke="#127AFF" stroke-width="2.7" stroke-miterlimit="10" stroke-linecap="round" stroke-linejoin="round"/>
<path d="M28 14.875V19.25" stroke="#127AFF" stroke-width="2.7" stroke-miterlimit="10" stroke-linecap="round" stroke-linejoin="round"/>
<path d="M24.4999 35.0002C25.2981 36.0628 26.5688 36.75 28 36.75C30.4162 36.75 32.375 34.7912 32.375 32.375C32.375 29.9588 30.4162 28 28 28C25.5838 28 23.625 26.0412 23.625 23.625C23.625 21.2088 25.5838 19.25 28 19.25C29.4312 19.25 30.7019 19.9372 31.5001 20.9998" stroke="#127AFF" stroke-width="2.7" stroke-miterlimit="10" stroke-linecap="round" stroke-linejoin="round"/>
</svg>
