<svg width="56" height="56" viewBox="0 0 56 56" fill="none" xmlns="http://www.w3.org/2000/svg">
<path d="M8.77344 44.271C8.77344 45.7093 9.34482 47.0887 10.3619 48.1058C11.3789 49.1229 12.7584 49.6943 14.1967 49.6943C15.6351 49.6943 17.0145 49.1229 18.0316 48.1058C19.0486 47.0887 19.62 45.7093 19.62 44.271C19.62 43.5588 19.4798 42.8535 19.2072 42.1956C18.9347 41.5376 18.5352 40.9397 18.0316 40.4361C17.528 39.9325 16.9301 39.533 16.2721 39.2605C15.6142 38.9879 14.9089 38.8477 14.1967 38.8477C13.4845 38.8477 12.7793 38.9879 12.1213 39.2605C11.4633 39.533 10.8655 39.9325 10.3619 40.4361C9.85828 40.9397 9.45881 41.5376 9.18626 42.1956C8.91371 42.8535 8.77344 43.5588 8.77344 44.271Z" stroke="#127AFF" stroke-width="2.7" stroke-linecap="round" stroke-linejoin="round"/>
<path d="M8.77344 11.7299C8.77344 13.1683 9.34482 14.5477 10.3619 15.5648C11.3789 16.5819 12.7584 17.1532 14.1967 17.1532C15.6351 17.1532 17.0145 16.5819 18.0316 15.5648C19.0486 14.5477 19.62 13.1683 19.62 11.7299C19.62 11.0177 19.4798 10.3125 19.2072 9.65453C18.9347 8.99655 18.5352 8.39869 18.0316 7.89509C17.528 7.39149 16.9301 6.99201 16.2721 6.71946C15.6142 6.44692 14.9089 6.30664 14.1967 6.30664C13.4845 6.30664 12.7793 6.44692 12.1213 6.71946C11.4633 6.99201 10.8655 7.39149 10.3619 7.89509C9.85828 8.39869 9.45881 8.99655 9.18626 9.65453C8.91371 10.3125 8.77344 11.0177 8.77344 11.7299Z" stroke="#127AFF" stroke-width="2.7" stroke-linecap="round" stroke-linejoin="round"/>
<path d="M35.8887 11.7299C35.8887 13.1683 36.4601 14.5477 37.4771 15.5648C38.4942 16.5819 39.8736 17.1532 41.312 17.1532C42.7503 17.1532 44.1298 16.5819 45.1468 15.5648C46.1639 14.5477 46.7353 13.1683 46.7353 11.7299C46.7353 10.2916 46.1639 8.91215 45.1468 7.89509C44.1298 6.87802 42.7503 6.30664 41.312 6.30664C39.8736 6.30664 38.4942 6.87802 37.4771 7.89509C36.4601 8.91215 35.8887 10.2916 35.8887 11.7299Z" stroke="#127AFF" stroke-width="2.7" stroke-linecap="round" stroke-linejoin="round"/>
<path d="M14.1953 17.1523V38.8455" stroke="#127AFF" stroke-width="2.7" stroke-linecap="round" stroke-linejoin="round"/>
<path d="M19.6201 44.2706H35.89C36.6022 44.2706 37.3074 44.1303 37.9654 43.8578C38.6234 43.5852 39.2213 43.1858 39.7249 42.6822C40.2285 42.1786 40.6279 41.5807 40.9005 40.9227C41.173 40.2647 41.3133 39.5595 41.3133 38.8473V25.2891" stroke="#127AFF" stroke-width="2.7" stroke-linecap="round" stroke-linejoin="round"/>
<path d="M33.1777 33.424L41.3127 25.2891L49.4476 33.424" stroke="#127AFF" stroke-width="2.7" stroke-linecap="round" stroke-linejoin="round"/>
</svg>
