<svg width="47" height="56" viewBox="0 0 47 56" fill="none" xmlns="http://www.w3.org/2000/svg">
<path d="M23.4561 6.47998C24.0961 6.55998 24.5761 6.07998 24.5761 5.43998C24.5761 4.95998 24.0961 4.47998 23.5361 4.47998C22.9761 4.47998 22.4961 4.95998 22.4961 5.51998C22.4961 5.99998 22.8961 6.47998 23.4561 6.47998Z" fill="#127AFF"/>
<path d="M45.3763 6.64008C42.3363 6.64008 39.8563 4.16008 39.8563 1.12008C39.8563 0.560078 39.3763 0.0800781 38.8162 0.0800781H8.25625C7.69625 0.0800781 7.21625 0.560078 7.21625 1.12008C7.21625 4.16008 4.73625 6.64008 1.69625 6.64008C1.13625 6.64008 0.65625 7.12008 0.65625 7.68008V25.5201C0.65625 39.3601 9.69625 51.8401 23.2163 55.9201H23.7763C37.0563 51.9201 46.3363 39.7601 46.3363 25.5201V7.68008C46.4162 7.12008 45.9363 6.64008 45.3763 6.64008ZM44.4163 8.72008V25.5201C44.4163 38.6401 36.0963 50.0001 23.6163 53.8401C11.2163 50.0001 2.81625 38.5601 2.81625 25.5201V8.72008V8.64008H2.89625C6.17625 8.16008 8.81625 5.52008 9.29625 2.24008V2.16008H9.37625H37.9362V2.24008C38.4162 5.52008 40.9762 8.16008 44.4163 8.72008Z" fill="#127AFF"/>
<path d="M41.4547 10.2399C39.1347 9.1999 37.2947 7.4399 36.3347 5.1199C36.1747 4.7199 35.7747 4.4799 35.3747 4.4799H27.9347C27.3747 4.4799 26.8947 4.9599 26.8947 5.5199C26.8947 6.0799 27.3747 6.5599 27.9347 6.5599H34.7347V6.6399C35.8547 8.8799 37.6947 10.7199 39.9347 11.8399H40.0147V11.9199V25.5999C40.0147 36.3199 33.5347 45.5999 23.5347 49.2799C13.5347 45.5199 7.05469 36.2399 7.05469 25.5199V11.8399V11.7599H7.13469C9.37469 10.6399 11.2147 8.7999 12.3347 6.5599V6.4799H12.4147H19.2147C19.7747 6.4799 20.2547 5.9999 20.2547 5.4399C20.2547 4.8799 19.7747 4.3999 19.2147 4.3999H11.7747C11.3747 4.3999 10.9747 4.6399 10.8147 5.0399C9.77469 7.3599 8.01469 9.1999 5.69469 10.1599C5.29469 10.3199 5.05469 10.7199 5.05469 11.1199V25.5199C5.05469 37.1999 12.2547 47.4399 23.2147 51.2799C23.2947 51.2799 23.4547 51.3599 23.5347 51.3599C23.6147 51.3599 23.7747 51.3599 23.8547 51.2799C34.8147 47.4399 42.0147 37.1999 42.0147 25.5199V11.1199C42.0147 10.7199 41.7747 10.3999 41.4547 10.2399Z" fill="#127AFF"/>
<path d="M13.7734 25.8401C13.7734 31.2001 18.1734 35.6001 23.5334 35.6001C28.8934 35.6001 33.2934 31.2001 33.2934 25.8401C33.2934 20.4801 28.8934 16.0801 23.5334 16.0801C18.1734 16.0801 13.7734 20.4801 13.7734 25.8401ZM31.2934 25.8401C31.2934 30.0801 27.8534 33.6001 23.5334 33.6001C19.2134 33.6001 15.7734 30.1601 15.7734 25.8401C15.7734 21.6001 19.2134 18.0801 23.5334 18.0801C27.8534 18.0801 31.2934 21.6001 31.2934 25.8401Z" fill="#127AFF"/>
<path d="M22.4183 27.6001L20.9783 26.1601C20.5783 25.7601 19.9383 25.7601 19.5383 26.1601C19.1383 26.5601 19.1383 27.2001 19.5383 27.6001L21.6983 29.7601C21.8583 29.9201 22.1783 30.0801 22.4183 30.0801C22.6583 30.0801 22.8983 30.0001 23.1383 29.7601L28.5783 24.3201C28.9783 23.9201 28.9783 23.2801 28.5783 22.8801C28.1783 22.4801 27.5383 22.4801 27.1383 22.8801L22.4183 27.6001Z" fill="#127AFF"/>
</svg>
