<svg class="tool" width="265" height="56" viewBox="0 0 265 56" fill="none" xmlns="http://www.w3.org/2000/svg">
<g clip-path="url(#clip0_1_1980)">
<path d="M261.279 42.9942V12H265.381V42.9942H261.279Z" fill="black"></path>
<path d="M228.301 42.9942L240.204 12H244.623L257.308 42.9942H252.635L249.02 33.6071H236.06L232.656 42.9942H228.301ZM237.244 30.2667H247.752L244.517 21.683C243.53 19.0755 242.797 16.9331 242.318 15.2559C241.923 17.2432 241.367 19.2165 240.648 21.1756L237.244 30.2667Z" fill="black"></path>
<path d="M211.85 42.9942V12H215.655V42.9942H211.85Z" fill="black"></path>
<path d="M202.484 40.2219C201.075 41.4199 199.714 42.2656 198.404 42.759C197.107 43.2521 195.712 43.4989 194.218 43.4989C191.751 43.4989 189.855 42.8998 188.53 41.7017C187.206 40.4897 186.543 38.9463 186.543 37.0716C186.543 35.9723 186.79 34.9716 187.283 34.0695C187.791 33.1534 188.446 32.4205 189.249 31.8708C190.067 31.3211 190.983 30.9053 191.998 30.6234C192.745 30.4261 193.872 30.2358 195.38 30.0526C198.453 29.6861 200.715 29.2492 202.167 28.7418C202.181 28.2203 202.188 27.889 202.188 27.7481C202.188 26.1977 201.829 25.1053 201.11 24.4711C200.137 23.6113 198.693 23.1814 196.776 23.1814C194.986 23.1814 193.661 23.4985 192.801 24.1328C191.955 24.753 191.328 25.8594 190.92 27.4521L187.198 26.9447C187.537 25.352 188.094 24.0694 188.869 23.0969C189.644 22.1102 190.765 21.3562 192.23 20.8347C193.696 20.2991 195.394 20.0312 197.325 20.0312C199.242 20.0312 200.8 20.2568 201.998 20.7078C203.196 21.1588 204.077 21.7297 204.641 22.4203C205.204 23.0969 205.599 23.9566 205.825 24.9996C205.951 25.648 206.015 26.8178 206.015 28.5092V33.5833C206.015 37.1211 206.092 39.3622 206.247 40.3064C206.417 41.2366 206.741 42.1316 207.22 42.9916H203.245C202.851 42.2021 202.597 41.2789 202.484 40.2219ZM202.167 31.7228C200.786 32.2866 198.714 32.7658 195.951 33.1604C194.387 33.3859 193.28 33.6397 192.632 33.9216C191.984 34.2034 191.483 34.6192 191.131 35.1689C190.779 35.7045 190.602 36.3035 190.602 36.9661C190.602 37.9808 190.983 38.8265 191.744 39.5029C192.519 40.1796 193.647 40.518 195.127 40.518C196.592 40.518 197.896 40.2006 199.038 39.5665C200.18 38.918 201.018 38.0371 201.554 36.9238C201.963 36.0639 202.167 34.7954 202.167 33.1181V31.7228Z" fill="black"></path>
<path d="M173.373 42.9916V20.5387H176.798V23.9425C177.672 22.3498 178.475 21.2998 179.208 20.7924C179.955 20.285 180.773 20.0312 181.661 20.0312C182.943 20.0312 184.247 20.44 185.572 21.2575L184.261 24.7882C183.331 24.2385 182.401 23.9637 181.471 23.9637C180.639 23.9637 179.892 24.2174 179.23 24.7248C178.567 25.2181 178.095 25.9087 177.813 26.7967C177.39 28.1498 177.179 29.6297 177.179 31.2365V42.9916H173.373Z" fill="black"></path>
<path d="M169.672 39.5899L170.221 42.9515C169.15 43.177 168.191 43.2898 167.346 43.2898C165.965 43.2898 164.893 43.0712 164.132 42.6344C163.371 42.1972 162.836 41.6266 162.526 40.9217C162.216 40.203 162.061 38.7019 162.061 36.4186V23.5008H159.27V20.5409H162.061V14.9806L165.845 12.6973V20.5409H169.672V23.5008H165.845V36.63C165.845 37.7151 165.908 38.4128 166.035 38.7229C166.176 39.0332 166.395 39.2798 166.69 39.4631C167 39.6461 167.438 39.7379 168.001 39.7379C168.424 39.7379 168.981 39.6884 169.672 39.5899Z" fill="black"></path>
<path d="M138.191 36.2894L141.955 35.6975C142.166 37.2056 142.751 38.3614 143.71 39.1649C144.682 39.968 146.035 40.3699 147.769 40.3699C149.516 40.3699 150.813 40.0176 151.659 39.3126C152.504 38.594 152.927 37.7552 152.927 36.7967C152.927 35.9371 152.554 35.2605 151.807 34.7672C151.285 34.4289 149.989 33.9991 147.917 33.4776C145.126 32.7728 143.188 32.1668 142.103 31.6593C141.031 31.1379 140.214 30.4261 139.65 29.524C139.1 28.6079 138.826 27.6001 138.826 26.5007C138.826 25.5 139.051 24.5768 139.502 23.7311C139.967 22.8713 140.594 22.1596 141.384 21.5958C141.976 21.1588 142.779 20.7924 143.794 20.4964C144.823 20.1863 145.922 20.0312 147.092 20.0312C148.854 20.0312 150.397 20.285 151.722 20.7924C153.061 21.2998 154.048 21.9904 154.682 22.8643C155.316 23.7241 155.753 24.8798 155.993 26.3316L152.272 26.839C152.103 25.6832 151.609 24.7812 150.792 24.1328C149.989 23.4845 148.847 23.1603 147.367 23.1603C145.619 23.1603 144.372 23.4492 143.625 24.0271C142.878 24.605 142.504 25.2815 142.504 26.0567C142.504 26.55 142.659 26.994 142.969 27.3887C143.279 27.7974 143.766 28.1357 144.428 28.4035C144.809 28.5444 145.929 28.8686 147.79 29.376C150.482 30.0949 152.356 30.6868 153.414 31.1519C154.485 31.603 155.323 32.2654 155.93 33.1393C156.535 34.0131 156.839 35.0984 156.839 36.3952C156.839 37.6637 156.465 38.8618 155.718 39.9893C154.985 41.1028 153.921 41.9695 152.526 42.5897C151.13 43.1959 149.552 43.4989 147.79 43.4989C144.872 43.4989 142.645 42.8928 141.109 41.6807C139.587 40.4684 138.614 38.6715 138.191 36.2894Z" fill="black"></path>
<path d="M130.096 16.3764V12H133.901V16.3764H130.096ZM130.096 42.9942V20.5414H133.901V42.9942H130.096Z" fill="black"></path>
<path d="M94.3652 42.9942V12H100.539L107.875 33.9454C108.552 35.9891 109.045 37.5184 109.355 38.5331C109.707 37.4056 110.257 35.7495 111.004 33.5648L118.425 12H123.943V42.9942H119.989V17.0529L110.983 42.9942H107.283L98.3187 16.609V42.9942H94.3652Z" fill="black"></path>
<mask id="mask0_1_1980" style="mask-type:luminance" maskUnits="userSpaceOnUse" x="0" y="-1" width="80" height="57">
<path d="M79.3655 -0.25H0.492188V55.75H79.3655V-0.25Z" fill="white"></path>
</mask>
<g mask="url(#mask0_1_1980)">
<path d="M23.026 -0.25H11.7559V10.987H23.026V-0.25Z" fill="#FFD800"></path>
<path d="M68.1001 -0.25H56.83V10.987H68.1001V-0.25Z" fill="#FFD800"></path>
<path d="M34.2924 10.9883H11.7559V22.2253H34.2924V10.9883Z" fill="#FFAF00"></path>
<path d="M68.1029 10.9883H45.5664V22.2253H68.1029V10.9883Z" fill="#FFAF00"></path>
<path d="M68.0956 22.2188H11.7559V33.4558H68.0956V22.2188Z" fill="#FF8205"></path>
<path d="M23.026 33.457H11.7559V44.6939H23.026V33.457Z" fill="#FA500F"></path>
<path d="M45.5671 33.457H34.2969V44.6939H45.5671V33.457Z" fill="#FA500F"></path>
<path d="M68.1002 33.457H56.8301V44.6939H68.1002V33.457Z" fill="#FA500F"></path>
<path d="M34.2952 44.6914H0.492188V55.9287H34.2952V44.6914Z" fill="#E10500"></path>
<path d="M79.373 44.6914H45.5664V55.9287H79.373V44.6914Z" fill="#E10500"></path>
</g>
</g>
<defs>
<clipPath id="clip0_1_1980">
<rect width="265" height="56" fill="white"></rect>
</clipPath>
</defs>
</svg>