<svg class="tool" width="258" height="56" viewBox="0 0 258 56" fill="none" xmlns="http://www.w3.org/2000/svg">
<g clip-path="url(#clip0_1_2140)">
<path d="M75.5809 35.4017H71L77.9799 15.1827H83.4888L90.4588 35.4017H85.8779L80.8133 19.803H80.6553L75.5809 35.4017ZM75.2946 27.4543H86.1149V30.7912H75.2946V27.4543Z" fill="black"></path>
<path d="M92.7344 35.4017V32.894L100.159 23.7027V23.5941H92.9911V20.2374H105.223V22.9721L98.2532 31.9364V32.045H105.48V35.4017H92.7344Z" fill="black"></path>
<path d="M118.42 28.945V20.2374H122.626V35.4017H118.588V32.6472H118.43C118.088 33.5357 117.519 34.2499 116.722 34.7896C115.932 35.3293 114.968 35.5991 113.83 35.5991C112.816 35.5991 111.924 35.3687 111.154 34.908C110.384 34.4473 109.782 33.7924 109.347 32.9434C108.92 32.0944 108.702 31.0775 108.696 29.8928V20.2374H112.902V29.1425C112.908 30.0376 113.148 30.7451 113.622 31.2651C114.096 31.785 114.731 32.045 115.528 32.045C116.034 32.045 116.508 31.9298 116.949 31.6994C117.39 31.4625 117.746 31.1137 118.016 30.653C118.292 30.1922 118.427 29.6229 118.42 28.945Z" fill="black"></path>
<path d="M125.99 35.4017V20.2374H130.067V22.8833H130.225C130.502 21.9421 130.966 21.2313 131.617 20.7508C132.269 20.2638 133.019 20.0202 133.868 20.0202C134.079 20.0202 134.306 20.0334 134.55 20.0597C134.793 20.086 135.007 20.1222 135.191 20.1683V23.9001C134.994 23.8409 134.721 23.7882 134.372 23.7422C134.023 23.6961 133.704 23.6731 133.414 23.6731C132.796 23.6731 132.243 23.808 131.756 24.0778C131.275 24.3411 130.893 24.7097 130.61 25.1836C130.334 25.6575 130.196 26.2037 130.196 26.8224V35.4017H125.99Z" fill="black"></path>
<path d="M143.571 35.6978C142.011 35.6978 140.668 35.3819 139.543 34.7501C138.424 34.1116 137.562 33.21 136.956 32.045C136.35 30.8734 136.048 29.488 136.048 27.8886C136.048 26.3288 136.35 24.9598 136.956 23.7817C137.562 22.6035 138.414 21.6854 139.513 21.0272C140.619 20.3691 141.915 20.04 143.403 20.04C144.403 20.04 145.335 20.2012 146.197 20.5237C147.065 20.8397 147.822 21.3168 148.467 21.9552C149.119 22.5937 149.626 23.3966 149.988 24.3641C150.35 25.3251 150.531 26.4505 150.531 27.7406V28.8956H137.726V26.2893H146.572C146.572 25.6838 146.44 25.1474 146.177 24.6801C145.914 24.2128 145.548 23.8475 145.081 23.5842C144.62 23.3144 144.084 23.1794 143.472 23.1794C142.833 23.1794 142.267 23.3275 141.774 23.6237C141.287 23.9133 140.905 24.3049 140.629 24.7985C140.352 25.2856 140.211 25.8286 140.204 26.4275V28.9055C140.204 29.6558 140.342 30.3041 140.619 30.8504C140.902 31.3967 141.3 31.8179 141.813 32.1141C142.327 32.4103 142.935 32.5584 143.64 32.5584C144.107 32.5584 144.535 32.4925 144.923 32.3609C145.311 32.2293 145.644 32.0318 145.92 31.7686C146.197 31.5053 146.407 31.1828 146.552 30.801L150.442 31.0577C150.244 31.9923 149.84 32.8085 149.228 33.5061C148.622 34.1972 147.839 34.7369 146.878 35.1252C145.924 35.507 144.821 35.6978 143.571 35.6978Z" fill="black"></path>
<path d="M178.369 25.2922C178.369 27.497 177.951 29.3728 177.115 30.9195C176.286 32.4662 175.154 33.6476 173.719 34.4638C172.291 35.2733 170.685 35.6781 168.901 35.6781C167.104 35.6781 165.492 35.27 164.064 34.4539C162.635 33.6378 161.507 32.4563 160.677 30.9096C159.848 29.3629 159.433 27.4905 159.433 25.2922C159.433 23.0873 159.848 21.2115 160.677 19.6648C161.507 18.1181 162.635 16.94 164.064 16.1304C165.492 15.3143 167.104 14.9062 168.901 14.9062C170.685 14.9062 172.291 15.3143 173.719 16.1304C175.154 16.94 176.286 18.1181 177.115 19.6648C177.951 21.2115 178.369 23.0873 178.369 25.2922ZM174.035 25.2922C174.035 23.8639 173.821 22.6595 173.393 21.6788C172.972 20.6981 172.376 19.9544 171.606 19.4476C170.836 18.9408 169.934 18.6874 168.901 18.6874C167.868 18.6874 166.966 18.9408 166.196 19.4476C165.426 19.9544 164.827 20.6981 164.399 21.6788C163.978 22.6595 163.767 23.8639 163.767 25.2922C163.767 26.7204 163.978 27.9248 164.399 28.9055C164.827 29.8862 165.426 30.6299 166.196 31.1367C166.966 31.6435 167.868 31.8969 168.901 31.8969C169.934 31.8969 170.836 31.6435 171.606 31.1367C172.376 30.6299 172.972 29.8862 173.393 28.9055C173.821 27.9248 174.035 26.7204 174.035 25.2922Z" fill="black"></path>
<path d="M181.456 41.0882V20.2374H185.603V22.7845H185.791C185.975 22.3765 186.241 21.9618 186.59 21.5406C186.946 21.1128 187.406 20.7574 187.972 20.4744C188.545 20.1848 189.256 20.04 190.105 20.04C191.211 20.04 192.231 20.3296 193.165 20.9088C194.1 21.4814 194.847 22.3469 195.406 23.5052C195.966 24.657 196.246 26.1017 196.246 27.8393C196.246 29.5308 195.972 30.959 195.426 32.124C194.886 33.2823 194.149 34.161 193.215 34.7599C192.287 35.3523 191.247 35.6485 190.095 35.6485C189.279 35.6485 188.584 35.5135 188.012 35.2437C187.446 34.9738 186.982 34.6349 186.62 34.2268C186.258 33.8122 185.981 33.3942 185.791 32.973H185.662V41.0882H181.456ZM185.573 27.8195C185.573 28.7212 185.698 29.5077 185.949 30.1791C186.199 30.8504 186.561 31.3737 187.034 31.7488C187.508 32.1174 188.084 32.3017 188.762 32.3017C189.447 32.3017 190.026 32.1141 190.5 31.7389C190.974 31.3572 191.332 30.8307 191.576 30.1593C191.826 29.4814 191.951 28.7015 191.951 27.8195C191.951 26.9442 191.829 26.1741 191.586 25.5094C191.342 24.8446 190.984 24.3247 190.51 23.9495C190.036 23.5743 189.453 23.3868 188.762 23.3868C188.078 23.3868 187.498 23.5678 187.025 23.9298C186.557 24.2917 186.199 24.8051 185.949 25.4699C185.698 26.1346 185.573 26.9178 185.573 27.8195Z" fill="black"></path>
<path d="M205.96 35.6978C204.4 35.6978 203.058 35.3819 201.932 34.7501C200.813 34.1116 199.951 33.21 199.346 32.045C198.74 30.8734 198.437 29.488 198.437 27.8886C198.437 26.3288 198.74 24.9598 199.346 23.7817C199.951 22.6035 200.803 21.6854 201.903 21.0272C203.008 20.3691 204.305 20.04 205.792 20.04C206.793 20.04 207.724 20.2012 208.586 20.5237C209.455 20.8397 210.212 21.3168 210.857 21.9552C211.509 22.5937 212.015 23.3966 212.377 24.3641C212.739 25.3251 212.92 26.4505 212.92 27.7406V28.8956H200.116V26.2893H208.961C208.961 25.6838 208.83 25.1474 208.567 24.6801C208.303 24.2128 207.938 23.8475 207.471 23.5842C207.01 23.3144 206.474 23.1794 205.861 23.1794C205.223 23.1794 204.657 23.3275 204.163 23.6237C203.676 23.9133 203.295 24.3049 203.018 24.7985C202.742 25.2856 202.6 25.8286 202.594 26.4275V28.9055C202.594 29.6558 202.732 30.3041 203.008 30.8504C203.291 31.3967 203.689 31.8179 204.203 32.1141C204.716 32.4103 205.325 32.5584 206.029 32.5584C206.497 32.5584 206.924 32.4925 207.313 32.3609C207.701 32.2293 208.033 32.0318 208.31 31.7686C208.586 31.5053 208.797 31.1828 208.942 30.801L212.831 31.0577C212.634 31.9923 212.229 32.8085 211.617 33.5061C211.012 34.1972 210.228 34.7369 209.267 35.1252C208.313 35.507 207.211 35.6978 205.96 35.6978Z" fill="black"></path>
<path d="M219.871 26.6348V35.4017H215.665V20.2374H219.673V22.9129H219.851C220.186 22.0309 220.749 21.3333 221.539 20.8199C222.329 20.3 223.286 20.04 224.412 20.04C225.465 20.04 226.383 20.2703 227.166 20.7311C227.95 21.1918 228.558 21.8499 228.993 22.7056C229.427 23.5546 229.644 24.5682 229.644 25.7463V35.4017H225.439V26.4966C225.445 25.5686 225.208 24.8446 224.728 24.3247C224.247 23.7981 223.586 23.5349 222.743 23.5349C222.177 23.5349 221.677 23.6566 221.243 23.9001C220.815 24.1437 220.479 24.4991 220.236 24.9664C219.999 25.4271 219.877 25.9832 219.871 26.6348Z" fill="black"></path>
<path d="M236.523 35.4017H231.942L238.922 15.1827H244.431L251.401 35.4017H246.82L241.756 19.803H241.598L236.523 35.4017ZM236.237 27.4543H247.057V30.7912H236.237V27.4543Z" fill="black"></path>
<path d="M258.109 15.1827V35.4017H253.835V15.1827H258.109Z" fill="black"></path>
<path d="M0 8.4V47.6C0 52.2387 3.76133 56 8.4 56H47.6C52.2387 56 56 52.2387 56 47.6V8.4C56 3.76133 52.2387 0 47.6 0H8.4C3.76133 0 0 3.76133 0 8.4ZM33.6 0V11.2C33.6 23.5698 43.6302 33.6 56 33.6H44.8C32.4302 33.6 22.4031 43.624 22.4 55.9938V44.8C22.4 32.4302 12.3698 22.4 0 22.4H11.2C23.5698 22.4 33.6 12.3698 33.6 0Z" fill="url(#paint0_radial_1_2140)"></path>
</g>
<defs>
<radialGradient id="paint0_radial_1_2140" cx="0" cy="0" r="1" gradientUnits="userSpaceOnUse" gradientTransform="translate(25.5668 26.5723) rotate(45) scale(35.1274 47.8086)">
<stop stop-color="#83B9F9"></stop>
<stop offset="1" stop-color="#0078D4"></stop>
</radialGradient>
<clipPath id="clip0_1_2140">
<rect width="258" height="56" fill="white"></rect>
</clipPath>
</defs>
</svg>