<svg class="tool" width="258" height="56" viewBox="0 0 258 56" fill="none" xmlns="http://www.w3.org/2000/svg">
<path fill-rule="evenodd" clip-rule="evenodd" d="M54.9404 33.3979L42.8289 14.5412H36.2912V41.4792H41.8663V22.6224L53.9778 41.4792H60.5155V14.5412H54.939V33.3979H54.9404ZM65.128 19.736H74.1649V41.4792H79.9323V19.736H88.9692V14.5398H65.128V19.736ZM112.055 25.2777H99.3658V14.5412H93.5984V41.4792H99.3658V30.4739H112.055V41.4792H117.823V14.5412H112.055V25.2777ZM130.709 19.736H137.825C140.671 19.736 142.171 20.7752 142.171 22.7381C142.171 24.6995 140.671 25.7388 137.825 25.7388H130.71V19.7346L130.709 19.736ZM147.941 22.7381C147.941 17.6575 144.209 14.5412 138.095 14.5412H124.94V41.4792H130.71V30.9336H137.132L142.902 41.4792H149.287L142.898 30.1312C146.105 28.8983 147.941 26.3002 147.941 22.7381ZM165.614 36.5435C161.077 36.5435 158.309 33.3116 158.309 28.0401C158.309 22.6907 161.077 19.4588 165.614 19.4588C170.114 19.4588 172.843 22.6907 172.843 28.0401C172.843 33.3116 170.112 36.5435 165.614 36.5435ZM165.614 14.0703C157.847 14.0703 152.349 19.8432 152.349 28.0401C152.349 36.159 157.847 41.932 165.614 41.932C173.341 41.932 178.801 36.159 178.801 28.0401C178.801 19.8432 173.343 14.0703 165.614 14.0703ZM197.084 26.5091H189.966V19.736H197.085C199.931 19.736 201.431 20.8908 201.431 23.1212C201.431 25.3543 199.931 26.5091 197.085 26.5091H197.084ZM197.354 14.5412H184.196V41.4792H189.966V31.704H197.354C203.469 31.704 207.203 28.472 207.203 23.1226C207.203 17.7731 203.469 14.5412 197.354 14.5412ZM246.262 32.427C245.262 35.0432 243.263 36.5449 240.532 36.5449C235.995 36.5449 233.227 33.313 233.227 28.0401C233.227 22.6907 235.995 19.4588 240.532 19.4588C243.263 19.4588 245.262 20.9591 246.262 23.5753H252.375C250.876 17.8038 246.378 14.0703 240.534 14.0703C232.766 14.0703 227.268 19.8432 227.268 28.0401C227.268 36.159 232.766 41.932 240.532 41.932C246.415 41.932 250.915 38.1609 252.414 32.427H246.262ZM209.499 14.5398L220.232 41.4792H226.118L215.386 14.5412H209.5L209.499 14.5398ZM14.5828 30.8207L18.2549 21.3533L21.9285 30.8207H14.5814H14.5828ZM15.179 14.5426L4.44531 41.4792H10.4453L12.6408 35.8233H23.8691L26.0632 41.4792H32.0632L21.3309 14.5412H15.1776L15.179 14.5426Z" fill="black"></path>
</svg>