<svg class="tool" width="195" height="56" viewBox="0 0 195 56" fill="none" xmlns="http://www.w3.org/2000/svg">
<path fill-rule="evenodd" clip-rule="evenodd" d="M70.3794 45.0275V11.9175H75.4159V40.25H92.8809V45.0275H70.3794ZM97.8929 45.0275V10.5H102.6V45.0275H97.8929ZM114.745 45.5C112.267 45.5 110.341 44.8577 108.967 43.5732C107.595 42.287 106.909 40.5982 106.909 38.5C106.909 36.4175 107.681 34.6763 109.226 33.2745C110.773 31.871 113.24 31.1693 116.628 31.1693H123.032V31.0993C123.032 27.125 121.212 25.1388 117.572 25.1388C116.049 25.1388 114.766 25.4153 113.722 25.9665C112.691 26.5061 111.819 27.3046 111.191 28.2835L107.968 25.6585C108.942 24.1251 110.312 22.8832 111.933 22.064C113.573 21.2292 115.437 20.811 117.523 20.811H118.041C120.928 20.811 123.25 21.6458 125.007 23.317C126.766 24.9883 127.645 27.4872 127.645 30.814V45.0275H123.124V41.1723C122.252 42.5254 121.044 43.6293 119.617 44.3765C118.189 45.1255 116.565 45.5 114.745 45.5ZM115.781 41.2912C117.601 41.2912 119.115 40.8765 120.324 40.0487C121.532 39.221 122.435 38.0975 123.032 36.6782V34.881H116.817C114.966 34.881 113.643 35.1785 112.852 35.7682C112.059 36.3597 111.662 37.1595 111.662 38.1693C111.662 40.25 113.036 41.2912 115.781 41.2912ZM132.987 45.0275V21.378H137.695V25.256C138.542 23.87 139.594 22.7815 140.848 21.994C142.103 21.2065 143.556 20.811 145.202 20.811H145.72C147.54 20.811 149.07 21.2607 150.311 22.1585C151.55 23.058 152.467 24.3495 153.063 26.0365C153.973 24.4125 155.135 23.1368 156.546 22.2058C157.96 21.2765 159.559 20.811 161.348 20.811H161.866C164.503 20.811 166.516 21.7332 167.903 23.5777C169.293 25.4222 169.986 28.0157 169.986 31.3582V45.0257H165.278V31.9253C165.278 27.4487 163.742 25.2087 160.665 25.2087H160.195C158.642 25.2087 157.328 25.7022 156.254 26.6875C155.177 27.6728 154.374 28.9153 153.84 30.4115V45.0275H149.133V31.9253C149.133 27.4487 147.595 25.2087 144.52 25.2087H144.049C142.495 25.2087 141.181 25.7022 140.106 26.6875C139.032 27.6728 138.227 28.9153 137.695 30.4115V45.0275H132.987ZM181.732 45.5C179.252 45.5 177.325 44.8577 175.953 43.5732C174.58 42.287 173.894 40.5982 173.894 38.5C173.894 36.4175 174.667 34.6763 176.212 33.2745C177.758 31.871 180.225 31.1693 183.615 31.1693H190.016V31.0993C190.016 27.125 188.196 25.1388 184.556 25.1388C183.034 25.1388 181.751 25.4153 180.706 25.9665C179.677 26.5063 178.805 27.3048 178.178 28.2835L174.952 25.6585C175.926 24.1251 177.296 22.8832 178.918 22.064C180.558 21.2292 182.421 20.811 184.509 20.811H185.027C187.915 20.811 190.235 21.6458 191.992 23.317C193.753 24.99 194.629 27.4872 194.629 30.814V45.0275H190.111V41.1723C189.238 42.5254 188.03 43.6293 186.604 44.3765C185.176 45.1255 183.552 45.5 181.732 45.5ZM182.766 41.2912C184.586 41.2912 186.102 40.8765 187.309 40.0487C188.517 39.221 189.42 38.0975 190.016 36.6782V34.881H183.804C181.951 34.881 180.629 35.1785 179.837 35.7682C179.044 36.3597 178.647 37.1595 178.647 38.1693C178.647 40.25 180.02 41.2912 182.766 41.2912Z" fill="black"></path>
<path d="M15.8054 9.66656H15.7504L15.6793 15.6593H15.7297C19.6599 15.6593 22.7101 18.7691 29.3422 29.973L29.7433 30.6536L29.7708 30.6995L33.4833 25.1124L33.4558 25.0688C32.6445 23.7406 31.8056 22.4295 30.9395 21.1363C30.0869 19.8602 29.1887 18.615 28.2468 17.4032C23.8629 11.8024 20.1962 9.66656 15.8054 9.66656Z" fill="url(#paint0_linear_1_1416)"></path>
<path d="M15.7501 9.66656C11.3432 9.68948 7.4405 12.5495 4.62863 16.9311C4.62096 16.9441 4.61332 16.9571 4.60571 16.9701L9.77112 19.7911L9.79633 19.7522C11.4417 17.2703 13.4859 15.6868 15.6813 15.6616H15.7294L15.8028 9.66656H15.7501Z" fill="url(#paint1_linear_1_1416)"></path>
<path d="M4.62699 16.931L4.60178 16.9699C2.75012 19.8574 1.37053 23.4049 0.628035 27.2297L0.616577 27.2801L6.42365 28.6551L6.43282 28.6047C7.05157 25.2428 8.23407 22.1239 9.76948 19.7933L9.79469 19.7543L4.62699 16.931Z" fill="url(#paint2_linear_1_1416)"></path>
<path d="M6.4327 28.605L0.627916 27.23L0.616457 27.2805C0.210833 29.3842 0.00458333 31.5223 0 33.665V33.7177L5.95374 34.2517V34.199C5.93208 32.3239 6.09326 30.4512 6.43499 28.6073L6.4327 28.605Z" fill="url(#paint3_linear_1_1416)"></path>
<path d="M6.13507 36.1055C6.0283 35.4899 5.96778 34.8671 5.95402 34.2424V34.192L0.000282116 33.6558V33.7108C-0.00639943 34.9804 0.105615 36.2478 0.334865 37.4966L6.14423 36.156C6.14113 36.1392 6.13808 36.1224 6.13507 36.1055Z" fill="url(#paint4_linear_1_1416)"></path>
<path d="M7.49413 39.2061C6.8433 38.4957 6.38496 37.4736 6.14434 36.1627L6.13517 36.1146L0.325806 37.4552L0.334972 37.5034C0.774972 39.818 1.63664 41.743 2.86955 43.2027L2.90164 43.2417L7.52621 39.2427C7.51469 39.2306 7.50553 39.2184 7.49413 39.2061Z" fill="url(#paint5_linear_1_1416)"></path>
<path d="M24.7042 22.6238C21.2026 28.0092 19.0805 31.3894 19.0805 31.3894C14.417 38.7227 12.8036 40.3658 10.2095 40.3658C9.6993 40.3791 9.19228 40.282 8.72317 40.081C8.25405 39.8801 7.83391 39.5801 7.49155 39.2017L2.86926 43.1983L2.90135 43.2373C4.60634 45.2288 7.00801 46.3333 9.98259 46.3333C14.4811 46.3333 17.7147 44.2067 23.4667 34.1188L27.5138 26.9459C26.616 25.4799 25.6806 24.0387 24.7042 22.6238Z" fill="#0082FB"></path>
<path d="M30.9427 14.1263L30.906 14.163C29.9893 15.1484 29.1048 16.2438 28.2477 17.408C29.1139 18.5149 30.0077 19.7546 30.9404 21.1434C32.0404 19.4407 33.067 18.0611 34.0731 17.0024L34.1098 16.9657L30.9427 14.1263Z" fill="url(#paint6_linear_1_1416)"></path>
<path d="M47.9367 13.5922C45.4961 11.1172 42.5856 9.66656 39.4736 9.66656C36.1919 9.66656 33.4304 11.4701 30.9417 14.1216L30.905 14.1582L34.0721 16.9999L34.1088 16.9609C35.7473 15.2491 37.3354 14.3943 39.0954 14.3943C40.9883 14.3943 42.7621 15.288 44.2975 16.8578L44.3319 16.8945L47.9733 13.6289L47.9367 13.5922Z" fill="#0082FB"></path>
<path d="M54.9956 32.8694C54.8581 24.9242 52.0852 17.8223 47.9739 13.6286L47.9373 13.5919L44.2981 16.8552L44.3325 16.8919C47.4262 20.0819 49.5506 26.0127 49.7431 32.8671V32.9198H54.9956V32.8694Z" fill="url(#paint7_linear_1_1416)"></path>
<path d="M54.9955 32.9269V32.8741H49.743V32.9246C49.7522 33.2454 49.7568 33.5708 49.7568 33.8962C49.7568 35.7639 49.4795 37.2741 48.9135 38.365L48.8882 38.4154L52.8024 42.4991L52.8322 42.4533C54.253 40.2533 55.0001 37.1985 55.0001 33.4929C55.0001 33.3027 55.0001 33.1148 54.9955 32.9269Z" fill="url(#paint8_linear_1_1416)"></path>
<path d="M48.9135 38.3583L48.8883 38.4041C48.3978 39.3254 47.6989 39.9395 46.7868 40.2076L48.5697 45.8497C48.9134 45.7336 49.2487 45.5943 49.5735 45.4326C50.8425 44.7911 51.9216 43.8289 52.7039 42.6414L52.8047 42.4924L52.8322 42.4466L48.9135 38.3583Z" fill="url(#paint9_linear_1_1416)"></path>
<path d="M45.6496 40.3587C45.0492 40.3587 44.5221 40.2693 44.0042 40.0378L42.1754 45.8174C43.2044 46.168 44.2998 46.3262 45.5212 46.3262C46.6487 46.3262 47.6823 46.1589 48.6196 45.8335L46.8321 40.1914C46.4494 40.306 46.0529 40.3633 45.6496 40.3587Z" fill="url(#paint10_linear_1_1416)"></path>
<path d="M41.9906 38.3904L41.9585 38.3514L37.751 42.7377L37.7876 42.7766C39.2474 44.3396 40.6431 45.3089 42.2266 45.8406L44.0531 40.0656C43.3862 39.7791 42.7399 39.2566 41.9906 38.3904Z" fill="url(#paint11_linear_1_1416)"></path>
<path d="M41.9581 38.3466C40.6977 36.8754 39.1348 34.4233 36.6804 30.4633L33.4812 25.11L33.456 25.0641L29.7435 30.6512L29.771 30.6971L32.0375 34.5196C34.2352 38.2091 36.025 40.8766 37.7506 42.7352L37.7873 42.7718L41.9902 38.3856C41.9794 38.3727 41.9687 38.3597 41.9581 38.3466Z" fill="url(#paint12_linear_1_1416)"></path>
<defs>
<linearGradient id="paint0_linear_1_1416" x1="29.192" y1="28.4277" x2="18.1516" y2="13.9142" gradientUnits="userSpaceOnUse">
<stop offset="0.0006" stop-color="#0867DF"></stop>
<stop offset="0.4539" stop-color="#0668E1"></stop>
<stop offset="0.8591" stop-color="#0064E0"></stop>
</linearGradient>
<linearGradient id="paint1_linear_1_1416" x1="7.03212" y1="17.3485" x2="14.9097" y2="11.3529" gradientUnits="userSpaceOnUse">
<stop offset="0.1323" stop-color="#0064DF"></stop>
<stop offset="0.9988" stop-color="#0064E0"></stop>
</linearGradient>
<linearGradient id="paint2_linear_1_1416" x1="4.1284" y1="27.3804" x2="7.33994" y2="19.2715" gradientUnits="userSpaceOnUse">
<stop offset="0.0147" stop-color="#0072EC"></stop>
<stop offset="0.6881" stop-color="#0064DF"></stop>
</linearGradient>
<linearGradient id="paint3_linear_1_1416" x1="3.02651" y1="33.5629" x2="3.41829" y2="28.3403" gradientUnits="userSpaceOnUse">
<stop offset="0.0731" stop-color="#007CF6"></stop>
<stop offset="0.9943" stop-color="#0072EC"></stop>
</linearGradient>
<linearGradient id="paint4_linear_1_1416" x1="3.20452" y1="35.895" x2="3.09193" y2="35.0545" gradientUnits="userSpaceOnUse">
<stop offset="0.0731" stop-color="#007FF9"></stop>
<stop offset="1" stop-color="#007CF6"></stop>
</linearGradient>
<linearGradient id="paint5_linear_1_1416" x1="3.03957" y1="37.0057" x2="4.75824" y2="40.6628" gradientUnits="userSpaceOnUse">
<stop offset="0.0731" stop-color="#007FF9"></stop>
<stop offset="1" stop-color="#0082FB"></stop>
</linearGradient>
<linearGradient id="paint6_linear_1_1416" x1="30.2882" y1="18.9575" x2="32.3608" y2="16.0825" gradientUnits="userSpaceOnUse">
<stop offset="0.2799" stop-color="#007FF8"></stop>
<stop offset="0.9141" stop-color="#0082FB"></stop>
</linearGradient>
<linearGradient id="paint7_linear_1_1416" x1="48.9795" y1="14.797" x2="53.5833" y2="31.7863" gradientUnits="userSpaceOnUse">
<stop stop-color="#0082FB"></stop>
<stop offset="0.9995" stop-color="#0081FA"></stop>
</linearGradient>
<linearGradient id="paint8_linear_1_1416" x1="52.5587" y1="33.3228" x2="49.8578" y2="38.7988" gradientUnits="userSpaceOnUse">
<stop offset="0.0619" stop-color="#0081FA"></stop>
<stop offset="1" stop-color="#0080F9"></stop>
</linearGradient>
<linearGradient id="paint9_linear_1_1416" x1="48.6175" y1="42.8022" x2="50.7968" y2="41.3133" gradientUnits="userSpaceOnUse">
<stop stop-color="#027AF3"></stop>
<stop offset="1" stop-color="#0080F9"></stop>
</linearGradient>
<linearGradient id="paint10_linear_1_1416" x1="43.4922" y1="43.1821" x2="47.4668" y2="43.1821" gradientUnits="userSpaceOnUse">
<stop stop-color="#0377EF"></stop>
<stop offset="0.9994" stop-color="#0279F1"></stop>
</linearGradient>
<linearGradient id="paint11_linear_1_1416" x1="40.2909" y1="40.995" x2="42.5287" y2="42.316" gradientUnits="userSpaceOnUse">
<stop offset="0.0019" stop-color="#0471E9"></stop>
<stop offset="1" stop-color="#0377EF"></stop>
</linearGradient>
<linearGradient id="paint12_linear_1_1416" x1="33.6936" y1="28.5559" x2="41.0034" y2="37.7747" gradientUnits="userSpaceOnUse">
<stop offset="0.2765" stop-color="#0867DF"></stop>
<stop offset="1" stop-color="#0471E9"></stop>
</linearGradient>
</defs>
</svg>