<svg class="tool" width="180" height="56" viewBox="0 0 180 56" fill="none" xmlns="http://www.w3.org/2000/svg">
<g clip-path="url(#clip0_1_843)">
<path d="M55.9393 27.5575C55.9393 35.5691 61.0844 41.1553 68.2141 41.1553C75.3437 41.1553 80.4888 35.5691 80.4888 27.5575C80.4888 19.5458 75.3437 13.9597 68.2141 13.9597C61.0844 13.9597 55.9393 19.5458 55.9393 27.5575ZM75.7848 27.5575C75.7848 33.2906 72.6609 37.0024 68.2141 37.0024C63.7672 37.0024 60.6434 33.2906 60.6434 27.5575C60.6434 21.8244 63.7672 18.1125 68.2141 18.1125C72.6609 18.1125 75.7848 21.8244 75.7848 27.5575ZM93.736 41.1553C99.1383 41.1553 102.225 36.5982 102.225 31.1223C102.225 25.6464 99.1383 21.0893 93.736 21.0893C91.2369 21.0893 89.3994 22.0816 88.1866 23.5149V21.4568H83.7765V47.3662H88.1866V38.7297C89.3994 40.163 91.2369 41.1553 93.736 41.1553ZM88.0764 30.571C88.0764 26.9327 90.1344 24.9482 92.854 24.9482C96.0513 24.9482 97.7786 27.4472 97.7786 31.1223C97.7786 34.7974 96.0513 37.2964 92.854 37.2964C90.1344 37.2964 88.0764 35.2751 88.0764 31.7103V30.571ZM114.16 41.1553C118.019 41.1553 121.069 39.134 122.429 35.7529L118.644 34.3196C118.056 36.3042 116.329 37.4067 114.16 37.4067C111.33 37.4067 109.346 35.3854 109.015 32.0778H122.539V30.6078C122.539 25.3157 119.563 21.0893 113.976 21.0893C108.39 21.0893 104.789 25.4627 104.789 31.1223C104.789 37.0759 108.648 41.1553 114.16 41.1553ZM113.94 24.8012C116.733 24.8012 118.056 26.6387 118.093 28.7703H109.236C109.897 26.1609 111.661 24.8012 113.94 24.8012ZM125.849 40.751H130.259V29.4318C130.259 26.6755 132.28 25.2054 134.264 25.2054C136.69 25.2054 137.646 26.9327 137.646 29.3215V40.751H142.056V28.0352C142.056 23.8824 139.63 21.0893 135.587 21.0893C133.088 21.0893 131.361 22.2286 130.259 23.5149V21.4568H125.849V40.751ZM154.972 14.3639L144.976 40.751H149.643L151.885 34.7239H163.278L165.556 40.751H170.297L160.301 14.3639H154.972ZM157.545 19.5826L161.734 30.6078H153.428L157.545 19.5826ZM177.868 14.4405H173.164V40.8276H177.868V14.4405ZM45.1622 24.0554C45.7115 22.4058 45.9021 20.6579 45.7212 18.9287C45.5403 17.1994 44.9921 15.5288 44.1132 14.0286C41.4396 9.3735 36.0648 6.97857 30.8156 8.1056C29.6615 6.80528 28.2431 5.76638 26.6552 5.05839C25.0673 4.3504 23.3465 3.98963 21.608 4.00023C16.2423 3.98798 11.4816 7.44255 9.83087 12.5478C8.127 12.8967 6.5173 13.6054 5.10947 14.6266C3.70165 15.6478 2.52818 16.9579 1.6676 18.4693C-1.02593 23.1122 -0.411884 28.9647 3.18663 32.9461C2.63726 34.5957 2.44664 36.3436 2.62754 38.0728C2.80844 39.8021 3.35668 41.4727 4.23556 42.9729C6.90918 47.628 12.284 50.0229 17.5332 48.8959C18.687 50.1964 20.1054 51.2353 21.6934 51.9431C23.2814 52.6509 25.0023 53.0111 26.7408 52.9997C32.1095 53.0135 36.8718 49.5559 38.5225 44.446C40.2264 44.0972 41.8361 43.3884 43.2439 42.3672C44.6517 41.346 45.8252 40.0359 46.6858 38.5245C49.3762 33.8817 48.7607 28.0337 45.1637 24.0524L45.1622 24.0554ZM26.7439 49.7978C24.5956 49.8012 22.5147 49.0488 20.8653 47.6724C20.9403 47.6326 21.0705 47.5606 21.1547 47.5086L30.912 41.8734C31.1571 41.7341 31.3607 41.532 31.5017 41.2879C31.6427 41.0438 31.7162 40.7665 31.7144 40.4846V26.7291L35.8382 29.1102C35.8826 29.1316 35.9117 29.1745 35.9178 29.2235V40.6147C35.9117 45.6802 31.8094 49.7871 26.7439 49.7978ZM7.01484 41.3712C5.93857 39.5125 5.55096 37.3343 5.91997 35.2185C5.99194 35.2614 6.11904 35.3395 6.20938 35.3915L15.9667 41.0266C16.4613 41.3161 17.0738 41.3161 17.57 41.0266L29.4818 34.1481V38.9104C29.4849 38.9594 29.4619 39.0069 29.4236 39.0375L19.5606 44.7323C15.1674 47.262 9.55677 45.7583 7.01637 41.3712H7.01484ZM4.44688 20.0726C5.51877 18.2105 7.21084 16.7864 9.22601 16.0468C9.22601 16.131 9.22142 16.2796 9.22142 16.3837V27.6555C9.21835 28.2282 9.52461 28.7595 10.0223 29.0428L21.9341 35.9198L17.8104 38.301C17.769 38.3285 17.717 38.3331 17.671 38.3132L7.80651 32.6138C3.42245 30.0749 1.91873 24.4658 4.44534 20.0741L4.44688 20.0726ZM38.328 27.9571L26.4162 21.0786L30.5399 18.699C30.5813 18.6714 30.6333 18.6669 30.6793 18.6868L40.5438 24.3816C44.9355 26.9189 46.4408 32.5372 43.9034 36.9289C42.8304 38.7877 41.1399 40.2116 39.1258 40.9531V29.3445C39.1304 28.7718 38.8257 28.242 38.3296 27.9571H38.328ZM42.4319 21.7799C42.3599 21.7355 42.2328 21.659 42.1425 21.6069L32.3851 15.9718C32.1419 15.8296 31.8652 15.7547 31.5835 15.7547C31.3018 15.7547 31.0251 15.8296 30.7819 15.9718L18.87 22.8503V18.088C18.867 18.039 18.8899 17.9916 18.9282 17.9609L28.7912 12.2707C33.1845 9.73641 38.8012 11.2447 41.334 15.6395C42.4044 17.4958 42.7917 19.6681 42.4288 21.7799H42.4319ZM16.6282 30.2678L12.503 27.8867C12.4812 27.876 12.4626 27.86 12.4487 27.8402C12.4348 27.8204 12.426 27.7974 12.4233 27.7734V16.3822C12.4264 11.3106 16.5409 7.20061 21.6126 7.20367C23.7579 7.20367 25.8343 7.95706 27.4835 9.32909C27.4085 9.3689 27.2798 9.44087 27.1941 9.49294L17.4367 15.1281C17.1917 15.2671 16.9882 15.4689 16.8471 15.7128C16.7061 15.9566 16.6326 16.2337 16.6344 16.5154L16.6282 30.2648V30.2678ZM18.8685 25.4382L24.1744 22.3741L29.4803 25.4367V31.5633L24.1744 34.6259L18.8685 31.5633V25.4382Z" fill="black"></path>
</g>
<defs>
<clipPath id="clip0_1_843">
<rect width="180" height="56" fill="white"></rect>
</clipPath>
</defs>
</svg>