<svg class="tool" xmlns="http://www.w3.org/2000/svg" width="287" height="56" fill="none" viewBox="0 0 287 56">
  <g clip-path="url(#a)">
    <path fill="#000" d="M47.62 0H9.37A8.958 8.958 0 0 0 .414 8.957v38.248a8.958 8.958 0 0 0 8.957 8.958H47.62a8.958 8.958 0 0 0 8.957-8.957V8.956A8.958 8.958 0 0 0 47.62 0Z"></path>
    <path fill="url(#b)" d="M43.099 48.516s2.478-4.126-3.32-7.082c0 0 1.122 4.413-1.505 8.504h-2.7s-.119-.86 1.022-1.296c2.388-.92 2.484-4.843 1.785-5.315-2.132-1.433-2.974-2.657-2.424-5.775 0 0-3.69 1.35-8.277.77a.593.593 0 0 0-.591.293c-.245.424-.74 1.189-1.559 2.072 0 0-.209 2.443-.758 4.18 0 0 .209 2.974-.543 5.065h-3.225s.036-1.296 1.588-1.464c1.9-.203-.34-6.109-.34-6.109s-.096 3.22-2.03 7.56h-2.467s0-1.253 1.254-1.564c2.037-.508 1.129-4.174.8-6.21-.328-2.043-.788-5.859-2.454-7.979-1.666-2.12-2.514-2.101-2.615-5.995 0 0-1.416-2.233-.908-5.177 0 0-1.057-3.536.531-8.76 0 0-3.756-.765-3.827-1.697-.078-.931.203-1.988 1.206-2.078 1.003-.09 2.472-.239 2.478-1.296 0-1.057-1.278-2.46-.484-2.872.74-.388 1.6 2.114 2.168 1.72.37-.257-1.01-1.606-.107-1.421.37.077 3.51 1.116 4.574 6.598 1.063 5.482.62 9.143 2.156 9.143 1.534 0 8.55-.257 12.647.746 4.097 1.003 4.264 2.574 6.062 2.12 1.797-.454 3.863-1.54 5.034 2.443 1.033 3.505-1.87 3.063-1.87 4.162 0 1.099-.388 2.8.054 3.84.442 1.038.197 3.547.585 4.968.389 1.421.855 2.71-.023 4.544 0 0 .43 3.087-.538 4.783H42.15s-.167-.967.968-1.42H43.1Z"></path>
    <path fill="#000" d="M69.742 12.04h4.864v27.163h15.508v4.383H69.742V12.039Zm47.054 28.886c-1.969 2.41-4.47 3.197-7.226 3.197-5.038 0-8.281-2.409-8.281-6.792 0-4.03 2.977-6.092 8.454-7.1l6.88-1.268v-1.488c0-2.409-1.489-3.417-4.558-3.417-2.628 0-5.17.921-5.298 3.898h-4.557c.133-5.478 4.69-7.667 9.855-7.667 6.133 0 9.069 2.583 9.069 6.7v16.602h-4.338v-2.675.01Zm-6.526-.48c3.11 0 6.353-1.709 6.353-5.785v-2.276l-6.092 1.269c-2.762.567-4.511 1.227-4.511 3.549 0 1.928 1.314 3.243 4.25 3.243Zm39.078-16.081c-1.796 0-5.391 1.008-5.391 6.614v12.617h-4.598V29.403c0-2.935-1.448-5.038-4.25-5.038-1.796 0-5.386 1.008-5.386 6.614v12.617h-4.598v-22.78h4.424v3.197c1.315-2.103 3.504-3.724 6.792-3.724 3.289 0 5.606 1.754 6.746 4.337 1.489-2.455 3.898-4.337 7.493-4.337 4.997 0 7.626 3.943 7.626 8.628v14.674h-4.598V29.398c0-2.936-1.447-5.038-4.25-5.038l-.01.005Zm27.355 16.561c-1.969 2.41-4.47 3.197-7.227 3.197-5.038 0-8.281-2.409-8.281-6.792 0-4.03 2.977-6.092 8.455-7.1l6.879-1.268v-1.488c0-2.409-1.489-3.417-4.557-3.417-2.629 0-5.171.921-5.299 3.898h-4.557c.133-5.478 4.69-7.667 9.856-7.667 6.132 0 9.068 2.583 9.068 6.7v16.602h-4.337v-2.675.01Zm-6.526-.48c3.109 0 6.352-1.709 6.352-5.785v-2.276l-6.092 1.269c-2.762.567-4.511 1.227-4.511 3.549 0 1.928 1.315 3.243 4.251 3.243Zm15.55-28.406h4.485v31.54h-4.485V12.04Zm-92.508 0h4.485v31.54H93.22V12.04ZM205.47 24.365c-1.754 0-5.825 1.008-5.825 6.614v12.617h-4.598v-22.78h4.424v3.197c1.534-2.149 3.897-3.724 7.227-3.724 5.519 0 8.106 3.943 8.106 8.628v14.674h-4.557V29.398c0-2.936-1.447-5.038-4.777-5.038v.005Zm30.383 19.224v-3.243c-1.575 2.322-4.076 3.77-7.447 3.77-6.7 0-10.383-5.085-10.383-11.918 0-6.833 3.683-11.917 10.383-11.917 3.284 0 5.698 1.315 7.273 3.55V12.047h4.598v31.542h-4.424Zm-6.572-3.422c4.424 0 6.526-3.284 6.526-7.974s-2.102-7.973-6.526-7.973c-4.424 0-6.527 3.283-6.527 7.973 0 4.69 2.103 7.974 6.527 7.974Zm14.125-7.961c0-6.833 4.204-11.917 10.951-11.917 6.746 0 10.95 4.992 10.95 12.137v1.314h-17.216c.44 3.944 2.583 6.527 6.266 6.527 2.802 0 4.904-1.315 5.871-3.637h4.598c-1.447 4.511-5.258 7.493-10.469 7.493-6.747 0-10.951-5.084-10.951-11.917Zm17.129-2.107c-.568-3.59-2.716-5.959-6.178-5.959-3.463 0-5.611 2.368-6.179 5.959h12.357Z"></path>
    <path fill="#000" d="m276.003 35.573-5.784 8.02h-5.258l8.413-11.651-8.019-11.13h5.344l5.345 7.406 5.299-7.405h5.258l-7.928 11.037 8.414 11.743h-5.345l-5.739-8.02Z"></path>
  </g>
  <defs>
    <linearGradient id="b" x1="8.84" x2="42.722" y1="7.456" y2="52.72" gradientUnits="userSpaceOnUse">
      <stop stop-color="#37D7FA"></stop>
      <stop offset=".4" stop-color="#4B72FE"></stop>
      <stop offset=".68" stop-color="#FF8DF2"></stop>
      <stop offset="1" stop-color="#FF8705"></stop>
    </linearGradient>
    <clipPath id="a">
      <path fill="#fff" d="M0 0h287v56H0z"></path>
    </clipPath>
  </defs>
</svg>