<svg class="tool" xmlns="http://www.w3.org/2000/svg" width="191" height="56" fill="none" viewBox="0 0 191 56">
  <g clip-path="url(#a)">
    <path fill="#000" d="M82.585 37.558H78.25l6.606-19.135h5.213l6.596 19.135H92.33l-4.793-14.762h-.15l-4.802 14.762Zm-.27-7.521h10.24v3.158h-10.24v-3.158Zm25.782 1.411v-8.241h3.98v14.35h-3.822v-2.606h-.149a4.242 4.242 0 0 1-1.616 2.028c-.748.51-1.66.766-2.738.766-.959 0-1.803-.218-2.532-.654-.729-.436-1.299-1.056-1.71-1.86-.405-.803-.61-1.765-.616-2.887v-9.137h3.98v8.427c.006.847.233 1.517.682 2.01.448.491 1.049.737 1.803.737.48 0 .928-.109 1.345-.327a2.57 2.57 0 0 0 1.01-.99c.261-.436.389-.975.383-1.616Zm14.797-8.241v2.99h-8.643v-2.99h8.643Zm-6.681-3.438h3.981v13.379c0 .367.056.654.168.86a.928.928 0 0 0 .467.42c.205.081.442.122.71.122.187 0 .374-.016.561-.047.186-.038.33-.066.429-.084l.626 2.961c-.199.063-.479.134-.841.215-.361.087-.8.14-1.317.16-.959.036-1.8-.091-2.523-.384-.716-.293-1.273-.747-1.672-1.364-.399-.617-.595-1.395-.589-2.336V19.77Zm15.603 18.069c-1.451 0-2.706-.308-3.765-.925a6.333 6.333 0 0 1-2.438-2.597c-.573-1.115-.86-2.408-.86-3.878 0-1.482.287-2.777.86-3.886a6.257 6.257 0 0 1 2.438-2.598c1.059-.623 2.314-.934 3.765-.934 1.452 0 2.704.311 3.756.934a6.236 6.236 0 0 1 2.448 2.598c.573 1.108.86 2.404.86 3.887 0 1.47-.287 2.762-.86 3.877a6.31 6.31 0 0 1-2.448 2.597c-1.052.617-2.304.925-3.756.925Zm.019-3.083c.66 0 1.212-.187 1.654-.56.442-.38.775-.898 1-1.551.23-.655.345-1.399.345-2.233 0-.835-.115-1.58-.345-2.234-.225-.654-.558-1.17-1-1.55-.442-.38-.994-.57-1.654-.57-.666 0-1.227.19-1.682.57-.448.38-.788.896-1.018 1.55-.224.654-.336 1.399-.336 2.233 0 .835.112 1.58.336 2.234.23.654.57 1.17 1.018 1.55.455.374 1.016.561 1.682.561Zm22.396-10.147a4.193 4.193 0 0 0-.552-1.205 3.386 3.386 0 0 0-.869-.897 3.719 3.719 0 0 0-1.158-.57 4.897 4.897 0 0 0-1.43-.196c-.978 0-1.837.243-2.578.729-.735.486-1.308 1.193-1.719 2.12-.412.923-.617 2.05-.617 3.383 0 1.333.202 2.466.607 3.4.405.935.978 1.648 1.719 2.14.742.486 1.617.73 2.626.73.915 0 1.697-.163 2.345-.487a3.486 3.486 0 0 0 1.495-1.392c.349-.598.523-1.305.523-2.12l.822.12h-4.933v-3.045h8.007v2.41c0 1.682-.355 3.127-1.065 4.336a7.258 7.258 0 0 1-2.934 2.784c-1.246.648-2.672.971-4.279.971-1.794 0-3.37-.395-4.728-1.186-1.357-.797-2.416-1.928-3.176-3.392-.754-1.47-1.131-3.214-1.131-5.232 0-1.55.225-2.933.673-4.148.455-1.22 1.09-2.255 1.906-3.102a8.235 8.235 0 0 1 2.85-1.934c1.083-.442 2.258-.663 3.522-.663a9.36 9.36 0 0 1 3.027.476 8.062 8.062 0 0 1 2.485 1.327 7.183 7.183 0 0 1 1.785 2.046c.461.785.757 1.65.888 2.597h-4.111Zm13.792 13.23c-1.476 0-2.747-.299-3.812-.897a6.148 6.148 0 0 1-2.448-2.56c-.573-1.108-.859-2.42-.859-3.933 0-1.476.286-2.772.859-3.887.574-1.115 1.38-1.984 2.42-2.607 1.047-.623 2.274-.934 3.682-.934.946 0 1.828.153 2.644.458a5.87 5.87 0 0 1 2.149 1.355c.616.604 1.096 1.364 1.438 2.28.343.909.514 1.974.514 3.195V31.4h-12.118v-2.467h8.372c0-.573-.125-1.08-.374-1.523a2.678 2.678 0 0 0-1.037-1.037c-.436-.255-.944-.383-1.523-.383-.604 0-1.14.14-1.607.42a2.951 2.951 0 0 0-1.084 1.112 3.144 3.144 0 0 0-.402 1.542v2.345c0 .71.131 1.324.393 1.84.268.518.644.916 1.13 1.197.486.28 1.062.42 1.729.42.442 0 .847-.062 1.214-.187.368-.124.682-.311.944-.56.262-.25.461-.555.598-.916l3.681.243a5.03 5.03 0 0 1-1.149 2.317c-.573.654-1.314 1.165-2.224 1.532-.903.362-1.946.542-3.13.542Zm13.165-8.577v8.297h-3.98V23.207h3.793v2.532h.168a4.003 4.003 0 0 1 1.598-1.98c.747-.493 1.654-.739 2.719-.739.996 0 1.865.218 2.606.654.742.436 1.318 1.059 1.729 1.869.411.803.616 1.762.616 2.877v9.138h-3.98V29.13c.007-.878-.218-1.563-.672-2.055-.455-.498-1.081-.747-1.878-.747-.536 0-1.009.115-1.42.345-.405.23-.723.567-.953 1.01-.225.435-.34.962-.346 1.578Z"></path>
    <g clip-path="url(#b)">
      <path fill="#2D2D2F" d="M59.296 0H3.954A3.953 3.953 0 0 0 .001 3.953v48.094A3.953 3.953 0 0 0 3.954 56h55.342a3.953 3.953 0 0 0 3.953-3.953V3.953A3.953 3.953 0 0 0 59.295 0Z"></path>
      <path fill="url(#c)" d="m21.511 18.915-6.115 18.638h-4.925l8.353-22.482h3.135l-.448 3.844Zm5.08 18.638-6.13-18.638-.494-3.844h3.165l8.4 22.482h-4.94Zm-.278-8.37v3.63H14.44v-3.63h11.874Zm24.845-3.38v8.909c-.35.422-.89.88-1.621 1.374-.731.484-1.673.9-2.826 1.25s-2.548.526-4.184.526c-1.452 0-2.775-.237-3.969-.71a8.577 8.577 0 0 1-3.088-2.116c-.855-.926-1.513-2.059-1.977-3.397-.463-1.348-.695-2.887-.695-4.617v-1.405c0-1.73.222-3.268.664-4.617.453-1.349 1.097-2.486 1.93-3.413a8.262 8.262 0 0 1 2.98-2.115c1.154-.484 2.435-.726 3.846-.726 1.956 0 3.561.32 4.817.958 1.256.628 2.214 1.503 2.872 2.625.67 1.111 1.081 2.388 1.236 3.83h-4.494c-.113-.763-.33-1.427-.648-1.993a3.352 3.352 0 0 0-1.374-1.328c-.587-.319-1.35-.478-2.286-.478-.772 0-1.462.16-2.069.478-.597.31-1.101.767-1.513 1.374-.412.608-.726 1.36-.942 2.255-.216.896-.324 1.935-.324 3.119v1.436c0 1.174.113 2.213.34 3.12.226.895.56 1.651 1.003 2.269a4.376 4.376 0 0 0 1.668 1.374c.659.31 1.425.464 2.3.464.731 0 1.339-.062 1.822-.186.495-.123.89-.273 1.19-.448a3.74 3.74 0 0 0 .71-.525v-3.983h-4.231v-3.305h8.863Z"></path>
    </g>
  </g>
  <defs>
    <clipPath id="a">
      <path fill="#fff" d="M0 0h190.438v56H0z"></path>
    </clipPath>
    <clipPath id="b">
      <path fill="#fff" d="M0 0h63.247v56H0z"></path>
    </clipPath>
    <linearGradient id="c" x1="30.814" x2="30.814" y1="17.396" y2="37.862" gradientUnits="userSpaceOnUse">
      <stop stop-color="#fff"></stop>
      <stop offset="1" stop-color="#7B7D7F"></stop>
    </linearGradient>
  </defs>
</svg>