<svg class="tool" xmlns="http://www.w3.org/2000/svg" width="90" height="56" fill="none" viewBox="0 0 90 56">
  <path fill="#F8971D" d="M20.86 27.002c2.193 2.52-.575 4.791-.575 4.791s5.566-2.877 2.977-6.468c-2.381-3.353-4.217-5.02 5.694-10.774 0 0-15.556 3.889-8.125 12.45"></path>
  <path fill="#F8971D" d="M23.293 5.272s4.723 4.723-4.474 11.985c-7.381 5.823-1.687 9.147 0 12.897-4.306-3.889-7.46-7.302-5.347-10.496 3.115-4.673 11.736-6.945 9.831-14.435"></path>
  <path fill="#58839F" d="M46.637 43.528c0 3.188-1.075 5.582-3.224 7.183l-1.548-1.34a6.358 6.358 0 0 0 1.38-2.877c.18-1.045.26-2.105.237-3.165V25.79h3.165l-.01 17.739Zm14.226 2.057h-2.381l-.238-1.587a6.835 6.835 0 0 1-4.514 1.875c-2.93 0-4.395-1.35-4.395-4.048a4.196 4.196 0 0 1 1.785-3.611 9.693 9.693 0 0 1 5.655-1.38h1.062v-1.349c0-1.74-.992-2.609-2.976-2.609-1.468.03-2.919.32-4.286.853l-.437-1.845a13.601 13.601 0 0 1 5.546-1.2c3.46 0 5.189 1.474 5.189 4.424l-.01 10.477Zm-2.977-3.373v-3.463h-1.26c-2.83 0-4.249.88-4.255 2.64a1.985 1.985 0 0 0 2.261 2.291 5.1 5.1 0 0 0 3.255-1.468Zm17.639-11.228a57.54 57.54 0 0 1-4.514 14.604h-3.72l-4.484-14.604h3.254l2.787 8.93.616 2.698a54.692 54.692 0 0 0 2.907-11.628h3.154Zm12.373 14.601h-2.341l-.238-1.587a6.855 6.855 0 0 1-4.514 1.875c-2.93 0-4.395-1.35-4.395-4.048a4.197 4.197 0 0 1 1.786-3.611 9.703 9.703 0 0 1 5.665-1.38h1.051v-1.349c0-1.74-.992-2.609-2.976-2.609a12.5 12.5 0 0 0-4.276.853l-.437-1.845a13.611 13.611 0 0 1 5.546-1.2c3.46 0 5.189 1.474 5.189 4.424l-.06 10.477Zm-2.976-3.373v-3.463h-1.26c-2.837 0-4.256.88-4.256 2.64a1.985 1.985 0 0 0 2.262 2.291 5.09 5.09 0 0 0 3.254-1.468Zm-72.145-1.767s-1.736.992 1.24 1.35c3.136.441 6.327.307 9.415-.397.797.477 1.633.885 2.5 1.22-8.929 3.82-20.14-.218-13.145-2.173m-1.092-4.961s-1.984 1.439.992 1.746a36.79 36.79 0 0 0 12.144-.585c.54.505 1.178.894 1.875 1.141-10.755 3.145-22.739.248-15.04-2.302"></path>
  <path fill="#58839F" d="M32.629 44.094s1.29 1.062-1.42 1.875c-5.138 1.558-21.369 1.984-25.883.06-1.627-.705 1.419-1.687 2.371-1.885a6.366 6.366 0 0 1 1.568-.179c-1.806-1.27-11.658 2.5-4.96 3.572 18.135 2.976 33.066-1.32 28.363-3.443M13.61 30.29s-8.264 1.983-2.927 2.678c3.635.28 7.286.24 10.913-.12 3.423-.287 6.846-.902 6.846-.902a14.46 14.46 0 0 0-2.074 1.111c-8.383 2.212-24.594 1.18-19.92-1.071a15.625 15.625 0 0 1 7.152-1.687m14.833 8.271c8.522-4.425 4.583-8.691 1.835-8.116a6.55 6.55 0 0 0-.992.258c.181-.259.438-.456.734-.566 5.446-1.914 9.623 5.645-1.756 8.642a.763.763 0 0 0 .169-.228"></path>
  <path fill="#58839F" d="M14.453 50.573c8.185.526 20.755-.288 21.052-4.167 0 0-.575 1.469-6.766 2.64a67.261 67.261 0 0 1-20.715.317s1.042.863 6.43 1.21Z"></path>
</svg>