<svg class="tool" width="56" height="56" viewBox="0 0 56 56" fill="none" xmlns="http://www.w3.org/2000/svg">
<g clip-path="url(#clip0_3278_44490)">
<path fill-rule="evenodd" clip-rule="evenodd" d="M0 0H56V56H0V0ZM23.2404 35.5545H25.8142V21H23.5473V30.3782C23.5473 31.2985 23.5804 31.9514 23.6463 32.3371H23.6068C23.5276 32.1747 23.3494 31.877 23.0722 31.4439L16.519 21H13.7769V35.5545H16.0538V26.0138C16.0538 24.9922 16.0274 24.3257 15.9746 24.0144H16.034C16.1461 24.3054 16.2881 24.5862 16.4597 24.8569L23.2404 35.5545ZM8.97555 35.3819C9.25272 35.6458 9.58929 35.7777 9.98524 35.7777C10.3878 35.7777 10.7277 35.6458 11.0048 35.3819C11.2886 35.1113 11.4305 34.7899 11.4305 34.4178C11.4305 34.0388 11.2886 33.7141 11.0048 33.4434C10.7277 33.1728 10.3878 33.0374 9.98524 33.0374C9.58929 33.0374 9.25272 33.1728 8.97555 33.4434C8.69837 33.7141 8.55978 34.0388 8.55978 34.4178C8.55978 34.7899 8.69837 35.1113 8.97555 35.3819ZM36.9015 35.5545H28.9328V21H36.5848V23.0503H31.2888V27.1709H36.1691V29.211H31.2888V33.5144H36.9015V35.5545ZM44.1481 23.0503H48.2265V21H37.7236V23.0503H41.792V35.5545H44.1481V23.0503Z" fill="#512AD4"></path>
</g>
<defs>
<clipPath id="clip0_3278_44490">
<rect width="56" height="56" fill="white"></rect>
</clipPath>
</defs>
</svg>