<svg class="tool" width="72" height="56" viewBox="0 0 72 56" fill="none" xmlns="http://www.w3.org/2000/svg">
<path fill-rule="evenodd" clip-rule="evenodd" d="M14.3866 22.575C16.6617 22.575 18.1338 22.9765 18.8699 23.8464C19.6059 24.6493 19.8067 26.1215 19.4052 28.1289C19.0037 30.2032 18.2007 31.7423 17.0632 32.6122C15.9257 33.4821 14.119 33.9505 11.71 33.9505H8.09665L10.3048 22.575H14.3866ZM0 45.4597H5.88848L7.29368 38.233H12.3792C14.5874 38.233 16.461 37.9653 17.8662 37.4969C19.3383 37.0285 20.6097 36.2255 21.8141 35.1549C22.8178 34.2181 23.6208 33.2144 24.223 32.1438C24.8253 31.0731 25.2937 29.8018 25.5613 28.5304C26.1636 25.3185 25.6952 22.7757 24.1561 21.036C22.6171 19.2293 20.0743 18.3594 16.6617 18.3594H5.28625L0 45.4597Z" fill="#6082BB"></path>
<path fill-rule="evenodd" clip-rule="evenodd" d="M29.9107 11.0664H35.7992L34.394 18.2932H39.6133C42.8921 18.2932 45.1672 18.8954 46.4386 20.0329C47.71 21.1705 48.0446 23.0441 47.5762 25.5869L45.1003 38.2337H39.1449L41.4869 26.256C41.7546 24.9177 41.6877 23.9809 41.2193 23.4456C40.7509 22.9772 39.7472 22.7095 38.275 22.7095H33.591L30.5799 38.2337H24.6914L29.9107 11.0664Z" fill="#6082BB"></path>
<path fill-rule="evenodd" clip-rule="evenodd" d="M60.5575 22.575C62.8326 22.575 64.3047 22.9765 65.0408 23.8464C65.7768 24.6493 65.9776 26.1215 65.5761 28.1289C65.1746 30.2032 64.3716 31.7423 63.2341 32.6122C62.0965 33.4821 60.2899 33.9505 57.8809 33.9505H54.2676L56.4757 22.575H60.5575ZM46.1709 45.4597H52.0594L53.4646 38.233H58.5501C60.7583 38.233 62.6319 37.9653 64.0371 37.4969C65.5092 37.0285 66.7806 36.2255 67.985 35.1549C68.9887 34.2181 69.7917 33.2144 70.3939 32.1438C70.9962 31.0731 71.4646 29.8018 71.7322 28.5304C72.3345 25.3185 71.8661 22.7757 70.327 21.036C68.788 19.2293 66.2452 18.3594 62.8326 18.3594H51.4571L46.1709 45.4597Z" fill="#6082BB"></path>
</svg>