<svg class="tool" width="56" height="56" viewBox="0 0 56 56" fill="none" xmlns="http://www.w3.org/2000/svg">
<path d="M47.5 41.1712C47.5 41.1712 52 40.6644 52 35.089C52 29.5137 46.75 28.7534 46.75 28.7534H37.25V47H42V42.6918L46.25 47H53L47.5 41.1712ZM45.5 37.6233H41.75V33.5685H45.5C45.5 33.5685 46.5 34.0753 46.5 35.5959C46.75 37.1164 45.5 37.6233 45.5 37.6233ZM51.25 19.6301V20.137C31 14.3082 23 32.3014 24.5 46.2397H8.75C10.5 32.5548 27.5 5.43836 51.25 19.6301ZM49.25 16.3356C47.5 15.5753 45.75 14.8151 44 14.3082L44.25 11.0137L49.5 13.0411L49.25 16.3356ZM44.25 20.8973C46 20.8973 47.75 21.1507 49.5 21.6575L49.25 24.6986L44.75 24.1918L44.25 20.8973ZM32.75 13.5479L31.75 10.5068L37 10L38 13.2945C37.5 13.2945 33.25 13.5479 32.75 13.5479ZM36 22.9247C37 22.4178 38.75 21.6575 41 21.1507L42 24.1918L37.5 25.9658L36 22.9247ZM27.5 15.3219C26 16.0822 24.5 16.8425 23 17.8562L21 14.5616L25.5 12.0274L27.5 15.3219ZM33.75 24.4452L35.75 27.4863L33 30.7808L30.25 28.2466C31 26.726 32.25 25.4589 33.75 24.4452ZM27 36.863C27.25 34.8356 27.75 33.0616 28.5 31.0342L31.5 33.5685L30.75 38.3836L27 36.863ZM17.75 22.4178C16.5 23.6849 15.25 25.2055 14.25 26.4726L11 23.6849L14.75 19.6301L17.75 22.4178ZM10 33.5685C9 35.5959 8.25 37.6233 7.5 39.3973L3 37.6233L5.25 31.7945L10 33.5685ZM26.75 40.1575L31.25 41.6781L32 46.7466L27 45.4795C27 44.9726 26.75 43.1986 26.75 40.1575Z" fill="#D30001"></path>
</svg>