<svg class="tool" width="137" height="56" viewBox="0 0 137 56" fill="none" xmlns="http://www.w3.org/2000/svg">
<path d="M51.6046 28.2659C51.6046 24.1572 50.433 22.0479 48.0899 21.9324C47.1576 21.8884 46.2473 22.0369 45.3618 22.3807C44.655 22.6337 44.1793 22.8839 43.929 23.1369V32.9438C45.4278 33.8844 46.7589 34.3216 47.9194 34.2529C50.3753 34.0906 51.6046 32.0968 51.6046 28.2659ZM54.4949 28.4364C54.4949 30.5237 54.0054 32.2563 53.0209 33.6341C51.9236 35.1934 50.4028 35.9965 48.4584 36.0405C46.9926 36.0872 45.4828 35.6279 43.929 34.6654V43.5785L41.4154 42.682V22.8977C41.8279 22.3917 42.3587 21.9571 43.0022 21.5886C44.4983 20.7169 46.3161 20.2686 48.4557 20.2466L48.4914 20.2823C50.4468 20.2576 51.9538 21.0606 53.0126 22.6887C53.9999 24.182 54.4949 26.0961 54.4949 28.4364Z" fill="#646464"></path>
<path d="M69.8566 34.2859C69.8566 37.0855 69.5761 39.0243 69.0151 40.1024C68.4513 41.1804 67.3787 42.0412 65.7947 42.682C64.5104 43.188 63.1216 43.463 61.631 43.5098L61.2158 41.9257C62.7311 41.7194 63.7981 41.5132 64.4169 41.3069C65.6352 40.8944 66.4712 40.2619 66.9305 39.4148C67.299 38.7246 67.4805 37.4073 67.4805 35.4574V34.8029C65.7617 35.5839 63.9604 35.9717 62.0765 35.9717C60.839 35.9717 59.7472 35.5839 58.8067 34.8029C57.7506 33.9531 57.2226 32.8751 57.2226 31.5688V21.1074L59.7362 20.2466V30.7767C59.7362 31.9015 60.0992 32.7678 60.8252 33.3756C61.5513 33.9834 62.4918 34.2749 63.6441 34.2529C64.7964 34.2281 66.0312 33.7826 67.343 32.9108V20.6261H69.8566V34.2859Z" fill="#646464"></path>
<path d="M79.6691 35.9042C79.3693 35.929 79.0943 35.94 78.8413 35.94C77.4195 35.94 76.3112 35.6017 75.5192 34.9224C74.7299 34.2432 74.3339 33.3054 74.3339 32.1091V22.2087H72.6123V20.6274H74.3339V16.428L76.8447 15.5342V20.6274H79.6691V22.2087H76.8447V32.0403C76.8447 32.9836 77.0977 33.6519 77.6037 34.0424C78.0383 34.3642 78.7285 34.5484 79.6691 34.5952V35.9042Z" fill="#646464"></path>
<path d="M94.8893 35.6976H92.3757V25.9952C92.3757 25.0079 92.1446 24.1581 91.6854 23.4486C91.1546 22.6455 90.4176 22.244 89.4715 22.244C88.3192 22.244 86.8782 22.8518 85.1484 24.0674V35.6976H82.6348V12.5059L85.1484 11.7139V22.277C86.7544 21.1082 88.509 20.5225 90.4148 20.5225C91.7459 20.5225 92.8239 20.9707 93.649 21.8645C94.4767 22.7583 94.8893 23.8721 94.8893 25.2031V35.6976Z" fill="#646464"></path>
<path d="M108.248 27.8699C108.248 26.2913 107.948 24.9878 107.352 23.9565C106.642 22.6997 105.539 22.0369 104.049 21.9681C101.293 22.1277 99.918 24.1022 99.918 27.8864C99.918 29.6217 100.204 31.071 100.782 32.2343C101.519 33.7166 102.624 34.4481 104.098 34.4234C106.865 34.4014 108.248 32.2178 108.248 27.8699ZM111.001 27.8864C111.001 30.1332 110.426 32.0033 109.279 33.4966C108.017 35.1687 106.273 36.0075 104.049 36.0075C101.843 36.0075 100.124 35.1687 98.8839 33.4966C97.7591 32.0033 97.1981 30.1332 97.1981 27.8864C97.1981 25.7743 97.8059 23.9977 99.0214 22.5512C100.306 21.0166 101.994 20.2466 104.082 20.2466C106.169 20.2466 107.869 21.0166 109.178 22.5512C110.393 23.9977 111.001 25.7743 111.001 27.8864Z" fill="#646464"></path>
<path d="M125.41 35.6967H122.896V25.4443C122.896 24.3195 122.558 23.4422 121.881 22.8097C121.205 22.1799 120.303 21.8746 119.178 21.8994C117.984 21.9214 116.849 22.3119 115.77 23.0682V35.6967H113.257V22.7574C114.703 21.7041 116.035 21.0166 117.25 20.6948C118.397 20.3951 119.409 20.2466 120.281 20.2466C120.877 20.2466 121.438 20.3043 121.966 20.4198C122.954 20.6481 123.757 21.0716 124.376 21.6931C125.066 22.3807 125.41 23.2057 125.41 24.171V35.6967Z" fill="#646464"></path>
<path d="M16.5891 12.5977C15.2958 12.6037 14.0608 12.714 12.9741 12.9063C9.77278 13.4718 9.19155 14.6556 9.19155 16.8387V19.7219H16.7566V20.6829H9.19155H6.35245C4.15384 20.6829 2.22866 22.0044 1.62649 24.5184C0.931901 27.3999 0.901092 29.1981 1.62649 32.2069C2.16425 34.4465 3.44847 36.0423 5.64709 36.0423H8.24813V32.586C8.24813 30.089 10.4086 27.8865 12.9741 27.8865H20.5303C22.6337 27.8865 24.3129 26.1546 24.3128 24.0422V16.8387C24.3128 14.7885 22.5833 13.2484 20.5303 12.9063C19.2308 12.6899 17.8823 12.5917 16.5891 12.5977ZM12.498 14.9166C13.2794 14.9166 13.9175 15.5651 13.9175 16.3626C13.9175 17.1572 13.2794 17.7997 12.498 17.7997C11.7137 17.7997 11.0784 17.1572 11.0784 16.3626C11.0784 15.5651 11.7137 14.9166 12.498 14.9166Z" fill="url(#paint0_linear_1_1616)"></path>
<path d="M25.2567 20.6841V24.0434C25.2567 26.6478 23.0486 28.8399 20.5307 28.8399H12.9745C10.9047 28.8399 9.19196 30.6113 9.19196 32.6841V39.8877C9.19196 41.9379 10.9747 43.1438 12.9745 43.7319C15.3692 44.4361 17.6655 44.5633 20.5307 43.7319C22.4353 43.1805 24.3133 42.0708 24.3133 39.8877V37.0045H16.757V36.0434H24.3133H28.0958C30.2944 36.0434 31.1137 34.5099 31.8783 32.208C32.6681 29.8383 32.6345 27.5594 31.8783 24.5195C31.335 22.3308 30.2972 20.6841 28.0958 20.6841H25.2567ZM21.0068 38.9266C21.7911 38.9266 22.4264 39.5692 22.4264 40.3638C22.4264 41.1613 21.7911 41.8098 21.0068 41.8098C20.2254 41.8098 19.5873 41.1613 19.5873 40.3638C19.5873 39.5692 20.2254 38.9266 21.0068 38.9266Z" fill="url(#paint1_linear_1_1616)"></path>
<path d="M130.308 18.3874H130.749V15.6234H131.793V15.2939H129.264V15.6234H130.308V18.3874ZM132.184 18.3874H132.56V15.863L133.377 18.3871H133.797L134.648 15.8716V18.3874H135.059V15.2939H134.516L133.585 17.9441L132.791 15.2939H132.184V18.3874Z" fill="#646464"></path>
<defs>
<linearGradient id="paint0_linear_1_1616" x1="1.09393" y1="12.5974" x2="18.5381" y2="27.4623" gradientUnits="userSpaceOnUse">
<stop stop-color="#5A9FD4"></stop>
<stop offset="1" stop-color="#306998"></stop>
</linearGradient>
<linearGradient id="paint1_linear_1_1616" x1="20.825" y1="40.1214" x2="14.5667" y2="31.3516" gradientUnits="userSpaceOnUse">
<stop stop-color="#FFD43B"></stop>
<stop offset="1" stop-color="#FFE873"></stop>
</linearGradient>
</defs>
</svg>