<svg class="tool" width="71" height="56" viewBox="0 0 71 56" fill="none" xmlns="http://www.w3.org/2000/svg">
<path d="M34.9516 50.0006C34.7182 50.0006 34.4864 49.9384 34.2818 49.8187L32.1498 48.5363C31.8314 48.3554 31.9868 48.2914 32.0918 48.2546C32.5164 48.1035 32.6025 48.0694 33.0557 47.808C33.1034 47.7803 33.1657 47.7901 33.2145 47.8193L34.8523 48.8068C34.9115 48.8392 34.9954 48.8392 35.0502 48.8068L41.4365 45.0617C41.4956 45.0275 41.534 44.9577 41.534 44.8863V37.3993C41.534 37.3246 41.4956 37.258 41.4352 37.2206L35.0515 33.4788C34.9924 33.4431 34.914 33.4431 34.8549 33.4788L28.4725 37.2206C28.4106 37.2564 28.3713 37.3262 28.3713 37.3977V44.8846C28.3713 44.9561 28.4097 45.0243 28.4704 45.0584L30.2192 46.0848C31.1688 46.5672 31.7491 45.9987 31.7491 45.4271V38.0375C31.7491 37.932 31.8306 37.8508 31.9345 37.8508H32.7434C32.8441 37.8508 32.9272 37.932 32.9272 38.0375V45.4303C32.9272 46.7166 32.2366 47.4555 31.0361 47.4555C30.6668 47.4555 30.3759 47.4555 29.5638 47.0495L27.8885 46.0686C27.4745 45.825 27.2188 45.3702 27.2188 44.8846V37.3977C27.2188 36.9104 27.4745 36.4557 27.8885 36.2153L34.2812 32.4686C34.6856 32.2364 35.2227 32.2364 35.624 32.4686L42.0086 36.217C42.421 36.459 42.6784 36.9121 42.6784 37.3993V44.8863C42.6784 45.3718 42.421 45.825 42.0086 46.0686L35.624 49.8153C35.4193 49.9355 35.1876 49.9972 34.951 49.9972" fill="#112244"></path>
<path d="M36.9251 44.8424C34.1308 44.8424 33.5449 43.5392 33.5449 42.4462C33.5449 42.3423 33.6274 42.2594 33.7299 42.2594H34.5547C34.6458 42.2594 34.7226 42.3268 34.737 42.4183C34.8617 43.2722 35.2325 43.7029 36.9222 43.7029C38.2682 43.7029 38.8405 43.394 38.8405 42.6689C38.8405 42.2515 38.6774 41.9413 36.5865 41.7334C34.8377 41.558 33.7571 41.1666 33.7571 39.7455C33.7571 38.4365 34.8441 37.657 36.6648 37.657C38.7094 37.657 39.7229 38.3781 39.8507 39.9274C39.8555 39.981 39.8364 40.033 39.8012 40.072C39.766 40.1093 39.7165 40.1321 39.6653 40.1321H38.8357C38.7493 40.1321 38.6742 40.0703 38.6566 39.9859C38.4568 39.0878 37.974 38.8003 36.6616 38.8003C35.1926 38.8003 35.0215 39.32 35.0215 39.7098C35.0215 40.1824 35.2229 40.3205 37.2051 40.5868C39.1682 40.8515 40.1001 41.2251 40.1001 42.6266C40.1001 44.0396 38.9396 44.85 36.9158 44.85M44.6944 36.9099H44.9086C45.0844 36.9099 45.118 36.7849 45.118 36.7118C45.118 36.5201 44.9885 36.5201 44.9166 36.5201H44.696L44.6944 36.9099ZM44.4338 36.296H44.9086C45.0716 36.296 45.3913 36.296 45.3913 36.6663C45.3913 36.9245 45.2283 36.9781 45.1308 37.0106C45.321 37.0236 45.3338 37.1503 45.3594 37.3289C45.3722 37.441 45.3929 37.6342 45.4313 37.6992H45.1388C45.1308 37.6342 45.086 37.2769 45.086 37.2575C45.0668 37.1779 45.0397 37.1389 44.9422 37.1389H44.7008V37.7008H44.4338V36.296ZM43.8631 36.9944C43.8631 37.5758 44.3251 38.0468 44.8926 38.0468C45.4649 38.0468 45.9269 37.566 45.9269 36.9944C45.9269 36.4113 45.4585 35.9485 44.891 35.9485C44.3315 35.9485 43.8615 36.4048 43.8615 36.9927M46.1251 36.9976C46.1251 37.6862 45.5704 38.2481 44.8942 38.2481C44.2228 38.2481 43.6633 37.6927 43.6633 36.9976C43.6633 36.2895 44.2356 35.7471 44.8942 35.7471C45.5576 35.7471 46.1235 36.2911 46.1235 36.9976" fill="#112244"></path>
<path fill-rule="evenodd" clip-rule="evenodd" d="M15.1761 20.7059C15.1761 20.4071 15.021 20.1326 14.7671 19.984L7.9963 16.0262C7.882 15.9579 7.75396 15.9222 7.62416 15.9173H7.55414C7.42434 15.9222 7.29629 15.9579 7.18008 16.0262L0.40955 19.984C0.157298 20.1334 0 20.4079 0 20.7067L0.0148666 31.3671C0.0148666 31.5149 0.0899987 31.653 0.217883 31.726C0.342571 31.804 0.499229 31.804 0.623917 31.726L4.64908 29.3841C4.90325 29.2305 5.05831 28.9589 5.05831 28.663V23.6828C5.05831 23.3856 5.21337 23.1112 5.46674 22.9634L7.1804 21.9607C7.30764 21.886 7.44736 21.8489 7.58963 21.8489C7.72966 21.8489 7.87257 21.8856 7.9963 21.9605L9.70915 22.9629C9.96268 23.1107 10.1184 23.3851 10.1184 23.6823V28.6622C10.1184 28.9578 10.2755 29.2307 10.5284 29.3833L14.551 31.7236C14.6773 31.7999 14.8344 31.7999 14.9603 31.7236C15.0843 31.6505 15.1629 31.5125 15.1629 31.3647L15.1761 20.7059ZM47.1261 26.2563C47.1261 26.3306 47.0872 26.3993 47.0238 26.436L44.6982 27.7979C44.6351 27.8348 44.557 27.8348 44.4941 27.7979L42.1682 26.436C42.1042 26.3991 42.0659 26.3304 42.0659 26.2563V23.5285C42.0659 23.4542 42.1042 23.3856 42.1666 23.3483L44.4909 21.9841C44.5548 21.9467 44.6331 21.9467 44.6971 21.9841L47.023 23.3483C47.0869 23.3856 47.1253 23.4542 47.1253 23.5285L47.1261 26.2563ZM47.7543 6.05258C47.6274 5.9808 47.473 5.98275 47.3476 6.05697C47.223 6.13168 47.1459 6.2681 47.1459 6.41589V16.9723C47.1459 17.0763 47.0916 17.1721 47.003 17.2241C46.9151 17.276 46.8056 17.276 46.7169 17.2241L45.0208 16.2316C44.7682 16.0832 44.4571 16.0832 44.2036 16.2316L37.4305 20.2029C37.1775 20.3507 37.0213 20.6252 37.0213 20.9208V28.8657C37.0213 29.1629 37.1775 29.4358 37.4305 29.5852L44.2036 33.5593C44.4565 33.7071 44.7679 33.7071 45.0216 33.5593L51.7947 29.5836C52.0472 29.4342 52.2039 29.1613 52.2039 28.8641V9.06345C52.2039 8.76202 52.0424 8.48479 51.7835 8.33749L47.7543 6.05258ZM70.3088 23.4568C70.5604 23.3083 70.7153 23.0342 70.7153 22.7386V20.8131C70.7153 20.5169 70.5603 20.2435 70.3082 20.0945L63.5783 16.1252C63.3241 15.9758 63.0124 15.9758 62.7582 16.1252L55.9867 20.0961C55.7326 20.2455 55.5775 20.5183 55.5775 20.8155V28.7572C55.5775 29.0561 55.7357 29.3322 55.9899 29.4799L62.7182 33.3761C62.966 33.5206 63.2697 33.5223 63.5207 33.381L67.5906 31.0829C67.7185 31.0098 67.8001 30.8718 67.8001 30.7224C67.8001 30.573 67.7217 30.4333 67.5938 30.3602L60.7808 26.3877C60.6529 26.3146 60.5746 26.1766 60.5746 26.0288V23.5375C60.5746 23.3887 60.6513 23.2516 60.7792 23.1776L62.8989 21.9352C63.0252 21.8605 63.1802 21.8605 63.3065 21.9352L65.4278 23.1776C65.5541 23.2507 65.6324 23.3887 65.6324 23.5365V25.4951C65.6324 25.6429 65.7107 25.781 65.837 25.8557C65.9633 25.9288 66.12 25.9288 66.2463 25.8541L70.3088 23.4568Z" fill="#112244"></path>
<path fill-rule="evenodd" clip-rule="evenodd" d="M63.0692 23.0855C63.1171 23.0568 63.1772 23.0568 63.2258 23.0855L64.5255 23.8472C64.5741 23.8758 64.6038 23.9284 64.6038 23.9853V25.5103C64.6038 25.5671 64.5741 25.6197 64.5255 25.6483L63.2258 26.41C63.1772 26.4387 63.1171 26.4387 63.0692 26.41L61.7704 25.6483C61.7208 25.6197 61.6904 25.5671 61.6904 25.5103V23.9853C61.6904 23.9284 61.7192 23.8758 61.7688 23.8472L63.0692 23.0855Z" fill="#112244"></path>
<mask id="mask0_701_718" style="mask-type:luminance" maskUnits="userSpaceOnUse" x="18" y="16" width="16" height="18">
<path d="M25.6905 16.1656L18.9558 20.1149C18.7036 20.2627 18.5488 20.5355 18.5488 20.8304V28.7345C18.5488 29.0295 18.7036 29.3022 18.9558 29.45L25.691 33.4024C25.9428 33.5497 26.2532 33.5497 26.5047 33.4024L33.2388 29.45C33.4897 29.3022 33.6448 29.0294 33.6448 28.7345V20.8304C33.6448 20.5355 33.4897 20.2627 33.2372 20.1149L26.504 16.1656C26.3778 16.092 26.2371 16.0552 26.0964 16.0552C25.9557 16.0552 25.8151 16.092 25.6888 16.1656" fill="white"></path>
</mask>
<g mask="url(#mask0_701_718)">
<path d="M40.4508 19.4441L21.4736 9.99365L11.7432 30.1604L30.7199 39.6113L40.4508 19.4441Z" fill="#112244"></path>
</g>
</svg>