<svg class="tool" width="56" height="56" viewBox="0 0 56 56" fill="none" xmlns="http://www.w3.org/2000/svg">
<path d="M28.0062 24.8562C30.2534 24.8562 32.075 23.0346 32.075 20.7875C32.075 18.5404 30.2534 16.7188 28.0062 16.7188C25.7591 16.7188 23.9375 18.5404 23.9375 20.7875C23.9375 23.0346 25.7591 24.8562 28.0062 24.8562Z" fill="#61DAFB"></path>
<path d="M28.0031 35.7469C31.1969 38.8531 34.3469 40.6906 36.8844 40.6906C37.7156 40.6906 38.5031 40.5156 39.1594 40.1219C41.4344 38.8094 42.2656 35.5281 41.4781 30.8469C41.3469 30.0156 41.1719 29.1844 40.9531 28.3094C41.8281 28.0469 42.6156 27.7844 43.4031 27.5219C47.8219 25.8156 50.2719 23.4531 50.2719 20.8719C50.2719 18.2469 47.8219 15.8844 43.4031 14.2219C42.6156 13.9156 41.8281 13.6531 40.9531 13.4344C41.1719 12.5594 41.3469 11.7281 41.4781 10.8969C42.2219 6.12812 41.3906 2.80313 39.1156 1.49063C38.4594 1.09688 37.6719 0.921875 36.8406 0.921875C34.3469 0.921875 31.1531 2.75937 27.9594 5.86562C24.8094 2.75937 21.6594 0.921875 19.1219 0.921875C18.2906 0.921875 17.5031 1.09688 16.8469 1.49063C14.5719 2.80313 13.7406 6.08438 14.5281 10.7656C14.6594 11.5969 14.8344 12.4281 15.0531 13.3031C14.1781 13.5656 13.3906 13.8281 12.6031 14.0906C8.18437 15.7969 5.73438 18.1594 5.73438 20.7406C5.73438 23.3656 8.18437 25.7281 12.6031 27.3906C13.3906 27.6969 14.1781 27.9594 15.0531 28.1781C14.8344 29.0531 14.6594 29.8844 14.5281 30.7156C13.7844 35.3969 14.6156 38.7219 16.8469 39.9906C17.5031 40.3844 18.2906 40.5594 19.1219 40.5594C21.6594 40.6469 24.8094 38.8094 28.0031 35.7469ZM25.5531 29.8406C26.3406 29.8844 27.1719 29.8844 28.0031 29.8844C28.8344 29.8844 29.6656 29.8844 30.4531 29.8406C29.6656 30.8906 28.8344 31.8531 28.0031 32.7719C27.1719 31.8531 26.3406 30.8906 25.5531 29.8406ZM20.1281 25.3344C20.5656 26.0781 20.9594 26.7781 21.4406 27.4781C20.0844 27.3031 18.8156 27.0844 17.5906 26.8219C17.9844 25.6406 18.4219 24.4156 18.9469 23.1906C19.2969 23.8906 19.6906 24.6344 20.1281 25.3344ZM17.5906 14.7906C18.8156 14.5281 20.0844 14.3094 21.4406 14.1344C21.0031 14.8344 20.5656 15.5344 20.1281 16.2781C19.6906 17.0219 19.2969 17.7219 18.9469 18.4656C18.3781 17.1969 17.9406 15.9719 17.5906 14.7906ZM19.9969 20.7844C20.5656 19.6031 21.1781 18.4219 21.8781 17.2406C22.5344 16.1031 23.2781 14.9656 24.0219 13.8281C25.3344 13.7406 26.6469 13.6969 28.0031 13.6969C29.4031 13.6969 30.7156 13.7406 31.9844 13.8281C32.7719 14.9656 33.4719 16.1031 34.1281 17.2406C34.8281 18.4219 35.4406 19.6031 36.0094 20.7844C35.4406 21.9656 34.8281 23.1469 34.1281 24.3281C33.4719 25.4656 32.7281 26.6031 31.9844 27.7406C30.6719 27.8281 29.3594 27.8719 28.0031 27.8719C26.6031 27.8719 25.2906 27.8281 24.0219 27.7406C23.2344 26.6031 22.5344 25.4656 21.8781 24.3281C21.1781 23.1469 20.5656 21.9656 19.9969 20.7844ZM37.1031 18.4219L35.9219 16.2344C35.4844 15.4906 35.0906 14.7906 34.6094 14.0906C35.9656 14.2656 37.2344 14.4844 38.4594 14.7469C38.0656 15.9719 37.6281 17.1969 37.1031 18.4219ZM37.1031 23.1469C37.6281 24.3719 38.0656 25.5969 38.4594 26.7781C37.2344 27.0406 35.9656 27.2594 34.6094 27.4344C35.0469 26.7344 35.4844 26.0344 35.9219 25.2906C36.3156 24.6344 36.7094 23.8906 37.1031 23.1469ZM38.1094 38.3281C37.7594 38.5469 37.3219 38.6344 36.8406 38.6344C34.6969 38.6344 32.0281 36.8844 29.4031 34.2594C30.6719 32.9031 31.8969 31.3719 33.1219 29.6656C35.1781 29.4906 37.1469 29.1844 38.9844 28.7469C39.2031 29.5344 39.3344 30.3219 39.4656 31.1094C40.0781 34.8281 39.5969 37.4969 38.1094 38.3281ZM40.3844 15.2719C45.2844 16.6719 48.2156 18.8156 48.2156 20.7844C48.2156 22.4906 46.2031 24.1969 42.6594 25.5531C41.9594 25.8156 41.1719 26.0781 40.3844 26.2969C39.8156 24.5031 39.1156 22.6656 38.2406 20.7844C39.1156 18.9031 39.8594 17.0656 40.3844 15.2719ZM36.8844 2.93437C37.3656 2.93437 37.7594 3.02188 38.1531 3.24063C39.5969 4.07188 40.1219 6.69687 39.5094 10.4594C39.3781 11.2031 39.2031 11.9906 39.0281 12.8219C37.1906 12.4281 35.2219 12.1219 33.1656 11.9031C31.9844 10.1969 30.7156 8.66563 29.4469 7.30938C32.0719 4.72813 34.7406 2.93437 36.8844 2.93437ZM30.4531 11.7281C29.6656 11.6844 28.8344 11.6844 28.0031 11.6844C27.1719 11.6844 26.3406 11.6844 25.5531 11.7281C26.3406 10.6781 27.1719 9.71562 28.0031 8.79688C28.8344 9.71562 29.6656 10.7219 30.4531 11.7281ZM17.8969 3.24063C18.2469 3.02188 18.6844 2.93437 19.1656 2.93437C21.3094 2.93437 23.9781 4.68438 26.6031 7.30938C25.3344 8.66563 24.1094 10.1969 22.8844 11.9031C20.8281 12.0781 18.8594 12.3844 17.0219 12.8219C16.8031 12.0344 16.6719 11.2469 16.5406 10.4594C15.9281 6.74062 16.4094 4.11563 17.8969 3.24063ZM15.6219 26.2969C10.7219 24.8969 7.79062 22.7531 7.79062 20.7844C7.79062 19.0781 9.80312 17.3719 13.3469 16.0156C14.0469 15.7531 14.8344 15.4906 15.6219 15.2719C16.1906 17.0656 16.8906 18.9031 17.7656 20.7844C16.8906 22.6656 16.1469 24.5469 15.6219 26.2969ZM16.5406 31.1094C16.6719 30.3656 16.8469 29.5781 17.0219 28.7469C18.8594 29.1406 20.8281 29.4469 22.8844 29.6656C24.0656 31.3719 25.3344 32.9031 26.6031 34.2594C23.9781 36.8406 21.3094 38.6344 19.1656 38.6344C18.6844 38.6344 18.2906 38.5469 17.8969 38.3281C16.4094 37.4969 15.9281 34.8281 16.5406 31.1094ZM14.7031 49.1344C15.6656 47.9531 15.7094 46.6406 15.1844 45.3281C14.6594 44.0156 13.5656 43.4031 12.2094 43.3594C10.5906 43.3156 8.92813 43.3594 7.30938 43.3594H7.00312V54.6906H8.31562V50.4031H10.3719C10.6344 50.4031 10.8531 50.4906 10.9844 50.7094L13.6094 54.7781C13.6531 54.8656 13.7844 54.9969 13.8719 54.9969H15.5781C14.5281 53.3781 13.5219 51.8469 12.4719 50.2719C13.3906 50.1406 14.1781 49.8344 14.7031 49.1344ZM8.31562 49.0469V44.7156H8.79688C9.80312 44.7156 10.8531 44.6719 11.8594 44.7594C13.0406 44.8031 13.8719 45.7219 13.8719 46.9031C13.8719 48.0844 12.9094 49.0031 11.7281 49.0469C10.6781 49.0906 9.62812 49.0469 8.31562 49.0469ZM25.2469 49.6156C24.5469 46.5531 21.7469 45.7656 19.6031 46.7281C17.9406 47.4719 17.1969 48.9156 17.1531 50.7094C17.1094 52.0656 17.5031 53.2906 18.5531 54.2094C19.7344 55.2594 21.1781 55.3906 22.6656 55.1281C23.4969 54.9531 24.2406 54.5594 24.8094 53.9469C24.5906 53.6406 24.3719 53.3344 24.1531 53.0719C22.9281 54.1219 21.5719 54.4719 20.0844 53.7719C19.1219 53.2906 18.6406 52.1094 18.5531 51.2344H25.3344V50.6656C25.3781 50.2719 25.3344 49.9219 25.2469 49.6156ZM18.6406 50.3156C18.5094 49.0031 19.8219 47.6031 21.2656 47.6031C22.9281 47.5594 23.9781 48.5656 24.0219 50.3156H18.6406ZM32.0719 46.5094C31.4156 46.3781 30.7156 46.3344 30.0594 46.3781C29.0094 46.4656 28.0906 46.9469 27.3469 47.7344C27.5656 48.0406 27.7406 48.3469 28.0031 48.6969C28.0906 48.6094 28.1781 48.5219 28.2656 48.4781C28.9656 47.8219 29.7969 47.4719 30.8031 47.5594C31.5906 47.6031 32.3344 47.8656 32.5531 48.6531C32.7281 49.2656 32.6844 49.9219 32.7281 50.5781C32.5969 50.5781 32.5531 50.5344 32.5094 50.4906C31.4594 49.6156 30.2781 49.4406 29.0094 49.7469C27.8281 50.0531 27.0844 50.9719 26.9969 52.1531C26.9094 53.5094 27.5219 54.5156 28.7031 54.9969C29.4469 55.3031 30.2781 55.3031 31.0656 55.1281C31.6781 54.9969 31.9406 54.6469 32.8156 54.1656V54.7344H34.0406C34.0406 52.9844 34.0844 50.8406 34.0406 48.8281C34.0406 47.5594 33.2969 46.7719 32.0719 46.5094ZM32.6844 52.0219C32.6406 52.1531 32.6844 52.2844 32.6844 52.4156C32.6844 53.3344 32.4656 53.6406 31.5906 53.9906C30.9781 54.2094 30.3219 54.2969 29.6656 54.0781C28.9219 53.8594 28.3969 53.2031 28.3969 52.4594C28.3531 51.7156 28.8344 50.9719 29.5781 50.7531C30.5844 50.4031 31.5031 50.6219 32.3344 51.2344C32.5969 51.4531 32.7719 51.6719 32.6844 52.0219ZM39.5094 47.6906C40.6469 47.3406 41.6969 47.5594 42.4844 48.5219L42.6156 48.6094C42.9219 48.3469 43.1844 48.0844 43.5344 47.7781C43.4031 47.6469 43.3594 47.5594 43.2719 47.4281C42.0031 46.0719 39.5094 45.8969 37.9781 46.9906C35.8344 48.5656 35.8781 51.6281 36.9281 53.2469C37.9344 54.7781 39.3781 55.3031 41.0844 55.0844C42.0906 54.9531 42.9219 54.4719 43.5781 53.6406C43.2719 53.3781 42.9656 53.1156 42.6594 52.8094C42.5719 52.8969 42.5281 52.9406 42.4844 53.0281C41.3031 54.3406 39.3344 54.2094 38.2844 52.8094C37.6719 51.9781 37.5406 51.0156 37.7156 50.0531C37.8031 48.9594 38.3719 48.0844 39.5094 47.6906ZM48.6094 53.6406C48.5219 53.6844 48.4781 53.7281 48.4781 53.7281C48.1281 53.9906 47.7781 54.0344 47.3844 53.9031C46.9906 53.7281 46.9469 53.3781 46.9031 53.0281V48.0406C46.9031 47.9531 46.9031 48.1281 46.9469 47.6906H48.6094V46.3781H46.8594V44.1906H45.5469V46.5531H44.4094C44.3219 46.5531 44.1906 46.6406 44.1906 46.7281C44.1469 47.0344 44.1906 47.2531 44.1906 47.6906H45.5906V53.2906C45.5906 53.9906 45.7656 54.6031 46.3781 54.9531C47.0344 55.3469 48.3031 55.2594 48.8719 54.7781C48.9594 54.7344 49.0031 54.5594 49.0031 54.5156C48.8719 54.2531 48.7406 53.9469 48.6094 53.6406Z" fill="#61DAFB"></path>
</svg>