<svg class="tool" width="56" height="56" viewBox="0 0 56 56" fill="none" xmlns="http://www.w3.org/2000/svg">
<path d="M52.96 8.92178C52.4718 7.63911 51.3018 5.83356 49.6436 4.55089C48.67 3.82 47.5636 3.10644 46.0036 2.65C44.3193 2.16178 42.2364 2 39.7 2H16.3C13.7491 2 11.6836 2.16178 10.0109 2.66444C8.45089 3.13822 7.29533 3.83733 6.35644 4.56822C4.89248 5.71887 3.74525 7.22299 3.02267 8.93911C2.01733 11.5218 2 14.4482 2 16.3V39.7C2 41.5518 2.01733 44.4782 3.02267 47.0782C3.65661 48.5724 4.61154 49.9088 5.81973 50.9927C7.02792 52.0766 8.45978 52.8814 10.0138 53.35C11.6864 53.8382 13.7491 54 16.3 54H39.7C42.2509 54 44.3164 53.8382 45.9891 53.3356C47.5491 52.8618 48.7047 52.1627 49.6436 51.4318C51.1075 50.2811 52.2547 48.777 52.9773 47.0609C54 44.4782 54 41.5373 54 39.6827V16.2827C54 14.4338 53.9827 11.5073 52.9773 8.90733L52.96 8.92178ZM12.3018 37.75H10.3662V26.1944H12.3018V37.75ZM11.3427 24.2473C11.0239 24.2473 10.7183 24.1207 10.4929 23.8953C10.2675 23.67 10.1409 23.3643 10.1409 23.0456C10.1409 22.7268 10.2675 22.4211 10.4929 22.1958C10.7183 21.9704 11.0239 21.8438 11.3427 21.8438C11.663 21.8422 11.9709 21.9674 12.1993 22.192C12.4277 22.4166 12.558 22.7224 12.5618 23.0427C12.5565 23.363 12.4259 23.6685 12.198 23.8937C11.9701 24.1189 11.6631 24.2459 11.3427 24.2473ZM22.9618 38.0418C17.86 38.0418 14.6418 34.4018 14.6418 28.6009C14.6418 22.8 17.86 19.1427 22.9618 19.1427C28.0664 19.1427 31.2818 22.8 31.2818 28.6009C31.2818 34.4018 28.0664 38.0418 22.9618 38.0418ZM39.7982 38.0418C35.9618 38.0418 33.2664 35.93 33.0873 32.7782H34.8264C35.02 34.9738 37.0827 36.4673 39.96 36.4673C42.7044 36.4673 44.6718 34.9709 44.6718 32.9082C44.6718 31.2038 43.4873 30.1782 40.7718 29.4964L38.4982 28.91C35.1009 28.0491 33.59 26.6191 33.59 24.1982C33.59 21.24 36.2536 19.1282 39.8618 19.1282C43.4382 19.1282 46.0382 21.24 46.1509 24.1491H44.4118C44.25 22.0864 42.4127 20.7027 39.8127 20.7027C37.2791 20.7027 35.3927 22.1182 35.3927 24.1318C35.3927 25.7091 36.5309 26.6364 39.2291 27.3182L41.2109 27.8209C44.9 28.7453 46.4427 30.1609 46.4427 32.7118C46.4427 35.93 43.86 38.0418 39.7982 38.0418ZM29.5138 28.6009C29.5138 33.3964 26.9773 36.4327 22.9618 36.4327C18.9462 36.4327 16.43 33.3936 16.43 28.6038C16.43 23.7909 18.9491 20.7518 22.9618 20.7518C26.9744 20.7518 29.5109 23.7909 29.5109 28.6009" fill="black"></path>
</svg>