<svg class="tool" width="65" height="56" viewBox="0 0 65 56" fill="none" xmlns="http://www.w3.org/2000/svg">
<path d="M4.47438 46.3125C2.26838 46.3125 0 48.0803 0 51.1744C0 54.0031 1.99442 56.0011 4.47438 56.0011C6.52145 56.0011 7.43381 54.6271 7.43381 54.6271V55.226C7.43381 55.5091 7.70145 55.8249 8.03273 55.8249H9.51245V46.5239H7.43381V47.7041C7.43381 47.7041 6.51381 46.3125 4.47438 46.3125ZM4.84466 48.2144C6.66067 48.2144 7.61327 49.8115 7.61327 51.1737C7.61327 52.6911 6.48224 54.1321 4.84851 54.1321C3.48282 54.1321 2.11478 53.026 2.11478 51.1537C2.11478 49.4636 3.29206 48.2144 4.84466 48.2144Z" fill="black"></path>
<path d="M12.4036 55.8199C12.0843 55.8199 11.8047 55.5909 11.8047 55.221V46.5189H13.8833V47.6699C14.3543 46.9619 15.2746 46.3047 16.687 46.3047C18.9956 46.3047 20.225 48.145 20.225 49.8659V55.8199H18.7805C18.4017 55.8199 18.1463 55.5029 18.1463 55.1858V50.3239C18.1463 49.37 17.5619 48.2115 16.2102 48.2115C14.7518 48.2115 13.8833 49.5899 13.8833 50.8876V55.8199L12.4036 55.8199Z" fill="black"></path>
<path d="M26.279 46.3063C24.073 46.3063 21.8047 48.0741 21.8047 51.1682C21.8047 53.9969 23.7991 55.9949 26.279 55.9949C28.3261 55.9949 29.2385 54.6209 29.2385 54.6209V55.2198C29.2385 55.5029 29.5061 55.8188 29.8374 55.8188H31.3171V41.8672H29.2385V47.6979C29.2385 47.6979 28.3185 46.3063 26.279 46.3063ZM26.6493 48.2082C28.4653 48.2082 29.4179 49.8053 29.4179 51.1676C29.4179 52.6849 28.2869 54.1259 26.6532 54.1259C25.2875 54.1259 23.9194 53.0198 23.9194 51.1475C23.9194 49.4575 25.0967 48.2082 26.6493 48.2082Z" fill="black"></path>
<path d="M34.2083 55.8208C33.8889 55.8208 33.6094 55.5917 33.6094 55.2218V46.5198H35.688V48.0699C36.0458 47.2015 36.8179 46.4141 38.1894 46.4141C38.5718 46.4141 38.9293 46.4845 38.9293 46.4845V48.6336C38.9293 48.6336 38.4829 48.4575 37.9428 48.4575C36.4844 48.4575 35.688 49.8358 35.688 51.1335V55.8208H34.2083Z" fill="black"></path>
<path d="M51.5442 55.8245C51.2249 55.8245 50.9453 55.5954 50.9453 55.2255V46.5234H53.024V55.8245L51.5442 55.8245Z" fill="black"></path>
<path d="M59.115 46.3063C56.909 46.3063 54.6406 48.0741 54.6406 51.1682C54.6406 53.9969 56.635 55.9949 59.115 55.9949C61.1621 55.9949 62.0744 54.6209 62.0744 54.6209V55.2198C62.0744 55.5029 62.3421 55.8188 62.6734 55.8188H64.1531V41.8672H62.0744V47.6979C62.0744 47.6979 61.1544 46.3063 59.115 46.3063ZM59.4853 48.2082C61.3013 48.2082 62.2539 49.8053 62.2539 51.1676C62.2539 52.6849 61.1229 54.1259 59.4891 54.1259C58.1234 54.1259 56.7554 53.0198 56.7554 51.1475C56.7554 49.4575 57.9327 48.2082 59.4853 48.2082Z" fill="black"></path>
<path d="M51.9682 44.5145C52.7272 44.5145 53.3426 43.8991 53.3426 43.14C53.3426 42.381 52.7272 41.7656 51.9682 41.7656C51.2091 41.7656 50.5938 42.381 50.5938 43.14C50.5938 43.8991 51.2091 44.5145 51.9682 44.5145Z" fill="black"></path>
<path d="M44.411 46.3047C42.1007 46.3047 39.5625 48.0292 39.5625 51.1532C39.5625 53.9999 41.7245 55.9967 44.406 55.9967C47.7106 55.9967 49.3243 53.3401 49.3243 51.1712C49.3243 48.5098 47.2464 46.3047 44.411 46.3047ZM44.4185 48.2458C46.0162 48.2458 47.2079 49.5335 47.2079 51.159C47.2079 52.8128 45.9428 54.0889 44.4233 54.0889C43.0127 54.0889 41.6415 52.9409 41.6415 51.1868C41.6415 49.4035 42.9457 48.2458 44.4185 48.2458Z" fill="black"></path>
<path d="M47.7367 10.8324L53.055 1.6195C53.3552 1.10302 53.1737 0.446947 52.6642 0.14683C52.1547 -0.153283 51.4916 0.021198 51.1985 0.537678L45.8104 9.8692C41.6995 7.99173 37.0721 6.9448 32.0957 6.9448C27.1194 6.9448 22.492 7.99172 18.3811 9.8692L12.9929 0.537678C12.6928 0.021198 12.0367 -0.153283 11.5203 0.14683C11.0038 0.446947 10.8293 1.10302 11.1294 1.6195L16.4478 10.8324C7.27675 15.8018 1.06502 25.0844 0.0390625 35.9514H64.1525C63.1265 25.0844 56.9147 15.8017 47.7367 10.8324ZM17.376 26.9479C15.8894 26.9479 14.6889 25.7405 14.6889 24.2608C14.6889 22.7742 15.8964 21.5738 17.376 21.5738C18.8627 21.5738 20.0631 22.7812 20.0631 24.2608C20.0701 25.7405 18.8627 26.9479 17.376 26.9479ZM46.8085 26.9479C45.3219 26.9479 44.1214 25.7405 44.1214 24.2608C44.1214 22.7742 45.3289 21.5738 46.8085 21.5738C48.2951 21.5738 49.4956 22.7812 49.4956 24.2608C49.5026 25.7405 48.2951 26.9479 46.8085 26.9479Z" fill="#32DE84"></path>
</svg>