<svg width="126" height="38" viewBox="0 0 126 38" fill="none" xmlns="http://www.w3.org/2000/svg">
<path fill-rule="evenodd" clip-rule="evenodd" d="M35.8488 12.4946C36.2811 12.0864 36.5427 11.5279 36.5804 10.9326C36.5427 10.3373 36.2811 9.77883 35.8488 9.37068C35.4165 8.96252 34.8459 8.73535 34.2531 8.73535C33.6603 8.73535 33.0897 8.96252 32.6574 9.37068C32.2251 9.77883 31.9635 10.3373 31.9258 10.9326C31.9635 11.5279 32.2251 12.0864 32.6574 12.4946C33.0897 12.9027 33.6603 13.1299 34.2531 13.1299C34.8459 13.1299 35.4165 12.9027 35.8488 12.4946ZM119.097 11.78C118.809 12.3738 118.672 13.0305 118.699 13.6908H118.727V28.6723H120.474C122.645 28.6723 122.73 26.1073 122.73 26.1073V18.1083H125.336V14.9353H122.702V14.4698C122.702 13.8808 122.702 13.6908 122.928 13.3678C123.259 12.7313 123.854 12.7313 124.458 12.7313H125.336V9.64383H123.816C122.624 9.53428 121.425 9.75782 120.351 10.2898C119.816 10.6741 119.386 11.1863 119.097 11.78ZM53.8099 21.6402V28.6702H57.6809V21.7352C57.6809 19.1132 58.7005 18.2392 60.5133 18.2392H61.8917V14.7432H60.1923C56.0947 14.7432 53.791 17.2797 53.791 21.6402H53.8099ZM109.07 21.6402V28.6702H112.988V21.7352C112.988 19.1132 113.999 18.2392 115.821 18.2392H117.199V14.7432H115.5C111.402 14.7432 109.099 17.2797 109.099 21.6402H109.07ZM7.45339 25.0983H7.45348C7.82273 25.1089 8.1948 25.1195 8.56686 25.0878C8.97041 25.1263 9.37725 25.0671 9.75339 24.915C10.1295 24.763 10.464 24.5225 10.7289 24.2138C11.0501 23.7928 11.2139 23.2716 11.1916 22.7413C11.2212 22.2278 11.0641 21.721 10.7497 21.3155C10.4352 20.9099 9.98489 20.6333 9.48268 20.5373C8.73438 20.4434 7.97967 20.4116 7.22619 20.4423H4.45987V24.5368C4.45987 24.5368 4.45987 25.0878 5.01691 25.0878H6.90518C7.08682 25.0878 7.2695 25.0931 7.45287 25.0983H7.45296H7.45304H7.45313H7.45322H7.4533H7.45339ZM6.76356 17.0413C7.78241 17.1435 8.81115 17.0663 9.80368 16.8133C10.1272 16.6571 10.397 16.4073 10.5787 16.0959C10.7603 15.7845 10.8455 15.4257 10.8233 15.0653C10.8419 14.7124 10.7434 14.3633 10.5435 14.0727C10.3436 13.7822 10.0535 13.5666 9.71871 13.4598C8.90817 13.2341 8.0639 13.1569 7.22619 13.2318H4.45987V17.0318L6.76356 17.0413ZM6.60306 9.64082H9.69039C11.2921 9.72026 12.8126 10.374 13.9768 11.4838C14.7249 12.2918 15.1283 13.3628 15.1003 14.4668C15.1266 15.1729 14.9709 15.8738 14.6483 16.5014C14.3257 17.129 13.8471 17.6619 13.2592 18.0483C12.9764 18.2596 12.6559 18.4144 12.3151 18.5043C12.7637 18.6898 13.1834 18.9394 13.5613 19.2453C14.201 19.6769 14.7189 20.2677 15.0646 20.9601C15.4104 21.6526 15.5723 22.4233 15.5346 23.1973C15.5297 24.3095 15.2015 25.396 14.5905 26.3228C12.8964 28.7541 9.9225 28.7199 8.93685 28.7086C8.87878 28.7079 8.82761 28.7073 8.78402 28.7073H2.93981C2.22429 28.7049 1.53834 28.4198 1.02974 27.9133C0.521147 27.4069 0.230603 26.7197 0.220703 25.9998V9.64082H6.60306ZM36.2587 14.8862H32.2461V28.6707H36.2587V14.8862ZM80.87 21.8482C80.8216 22.4348 80.8902 23.0253 81.0718 23.5848C81.2534 24.1444 81.5443 24.6618 81.9274 25.1067C82.1559 25.3835 82.4458 25.6026 82.7738 25.7461C83.1017 25.8897 83.4586 25.9537 83.8157 25.9332C84.3728 25.9512 84.9214 25.7916 85.383 25.4772C86.2138 24.8787 86.7614 23.7767 86.7614 21.6772C86.7614 21.6605 86.7617 21.6394 86.762 21.6143L86.762 21.6124C86.7676 21.1476 86.7899 19.3224 85.6096 18.3237C85.1326 17.9258 84.5295 17.7135 83.9101 17.7252C82.4373 17.7822 80.87 18.7892 80.87 21.8482ZM90.7268 9.64068V28.6407H86.7614C86.76 28.1041 86.7915 27.5679 86.8558 27.0352C86.6582 27.4806 86.361 27.874 85.9872 28.1847C85.1218 28.8335 84.0636 29.1683 82.9849 29.1347C82.0994 29.1593 81.2194 28.9874 80.4074 28.6312C78.8401 27.8427 76.8574 25.9142 76.8574 21.9147C76.8751 20.8495 77.0632 19.7941 77.4145 18.7892C77.7634 17.547 78.5051 16.4531 79.5273 15.6731C80.5495 14.8932 81.7964 14.4696 83.0793 14.4667C84.1671 14.4514 85.2316 14.784 86.1194 15.4167C86.3125 15.6124 86.4835 15.8291 86.6292 16.0627V12.1297C86.6206 11.7915 86.6822 11.4552 86.8101 11.1423C86.9379 10.8294 87.1293 10.5468 87.3718 10.3126C87.6144 10.0783 87.9029 9.89758 88.2188 9.78189C88.5348 9.66619 88.8712 9.6181 89.2067 9.64068H90.7268ZM26.3908 19.5309C26.4561 19.7235 26.488 19.926 26.4852 20.1294V20.1389H20.8204C20.8451 20.0941 20.8699 19.984 20.9001 19.8497L20.9001 19.8497C20.9275 19.7278 20.9594 19.586 20.9998 19.4549C21.2064 18.8875 21.5841 18.3993 22.0802 18.0586C22.5762 17.7179 23.1657 17.5418 23.7661 17.5549C24.3639 17.5249 24.9533 17.7059 25.4325 18.0667C25.9118 18.4275 26.2507 18.9454 26.3908 19.5309ZM21.7955 25.1298C21.2181 24.563 20.8849 23.7909 20.8676 22.9794L30.6866 22.9604C30.7056 22.8059 30.7056 22.6495 30.6866 22.4949C30.6687 21.7397 30.593 20.9869 30.46 20.2434C29.818 16.9374 28.0619 15.5599 26.6835 14.9614C25.7824 14.5993 24.8213 14.4123 23.8511 14.4104C22.803 14.3633 21.7589 14.568 20.8051 15.0074C19.8512 15.4468 19.015 16.1084 18.3656 16.9374C17.325 18.3949 16.7758 20.1495 16.7984 21.9439C16.723 23.3976 17.1061 24.838 17.8928 26.0596C18.6796 27.2811 19.8298 28.2213 21.1792 28.7459C22.0245 29.0381 22.9102 29.1952 23.8039 29.2114C25.2609 29.2979 26.7063 28.9042 27.921 28.09C29.1358 27.2757 30.0536 26.0852 30.5356 24.6989H26.4286C26.1736 25.1231 25.8086 25.4692 25.3728 25.7002C24.9369 25.9312 24.4467 26.0383 23.9549 26.0099C23.1483 26.0126 22.3729 25.6966 21.7955 25.1298ZM47.9648 20.1275C47.9677 19.9241 47.9357 19.7216 47.8704 19.529C47.7287 18.9444 47.3893 18.4276 46.9105 18.0671C46.4316 17.7066 45.8431 17.5249 45.2457 17.553C44.6438 17.5326 44.051 17.7059 43.5536 18.0475C43.0561 18.3892 42.6798 18.8815 42.4794 19.453C42.3961 19.6748 42.3329 19.9038 42.2906 20.137H47.9554L47.9648 20.1275ZM42.3 22.9775C42.3426 23.5866 42.5304 24.1765 42.8476 24.697C43.1228 25.1164 43.4993 25.4584 43.9419 25.6911C44.3846 25.9237 44.8787 26.0393 45.3779 26.027C45.8679 26.0546 46.3558 25.9449 46.7875 25.7101C47.2192 25.4753 47.5777 25.1246 47.8232 24.697H51.9208C51.4563 26.0832 50.5506 27.2766 49.3438 28.0924C48.1371 28.9082 46.6967 29.3008 45.2457 29.2095C44.3514 29.1995 43.4648 29.0423 42.621 28.744C41.2602 28.2311 40.0973 27.2951 39.3011 26.0719C38.5049 24.8488 38.1167 23.4022 38.193 21.942C38.1704 20.1401 38.7377 18.3808 39.8075 16.9355C40.4521 16.1132 41.2807 15.4556 42.2257 15.0165C43.1708 14.5774 44.2055 14.3691 45.2457 14.4085C46.2167 14.403 47.1792 14.5903 48.0781 14.9595C49.466 15.558 51.2599 16.9355 51.8547 20.2415C51.9828 20.9857 52.0585 21.7381 52.0813 22.493C52.0891 22.6497 52.0731 22.8067 52.0341 22.9585L42.3 22.9775ZM71.1902 18.3128C71.325 18.5206 71.418 18.753 71.464 18.9968H75.165C75.1677 18.0524 74.8326 17.1386 74.2209 16.4223C72.5592 14.4463 69.6985 14.4463 69.0565 14.4463C66.1485 14.4463 64.7323 15.4628 63.9393 16.6123C63.4965 17.3285 63.2581 18.1534 63.25 18.9968C63.2379 19.4892 63.3301 19.9786 63.5205 20.4323C63.711 20.8861 63.9954 21.2938 64.3547 21.6283C65.2919 22.4706 66.5273 22.757 68.9229 23.3125L69.1981 23.3763C69.28 23.3943 69.3601 23.4116 69.4383 23.4286L69.44 23.429C70.7666 23.7168 71.549 23.8866 71.549 24.8013C71.549 25.7111 70.5752 26.0096 70.339 26.0819C70.3236 26.0866 70.3114 26.0904 70.3027 26.0933C70.03 26.1539 69.7512 26.1826 69.4719 26.1788C69.019 26.2226 68.5621 26.1595 68.1376 25.9946C67.7132 25.8297 67.3327 25.5675 67.0266 25.2288C66.8216 24.9277 66.7009 24.5765 66.6773 24.2123H62.8535C62.9109 25.2851 63.2967 26.3138 63.9582 27.1573C64.8362 28.1833 66.3091 29.1333 69.3492 29.1333C72.3893 29.1333 73.9188 28.1643 74.693 26.9673C75.2462 26.1932 75.5375 25.2607 75.5238 24.3073C75.5088 23.6751 75.3809 23.0509 75.1462 22.4643C74.5041 21.0868 73.3523 20.6688 71.9739 20.3078L70.6804 20.0323L69.1981 19.7568C68.6654 19.6514 68.1438 19.4955 67.6403 19.2913C67.4857 19.2388 67.3502 19.1412 67.251 19.0109C67.1518 18.8806 67.0934 18.7236 67.0832 18.5598C67.0832 18.1418 67.4043 17.5908 68.2823 17.3628H69.0187C69.4318 17.3137 69.8505 17.3757 70.232 17.5426C70.6135 17.7095 70.9442 17.9753 71.1902 18.3128ZM96.6642 21.8457C96.6642 24.9712 98.4203 25.9307 99.9404 25.9307C100.448 25.9219 100.948 25.8121 101.413 25.6077C102.357 25.1042 103.217 24.0022 103.217 21.7032C103.228 21.0591 103.135 20.4175 102.943 19.8032C102.764 19.1508 102.369 18.5798 101.822 18.1855C101.276 17.7913 100.612 17.5977 99.9404 17.6372C98.4203 17.6847 96.6642 18.5872 96.6642 21.8267V21.8457ZM104.793 16.0792C105.581 16.7884 106.207 17.6609 106.627 18.6367C107.048 19.6125 107.253 20.6684 107.229 21.7317C107.28 23.2548 106.851 24.7552 106.003 26.018C105.155 27.2808 103.932 28.2412 102.508 28.7617C101.647 29.0288 100.747 29.1539 99.8459 29.1322C98.8414 29.1529 97.841 28.9953 96.8908 28.6667C95.5676 28.1099 94.4471 27.1563 93.6818 25.9358C92.9165 24.7153 92.5436 23.2871 92.6139 21.8457C92.6005 19.9412 93.271 18.0959 94.5021 16.6492C95.234 15.9227 96.1055 15.3542 97.0633 14.9785C98.0212 14.6028 99.0451 14.4278 100.073 14.4642C101.803 14.4628 103.487 15.0298 104.869 16.0792H104.793Z" fill="url(#paint0_linear_4564_4295)"/>
<defs>
<linearGradient id="paint0_linear_4564_4295" x1="0.220704" y1="18.9792" x2="125.336" y2="18.9792" gradientUnits="userSpaceOnUse">
<stop stop-color="#950F23"/>
<stop offset="1" stop-color="#00459C"/>
</linearGradient>
</defs>
</svg>
