<svg width="120" height="38" viewBox="0 0 120 38" fill="none" xmlns="http://www.w3.org/2000/svg">
<g clip-path="url(#clip0_4564_4314)">
<path fill-rule="evenodd" clip-rule="evenodd" d="M-0.015625 27.35L2.24908 26.152V15.417L-0.015625 14.2191V27.35ZM3.48875 28.87L5.75346 27.672V14.0471L3.48875 12.8492V28.8662V28.87ZM7.08816 30.39L11.451 28.091L15.9804 25.6941V23.0702C13.7637 24.2682 11.5705 25.4177 9.35287 26.5919V15.2213L15.9804 18.7183V16.101L11.451 13.7042L7.08816 11.4023V30.3814V30.39ZM22.3208 16.2473C22.5185 16.2374 22.7161 16.2693 22.9009 16.3409C23.0857 16.4126 23.2536 16.5224 23.3938 16.6634C23.6575 16.9759 23.7923 17.3785 23.7704 17.7882C23.7887 18.205 23.6547 18.6141 23.3938 18.9377C23.259 19.0792 23.0955 19.1896 22.9146 19.2614C22.7336 19.3332 22.5394 19.3648 22.3453 19.3538H20.9334C20.9224 19.3553 20.9113 19.3546 20.9006 19.3517C20.89 19.3488 20.88 19.3438 20.8712 19.337C20.8625 19.3302 20.8552 19.3217 20.8497 19.3121C20.8442 19.3024 20.8406 19.2917 20.8392 19.2807V16.3423C20.8413 16.3179 20.8519 16.2949 20.8692 16.2776C20.8864 16.2602 20.9091 16.2495 20.9334 16.2473H22.3161H22.3208ZM20.9145 21.2605H22.7265C23.0229 21.2268 23.3229 21.2527 23.6094 21.3367C23.8958 21.4206 24.163 21.561 24.3954 21.7497C24.5628 21.9467 24.6874 22.1769 24.7612 22.4254C24.8349 22.674 24.8562 22.9354 24.8237 23.1928C24.8802 23.6918 24.7551 24.1945 24.4716 24.6073C24.2327 24.8011 23.9575 24.9443 23.6625 25.0283C23.3675 25.1124 23.0588 25.1356 22.7547 25.0966H20.9192C20.8974 25.0933 20.8777 25.0815 20.8643 25.0638C20.851 25.046 20.845 25.0237 20.8477 25.0016V21.3583C20.845 21.3362 20.851 21.3139 20.8643 21.2962C20.8777 21.2784 20.8974 21.2666 20.9192 21.2633L20.9145 21.2605ZM19.0122 26.9823H22.7312C23.8884 27.0856 25.0446 26.7738 25.9965 26.1017C26.3803 25.7196 26.674 25.2552 26.8557 24.7429C27.0374 24.2306 27.1024 23.6836 27.046 23.1424C27.0604 22.4201 26.8522 21.711 26.4501 21.1132C26.0543 20.5753 25.4777 20.2014 24.8284 20.0616C24.8178 20.0608 24.8076 20.0573 24.7987 20.0513C24.7899 20.0454 24.7827 20.0372 24.778 20.0276C24.7732 20.018 24.7711 20.0074 24.7717 19.9967C24.7722 19.986 24.7755 19.9756 24.7813 19.9666L24.8048 19.9172C25.2025 19.6641 25.5174 19.2983 25.7103 18.8655C25.8439 18.5148 25.9078 18.1411 25.8986 17.7654C25.9124 17.3222 25.8324 16.8811 25.6639 16.4716C25.4954 16.062 25.2423 15.6935 24.9216 15.3904C24.1974 14.7722 23.2705 14.4493 22.3227 14.4851H19.0122C18.9592 14.4913 18.9103 14.5174 18.8754 14.5582C18.8406 14.599 18.8222 14.6516 18.824 14.7055V26.761C18.821 26.7882 18.8236 26.8157 18.8315 26.8419C18.8395 26.868 18.8528 26.8922 18.8704 26.913C18.8881 26.9337 18.9098 26.9506 18.9342 26.9625C18.9585 26.9745 18.9851 26.9812 19.0122 26.9823ZM32.5524 25.2723C32.2598 25.3066 31.9633 25.2762 31.6834 25.1834C31.4035 25.0906 31.147 24.9374 30.9315 24.7346C30.6421 24.3131 30.5089 23.8023 30.5551 23.2916V18.1549C30.5121 17.6445 30.645 17.1348 30.9315 16.7119C31.1456 16.5071 31.4021 16.3526 31.6823 16.2597C31.9625 16.1667 32.2597 16.1375 32.5524 16.1742C32.86 16.1326 33.1728 16.1591 33.4692 16.252C33.7655 16.3448 34.0383 16.5018 34.2684 16.7119H34.2929C34.5699 17.1385 34.6959 17.647 34.6505 18.1549V23.2906C34.6998 23.806 34.5549 24.3212 34.2448 24.7337C34.0133 24.9346 33.7437 25.0858 33.4524 25.1783C33.1611 25.2707 32.8543 25.3024 32.5506 25.2714L32.5524 25.2723ZM32.5524 27.1068C33.6835 27.2095 34.8122 26.8875 35.7226 26.2024C36.0792 25.8341 36.3514 25.3916 36.5204 24.9058C36.6894 24.42 36.7509 23.9027 36.7006 23.3904V18.0333C36.7544 17.519 36.697 16.9991 36.5323 16.5094C36.3677 16.0196 36.0998 15.5718 35.7471 15.1966C34.8167 14.5376 33.6842 14.2345 32.5524 14.3416C31.4429 14.2324 30.3321 14.5365 29.4293 15.1966C29.0855 15.5769 28.825 16.0261 28.6649 16.5149C28.5048 17.0038 28.4487 17.5212 28.5003 18.0333V23.3885C28.4519 23.8987 28.5119 24.4134 28.6764 24.8983C28.8408 25.3832 29.1058 25.8272 29.4538 26.2005C30.3351 26.8852 31.4403 27.2082 32.5477 27.1049L32.5524 27.1068ZM38.154 14.8071L40.7528 20.6268V20.7L37.9158 26.6669C37.9021 26.7002 37.8963 26.7362 37.8989 26.7722C37.9014 26.8081 37.9123 26.8429 37.9306 26.8738C37.9489 26.9048 37.9741 26.931 38.0042 26.9503C38.0343 26.9696 38.0685 26.9816 38.104 26.9852H40.0582C40.097 26.9814 40.1343 26.9684 40.167 26.947C40.1998 26.9257 40.227 26.8968 40.2464 26.8626L41.1283 25.0776L42.2729 22.1924C42.277 22.181 42.2834 22.1705 42.2918 22.1617C42.3001 22.1528 42.3103 22.1459 42.3214 22.1412C42.3326 22.1366 42.3446 22.1343 42.3566 22.1346C42.3687 22.135 42.3807 22.1378 42.3916 22.143L42.4395 22.1924L43.5126 24.9313L43.5362 25.0044L44.4661 26.8626C44.4853 26.8969 44.5125 26.926 44.5453 26.9473C44.5781 26.9687 44.6155 26.9817 44.6544 26.9852H46.5915C46.6279 26.9844 46.6637 26.9755 46.6962 26.9591C46.7288 26.9426 46.7573 26.9191 46.7798 26.8902C46.8025 26.858 46.8147 26.8195 46.8147 26.78C46.8147 26.7405 46.8025 26.702 46.7798 26.6698L44.0143 20.7028V20.6249L46.5651 14.8052C46.5792 14.7693 46.5844 14.7305 46.5803 14.6921C46.5762 14.6537 46.563 14.6169 46.5416 14.5848C46.5218 14.5584 46.4967 14.5363 46.468 14.5199C46.4394 14.5036 46.4078 14.4934 46.375 14.4898H44.3983C44.3595 14.4936 44.3222 14.5067 44.2895 14.528C44.2567 14.5493 44.2295 14.5783 44.2101 14.6124L43.3912 16.5409L42.4377 19.1819C42.4335 19.1934 42.427 19.2039 42.4185 19.2127C42.4101 19.2215 42.3999 19.2284 42.3886 19.233C42.3773 19.2376 42.3652 19.2397 42.3531 19.2392C42.3409 19.2388 42.3291 19.2358 42.3182 19.2303L42.271 19.1819L41.3204 16.4924H41.2959L40.4855 14.6095C40.4712 14.5715 40.4453 14.539 40.4114 14.5169C40.3775 14.4949 40.3375 14.4844 40.2972 14.487H38.3422C38.3088 14.4875 38.276 14.4964 38.2468 14.513C38.2177 14.5296 38.1933 14.5533 38.1756 14.582C38.1536 14.6143 38.1396 14.6514 38.1351 14.6903C38.1305 14.7292 38.1353 14.7687 38.1492 14.8052L38.154 14.8071ZM55.3651 14.4889H48.6905C48.6621 14.489 48.6339 14.4948 48.6077 14.506C48.5815 14.5172 48.5577 14.5335 48.5377 14.554C48.5178 14.5744 48.5021 14.5987 48.4915 14.6254C48.4809 14.652 48.4756 14.6806 48.476 14.7093V26.7648C48.4756 26.7935 48.4809 26.822 48.4915 26.8487C48.5021 26.8754 48.5178 26.8996 48.5377 26.9201C48.5577 26.9406 48.5815 26.9569 48.6077 26.9681C48.6339 26.9793 48.6621 26.9851 48.6905 26.9852H50.3114C50.3399 26.9851 50.3681 26.9793 50.3943 26.9681C50.4205 26.9569 50.4443 26.9406 50.4642 26.9201C50.4842 26.8996 50.4999 26.8754 50.5105 26.8487C50.5211 26.822 50.5264 26.7935 50.526 26.7648V21.6766C50.5246 21.6667 50.5255 21.6567 50.5286 21.6473C50.5317 21.6378 50.5369 21.6292 50.5438 21.6221C50.5508 21.6151 50.5592 21.6097 50.5685 21.6064C50.5779 21.6032 50.5878 21.6022 50.5975 21.6034H54.5792C54.6076 21.6033 54.6358 21.5975 54.662 21.5863C54.6882 21.5752 54.712 21.5589 54.732 21.5384C54.7519 21.5179 54.7676 21.4936 54.7782 21.467C54.7888 21.4403 54.7941 21.4118 54.7938 21.383V19.94C54.7941 19.9113 54.7888 19.8827 54.7782 19.8561C54.7676 19.8294 54.7519 19.8051 54.732 19.7847C54.712 19.7642 54.6882 19.7479 54.662 19.7367C54.6358 19.7255 54.6076 19.7197 54.5792 19.7196H50.5975C50.5757 19.7163 50.556 19.7045 50.5427 19.6868C50.5293 19.669 50.5233 19.6467 50.526 19.6246V16.4677C50.5233 16.4456 50.5293 16.4233 50.5427 16.4056C50.556 16.3878 50.5757 16.376 50.5975 16.3727H55.3651C55.4188 16.3737 55.4708 16.354 55.5107 16.3176C55.5505 16.2813 55.5752 16.231 55.5797 16.177V14.7074C55.5801 14.6787 55.5748 14.6501 55.5642 14.6235C55.5536 14.5968 55.5379 14.5725 55.5179 14.5521C55.498 14.5316 55.4742 14.5153 55.4479 14.5041C55.4217 14.4929 55.3936 14.4871 55.3651 14.487V14.4889ZM111.409 14.7093V26.7648C111.408 26.7935 111.413 26.822 111.424 26.8487C111.435 26.8754 111.45 26.8996 111.47 26.9201C111.49 26.9406 111.514 26.9569 111.54 26.9681C111.566 26.9793 111.595 26.9851 111.623 26.9852H115.388C116.512 27.0894 117.636 26.7863 118.558 26.1302C118.915 25.7669 119.187 25.3287 119.356 24.8468C119.525 24.365 119.586 23.8514 119.535 23.3429V18.1796C119.591 17.6652 119.535 17.1447 119.37 16.6546C119.206 16.1645 118.937 15.7168 118.582 15.3429C117.652 14.6837 116.52 14.3806 115.388 14.4879H111.623C111.595 14.4881 111.566 14.4939 111.54 14.505C111.514 14.5162 111.49 14.5325 111.47 14.553C111.45 14.5735 111.435 14.5978 111.424 14.6244C111.413 14.6511 111.408 14.6796 111.409 14.7083V14.7093ZM113.435 25.0044V16.4677C113.437 16.4433 113.448 16.4203 113.465 16.403C113.482 16.3856 113.505 16.3749 113.529 16.3727H115.437C115.738 16.3329 116.043 16.3557 116.335 16.4399C116.626 16.524 116.897 16.6677 117.131 16.862C117.428 17.2795 117.556 17.7956 117.489 18.305V23.2203C117.52 23.4739 117.497 23.7311 117.423 23.9754C117.349 24.2197 117.226 24.4456 117.06 24.6387C116.586 25.01 115.986 25.177 115.391 25.1032H113.525C113.501 25.1011 113.478 25.0904 113.461 25.073C113.444 25.0557 113.433 25.0327 113.431 25.0082L113.435 25.0044ZM109.28 26.6403L106.825 22.2874C106.818 22.2781 106.813 22.2673 106.81 22.2558C106.808 22.2443 106.807 22.2324 106.81 22.2208C106.812 22.2091 106.816 22.1981 106.823 22.1885C106.83 22.1789 106.839 22.1708 106.849 22.1649H106.872C107.516 21.9822 108.073 21.5748 108.446 21.0154C108.81 20.3598 108.984 19.6141 108.947 18.8636V18.1986C109 17.6763 108.933 17.1487 108.751 16.6568C108.569 16.1649 108.277 15.7218 107.899 15.3619C106.946 14.6901 105.79 14.3783 104.632 14.4813H101.82C101.791 14.4814 101.763 14.4872 101.737 14.4984C101.711 14.5096 101.687 14.5259 101.667 14.5464C101.647 14.5668 101.631 14.5911 101.621 14.6178C101.61 14.6444 101.605 14.673 101.605 14.7017V26.7572C101.605 26.7859 101.61 26.8144 101.621 26.8411C101.631 26.8678 101.647 26.892 101.667 26.9125C101.687 26.933 101.711 26.9493 101.737 26.9605C101.763 26.9717 101.791 26.9775 101.82 26.9776H103.444C103.473 26.9775 103.501 26.9717 103.527 26.9605C103.553 26.9493 103.577 26.933 103.597 26.9125C103.617 26.892 103.633 26.8678 103.643 26.8411C103.654 26.8144 103.659 26.7859 103.659 26.7572V22.6057C103.656 22.5835 103.662 22.5611 103.675 22.5433C103.689 22.5255 103.709 22.5138 103.731 22.5107H104.565L104.636 22.5591V22.5838L107.019 26.8588C107.032 26.8941 107.054 26.9246 107.084 26.9465C107.114 26.9684 107.15 26.9806 107.187 26.9814H109.092C109.132 26.9809 109.17 26.9691 109.204 26.9474C109.237 26.9258 109.263 26.8951 109.28 26.8588C109.303 26.8267 109.315 26.7881 109.315 26.7486C109.315 26.7091 109.303 26.6706 109.28 26.6384V26.6403ZM103.633 20.5271V16.4924C103.635 16.468 103.645 16.445 103.663 16.4277C103.68 16.4103 103.703 16.3996 103.727 16.3974H104.656C104.964 16.3587 105.276 16.382 105.575 16.4659C105.873 16.5499 106.153 16.6929 106.396 16.8867C106.7 17.2921 106.835 17.8008 106.773 18.305V18.7449C106.798 18.9962 106.771 19.2502 106.693 19.4902C106.615 19.7303 106.488 19.9512 106.32 20.1385C105.835 20.5064 105.229 20.6727 104.626 20.6031H103.727C103.706 20.6016 103.686 20.5939 103.669 20.5809C103.652 20.5679 103.639 20.5501 103.633 20.5299V20.5271ZM96.4103 14.5117H94.6463C94.6027 14.5092 94.5598 14.5226 94.5252 14.5495C94.4906 14.5763 94.4668 14.6149 94.4581 14.658L91.1918 26.6888C91.1744 26.7548 91.1832 26.825 91.2163 26.8845C91.2362 26.911 91.2612 26.9331 91.2898 26.9494C91.3185 26.9657 91.3502 26.976 91.3829 26.9795H93.0772C93.1219 26.9731 93.1637 26.9534 93.1972 26.923C93.2307 26.8925 93.2545 26.8527 93.2655 26.8085L93.8377 24.803C93.8434 24.7822 93.8557 24.7638 93.8727 24.7506C93.8897 24.7374 93.9105 24.7301 93.9319 24.7299H97.1021C97.1234 24.7304 97.1441 24.7378 97.161 24.751C97.1779 24.7641 97.1903 24.7824 97.1962 24.803L97.744 26.8085C97.7568 26.8565 97.7846 26.8991 97.8233 26.9299C97.8619 26.9607 97.9094 26.9781 97.9587 26.9795H99.6275C99.6602 26.976 99.6919 26.9657 99.7206 26.9494C99.7492 26.9331 99.7742 26.911 99.7941 26.8845C99.8154 26.8572 99.8288 26.8245 99.833 26.79C99.8372 26.7555 99.8318 26.7205 99.8177 26.6888L96.5994 14.658C96.5907 14.6149 96.5668 14.5763 96.5323 14.5495C96.4977 14.5226 96.4547 14.5092 96.4112 14.5117H96.4103ZM94.3837 22.581L95.4323 17.8861C95.4326 17.8752 95.4358 17.8646 95.4416 17.8554C95.4474 17.8462 95.4555 17.8387 95.4651 17.8337C95.4748 17.8288 95.4855 17.8265 95.4963 17.8272C95.5071 17.8279 95.5174 17.8315 95.5264 17.8376L95.598 17.8861L96.6239 22.581C96.6266 22.6031 96.6207 22.6254 96.6073 22.6432C96.5939 22.6609 96.5742 22.6727 96.5524 22.676L96.5279 22.7007H94.4778C94.4536 22.6986 94.4308 22.6879 94.4136 22.6705C94.3964 22.6531 94.3858 22.6302 94.3837 22.6057V22.581ZM84.1097 20.206L85.8736 26.8332C85.8879 26.8784 85.9168 26.9174 85.9558 26.9439C85.9947 26.9705 86.0414 26.983 86.0883 26.9795H87.9708C88.0175 26.983 88.064 26.9704 88.1028 26.9439C88.1416 26.9173 88.1704 26.8783 88.1845 26.8332L91.142 14.7558C91.1521 14.6868 91.1349 14.6164 91.0939 14.5601C91.0733 14.5361 91.0477 14.517 91.0189 14.5042C90.9901 14.4914 90.9588 14.4852 90.9273 14.486H89.2584C89.2115 14.4828 89.1648 14.4955 89.1259 14.5222C89.087 14.5489 89.0581 14.588 89.0439 14.6333L87.9002 18.7658L87.8757 18.7905L87.1603 23.4369C87.1591 23.448 87.1556 23.4588 87.1502 23.4685C87.1447 23.4782 87.1374 23.4868 87.1286 23.4936C87.1199 23.5004 87.1098 23.5054 87.0991 23.5082C87.0884 23.5111 87.0772 23.5117 87.0662 23.5101L86.9947 23.4369L84.8731 15.0494C84.8589 15.0041 84.8301 14.965 84.7911 14.9384C84.7521 14.9119 84.7054 14.8994 84.6585 14.9031H83.4188C83.3719 14.8996 83.3253 14.9121 83.2863 14.9386C83.2474 14.9652 83.2184 15.0042 83.2042 15.0494L81.2275 23.4369C81.2262 23.448 81.2228 23.4588 81.2174 23.4685C81.2119 23.4782 81.2045 23.4868 81.1958 23.4936C81.187 23.5004 81.1769 23.5054 81.1662 23.5082C81.1555 23.5111 81.1444 23.5117 81.1334 23.5101L81.0618 23.4369L80.1799 18.7905L79.0315 14.6323C79.0149 14.5888 78.9856 14.5514 78.9474 14.5251C78.9093 14.4988 78.8641 14.4849 78.8179 14.4851H77.149C77.1173 14.4822 77.0853 14.4875 77.0562 14.5005C77.0271 14.5134 77.0017 14.5336 76.9824 14.5592C76.9584 14.5849 76.9413 14.6164 76.9329 14.6507C76.9245 14.685 76.925 14.7209 76.9344 14.7549L80.0575 26.8351C80.0717 26.8804 80.1005 26.9195 80.1395 26.9461C80.1785 26.9726 80.2252 26.9851 80.2721 26.9814H82.1547C82.1982 26.9837 82.2411 26.9702 82.2756 26.9434C82.3101 26.9165 82.334 26.8781 82.3429 26.8351L83.9431 20.2079C83.9472 20.1964 83.9536 20.1859 83.962 20.1771C83.9703 20.1683 83.9804 20.1614 83.9917 20.1568C84.0029 20.1522 84.0148 20.1501 84.0269 20.1506C84.039 20.151 84.0508 20.154 84.0617 20.1594L84.1097 20.2079V20.206ZM61.4872 27.0773C62.6147 27.1829 63.7418 26.8702 64.6574 26.1976C65.012 25.8281 65.2831 25.3853 65.4519 24.8999C65.6207 24.4144 65.6833 23.8978 65.6353 23.3856V18.0333C65.6877 17.5171 65.6273 16.9956 65.4583 16.5054C65.2894 16.0153 65.0159 15.5686 64.6574 15.1966C63.738 14.5337 62.6116 14.2299 61.4872 14.3416C60.37 14.2292 59.2507 14.5333 58.3405 15.1966C58.0035 15.5806 57.749 16.031 57.5932 16.5192C57.4373 17.0075 57.3835 17.523 57.435 18.0333V23.3885C57.3854 23.8969 57.4426 24.4101 57.6028 24.8946C57.7631 25.3791 58.0228 25.8241 58.3649 26.2005C59.2585 26.8806 60.3737 27.1949 61.4872 27.0802V27.0773ZM61.4872 25.2438C61.1962 25.2834 60.9001 25.2578 60.62 25.169C60.3399 25.0802 60.0826 24.9303 59.8663 24.7299C59.5634 24.3057 59.4291 23.7823 59.4898 23.2631V18.1521C59.4318 17.6405 59.5662 17.1255 59.8663 16.709C60.0805 16.5044 60.3369 16.3501 60.6171 16.2571C60.8973 16.1642 61.1944 16.1349 61.4872 16.1713C61.7946 16.1343 62.1062 16.163 62.4019 16.2557C62.6976 16.3483 62.9706 16.5028 63.2031 16.709C63.5056 17.1245 63.642 17.6397 63.5853 18.1521V23.2631C63.6134 23.5241 63.5899 23.7881 63.5162 24.0399C63.4425 24.2917 63.3201 24.5262 63.1561 24.7299C62.9286 24.9281 62.6627 25.0762 62.3754 25.1647C62.088 25.2532 61.7855 25.2801 61.4872 25.2438ZM75.8378 26.6375L73.382 22.2846C73.3748 22.2752 73.3697 22.2644 73.3671 22.2528C73.3644 22.2413 73.3642 22.2293 73.3665 22.2177C73.3688 22.206 73.3736 22.1951 73.3805 22.1855C73.3874 22.1759 73.3962 22.1679 73.4065 22.162H73.43C74.0728 21.9788 74.6304 21.5715 75.0038 21.0125C75.3784 20.3613 75.5524 19.6122 75.5036 18.8608V18.1958C75.5563 17.6735 75.4892 17.1459 75.3073 16.654C75.1255 16.162 74.8339 15.719 74.4551 15.3591C73.5043 14.6838 72.3466 14.3716 71.1889 14.4784H68.3763C68.3478 14.4786 68.3197 14.4844 68.2935 14.4955C68.2672 14.5067 68.2434 14.523 68.2235 14.5435C68.2035 14.564 68.1879 14.5883 68.1772 14.6149C68.1666 14.6416 68.1614 14.6701 68.1617 14.6988V26.7543C68.1614 26.7831 68.1666 26.8116 68.1772 26.8383C68.1879 26.8649 68.2035 26.8892 68.2235 26.9097C68.2434 26.9302 68.2672 26.9465 68.2935 26.9576C68.3197 26.9688 68.3478 26.9746 68.3763 26.9747H69.9972C70.0257 26.9746 70.0538 26.9688 70.0801 26.9576C70.1063 26.9465 70.13 26.9302 70.15 26.9097C70.1699 26.8892 70.1857 26.8649 70.1963 26.8383C70.2069 26.8116 70.2122 26.7831 70.2118 26.7543V22.6057C70.2089 22.5835 70.2147 22.5611 70.2281 22.5433C70.2415 22.5255 70.2614 22.5138 70.2833 22.5107H71.1183L71.1889 22.5591V22.5838L73.5731 26.8588C73.5873 26.8969 73.6133 26.9294 73.6472 26.9515C73.6811 26.9735 73.7211 26.984 73.7613 26.9814H75.6439C75.6835 26.9807 75.722 26.9688 75.7553 26.9472C75.7885 26.9255 75.8152 26.8949 75.8322 26.8588C75.8549 26.8267 75.867 26.7881 75.867 26.7486C75.867 26.7091 75.8549 26.6706 75.8322 26.6384L75.8378 26.6375ZM70.1901 20.5242V16.4924C70.1921 16.4679 70.2027 16.4449 70.2199 16.4274C70.2372 16.41 70.26 16.3994 70.2843 16.3974H71.2378C71.5418 16.3605 71.8501 16.3847 72.1447 16.4687C72.4394 16.5527 72.7147 16.6948 72.9547 16.8867C73.2598 17.2914 73.3966 17.8002 73.3359 18.305V18.7449C73.361 18.9962 73.3336 19.2501 73.2557 19.4901C73.1777 19.7301 73.0508 19.951 72.8831 20.1385C72.3979 20.5061 71.7917 20.6724 71.1889 20.6031H70.2833C70.2611 20.6015 70.2399 20.5929 70.2228 20.5784C70.2057 20.5638 70.1936 20.5442 70.1882 20.5223L70.1901 20.5242ZM10.9766 21.307L10.5944 20.8672V24.4173L17.269 20.8719L10.5944 17.3256V20.8719L10.9766 21.307Z" fill="url(#paint0_linear_4564_4314)"/>
</g>
<defs>
<linearGradient id="paint0_linear_4564_4314" x1="-0.0156243" y1="20.8962" x2="119.556" y2="20.8962" gradientUnits="userSpaceOnUse">
<stop stop-color="#950F23"/>
<stop offset="1" stop-color="#00459C"/>
</linearGradient>
<clipPath id="clip0_4564_4314">
<rect width="120" height="38" fill="white"/>
</clipPath>
</defs>
</svg>
