<svg width="132" height="38" viewBox="0 0 132 38" fill="none" xmlns="http://www.w3.org/2000/svg">
<path fill-rule="evenodd" clip-rule="evenodd" d="M22.5582 15.4875C24.5102 13.5374 24.5102 10.3906 22.5582 8.4626C20.6063 6.51247 17.4566 6.51247 15.5268 8.4626C13.5749 10.4127 10.4251 10.4127 8.49533 8.4626C6.54346 6.51247 3.39371 6.51247 1.46395 8.4626C-0.487985 10.4127 -0.487985 13.5595 1.46395 15.4875C3.41589 17.4376 6.56558 17.4376 8.49533 15.4875C10.4473 13.5374 13.597 13.5374 15.5268 15.4875C17.4787 17.4376 17.4787 20.5845 15.5268 22.5124C13.5749 24.4404 13.5749 27.6094 15.5268 29.5373C17.4787 31.4653 20.6284 31.4875 22.5582 29.5373C24.5102 27.5872 24.5102 24.4404 22.5582 22.5124C20.6284 20.5623 20.6284 17.4155 22.5582 15.4875ZM50.3068 25.1942C49.8567 25.0307 49.8595 24.5844 49.8626 24.0813C49.8629 24.039 49.8632 23.9962 49.8632 23.9532V9.23857H46.3807V25.0835C46.3807 26.1693 46.6913 26.9893 47.2902 27.5654L47.3345 27.6098C47.4898 27.7649 47.6672 27.8757 47.8669 27.9865C47.9999 28.053 48.133 28.1194 48.2883 28.1859C48.9538 28.4297 49.6857 28.4518 50.3955 28.4297H50.573C50.6395 28.4297 50.706 28.4297 50.7725 28.4075C50.8391 28.4075 50.9057 28.4075 50.9722 28.3854C51.0055 28.3854 51.0388 28.3798 51.0721 28.3743C51.1053 28.3688 51.1386 28.3632 51.1719 28.3632C51.2051 28.3632 51.2384 28.3577 51.2716 28.3521C51.3049 28.3466 51.3382 28.3411 51.3715 28.3411C51.4047 28.33 51.438 28.3244 51.4713 28.3189C51.5046 28.3133 51.5378 28.3078 51.5711 28.2967C51.5933 28.2967 51.6099 28.2912 51.6266 28.2856C51.6432 28.2801 51.6599 28.2745 51.682 28.2745C51.7153 28.2635 51.7541 28.2524 51.7929 28.2414C51.8317 28.2303 51.8705 28.2192 51.9038 28.2081C51.9149 28.2081 51.926 28.2026 51.9371 28.197C51.9482 28.1915 51.9593 28.1859 51.9704 28.1859L51.4824 25.1499C51.0831 25.2607 50.6173 25.305 50.3068 25.1942ZM54.366 9.43767V12.8947H57.8483V9.43767H54.366ZM54.366 14.6011V28.4294H57.8483V14.6011H54.366ZM28.7024 15.5538C28.281 16.6619 28.0813 17.7699 28.0813 18.9001C28.0813 20.0968 28.3031 21.2491 28.8355 22.4015C29.2791 23.5317 29.878 24.5511 30.6765 25.4375C31.4529 26.3239 32.4066 27.0552 33.4935 27.6092C34.5804 28.1633 35.8004 28.4513 37.109 28.4513C37.841 28.4513 38.6174 28.3627 39.3937 28.1633C40.17 27.9638 40.902 27.6757 41.5896 27.3211C42.2772 26.9666 42.8761 26.5234 43.4307 25.9915C43.9852 25.4596 44.4066 24.8391 44.695 24.1522L41.7449 22.468C41.523 22.9776 41.2569 23.3987 40.902 23.7533C40.5471 24.1078 40.17 24.3959 39.7708 24.6175C39.3715 24.8391 38.9279 24.9943 38.4843 25.1051C38.0185 25.2158 37.597 25.2602 37.1755 25.2602C36.3771 25.2602 35.6451 25.1051 34.9796 24.7505C34.3142 24.4181 33.7597 23.9527 33.2717 23.3766C32.7837 22.8004 32.4288 22.1355 32.1626 21.3821C31.8965 20.6286 31.7633 19.853 31.7633 19.0331C31.7633 18.3018 31.8743 17.5705 32.0961 16.8391C32.3179 16.1078 32.6506 15.443 33.0943 14.8669C33.5379 14.2906 34.0924 13.8032 34.7578 13.4486C35.4233 13.0718 36.1996 12.8946 37.109 12.8946C37.5305 12.8946 37.9519 12.9389 38.3955 13.0275C38.8169 13.1383 39.2384 13.2934 39.6377 13.4929C40.0369 13.6923 40.3918 13.9805 40.7467 14.335C41.1016 14.6896 41.39 15.1328 41.634 15.6424L44.3844 13.7366C43.7855 12.5178 42.8539 11.5649 41.6118 10.8115C40.3696 10.0802 38.9057 9.70343 37.1977 9.70343C35.756 9.70343 34.4694 9.96935 33.3382 10.5012C32.207 11.0331 31.2532 11.7422 30.4769 12.6065C29.7005 13.4707 29.1016 14.4458 28.7024 15.5538ZM81.7594 28.4297H78.277V20.7842C78.277 19.6984 78.0999 18.9006 77.7229 18.3909C77.3453 17.8812 76.8353 17.6374 76.1702 17.6374C75.4824 17.6374 74.8167 17.9034 74.2178 18.4352C73.6189 18.9671 73.1758 19.6541 72.9091 20.4962V28.4297H69.4267V20.7842C69.4267 19.6984 69.2496 18.9006 68.8726 18.3909C68.4956 17.8812 67.985 17.6374 67.3199 17.6374C66.6321 17.6374 65.9891 17.9034 65.3902 18.4131C64.7686 18.9228 64.3254 19.6097 64.0815 20.474V28.4297H60.5988V14.6015H63.7486V17.3051C64.2586 16.4186 64.9464 15.7316 65.8113 15.2662C66.6989 14.7787 67.6969 14.5571 68.8278 14.5571C69.9815 14.5571 70.8685 14.8452 71.49 15.3992C72.111 15.9533 72.5101 16.6402 72.6878 17.4602C73.242 16.5294 73.9518 15.7981 74.7947 15.3106C75.6375 14.823 76.6134 14.5793 77.7229 14.5793C78.5658 14.5793 79.2309 14.7344 79.7856 15.0447C80.3177 15.3549 80.7394 15.7538 81.0275 16.2635C81.3163 16.7732 81.5155 17.3493 81.6485 17.9699C81.7594 18.6125 81.8263 19.2551 81.8263 19.92V28.4297H81.7594ZM87.9482 27.8757C88.8131 28.2524 89.789 28.4297 90.8537 28.4297C92.3623 28.4297 93.649 28.0972 94.7131 27.4546C95.8006 26.7898 96.5987 25.9477 97.0866 24.9283L94.1369 24.1084C93.915 24.6402 93.4933 25.0835 92.8944 25.4158C92.2955 25.7482 91.6525 25.9034 90.9647 25.9034C90.5209 25.9034 90.0777 25.8369 89.678 25.6818C89.2569 25.5267 88.902 25.305 88.5691 25.0169C88.2363 24.7289 87.9702 24.3743 87.771 23.9754C87.5712 23.5765 87.4382 23.1111 87.3934 22.5793H97.7523C97.7964 22.4463 97.8185 22.269 97.8185 22.0696C97.8412 21.8702 97.8412 21.6487 97.8412 21.4272C97.8412 20.5186 97.6855 19.6541 97.3753 18.8119C97.0645 17.992 96.5987 17.2386 95.9998 16.6181C95.4009 15.9975 94.669 15.4879 93.8041 15.1111C92.9391 14.7344 91.9626 14.5571 90.8758 14.5571C89.789 14.5571 88.8131 14.7344 87.9261 15.1111C87.0385 15.4879 86.3066 15.9975 85.6856 16.6402C85.0867 17.2607 84.6209 18.0142 84.288 18.8563C83.9558 19.6984 83.8001 20.607 83.8001 21.5599C83.8001 22.4906 83.9779 23.3549 84.3107 24.197C84.6429 25.0169 85.1088 25.7704 85.7298 26.3909C86.3286 27.0114 87.0832 27.4989 87.9482 27.8757ZM93.2272 17.9255C93.8703 18.5238 94.2479 19.3438 94.3361 20.341H87.3713C87.4161 19.8535 87.5264 19.3882 87.7263 18.9892C87.9261 18.5904 88.1701 18.2358 88.4802 17.9477C88.791 17.6596 89.146 17.4159 89.545 17.2607C89.9447 17.1056 90.3658 17.017 90.8317 17.017C91.7634 17.017 92.5621 17.3272 93.2272 17.9255ZM99.8818 18.9001C99.8818 17.7699 100.081 16.6619 100.503 15.5538C100.902 14.4458 101.501 13.4707 102.277 12.6065C103.053 11.7422 104.007 11.0331 105.139 10.5012C106.27 9.96935 107.556 9.70343 108.998 9.70343C110.706 9.70343 112.17 10.0802 113.412 10.8115C114.654 11.5649 115.586 12.5178 116.185 13.7366L113.434 15.6424C113.19 15.1328 112.902 14.6896 112.547 14.335C112.192 13.9805 111.837 13.6923 111.438 13.4929C111.039 13.2934 110.617 13.1383 110.196 13.0275C109.752 12.9389 109.331 12.8946 108.909 12.8946C108 12.8946 107.224 13.0718 106.558 13.4486C105.893 13.8032 105.338 14.2906 104.894 14.8669C104.451 15.443 104.118 16.1078 103.896 16.8391C103.674 17.5705 103.563 18.3018 103.563 19.0331C103.563 19.853 103.696 20.6286 103.963 21.3821C104.229 22.1355 104.584 22.8004 105.072 23.3766C105.56 23.9527 106.115 24.4181 106.78 24.7505C107.446 25.1051 108.177 25.2602 108.976 25.2602C109.397 25.2602 109.819 25.2158 110.284 25.1051C110.728 24.9943 111.172 24.8391 111.571 24.6175C111.971 24.3959 112.348 24.1078 112.703 23.7533C113.057 23.3987 113.323 22.9776 113.545 22.468L116.495 24.1522C116.207 24.8391 115.785 25.4596 115.231 25.9915C114.676 26.5234 114.077 26.9666 113.39 27.3211C112.703 27.6757 111.971 27.9638 111.194 28.1633C110.418 28.3627 109.641 28.4513 108.909 28.4513C107.579 28.4513 106.381 28.1633 105.294 27.6092C104.207 27.0552 103.253 26.3239 102.477 25.4375C101.679 24.5511 101.08 23.5317 100.636 22.4015C100.103 21.2491 99.8818 20.0968 99.8818 18.9001ZM121.885 27.964C122.773 28.3407 123.771 28.5401 124.88 28.5401C125.989 28.5401 126.987 28.3407 127.874 27.964C128.762 27.5872 129.516 27.0554 130.114 26.4127C130.713 25.7701 131.179 25.0166 131.512 24.1745C131.844 23.3102 132 22.4238 132 21.4931C132 20.5401 131.844 19.6316 131.512 18.7894C131.179 17.9474 130.713 17.1939 130.092 16.5512C129.471 15.8864 128.717 15.3767 127.852 15C126.987 14.6233 125.989 14.4238 124.88 14.4238C123.771 14.4238 122.773 14.6233 121.885 15C121.02 15.3767 120.266 15.9085 119.645 16.5512C119.024 17.1939 118.558 17.9474 118.226 18.7894C117.893 19.6316 117.738 20.5401 117.738 21.4931C117.738 22.4238 117.893 23.3324 118.226 24.1745C118.558 25.0166 119.024 25.7701 119.645 26.4127C120.244 27.0776 120.998 27.5872 121.885 27.964ZM121.597 23.1329C121.419 22.6454 121.331 22.0914 121.331 21.4931C121.331 20.9169 121.419 20.3629 121.597 19.8532C121.774 19.3434 122.041 18.9002 122.351 18.5457C122.662 18.1689 123.039 17.8809 123.483 17.6815C123.904 17.482 124.37 17.3712 124.88 17.3712C125.367 17.3712 125.833 17.4598 126.277 17.6593C126.721 17.8587 127.098 18.1468 127.408 18.5014C127.719 18.8781 127.985 19.2992 128.163 19.8088C128.34 20.3185 128.429 20.8504 128.429 21.4487C128.429 22.047 128.34 22.6011 128.163 23.1108C127.985 23.6205 127.719 24.0637 127.408 24.4183C127.098 24.7728 126.698 25.0609 126.277 25.2604C125.855 25.4598 125.39 25.5485 124.88 25.5485C124.392 25.5485 123.926 25.4598 123.483 25.2604C123.039 25.0609 122.662 24.7728 122.351 24.4183C122.041 24.0637 121.774 23.6205 121.597 23.1329ZM9.95933 26.0135C9.95933 28.755 7.7348 30.9775 4.99077 30.9775C2.2467 30.9775 0.0222019 28.755 0.0222019 26.0135C0.0222019 23.2719 2.2467 21.0495 4.99077 21.0495C7.7348 21.0495 9.95933 23.2719 9.95933 26.0135ZM23.6894 29.8033C23.6007 29.7368 23.4898 29.7146 23.3789 29.7146C23.268 29.7146 23.1571 29.7368 23.0683 29.8033C22.9575 29.8698 22.8909 29.9363 22.8244 30.0471C22.7578 30.1357 22.7356 30.2465 22.7356 30.3573C22.7356 30.4681 22.7578 30.5567 22.8244 30.6676C22.8909 30.7784 22.9575 30.8449 23.0683 30.9113C23.1571 30.9778 23.268 31 23.3789 31C23.4898 31 23.5785 30.9778 23.6894 30.9113C23.8003 30.8449 23.8669 30.7784 23.9334 30.6676C24 30.5789 24.0222 30.4681 24.0222 30.3573C24.0222 30.2465 24 30.1579 23.9334 30.0471C23.8669 29.9363 23.8003 29.8476 23.6894 29.8033ZM23.1349 29.9141C23.2014 29.8698 23.2902 29.8476 23.3789 29.8476C23.4676 29.8476 23.5563 29.8698 23.6229 29.9141C23.7116 29.9585 23.7781 30.0249 23.8225 30.1135C23.8669 30.2022 23.8891 30.2908 23.8891 30.3795C23.8891 30.4903 23.8669 30.5568 23.8225 30.6454C23.8168 30.653 23.8113 30.6603 23.806 30.6676C23.7481 30.7452 23.704 30.8043 23.6229 30.8449C23.5563 30.8891 23.4676 30.9113 23.3789 30.9113C23.2902 30.9113 23.2236 30.9113 23.1349 30.8449C23.1273 30.8392 23.12 30.8337 23.1127 30.8283C23.035 30.7705 22.9759 30.7265 22.9353 30.6454C22.8909 30.5568 22.8688 30.4681 22.8688 30.3795C22.8688 30.2908 22.8909 30.2022 22.9353 30.1135C22.9409 30.106 22.9464 30.0986 22.9518 30.0913C23.0097 30.0138 23.0537 29.9547 23.1349 29.9141ZM23.2236 30.0249H23.0905V30.6897V30.7119H23.2236V30.4238H23.268C23.2902 30.4238 23.3345 30.4238 23.3567 30.4459C23.3704 30.4597 23.3841 30.4818 23.4031 30.5125C23.4148 30.5313 23.4285 30.5535 23.4455 30.5789L23.512 30.6897H23.6894L23.6007 30.5567L23.5563 30.4681L23.512 30.4238C23.512 30.4238 23.4898 30.4017 23.4676 30.4017C23.5342 30.4017 23.5785 30.3795 23.6007 30.3352C23.6229 30.2908 23.645 30.2465 23.645 30.2022C23.645 30.18 23.645 30.1357 23.6229 30.1135L23.5563 30.0471C23.5471 30.0471 23.5342 30.0433 23.519 30.0388C23.4974 30.0325 23.4714 30.0249 23.4455 30.0249H23.2236ZM23.2902 30.313H23.2236V30.18H23.2902H23.4455C23.4676 30.18 23.4898 30.18 23.4898 30.2022C23.512 30.2022 23.512 30.2244 23.512 30.2465C23.512 30.2686 23.4898 30.2908 23.4898 30.2908C23.4898 30.2908 23.4676 30.313 23.4455 30.313H23.2902Z" fill="url(#paint0_linear_14189_464)"/>
<defs>
<linearGradient id="paint0_linear_14189_464" x1="1.57603e-07" y1="19" x2="132" y2="19" gradientUnits="userSpaceOnUse">
<stop stop-color="#950F23"/>
<stop offset="1" stop-color="#00459C"/>
</linearGradient>
</defs>
</svg>
