<svg width="115" height="38" viewBox="0 0 115 38" fill="none" xmlns="http://www.w3.org/2000/svg">
<g clip-path="url(#clip0_4564_4317)">
<path d="M45.6981 7.3067C45.7953 7.30544 45.8917 7.32344 45.9819 7.35963C46.072 7.39583 46.154 7.44951 46.2232 7.51757C46.2923 7.58562 46.3472 7.66668 46.3847 7.75606C46.4222 7.84543 46.4415 7.94134 46.4415 8.0382C46.4415 8.23473 46.3631 8.4232 46.2237 8.56217C46.0843 8.70113 45.8953 8.7792 45.6981 8.7792H42.6009C42.4054 8.7767 42.2188 8.69753 42.0814 8.55884C41.9441 8.42014 41.8671 8.23309 41.8671 8.0382C41.8671 7.8442 41.9444 7.65814 42.082 7.52095C42.2196 7.38377 42.4063 7.3067 42.6009 7.3067H45.6981ZM55.8284 21.2052C55.6927 21.2028 55.5632 21.1479 55.4672 21.0522C55.3712 20.9566 55.3162 20.8275 55.3138 20.6922C55.315 20.4257 55.2635 20.1615 55.162 19.9149C55.0606 19.6683 54.9112 19.4441 54.7226 19.2552C54.534 19.0663 54.3098 18.9164 54.0629 18.8141C53.816 18.7119 53.5513 18.6592 53.2839 18.6592C53.1474 18.6592 53.0165 18.6052 52.92 18.5089C52.8235 18.4127 52.7693 18.2823 52.7693 18.1462C52.7693 18.0101 52.8235 17.8797 52.92 17.7835C53.0165 17.6873 53.1474 17.6332 53.2839 17.6332C54.0978 17.6332 54.8783 17.9555 55.4538 18.5292C56.0292 19.1028 56.3525 19.8809 56.3525 20.6922C56.35 20.8291 56.2937 20.9596 56.1957 21.0555C56.0977 21.1515 55.9658 21.2052 55.8284 21.2052ZM42.8106 12.6552V27.6272H47.242V30.3347H40.7902C40.6057 30.3347 40.4288 30.2616 40.2983 30.1316C40.1678 30.0015 40.0945 29.8251 40.0945 29.6412V10.6412C40.0945 10.4573 40.1678 10.2809 40.2983 10.1508C40.4288 10.0208 40.6057 9.9477 40.7902 9.9477H47.242V12.6552H42.8106ZM65.7681 9.9572C65.9526 9.9572 66.1295 10.0303 66.26 10.1603C66.3905 10.2904 66.4638 10.4668 66.4638 10.6507V29.6507C66.4638 29.8346 66.3905 30.011 66.26 30.1411C66.1295 30.2711 65.9526 30.3442 65.7681 30.3442H59.3259V27.6272H63.7477V12.6647H59.3259V9.9572H65.7681ZM26.4096 20.6257C26.3946 19.6094 25.9777 18.6401 25.2496 17.9285C24.5215 17.2169 23.541 16.8206 22.5214 16.8257C21.7438 16.8222 20.9828 17.05 20.3359 17.48C19.6889 17.91 19.1854 18.5227 18.8897 19.2397C18.594 19.9566 18.5197 20.7452 18.6762 21.5045C18.8327 22.2638 19.2129 22.9593 19.7682 23.502C20.3234 24.0446 21.0285 24.4098 21.7931 24.5507C22.5578 24.6917 23.3472 24.602 24.0604 24.2931C24.7736 23.9842 25.3781 23.4702 25.7966 22.8169C26.2151 22.1636 26.4286 21.4006 26.4096 20.6257ZM26.362 25.3757C25.9042 26.0456 25.2821 26.5876 24.5548 26.9502C23.8275 27.3127 23.0192 27.4836 22.2069 27.4467C20.4493 27.4292 18.7696 26.7208 17.5329 25.4756C16.2963 24.2304 15.6026 22.5489 15.6027 20.7967C15.5926 18.9994 16.2984 17.2715 17.5653 15.9926C18.8322 14.7137 20.5564 13.9883 22.3594 13.9757C23.1578 13.9653 23.9454 14.16 24.6464 14.541C25.3475 14.922 25.9383 15.4766 26.362 16.1512V14.2512H30.9649V16.9967H29.3448V24.3497H30.9649V27.0857H26.362V25.3757ZM100.161 17.0157H98.4938V14.2512H103.106V16.1512C103.482 15.4814 104.038 14.9293 104.712 14.5568C105.385 14.1843 106.149 14.0061 106.918 14.0422C107.614 14.0395 108.302 14.1789 108.941 14.4517C109.581 14.7246 110.157 15.1252 110.635 15.6287C111.693 16.8067 111.721 17.9372 111.721 19.4287V24.4542H113.418V27.1902H107.147V24.3782H108.815V20.2172C108.901 19.4135 108.724 18.6037 108.31 17.9087C108.035 17.5765 107.688 17.3107 107.295 17.1313C106.902 16.952 106.473 16.8637 106.041 16.8732C105.594 16.8591 105.15 16.9497 104.745 17.1378C104.339 17.3259 103.984 17.6062 103.707 17.9562C103.247 18.7768 103.054 19.7195 103.154 20.6542V24.3782H104.812V27.1142H98.5414V24.3782H100.209L100.161 17.0157ZM92.9188 20.6162C92.9062 19.6007 92.4914 18.6314 91.7648 17.9196C91.0383 17.2077 90.0588 16.8111 89.0401 16.8162C88.2621 16.8108 87.5002 17.037 86.852 17.4658C86.2038 17.8947 85.6987 18.5068 85.4016 19.2235C85.1045 19.9403 85.0287 20.7292 85.1841 21.4891C85.3395 22.2491 85.719 22.9454 86.2739 23.4891C86.8288 24.0327 87.5338 24.3988 88.2987 24.5405C89.0636 24.6822 89.8536 24.5931 90.5673 24.2845C91.2811 23.9759 91.8862 23.4619 92.3051 22.8084C92.7241 22.1549 92.9377 21.3915 92.9188 20.6162ZM92.9188 25.3662C92.4619 26.0347 91.8412 26.5759 91.1158 26.9383C90.3903 27.3007 89.584 27.4725 88.7733 27.4372C87.0156 27.4197 85.3359 26.7113 84.0993 25.4661C82.8626 24.2209 82.1689 22.5394 82.169 20.7872C82.1589 18.9915 82.8634 17.2651 84.1283 15.9864C85.3931 14.7078 87.1149 13.9813 88.9162 13.9662C89.7133 13.951 90.5008 14.1416 91.2021 14.5195C91.9034 14.8974 92.4948 15.4497 92.9188 16.1227V14.2512H97.5312V16.9967H95.9111V24.3497H97.5312V27.0857H92.9188V25.3662ZM76.251 16.7307H74.9072V14.2512H81.2446V16.9967H79.6817L76.1271 20.4072L79.8914 24.3497H81.9689V27.0857H74.9072V24.3782H75.9841L72.925 21.0152V24.3782H74.0782V27.1142H68.2935V24.3782H69.9803V12.6932H68.2935V9.9572H72.925V20.0272L76.251 16.7307ZM57.1912 20.7112C57.1874 19.9391 56.9546 19.1854 56.5222 18.5449C56.0897 17.9044 55.4769 17.4056 54.7608 17.1115C54.0447 16.8173 53.2573 16.7409 52.4977 16.8918C51.7381 17.0426 51.0403 17.4141 50.4919 17.9594C49.9436 18.5046 49.5693 19.1994 49.4161 19.9563C49.263 20.7131 49.3378 21.4982 49.6311 22.2127C49.9245 22.9273 50.4233 23.5394 51.0648 23.9721C51.7062 24.4047 52.4618 24.6386 53.2363 24.6442C54.2835 24.6442 55.288 24.2301 56.0294 23.4928C56.7709 22.7555 57.1887 21.7552 57.1912 20.7112ZM46.3938 20.6637C46.4013 19.3102 46.811 17.9893 47.5709 16.8678C48.3309 15.7462 49.4072 14.8742 50.6639 14.3619C51.9207 13.8495 53.3015 13.7199 54.6321 13.9892C55.9626 14.2585 57.1834 14.9148 58.1401 15.8752C59.0969 16.8355 59.7467 18.0569 60.0077 19.3852C60.2687 20.7134 60.129 22.089 59.6064 23.3382C59.0838 24.5874 58.2016 25.6542 57.0713 26.4041C55.9409 27.1539 54.6131 27.5531 53.2553 27.5512C51.4287 27.5361 49.6827 26.7996 48.4 25.5032C47.1173 24.2067 46.4027 22.4561 46.4129 20.6352L46.3938 20.6637ZM36.5685 24.3782H38.2267V27.1142H31.9369V24.3782H33.6237V17.0252H31.956V14.2512H36.5685V24.3782ZM33.6237 9.9572H36.5685V13.0542H33.6237V9.9572ZM10.8187 25.1572C10.3529 25.8375 9.72073 26.3881 8.98203 26.7572C8.24333 27.1262 7.42246 27.3014 6.59695 27.2662C4.94164 27.1129 3.40338 26.3491 2.28354 25.1242C1.16369 23.8994 0.542969 22.3019 0.542969 20.6447C0.542969 18.9875 1.16369 17.39 2.28354 16.1652C3.40338 14.9403 4.94164 14.1765 6.59695 14.0232C7.41699 14.0327 8.22394 14.2294 8.9558 14.5983C9.68766 14.9672 10.3249 15.4985 10.8187 16.1512V12.6932H9.1319V9.9572H13.7634V24.3782H15.4216V27.1142H10.8187V25.1572ZM10.8949 20.6162C10.8751 19.6064 10.4606 18.6441 9.73973 17.9344C9.01884 17.2246 8.04851 16.8234 7.03533 16.8162C6.25391 16.8051 5.48704 17.0273 4.83331 17.4542C4.17959 17.881 3.66891 18.4931 3.36695 19.2116C3.06499 19.9302 2.98555 20.7223 3.13885 21.4862C3.29216 22.2501 3.67119 22.9509 4.22721 23.4983C4.78323 24.0457 5.49081 24.4148 6.25896 24.5582C7.02712 24.7015 7.82072 24.6125 8.53771 24.3025C9.2547 23.9926 9.8623 23.476 10.2824 22.8191C10.7024 22.1621 10.9158 21.395 10.8949 20.6162Z" fill="url(#paint0_linear_4564_4317)"/>
</g>
<defs>
<linearGradient id="paint0_linear_4564_4317" x1="0.542969" y1="18.8254" x2="113.418" y2="18.8254" gradientUnits="userSpaceOnUse">
<stop stop-color="#950F23"/>
<stop offset="1" stop-color="#00459C"/>
</linearGradient>
<clipPath id="clip0_4564_4317">
<rect width="115" height="38" fill="white"/>
</clipPath>
</defs>
</svg>
