<svg width="117" height="38" viewBox="0 0 117 38" fill="none" xmlns="http://www.w3.org/2000/svg">
<path d="M116.374 13.6914V11.9909C116.374 11.584 116.345 11.1777 116.288 10.7749C116.217 10.3792 116.032 10.0128 115.756 9.72036C115.411 9.3765 114.987 9.12213 114.521 8.97936C113.785 8.76263 113.018 8.66324 112.251 8.68486C111.494 8.66632 110.739 8.75915 110.009 8.96036C109.542 9.08977 109.119 9.34244 108.783 9.69186C108.525 9.99405 108.349 10.357 108.27 10.7464C108.194 11.144 108.156 11.548 108.156 11.9529V13.6819C108.156 13.7674 108.156 14.0239 108.156 14.4514C108.199 15.0154 108.304 15.573 108.47 16.1139C108.653 16.6927 108.98 17.2156 109.42 17.6339C109.904 18.0899 110.436 18.5839 110.997 18.9924C111.549 19.4371 112.075 19.9129 112.574 20.4174C113.077 20.8956 113.444 21.4988 113.638 22.1654C113.733 22.5929 113.809 22.9539 113.866 23.2579C113.931 23.6152 113.963 23.9777 113.961 24.3409V26.8679C113.961 27.0656 113.942 27.2629 113.904 27.4569C113.872 27.6588 113.794 27.8507 113.676 28.0174C113.537 28.2079 113.35 28.3585 113.134 28.4544C112.458 28.6762 111.729 28.6762 111.054 28.4544C110.819 28.3685 110.607 28.2285 110.436 28.0459C110.293 27.8866 110.191 27.6939 110.142 27.4854C110.104 27.2785 110.085 27.0686 110.085 26.8584V23.9039H107.928V25.9559C107.919 26.3705 107.957 26.785 108.042 27.1909C108.115 27.5859 108.3 27.9517 108.574 28.2454C108.92 28.6007 109.357 28.8538 109.838 28.9769C110.575 29.1869 111.342 29.2798 112.108 29.2524C112.854 29.2786 113.599 29.179 114.312 28.9579C114.763 28.8161 115.171 28.5648 115.5 28.2264C115.756 27.9341 115.924 27.575 115.984 27.1909C116.048 26.7917 116.083 26.3885 116.089 25.9844V24.2554C116.101 23.7233 116.057 23.1914 115.956 22.6689C115.832 22.1945 115.68 21.7281 115.5 21.2724C115.27 20.6986 114.92 20.1804 114.474 19.7524C114.021 19.3184 113.546 18.9093 113.049 18.5269C112.545 18.1374 112.099 17.7479 111.643 17.3489C111.194 16.9605 110.829 16.4855 110.569 15.9524C110.371 15.6081 110.263 15.2192 110.256 14.8219C110.256 14.4894 110.256 14.2709 110.256 14.1664V11.0884C110.258 10.8834 110.283 10.6794 110.332 10.4804C110.372 10.2613 110.472 10.0574 110.619 9.89015C110.766 9.7229 110.956 9.59858 111.168 9.53036C111.834 9.31205 112.553 9.31205 113.22 9.53036C113.431 9.60036 113.619 9.72523 113.766 9.89217C113.913 10.0591 114.013 10.2621 114.056 10.4804C114.105 10.6825 114.13 10.8898 114.132 11.0979V13.7009L116.374 13.6914ZM102.285 18.4414L98.1907 8.78936H96.2907V29.2144H98.4472V13.3969L102.304 21.6619V29.2619H104.432V8.78936H102.304L102.285 18.4414ZM90.2962 27.2669C90.3022 27.4483 90.2658 27.6286 90.1899 27.7935C90.1141 27.9584 90.0008 28.1033 89.8592 28.2169C89.4261 28.4935 88.9194 28.6326 88.4057 28.6159C87.9033 28.638 87.4071 28.4981 86.9902 28.2169C86.834 28.1114 86.7051 27.9702 86.6142 27.805C86.5234 27.6398 86.4731 27.4553 86.4677 27.2669V11.1549C86.4678 10.9414 86.4869 10.7284 86.5247 10.5184C86.5714 10.3125 86.6658 10.1206 86.8002 9.95786C86.9699 9.78036 87.1779 9.64391 87.4082 9.55886C87.7105 9.44067 88.0338 9.38571 88.3582 9.39736C88.718 9.37737 89.0777 9.43571 89.4127 9.56836C89.6342 9.65867 89.83 9.80225 89.9827 9.98636C90.1044 10.1503 90.1799 10.3438 90.2012 10.5469C90.2153 10.7493 90.2153 10.9524 90.2012 11.1549L90.2962 27.2669ZM91.8827 9.89136C91.5592 9.52196 91.1521 9.23532 90.6952 9.05536C89.9779 8.80788 89.221 8.69515 88.4627 8.72286C87.6863 8.69196 86.9107 8.80138 86.1732 9.04586C85.6988 9.19926 85.273 9.47441 84.9382 9.84386C84.6708 10.1471 84.4931 10.5188 84.4252 10.9174C84.3492 11.2798 84.311 11.6491 84.3112 12.0194V26.6494C84.3067 27.0188 84.3905 27.3841 84.5558 27.7146C84.721 28.0451 84.9629 28.3313 85.2612 28.5494C86.2143 29.1602 87.3458 29.4313 88.4722 29.3189C89.1128 29.338 89.7527 29.2644 90.3722 29.1004C90.8127 28.9774 91.2255 28.771 91.5882 28.4924C91.8855 28.2609 92.1178 27.9566 92.2627 27.6089C92.4134 27.2845 92.4912 26.931 92.4907 26.5734V11.9909C92.48 11.6405 92.4451 11.2914 92.3862 10.9459C92.318 10.5586 92.1511 10.1954 91.9017 9.89136H91.8827ZM78.2217 29.2144H80.3782V8.81786H78.2217V29.2144ZM66.3942 9.81536H69.4912V29.1859H71.6762V9.81536H74.9062V8.81786H66.3562L66.3942 9.81536ZM61.2737 27.2289C61.2677 27.4131 61.2212 27.5937 61.1375 27.7579C61.0537 27.9221 60.9348 28.0658 60.7892 28.1789C60.3919 28.4637 59.9093 28.6045 59.4212 28.5779C58.9222 28.6091 58.427 28.472 58.0152 28.1884C57.8625 28.0821 57.7384 27.9398 57.6539 27.7741C57.5694 27.6084 57.5271 27.4243 57.5307 27.2384V8.78936H55.3742V26.6019C55.364 26.9605 55.4321 27.3171 55.5737 27.6469C55.7354 27.9898 55.9725 28.2918 56.2672 28.5304C56.648 28.808 57.0762 29.014 57.5307 29.1384C58.1502 29.3024 58.7902 29.376 59.4307 29.3569C60.0705 29.3722 60.7095 29.3019 61.3307 29.1479C61.7787 29.0408 62.2015 28.8471 62.5752 28.5779C62.866 28.3541 63.0949 28.0598 63.2402 27.7229C63.3608 27.394 63.425 27.0471 63.4302 26.6969V8.78936H61.2737V27.2289ZM48.4487 8.81786H46.2447V29.1859H52.1727V28.1029H48.4487V8.81786ZM40.2882 27.2669C40.2927 27.45 40.2537 27.6315 40.1744 27.7967C40.0952 27.9618 39.9779 28.1058 39.8322 28.2169C39.4033 28.5029 38.8935 28.6428 38.3787 28.6159C37.8827 28.6339 37.3938 28.4942 36.9822 28.2169C36.8248 28.1125 36.6951 27.9716 36.6041 27.8061C36.5131 27.6407 36.4636 27.4556 36.4597 27.2669V11.1549C36.45 10.9411 36.4691 10.727 36.5167 10.5184C36.5531 10.309 36.6487 10.1145 36.7922 9.95786C36.953 9.77872 37.1552 9.64172 37.3812 9.55886C38.0535 9.3357 38.7799 9.3357 39.4522 9.55886C39.6676 9.65049 39.8569 9.79411 40.0032 9.97686C40.1229 10.1438 40.204 10.3352 40.2407 10.5374C40.2548 10.7398 40.2548 10.9429 40.2407 11.1454V27.2954L40.2882 27.2669ZM41.8747 9.89136C41.5524 9.51213 41.1365 9.22391 40.6682 9.05536C39.9574 8.80806 39.2068 8.69531 38.4547 8.72286C37.6783 8.69133 36.9026 8.80077 36.1652 9.04586C35.6883 9.20542 35.2578 9.47941 34.9112 9.84386C34.6512 10.1519 34.4746 10.5215 34.3982 10.9174C34.3269 11.2805 34.2888 11.6493 34.2842 12.0194V26.6494C34.2835 27.0182 34.369 27.3821 34.5339 27.712C34.6989 28.0419 34.9387 28.3286 35.2342 28.5494C36.1964 29.1555 37.3321 29.4261 38.4642 29.3189C39.1048 29.3393 39.745 29.2657 40.3642 29.1004C40.8095 28.9746 41.228 28.7685 41.5992 28.4924C41.891 28.2556 42.1222 27.9527 42.2737 27.6089C42.3909 27.2862 42.4488 26.9451 42.4447 26.6019V11.9909C42.4434 11.64 42.4084 11.2901 42.3402 10.9459C42.2729 10.5618 42.1131 10.1999 41.8747 9.89136V9.89136ZM29.7907 6.18636C29.4111 5.7938 28.9367 5.50585 28.4132 5.35036C27.6514 5.12943 26.8595 5.03004 26.0667 5.05586C25.2831 5.02632 24.5 5.12581 23.7487 5.35036C23.2265 5.50245 22.7543 5.79103 22.3807 6.18636C22.0908 6.53984 21.9065 6.96787 21.8487 7.42136C21.7766 7.83222 21.7417 8.24873 21.7442 8.66586V9.95786C21.7442 10.5374 21.7442 11.0314 21.7442 11.4494C21.7896 11.9689 21.8786 12.4837 22.0102 12.9884C22.1366 13.4972 22.292 13.9983 22.4757 14.4894C22.6958 14.9995 22.9663 15.4865 23.2832 15.9429L25.3732 19.1254C25.5727 19.4484 25.7627 19.7239 25.9432 19.9709C26.1237 20.2179 26.2472 20.4364 26.3992 20.6739C26.5432 20.8968 26.6672 21.132 26.7697 21.3769C26.8888 21.6466 26.9934 21.9225 27.0832 22.2034C27.2162 22.6404 27.3207 23.0014 27.4252 23.3149C27.5277 23.6401 27.5696 23.9815 27.5487 24.3219V30.1549C27.5629 30.3351 27.5629 30.5161 27.5487 30.6964C27.5232 30.8391 27.4682 30.975 27.3872 31.0954C27.293 31.2233 27.1645 31.3221 27.0167 31.3804C26.7506 31.4842 26.4662 31.5327 26.1807 31.5229C25.9032 31.5299 25.6267 31.4881 25.3637 31.3994C25.1923 31.3263 25.0373 31.2197 24.9077 31.0859C24.8131 30.9774 24.7477 30.8466 24.7177 30.7059C24.7036 30.5225 24.7036 30.3383 24.7177 30.1549V23.3244H21.7822V29.2619C21.7645 29.6937 21.7867 30.1262 21.8487 30.5539C21.9365 31.009 22.1392 31.4342 22.4377 31.7889C22.8118 32.2036 23.2962 32.5034 23.8342 32.6534C24.597 32.8696 25.3882 32.9689 26.1807 32.9479C26.9649 32.9763 27.7484 32.8735 28.4987 32.6439C29.0115 32.4734 29.4747 32.1798 29.8477 31.7889C30.1303 31.4361 30.3198 31.0179 30.3987 30.5729C30.4555 30.1636 30.4841 29.751 30.4842 29.3379V24.2554C30.4842 23.9419 30.4842 23.6284 30.4367 23.3054C30.4067 23.0351 30.3527 22.768 30.2752 22.5074C30.2168 22.2626 30.1439 22.0215 30.0567 21.7854C29.9712 21.5479 29.8477 21.2724 29.7337 20.9779C29.5041 20.3999 29.2177 19.8462 28.8787 19.3249C28.5747 18.8309 28.2992 18.3749 28.0617 18.0519L26.0762 14.9929C25.8066 14.5904 25.5623 14.1716 25.3447 13.7389C24.9748 12.8605 24.7563 11.9257 24.6987 10.9744C24.6987 10.5374 24.6987 10.0244 24.6987 9.39736V7.82036C24.6987 7.65886 24.6987 7.46886 24.6987 7.27886C24.7184 7.14598 24.7743 7.02108 24.8602 6.91786C24.978 6.79023 25.1246 6.69252 25.2877 6.63286C25.5608 6.51866 25.8569 6.46986 26.1522 6.49036C26.4322 6.48085 26.7118 6.5194 26.9787 6.60436C27.1273 6.65675 27.2586 6.74873 27.3587 6.87036C27.4443 6.98919 27.5027 7.12542 27.5297 7.26936C27.5768 7.44903 27.596 7.63486 27.5867 7.82036V14.0524H30.5127V8.70386C30.5032 8.28376 30.4651 7.86479 30.3987 7.44986C30.3169 6.98055 30.1064 6.54316 29.7907 6.18636V6.18636ZM15.9587 21.0824C15.9587 21.2344 15.9587 21.4054 15.9587 21.5954C15.9164 21.6949 15.8431 21.7782 15.7497 21.8329C15.5204 21.9942 15.2625 22.1102 14.9897 22.1749C14.7211 22.2415 14.4481 22.2891 14.1727 22.3174H13.8117H13.0517V6.73736H14.0017C14.4993 6.71353 14.9959 6.80117 15.4552 6.99386V6.99386C15.5363 7.00868 15.6128 7.04214 15.6788 7.09159C15.7447 7.14105 15.7983 7.20516 15.8352 7.27886C15.9033 7.55558 15.9384 7.83939 15.9397 8.12436V21.0824H15.9587ZM17.6687 5.92986C17.1983 5.66225 16.6833 5.48201 16.1487 5.39786C15.7039 5.31238 15.2526 5.26471 14.7997 5.25536H10.1447V32.7484H13.0517V23.9039H14.5052C14.8092 23.9039 15.1037 23.9039 15.3982 23.8374C15.7793 23.7884 16.1569 23.7154 16.5287 23.6189C16.9573 23.5231 17.3657 23.3527 17.7352 23.1154C17.978 22.9704 18.1879 22.7764 18.3515 22.5458C18.5151 22.3152 18.6287 22.0529 18.6852 21.7759C18.7748 21.3509 18.8225 20.9181 18.8277 20.4839V8.88436C18.8279 8.37333 18.7994 7.86269 18.7422 7.35486C18.6798 7.04624 18.5458 6.75656 18.3511 6.50908C18.1565 6.2616 17.9065 6.06322 17.6212 5.92986H17.6687ZM3.36172 5.18886H0.511719V32.7389H7.08572V30.8389H3.36172V5.18886Z" fill="url(#paint0_linear_4564_4270)"/>
<defs>
<linearGradient id="paint0_linear_4564_4270" x1="0.511719" y1="19.0016" x2="116.374" y2="19.0016" gradientUnits="userSpaceOnUse">
<stop stop-color="#950F23"/>
<stop offset="1" stop-color="#00459C"/>
</linearGradient>
</defs>
</svg>
