<svg width="157" height="38" viewBox="0 0 157 38" fill="none" xmlns="http://www.w3.org/2000/svg">
<g clip-path="url(#clip0_4564_4311)">
<path fill-rule="evenodd" clip-rule="evenodd" d="M113.076 7.56028C115.67 7.58128 118.2 8.37913 120.347 9.85327C122.494 11.3274 124.162 13.4118 125.141 15.8439C126.119 18.2759 126.365 20.9467 125.846 23.5196C125.327 26.0925 124.067 28.4524 122.225 30.3018C120.383 32.1512 118.042 33.4073 115.496 33.912C112.95 34.4166 110.313 34.1471 107.918 33.1374C105.523 32.1277 103.477 30.423 102.037 28.2382C100.598 26.0534 99.8299 23.4862 99.8298 20.8603C99.8444 17.319 101.248 13.9286 103.732 11.4345C106.216 8.94045 109.577 7.5469 113.076 7.56028ZM116.817 26.452H119.833L114.347 13.6982H111.602L106.116 26.452H109.132L110.312 23.697H115.634L116.815 26.452H116.817ZM112.985 17.4935L111.389 21.1985H114.568L112.988 17.4935H112.985ZM151.661 15.906C151.262 15.8831 150.867 16.0024 150.544 16.2433C150.412 16.3497 150.306 16.486 150.236 16.6412C150.165 16.7965 150.131 16.9663 150.136 17.1372C150.134 17.3164 150.18 17.4928 150.267 17.6485C150.355 17.8041 150.482 17.9332 150.636 18.0226C151.367 18.3832 152.143 18.6439 152.943 18.7978C153.971 19.0091 154.934 19.469 155.749 20.1383C156.095 20.4723 156.364 20.8793 156.537 21.3303C156.71 21.7813 156.782 22.2653 156.75 22.7479C156.764 23.2805 156.656 23.8093 156.434 24.2922C156.211 24.7752 155.881 25.1991 155.469 25.5305C154.505 26.2789 153.311 26.6572 152.098 26.5983C150.068 26.5911 148.121 25.7866 146.666 24.3544L148.356 22.2739C149.367 23.3159 150.714 23.9563 152.152 24.0789C152.586 24.1041 153.017 23.9857 153.378 23.7416C153.521 23.6385 153.636 23.5013 153.714 23.3422C153.792 23.1831 153.83 23.007 153.824 22.8296C153.829 22.6498 153.788 22.4717 153.706 22.3121C153.624 22.1526 153.503 22.0168 153.355 21.9176C152.772 21.5886 152.14 21.3576 151.484 21.2336C150.317 21.0184 149.211 20.5483 148.242 19.8561C147.881 19.5217 147.601 19.108 147.423 18.6469C147.245 18.1858 147.174 17.6895 147.215 17.1961C147.188 16.6573 147.293 16.1201 147.519 15.6317C147.746 15.1434 148.088 14.7189 148.514 14.3955C149.458 13.7141 150.598 13.3677 151.757 13.4104C152.623 13.4134 153.482 13.5614 154.3 13.8483C155.109 14.1185 155.86 14.5393 156.516 15.089L155.081 17.1686C154.112 16.3776 152.91 15.9348 151.665 15.9098L151.661 15.906ZM76.6552 23.9383C76.2149 21.3717 76.2273 18.7465 76.6918 16.1844H78.493C81.1024 16.1844 82.3179 17.3358 82.3179 20.0889C82.3179 22.6795 81.2178 23.9383 78.7108 23.9383H76.6552ZM74.2974 13.702C73.3236 17.8914 73.2797 22.2472 74.1688 26.4558H78.4207C82.6502 26.4558 85.1704 24.5339 85.1704 20.0148C85.1704 15.6448 82.6521 13.702 78.5662 13.702H74.2974ZM66.856 16.2385H60.7634C60.6845 17.1081 60.6276 17.984 60.5925 18.8662H66.4786C66.4458 19.6709 66.4308 20.4869 66.4392 21.2925H60.5578C60.5578 22.1732 60.5925 23.0595 60.646 23.9383H66.947C67.0015 24.7838 67.0781 25.6233 67.177 26.4567H58.0207C57.5797 22.2132 57.6428 17.9314 58.2085 13.703H67.1704C67.0421 14.5409 66.937 15.3864 66.855 16.2395L66.856 16.2385ZM130.771 13.702C132.251 17.8069 132.342 22.2928 131.031 26.4558H135.176C139.406 26.4558 142.498 24.5339 142.498 20.0148C142.498 15.6448 139.412 13.702 135.326 13.702H130.775H130.771ZM134.568 23.9383C135.032 21.3692 134.978 18.7319 134.411 16.1844H135.249C137.858 16.1844 139.641 17.3358 139.641 20.0889C139.641 22.6795 137.974 23.9383 135.467 23.9383H134.568ZM47.663 18.7133C46.4091 20.8561 45.3178 23.0922 44.3985 25.4022H42.709C41.4833 23.3612 40.4163 21.2267 39.5176 19.0182L39.4538 18.8463C39.4357 19.5195 39.4266 20.195 39.4266 20.8726C39.4266 22.7524 39.4958 24.615 39.634 26.4605H36.8745C36.7425 24.615 36.6749 22.7524 36.6717 20.8726C36.6717 18.4558 36.7881 16.0666 37.0049 13.7068H40.4225C41.3069 16.1128 42.355 18.4538 43.5593 20.713C44.4789 18.2974 45.5771 15.9553 46.8445 13.7068H50.752C50.4823 16.0856 50.3466 18.4781 50.3456 20.8726C50.3456 22.7565 50.4329 24.6185 50.5934 26.4605H47.832V26.0387C47.6987 24.3287 47.6273 22.6064 47.6273 20.8641C47.6273 20.1414 47.6392 19.4217 47.663 18.7047V18.7133ZM24.1036 26.4605C24.0013 24.7904 23.9384 23.108 23.9271 21.4151C22.3318 18.925 20.8665 16.352 19.5372 13.7068H22.6074C23.3875 15.3638 24.305 16.9509 25.3501 18.4511C26.1736 16.8175 27.0896 15.2334 28.0937 13.7068H31.162C29.5393 16.1843 28.0709 18.7619 26.7655 21.4246C26.696 21.4246 26.9185 26.0397 26.9457 26.4596H24.1017L24.1036 26.4605ZM2.99676 26.4605C2.8663 23.8281 2.82501 21.1035 2.88508 18.4663C3.91756 20.7719 5.07301 23.0852 6.28383 25.4013H7.97334C8.96429 23.0038 10.111 20.6753 11.4059 18.4311C11.2936 21.1065 11.3202 23.7861 11.4857 26.4586H14.3194C14.0554 22.2123 14.029 17.9542 14.2405 13.7049H10.7676C9.39721 15.9522 8.18286 18.2933 7.13329 20.7111C5.92434 18.3827 4.8712 16.0447 3.86312 13.7049H0.296363C0.0304539 17.951 -0.000888042 22.2089 0.202495 26.4586H2.99396L2.99676 26.4605ZM94.2957 25.5922L94.2778 25.5419L94.2685 25.5143L94.2591 25.4868L94.2487 25.4592C94.1549 25.1894 94.0704 24.9149 93.9897 24.6375C93.1105 21.7763 93.0558 18.7206 93.832 15.8291C93.9484 15.3949 94.0854 14.9636 94.2356 14.5437L91.4939 13.5529L91.4225 13.7571C90.007 17.8899 89.9971 22.3831 91.3944 26.5223L94.2929 25.5865L94.2957 25.5922ZM95.9983 11.2586C95.4608 11.5327 94.8381 11.5807 94.2658 11.3921C93.6935 11.2034 93.2181 10.7935 92.9431 10.2516C92.8082 9.98377 92.7272 9.69151 92.7046 9.39175C92.6821 9.092 92.7185 8.79068 92.8117 8.50525C92.9049 8.21981 93.0531 7.95591 93.2477 7.72881C93.4424 7.50171 93.6795 7.31592 93.9455 7.18218C94.4832 6.90829 95.1061 6.86044 95.6784 7.04904C96.2508 7.23763 96.7264 7.64741 97.0017 8.18918C97.1346 8.45688 97.2141 8.74846 97.2356 9.04726C97.2571 9.34606 97.2201 9.64621 97.1269 9.93057C97.0338 10.2149 96.8861 10.4779 96.6925 10.7045C96.4988 10.931 96.2629 11.1168 95.9983 11.251V11.2586Z" fill="url(#paint0_linear_4564_4311)"/>
</g>
<defs>
<linearGradient id="paint0_linear_4564_4311" x1="0.0703134" y1="20.5477" x2="156.757" y2="20.5477" gradientUnits="userSpaceOnUse">
<stop stop-color="#950F23"/>
<stop offset="1" stop-color="#00459C"/>
</linearGradient>
<clipPath id="clip0_4564_4311">
<rect width="157" height="38" fill="white"/>
</clipPath>
</defs>
</svg>
