<svg width="91" height="38" viewBox="0 0 91 38" fill="none" xmlns="http://www.w3.org/2000/svg">
<path fill-rule="evenodd" clip-rule="evenodd" d="M85.6902 1.99382H86.0541C86.0388 1.68503 85.9407 1.07031 84.9294 1.07031C84.2277 1.07031 83.9457 1.51777 83.9457 1.9638C83.9457 2.46596 84.3625 2.59336 84.5467 2.64965L84.5502 2.65071L85.1386 2.77651C85.6174 2.88874 85.7584 2.98738 85.7584 3.29545C85.7584 3.69859 85.2795 3.78437 84.9976 3.78437C84.6352 3.78437 84.2131 3.62997 84.2131 3.10103H83.8477C83.8477 3.3798 83.8913 3.61568 84.1304 3.84083C84.2698 3.95306 84.4789 4.10602 85.0137 4.10602C85.5048 4.10602 86.1368 3.9259 86.1368 3.2397C86.1368 2.77651 85.8587 2.55279 85.478 2.46916L84.6613 2.2876C84.4943 2.24543 84.3112 2.16037 84.3112 1.90805C84.3112 1.4756 84.7318 1.40627 84.9708 1.40627C85.3094 1.40627 85.6733 1.54494 85.6902 1.99382ZM86.6302 4.03812H87.0087V2.32977C87.0087 2.29826 87.0068 2.22761 87.0043 2.13764C87.0002 1.98685 86.9946 1.78179 86.9941 1.6157H87.0087L87.8093 4.03812H88.2039L89.019 1.6157H89.0328C89.0328 1.78526 89.0272 1.99544 89.0231 2.14703L89.0231 2.14799C89.0208 2.23302 89.019 2.29948 89.019 2.32977V4.03812H89.3975V1.15252H88.8382L88.0223 3.58852H88.0093L87.1918 1.15252H86.6302V4.03812ZM12.9024 24.8208C6.47193 24.8208 1.26025 19.5185 1.26025 12.9733C1.26025 6.42928 6.47193 1.125 12.9024 1.125C19.3331 1.125 24.5448 6.42928 24.5448 12.9733C24.5448 19.5185 19.3331 24.8208 12.9024 24.8208ZM4.59718 12.4529C4.59718 7.90426 8.31682 4.20378 12.8805 4.20378C17.4455 4.20378 21.1644 7.90426 21.1644 12.4529C21.1644 15.6303 19.4154 18.3558 16.7716 19.7333L16.3822 18.645C18.5816 17.4368 20.012 15.1324 20.012 12.4529C20.012 8.53111 16.819 5.3454 12.8805 5.3454C8.95324 5.3454 5.74995 8.53111 5.74995 12.4529C5.74995 15.1161 7.16804 17.4073 9.42816 18.6785L9.01859 19.7562C6.32303 18.3124 4.59718 15.6055 4.59718 12.4529ZM16.8854 12.4535C16.8854 10.2511 15.0872 8.46155 12.8805 8.46155C10.6754 8.46155 8.87594 10.2511 8.87594 12.4535C8.87594 13.777 9.48616 14.9167 10.4778 15.6366L10.0596 16.7371C8.63783 15.8297 7.73517 14.2693 7.73517 12.4535C7.73517 9.623 10.04 7.32022 12.8805 7.32022C15.7223 7.32022 18.0371 9.623 18.0371 12.4535C18.0371 14.2726 17.1583 15.8447 15.7283 16.7547L15.3293 15.6422C16.3129 14.9183 16.8854 13.7724 16.8854 12.4535ZM15.8001 22.1938L15.9875 22.7249H17.238L14.178 14.0686C14.6599 13.6936 14.9704 13.1108 14.9704 12.4542C14.9704 11.3235 14.0494 10.4072 12.9148 10.4072C11.7803 10.4072 10.861 11.3235 10.861 12.4542C10.861 13.1108 11.1708 13.6936 11.6526 14.0686L10.9038 16.3661L8.62085 22.7434H9.8714L10.1092 22.0381L12.8734 20.4293L15.8001 22.1938ZM13.8056 19.8877L14.7833 19.3195L15.3 20.7815L13.8056 19.8877ZM10.5506 20.7388L11.0481 19.3295L11.9992 19.9029L10.5506 20.7388ZM12.8664 17.7959L14.1031 18.6891L12.9314 19.365L11.7176 18.6394L12.8664 17.7959ZM13.5768 17.2397L13.9376 16.9173L14.2235 17.685L13.5768 17.2397ZM11.6503 17.685L11.8623 16.9796L12.2227 17.2642L11.6503 17.685ZM12.754 14.4943C12.8067 14.499 12.8611 14.5023 12.9148 14.5023C12.9689 14.5023 13.0236 14.499 13.0767 14.4943L13.6146 16.0381L12.9122 16.6891L12.2101 16.0501L12.7155 14.6016L12.754 14.4943ZM2.08984 35.2839H2.69749L3.09996 33.1347H3.64161C4.13159 33.1347 4.38054 33.4199 4.41712 34.0928C4.45371 34.6626 4.50465 35.1814 4.53406 35.2839H5.16323C5.09795 35.0869 5.06136 34.6188 5.00971 33.9316C4.97312 33.4199 4.80524 33.0544 4.46089 32.9376L4.46806 32.9232C5.09006 32.7476 5.63888 32.2137 5.63888 31.4978C5.63888 31.161 5.50041 30.8764 5.273 30.6786C5.00971 30.4378 4.58572 30.3203 4.09501 30.3203C3.72913 30.3203 3.31949 30.3647 3.01961 30.4299L2.08984 35.2839ZM3.53902 30.8614C3.64878 30.832 3.80948 30.8106 4.05125 30.8106C4.60724 30.8106 5.00253 31.0442 5.00253 31.5709C5.00253 32.1629 4.50465 32.6674 3.7363 32.6674H3.19538L3.53902 30.8614ZM8.93169 33.641C8.81471 34.2552 8.76376 34.8837 8.77816 35.2786H8.21498C8.21498 35.0664 8.25152 34.7303 8.29535 34.3648H8.28094C7.89282 35.0959 7.41004 35.3589 6.90498 35.3589C6.28299 35.3589 5.8877 34.8622 5.8877 34.1892C5.8877 32.9616 6.79522 31.6602 8.33909 31.6602C8.67558 31.6602 9.04929 31.7189 9.2904 31.7992L8.93169 33.641ZM7.12451 34.8622C7.62957 34.8622 8.22931 34.2043 8.40506 33.2612L8.6103 32.1941C8.52205 32.1719 8.39073 32.1425 8.18556 32.1425C7.27086 32.1425 6.52476 33.1006 6.51686 34.0796C6.51686 34.4745 6.65604 34.8622 7.12451 34.8622ZM12.8469 30.0938L12.5326 31.7901C12.3791 31.717 12.1302 31.6654 11.9035 31.6654C10.6515 31.6654 9.71533 32.8206 9.71533 34.0777C9.71533 34.8015 10.0884 35.3641 10.7764 35.3641C11.2815 35.3641 11.7277 35.0868 12.0498 34.5822H12.0641L11.9687 35.2838H12.5254C12.5469 34.9405 12.6058 34.5313 12.6789 34.1658L13.4545 30.0938H12.8469ZM12.1961 33.5366C12.0419 34.3335 11.4787 34.8674 11.0103 34.8674C10.4909 34.8674 10.3446 34.4217 10.3446 33.9974C10.3446 33.0543 11.0031 32.1556 11.8518 32.1556C12.108 32.1556 12.3131 32.2208 12.4372 32.3018L12.1961 33.5366ZM14.8151 31.7437L14.135 35.2818H13.5273L14.2082 31.7437H14.8151ZM15.0784 30.7282C15.0712 30.969 14.9033 31.1374 14.6687 31.1374C14.4564 31.1374 14.3179 30.9761 14.3179 30.7568C14.3179 30.5232 14.5009 30.3477 14.7204 30.3477C14.9399 30.3477 15.0784 30.5089 15.0784 30.7282ZM17.2154 31.6602C16.0661 31.6602 15.2539 32.7423 15.2539 33.9048C15.2539 34.7009 15.7518 35.3589 16.6371 35.3589C17.8223 35.3589 18.5985 34.2258 18.5985 33.1372C18.5985 32.384 18.1738 31.6602 17.2154 31.6602ZM17.1493 32.1425C17.7857 32.1425 17.9765 32.7201 17.9765 33.1293C17.9765 33.9556 17.4348 34.8765 16.7174 34.8765C16.1981 34.8765 15.8831 34.4601 15.8831 33.8825C15.8759 33.0713 16.3882 32.1425 17.1493 32.1425ZM21.9792 33.334C21.9792 33.7654 21.6355 34.1015 21.2036 34.1015C20.7861 34.1015 20.4425 33.7726 20.4425 33.334C20.4353 32.9097 20.7861 32.5664 21.2036 32.5664C21.6355 32.5664 21.9792 32.9097 21.9792 33.334ZM23.7358 35.2839H24.3356L24.7094 33.3102C24.8629 33.3324 25.0308 33.3468 25.2137 33.3468C25.7704 33.3468 26.3264 33.2006 26.7066 32.8788C27.0287 32.6086 27.2992 32.1478 27.2992 31.5924C27.2992 31.2054 27.1751 30.9202 26.9412 30.7008C26.6628 30.4378 26.2094 30.3203 25.7338 30.3203C25.3313 30.3203 24.9433 30.3647 24.6648 30.4299L23.7358 35.2839ZM25.17 30.8686C25.2797 30.8399 25.4626 30.8177 25.7044 30.8177C26.2676 30.8177 26.6851 31.0514 26.6851 31.6361C26.6851 32.3306 26.1284 32.8501 25.2948 32.8501C25.119 32.8501 24.9798 32.8351 24.8041 32.7985L25.17 30.8686ZM27.3354 33.9048C27.3354 32.7423 28.1482 31.6602 29.2968 31.6602C30.2553 31.6602 30.68 32.384 30.68 33.1372C30.68 34.2258 29.9045 35.3589 28.7186 35.3589C27.8333 35.3589 27.3354 34.7009 27.3354 33.9048ZM30.058 33.1293C30.058 32.7201 29.8679 32.1425 29.2309 32.1425C28.4696 32.1425 27.9574 33.0713 27.9653 33.8825C27.9653 34.4601 28.2796 34.8765 28.799 34.8765C29.5164 34.8765 30.058 33.9556 30.058 33.1293ZM34.2867 30.0938L33.9725 31.7901C33.819 31.717 33.57 31.6654 33.3433 31.6654C32.0915 31.6654 31.1553 32.8206 31.1553 34.0777C31.1553 34.8015 31.5283 35.3641 32.2163 35.3641C32.7213 35.3641 33.1676 35.0868 33.4897 34.5822H33.5041L33.4086 35.2838H33.9654C33.9869 34.9405 34.0457 34.5313 34.1189 34.1658L34.8944 30.0938H34.2867ZM33.6361 33.5366C33.4818 34.3335 32.9187 34.8674 32.4502 34.8674C31.9307 34.8674 31.7844 34.4217 31.7844 33.9974C31.7844 33.0543 32.443 32.1556 33.2917 32.1556C33.5478 32.1556 33.753 32.2208 33.8771 32.3018L33.6361 33.5366ZM36.5271 34.8556C36.885 34.8556 37.1634 34.746 37.3463 34.6579L37.4052 35.1401C37.2222 35.2283 36.8564 35.3523 36.3807 35.3523C35.466 35.3523 35.019 34.7381 35.019 33.9856C35.019 32.7795 35.9122 31.668 37.1857 31.668C37.5149 31.668 37.8148 31.7633 37.9246 31.822L37.7488 32.3043C37.6096 32.2384 37.4124 32.1725 37.149 32.1725C36.2265 32.1725 35.649 33.079 35.649 33.9125C35.649 34.4823 35.9488 34.8556 36.5271 34.8556ZM40.866 35.2786C40.8516 34.8837 40.9026 34.2552 41.0195 33.641L41.3782 31.7992C41.1372 31.7189 40.7634 31.6602 40.427 31.6602C38.8831 31.6602 37.9756 32.9616 37.9756 34.1892C37.9756 34.8622 38.3708 35.3589 38.9929 35.3589C39.4979 35.3589 39.9807 35.0959 40.3688 34.3648H40.3831C40.3394 34.7303 40.3029 35.0664 40.3029 35.2786H40.866ZM40.4929 33.2612C40.3172 34.2043 39.7175 34.8622 39.2123 34.8622C38.7439 34.8622 38.6047 34.4745 38.6047 34.0796C38.6126 33.1006 39.3588 32.1425 40.2734 32.1425C40.4786 32.1425 40.6099 32.1719 40.6981 32.1941L40.4929 33.2612ZM42.5123 35.3517C42.1321 35.3517 41.7956 35.2348 41.6343 35.1109L41.8028 34.6644C41.9707 34.7669 42.2784 34.8837 42.564 34.8837C42.9736 34.8837 43.2369 34.6207 43.2369 34.3068C43.2369 34.0287 43.1128 33.8603 42.7469 33.6561C42.3366 33.4296 42.1099 33.115 42.1099 32.7566C42.1099 32.1353 42.6443 31.6602 43.3905 31.6602C43.7126 31.6602 43.9981 31.7483 44.1294 31.8358L43.9615 32.2966C43.8367 32.2235 43.61 32.1353 43.3467 32.1353C42.9808 32.1353 42.7175 32.3618 42.7175 32.6692C42.7175 32.925 42.8854 33.0856 43.2003 33.2612C43.5956 33.4877 43.8661 33.7951 43.8661 34.1892C43.8661 34.9353 43.2592 35.3517 42.5123 35.3517ZM45.4611 30.947L45.3075 31.7433H44.8025L44.707 32.2184H45.2193L44.8685 34.0093C44.8168 34.2652 44.7953 34.4702 44.7953 34.6751C44.7953 35.0327 44.9998 35.3617 45.5414 35.3617C45.7172 35.3617 45.9001 35.3402 46.0098 35.2965L46.0392 34.8214C45.9582 34.8357 45.8563 34.8428 45.7537 34.8428C45.5191 34.8428 45.4173 34.7188 45.4173 34.5067C45.4173 34.3168 45.446 34.1341 45.4826 33.9362L45.8119 32.2184H46.6613L46.756 31.7433H45.9072L46.0902 30.793L45.4611 30.947ZM49.7497 33.334C49.7497 33.7654 49.4061 34.1015 48.9742 34.1015C48.5567 34.1015 48.213 33.7726 48.213 33.334C48.2059 32.9097 48.5567 32.5664 48.9742 32.5664C49.4061 32.5664 49.7497 32.9097 49.7497 33.334ZM51.3667 35.0178C51.5719 35.1934 52.0547 35.3539 52.5526 35.3539C53.6573 35.3539 54.3303 34.6888 54.3303 33.8339C54.3303 33.2268 53.9938 32.8391 53.3862 32.518C52.874 32.2328 52.6258 32.0063 52.6258 31.6043C52.6258 31.2023 52.9916 30.8002 53.5985 30.8002C53.9938 30.7923 54.3009 30.9385 54.4551 31.0267L54.6747 30.5365C54.4989 30.4197 54.1402 30.2734 53.6646 30.2734C52.757 30.2734 51.9958 30.8439 51.9958 31.7211C51.9958 32.2543 52.3473 32.6492 52.9766 32.9853C53.4888 33.2705 53.7011 33.5414 53.7011 33.907C53.7011 34.5061 53.1889 34.835 52.6329 34.835C52.2232 34.835 51.8495 34.7031 51.5862 34.5204L51.3667 35.0178ZM55.6991 31.7433L55.8526 30.947L56.4818 30.793L56.2989 31.7433H57.1476L57.0529 32.2184H56.2034L55.8741 33.9362C55.8376 34.1341 55.8088 34.3168 55.8088 34.5067C55.8088 34.7188 55.9107 34.8428 56.1453 34.8428C56.2479 34.8428 56.3498 34.8357 56.4309 34.8214L56.4014 35.2965C56.2916 35.3402 56.1087 35.3617 55.9329 35.3617C55.3913 35.3617 55.1869 35.0327 55.1869 34.6751C55.1869 34.4702 55.2083 34.2652 55.2601 34.0093L55.6109 32.2184H55.0986L55.194 31.7433H55.6991ZM57.7918 35.2786L58.0844 33.722C58.238 32.8957 58.7065 32.26 59.233 32.26C59.2991 32.26 59.3578 32.2672 59.3944 32.2744L59.5114 31.6752C59.4676 31.6674 59.3944 31.6602 59.3428 31.6602C58.8671 31.6602 58.487 32.0257 58.2602 32.508H58.238C58.2746 32.2378 58.304 31.9891 58.3334 31.7404H57.7989C57.7624 32.0693 57.7035 32.5374 57.6159 32.9982L57.1841 35.2786H57.7918ZM60.9818 34.8694C61.3985 34.8694 61.7135 34.7375 61.9331 34.6207L62.0206 35.0743C61.7572 35.2277 61.3254 35.3517 60.8498 35.3517C59.9136 35.3517 59.5039 34.716 59.5039 33.9334C59.5039 32.8663 60.2938 31.6602 61.4352 31.6602C62.1088 31.6602 62.4746 32.0622 62.4746 32.5667C62.4746 33.4948 61.428 33.7435 60.118 33.722C60.0893 33.8753 60.1108 34.2043 60.1912 34.3942C60.3303 34.7088 60.6159 34.8694 60.9818 34.8694ZM60.1912 33.254C61.1424 33.2612 61.8892 33.1372 61.8892 32.5889C61.8892 32.2966 61.6698 32.1353 61.3476 32.1353C60.7694 32.1353 60.3375 32.6986 60.1912 33.254ZM65.6951 35.2786C65.6801 34.8837 65.7318 34.2552 65.8487 33.641L66.2074 31.7992C65.9657 31.7189 65.5926 31.6602 65.2561 31.6602C63.7122 31.6602 62.8047 32.9616 62.8047 34.1892C62.8047 34.8622 63.2 35.3589 63.822 35.3589C64.3264 35.3589 64.8099 35.0959 65.1973 34.3648H65.2123C65.1679 34.7303 65.1313 35.0664 65.1313 35.2786H65.6951ZM65.3221 33.2612C65.1464 34.2043 64.5459 34.8622 64.0415 34.8622C63.573 34.8622 63.4339 34.4745 63.4339 34.0796C63.441 33.1006 64.1879 32.1425 65.1026 32.1425C65.307 32.1425 65.439 32.1719 65.5266 32.1941L65.3221 33.2612ZM67.5244 33.5027L67.1951 35.2786H66.6025L67.0782 32.7717C67.1514 32.3768 67.2023 32.0328 67.2389 31.7404H67.7733L67.678 32.4062H67.7002C68.0294 31.916 68.4757 31.6602 68.9442 31.6602C69.4851 31.6602 69.7412 32.0041 69.7706 32.45C70.0856 31.9383 70.539 31.6674 71.0734 31.6602C71.4831 31.6602 71.9293 31.9232 71.9293 32.5889C71.9293 32.7566 71.9078 32.991 71.8712 33.188L71.4759 35.2786H70.8834L71.2636 33.239C71.293 33.1078 71.3145 32.925 71.3145 32.7789C71.3145 32.4062 71.176 32.1647 70.7808 32.1647C70.3417 32.1647 69.8223 32.6763 69.6759 33.4662L69.3316 35.2786H68.7462L69.1415 33.2024C69.1709 33.0491 69.1852 32.91 69.1852 32.7717C69.1852 32.4714 69.1049 32.1647 68.6587 32.1647C68.2124 32.1647 67.6636 32.7495 67.5244 33.5027ZM73.1223 35.2818L73.8024 31.7437H73.1954L72.5146 35.2818H73.1223ZM73.656 31.1374C73.8906 31.1374 74.0585 30.969 74.0664 30.7282C74.0664 30.5089 73.9272 30.3477 73.7077 30.3477C73.4882 30.3477 73.3052 30.5232 73.3052 30.7568C73.3052 30.9761 73.4443 31.1374 73.656 31.1374ZM75.1195 33.5608L74.7981 35.2786H74.1904L74.6661 32.7717C74.7288 32.4634 74.7692 32.1861 74.8051 31.9402L74.8051 31.9401C74.8152 31.8711 74.8249 31.8045 74.8347 31.7404H75.3756L75.2881 32.4349H75.3024C75.6173 31.9383 76.093 31.6602 76.6124 31.6602C77.0374 31.6602 77.5124 31.9016 77.5124 32.647C77.5124 32.8004 77.4833 33.0275 77.4466 33.2175L77.0512 35.2786H76.4445L76.8321 33.239C76.8612 33.1006 76.8835 32.9322 76.8835 32.7861C76.8835 32.4277 76.7448 32.1647 76.3269 32.1647C75.8958 32.1647 75.2809 32.6836 75.1195 33.5608ZM77.9585 36.5578C78.1853 36.704 78.5875 36.8065 79.0196 36.8065C79.4295 36.8065 79.9045 36.7191 80.2561 36.4116C80.6292 36.0977 80.8269 35.5781 80.9732 34.8328L81.5149 31.9088C81.2368 31.777 80.7901 31.6602 80.3802 31.6602C79.0119 31.6602 78.127 32.8519 78.1339 34.0509C78.1339 34.6795 78.5002 35.2786 79.2096 35.2786C79.6999 35.2786 80.1312 35.0299 80.4392 34.5261H80.4607L80.3435 35.0521C80.1312 36.0095 79.6639 36.317 79.0701 36.317C78.697 36.317 78.3462 36.2146 78.1339 36.0826L77.9585 36.5578ZM80.6223 33.4439C80.4898 34.1384 79.9635 34.7962 79.444 34.7962C78.9024 34.7962 78.7637 34.3355 78.7637 33.9484C78.7706 33.0713 79.3781 32.1503 80.2638 32.1503C80.5197 32.1503 80.7388 32.2156 80.8491 32.2672L80.6223 33.4439ZM45.2509 18.3221C45.2509 21.632 42.5502 24.9085 37.5157 24.9085C32.8479 24.9085 29.5471 22.3007 29.4805 18.4558H32.7146C32.9146 20.395 34.2816 22.3341 37.5157 22.3341C40.4498 22.3341 42.1835 20.6624 42.1835 18.4558C42.1835 15.5642 39.5233 14.852 36.6505 14.0828C33.2786 13.18 29.6139 12.1987 29.6139 7.52301C29.6139 3.67814 32.7146 1.07031 37.3157 1.07031C41.7501 1.07031 44.6507 3.51097 45.0175 7.05494H41.6834C41.4833 5.48356 40.0164 3.71157 37.1823 3.67814C34.6817 3.61127 32.7146 4.91518 32.7146 7.42271C32.7146 10.1616 35.3113 10.8784 38.1411 11.6595C41.529 12.5946 45.2509 13.622 45.2509 18.3221ZM52.8607 24.4973V7.30704L60.5898 24.4973H62.7312L70.4268 7.3403V24.4973H73.4715V1.48828H70.226L61.6604 20.5073L53.0949 1.48828H49.8159V24.4973H52.8607ZM81.5642 1.27734V24.4937H78.4521V1.27734H81.5642Z" fill="url(#paint0_linear_1511_1182)"/>
<defs>
<linearGradient id="paint0_linear_1511_1182" x1="1.26025" y1="18.9384" x2="89.3975" y2="18.9384" gradientUnits="userSpaceOnUse">
<stop stop-color="#950F23"/>
<stop offset="1" stop-color="#00459C"/>
</linearGradient>
</defs>
</svg>
