<svg width="124" height="38" viewBox="0 0 124 38" fill="none" xmlns="http://www.w3.org/2000/svg">
<g clip-path="url(#clip0_4564_4308)">
<path fill-rule="evenodd" clip-rule="evenodd" d="M19.9288 17.0753C19.4838 13.5974 17.8858 10.8253 16.2879 10.8253C14.5325 10.8253 13.0655 13.2839 12.4895 17.0753H12.202C8.71382 16.3429 6.82832 15.3235 6.82832 14.0154C6.82832 12.1325 10.8878 10.6676 15.9956 10.6676C21.2345 10.6676 25.5824 12.1315 25.5824 14.0154C25.5824 15.3235 23.4084 16.6307 19.9259 17.0753H19.9288ZM115.51 15.7672L117.553 21.4159H113.336L115.51 15.7672ZM117.553 12.5761H113.467L107.495 27.2479H111.136L112.314 24.0312H118.575L119.885 27.2479H123.5L117.553 12.5771V12.5761ZM108.517 15.3226H103.88V27.2489H100.528V15.3235H96.0227V12.5771H108.517V15.3235V15.3226ZM91.6483 19.9776C91.6483 22.8808 90.0504 24.9176 87.4305 24.9176C84.8106 24.9176 83.2135 23.0347 83.2135 19.9776C83.2135 17.0744 84.9425 15.0376 87.5615 15.0376C90.0504 15.0376 91.6483 17.0772 91.6483 19.9776ZM95.2892 19.9776C95.2941 18.9376 95.094 17.9069 94.7005 16.9455C94.307 15.984 93.7278 15.1109 92.9967 14.3768C92.2656 13.6427 91.3971 13.0622 90.4416 12.6691C89.4861 12.276 88.4626 12.078 87.4305 12.0867C86.3985 12.0954 85.3784 12.3105 84.4296 12.7197C83.4807 13.1288 82.6219 13.7238 81.9031 14.4701C81.1842 15.2164 80.6196 16.0991 80.2421 17.0671C79.8645 18.035 79.6815 19.0689 79.7037 20.1087C79.701 21.1289 79.8996 22.1395 80.2881 23.0817C80.6766 24.0238 81.2471 24.8788 81.9665 25.5967C82.6859 26.3146 83.5397 26.8812 84.4784 27.2635C85.4171 27.6458 86.4219 27.8362 87.4342 27.8236C88.4631 27.8342 89.4837 27.639 90.4372 27.2493C91.3906 26.8597 92.2579 26.2833 92.9888 25.5536C93.7197 24.8239 94.2997 23.9553 94.6952 22.9982C95.0907 22.0411 95.2939 21.0144 95.293 19.9776H95.2892ZM73.7578 21.8605V27.2479H70.4044V21.8614L64.5896 12.5771H68.3605L72.0014 18.6704L75.7724 12.5771H79.7018L73.7559 21.8614L73.7578 21.8605ZM60.7912 19.9776C60.7912 22.8808 59.0632 24.9176 56.5743 24.9176C53.9554 24.9176 52.2264 23.0347 52.2264 19.9776C52.3574 17.0744 53.9554 15.0376 56.5743 15.0376C59.0632 15.0376 60.7912 17.0772 60.7912 19.9776ZM64.302 19.9776C64.3035 18.4268 63.8492 16.9102 62.9966 15.6192C62.1439 14.3281 60.9311 13.3203 59.5109 12.7228C58.0907 12.1254 56.5268 11.965 55.0162 12.2619C53.5057 12.5588 52.1162 13.2997 51.023 14.3912C49.9297 15.4827 49.1816 16.8759 48.873 18.3952C48.5643 19.9145 48.709 21.4919 49.2887 22.9285C49.8684 24.3651 50.8572 25.5966 52.1304 26.4678C53.4037 27.3389 54.9043 27.8107 56.4433 27.8236C57.4725 27.8357 58.4939 27.6416 59.448 27.2525C60.4021 26.8633 61.27 26.287 62.0012 25.557C62.7324 24.827 63.3124 23.9578 63.7073 23C64.1023 22.0422 64.3045 21.0148 64.302 19.9776ZM48.0094 15.3226H43.3466V27.2489H39.9942V15.3235H35.4888V12.5771H48.0094V15.3235V15.3226ZM32.4239 19.8218C32.4239 13.8852 25.2996 9.36133 16.1314 9.36133C7.12058 9.36038 0 13.8852 0 19.6907C0 25.6529 7.12435 30.2822 16.2926 30.2822C25.1459 30.2822 32.4277 25.6529 32.4277 19.8218H32.4239ZM17.4408 28.9722C24.5652 28.5542 30.0925 24.3438 30.0925 19.4009C30.1034 17.612 29.4279 15.888 28.207 14.5892V14.7459C28.207 16.9167 25.0111 18.9563 20.3492 19.532L20.2182 19.6888C20.2182 24.187 19.3273 27.247 17.4418 28.9722H17.4408ZM4.21314 14.46C3.0058 15.7593 2.32361 17.4662 2.3003 19.2461C2.3003 24.3457 7.54199 28.4022 14.9784 28.9722C13.2239 27.3771 12.202 24.3438 12.202 19.9757V19.6907L12.0672 19.5339C7.24785 18.8281 4.05382 16.9186 4.05382 14.7478C4.04443 14.6894 4.05486 14.6295 4.08343 14.5778C4.112 14.5261 4.15703 14.4856 4.21125 14.4628L4.21314 14.46ZM18.4618 17.3632V17.2064C18.0169 14.5911 17.3098 13.2829 16.1304 13.2829C15.1085 13.2829 14.2449 14.7478 13.799 17.2064L14.0875 17.3632H18.4618ZM18.7503 19.8218C18.6193 23.3263 17.5973 25.784 16.2879 25.784C14.8209 25.784 13.7999 23.3254 13.6689 19.8218H13.7999C14.5334 19.8218 15.3979 19.9785 16.4198 19.9785C17.2001 20.0159 17.9819 19.9633 18.7503 19.8218Z" fill="url(#paint0_linear_4564_4308)"/>
</g>
<defs>
<linearGradient id="paint0_linear_4564_4308" x1="6.9011e-07" y1="19.8218" x2="123.5" y2="19.8218" gradientUnits="userSpaceOnUse">
<stop stop-color="#950F23"/>
<stop offset="1" stop-color="#00459C"/>
</linearGradient>
<clipPath id="clip0_4564_4308">
<rect width="124" height="38" fill="white"/>
</clipPath>
</defs>
</svg>
