<svg width="210" height="38" viewBox="0 0 210 38" fill="none" xmlns="http://www.w3.org/2000/svg">
<g clip-path="url(#clip0_1559_1221)">
<path fill-rule="evenodd" clip-rule="evenodd" d="M35.924 13.4759C39.0203 10.3796 39.0203 5.38333 35.924 2.32222C32.8277 -0.774074 27.8314 -0.774074 24.7703 2.32222C21.674 5.41852 16.6777 5.41852 13.6165 2.32222C10.5203 -0.774074 5.52396 -0.774074 2.46285 2.32222C-0.633449 5.41852 -0.633449 10.4148 2.46285 13.4759C5.55914 16.5722 10.5554 16.5722 13.6165 13.4759C16.7128 10.3796 21.7091 10.3796 24.7703 13.4759C27.8665 16.5722 27.8665 21.5685 24.7703 24.6296C21.674 27.6907 21.674 32.7222 24.7703 35.7833C27.8665 38.8444 32.8628 38.8796 35.924 35.7833C39.0203 32.687 39.0203 27.6907 35.924 24.6296C32.8628 21.5333 32.8628 16.537 35.924 13.4759ZM79.9407 28.8876C79.2267 28.628 79.2311 27.9193 79.2361 27.1206C79.2365 27.0534 79.237 26.9855 79.237 26.9172V3.55425H73.7129V28.7117C73.7129 30.4357 74.2055 31.7376 75.1555 32.6524L75.2258 32.7228C75.4721 32.9691 75.7536 33.145 76.0703 33.3209C76.2814 33.4265 76.4925 33.532 76.7388 33.6376C77.7944 34.0246 78.9555 34.0598 80.0814 34.0246H80.3629C80.4684 34.0246 80.574 34.0246 80.6795 33.9894C80.7851 33.9894 80.8907 33.9894 80.9962 33.9543C81.049 33.9543 81.1018 33.9455 81.1546 33.9367C81.2073 33.9279 81.2601 33.9191 81.3129 33.9191C81.3657 33.9191 81.4184 33.9103 81.4712 33.9015C81.524 33.8927 81.5768 33.8839 81.6296 33.8839C81.6823 33.8663 81.7351 33.8575 81.7879 33.8487C81.8407 33.8399 81.8934 33.8311 81.9462 33.8135C81.9814 33.8135 82.0078 33.8047 82.0342 33.7959C82.0606 33.7871 82.087 33.7783 82.1221 33.7783C82.1749 33.7607 82.2365 33.7431 82.2981 33.7256L82.2982 33.7255C82.3597 33.7079 82.4212 33.6904 82.474 33.6728C82.4916 33.6728 82.5092 33.664 82.5268 33.6552C82.5444 33.6464 82.562 33.6376 82.5796 33.6376L81.8055 28.8172C81.1721 28.9931 80.4333 29.0635 79.9407 28.8876ZM86.3796 3.87037V9.35926H91.9036V3.87037H86.3796ZM86.3796 12.0685V34.0241H91.9036V12.0685H86.3796ZM45.6703 13.5812C45.0018 15.3405 44.6851 17.0997 44.6851 18.8942C44.6851 20.7942 45.037 22.6238 45.8814 24.4534C46.5851 26.2479 47.5351 27.8664 48.8018 29.2738C50.0333 30.6812 51.5462 31.8423 53.2703 32.7219C54.9944 33.6016 56.9296 34.059 59.0055 34.059C60.1666 34.059 61.3981 33.9182 62.6296 33.6016C63.861 33.2849 65.0221 32.8275 66.1129 32.2645C67.2036 31.7016 68.1536 30.9979 69.0333 30.1534C69.9129 29.309 70.5814 28.3238 71.0388 27.2331L66.3592 24.559C66.0073 25.3682 65.5851 26.0368 65.0221 26.5997C64.4592 27.1627 63.861 27.6201 63.2277 27.9719C62.5944 28.3238 61.8907 28.5701 61.187 28.746C60.4481 28.9219 59.7795 28.9923 59.111 28.9923C57.8444 28.9923 56.6833 28.746 55.6277 28.1831C54.5721 27.6553 53.6925 26.9164 52.9184 26.0016C52.1444 25.0868 51.5814 24.0312 51.1592 22.8349C50.737 21.6386 50.5258 20.4071 50.5258 19.1053C50.5258 17.9442 50.7018 16.7831 51.0536 15.6219C51.4055 14.4608 51.9333 13.4053 52.637 12.4905C53.3407 11.5756 54.2203 10.8016 55.2758 10.2386C56.3314 9.64046 57.5629 9.35898 59.0055 9.35898C59.674 9.35898 60.3425 9.42935 61.0462 9.5701C61.7147 9.74602 62.3833 9.99231 63.0166 10.309C63.6499 10.6256 64.2129 11.0831 64.7758 11.646C65.3388 12.209 65.7962 12.9127 66.1833 13.7219L70.5462 10.696C69.5962 8.76083 68.1184 7.24787 66.1481 6.05158C64.1777 4.89047 61.8555 4.29232 59.1462 4.29232C56.8592 4.29232 54.8184 4.71453 53.024 5.55898C51.2296 6.40342 49.7166 7.52935 48.4851 8.90157C47.2536 10.2738 46.3036 11.8219 45.6703 13.5812ZM129.833 34.0246H124.309V21.8857C124.309 20.1617 124.028 18.895 123.43 18.0857C122.831 17.2765 122.022 16.8894 120.967 16.8894C119.876 16.8894 118.82 17.3117 117.87 18.1561C116.92 19.0005 116.217 20.0913 115.794 21.4283V34.0246H110.27V21.8857C110.27 20.1617 109.989 18.895 109.391 18.0857C108.793 17.2765 107.983 16.8894 106.928 16.8894C105.837 16.8894 104.817 17.3117 103.867 18.1209C102.881 18.9302 102.178 20.0209 101.791 21.3931V34.0246H96.2666V12.0691H101.263V16.3617C102.072 14.9543 103.163 13.8635 104.535 13.1246C105.943 12.3505 107.526 11.9987 109.32 11.9987C111.15 11.9987 112.557 12.4561 113.543 13.3357C114.528 14.2154 115.161 15.3061 115.443 16.608C116.322 15.1302 117.448 13.9691 118.785 13.195C120.122 12.4209 121.67 12.0339 123.43 12.0339C124.767 12.0339 125.822 12.2802 126.702 12.7728C127.546 13.2654 128.215 13.8987 128.672 14.7079C129.13 15.5172 129.446 16.432 129.657 17.4172C129.833 18.4376 129.939 19.4579 129.939 20.5135V34.0246H129.833ZM139.65 33.145C141.022 33.7431 142.57 34.0246 144.259 34.0246C146.652 34.0246 148.693 33.4968 150.381 32.4765C152.106 31.4209 153.372 30.0839 154.146 28.4654L149.467 27.1635C149.115 28.008 148.446 28.7117 147.496 29.2394C146.546 29.7672 145.526 30.0135 144.435 30.0135C143.731 30.0135 143.028 29.908 142.394 29.6617C141.726 29.4154 141.163 29.0635 140.635 28.6061C140.107 28.1487 139.685 27.5857 139.369 26.9524C139.052 26.3191 138.841 25.5802 138.77 24.7357H155.202C155.272 24.5246 155.307 24.2431 155.307 23.9265C155.343 23.6099 155.343 23.2583 155.343 22.9066V22.9061C155.343 21.4635 155.096 20.0913 154.604 18.7542C154.111 17.4524 153.372 16.2561 152.422 15.2709C151.472 14.2857 150.311 13.4765 148.939 12.8783C147.567 12.2802 146.018 11.9987 144.294 11.9987C142.57 11.9987 141.022 12.2802 139.615 12.8783C138.207 13.4765 137.046 14.2857 136.061 15.3061C135.111 16.2913 134.372 17.4876 133.844 18.8246C133.317 20.1617 133.07 21.6043 133.07 23.1172C133.07 24.595 133.352 25.9672 133.88 27.3043C134.407 28.6061 135.146 29.8024 136.131 30.7876C137.081 31.7728 138.278 32.5468 139.65 33.145ZM148.024 17.3468C149.044 18.2968 149.643 19.5987 149.783 21.182H138.735C138.806 20.408 138.981 19.6691 139.298 19.0357C139.615 18.4024 140.002 17.8394 140.494 17.382C140.987 16.9246 141.55 16.5376 142.183 16.2913C142.817 16.045 143.485 15.9043 144.224 15.9043C145.702 15.9043 146.969 16.3968 148.024 17.3468ZM158.58 18.8942C158.58 17.0997 158.896 15.3405 159.565 13.5812C160.198 11.8219 161.148 10.2738 162.38 8.90157C163.611 7.52935 165.124 6.40342 166.919 5.55898C168.713 4.71453 170.754 4.29232 173.041 4.29232C175.75 4.29232 178.072 4.89047 180.043 6.05158C182.013 7.24787 183.491 8.76083 184.441 10.696L180.078 13.7219C179.691 12.9127 179.233 12.209 178.67 11.646C178.107 11.0831 177.544 10.6256 176.911 10.309C176.278 9.99231 175.609 9.74602 174.941 9.5701C174.237 9.42935 173.569 9.35898 172.9 9.35898C171.457 9.35898 170.226 9.64046 169.17 10.2386C168.115 10.8016 167.235 11.5756 166.531 12.4905C165.828 13.4053 165.3 14.4608 164.948 15.6219C164.596 16.7831 164.42 17.9442 164.42 19.1053C164.42 20.4071 164.631 21.6386 165.054 22.8349C165.476 24.0312 166.039 25.0868 166.813 26.0016C167.587 26.9164 168.467 27.6553 169.522 28.1831C170.578 28.746 171.739 28.9923 173.006 28.9923C173.674 28.9923 174.343 28.9219 175.081 28.746C175.785 28.5701 176.489 28.3238 177.122 27.9719C177.756 27.6201 178.354 27.1627 178.917 26.5997C179.48 26.0368 179.902 25.3682 180.254 24.559L184.933 27.2331C184.476 28.3238 183.807 29.309 182.928 30.1534C182.048 30.9979 181.098 31.7016 180.007 32.2645C178.917 32.8275 177.756 33.2849 176.524 33.6016C175.293 33.9182 174.061 34.059 172.9 34.059C170.789 34.059 168.889 33.6016 167.165 32.7219C165.441 31.8423 163.928 30.6812 162.696 29.2738C161.43 27.8664 160.48 26.2479 159.776 24.4534C158.931 22.6238 158.58 20.7942 158.58 18.8942ZM193.483 33.2852C194.891 33.8833 196.474 34.2 198.233 34.2C199.993 34.2 201.576 33.8833 202.983 33.2852C204.391 32.687 205.587 31.8426 206.537 30.8222C207.487 29.8019 208.226 28.6056 208.754 27.2685C209.281 25.8963 209.528 24.4889 209.528 23.0111C209.528 21.4981 209.281 20.0556 208.754 18.7185C208.226 17.3815 207.487 16.1852 206.502 15.1648C205.517 14.1093 204.32 13.3 202.948 12.7019C201.576 12.1037 199.993 11.787 198.233 11.787C196.474 11.787 194.891 12.1037 193.483 12.7019C192.111 13.3 190.915 14.1444 189.93 15.1648C188.944 16.1852 188.205 17.3815 187.678 18.7185C187.15 20.0556 186.904 21.4981 186.904 23.0111C186.904 24.4889 187.15 25.9315 187.678 27.2685C188.205 28.6056 188.944 29.8019 189.93 30.8222C190.88 31.8778 192.076 32.687 193.483 33.2852ZM193.026 25.6148C192.744 24.8407 192.604 23.9611 192.604 23.0111C192.604 22.0963 192.744 21.2167 193.026 20.4074C193.307 19.5981 193.73 18.8944 194.222 18.3315C194.715 17.7333 195.313 17.2759 196.017 16.9593C196.685 16.6426 197.424 16.4667 198.233 16.4667C199.007 16.4667 199.746 16.6074 200.45 16.9241C201.154 17.2407 201.752 17.6981 202.244 18.2611C202.737 18.8593 203.159 19.5278 203.441 20.337C203.722 21.1463 203.863 21.9907 203.863 22.9407C203.863 23.8907 203.722 24.7704 203.441 25.5796C203.159 26.3889 202.737 27.0926 202.244 27.6556C201.752 28.2185 201.118 28.6759 200.45 28.9926C199.781 29.3093 199.043 29.45 198.233 29.45C197.459 29.45 196.72 29.3093 196.017 28.9926C195.313 28.6759 194.715 28.2185 194.222 27.6556C193.73 27.0926 193.307 26.3889 193.026 25.6148ZM15.9388 30.1883C15.9388 34.5412 12.4101 38.0698 8.05732 38.0698C3.7045 38.0698 0.175844 34.5412 0.175844 30.1883C0.175844 25.8355 3.7045 22.3069 8.05732 22.3069C12.4101 22.3069 15.9388 25.8355 15.9388 30.1883ZM37.7184 36.2056C37.5777 36.1 37.4017 36.0648 37.2258 36.0648C37.0499 36.0648 36.874 36.1 36.7332 36.2056C36.5573 36.3111 36.4517 36.4167 36.3462 36.5926C36.2406 36.7333 36.2054 36.9093 36.2054 37.0852C36.2054 37.2611 36.2406 37.4018 36.3462 37.5778C36.4517 37.7537 36.5573 37.8593 36.7332 37.9648C36.874 38.0704 37.0499 38.1056 37.2258 38.1056C37.4017 38.1056 37.5425 38.0704 37.7184 37.9648C37.8943 37.8593 37.9999 37.7537 38.1054 37.5778C38.211 37.437 38.2462 37.2611 38.2462 37.0852C38.2462 36.9093 38.211 36.7685 38.1054 36.5926C37.9999 36.4167 37.8943 36.2759 37.7184 36.2056ZM36.8388 36.3815C36.9443 36.3111 37.0851 36.2759 37.2258 36.2759C37.3666 36.2759 37.5073 36.3111 37.6128 36.3815C37.7536 36.4519 37.8591 36.5574 37.9295 36.6981C37.9999 36.8389 38.0351 36.9796 38.0351 37.1204C38.0351 37.2963 37.9999 37.4019 37.9295 37.5426C37.9205 37.5546 37.9118 37.5663 37.9033 37.5778C37.8115 37.7011 37.7416 37.7949 37.6128 37.8593C37.5073 37.9296 37.3666 37.9648 37.2258 37.9648C37.0851 37.9648 36.9795 37.9648 36.8388 37.8593C36.8268 37.8503 36.8151 37.8416 36.8036 37.833C36.6803 37.7412 36.5865 37.6714 36.5221 37.5426C36.4517 37.4019 36.4166 37.2611 36.4166 37.1204C36.4166 36.9796 36.4517 36.8389 36.5221 36.6981C36.5311 36.6862 36.5398 36.6744 36.5484 36.6629C36.6402 36.5397 36.71 36.4459 36.8388 36.3815ZM36.9795 36.5574H36.7684V37.613V37.6481H36.9795V37.1907H37.0499C37.0851 37.1907 37.1554 37.1907 37.1906 37.2259C37.2124 37.2477 37.2341 37.2829 37.2642 37.3315C37.2827 37.3615 37.3045 37.3967 37.3314 37.437L37.4369 37.613H37.7184L37.5777 37.4018L37.5073 37.2611L37.4369 37.1907C37.4369 37.1907 37.4017 37.1556 37.3666 37.1556C37.4721 37.1556 37.5425 37.1204 37.5777 37.05L37.5777 37.05C37.6129 36.9796 37.648 36.9092 37.648 36.8389C37.648 36.8037 37.648 36.7333 37.6128 36.6981L37.5073 36.5926C37.4927 36.5926 37.4721 36.5866 37.448 36.5795C37.4138 36.5695 37.3726 36.5574 37.3314 36.5574H36.9795ZM37.0851 37.0148H36.9795V36.8037H37.0851H37.3314C37.3666 36.8037 37.4017 36.8037 37.4017 36.8389C37.4369 36.8389 37.4369 36.8741 37.4369 36.9093C37.4369 36.9444 37.4017 36.9796 37.4017 36.9796C37.4017 36.9796 37.3666 37.0148 37.3314 37.0148H37.0851Z" fill="url(#paint0_linear_1559_1221)"/>
</g>
<defs>
<linearGradient id="paint0_linear_1559_1221" x1="0.140626" y1="19.0528" x2="209.528" y2="19.0528" gradientUnits="userSpaceOnUse">
<stop stop-color="#950F23"/>
<stop offset="1" stop-color="#00459C"/>
</linearGradient>
<clipPath id="clip0_1559_1221">
<rect width="209.704" height="38" fill="white"/>
</clipPath>
</defs>
</svg>
