<svg width="150" height="38" viewBox="0 0 150 38" fill="none" xmlns="http://www.w3.org/2000/svg">
<g clip-path="url(#clip0_2960_1930)">
<path fill-rule="evenodd" clip-rule="evenodd" d="M25.6996 26.2595L13.4377 33.3589V30.1083L22.8812 24.6402L22.8624 13.0347L12.792 7.24877L2.74125 13.0675L2.76003 24.6731L9.69107 28.656V19.4169H3.36632V16.335H19.3664V19.4169H12.5808V33.5615L9.69107 31.901L-0.0527457 26.3017L-0.0771484 11.4483L12.7863 4L25.6752 11.4061L25.6996 26.2595ZM41.0859 11.4648H48.8965V14.1138H46.3218V25.5829H43.5934V14.1138H41.0859V11.4648ZM64.7916 11.4648H67.5197L72.9552 25.5829H70.1595L69.0537 22.6749H63.2872L62.1375 25.5829H59.3418L64.7916 11.4648ZM66.1725 15.2079L64.2765 20.0548H68.0573L66.1725 15.2079ZM87.8071 11.4648H84.957V25.5829H87.6471V19.6036H87.8932L91.0711 25.5829H94.0118L90.664 19.3061C91.5605 18.9863 92.2314 18.5143 92.6764 17.8904C93.1215 17.2666 93.3441 16.4909 93.3441 15.563C93.3441 14.68 93.1425 13.9155 92.7395 13.2692C92.3364 12.623 91.8038 12.1607 91.1417 11.8824C90.4795 11.604 89.3679 11.4648 87.8071 11.4648ZM88.49 16.9835H87.6471V14.085H88.3846C89.0998 14.085 89.5913 14.1348 89.8595 14.2344C90.1276 14.3339 90.3415 14.4976 90.5011 14.7255C90.6607 14.9535 90.7406 15.2214 90.7406 15.5295C90.7406 16.0495 90.5794 16.4219 90.2569 16.6465C89.9344 16.8712 89.3455 16.9835 88.49 16.9835ZM104.535 11.4648H112.346V14.1138H109.771V25.5829H107.043V14.1138H104.535V11.4648ZM126.619 11.4648H123.929V25.5829H130.538V23.0204H126.619V11.4648ZM142.334 11.4648H150.049V14.0946H145.005V16.6476H150.049V19.2293H145.005V22.9436H150.049V25.5829H142.334V11.4648Z" fill="url(#paint0_linear_2960_1930)"/>
</g>
<defs>
<linearGradient id="paint0_linear_2960_1930" x1="-0.0771476" y1="18.7807" x2="150.049" y2="18.7807" gradientUnits="userSpaceOnUse">
<stop stop-color="#950F23"/>
<stop offset="1" stop-color="#00459C"/>
</linearGradient>
<clipPath id="clip0_2960_1930">
<rect width="150" height="38" fill="white"/>
</clipPath>
</defs>
</svg>
