<svg width="97" height="38" viewBox="0 0 97 38" fill="none" xmlns="http://www.w3.org/2000/svg">
<path fill-rule="evenodd" clip-rule="evenodd" d="M50.1176 11.9159C50.1365 11.8917 50.1459 11.8561 50.1459 11.809C50.1672 9.10691 50.1748 6.37365 50.1685 3.60919C50.1685 3.58335 50.1786 3.55858 50.1966 3.54031C50.2146 3.52204 50.2391 3.51178 50.2645 3.51178H55.7592C55.7871 3.51178 55.8139 3.52305 55.8337 3.54311C55.8535 3.56317 55.8646 3.59037 55.8646 3.61874V19.4606C55.8646 20.1622 55.8226 20.783 55.7384 21.3229C55.6305 22.0194 55.4196 22.5956 55.1058 23.0514C54.4643 23.9835 53.509 24.3624 52.2398 24.1879C51.4904 24.0848 50.8464 23.7664 50.3078 23.2329C50.0103 22.9375 49.6262 22.3562 49.1554 21.489C48.0645 19.4809 47.0684 17.4334 46.1671 15.3464C46.1118 15.219 46.0842 15.2248 46.0842 15.3635L46.0616 23.7467C46.0616 23.772 46.0515 23.7963 46.0335 23.8142C46.0155 23.8321 45.9911 23.8422 45.9656 23.8422L40.6159 23.8517C40.569 23.8523 40.5236 23.834 40.4895 23.8008C40.4554 23.7677 40.4352 23.7222 40.4333 23.6741C40.3893 22.3664 40.373 21.1013 40.3843 19.8789C40.4006 18.016 40.4057 16.7502 40.3994 16.0817C40.3705 13.0702 40.3925 10.0587 40.4653 7.04725C40.4841 6.25395 40.631 5.54087 40.9059 4.90801C41.098 4.46871 41.3792 4.0988 41.7495 3.79828C42.0859 3.52578 42.4933 3.34115 42.9716 3.24437C44.1629 3.00371 45.1967 3.3316 46.0729 4.22804C46.5889 4.75521 47.0364 5.40908 47.4155 6.18965C47.7971 6.97531 47.9905 7.3726 47.9955 7.38151C48.7499 8.83823 49.4209 10.3338 50.0084 11.8682C50.0398 11.9522 50.0762 11.9681 50.1176 11.9159ZM91.1649 11.9982C91.1799 11.4685 91.1511 11.0432 91.0782 10.7223C90.8774 9.82842 90.3853 9.39229 89.602 9.41394C89.2341 9.42413 88.931 9.54637 88.6925 9.78067C88.5217 9.94875 88.3918 10.1493 88.3027 10.3823C88.2399 10.5479 88.206 10.7796 88.201 11.0776C88.147 15.2835 88.1294 19.4907 88.1483 23.6991C88.1483 23.7248 88.1385 23.7495 88.1209 23.768C88.1034 23.7865 88.0794 23.7974 88.0541 23.7984C87.1402 23.8353 85.5905 23.8538 83.405 23.8538C83.0108 23.8538 82.6994 23.8264 82.471 23.7717C82.4451 23.7652 82.4221 23.7499 82.4057 23.728C82.3893 23.7062 82.3805 23.6792 82.3806 23.6513C82.3291 16.9981 82.3567 12.6884 82.4634 10.7223C82.5187 9.69853 82.7597 8.68176 83.1865 7.67199C83.6246 6.63547 84.1826 5.77723 84.8605 5.09726C86.2464 3.70675 88.0209 3.08026 90.1838 3.21778C91.3839 3.29419 92.4535 3.64372 93.3925 4.26639C94.2461 4.83176 94.9767 5.64353 95.5843 6.70169C96.4254 8.16605 96.8484 9.79276 96.8535 11.5818C96.8635 15.5929 96.8685 19.6485 96.8685 23.7488C96.8685 23.7766 96.8576 23.8033 96.8382 23.823C96.8188 23.8427 96.7924 23.8538 96.765 23.8538L91.3287 23.8423C91.2867 23.8423 91.2465 23.825 91.2168 23.7942C91.1872 23.7634 91.1705 23.7216 91.1705 23.6781L91.1385 17.5392C91.1385 17.5129 91.1286 17.4876 91.1109 17.469C91.0933 17.4504 91.0693 17.4399 91.0444 17.4399L88.8657 17.4074C88.8406 17.4069 88.8166 17.3967 88.799 17.3788C88.7814 17.3609 88.7716 17.3369 88.7716 17.3119V12.3153C88.7716 12.2604 88.7931 12.2077 88.8316 12.1687C88.87 12.1297 88.9222 12.1076 88.9768 12.1071L91.0669 12.0975C91.0925 12.097 91.1168 12.0865 91.135 12.068C91.1532 12.0495 91.1639 12.0246 91.1649 11.9982ZM14.5802 35.1691L14.5444 12.3576C14.5444 12.3322 14.5542 12.3079 14.5715 12.29C14.5888 12.2721 14.6122 12.2621 14.6367 12.2621L19.911 12.2506C19.9455 12.2506 19.9785 12.2369 20.0029 12.2126C20.0273 12.1882 20.041 12.1552 20.041 12.1207L20.0297 3.40714C20.0297 3.37168 20.0156 3.33767 19.9905 3.3126C19.9654 3.28752 19.9314 3.27344 19.896 3.27344H0.0828669C0.0698823 3.27344 0.0574294 3.27867 0.0482479 3.28798C0.0390664 3.2973 0.0339084 3.30993 0.0339084 3.3231L1.40537e-05 12.1207C-0.00023561 12.1377 0.00284345 12.1545 0.00907181 12.1703C0.0153002 12.186 0.0245536 12.2004 0.0362938 12.2124C0.0480339 12.2245 0.0620264 12.2341 0.0774571 12.2407C0.0928878 12.2472 0.109449 12.2506 0.126176 12.2506L5.36661 12.2391C5.39158 12.2391 5.41553 12.249 5.43319 12.2666C5.45084 12.2841 5.46076 12.3079 5.46076 12.3327L5.49466 35.1939C5.49466 35.2355 5.51093 35.2753 5.53988 35.3047C5.56884 35.3341 5.60811 35.3506 5.64907 35.3506L14.39 35.362C14.415 35.362 14.4397 35.357 14.4628 35.3473C14.4859 35.3377 14.5069 35.3234 14.5245 35.3055C14.5422 35.2876 14.5562 35.2663 14.5657 35.2429C14.5753 35.2195 14.5802 35.1945 14.5802 35.1691ZM34.1269 26.4307C35.5003 26.432 36.873 26.4364 38.2451 26.4441C38.2706 26.4441 38.295 26.4541 38.313 26.472C38.331 26.49 38.3411 26.5142 38.3411 26.5396L38.3185 35.2302C38.3185 35.2559 38.3085 35.2806 38.2906 35.2992C38.2727 35.3177 38.2483 35.3286 38.2225 35.3296C36.0533 35.3894 33.884 35.3811 31.7148 35.3047C31.3558 35.292 30.9986 35.2608 30.6434 35.2111C30.3207 35.1666 29.9667 35.1118 29.5813 35.0469C26.4781 34.5299 24.3371 32.8325 23.1584 29.9547C22.5897 28.5655 22.2859 26.9139 22.247 25.0001C22.1666 21.0209 22.1397 17.0416 22.166 13.0624C22.1861 9.94264 22.183 6.74525 22.1566 3.47017C22.1564 3.44443 22.1611 3.41889 22.1707 3.39503C22.1802 3.37117 22.1943 3.34947 22.2122 3.33117C22.23 3.31288 22.2513 3.29836 22.2747 3.28845C22.2982 3.27854 22.3233 3.27344 22.3487 3.27344H31.1367C31.1652 3.27344 31.1925 3.28511 31.2126 3.30589C31.2327 3.32666 31.244 3.35484 31.244 3.38422C31.2215 9.94328 31.2346 16.4641 31.2836 22.9468C31.2899 23.9082 31.3878 24.5939 31.5773 25.0039C32.0142 25.9538 32.8641 26.4294 34.1269 26.4307ZM58.357 3.51172H63.9194C63.9693 3.51172 64.0098 3.55277 64.0098 3.6034V23.7619C64.0098 23.8125 63.9693 23.8536 63.9194 23.8536H58.357C58.3071 23.8536 58.2666 23.8125 58.2666 23.7619V3.6034C58.2666 3.55277 58.3071 3.51172 58.357 3.51172ZM72.3509 10.2771C72.617 10.2567 72.8216 10.1542 72.9647 9.96955C73.3037 9.53279 73.5623 8.98779 73.7405 8.33456C74.1636 6.77724 74.6011 5.20146 75.053 3.60722C75.0611 3.57974 75.0775 3.55562 75.0999 3.53843C75.1223 3.52123 75.1494 3.51187 75.1773 3.51172L80.896 3.52318C80.9071 3.52337 80.918 3.52611 80.9279 3.53119C80.9378 3.53627 80.9464 3.54354 80.9529 3.55244C80.9595 3.56134 80.9639 3.57161 80.9658 3.58244C80.9677 3.59328 80.967 3.60438 80.9638 3.61486C80.2934 5.79612 79.566 7.95764 78.7814 10.0994C78.6144 10.554 78.465 10.8876 78.3332 11.1003C78.1349 11.4212 77.897 11.7013 77.6196 11.9407C77.5242 12.0222 77.5373 12.0776 77.6591 12.1069C79.0073 12.4278 79.8396 13.2714 80.156 14.6377C80.3116 15.31 80.3939 16.1536 80.4027 17.1685C80.4215 19.3523 80.4372 21.5361 80.4497 23.7199C80.4497 23.7462 80.4398 23.7715 80.4222 23.7901C80.4045 23.8088 80.3806 23.8192 80.3556 23.8192L74.8609 23.8517C74.8388 23.8517 74.8168 23.8471 74.7964 23.8383C74.7759 23.8294 74.7574 23.8165 74.7418 23.8001C74.7262 23.7838 74.7139 23.7644 74.7056 23.7431C74.6973 23.7218 74.6931 23.699 74.6933 23.676C74.7172 21.1993 74.7021 18.8073 74.6482 16.5C74.6394 16.1358 74.49 15.8442 74.2 15.6252C73.9941 15.4673 73.7104 15.3699 73.3489 15.3329C73.0363 15.2998 72.7011 15.2935 72.3433 15.3138C72.3174 15.3153 72.2929 15.3268 72.2751 15.346C72.2572 15.3652 72.2473 15.3906 72.2473 15.417L72.2134 23.7237C72.2129 23.7492 72.2026 23.7735 72.1846 23.7914C72.1667 23.8092 72.1425 23.8192 72.1174 23.8192L66.619 23.8517C66.576 23.8517 66.5348 23.8342 66.5045 23.803C66.4741 23.7719 66.457 23.7296 66.457 23.6855L66.4928 3.60913C66.4928 3.58329 66.5029 3.55852 66.5209 3.54025C66.5389 3.52198 66.5634 3.51172 66.5888 3.51172H72.076C72.1081 3.51171 72.1389 3.52453 72.1618 3.5474C72.1847 3.57028 72.1979 3.60137 72.1983 3.63396L72.2586 10.1854C72.2589 10.1982 72.2616 10.2108 72.2664 10.2224C72.2713 10.2341 72.2783 10.2445 72.2869 10.2531C72.2956 10.2617 72.3057 10.2683 72.3167 10.2724C72.3277 10.2765 72.3393 10.2781 72.3509 10.2771ZM40.252 26.4219H96.9012V35.3665H40.252V26.4219ZM46.9605 33.7166C47.1386 33.8223 47.3334 33.8752 47.5449 33.8752H51.2265C51.438 33.8752 51.6328 33.8223 51.8109 33.7166C51.989 33.6109 52.1309 33.4717 52.2366 33.2992C52.3424 33.1211 52.3953 32.9263 52.3953 32.7148V30.4691H49.9242V31.5794H51.2849V32.6647C51.2849 32.6925 51.2738 32.7176 51.2515 32.7399C51.2293 32.7565 51.2042 32.7649 51.1764 32.7649H47.5866C47.5588 32.7649 47.5338 32.7565 47.5115 32.7399C47.4948 32.7176 47.4865 32.6925 47.4865 32.6647V29.0749C47.4865 29.0471 47.4948 29.0249 47.5115 29.0082C47.5338 28.9859 47.5588 28.9748 47.5866 28.9748H51.1764C51.2042 28.9748 51.2293 28.9859 51.2515 29.0082C51.2738 29.0249 51.2849 29.0471 51.2849 29.0749V29.4924H52.3953V29.0249C52.3953 28.8134 52.3424 28.6214 52.2366 28.4488C52.1309 28.2707 51.989 28.1288 51.8109 28.0231C51.6328 27.9173 51.438 27.8644 51.2265 27.8644H47.5449C47.3334 27.8644 47.1386 27.9173 46.9605 28.0231C46.788 28.1288 46.6488 28.2707 46.5431 28.4488C46.4373 28.6214 46.3845 28.8134 46.3845 29.0249V32.7148C46.3845 32.9263 46.4373 33.1211 46.5431 33.2992C46.6488 33.4717 46.788 33.6109 46.9605 33.7166ZM59.0533 31.8172L60.7776 33.8752H61.9798V33.5663L60.4957 31.8139L60.8277 31.8132C61.0392 31.8132 61.234 31.7631 61.4121 31.6629C61.5902 31.5572 61.7321 31.4153 61.8378 31.2372C61.9436 31.0591 61.9965 30.8643 61.9965 30.6528V29.0332C61.9965 28.8217 61.9436 28.6297 61.8378 28.4572C61.7321 28.2791 61.5902 28.1372 61.4121 28.0314C61.234 27.9257 61.0392 27.8728 60.8277 27.8728H55.9857V33.8752H57.0877V31.8215L59.0533 31.8172ZM60.7776 30.7029H57.1878C57.16 30.7029 57.135 30.6945 57.1127 30.6778C57.096 30.6611 57.0877 30.6389 57.0877 30.611V29.0749C57.0877 29.0471 57.096 29.0249 57.1127 29.0082C57.135 28.9859 57.16 28.9748 57.1878 28.9748H60.7776C60.8054 28.9748 60.8305 28.9859 60.8527 29.0082C60.875 29.0249 60.8861 29.0471 60.8861 29.0749V30.611C60.8861 30.6389 60.875 30.6611 60.8527 30.6778C60.8305 30.6945 60.8054 30.7029 60.7776 30.7029ZM66.6898 33.8752C66.4783 33.8752 66.2836 33.8223 66.1055 33.7166C65.9329 33.6109 65.7938 33.4717 65.688 33.2992C65.5823 33.1211 65.5294 32.9263 65.5294 32.7148V29.0249C65.5294 28.8134 65.5823 28.6214 65.688 28.4488C65.7938 28.2707 65.9329 28.1288 66.1055 28.0231C66.2836 27.9173 66.4783 27.8644 66.6898 27.8644H70.3798C70.5913 27.8644 70.7833 27.9173 70.9558 28.0231C71.1339 28.1288 71.2758 28.2707 71.3816 28.4488C71.4873 28.6214 71.5402 28.8134 71.5402 29.0249V32.7148C71.5402 32.9263 71.4873 33.1211 71.3816 33.2992C71.2758 33.4717 71.1339 33.6109 70.9558 33.7166C70.7833 33.8223 70.5913 33.8752 70.3798 33.8752H66.6898ZM66.7316 32.7649H70.3214C70.3492 32.7649 70.3742 32.7565 70.3965 32.7399C70.4187 32.7176 70.4299 32.6925 70.4299 32.6647V29.0749C70.4299 29.0471 70.4187 29.0249 70.3965 29.0082C70.3742 28.9859 70.3492 28.9748 70.3214 28.9748H66.7316C66.7038 28.9748 66.6787 28.9859 66.6564 29.0082C66.6397 29.0249 66.6314 29.0471 66.6314 29.0749V32.6647C66.6314 32.6925 66.6397 32.7176 66.6564 32.7399C66.6787 32.7565 66.7038 32.7649 66.7316 32.7649ZM75.6904 33.7166C75.8685 33.8223 76.0632 33.8752 76.2747 33.8752H79.9647C80.1762 33.8752 80.3682 33.8223 80.5407 33.7166C80.7188 33.6109 80.8607 33.4717 80.9665 33.2992C81.0722 33.1211 81.1251 32.9263 81.1251 32.7148V27.8644H80.0148V32.6647C80.0148 32.6925 80.0036 32.7176 79.9814 32.7399C79.9591 32.7565 79.9341 32.7649 79.9062 32.7649H76.3165C76.2887 32.7649 76.2636 32.7565 76.2413 32.7399C76.2246 32.7176 76.2163 32.6925 76.2163 32.6647V27.8644H75.1143V32.7148C75.1143 32.9263 75.1672 33.1211 75.2729 33.2992C75.3787 33.4717 75.5178 33.6109 75.6904 33.7166ZM84.7159 33.8752V27.8728H89.5579C89.7694 27.8728 89.9642 27.9257 90.1423 28.0314C90.3204 28.1372 90.4623 28.2791 90.5681 28.4572C90.6738 28.6297 90.7267 28.8217 90.7267 29.0332V30.6528C90.7267 30.8643 90.6738 31.0591 90.5681 31.2372C90.4623 31.4153 90.3204 31.5572 90.1423 31.6629C89.9642 31.7631 89.7694 31.8132 89.5579 31.8132L85.8179 31.8215V33.8752H84.7159ZM85.9181 30.7029H89.5078C89.5357 30.7029 89.5607 30.6945 89.583 30.6778C89.6052 30.6611 89.6164 30.6389 89.6164 30.611V29.0749C89.6164 29.0471 89.6052 29.0249 89.583 29.0082C89.5607 28.9859 89.5357 28.9748 89.5078 28.9748H85.9181C85.8903 28.9748 85.8652 28.9859 85.8429 29.0082C85.8262 29.0249 85.8179 29.0471 85.8179 29.0749V30.611C85.8179 30.6389 85.8262 30.6611 85.8429 30.6778C85.8652 30.6945 85.8903 30.7029 85.9181 30.7029Z" fill="url(#paint0_linear_2949_1903)"/>
<defs>
<linearGradient id="paint0_linear_2949_1903" x1="5.41478e-07" y1="19.2685" x2="96.9012" y2="19.2685" gradientUnits="userSpaceOnUse">
<stop stop-color="#950F23"/>
<stop offset="1" stop-color="#00459C"/>
</linearGradient>
</defs>
</svg>
