<svg width="375" height="853" viewBox="0 0 375 853" fill="none" xmlns="http://www.w3.org/2000/svg">
<g clip-path="url(#clip0_845_125818)">
<rect width="375" height="853" fill="url(#paint0_linear_845_125818)"/>
<g opacity="0.48" filter="url(#filter0_f_845_125818)">
<circle cx="254" cy="665" r="200" fill="#127AFF"/>
</g>
<g opacity="0.48" filter="url(#filter1_f_845_125818)">
<circle cx="450" cy="537" r="200" fill="#FF415C"/>
</g>
<g opacity="0.04">
<path fill-rule="evenodd" clip-rule="evenodd" d="M494.865 577.841L245.422 599.352L178.087 856.544L42.2236 856.544L175.023 509.568L573.681 460L701.805 856.545L556.589 856.545L494.865 577.841ZM329.309 667.713L294.706 856.632L439.922 856.632L404.384 659.295L329.309 667.713ZM77.0156 519.083L-13.9575 533.112L-201 856.707L-73.5534 856.707L77.0156 519.083Z" fill="url(#paint1_linear_845_125818)"/>
</g>
</g>
<defs>
<filter id="filter0_f_845_125818" x="-146" y="265" width="800" height="800" filterUnits="userSpaceOnUse" color-interpolation-filters="sRGB">
<feFlood flood-opacity="0" result="BackgroundImageFix"/>
<feBlend mode="normal" in="SourceGraphic" in2="BackgroundImageFix" result="shape"/>
<feGaussianBlur stdDeviation="100" result="effect1_foregroundBlur_845_125818"/>
</filter>
<filter id="filter1_f_845_125818" x="50" y="137" width="800" height="800" filterUnits="userSpaceOnUse" color-interpolation-filters="sRGB">
<feFlood flood-opacity="0" result="BackgroundImageFix"/>
<feBlend mode="normal" in="SourceGraphic" in2="BackgroundImageFix" result="shape"/>
<feGaussianBlur stdDeviation="100" result="effect1_foregroundBlur_845_125818"/>
</filter>
<linearGradient id="paint0_linear_845_125818" x1="375" y1="-25.8486" x2="-70.7924" y2="11.6616" gradientUnits="userSpaceOnUse">
<stop stop-color="#02102C"/>
<stop offset="1" stop-color="#112244"/>
</linearGradient>
<linearGradient id="paint1_linear_845_125818" x1="336.885" y1="660.194" x2="339.508" y2="420.05" gradientUnits="userSpaceOnUse">
<stop offset="0.325638" stop-color="white"/>
<stop offset="1" stop-color="white" stop-opacity="0"/>
</linearGradient>
<clipPath id="clip0_845_125818">
<rect width="375" height="853" fill="white"/>
</clipPath>
</defs>
</svg>
