<svg width="375" height="529" viewBox="0 0 375 529" fill="none" xmlns="http://www.w3.org/2000/svg">
<g clip-path="url(#clip0_845_123652)">
<rect width="375" height="529" fill="url(#paint0_linear_845_123652)"/>
<g opacity="0.48" filter="url(#filter0_f_845_123652)">
<circle cx="254" cy="560" r="200" fill="#127AFF"/>
</g>
<g opacity="0.48" filter="url(#filter1_f_845_123652)">
<circle cx="450" cy="432" r="200" fill="#FF415C"/>
</g>
<g opacity="0.04">
<path fill-rule="evenodd" clip-rule="evenodd" d="M494.865 245.841L245.422 267.352L178.087 524.544L42.2236 524.544L175.023 177.568L573.681 128L701.805 524.545L556.589 524.545L494.865 245.841ZM329.309 335.713L294.706 524.632L439.922 524.632L404.384 327.295L329.309 335.713ZM77.0156 187.083L-13.9575 201.112L-201 524.707L-73.5534 524.707L77.0156 187.083Z" fill="url(#paint1_linear_845_123652)"/>
<path fill-rule="evenodd" clip-rule="evenodd" d="M556.589 524.773L485.513 908.225L573.681 922.253L701.805 524.773L556.589 524.773ZM208.945 702.473L178.083 524.776L42.2202 524.776L104.879 691.25L208.945 702.473ZM439.93 524.779L384.752 899.813L-13.9052 849.309L-200.947 524.778L-73.501 524.778L33.1131 754.849L311.548 779.166L294.714 524.778L439.93 524.779Z" fill="url(#paint2_linear_845_123652)"/>
</g>
</g>
<defs>
<filter id="filter0_f_845_123652" x="-146" y="160" width="800" height="800" filterUnits="userSpaceOnUse" color-interpolation-filters="sRGB">
<feFlood flood-opacity="0" result="BackgroundImageFix"/>
<feBlend mode="normal" in="SourceGraphic" in2="BackgroundImageFix" result="shape"/>
<feGaussianBlur stdDeviation="100" result="effect1_foregroundBlur_845_123652"/>
</filter>
<filter id="filter1_f_845_123652" x="50" y="32" width="800" height="800" filterUnits="userSpaceOnUse" color-interpolation-filters="sRGB">
<feFlood flood-opacity="0" result="BackgroundImageFix"/>
<feBlend mode="normal" in="SourceGraphic" in2="BackgroundImageFix" result="shape"/>
<feGaussianBlur stdDeviation="100" result="effect1_foregroundBlur_845_123652"/>
</filter>
<linearGradient id="paint0_linear_845_123652" x1="375" y1="-16.0303" x2="-65.8335" y2="43.781" gradientUnits="userSpaceOnUse">
<stop stop-color="#02102C"/>
<stop offset="1" stop-color="#112244"/>
</linearGradient>
<linearGradient id="paint1_linear_845_123652" x1="336.885" y1="328.194" x2="339.508" y2="88.0503" gradientUnits="userSpaceOnUse">
<stop offset="0.325638" stop-color="white"/>
<stop offset="1" stop-color="white" stop-opacity="0"/>
</linearGradient>
<linearGradient id="paint2_linear_845_123652" x1="372.843" y1="987.415" x2="376.298" y2="535.486" gradientUnits="userSpaceOnUse">
<stop offset="0.0301665" stop-color="white"/>
<stop offset="1" stop-color="white" stop-opacity="0"/>
</linearGradient>
<clipPath id="clip0_845_123652">
<rect width="375" height="529" fill="white"/>
</clipPath>
</defs>
</svg>
