<svg width="57" height="57" viewBox="0 0 57 57" fill="none" xmlns="http://www.w3.org/2000/svg">
<path d="M17.7922 24.1445H8.6123V14.7222H17.7922V24.1445Z" stroke="#127AFF" stroke-width="2.7" stroke-miterlimit="10" stroke-linecap="round" stroke-linejoin="round"/>
<path d="M17.6799 28.7344C15.1449 28.7344 13.0898 26.6793 13.0898 24.1444V24.1436C13.0898 21.6087 15.1449 19.5536 17.6799 19.5536C20.2148 19.5536 22.2699 21.6087 22.2699 24.1436V24.1444C22.2699 26.6793 20.2148 28.7344 17.6799 28.7344Z" stroke="#127AFF" stroke-width="2.7" stroke-miterlimit="10" stroke-linecap="round" stroke-linejoin="round"/>
<path d="M54.377 28.8623C52.7539 26.1065 49.7272 24.2764 46.2795 24.3555C41.222 24.4719 37.2658 28.6007 37.355 33.6586C37.3957 35.9636 38.29 38.0595 39.7348 39.6452C41.6583 41.7561 42.742 44.498 42.742 47.3535H50.3356C50.3356 44.5477 51.3526 41.7271 53.2455 39.6558C53.6774 39.1832 54.0585 38.6639 54.3845 38.1082" stroke="#127AFF" stroke-width="2.7" stroke-miterlimit="10" stroke-linecap="round" stroke-linejoin="round"/>
<path d="M48.84 53.2012H44.238C43.4119 53.2012 42.7422 52.5315 42.7422 51.7054V47.3539H50.3358V51.7054C50.3358 52.5315 49.6661 53.2012 48.84 53.2012Z" stroke="#127AFF" stroke-width="2.7" stroke-miterlimit="10" stroke-linecap="round" stroke-linejoin="round"/>
<path d="M8.6123 33.9297H32.261" stroke="#127AFF" stroke-width="2.7" stroke-miterlimit="10" stroke-linecap="round" stroke-linejoin="round"/>
<path d="M13.5547 39.8105H33.7019" stroke="#127AFF" stroke-width="2.7" stroke-miterlimit="10" stroke-linecap="round" stroke-linejoin="round"/>
<path d="M27.582 16.2871H39.8245" stroke="#127AFF" stroke-width="2.7" stroke-miterlimit="10" stroke-linecap="round" stroke-linejoin="round"/>
<path d="M27.582 22.168H37.3551" stroke="#127AFF" stroke-width="2.7" stroke-miterlimit="10" stroke-linecap="round" stroke-linejoin="round"/>
<path d="M27.582 28.0488H33.4852" stroke="#127AFF" stroke-width="2.7" stroke-miterlimit="10" stroke-linecap="round" stroke-linejoin="round"/>
<path d="M2 8.76068V44.9038C2 46.2676 3.10542 47.373 4.46921 47.373L42.7414 47.3534C42.7414 44.4973 41.6578 41.7555 39.7348 39.6449C38.2892 38.0598 37.3953 35.9634 37.3551 33.6588C37.2656 28.6005 41.2218 24.4721 46.279 24.3554C46.3662 24.3532 46.4523 24.3523 46.5385 24.3543V8.76068H2Z" stroke="#127AFF" stroke-width="2.7" stroke-miterlimit="10" stroke-linecap="round" stroke-linejoin="round"/>
<path d="M46.5385 5.47064C46.5385 4.10674 45.433 3.00033 44.0694 3.00033H4.46932C3.10542 3.00033 2 4.10674 2 5.47064V8.76172H46.5385V5.47064Z" stroke="#127AFF" stroke-width="2.7" stroke-miterlimit="10" stroke-linecap="round" stroke-linejoin="round"/>
<path d="M48.6379 47.3535V36.8442C48.6379 36.4369 48.7787 36.0421 49.0364 35.7267L50.0072 34.539C50.2649 34.2237 50.4058 33.8289 50.4058 33.4216C50.4058 32.4466 49.6152 31.656 48.6402 31.656H44.5577C43.5826 31.656 42.792 32.4466 42.792 33.4216C42.792 33.8289 42.9328 34.2237 43.1906 34.539L44.1613 35.7267C44.4192 36.0421 44.5599 36.4369 44.5599 36.8442V47.3535" stroke="#127AFF" stroke-width="2.7" stroke-miterlimit="10" stroke-linecap="round" stroke-linejoin="round"/>
</svg>
