<svg width="56" height="56" viewBox="0 0 56 56" fill="none" xmlns="http://www.w3.org/2000/svg">
<path d="M38.2277 43.7949H17.7734" stroke="#127AFF" stroke-width="2.7" stroke-miterlimit="10" stroke-linecap="round" stroke-linejoin="round"/>
<path d="M38.2277 34.9668H17.7734" stroke="#127AFF" stroke-width="2.7" stroke-miterlimit="10" stroke-linecap="round" stroke-linejoin="round"/>
<mask id="mask0_1022_993" style="mask-type:luminance" maskUnits="userSpaceOnUse" x="0" y="0" width="56" height="56">
<path d="M0 3.8147e-06H56V56H0V3.8147e-06Z" fill="white"/>
</mask>
<g mask="url(#mask0_1022_993)">
<path d="M33.6546 11.0078H22.3467V2.18748H33.6546V11.0078Z" stroke="#127AFF" stroke-width="2.7" stroke-miterlimit="10" stroke-linecap="round" stroke-linejoin="round"/>
</g>
<path d="M22.6396 22.607L26.1899 26.1641L33.3601 18.98" stroke="#127AFF" stroke-width="2.7" stroke-miterlimit="10" stroke-linecap="round" stroke-linejoin="round"/>
<mask id="mask1_1022_993" style="mask-type:luminance" maskUnits="userSpaceOnUse" x="0" y="0" width="56" height="56">
<path d="M0 3.8147e-06H56V56H0V3.8147e-06Z" fill="white"/>
</mask>
<g mask="url(#mask1_1022_993)">
<path d="M47.3455 47.25C47.3455 50.8744 44.4073 53.8125 40.783 53.8125H15.2168C11.5924 53.8125 8.6543 50.8744 8.6543 47.25V14.0521C8.6543 10.4277 11.5924 7.48957 15.2168 7.48957H22.1332" stroke="#127AFF" stroke-width="2.7" stroke-miterlimit="10" stroke-linecap="round" stroke-linejoin="round"/>
<path d="M33.8623 7.48857H40.7833C44.4077 7.48857 47.3458 10.4267 47.3458 14.0511V36.3418" stroke="#127AFF" stroke-width="2.7" stroke-miterlimit="10" stroke-linecap="round" stroke-linejoin="round"/>
</g>
</svg>
