<svg width="56" height="56" viewBox="0 0 56 56" fill="none" xmlns="http://www.w3.org/2000/svg">
<g clip-path="url(#clip0_953_717)">
<mask id="mask0_953_717" style="mask-type:luminance" maskUnits="userSpaceOnUse" x="0" y="0" width="56" height="56">
<path d="M56 0H0V56H56V0Z" fill="white"/>
<path d="M8.42188 19.3594C8.42188 18.1512 9.40122 17.1719 10.6094 17.1719C11.8175 17.1719 12.7969 18.1512 12.7969 19.3594C12.7969 20.5675 11.8175 21.5469 10.6094 21.5469C9.40122 21.5469 8.42188 20.5675 8.42188 19.3594Z" fill="white"/>
<path d="M43.4219 19.3594C43.4219 18.1512 44.4012 17.1719 45.6094 17.1719C46.8175 17.1719 47.7969 18.1512 47.7969 19.3594C47.7969 20.5675 46.8175 21.5469 45.6094 21.5469C44.4012 21.5469 43.4219 20.5675 43.4219 19.3594Z" fill="white"/>
</mask>
<g mask="url(#mask0_953_717)">
<mask id="mask1_953_717" style="mask-type:luminance" maskUnits="userSpaceOnUse" x="0" y="0" width="56" height="56">
<path d="M0 3.8147e-06H56V56H0V3.8147e-06Z" fill="white"/>
</mask>
<g mask="url(#mask1_953_717)">
<path d="M36.3125 32.8125V49.4375C36.3125 51.8537 40.23 53.8125 45.0625 53.8125C49.895 53.8125 53.8125 51.8537 53.8125 49.4375V32.8125V32.4844C53.8125 30.0682 49.895 28.1094 45.0625 28.1094C40.23 28.1094 36.3125 30.0682 36.3125 32.4844C36.3125 34.9006 40.23 36.8594 45.0625 36.8594C45.1356 36.8594 45.2085 36.8589 45.2812 36.8581" stroke="#127AFF" stroke-width="2.7" stroke-miterlimit="10" stroke-linecap="round"/>
<path d="M10.3906 37.8438H8.75C5.12564 37.8438 2.1875 34.9056 2.1875 31.2812V8.75C2.1875 5.12564 5.12564 2.1875 8.75 2.1875H47.25C50.8744 2.1875 53.8125 5.12564 53.8125 8.75V21" stroke="#127AFF" stroke-width="2.7" stroke-miterlimit="10" stroke-linecap="round" stroke-linejoin="round"/>
<path d="M24.0636 28C21.4583 26.4673 19.6875 23.4606 19.6875 20.0023C19.6875 14.9885 23.4091 10.9242 28 10.9242C32.5908 10.9242 36.3125 14.9885 36.3125 20.0023C36.3125 20.11 36.3107 20.2174 36.3074 20.3243C36.2976 20.6264 36.2745 20.9248 36.2385 21.2188" stroke="#127AFF" stroke-width="2.7" stroke-miterlimit="10" stroke-linecap="round" stroke-linejoin="round"/>
<path d="M8.42188 19.3594C8.42188 18.1512 9.40122 17.1719 10.6094 17.1719C11.8175 17.1719 12.7969 18.1512 12.7969 19.3594C12.7969 20.5675 11.8175 21.5469 10.6094 21.5469C9.40122 21.5469 8.42188 20.5675 8.42188 19.3594Z" fill="#127AFF"/>
<path d="M43.4219 19.3594C43.4219 18.1512 44.4012 17.1719 45.6094 17.1719C46.8175 17.1719 47.7969 18.1512 47.7969 19.3594C47.7969 20.5675 46.8175 21.5469 45.6094 21.5469C44.4012 21.5469 43.4219 20.5675 43.4219 19.3594Z" fill="#127AFF"/>
<path d="M36.3125 40.7969C36.3125 43.2131 40.23 45.1719 45.0625 45.1719C45.1356 45.1719 45.2085 45.1714 45.2812 45.1706" stroke="#127AFF" stroke-width="2.7" stroke-miterlimit="10" stroke-linecap="round"/>
<path d="M36.3125 40.9062C36.3125 38.49 32.395 36.4219 27.5625 36.4219C22.73 36.4219 18.8125 38.3807 18.8125 40.7969C18.8125 43.2131 22.73 45.1719 27.5625 45.1719C27.6356 45.1719 27.7085 45.1714 27.7812 45.1706" stroke="#127AFF" stroke-width="2.7" stroke-miterlimit="10" stroke-linecap="round"/>
<path d="M36.3125 40.9063V49.4375C36.3125 51.8537 32.395 53.8125 27.5625 53.8125C22.73 53.8125 18.8125 51.8537 18.8125 49.4375V40.9063" stroke="#127AFF" stroke-width="2.7" stroke-miterlimit="10" stroke-linecap="round"/>
</g>
</g>
</g>
<defs>
<clipPath id="clip0_953_717">
<rect width="56" height="56" fill="white"/>
</clipPath>
</defs>
</svg>
