<svg width="56" height="56" viewBox="0 0 56 56" fill="none" xmlns="http://www.w3.org/2000/svg">
<mask id="mask0_1023_1127" style="mask-type:luminance" maskUnits="userSpaceOnUse" x="0" y="0" width="56" height="56">
<path d="M0 3.8147e-06H56V56H0V3.8147e-06Z" fill="white"/>
</mask>
<g mask="url(#mask0_1023_1127)">
<path d="M35.7656 27.8906C35.7656 32.1191 32.3378 35.5469 28.1094 35.5469C23.8809 35.5469 20.4531 32.1191 20.4531 27.8906C20.4531 23.6622 23.8809 20.2344 28.1094 20.2344C32.3378 20.2344 35.7656 23.6622 35.7656 27.8906Z" stroke="#127AFF" stroke-width="2.7" stroke-miterlimit="10" stroke-linecap="round" stroke-linejoin="round"/>
<path d="M44.5344 42.3083C46.6421 43.4958 49.3171 42.7565 50.5091 40.657C51.7013 38.5575 50.9592 35.8928 48.8516 34.7052L48.7164 34.6285C47.2777 33.8114 46.4665 32.2032 46.6911 30.5639C46.8072 29.7167 46.8672 28.8518 46.8672 27.9727C46.8672 27.0465 46.8003 26.136 46.6715 25.2456C46.4336 23.6022 47.2512 21.9849 48.6952 21.1649L48.8516 21.076C50.9592 19.8885 51.7013 17.2238 50.5091 15.1242C49.3171 13.0248 46.6421 12.2855 44.5344 13.473L44.3426 13.5819C42.882 14.4114 41.0725 14.2441 39.7612 13.1942C38.3169 12.038 36.6996 11.0892 34.9541 10.3927C33.4009 9.77294 32.375 8.27866 32.375 6.60643V6.56257C32.375 4.14625 30.4162 2.18757 28 2.18757C25.5838 2.18757 23.625 4.14625 23.625 6.56257C23.625 8.24246 22.5898 9.74188 21.0263 10.3565C19.261 11.0503 17.6254 12.0021 16.1655 13.1651C14.8546 14.2095 13.0485 14.3721 11.5911 13.5443L11.4657 13.473C9.35801 12.2855 6.68302 13.0248 5.49084 15.1242C4.29865 17.2238 5.04087 19.8885 7.14852 21.076L7.18363 21.096C8.64138 21.924 9.46618 23.5578 9.22348 25.2166C9.09179 26.1162 9.02343 27.0365 9.02343 27.9727C9.02343 28.8695 9.08599 29.7517 9.20685 30.6152C9.43654 32.2562 8.62301 33.8678 7.18221 34.686L7.14852 34.7052C5.04087 35.8928 4.29865 38.5575 5.49084 40.657C6.68302 42.7565 9.3579 43.4958 11.4656 42.3083" stroke="#127AFF" stroke-width="2.7" stroke-miterlimit="10" stroke-linecap="round" stroke-linejoin="round"/>
<path d="M16.0781 53.8125C16.0781 47.6829 21.053 42.6562 27.1899 42.6562H29.2476C35.3845 42.6562 40.3594 47.6829 40.3594 53.8125" stroke="#127AFF" stroke-width="2.7" stroke-miterlimit="10" stroke-linecap="round" stroke-linejoin="round"/>
</g>
</svg>
