<svg width="56" height="56" viewBox="0 0 56 56" fill="none" xmlns="http://www.w3.org/2000/svg">
<g clip-path="url(#clip0_1022_834)">
<path d="M30.4658 30.5703L37.8486 28.1094L30.4658 25.6484L28.0049 18.2656L25.5439 25.6484L18.1611 28.1094L25.5439 30.5703L28.0049 37.9531L30.4658 30.5703Z" stroke="#127AFF" stroke-width="2.7" stroke-miterlimit="10" stroke-linecap="round" stroke-linejoin="round"/>
<mask id="mask0_1022_834" style="mask-type:luminance" maskUnits="userSpaceOnUse" x="0" y="0" width="56" height="56">
<path d="M0 3.8147e-06H56V56H0V3.8147e-06Z" fill="white"/>
</mask>
<g mask="url(#mask0_1022_834)">
<path d="M10.6689 10.6641L14.7705 8.20312L10.6689 5.74219L8.20801 1.64062L5.74707 5.74219L1.64551 8.20312L5.74707 10.6641L8.20801 14.7656L10.6689 10.6641Z" stroke="#127AFF" stroke-width="2.7" stroke-miterlimit="10" stroke-linecap="round" stroke-linejoin="round"/>
<path d="M50.2627 10.6641L54.3643 8.20312L50.2627 5.74219L47.8018 1.64062L45.3408 5.74219L41.2393 8.20312L45.3408 10.6641L47.8018 14.7656L50.2627 10.6641Z" stroke="#127AFF" stroke-width="2.7" stroke-miterlimit="10" stroke-linecap="round" stroke-linejoin="round"/>
<path d="M50.2627 50.2578L54.3643 47.7969L50.2627 45.3359L47.8018 41.2344L45.3408 45.3359L41.2393 47.7969L45.3408 50.2578L47.8018 54.3594L50.2627 50.2578Z" stroke="#127AFF" stroke-width="2.7" stroke-miterlimit="10" stroke-linecap="round" stroke-linejoin="round"/>
<path d="M10.6689 50.2578L14.7705 47.7969L10.6689 45.3359L8.20801 41.2344L5.74707 45.3359L1.64551 47.7969L5.74707 50.2578L8.20801 54.3594L10.6689 50.2578Z" stroke="#127AFF" stroke-width="2.7" stroke-miterlimit="10" stroke-linecap="round" stroke-linejoin="round"/>
</g>
<path d="M39.6062 39.709L34.9658 35.0686" stroke="#127AFF" stroke-width="2.7" stroke-miterlimit="10" stroke-linecap="round" stroke-linejoin="round"/>
<path d="M21.0446 21.1484L16.4043 16.5081" stroke="#127AFF" stroke-width="2.7" stroke-miterlimit="10" stroke-linecap="round" stroke-linejoin="round"/>
<path d="M16.4033 39.709L21.0437 35.0686" stroke="#127AFF" stroke-width="2.7" stroke-miterlimit="10" stroke-linecap="round" stroke-linejoin="round"/>
<path d="M34.9658 21.1484L39.6062 16.5081" stroke="#127AFF" stroke-width="2.7" stroke-miterlimit="10" stroke-linecap="round" stroke-linejoin="round"/>
<mask id="mask1_1022_834" style="mask-type:luminance" maskUnits="userSpaceOnUse" x="0" y="0" width="56" height="56">
<path d="M0 3.8147e-06H56V56H0V3.8147e-06Z" fill="white"/>
</mask>
<g mask="url(#mask1_1022_834)">
<path d="M28.0049 51.0781V44.5156" stroke="#127AFF" stroke-width="2.7" stroke-miterlimit="10" stroke-linecap="round" stroke-linejoin="round"/>
<path d="M28.0049 11.7031V5.14062" stroke="#127AFF" stroke-width="2.7" stroke-miterlimit="10" stroke-linecap="round" stroke-linejoin="round"/>
<path d="M5.03613 28.1094H11.5986" stroke="#127AFF" stroke-width="2.7" stroke-miterlimit="10" stroke-linecap="round" stroke-linejoin="round"/>
<path d="M44.4111 28.1094H50.9736" stroke="#127AFF" stroke-width="2.7" stroke-miterlimit="10" stroke-linecap="round" stroke-linejoin="round"/>
</g>
</g>
<defs>
<clipPath id="clip0_1022_834">
<rect width="56" height="56" fill="white"/>
</clipPath>
</defs>
</svg>
