<svg width="57" height="56" viewBox="0 0 57 56" fill="none" xmlns="http://www.w3.org/2000/svg">
<g clip-path="url(#clip0_952_458)">
<path d="M6.15578 10.3116C8.45095 10.3116 10.3116 8.45095 10.3116 6.15578C10.3116 3.86061 8.45095 2 6.15578 2C3.86061 2 2 3.86061 2 6.15578C2 8.45095 3.86061 10.3116 6.15578 10.3116Z" stroke="#127AFF" stroke-width="2.7" stroke-miterlimit="10"/>
<path d="M6.15578 24.6885C8.45095 24.6885 10.3116 22.8279 10.3116 20.5327C10.3116 18.2376 8.45095 16.377 6.15578 16.377C3.86061 16.377 2 18.2376 2 20.5327C2 22.8279 3.86061 24.6885 6.15578 24.6885Z" stroke="#127AFF" stroke-width="2.7" stroke-miterlimit="10"/>
<path d="M6.15578 39.0655C8.45095 39.0655 10.3116 37.2049 10.3116 34.9097C10.3116 32.6145 8.45095 30.7539 6.15578 30.7539C3.86061 30.7539 2 32.6145 2 34.9097C2 37.2049 3.86061 39.0655 6.15578 39.0655Z" stroke="#127AFF" stroke-width="2.7" stroke-miterlimit="10"/>
<path d="M6.15578 53.4424C8.45095 53.4424 10.3116 51.5818 10.3116 49.2866C10.3116 46.9915 8.45095 45.1309 6.15578 45.1309C3.86061 45.1309 2 46.9915 2 49.2866C2 51.5818 3.86061 53.4424 6.15578 53.4424Z" stroke="#127AFF" stroke-width="2.7" stroke-miterlimit="10"/>
<path d="M30.5503 17.5733C32.8455 17.5733 34.7061 15.7127 34.7061 13.4175C34.7061 11.1223 32.8455 9.26172 30.5503 9.26172C28.2551 9.26172 26.3945 11.1223 26.3945 13.4175C26.3945 15.7127 28.2551 17.5733 30.5503 17.5733Z" stroke="#127AFF" stroke-width="2.7" stroke-miterlimit="10"/>
<path d="M30.5503 31.9502C32.8455 31.9502 34.7061 30.0896 34.7061 27.7945C34.7061 25.4993 32.8455 23.6387 30.5503 23.6387C28.2551 23.6387 26.3945 25.4993 26.3945 27.7945C26.3945 30.0896 28.2551 31.9502 30.5503 31.9502Z" stroke="#127AFF" stroke-width="2.7" stroke-miterlimit="10"/>
<path d="M50.5611 31.9502C52.8562 31.9502 54.7168 30.0896 54.7168 27.7945C54.7168 25.4993 52.8562 23.6387 50.5611 23.6387C48.2659 23.6387 46.4053 25.4993 46.4053 27.7945C46.4053 30.0896 48.2659 31.9502 50.5611 31.9502Z" stroke="#127AFF" stroke-width="2.7" stroke-miterlimit="10"/>
<path d="M30.5503 46.3272C32.8455 46.3272 34.7061 44.4666 34.7061 42.1714C34.7061 39.8762 32.8455 38.0156 30.5503 38.0156C28.2551 38.0156 26.3945 39.8762 26.3945 42.1714C26.3945 44.4666 28.2551 46.3272 30.5503 46.3272Z" stroke="#127AFF" stroke-width="2.7" stroke-miterlimit="10"/>
<path d="M10.3115 6.15625L26.3941 27.7956" stroke="#127AFF" stroke-width="2.7" stroke-miterlimit="10"/>
<path d="M10.3115 20.5312L26.3941 42.1707" stroke="#127AFF" stroke-width="2.7" stroke-miterlimit="10"/>
<path d="M10.3115 49.286L26.3941 27.7949" stroke="#127AFF" stroke-width="2.7" stroke-miterlimit="10"/>
<path d="M10.3115 34.9089L26.3941 13.418" stroke="#127AFF" stroke-width="2.7" stroke-miterlimit="10"/>
<path d="M34.7061 27.7949H46.4055" stroke="#127AFF" stroke-width="2.7" stroke-miterlimit="10"/>
<path d="M34.7061 13.418L46.4055 27.7947" stroke="#127AFF" stroke-width="2.7" stroke-miterlimit="10"/>
<path d="M34.7061 42.1718L46.4055 27.7949" stroke="#127AFF" stroke-width="2.7" stroke-miterlimit="10"/>
</g>
<defs>
<clipPath id="clip0_952_458">
<rect width="56.7168" height="55.4424" fill="white"/>
</clipPath>
</defs>
</svg>
