<svg width="56" height="56" viewBox="0 0 56 56" fill="none" xmlns="http://www.w3.org/2000/svg">
<path d="M43.3125 32.8125V45.0625C43.3125 49.895 39.395 53.8125 34.5625 53.8125H12.6875C7.85498 53.8125 3.9375 49.895 3.9375 45.0625V10.9375C3.9375 6.10498 7.85498 2.1875 12.6875 2.1875H26.7275" stroke="#127AFF" stroke-width="2.7" stroke-miterlimit="10" stroke-linecap="round" stroke-linejoin="round"/>
<path d="M12.6875 15.3125H21.4375" stroke="#127AFF" stroke-width="2.7" stroke-miterlimit="10" stroke-linecap="round" stroke-linejoin="round"/>
<path d="M12.6875 24.0625H21.4375" stroke="#127AFF" stroke-width="2.7" stroke-miterlimit="10" stroke-linecap="round" stroke-linejoin="round"/>
<path d="M21.4375 40.6875L25.8125 45.0625L34.5625 36.3125" stroke="#127AFF" stroke-width="2.7" stroke-miterlimit="10" stroke-linecap="round" stroke-linejoin="round"/>
<path d="M52.0625 6.5625V9.8875C52.0625 15.8813 48.6936 21.3938 43.3125 24.0625C37.9314 21.3939 34.5625 15.8813 34.5625 9.8875V6.5625C34.5625 6.5625 38.5001 2.1875 43.3125 2.1875C48.1249 2.1875 52.0625 6.5625 52.0625 6.5625Z" stroke="#127AFF" stroke-width="2.7" stroke-miterlimit="10" stroke-linecap="round" stroke-linejoin="round"/>
</svg>
