<svg width="56" height="56" viewBox="0 0 56 56" fill="none" xmlns="http://www.w3.org/2000/svg">
<path d="M21.4375 23.625H17.0625C14.6463 23.625 12.6875 25.5838 12.6875 28C12.6875 30.4162 14.6463 32.375 17.0625 32.375C19.4787 32.375 21.4375 34.3338 21.4375 36.75C21.4375 39.1662 19.4787 41.125 17.0625 41.125H12.6875" stroke="#127AFF" stroke-width="2.7" stroke-miterlimit="10" stroke-linecap="round" stroke-linejoin="round"/>
<path d="M17.0625 19.25V23.625" stroke="#127AFF" stroke-width="2.7" stroke-miterlimit="10" stroke-linecap="round" stroke-linejoin="round"/>
<path d="M17.0625 41.125V45.5" stroke="#127AFF" stroke-width="2.7" stroke-miterlimit="10" stroke-linecap="round" stroke-linejoin="round"/>
<path d="M17.0625 6.5625C17.0625 4.1463 15.1037 2.1875 12.6875 2.1875H3.9375" stroke="#127AFF" stroke-width="2.7" stroke-miterlimit="10" stroke-linecap="round" stroke-linejoin="round"/>
<path d="M38.9375 49.6453L50.0076 42.7185C51.3344 41.8884 52.0625 40.4632 52.0625 39.0056C52.0625 38.2129 51.8471 37.4105 51.3957 36.689L35.1509 10.7275C34.5101 9.70334 33.5148 9.03594 32.4237 8.7847L20.3648 6.00855C19.2736 5.75742 18.0867 5.92247 17.0625 6.5633" stroke="#127AFF" stroke-width="2.7" stroke-miterlimit="10" stroke-linecap="round" stroke-linejoin="round"/>
<path d="M28.9061 16.5939L20.1561 7.84394C19.3644 7.05217 18.2707 6.5625 17.0625 6.5625C15.8543 6.5625 14.7606 7.05217 13.9689 7.84394L5.21894 16.5939C4.42717 17.3856 3.9375 18.4793 3.9375 19.6875V49.4375C3.9375 51.8537 5.8963 53.8125 8.3125 53.8125H25.8125C28.2287 53.8125 30.1875 51.8537 30.1875 49.4375V19.6875C30.1875 18.4793 29.6978 17.3856 28.9061 16.5939Z" stroke="#127AFF" stroke-width="2.7" stroke-miterlimit="10" stroke-linecap="round" stroke-linejoin="round"/>
</svg>
