<svg width="56" height="56" viewBox="0 0 56 56" fill="none" xmlns="http://www.w3.org/2000/svg">
<g clip-path="url(#clip0_953_919)">
<path d="M1.64062 11.1465V47.5367H37.8038V37.916" stroke="#127AFF" stroke-width="2.7" stroke-miterlimit="10" stroke-linecap="round" stroke-linejoin="round"/>
<path d="M11.6201 1.64062H37.8036V13.0517" stroke="#127AFF" stroke-width="2.7" stroke-miterlimit="10" stroke-linecap="round" stroke-linejoin="round"/>
<path d="M11.6203 1.64062L1.64062 11.1462H11.6203V1.64062Z" stroke="#127AFF" stroke-width="2.7" stroke-miterlimit="10" stroke-linecap="round" stroke-linejoin="round"/>
<path d="M15.9746 47.5449V54.3601H50.7198V48.694" stroke="#127AFF" stroke-width="2.7" stroke-miterlimit="10" stroke-linecap="round" stroke-linejoin="round"/>
<path d="M37.7988 4.89453H50.7193V39.3154" stroke="#127AFF" stroke-width="2.7" stroke-miterlimit="10" stroke-linecap="round" stroke-linejoin="round"/>
<path d="M8.75684 27.9992L15.9748 23.293" stroke="#127AFF" stroke-width="2.7" stroke-miterlimit="10" stroke-linecap="round" stroke-linejoin="round"/>
<path d="M29.5514 37.3604C37.0497 37.3604 43.1283 31.2951 43.1283 23.813C43.1283 16.331 37.0497 10.2656 29.5514 10.2656C22.0532 10.2656 15.9746 16.331 15.9746 23.813C15.9746 31.2951 22.0532 37.3604 29.5514 37.3604Z" stroke="#127AFF" stroke-width="2.7" stroke-miterlimit="10" stroke-linecap="round" stroke-linejoin="round"/>
<path d="M35.75 35.87L47.4076 47.5023C48.998 49.0892 51.5766 49.0892 53.167 47.5023C54.7574 45.9154 54.7574 43.3423 53.167 41.7554L41.5484 30.1621" stroke="#127AFF" stroke-width="2.7" stroke-miterlimit="10" stroke-linecap="round" stroke-linejoin="round"/>
<path d="M41.127 41.2391L46.8863 35.4922" stroke="#127AFF" stroke-width="2.7" stroke-miterlimit="10" stroke-linecap="round" stroke-linejoin="round"/>
<path d="M17.3164 29.6936L26.9479 23.2871L30.3127 27.9418L36.445 23.2871" stroke="#127AFF" stroke-width="2.7" stroke-miterlimit="10" stroke-linecap="round" stroke-linejoin="round"/>
</g>
<defs>
<clipPath id="clip0_953_919">
<rect width="56" height="56" fill="white"/>
</clipPath>
</defs>
</svg>
