<svg width="136" height="147" viewBox="0 0 136 147" fill="none" xmlns="http://www.w3.org/2000/svg">
<g clip-path="url(#clip0_4_25)">
<path d="M135.606 37.0656V109.933L68.1708 146.367L0.735352 109.933V37.0656L68.1708 0.631836L135.606 37.0656Z" fill="white"/>
<path d="M67.9867 146.998L67.7295 146.858L0 110.266V36.7496L0.289913 36.5958L67.9867 0L68.2439 0.140193L135.973 36.7496V110.285L67.9867 146.998ZM1.10249 109.598L67.9867 145.734L134.871 109.598V37.4002L67.9867 1.26446L1.10249 37.4002V109.598Z" fill="#112244"/>
<path d="M132.298 39.0472V107.951L67.9865 142.405L3.6748 107.951V39.0472L67.9865 4.59375L132.298 39.0472Z" fill="#112244"/>
<path d="M132.298 53.2871H3.6748V93.7116H132.298V53.2871Z" fill="#112244"/>
<path d="M126.052 41.8023V105.197L68.1716 136.892L10.291 105.197V41.8023L68.1716 10.1064L126.052 41.8023Z" fill="white" stroke="#112244" stroke-width="0.272219" stroke-miterlimit="10"/>
<path d="M130.462 56.9619H5.51367V90.0365H130.462V56.9619Z" fill="#112244"/>
<path d="M19.2939 93.7114H116.68" stroke="#112244" stroke-width="0.13611" stroke-miterlimit="10"/>
<path d="M19.2939 53.2871H116.68" stroke="#112244" stroke-width="0.13611" stroke-miterlimit="10"/>
<path d="M54.7909 64.6792H51.4834V81.9515H54.7909V64.6792Z" fill="white"/>
<path d="M65.4487 76.8064C65.4487 79.4961 62.9019 79.7098 62.1887 79.7098C60.4028 79.7098 59.9359 78.1363 59.9359 77.1889V70.5586H57.3633V77.1739C57.3633 78.8427 57.8887 80.2202 58.866 81.1363C59.8284 81.9857 61.0779 82.4362 62.3615 82.3927C63.4559 82.3654 64.5231 82.0428 65.4487 81.4589V81.9516H68.3888V70.5586H65.4487V76.8064Z" fill="white"/>
<path d="M74.6355 66.5166H71.3278V70.5593H69.4902V72.7644H71.3278V81.9524H74.6355V72.7644H76.8406V70.5593H74.6355V66.5166Z" fill="white"/>
<path d="M86.3623 78.7846C85.6668 79.3523 84.7942 79.6558 83.8959 79.6408C81.801 79.6408 80.2642 78.2034 80.2642 76.2297C80.2642 74.256 81.7343 72.8812 83.8959 72.8812C84.797 72.8649 85.6749 73.163 86.38 73.7224L86.836 74.0899L88.8642 72.1938L88.3565 71.7678C87.0974 70.7292 85.5089 70.1698 83.8768 70.1915C80.1172 70.1915 77.3867 72.7315 77.3867 76.2188C77.3867 79.7062 80.1839 82.3196 83.8768 82.3196C85.517 82.3455 87.1123 81.7806 88.3714 80.7284L88.8601 80.2983L86.802 78.4022L86.361 78.7846H86.3623Z" fill="white"/>
<path d="M99.6759 71.6317C98.696 70.7837 97.4329 70.3359 96.1371 70.3781C95.0237 70.3645 93.9335 70.6898 93.0093 71.3118V64.6792H90.0693V81.9515H93.0093V75.9613C93.0093 73.2718 95.3722 73.054 96.0854 73.054C97.8711 73.054 98.1542 74.6302 98.1542 75.5789V81.9515H101.094V75.5938C101.094 73.9251 100.668 72.5504 99.6759 71.6317Z" fill="white"/>
<path d="M83.7788 78.2955C84.9785 78.2955 85.9511 77.3839 85.9511 76.2593C85.9511 75.1348 84.9785 74.2231 83.7788 74.2231C82.579 74.2231 81.6064 75.1348 81.6064 76.2593C81.6064 77.3839 82.579 78.2955 83.7788 78.2955Z" fill="#C6D0DB"/>
<path d="M47.8556 77.9415C46.6878 79.0467 45.1348 79.6565 43.5259 79.6388C40.1749 79.6388 37.7386 77.1765 37.7386 73.7956C37.7386 70.4146 40.1749 67.9374 43.5259 67.9374C45.1252 67.9293 46.6687 68.5322 47.8406 69.6211L48.2966 70.0512L50.3069 68.1702L49.8659 67.7401C48.155 66.1217 45.8806 65.2343 43.5259 65.2629C38.5906 65.2629 34.8789 68.9378 34.8789 73.8106C34.8789 78.6833 38.6056 82.3188 43.5259 82.3188C45.8888 82.346 48.17 81.4504 49.8836 79.8239L50.3246 79.3979L48.3292 77.4869L47.8556 77.9428V77.9415Z" fill="white"/>
<path d="M61.0249 19.3787V18.8045H65.0339V19.3787H63.3531V24.1499H62.7058V19.3787H61.0249ZM70.3206 21.4772C70.3206 22.041 70.2188 22.5282 70.0152 22.9388C69.8116 23.3495 69.5324 23.6662 69.1774 23.8889C68.8224 24.1116 68.417 24.223 67.9611 24.223C67.5052 24.223 67.0998 24.1116 66.7448 23.8889C66.3899 23.6662 66.1106 23.3495 65.907 22.9388C65.7034 22.5282 65.6016 22.041 65.6016 21.4772C65.6016 20.9134 65.7034 20.4262 65.907 20.0156C66.1106 19.6049 66.3899 19.2882 66.7448 19.0655C67.0998 18.8428 67.5052 18.7314 67.9611 18.7314C68.417 18.7314 68.8224 18.8428 69.1774 19.0655C69.5324 19.2882 69.8116 19.6049 70.0152 20.0156C70.2188 20.4262 70.3206 20.9134 70.3206 21.4772ZM69.6942 21.4772C69.6942 21.0144 69.6168 20.6237 69.4619 20.3053C69.3088 19.9869 69.1008 19.7459 68.8381 19.5823C68.5771 19.4187 68.2848 19.337 67.9611 19.337C67.6375 19.337 67.3443 19.4187 67.0815 19.5823C66.8205 19.7459 66.6126 19.9869 66.4577 20.3053C66.3046 20.6237 66.228 21.0144 66.228 21.4772C66.228 21.9401 66.3046 22.3307 66.4577 22.6491C66.6126 22.9675 66.8205 23.2085 67.0815 23.3721C67.3443 23.5357 67.6375 23.6175 67.9611 23.6175C68.2848 23.6175 68.5771 23.5357 68.8381 23.3721C69.1008 23.2085 69.3088 22.9675 69.4619 22.6491C69.6168 22.3307 69.6942 21.9401 69.6942 21.4772ZM71.409 24.1499V18.8045H73.2151C73.6345 18.8045 73.9773 18.8802 74.2435 19.0316C74.5115 19.1812 74.7098 19.3839 74.8386 19.6397C74.9674 19.8955 75.0317 20.1809 75.0317 20.4958C75.0317 20.8108 74.9674 21.097 74.8386 21.3545C74.7116 21.6121 74.515 21.8174 74.2487 21.9705C73.9825 22.1219 73.6415 22.1976 73.2256 22.1976H71.931V21.6234H73.2047C73.4918 21.6234 73.7224 21.5738 73.8964 21.4746C74.0704 21.3754 74.1965 21.2414 74.2748 21.0726C74.3549 20.9021 74.3949 20.7099 74.3949 20.4958C74.3949 20.2818 74.3549 20.0904 74.2748 19.9216C74.1965 19.7528 74.0695 19.6206 73.8938 19.5249C73.718 19.4274 73.4849 19.3787 73.1943 19.3787H72.0563V24.1499H71.409Z" fill="#112244"/>
<path d="M48.3577 36.3994H47.6791L49.6419 31.054H50.3101L52.2728 36.3994H51.5942L49.9969 31.8997H49.9551L48.3577 36.3994ZM48.6083 34.3114H51.3437V34.8856H48.6083V34.3114ZM53.1054 36.3994V31.054H54.9116C55.3292 31.054 55.672 31.1254 55.94 31.268C56.2079 31.409 56.4063 31.603 56.535 31.8501C56.6638 32.0972 56.7282 32.3782 56.7282 32.6931C56.7282 33.0081 56.6638 33.2874 56.535 33.531C56.4063 33.7746 56.2088 33.966 55.9426 34.1052C55.6763 34.2426 55.3362 34.3114 54.922 34.3114H53.4604V33.7267H54.9012C55.1865 33.7267 55.4162 33.685 55.5902 33.6014C55.766 33.5179 55.893 33.3996 55.9713 33.2465C56.0513 33.0916 56.0913 32.9072 56.0913 32.6931C56.0913 32.4791 56.0513 32.2921 55.9713 32.132C55.8912 31.9719 55.7633 31.8483 55.5876 31.7613C55.4119 31.6726 55.1796 31.6282 54.8907 31.6282H53.7527V36.3994H53.1054ZM55.6215 33.9982L56.937 36.3994H56.1853L54.8907 33.9982H55.6215ZM57.5145 31.6282V31.054H61.5235V31.6282H59.8426V36.3994H59.1953V31.6282H57.5145ZM63.1698 31.054V36.3994H62.5225V31.054H63.1698ZM64.4677 36.3994V31.054H67.6728V31.6282H65.115V33.4344H67.4327V34.0086H65.115V36.3994H64.4677ZM69.4287 31.054V36.3994H68.7814V31.054H69.4287ZM75.0279 32.7245H74.3806C74.3424 32.5383 74.2754 32.3747 74.1797 32.2338C74.0857 32.0928 73.9709 31.9745 73.8351 31.8788C73.7012 31.7814 73.5524 31.7083 73.3888 31.6596C73.2253 31.6108 73.0547 31.5865 72.8773 31.5865C72.5536 31.5865 72.2604 31.6683 71.9977 31.8318C71.7367 31.9954 71.5287 32.2364 71.3739 32.5548C71.2207 32.8732 71.1442 33.2639 71.1442 33.7267C71.1442 34.1896 71.2207 34.5802 71.3739 34.8986C71.5287 35.2171 71.7367 35.4581 71.9977 35.6216C72.2604 35.7852 72.5536 35.867 72.8773 35.867C73.0547 35.867 73.2253 35.8426 73.3888 35.7939C73.5524 35.7452 73.7012 35.6729 73.8351 35.5772C73.9709 35.4798 74.0857 35.3606 74.1797 35.2197C74.2754 35.077 74.3424 34.9134 74.3806 34.729H75.0279C74.9792 35.0022 74.8905 35.2466 74.7617 35.4624C74.633 35.6782 74.4729 35.8617 74.2815 36.0131C74.0901 36.1628 73.8752 36.2767 73.6368 36.355C73.4001 36.4333 73.147 36.4725 72.8773 36.4725C72.4214 36.4725 72.0159 36.3611 71.661 36.1384C71.306 35.9157 71.0267 35.599 70.8231 35.1883C70.6196 34.7777 70.5178 34.2905 70.5178 33.7267C70.5178 33.1629 70.6196 32.6757 70.8231 32.2651C71.0267 31.8544 71.306 31.5378 71.661 31.315C72.0159 31.0923 72.4214 30.9809 72.8773 30.9809C73.147 30.9809 73.4001 31.0201 73.6368 31.0984C73.8752 31.1767 74.0901 31.2915 74.2815 31.4429C74.4729 31.5926 74.633 31.7753 74.7617 31.991C74.8905 32.2051 74.9792 32.4495 75.0279 32.7245ZM76.7212 31.054V36.3994H76.0739V31.054H76.7212ZM78.2383 36.3994H77.5597L79.5225 31.054H80.1906L82.1534 36.3994H81.4748L79.8774 31.8997H79.8357L78.2383 36.3994ZM78.4889 34.3114H81.2242V34.8856H78.4889V34.3114ZM82.986 36.3994V31.054H83.6333V35.8252H86.1181V36.3994H82.986Z" fill="#112244"/>
<path d="M22.2751 43.304V48.6494H21.6278V43.304H22.2751ZM27.8116 43.304V48.6494H27.1852L24.2724 44.4524H24.2202V48.6494H23.5729V43.304H24.1993L27.1226 47.5114H27.1748V43.304H27.8116ZM28.8145 43.8782V43.304H32.8236V43.8782H31.1427V48.6494H30.4954V43.8782H28.8145ZM33.8226 48.6494V43.304H37.0486V43.8782H34.4699V45.6844H36.8816V46.2586H34.4699V48.0752H37.0904V48.6494H33.8226ZM38.2153 48.6494V43.304H38.8626V48.0752H41.3474V48.6494H38.2153ZM42.3496 48.6494V43.304H42.9969V48.0752H45.4817V48.6494H42.3496ZM47.1313 43.304V48.6494H46.484V43.304H47.1313ZM52.0832 44.9745C52.0258 44.7987 51.9501 44.6412 51.8561 44.502C51.7639 44.3611 51.6534 44.241 51.5246 44.1418C51.3976 44.0427 51.2532 43.967 51.0914 43.9148C50.9295 43.8626 50.7521 43.8365 50.5589 43.8365C50.2422 43.8365 49.9542 43.9183 49.695 44.0818C49.4357 44.2454 49.2295 44.4864 49.0764 44.8048C48.9233 45.1232 48.8467 45.5139 48.8467 45.9767C48.8467 46.4396 48.9241 46.8302 49.079 47.1486C49.2339 47.4671 49.4435 47.7081 49.708 47.8716C49.9725 48.0352 50.2701 48.117 50.6007 48.117C50.9069 48.117 51.1766 48.0517 51.4098 47.9212C51.6447 47.789 51.8274 47.6028 51.9579 47.3627C52.0901 47.1208 52.1563 46.8363 52.1563 46.5092L52.3546 46.5509H50.7468V45.9767H52.7827V46.5509C52.7827 46.9912 52.6887 47.374 52.5008 47.6994C52.3146 48.0247 52.0571 48.277 51.7282 48.4563C51.4011 48.6338 51.0252 48.7225 50.6007 48.7225C50.1274 48.7225 49.7115 48.6111 49.3531 48.3884C48.9964 48.1657 48.718 47.849 48.5178 47.4383C48.3195 47.0277 48.2203 46.5405 48.2203 45.9767C48.2203 45.5539 48.2769 45.1737 48.39 44.8361C48.5048 44.4968 48.6666 44.208 48.8754 43.9696C49.0842 43.7312 49.3313 43.5485 49.6167 43.4215C49.902 43.2945 50.2161 43.2309 50.5589 43.2309C50.8408 43.2309 51.1035 43.2736 51.3471 43.3588C51.5925 43.4424 51.8109 43.5615 52.0023 43.7164C52.1954 43.8695 52.3564 44.0531 52.4851 44.2671C52.6139 44.4794 52.7026 44.7152 52.7514 44.9745H52.0832ZM53.8913 48.6494V43.304H57.1173V43.8782H54.5386V45.6844H56.9503V46.2586H54.5386V48.0752H57.1591V48.6494H53.8913ZM62.5227 43.304V48.6494H61.8963L58.9835 44.4524H58.9313V48.6494H58.284V43.304H58.9104L61.8337 47.5114H61.8859V43.304H62.5227ZM68.1194 44.9745H67.4721C67.4338 44.7883 67.3668 44.6247 67.2711 44.4838C67.1771 44.3428 67.0623 44.2245 66.9266 44.1288C66.7926 44.0314 66.6438 43.9583 66.4802 43.9096C66.3167 43.8608 66.1462 43.8365 65.9687 43.8365C65.645 43.8365 65.3518 43.9183 65.0891 44.0818C64.8281 44.2454 64.6201 44.4864 64.4653 44.8048C64.3122 45.1232 64.2356 45.5139 64.2356 45.9767C64.2356 46.4396 64.3122 46.8302 64.4653 47.1486C64.6201 47.4671 64.8281 47.7081 65.0891 47.8716C65.3518 48.0352 65.645 48.117 65.9687 48.117C66.1462 48.117 66.3167 48.0926 66.4802 48.0439C66.6438 47.9952 66.7926 47.9229 66.9266 47.8272C67.0623 47.7298 67.1771 47.6106 67.2711 47.4697C67.3668 47.327 67.4338 47.1634 67.4721 46.979H68.1194C68.0706 47.2522 67.9819 47.4966 67.8531 47.7124C67.7244 47.9282 67.5643 48.1117 67.3729 48.2631C67.1815 48.4128 66.9666 48.5267 66.7282 48.605C66.4916 48.6833 66.2384 48.7225 65.9687 48.7225C65.5128 48.7225 65.1074 48.6111 64.7524 48.3884C64.3974 48.1657 64.1181 47.849 63.9146 47.4383C63.711 47.0277 63.6092 46.5405 63.6092 45.9767C63.6092 45.4129 63.711 44.9257 63.9146 44.5151C64.1181 44.1044 64.3974 43.7878 64.7524 43.565C65.1074 43.3423 65.5128 43.2309 65.9687 43.2309C66.2384 43.2309 66.4916 43.2701 66.7282 43.3484C66.9666 43.4267 67.1815 43.5415 67.3729 43.6929C67.5643 43.8426 67.7244 44.0253 67.8531 44.241C67.9819 44.4551 68.0706 44.6995 68.1194 44.9745ZM69.1653 48.6494V43.304H72.3914V43.8782H69.8126V45.6844H72.2243V46.2586H69.8126V48.0752H72.4331V48.6494H69.1653ZM79.9266 44.9745H79.2793C79.241 44.7883 79.174 44.6247 79.0783 44.4838C78.9844 44.3428 78.8695 44.2245 78.7338 44.1288C78.5998 44.0314 78.451 43.9583 78.2875 43.9096C78.1239 43.8608 77.9534 43.8365 77.7759 43.8365C77.4523 43.8365 77.1591 43.9183 76.8963 44.0818C76.6353 44.2454 76.4274 44.4864 76.2725 44.8048C76.1194 45.1232 76.0428 45.5139 76.0428 45.9767C76.0428 46.4396 76.1194 46.8302 76.2725 47.1486C76.4274 47.4671 76.6353 47.7081 76.8963 47.8716C77.1591 48.0352 77.4523 48.117 77.7759 48.117C77.9534 48.117 78.1239 48.0926 78.2875 48.0439C78.451 47.9952 78.5998 47.9229 78.7338 47.8272C78.8695 47.7298 78.9844 47.6106 79.0783 47.4697C79.174 47.327 79.241 47.1634 79.2793 46.979H79.9266C79.8779 47.2522 79.7891 47.4966 79.6604 47.7124C79.5316 47.9282 79.3715 48.1117 79.1801 48.2631C78.9887 48.4128 78.7738 48.5267 78.5354 48.605C78.2988 48.6833 78.0456 48.7225 77.7759 48.7225C77.32 48.7225 76.9146 48.6111 76.5596 48.3884C76.2047 48.1657 75.9254 47.849 75.7218 47.4383C75.5182 47.0277 75.4164 46.5405 75.4164 45.9767C75.4164 45.4129 75.5182 44.9257 75.7218 44.5151C75.9254 44.1044 76.2047 43.7878 76.5596 43.565C76.9146 43.3423 77.32 43.2309 77.7759 43.2309C78.0456 43.2309 78.2988 43.2701 78.5354 43.3484C78.7738 43.4267 78.9887 43.5415 79.1801 43.6929C79.3715 43.8426 79.5316 44.0253 79.6604 44.241C79.7891 44.4551 79.8779 44.6995 79.9266 44.9745ZM85.4827 45.9767C85.4827 46.5405 85.381 47.0277 85.1774 47.4383C84.9738 47.849 84.6945 48.1657 84.3395 48.3884C83.9846 48.6111 83.5791 48.7225 83.1233 48.7225C82.6674 48.7225 82.2619 48.6111 81.907 48.3884C81.552 48.1657 81.2727 47.849 81.0691 47.4383C80.8656 47.0277 80.7638 46.5405 80.7638 45.9767C80.7638 45.4129 80.8656 44.9257 81.0691 44.5151C81.2727 44.1044 81.552 43.7878 81.907 43.565C82.2619 43.3423 82.6674 43.2309 83.1233 43.2309C83.5791 43.2309 83.9846 43.3423 84.3395 43.565C84.6945 43.7878 84.9738 44.1044 85.1774 44.5151C85.381 44.9257 85.4827 45.4129 85.4827 45.9767ZM84.8563 45.9767C84.8563 45.5139 84.7789 45.1232 84.624 44.8048C84.4709 44.4864 84.263 44.2454 84.0002 44.0818C83.7392 43.9183 83.4469 43.8365 83.1233 43.8365C82.7996 43.8365 82.5064 43.9183 82.2437 44.0818C81.9827 44.2454 81.7747 44.4864 81.6199 44.8048C81.4667 45.1232 81.3902 45.5139 81.3902 45.9767C81.3902 46.4396 81.4667 46.8302 81.6199 47.1486C81.7747 47.4671 81.9827 47.7081 82.2437 47.8716C82.5064 48.0352 82.7996 48.117 83.1233 48.117C83.4469 48.117 83.7392 48.0352 84.0002 47.8716C84.263 47.7081 84.4709 47.4671 84.624 47.1486C84.7789 46.8302 84.8563 46.4396 84.8563 45.9767ZM86.5711 43.304H87.3437L89.1603 47.7411H89.223L91.0396 43.304H91.8121V48.6494H91.2066V44.5882H91.1544L89.484 48.6494H88.8993L87.2289 44.5882H87.1767V48.6494H86.5711V43.304ZM93.11 48.6494V43.304H94.9161C95.3355 43.304 95.6783 43.3797 95.9445 43.5311C96.2125 43.6807 96.4108 43.8835 96.5396 44.1392C96.6684 44.395 96.7327 44.6804 96.7327 44.9953C96.7327 45.3103 96.6684 45.5965 96.5396 45.854C96.4126 46.1116 96.2159 46.3169 95.9497 46.47C95.6835 46.6214 95.3424 46.6971 94.9266 46.6971H93.632V46.1229H94.9057C95.1928 46.1229 95.4234 46.0733 95.5974 45.9741C95.7714 45.8749 95.8975 45.7409 95.9758 45.5722C96.0559 45.4016 96.0959 45.2094 96.0959 44.9953C96.0959 44.7813 96.0559 44.5899 95.9758 44.4211C95.8975 44.2523 95.7705 44.1201 95.5948 44.0244C95.419 43.927 95.1858 43.8782 94.8953 43.8782H93.7573V48.6494H93.11ZM97.4492 48.6494H96.7706L98.7333 43.304H99.4015L101.364 48.6494H100.686L99.0883 44.1497H99.0465L97.4492 48.6494ZM97.6998 46.5614H100.435V47.1356H97.6998V46.5614ZM106.436 43.304V48.6494H105.809L102.896 44.4524H102.844V48.6494H102.197V43.304H102.823L105.747 47.5114H105.799V43.304H106.436ZM107.271 43.304H108.013L109.495 45.7992H109.558L111.04 43.304H111.782L109.85 46.4465V48.6494H109.203V46.4465L107.271 43.304Z" fill="#112244"/>
<path d="M53.2381 105.135V99.7894H55.1069C55.4793 99.7894 55.7864 99.8538 56.0283 99.9825C56.2701 100.11 56.4502 100.281 56.5685 100.497C56.6869 100.711 56.746 100.948 56.746 101.209C56.746 101.439 56.7051 101.629 56.6234 101.778C56.5433 101.928 56.4372 102.046 56.3049 102.133C56.1744 102.22 56.0326 102.285 55.8795 102.326V102.379C56.0431 102.389 56.2075 102.446 56.3728 102.551C56.5381 102.655 56.6764 102.805 56.7878 103C56.8992 103.195 56.9548 103.433 56.9548 103.715C56.9548 103.983 56.8939 104.224 56.7721 104.438C56.6503 104.652 56.4581 104.822 56.1953 104.947C55.9326 105.072 55.5906 105.135 55.1696 105.135H53.2381ZM53.8854 104.561H55.1696C55.5924 104.561 55.8925 104.479 56.07 104.315C56.2492 104.15 56.3389 103.95 56.3389 103.715C56.3389 103.534 56.2927 103.367 56.2005 103.214C56.1083 103.059 55.9769 102.935 55.8064 102.843C55.6359 102.749 55.434 102.702 55.2009 102.702H53.8854V104.561ZM53.8854 102.138H55.086C55.2809 102.138 55.4567 102.1 55.6133 102.024C55.7716 101.947 55.8969 101.839 55.9891 101.7C56.0831 101.561 56.1301 101.397 56.1301 101.209C56.1301 100.974 56.0483 100.775 55.8847 100.612C55.7211 100.446 55.4619 100.364 55.1069 100.364H53.8854V102.138ZM62.5286 102.462C62.5286 103.026 62.4268 103.513 62.2232 103.924C62.0196 104.334 61.7404 104.651 61.3854 104.874C61.0304 105.096 60.625 105.208 60.1691 105.208C59.7132 105.208 59.3078 105.096 58.9528 104.874C58.5979 104.651 58.3186 104.334 58.115 103.924C57.9114 103.513 57.8096 103.026 57.8096 102.462C57.8096 101.898 57.9114 101.411 58.115 101C58.3186 100.59 58.5979 100.273 58.9528 100.05C59.3078 99.8277 59.7132 99.7163 60.1691 99.7163C60.625 99.7163 61.0304 99.8277 61.3854 100.05C61.7404 100.273 62.0196 100.59 62.2232 101C62.4268 101.411 62.5286 101.898 62.5286 102.462ZM61.9022 102.462C61.9022 101.999 61.8248 101.609 61.6699 101.29C61.5168 100.972 61.3088 100.731 61.0461 100.567C60.7851 100.404 60.4928 100.322 60.1691 100.322C59.8455 100.322 59.5523 100.404 59.2895 100.567C59.0285 100.731 58.8206 100.972 58.6657 101.29C58.5126 101.609 58.436 101.999 58.436 102.462C58.436 102.925 58.5126 103.316 58.6657 103.634C58.8206 103.952 59.0285 104.193 59.2895 104.357C59.5523 104.521 59.8455 104.602 60.1691 104.602C60.4928 104.602 60.7851 104.521 61.0461 104.357C61.3088 104.193 61.5168 103.952 61.6699 103.634C61.8248 103.316 61.9022 102.925 61.9022 102.462ZM66.5403 101.126C66.5089 100.861 66.3819 100.656 66.1592 100.51C65.9365 100.364 65.6633 100.291 65.3396 100.291C65.103 100.291 64.8959 100.329 64.7184 100.405C64.5427 100.482 64.4052 100.587 64.306 100.721C64.2086 100.855 64.1599 101.007 64.1599 101.178C64.1599 101.321 64.1938 101.443 64.2617 101.546C64.3313 101.647 64.42 101.731 64.5279 101.799C64.6358 101.865 64.7489 101.92 64.8672 101.964C64.9855 102.005 65.0943 102.039 65.1935 102.065L65.7364 102.212C65.8756 102.248 66.0304 102.299 66.2009 102.363C66.3732 102.427 66.5376 102.515 66.6942 102.627C66.8526 102.736 66.9831 102.877 67.0858 103.049C67.1884 103.222 67.2398 103.433 67.2398 103.684C67.2398 103.972 67.1641 104.233 67.0127 104.467C66.863 104.7 66.6438 104.885 66.3549 105.023C66.0678 105.16 65.719 105.229 65.3083 105.229C64.9255 105.229 64.594 105.167 64.3139 105.043C64.0355 104.92 63.8162 104.748 63.6561 104.527C63.4978 104.306 63.4082 104.049 63.3873 103.757H64.0555C64.0729 103.959 64.1407 104.126 64.2591 104.258C64.3791 104.388 64.5305 104.486 64.7132 104.55C64.8977 104.613 65.096 104.644 65.3083 104.644C65.5554 104.644 65.7773 104.604 65.9739 104.524C66.1705 104.442 66.3262 104.329 66.4411 104.185C66.5559 104.039 66.6133 103.868 66.6133 103.673C66.6133 103.496 66.5637 103.351 66.4646 103.24C66.3654 103.129 66.2349 103.038 66.0731 102.968C65.9112 102.899 65.7364 102.838 65.5484 102.786L64.8907 102.598C64.4731 102.478 64.1425 102.306 63.8989 102.084C63.6553 101.861 63.5335 101.569 63.5335 101.209C63.5335 100.91 63.6144 100.649 63.7762 100.426C63.9398 100.202 64.159 100.028 64.4339 99.9042C64.7106 99.7789 65.0195 99.7163 65.3605 99.7163C65.705 99.7163 66.0113 99.7781 66.2793 99.9016C66.5472 100.023 66.7595 100.19 66.9161 100.403C67.0744 100.615 67.158 100.856 67.1667 101.126H66.5403ZM68.0117 100.364V99.7894H72.0207V100.364H70.3398V105.135H69.6926V100.364H68.0117ZM77.3074 102.462C77.3074 103.026 77.2056 103.513 77.002 103.924C76.7984 104.334 76.5191 104.651 76.1642 104.874C75.8092 105.096 75.4038 105.208 74.9479 105.208C74.492 105.208 74.0866 105.096 73.7316 104.874C73.3766 104.651 73.0974 104.334 72.8938 103.924C72.6902 103.513 72.5884 103.026 72.5884 102.462C72.5884 101.898 72.6902 101.411 72.8938 101C73.0974 100.59 73.3766 100.273 73.7316 100.05C74.0866 99.8277 74.492 99.7163 74.9479 99.7163C75.4038 99.7163 75.8092 99.8277 76.1642 100.05C76.5191 100.273 76.7984 100.59 77.002 101C77.2056 101.411 77.3074 101.898 77.3074 102.462ZM76.681 102.462C76.681 101.999 76.6035 101.609 76.4487 101.29C76.2956 100.972 76.0876 100.731 75.8249 100.567C75.5639 100.404 75.2715 100.322 74.9479 100.322C74.6242 100.322 74.3311 100.404 74.0683 100.567C73.8073 100.731 73.5994 100.972 73.4445 101.29C73.2914 101.609 73.2148 101.999 73.2148 102.462C73.2148 102.925 73.2914 103.316 73.4445 103.634C73.5994 103.952 73.8073 104.193 74.0683 104.357C74.3311 104.521 74.6242 104.602 74.9479 104.602C75.2715 104.602 75.5639 104.521 75.8249 104.357C76.0876 104.193 76.2956 103.952 76.4487 103.634C76.6035 103.316 76.681 102.925 76.681 102.462ZM82.6345 99.7894V105.135H82.0081L79.0953 100.938H79.0431V105.135H78.3958V99.7894H79.0222L81.9455 103.997H81.9977V99.7894H82.6345Z" fill="#112244"/>
<path d="M59.2418 117.385V116.915L61.0062 114.984C61.2133 114.757 61.3838 114.561 61.5178 114.394C61.6518 114.225 61.7509 114.067 61.8153 113.919C61.8814 113.769 61.9145 113.612 61.9145 113.449C61.9145 113.261 61.8693 113.098 61.7788 112.961C61.69 112.823 61.5682 112.717 61.4134 112.642C61.2585 112.567 61.0845 112.53 60.8914 112.53C60.686 112.53 60.5068 112.573 60.3537 112.658C60.2023 112.741 60.0849 112.859 60.0013 113.01C59.9196 113.162 59.8787 113.339 59.8787 113.543H59.2627C59.2627 113.23 59.3349 112.955 59.4793 112.718C59.6237 112.481 59.8204 112.297 60.0692 112.165C60.3198 112.032 60.6008 111.966 60.9122 111.966C61.2254 111.966 61.503 112.032 61.7449 112.165C61.9867 112.297 62.1764 112.475 62.3138 112.7C62.4513 112.924 62.52 113.174 62.52 113.449C62.52 113.645 62.4844 113.838 62.413 114.026C62.3434 114.212 62.2216 114.42 62.0476 114.649C61.8754 114.877 61.6361 115.156 61.3299 115.485L60.1292 116.769V116.811H62.614V117.385H59.2418ZM65.4355 117.458C65.0422 117.458 64.7073 117.351 64.4306 117.137C64.1539 116.921 63.9425 116.609 63.7964 116.2C63.6502 115.789 63.5771 115.293 63.5771 114.712C63.5771 114.134 63.6502 113.641 63.7964 113.232C63.9443 112.822 64.1565 112.508 64.4332 112.293C64.7116 112.075 65.0457 111.966 65.4355 111.966C65.8252 111.966 66.1585 112.075 66.4351 112.293C66.7135 112.508 66.9258 112.822 67.072 113.232C67.2199 113.641 67.2938 114.134 67.2938 114.712C67.2938 115.293 67.2207 115.789 67.0746 116.2C66.9284 116.609 66.717 116.921 66.4403 117.137C66.1637 117.351 65.8287 117.458 65.4355 117.458ZM65.4355 116.884C65.8252 116.884 66.128 116.696 66.3438 116.32C66.5595 115.944 66.6674 115.408 66.6674 114.712C66.6674 114.249 66.6178 113.855 66.5186 113.53C66.4212 113.204 66.2803 112.956 66.0958 112.786C65.9131 112.615 65.693 112.53 65.4355 112.53C65.0492 112.53 64.7473 112.721 64.5298 113.102C64.3123 113.481 64.2035 114.018 64.2035 114.712C64.2035 115.175 64.2522 115.568 64.3497 115.892C64.4471 116.215 64.5872 116.462 64.7699 116.63C64.9543 116.799 65.1762 116.884 65.4355 116.884ZM68.2856 117.385V116.915L70.05 114.984C70.2571 114.757 70.4276 114.561 70.5616 114.394C70.6956 114.225 70.7948 114.067 70.8592 113.919C70.9253 113.769 70.9583 113.612 70.9583 113.449C70.9583 113.261 70.9131 113.098 70.8226 112.961C70.7339 112.823 70.6121 112.717 70.4572 112.642C70.3023 112.567 70.1283 112.53 69.9352 112.53C69.7299 112.53 69.5507 112.573 69.3975 112.658C69.2461 112.741 69.1287 112.859 69.0452 113.01C68.9634 113.162 68.9225 113.339 68.9225 113.543H68.3065C68.3065 113.23 68.3787 112.955 68.5232 112.718C68.6676 112.481 68.8642 112.297 69.113 112.165C69.3636 112.032 69.6446 111.966 69.9561 111.966C70.2693 111.966 70.5468 112.032 70.7887 112.165C71.0306 112.297 71.2202 112.475 71.3577 112.7C71.4951 112.924 71.5639 113.174 71.5639 113.449C71.5639 113.645 71.5282 113.838 71.4569 114.026C71.3873 114.212 71.2655 114.42 71.0915 114.649C70.9192 114.877 70.6799 115.156 70.3737 115.485L69.1731 116.769V116.811H71.6578V117.385H68.2856ZM74.5106 117.458C74.2914 117.454 74.0721 117.413 73.8529 117.333C73.6336 117.253 73.4335 117.118 73.2526 116.928C73.0716 116.737 72.9263 116.478 72.8167 116.153C72.7071 115.826 72.6523 115.415 72.6523 114.921C72.6523 114.448 72.6966 114.028 72.7854 113.663C72.8741 113.296 73.0029 112.987 73.1717 112.736C73.3405 112.484 73.544 112.293 73.7824 112.162C74.0225 112.032 74.2931 111.966 74.5941 111.966C74.8934 111.966 75.1597 112.026 75.3928 112.146C75.6277 112.265 75.8191 112.43 75.967 112.642C76.1149 112.855 76.2106 113.099 76.2541 113.376H75.6173C75.5581 113.136 75.4433 112.936 75.2728 112.778C75.1022 112.62 74.876 112.541 74.5941 112.541C74.18 112.541 73.8538 112.721 73.6154 113.081C73.3787 113.441 73.2595 113.946 73.2578 114.597H73.2996C73.397 114.449 73.5127 114.323 73.6467 114.219C73.7824 114.113 73.9321 114.031 74.0956 113.973C74.2592 113.916 74.4323 113.887 74.615 113.887C74.9213 113.887 75.2014 113.964 75.4555 114.117C75.7095 114.268 75.9131 114.478 76.0662 114.746C76.2193 115.012 76.2959 115.318 76.2959 115.662C76.2959 115.993 76.222 116.296 76.0741 116.57C75.9261 116.844 75.7182 117.061 75.4502 117.223C75.184 117.383 74.8708 117.461 74.5106 117.458ZM74.5106 116.884C74.7299 116.884 74.9265 116.829 75.1005 116.719C75.2762 116.61 75.4146 116.463 75.5155 116.278C75.6182 116.094 75.6695 115.888 75.6695 115.662C75.6695 115.441 75.6199 115.24 75.5207 115.059C75.4233 114.877 75.2884 114.731 75.1162 114.623C74.9456 114.515 74.7508 114.462 74.5315 114.462C74.3662 114.462 74.2122 114.495 74.0695 114.561C73.9268 114.625 73.8016 114.714 73.6937 114.827C73.5875 114.94 73.504 115.07 73.4431 115.216C73.3822 115.36 73.3518 115.512 73.3518 115.673C73.3518 115.885 73.4014 116.083 73.5005 116.268C73.6015 116.452 73.7389 116.601 73.9129 116.714C74.0887 116.827 74.2879 116.884 74.5106 116.884Z" fill="#112244"/>
</g>
<defs>
<clipPath id="clip0_4_25">
<rect width="135.973" height="146.998" fill="white"/>
</clipPath>
</defs>
</svg>
