<svg width="140" height="146" viewBox="0 0 140 146" fill="none" xmlns="http://www.w3.org/2000/svg">
<path d="M27.6998 116.58L2.5498 105.59V79.3901L27.6998 90.3701V116.58Z" fill="#32466E"/>
<path d="M112.3 116.58L137.45 105.59V79.3901L112.3 90.3701V116.58Z" fill="#32466E"/>
<path d="M70.1 140C69.6026 139.996 69.1105 139.898 68.65 139.71L17.3 121.3C16.4811 120.998 15.7741 120.453 15.2737 119.738C14.7732 119.023 14.5033 118.173 14.5 117.3V17.14C14.5137 16.0687 14.9258 15.041 15.6561 14.2571C16.3864 13.4732 17.3824 12.9894 18.45 12.9L69.71 5.47998H70.48L121.64 12.9C122.723 12.959 123.742 13.4319 124.487 14.221C125.231 15.0101 125.644 16.0551 125.64 17.14V117.35C125.639 118.222 125.371 119.072 124.872 119.787C124.373 120.503 123.668 121.048 122.85 121.35L71.54 139.7C71.0828 139.887 70.5941 139.986 70.1 139.99V140Z" fill="white"/>
<path d="M70.0501 143.07C69.198 143.086 68.3493 142.958 67.5401 142.69L16.1901 124.29C14.7753 123.762 13.5554 122.815 12.694 121.574C11.8326 120.334 11.3707 118.86 11.3701 117.35V17.14C11.3713 15.297 12.0647 13.5218 13.3131 12.166C14.5614 10.8103 16.2735 9.97293 18.1101 9.81998L69.2801 2.49998C69.8222 2.39975 70.378 2.39975 70.9201 2.49998L122 9.81998C123.838 9.97055 125.553 10.8068 126.803 12.1628C128.054 13.5189 128.749 15.2954 128.75 17.14V117.35C128.75 118.86 128.288 120.334 127.426 121.574C126.565 122.815 125.345 123.762 123.93 124.29L72.6701 142.69C71.8237 142.96 70.9384 143.088 70.0501 143.07ZM70.0501 8.56998L18.6901 16H18.6001C18.4543 16.0038 18.3108 16.0368 18.178 16.097C18.0452 16.1573 17.9258 16.2436 17.827 16.3509C17.7281 16.4581 17.6518 16.5841 17.6025 16.7213C17.5533 16.8586 17.532 17.0044 17.5401 17.15V117.35C17.5424 117.585 17.6178 117.813 17.7558 118.003C17.8938 118.193 18.0876 118.335 18.3101 118.41L69.6601 136.81C69.7821 136.861 69.9129 136.887 70.0451 136.887C70.1773 136.887 70.3081 136.861 70.4301 136.81L121.69 118.41C121.913 118.335 122.106 118.193 122.244 118.003C122.382 117.813 122.458 117.585 122.46 117.35V17.14C122.442 16.8569 122.327 16.5887 122.133 16.381C121.94 16.1732 121.681 16.0386 121.4 16H121.11L70.0501 8.56998Z" fill="#112244"/>
<path d="M70.0001 133.82C69.8637 133.834 69.7266 133.802 69.6101 133.73L20.6701 116.39C20.4689 116.294 20.2986 116.145 20.1784 115.957C20.0582 115.77 19.9929 115.552 19.9901 115.33V19.1699C19.9819 19.0336 20.0017 18.8971 20.0483 18.7687C20.0948 18.6404 20.1672 18.523 20.2609 18.4236C20.3546 18.3243 20.4676 18.2453 20.593 18.1913C20.7184 18.1373 20.8536 18.1096 20.9901 18.1099L69.9301 11.1099H70.2201L119.22 18.1099C119.487 18.1362 119.735 18.258 119.918 18.4528C120.102 18.6476 120.209 18.9023 120.22 19.1699V115.33C120.216 115.564 120.14 115.792 120.003 115.982C119.865 116.171 119.672 116.314 119.45 116.39L70.4501 133.73C70.3961 133.793 70.3224 133.837 70.2407 133.853C70.1591 133.869 70.0743 133.858 70.0001 133.82ZM70.0001 12.1299L21.0001 19.1299V115.19L69.9001 132.57L119 115.23V19.1699L70.0001 12.1299Z" fill="#112244"/>
<path d="M69.9999 146C68.8778 146.001 67.763 145.819 66.6999 145.46L15.2399 127.21C13.362 126.571 11.7322 125.359 10.5803 123.744C9.42841 122.129 8.81264 120.194 8.81989 118.21V17C8.82901 14.6422 9.68876 12.3669 11.2411 10.5922C12.7935 8.81751 14.9342 7.66271 17.2699 7.34L69.8799 0H69.9999L122.78 7.35C125.104 7.68541 127.23 8.84409 128.772 10.6152C130.313 12.3862 131.168 14.652 131.18 17V118.25C131.187 120.234 130.571 122.169 129.419 123.784C128.268 125.399 126.638 126.611 124.76 127.25L73.3099 145.46C72.2431 145.818 71.1252 146 69.9999 146ZM69.8799 1L17.3999 8.31C15.2964 8.60059 13.3678 9.63863 11.9668 11.2343C10.5658 12.83 9.78594 14.8766 9.76989 17V118.25C9.76993 120.029 10.3275 121.763 11.3643 123.209C12.4011 124.655 13.8649 125.739 15.5499 126.31L66.9999 144.56C68.9456 145.219 71.0542 145.219 72.9999 144.56L124.46 126.32C126.145 125.749 127.609 124.665 128.645 123.219C129.682 121.773 130.24 120.039 130.24 118.26V17C130.231 14.8714 129.454 12.8175 128.053 11.2156C126.651 9.61371 124.718 8.57134 122.61 8.28L69.8799 1Z" fill="#899FB6"/>
<path d="M137.44 77.1699H2.5498V105.69H137.44V77.1699Z" fill="#112244"/>
<path d="M47.4699 95.9101C46.7332 95.9169 46.0024 95.7776 45.3199 95.5001C44.6745 95.2344 44.0944 94.8318 43.6199 94.3201C43.1209 93.7679 42.7368 93.1221 42.4899 92.4201C42.2101 91.6065 42.0747 90.7503 42.0899 89.8901C42.0574 88.7779 42.2906 87.6741 42.7699 86.6701C43.1923 85.8126 43.8517 85.0943 44.6699 84.6001C45.5172 84.1012 46.4869 83.8484 47.4699 83.8701C48.6282 83.8085 49.7733 84.1397 50.7199 84.8101C51.5521 85.4761 52.1366 86.4023 52.3799 87.4401L50.6799 87.7301C50.466 87.0793 50.0705 86.5033 49.5399 86.0701C48.9631 85.6421 48.2576 85.4234 47.5399 85.4501C46.8321 85.4192 46.1324 85.6116 45.5399 86.0001C44.9806 86.3783 44.5511 86.9194 44.3099 87.5501C44.0292 88.2944 43.8901 89.0846 43.8999 89.8801C43.8771 90.6723 44.0131 91.4612 44.2999 92.2001C44.5412 92.828 44.9708 93.3659 45.5299 93.7401C46.1399 94.1328 46.8547 94.3316 47.5799 94.3101C48.1692 94.3381 48.7555 94.2105 49.2799 93.9401C49.7601 93.6882 50.1538 93.298 50.4099 92.8201C50.7062 92.2555 50.8832 91.636 50.9299 91.0001H48.6799V89.6501H52.6799C52.6799 89.7501 52.6799 89.8801 52.6799 90.0301C52.6799 90.1801 52.6799 90.3001 52.6799 90.3401C52.6948 91.3315 52.4828 92.3132 52.0599 93.2101C51.6633 94.035 51.0387 94.7291 50.2599 95.2101C49.4086 95.6872 48.4456 95.9288 47.4699 95.9101Z" fill="white"/>
<path d="M57.8002 95.91C57.0065 95.9282 56.2236 95.7238 55.5402 95.32C54.906 94.9308 54.3961 94.3688 54.0702 93.7C53.721 92.9533 53.54 92.1392 53.54 91.315C53.54 90.4907 53.721 89.6766 54.0702 88.93C54.4086 88.2686 54.9246 87.7146 55.5602 87.33C56.2341 86.9305 57.0071 86.7295 57.7902 86.75C58.5839 86.7306 59.3671 86.9351 60.0502 87.34C60.6905 87.7423 61.2037 88.3178 61.5302 89C61.8758 89.7458 62.0549 90.5579 62.0549 91.38C62.0549 92.202 61.8758 93.0141 61.5302 93.76C61.1799 94.4182 60.6491 94.9628 60.0002 95.33C59.3364 95.7275 58.5736 95.9286 57.8002 95.91ZM57.8002 94.33C58.1565 94.3548 58.5134 94.29 58.8383 94.1415C59.1632 93.993 59.4457 93.7656 59.6602 93.48C60.0953 92.8461 60.3129 92.0881 60.2802 91.32C60.3197 90.5464 60.0978 89.7821 59.6502 89.15C59.4316 88.8733 59.1489 88.654 58.8266 88.5111C58.5043 88.3682 58.1519 88.3061 57.8002 88.33C57.309 88.3125 56.8242 88.4451 56.4102 88.71C56.043 88.9772 55.7616 89.3455 55.6002 89.77C55.4154 90.2656 55.3238 90.7911 55.3302 91.32C55.3031 92.1042 55.539 92.8751 56.0002 93.51C56.2148 93.7783 56.4896 93.9923 56.8023 94.1347C57.115 94.2772 57.4568 94.3441 57.8002 94.33Z" fill="white"/>
<path d="M67.28 95.91C66.4795 95.9331 65.6888 95.7285 65 95.32C64.3629 94.9314 63.8495 94.3695 63.52 93.7C63.1599 92.9592 62.9817 92.1433 63 91.32C62.98 90.4921 63.1619 89.6718 63.53 88.93C63.863 88.2712 64.3718 87.7174 65 87.33C65.6739 86.9305 66.4469 86.7295 67.23 86.75C68.0237 86.7317 68.8066 86.9361 69.49 87.34C70.1447 87.7339 70.6697 88.311 71 89C71.3457 89.7458 71.5247 90.5579 71.5247 91.38C71.5247 92.202 71.3457 93.0141 71 93.76C70.6703 94.4268 70.1568 94.9854 69.52 95.37C68.8395 95.7583 68.0627 95.9456 67.28 95.91ZM67.28 94.33C67.6364 94.3548 67.9932 94.29 68.3181 94.1415C68.643 93.993 68.9256 93.7656 69.14 93.48C69.5677 92.8431 69.7814 92.0865 69.75 91.32C69.7871 90.5482 69.5693 89.7856 69.13 89.15C68.9109 88.8739 68.6281 88.6551 68.3059 88.5123C67.9837 88.3695 67.6317 88.3069 67.28 88.33C66.7886 88.3099 66.303 88.4427 65.89 88.71C65.5173 88.9714 65.2344 89.3416 65.08 89.77C64.8952 90.2656 64.8037 90.7911 64.81 91.32C64.7714 92.0996 64.993 92.87 65.44 93.51C65.6576 93.7852 65.9386 94.0036 66.2591 94.1464C66.5796 94.2892 66.9299 94.3522 67.28 94.33Z" fill="white"/>
<path d="M76.4198 95.9099C75.6782 95.9275 74.949 95.7181 74.3298 95.3098C73.7448 94.8951 73.2847 94.3279 72.9998 93.6698C72.6744 92.9299 72.5141 92.128 72.5298 91.3198C72.5112 90.5211 72.6718 89.7284 72.9998 88.9998C73.302 88.3378 73.7791 87.7708 74.3798 87.3598C75.0052 86.9488 75.7416 86.7394 76.4898 86.7598C77.2228 86.7351 77.9446 86.9453 78.5498 87.3598C79.1146 87.7758 79.5484 88.345 79.7998 88.9998C80.3802 90.5024 80.3802 92.1673 79.7998 93.6698C79.5405 94.3259 79.1 94.8946 78.5298 95.3098C77.9114 95.7361 77.1699 95.947 76.4198 95.9099ZM76.6598 94.3898C77.1374 94.4125 77.6089 94.2752 77.9998 93.9998C78.3581 93.7202 78.6259 93.341 78.7698 92.9099C79.0896 91.874 79.0896 90.7657 78.7698 89.7299C78.6231 89.3029 78.3556 88.9276 77.9998 88.6498C77.6244 88.3824 77.1702 88.2486 76.7098 88.2698C76.2201 88.2494 75.7377 88.3937 75.3398 88.6798C74.9713 88.9605 74.6932 89.3429 74.5398 89.7798C74.1931 90.7841 74.1931 91.8756 74.5398 92.8798C74.6903 93.3238 74.9686 93.7135 75.3398 93.9998C75.7241 94.273 76.1886 94.4103 76.6598 94.3898ZM78.9998 95.6599V89.4198H78.8098V84.0898H80.4998V95.6599H78.9998Z" fill="white"/>
<path d="M81.79 88.3401V87.0001H87.1V88.3501L81.79 88.3401ZM83.23 95.6601V86.6601C83.23 86.4501 83.23 86.2101 83.23 85.9601C83.2467 85.7087 83.2937 85.4602 83.37 85.2201C83.4625 84.9569 83.6091 84.7159 83.8002 84.5127C83.9914 84.3095 84.223 84.1485 84.48 84.0401C84.726 83.9316 84.9913 83.8738 85.26 83.8701H85.98H87.08V85.2501H86.08C85.9191 85.2377 85.7574 85.2579 85.6045 85.3094C85.4515 85.361 85.3106 85.4428 85.19 85.5501C85.0867 85.6607 85.0076 85.7917 84.9576 85.9346C84.9077 86.0775 84.8881 86.2292 84.9 86.3801V95.6801H83.23V95.6601ZM88.79 85.5601V83.9401H90.47V85.5601H88.79ZM88.79 95.6601V87.0001H90.47V95.6701L88.79 95.6601Z" fill="white"/>
<path d="M92.5601 95.6601V87.0001H94.0501V89.1001L93.8501 88.8301C93.9485 88.5548 94.0866 88.2954 94.2601 88.0601C94.4284 87.8428 94.6271 87.6509 94.8501 87.4901C95.0751 87.3276 95.325 87.2027 95.5901 87.1201C95.863 87.0328 96.1447 86.9758 96.4301 86.9501C96.6992 86.9196 96.9709 86.9196 97.2401 86.9501V88.5201C96.9337 88.4385 96.6143 88.4181 96.3001 88.4601C95.9439 88.4825 95.5996 88.5961 95.3001 88.7901C95.0406 88.9517 94.8217 89.1707 94.6601 89.4301C94.4984 89.688 94.3833 89.9724 94.3201 90.2701C94.2458 90.5982 94.2089 90.9337 94.2101 91.2701V95.6401L92.5601 95.6601Z" fill="white"/>
<path d="M98.4399 95.6598V86.9998H99.9399V89.4998H100.13V95.6598H98.4399ZM103.64 95.6598V90.2898C103.677 89.75 103.505 89.2166 103.16 88.7998C102.999 88.6222 102.801 88.4818 102.58 88.3886C102.358 88.2953 102.12 88.2514 101.88 88.2598C101.638 88.2532 101.397 88.2989 101.175 88.3938C100.952 88.4887 100.753 88.6306 100.59 88.8098C100.258 89.2106 100.087 89.7202 100.11 90.2398L99.3099 89.7298C99.302 89.203 99.4397 88.6842 99.7079 88.2307C99.9762 87.7772 100.364 87.4066 100.83 87.1598C101.315 86.8985 101.859 86.7675 102.41 86.7798C102.959 86.7636 103.502 86.8985 103.98 87.1698C104.416 87.4193 104.765 87.7962 104.98 88.2498C105.217 88.7597 105.334 89.3176 105.32 89.8798V95.6698H103.65L103.64 95.6598ZM108.84 95.6598V90.2498C108.87 89.717 108.698 89.1924 108.36 88.7798C108.197 88.6074 108 88.471 107.781 88.3797C107.563 88.2884 107.327 88.2442 107.09 88.2498C106.782 88.2441 106.479 88.32 106.21 88.4698C105.94 88.6269 105.719 88.8552 105.57 89.1298C105.4 89.4708 105.317 89.8489 105.33 90.2298L104.52 89.8198C104.496 89.2572 104.631 88.6993 104.91 88.2098C105.171 87.7587 105.552 87.3884 106.01 87.1398C106.493 86.8843 107.033 86.7536 107.58 86.7598C107.982 86.736 108.385 86.7986 108.761 86.9435C109.137 87.0884 109.478 87.3122 109.76 87.5998C110.292 88.2216 110.567 89.0225 110.53 89.8398V95.6498H108.84V95.6598Z" fill="white"/>
<path d="M115.61 95.8999C114.699 95.9352 113.799 95.6909 113.03 95.1999C112.7 94.9679 112.422 94.6707 112.212 94.3266C112.002 93.9826 111.865 93.5991 111.81 93.1999L113.53 92.9299C113.577 93.1495 113.667 93.3574 113.796 93.5413C113.925 93.7251 114.09 93.8811 114.28 93.9999C114.713 94.2736 115.218 94.4096 115.73 94.3899C116.174 94.4376 116.621 94.3356 117 94.0999C117.141 93.9993 117.255 93.8654 117.332 93.7102C117.409 93.5549 117.446 93.383 117.44 93.2099C117.448 93.0217 117.395 92.8359 117.29 92.6799C117.106 92.4944 116.88 92.357 116.63 92.2799C116.3 92.1599 115.79 92.0099 115.11 91.8199C114.5 91.6746 113.907 91.4669 113.34 91.1999C112.968 91.0246 112.647 90.7559 112.41 90.4199C112.223 90.0915 112.129 89.7178 112.14 89.3399C112.127 88.8511 112.271 88.3711 112.55 87.9699C112.849 87.5607 113.258 87.2451 113.73 87.0599C114.295 86.8302 114.9 86.7179 115.51 86.7299C116.118 86.7216 116.723 86.8302 117.29 87.0499C117.775 87.2372 118.207 87.5391 118.55 87.9299C118.867 88.3162 119.068 88.7842 119.13 89.2799L117.41 89.5899C117.387 89.3912 117.323 89.1995 117.221 89.0273C117.119 88.855 116.983 88.706 116.82 88.5899C116.435 88.3337 115.982 88.198 115.52 88.1999C115.094 88.1602 114.666 88.2472 114.29 88.4499C114.147 88.5242 114.027 88.636 113.942 88.7734C113.857 88.9108 113.812 89.0686 113.81 89.2299C113.804 89.4105 113.868 89.5864 113.99 89.7199C114.197 89.8963 114.439 90.026 114.7 90.0999C115.04 90.2199 115.56 90.3699 116.24 90.5499C116.842 90.6899 117.425 90.8979 117.98 91.1699C118.356 91.333 118.672 91.6074 118.887 91.9562C119.101 92.3049 119.204 92.7111 119.18 93.1199C119.197 93.5044 119.12 93.8872 118.956 94.2356C118.793 94.5839 118.547 94.8874 118.24 95.1199C117.483 95.6818 116.551 95.958 115.61 95.8999Z" fill="white"/>
<path d="M20.8599 86.52H37.0499V83.73C37.0512 83.5025 37.0074 83.2769 36.9209 83.0664C36.8344 82.8559 36.7071 82.6647 36.5461 82.5038C36.3852 82.3429 36.194 82.2155 35.9835 82.129C35.773 82.0425 35.5474 81.9987 35.3199 82C35.3199 82 30.5499 82.16 28.9599 82.16C27.3699 82.16 22.5899 82 22.5899 82C22.3623 81.9987 22.1368 82.0425 21.9263 82.129C21.7158 82.2155 21.5245 82.3429 21.3636 82.5038C21.2027 82.6647 21.0753 82.8559 20.9889 83.0664C20.9024 83.2769 20.8586 83.5025 20.8599 83.73V86.52Z" fill="#C6D0DB"/>
<path d="M22.9999 97.76L25.8699 99.86C26.7639 100.513 27.8425 100.866 28.9499 100.866C30.0572 100.866 31.1358 100.513 32.0299 99.86L34.8999 97.76C35.5656 97.2759 36.1074 96.6413 36.481 95.9079C36.8547 95.1745 37.0496 94.3631 37.0499 93.54V83.66C37.0514 83.4365 37.0075 83.215 36.9209 83.0089C36.8342 82.8028 36.7066 82.6165 36.5457 82.4613C36.3849 82.306 36.1942 82.1851 35.9852 82.1058C35.7761 82.0265 35.5532 81.9905 35.3299 82L33.9999 82.15C30.6272 82.53 27.2225 82.53 23.8499 82.15L22.5899 82C22.3661 81.9906 22.1426 82.0265 21.9331 82.1057C21.7235 82.1849 21.5322 82.3057 21.3705 82.4608C21.2089 82.6159 21.0803 82.8021 20.9926 83.0082C20.9048 83.2143 20.8597 83.436 20.8599 83.66V93.54C20.8598 94.3621 21.0535 95.1727 21.4253 95.9059C21.7972 96.6391 22.3366 97.2743 22.9999 97.76Z" fill="#899FB6"/>
<g opacity="0.2">
<path d="M32.3398 89.7698L30.8298 91.2298L31.1898 93.2998C31.1974 93.3339 31.1972 93.3693 31.1891 93.4033C31.181 93.4372 31.1652 93.4689 31.1431 93.4959C31.1209 93.5229 31.0929 93.5445 31.0611 93.559C31.0294 93.5735 30.9947 93.5807 30.9598 93.5798C30.9203 93.5888 30.8793 93.5888 30.8398 93.5798L28.9798 92.5798L27.1198 93.5798C27.0826 93.6039 27.0392 93.6168 26.9948 93.6168C26.9505 93.6168 26.9071 93.6039 26.8698 93.5798C26.8319 93.5537 26.8023 93.5171 26.7845 93.4745C26.7668 93.432 26.7617 93.3852 26.7698 93.3398L27.1298 91.2698L25.6198 89.8098C25.5876 89.7788 25.5647 89.7394 25.5538 89.696C25.5428 89.6527 25.5441 89.6071 25.5576 89.5645C25.5711 89.5219 25.5963 89.4839 25.6303 89.4548C25.6642 89.4257 25.7056 89.4066 25.7498 89.3998L27.8298 89.0898L28.7598 87.2098C28.782 87.1725 28.8134 87.1416 28.8511 87.1202C28.8888 87.0987 28.9315 87.0874 28.9748 87.0874C29.0182 87.0874 29.0608 87.0987 29.0985 87.1202C29.1362 87.1416 29.1677 87.1725 29.1898 87.2098L30.1198 89.0898L32.1998 89.3998C32.2431 89.4066 32.2837 89.4251 32.3171 89.4533C32.3506 89.4815 32.3758 89.5184 32.3898 89.5598C32.3977 89.5963 32.3973 89.6342 32.3887 89.6705C32.38 89.7069 32.3633 89.7408 32.3398 89.7698Z" fill="#112244"/>
</g>
<path d="M32.3398 89.42L30.8298 90.89L31.1898 93C31.1968 93.0444 31.1922 93.0898 31.1764 93.1318C31.1606 93.1739 31.1342 93.2112 31.0998 93.24C31.0539 93.2523 31.0056 93.2523 30.9598 93.24H30.8398L28.9798 92.24L27.1198 93.24C27.0818 93.2619 27.0387 93.2735 26.9948 93.2735C26.9509 93.2735 26.9078 93.2619 26.8698 93.24C26.8309 93.2147 26.8005 93.1783 26.7826 93.1355C26.7648 93.0926 26.7603 93.0454 26.7698 93L27.1298 90.94L25.6198 89.47C25.5889 89.4392 25.5671 89.4006 25.5565 89.3583C25.5459 89.316 25.5471 89.2717 25.5598 89.23C25.575 89.1882 25.6003 89.1508 25.6335 89.1211C25.6666 89.0915 25.7066 89.0705 25.7498 89.06L27.8298 88.76L28.7598 86.87C28.7819 86.8327 28.8134 86.8018 28.8511 86.7803C28.8888 86.7588 28.9314 86.7476 28.9748 86.7476C29.0182 86.7476 29.0608 86.7588 29.0985 86.7803C29.1362 86.8018 29.1677 86.8327 29.1898 86.87L30.1198 88.76L32.1998 89.06C32.2438 89.0687 32.2847 89.089 32.3181 89.1189C32.3515 89.1489 32.3763 89.1872 32.3898 89.23C32.396 89.2634 32.3947 89.2977 32.3861 89.3306C32.3774 89.3634 32.3616 89.394 32.3398 89.42Z" fill="white"/>
<path d="M74.5101 122.35L72.5101 124.35L73.0001 127.1C73.0118 127.159 73.0057 127.22 72.9826 127.275C72.9594 127.33 72.9202 127.377 72.8701 127.41C72.8203 127.453 72.7556 127.474 72.6901 127.47C72.6412 127.485 72.589 127.485 72.5401 127.47L70.0401 126.17L67.5301 127.47C67.4776 127.499 67.4182 127.512 67.3585 127.509C67.2988 127.506 67.2413 127.486 67.1923 127.451C67.1434 127.417 67.1051 127.37 67.0817 127.315C67.0583 127.26 67.0508 127.199 67.0601 127.14L67.5401 124.36L65.5401 122.36C65.496 122.318 65.4647 122.265 65.4498 122.206C65.4349 122.147 65.437 122.086 65.4558 122.028C65.4747 121.97 65.5095 121.919 65.5563 121.881C65.6031 121.842 65.6599 121.818 65.7201 121.81L68.5101 121.4L69.7601 118.87C69.7905 118.82 69.8331 118.779 69.8838 118.751C69.9346 118.722 69.9919 118.708 70.0501 118.708C70.1083 118.708 70.1655 118.722 70.2163 118.751C70.2671 118.779 70.3097 118.82 70.3401 118.87L71.5901 121.4L74.3801 121.81C74.4383 121.819 74.4928 121.845 74.5371 121.884C74.5814 121.923 74.6136 121.973 74.6301 122.03C74.6436 122.089 74.6395 122.151 74.6181 122.208C74.5968 122.265 74.5592 122.314 74.5101 122.35Z" fill="#899FB6"/>
<path d="M61.08 119.8L59.47 121.37L59.85 123.6C59.8567 123.647 59.851 123.695 59.8334 123.738C59.8159 123.782 59.7871 123.821 59.75 123.85C59.701 123.864 59.6491 123.864 59.6 123.85H59.48L57.48 122.8L55.48 123.85C55.4384 123.872 55.3921 123.883 55.345 123.883C55.298 123.883 55.2517 123.872 55.21 123.85C55.1712 123.822 55.1412 123.784 55.1235 123.74C55.1058 123.695 55.1011 123.647 55.11 123.6L55.49 121.37L53.88 119.8C53.8449 119.766 53.8198 119.722 53.8075 119.675C53.7951 119.627 53.796 119.577 53.81 119.53C53.8279 119.486 53.8565 119.448 53.8932 119.418C53.9299 119.388 53.9735 119.368 54.02 119.36L56.25 119.03L57.25 117.03C57.2736 116.989 57.3077 116.954 57.349 116.93C57.3903 116.906 57.4372 116.893 57.485 116.893C57.5328 116.893 57.5798 116.906 57.6211 116.93C57.6623 116.954 57.6965 116.989 57.72 117.03L58.72 119.03L60.96 119.36C61.0051 119.369 61.0471 119.389 61.0821 119.419C61.1171 119.449 61.1439 119.487 61.16 119.53C61.1754 119.578 61.1759 119.629 61.1617 119.677C61.1474 119.726 61.119 119.768 61.08 119.8Z" fill="#899FB6"/>
<path d="M86.1398 119.8L84.5198 121.37L84.8998 123.6C84.9087 123.647 84.9041 123.695 84.8863 123.74C84.8686 123.784 84.8386 123.822 84.7998 123.85C84.7507 123.864 84.6989 123.864 84.6498 123.85H84.5298L82.5298 122.8L80.5298 123.85C80.4884 123.873 80.442 123.885 80.3948 123.885C80.3476 123.885 80.3012 123.873 80.2598 123.85C80.2182 123.825 80.1854 123.787 80.1658 123.742C80.1461 123.698 80.1405 123.648 80.1498 123.6L80.5398 121.37L78.9198 119.8C78.8854 119.765 78.8615 119.722 78.8509 119.674C78.8403 119.626 78.8434 119.576 78.8598 119.53C78.8741 119.486 78.9004 119.447 78.9357 119.417C78.971 119.387 79.014 119.367 79.0598 119.36L81.2898 119.03L82.2898 117.03C82.3133 116.989 82.3475 116.954 82.3888 116.93C82.4301 116.906 82.477 116.893 82.5248 116.893C82.5726 116.893 82.6195 116.906 82.6608 116.93C82.7021 116.954 82.7363 116.989 82.7598 117.03L83.7598 119.03L85.9898 119.36C86.0348 119.369 86.0768 119.389 86.1118 119.419C86.1468 119.449 86.1737 119.487 86.1898 119.53C86.2075 119.575 86.2122 119.625 86.2034 119.672C86.1945 119.72 86.1725 119.764 86.1398 119.8Z" fill="#899FB6"/>
<path d="M95.9999 117.7L94.6699 119L94.9799 120.78C94.9839 120.817 94.9787 120.855 94.9648 120.89C94.9509 120.925 94.9286 120.956 94.8999 120.98C94.8608 120.992 94.8191 120.992 94.7799 120.98C94.7472 120.989 94.7127 120.989 94.6799 120.98L93.0799 120.15L91.4799 120.98C91.4465 120.999 91.4086 121.009 91.3699 121.009C91.3313 121.009 91.2934 120.999 91.2599 120.98C91.2279 120.959 91.2031 120.928 91.1889 120.892C91.1746 120.857 91.1715 120.817 91.1799 120.78L91.4799 119L90.1899 117.74C90.1705 117.708 90.1602 117.672 90.1602 117.635C90.1602 117.598 90.1705 117.561 90.1899 117.53C90.1996 117.493 90.22 117.46 90.2485 117.435C90.277 117.41 90.3123 117.395 90.3499 117.39L92.1399 117.13L92.9399 115.5C92.9599 115.469 92.9872 115.443 93.0196 115.426C93.0519 115.408 93.0881 115.399 93.1249 115.399C93.1618 115.399 93.198 115.408 93.2303 115.426C93.2626 115.443 93.29 115.469 93.3099 115.5L94.1099 117.13L95.8899 117.39C95.9293 117.393 95.9668 117.408 95.9973 117.433C96.0278 117.458 96.0496 117.492 96.0599 117.53C96.0648 117.561 96.0619 117.593 96.0514 117.622C96.0409 117.652 96.0232 117.679 95.9999 117.7Z" fill="#899FB6"/>
<path d="M49.81 117.7L48.52 119L48.83 120.78C48.832 120.818 48.8248 120.856 48.8092 120.891C48.7935 120.925 48.7698 120.956 48.74 120.98C48.7013 120.994 48.6587 120.994 48.62 120.98C48.5906 120.988 48.5594 120.988 48.53 120.98L46.93 120.15L45.32 120.98C45.2884 120.999 45.2521 121.01 45.215 121.01C45.1779 121.01 45.1416 120.999 45.11 120.98C45.078 120.959 45.0532 120.928 45.0389 120.892C45.0246 120.857 45.0215 120.817 45.03 120.78L45.33 119L44 117.7C43.9805 117.668 43.9702 117.632 43.9702 117.595C43.9702 117.558 43.9805 117.521 44 117.49C44.0097 117.453 44.0301 117.42 44.0586 117.395C44.0871 117.37 44.1224 117.355 44.16 117.35L45.95 117.09L46.75 115.46C46.7699 115.429 46.7973 115.403 46.8296 115.386C46.8619 115.368 46.8982 115.359 46.935 115.359C46.9718 115.359 47.008 115.368 47.0404 115.386C47.0727 115.403 47.1001 115.429 47.12 115.46L47.92 117.09L49.7 117.35C49.7375 117.356 49.7725 117.372 49.8015 117.397C49.8305 117.421 49.8523 117.453 49.8646 117.489C49.877 117.525 49.8793 117.563 49.8714 117.601C49.8636 117.638 49.8458 117.672 49.82 117.7H49.81Z" fill="#899FB6"/>
<path d="M59.4287 30.7905V37.8999H57.9688V30.7905H59.4287ZM61.6162 30.7905V31.938H55.8154V30.7905H61.6162Z" fill="#112244"/>
<path d="M61.2988 35.312V35.2095C61.2988 34.8221 61.3542 34.4657 61.4648 34.1401C61.5755 33.8114 61.7367 33.5265 61.9482 33.2856C62.1598 33.0448 62.4202 32.8576 62.7295 32.7241C63.0387 32.5874 63.3936 32.519 63.7939 32.519C64.1943 32.519 64.5508 32.5874 64.8633 32.7241C65.1758 32.8576 65.4378 33.0448 65.6494 33.2856C65.8643 33.5265 66.027 33.8114 66.1377 34.1401C66.2484 34.4657 66.3037 34.8221 66.3037 35.2095V35.312C66.3037 35.6961 66.2484 36.0526 66.1377 36.3813C66.027 36.7069 65.8643 36.9917 65.6494 37.2358C65.4378 37.4767 65.1774 37.6639 64.8682 37.7974C64.5589 37.9308 64.2041 37.9976 63.8037 37.9976C63.4033 37.9976 63.0469 37.9308 62.7344 37.7974C62.4251 37.6639 62.1631 37.4767 61.9482 37.2358C61.7367 36.9917 61.5755 36.7069 61.4648 36.3813C61.3542 36.0526 61.2988 35.6961 61.2988 35.312ZM62.7051 35.2095V35.312C62.7051 35.5334 62.7246 35.7401 62.7637 35.9321C62.8027 36.1242 62.8646 36.2935 62.9492 36.4399C63.0371 36.5832 63.151 36.6955 63.291 36.7769C63.431 36.8582 63.6019 36.8989 63.8037 36.8989C63.999 36.8989 64.1667 36.8582 64.3066 36.7769C64.4466 36.6955 64.5589 36.5832 64.6436 36.4399C64.7282 36.2935 64.79 36.1242 64.8291 35.9321C64.8714 35.7401 64.8926 35.5334 64.8926 35.312V35.2095C64.8926 34.9946 64.8714 34.7928 64.8291 34.604C64.79 34.4119 64.7266 34.2427 64.6387 34.0962C64.554 33.9465 64.4417 33.8293 64.3018 33.7446C64.1618 33.66 63.9925 33.6177 63.7939 33.6177C63.5954 33.6177 63.4261 33.66 63.2861 33.7446C63.1494 33.8293 63.0371 33.9465 62.9492 34.0962C62.8646 34.2427 62.8027 34.4119 62.7637 34.604C62.7246 34.7928 62.7051 34.9946 62.7051 35.2095Z" fill="#112244"/>
<path d="M68.5742 33.6323V39.9312H67.168V32.6167H68.4717L68.5742 33.6323ZM71.9189 35.1997V35.3022C71.9189 35.6864 71.8734 36.0428 71.7822 36.3716C71.6943 36.7004 71.5641 36.9868 71.3916 37.231C71.2191 37.4718 71.0042 37.6606 70.7471 37.7974C70.4932 37.9308 70.2002 37.9976 69.8682 37.9976C69.5459 37.9976 69.266 37.9325 69.0283 37.8022C68.7907 37.672 68.5905 37.4897 68.4277 37.2554C68.2682 37.0177 68.1396 36.7427 68.042 36.4302C67.9443 36.1177 67.8695 35.7824 67.8174 35.4243V35.1558C67.8695 34.7716 67.9443 34.4201 68.042 34.1011C68.1396 33.7788 68.2682 33.5005 68.4277 33.2661C68.5905 33.0285 68.7891 32.8446 69.0234 32.7144C69.2611 32.5841 69.5394 32.519 69.8584 32.519C70.1937 32.519 70.4883 32.5825 70.7422 32.7095C70.9993 32.8364 71.2142 33.0187 71.3867 33.2563C71.5625 33.494 71.6943 33.7772 71.7822 34.106C71.8734 34.4347 71.9189 34.7993 71.9189 35.1997ZM70.5078 35.3022V35.1997C70.5078 34.9751 70.4883 34.7684 70.4492 34.5796C70.4134 34.3875 70.3548 34.2199 70.2734 34.0767C70.1953 33.9334 70.0911 33.8228 69.9609 33.7446C69.834 33.6632 69.6794 33.6226 69.4971 33.6226C69.305 33.6226 69.1406 33.6535 69.0039 33.7153C68.8704 33.7772 68.7614 33.8667 68.6768 33.9839C68.5921 34.1011 68.5286 34.241 68.4863 34.4038C68.444 34.5666 68.418 34.7505 68.4082 34.9556V35.6343C68.4245 35.8752 68.4701 36.0916 68.5449 36.2837C68.6198 36.4725 68.7354 36.6222 68.8916 36.7329C69.0479 36.8436 69.2529 36.8989 69.5068 36.8989C69.6924 36.8989 69.8486 36.8582 69.9756 36.7769C70.1025 36.6922 70.2051 36.5767 70.2832 36.4302C70.3646 36.2837 70.4215 36.1144 70.4541 35.9224C70.4899 35.7303 70.5078 35.5236 70.5078 35.3022Z" fill="#112244"/>
<path d="M78.2617 32.0063L76.3281 37.8999H74.7705L77.4121 30.7905H78.4033L78.2617 32.0063ZM79.8682 37.8999L77.9297 32.0063L77.7734 30.7905H78.7744L81.4307 37.8999H79.8682ZM79.7803 35.2534V36.4009H76.0254V35.2534H79.7803Z" fill="#112244"/>
<path d="M83.6475 30.7905V37.8999H82.1875V30.7905H83.6475Z" fill="#112244"/>
<path d="M43.2031 50.8999H41.6553L41.665 49.7573H43.2031C43.5872 49.7573 43.9111 49.6711 44.1748 49.4985C44.4385 49.3228 44.637 49.0672 44.7705 48.7319C44.9072 48.3966 44.9756 47.9914 44.9756 47.5161V47.1694C44.9756 46.8048 44.9365 46.4842 44.8584 46.2075C44.7835 45.9308 44.6712 45.6981 44.5215 45.5093C44.3717 45.3205 44.1878 45.1789 43.9697 45.0845C43.7516 44.9868 43.501 44.938 43.2178 44.938H41.626V43.7905H43.2178C43.693 43.7905 44.1276 43.8719 44.5215 44.0347C44.9186 44.1942 45.262 44.4237 45.5518 44.7231C45.8415 45.0226 46.0645 45.3807 46.2207 45.7974C46.3802 46.2108 46.46 46.6714 46.46 47.1792V47.5161C46.46 48.0207 46.3802 48.4813 46.2207 48.8979C46.0645 49.3146 45.8415 49.6727 45.5518 49.9722C45.2653 50.2684 44.9219 50.4979 44.5215 50.6606C44.1243 50.8202 43.6849 50.8999 43.2031 50.8999ZM42.4854 43.7905V50.8999H41.0205V43.7905H42.4854Z" fill="#112244"/>
<path d="M49.8682 50.9976C49.458 50.9976 49.0902 50.9325 48.7646 50.8022C48.4391 50.6688 48.1624 50.4849 47.9346 50.2505C47.71 50.0161 47.5374 49.7443 47.417 49.4351C47.2965 49.1226 47.2363 48.7905 47.2363 48.439V48.2437C47.2363 47.8433 47.2933 47.4771 47.4072 47.145C47.5212 46.813 47.6839 46.5249 47.8955 46.2808C48.1104 46.0366 48.3708 45.8494 48.6768 45.7192C48.9827 45.5858 49.3278 45.519 49.7119 45.519C50.0863 45.519 50.4183 45.5809 50.708 45.7046C50.9977 45.8283 51.2402 46.0041 51.4355 46.2319C51.6341 46.4598 51.7839 46.7332 51.8848 47.0522C51.9857 47.368 52.0361 47.7196 52.0361 48.1069V48.6929H47.8369V47.7554H50.6543V47.6479C50.6543 47.4526 50.6185 47.2785 50.5469 47.1255C50.4785 46.9692 50.3743 46.8455 50.2344 46.7544C50.0944 46.6632 49.9154 46.6177 49.6973 46.6177C49.5117 46.6177 49.3522 46.6584 49.2188 46.7397C49.0853 46.8211 48.9762 46.9351 48.8916 47.0815C48.8102 47.228 48.7484 47.4006 48.7061 47.5991C48.667 47.7944 48.6475 48.0093 48.6475 48.2437V48.439C48.6475 48.6506 48.6768 48.8459 48.7354 49.0249C48.7972 49.2039 48.8835 49.3586 48.9941 49.4888C49.1081 49.619 49.2448 49.7199 49.4043 49.7915C49.5671 49.8631 49.751 49.8989 49.9561 49.8989C50.21 49.8989 50.446 49.8501 50.6641 49.7524C50.8854 49.6515 51.0758 49.5002 51.2354 49.2983L51.9189 50.0405C51.8083 50.2 51.6569 50.353 51.4648 50.4995C51.276 50.646 51.0482 50.7664 50.7812 50.8608C50.5143 50.952 50.21 50.9976 49.8682 50.9976Z" fill="#112244"/>
<path d="M54.5752 49.8745L55.7471 45.6167H57.2168L55.4346 50.8999H54.5459L54.5752 49.8745ZM53.7695 45.6167L54.9463 49.8794L54.9707 50.8999H54.0771L52.2949 45.6167H53.7695Z" fill="#112244"/>
<path d="M60.2197 50.9976C59.8096 50.9976 59.4417 50.9325 59.1162 50.8022C58.7907 50.6688 58.514 50.4849 58.2861 50.2505C58.0615 50.0161 57.889 49.7443 57.7686 49.4351C57.6481 49.1226 57.5879 48.7905 57.5879 48.439V48.2437C57.5879 47.8433 57.6449 47.4771 57.7588 47.145C57.8727 46.813 58.0355 46.5249 58.2471 46.2808C58.4619 46.0366 58.7223 45.8494 59.0283 45.7192C59.3343 45.5858 59.6794 45.519 60.0635 45.519C60.4378 45.519 60.7699 45.5809 61.0596 45.7046C61.3493 45.8283 61.5918 46.0041 61.7871 46.2319C61.9857 46.4598 62.1354 46.7332 62.2363 47.0522C62.3372 47.368 62.3877 47.7196 62.3877 48.1069V48.6929H58.1885V47.7554H61.0059V47.6479C61.0059 47.4526 60.9701 47.2785 60.8984 47.1255C60.8301 46.9692 60.7259 46.8455 60.5859 46.7544C60.446 46.6632 60.2669 46.6177 60.0488 46.6177C59.8633 46.6177 59.7038 46.6584 59.5703 46.7397C59.4368 46.8211 59.3278 46.9351 59.2432 47.0815C59.1618 47.228 59.0999 47.4006 59.0576 47.5991C59.0186 47.7944 58.999 48.0093 58.999 48.2437V48.439C58.999 48.6506 59.0283 48.8459 59.0869 49.0249C59.1488 49.2039 59.235 49.3586 59.3457 49.4888C59.4596 49.619 59.5964 49.7199 59.7559 49.7915C59.9186 49.8631 60.1025 49.8989 60.3076 49.8989C60.5615 49.8989 60.7975 49.8501 61.0156 49.7524C61.237 49.6515 61.4274 49.5002 61.5869 49.2983L62.2705 50.0405C62.1598 50.2 62.0085 50.353 61.8164 50.4995C61.6276 50.646 61.3997 50.7664 61.1328 50.8608C60.8659 50.952 60.5615 50.9976 60.2197 50.9976Z" fill="#112244"/>
<path d="M64.6729 43.3999V50.8999H63.2617V43.3999H64.6729Z" fill="#112244"/>
<path d="M65.6104 48.312V48.2095C65.6104 47.8221 65.6657 47.4657 65.7764 47.1401C65.887 46.8114 66.0482 46.5265 66.2598 46.2856C66.4714 46.0448 66.7318 45.8576 67.041 45.7241C67.3503 45.5874 67.7051 45.519 68.1055 45.519C68.5059 45.519 68.8623 45.5874 69.1748 45.7241C69.4873 45.8576 69.7493 46.0448 69.9609 46.2856C70.1758 46.5265 70.3385 46.8114 70.4492 47.1401C70.5599 47.4657 70.6152 47.8221 70.6152 48.2095V48.312C70.6152 48.6961 70.5599 49.0526 70.4492 49.3813C70.3385 49.7069 70.1758 49.9917 69.9609 50.2358C69.7493 50.4767 69.4889 50.6639 69.1797 50.7974C68.8704 50.9308 68.5156 50.9976 68.1152 50.9976C67.7148 50.9976 67.3584 50.9308 67.0459 50.7974C66.7367 50.6639 66.4746 50.4767 66.2598 50.2358C66.0482 49.9917 65.887 49.7069 65.7764 49.3813C65.6657 49.0526 65.6104 48.6961 65.6104 48.312ZM67.0166 48.2095V48.312C67.0166 48.5334 67.0361 48.7401 67.0752 48.9321C67.1143 49.1242 67.1761 49.2935 67.2607 49.4399C67.3486 49.5832 67.4626 49.6955 67.6025 49.7769C67.7425 49.8582 67.9134 49.8989 68.1152 49.8989C68.3105 49.8989 68.4782 49.8582 68.6182 49.7769C68.7581 49.6955 68.8704 49.5832 68.9551 49.4399C69.0397 49.2935 69.1016 49.1242 69.1406 48.9321C69.1829 48.7401 69.2041 48.5334 69.2041 48.312V48.2095C69.2041 47.9946 69.1829 47.7928 69.1406 47.604C69.1016 47.4119 69.0381 47.2427 68.9502 47.0962C68.8656 46.9465 68.7533 46.8293 68.6133 46.7446C68.4733 46.66 68.304 46.6177 68.1055 46.6177C67.9069 46.6177 67.7376 46.66 67.5977 46.7446C67.4609 46.8293 67.3486 46.9465 67.2607 47.0962C67.1761 47.2427 67.1143 47.4119 67.0752 47.604C67.0361 47.7928 67.0166 47.9946 67.0166 48.2095Z" fill="#112244"/>
<path d="M72.8857 46.6323V52.9312H71.4795V45.6167H72.7832L72.8857 46.6323ZM76.2305 48.1997V48.3022C76.2305 48.6864 76.1849 49.0428 76.0938 49.3716C76.0059 49.7004 75.8757 49.9868 75.7031 50.231C75.5306 50.4718 75.3158 50.6606 75.0586 50.7974C74.8047 50.9308 74.5117 50.9976 74.1797 50.9976C73.8574 50.9976 73.5775 50.9325 73.3398 50.8022C73.1022 50.672 72.902 50.4897 72.7393 50.2554C72.5798 50.0177 72.4512 49.7427 72.3535 49.4302C72.2559 49.1177 72.181 48.7824 72.1289 48.4243V48.1558C72.181 47.7716 72.2559 47.4201 72.3535 47.1011C72.4512 46.7788 72.5798 46.5005 72.7393 46.2661C72.902 46.0285 73.1006 45.8446 73.335 45.7144C73.5726 45.5841 73.8509 45.519 74.1699 45.519C74.5052 45.519 74.7998 45.5825 75.0537 45.7095C75.3109 45.8364 75.5257 46.0187 75.6982 46.2563C75.874 46.494 76.0059 46.7772 76.0938 47.106C76.1849 47.4347 76.2305 47.7993 76.2305 48.1997ZM74.8193 48.3022V48.1997C74.8193 47.9751 74.7998 47.7684 74.7607 47.5796C74.7249 47.3875 74.6663 47.2199 74.585 47.0767C74.5068 46.9334 74.4027 46.8228 74.2725 46.7446C74.1455 46.6632 73.9909 46.6226 73.8086 46.6226C73.6165 46.6226 73.4521 46.6535 73.3154 46.7153C73.182 46.7772 73.0729 46.8667 72.9883 46.9839C72.9036 47.1011 72.8402 47.241 72.7979 47.4038C72.7555 47.5666 72.7295 47.7505 72.7197 47.9556V48.6343C72.736 48.8752 72.7816 49.0916 72.8564 49.2837C72.9313 49.4725 73.0469 49.6222 73.2031 49.7329C73.3594 49.8436 73.5645 49.8989 73.8184 49.8989C74.0039 49.8989 74.1602 49.8582 74.2871 49.7769C74.4141 49.6922 74.5166 49.5767 74.5947 49.4302C74.6761 49.2837 74.7331 49.1144 74.7656 48.9224C74.8014 48.7303 74.8193 48.5236 74.8193 48.3022Z" fill="#112244"/>
<path d="M78.5107 46.7104V50.8999H77.0996V45.6167H78.4229L78.5107 46.7104ZM78.3154 48.0728H77.9248C77.9248 47.7049 77.9688 47.3664 78.0566 47.0571C78.1478 46.7446 78.2796 46.4744 78.4521 46.2466C78.6279 46.0155 78.8444 45.8364 79.1016 45.7095C79.3587 45.5825 79.6566 45.519 79.9951 45.519C80.2295 45.519 80.4443 45.5549 80.6396 45.6265C80.835 45.6948 81.0026 45.8039 81.1426 45.9536C81.2858 46.1001 81.3965 46.2922 81.4746 46.5298C81.5527 46.7642 81.5918 47.0457 81.5918 47.3745V50.8999H80.1855V47.5308C80.1855 47.2899 80.153 47.1043 80.0879 46.9741C80.0228 46.8439 79.93 46.7528 79.8096 46.7007C79.6924 46.6486 79.5508 46.6226 79.3848 46.6226C79.2025 46.6226 79.043 46.66 78.9062 46.7349C78.7728 46.8097 78.6621 46.9139 78.5742 47.0474C78.4863 47.1776 78.4212 47.3306 78.3789 47.5063C78.3366 47.6821 78.3154 47.8709 78.3154 48.0728ZM81.46 47.9116L80.957 47.9751C80.957 47.63 80.9993 47.3094 81.084 47.0132C81.1719 46.717 81.3005 46.4565 81.4697 46.2319C81.6423 46.0073 81.8555 45.8332 82.1094 45.7095C82.3633 45.5825 82.6562 45.519 82.9883 45.519C83.2422 45.519 83.4733 45.5565 83.6816 45.6313C83.89 45.703 84.0674 45.8185 84.2139 45.978C84.3636 46.1343 84.4775 46.3394 84.5557 46.5933C84.637 46.8472 84.6777 47.158 84.6777 47.5259V50.8999H83.2666V47.5259C83.2666 47.2817 83.2341 47.0962 83.1689 46.9692C83.1071 46.839 83.0159 46.7495 82.8955 46.7007C82.7783 46.6486 82.6383 46.6226 82.4756 46.6226C82.3063 46.6226 82.1582 46.6567 82.0312 46.7251C81.9043 46.7902 81.7985 46.8813 81.7139 46.9985C81.6292 47.1157 81.5658 47.2524 81.5234 47.4087C81.4811 47.5617 81.46 47.7293 81.46 47.9116Z" fill="#112244"/>
<path d="M88.1982 50.9976C87.7881 50.9976 87.4202 50.9325 87.0947 50.8022C86.7692 50.6688 86.4925 50.4849 86.2646 50.2505C86.04 50.0161 85.8675 49.7443 85.7471 49.4351C85.6266 49.1226 85.5664 48.7905 85.5664 48.439V48.2437C85.5664 47.8433 85.6234 47.4771 85.7373 47.145C85.8512 46.813 86.014 46.5249 86.2256 46.2808C86.4404 46.0366 86.7008 45.8494 87.0068 45.7192C87.3128 45.5858 87.6579 45.519 88.042 45.519C88.4163 45.519 88.7484 45.5809 89.0381 45.7046C89.3278 45.8283 89.5703 46.0041 89.7656 46.2319C89.9642 46.4598 90.1139 46.7332 90.2148 47.0522C90.3158 47.368 90.3662 47.7196 90.3662 48.1069V48.6929H86.167V47.7554H88.9844V47.6479C88.9844 47.4526 88.9486 47.2785 88.877 47.1255C88.8086 46.9692 88.7044 46.8455 88.5645 46.7544C88.4245 46.6632 88.2454 46.6177 88.0273 46.6177C87.8418 46.6177 87.6823 46.6584 87.5488 46.7397C87.4154 46.8211 87.3063 46.9351 87.2217 47.0815C87.1403 47.228 87.0784 47.4006 87.0361 47.5991C86.9971 47.7944 86.9775 48.0093 86.9775 48.2437V48.439C86.9775 48.6506 87.0068 48.8459 87.0654 49.0249C87.1273 49.2039 87.2135 49.3586 87.3242 49.4888C87.4382 49.619 87.5749 49.7199 87.7344 49.7915C87.8971 49.8631 88.0811 49.8989 88.2861 49.8989C88.54 49.8989 88.776 49.8501 88.9941 49.7524C89.2155 49.6515 89.4059 49.5002 89.5654 49.2983L90.249 50.0405C90.1383 50.2 89.987 50.353 89.7949 50.4995C89.6061 50.646 89.3783 50.7664 89.1113 50.8608C88.8444 50.952 88.54 50.9976 88.1982 50.9976Z" fill="#112244"/>
<path d="M92.5439 46.7446V50.8999H91.1377V45.6167H92.4561L92.5439 46.7446ZM92.3389 48.0728H91.958C91.958 47.6821 92.0085 47.3306 92.1094 47.0181C92.2103 46.7023 92.3519 46.4338 92.5342 46.2124C92.7165 45.9878 92.9329 45.8169 93.1836 45.6997C93.4375 45.5793 93.7207 45.519 94.0332 45.519C94.2806 45.519 94.5068 45.5549 94.7119 45.6265C94.917 45.6981 95.0928 45.812 95.2393 45.9683C95.389 46.1245 95.5029 46.3312 95.5811 46.5884C95.6624 46.8455 95.7031 47.1597 95.7031 47.5308V50.8999H94.2871V47.5259C94.2871 47.2915 94.2546 47.1092 94.1895 46.979C94.1243 46.8488 94.0283 46.7576 93.9014 46.7056C93.7777 46.6502 93.6247 46.6226 93.4424 46.6226C93.2536 46.6226 93.0892 46.66 92.9492 46.7349C92.8125 46.8097 92.6986 46.9139 92.6074 47.0474C92.5195 47.1776 92.4528 47.3306 92.4072 47.5063C92.3617 47.6821 92.3389 47.8709 92.3389 48.0728Z" fill="#112244"/>
<path d="M99.3604 45.6167V46.6128H96.2842V45.6167H99.3604ZM97.0459 44.313H98.4521V49.3081C98.4521 49.4611 98.4717 49.5783 98.5107 49.6597C98.5531 49.741 98.6149 49.798 98.6963 49.8306C98.7777 49.8599 98.8802 49.8745 99.0039 49.8745C99.0918 49.8745 99.1699 49.8713 99.2383 49.8647C99.3099 49.855 99.3701 49.8452 99.4189 49.8354L99.4238 50.8706C99.3034 50.9097 99.1732 50.9406 99.0332 50.9634C98.8932 50.9862 98.7386 50.9976 98.5693 50.9976C98.2601 50.9976 97.9899 50.9471 97.7588 50.8462C97.5309 50.742 97.3551 50.576 97.2314 50.3481C97.1077 50.1203 97.0459 49.8208 97.0459 49.4497V44.313Z" fill="#112244"/>
<path d="M53.5205 61.5415H54.9805C54.9512 62.02 54.8193 62.4448 54.585 62.8159C54.3538 63.187 54.0299 63.4767 53.6133 63.6851C53.1999 63.8934 52.7018 63.9976 52.1191 63.9976C51.6634 63.9976 51.2549 63.9194 50.8936 63.7632C50.5322 63.6037 50.223 63.3758 49.9658 63.0796C49.7119 62.7834 49.5182 62.4253 49.3848 62.0054C49.2513 61.5854 49.1846 61.1151 49.1846 60.5942V60.1011C49.1846 59.5802 49.2529 59.1099 49.3896 58.6899C49.5296 58.2668 49.7282 57.9071 49.9854 57.6108C50.2458 57.3146 50.5566 57.0868 50.918 56.9272C51.2793 56.7677 51.6829 56.688 52.1289 56.688C52.7214 56.688 53.221 56.7954 53.6279 57.0103C54.0381 57.2251 54.3555 57.5213 54.5801 57.8989C54.8079 58.2765 54.9447 58.7062 54.9902 59.188H53.5254C53.5091 58.9015 53.4521 58.659 53.3545 58.4604C53.2568 58.2586 53.1087 58.1073 52.9102 58.0063C52.7148 57.9022 52.4544 57.8501 52.1289 57.8501C51.8848 57.8501 51.6715 57.8957 51.4893 57.9868C51.307 58.078 51.154 58.2163 51.0303 58.4019C50.9066 58.5874 50.8138 58.8218 50.752 59.105C50.6934 59.3849 50.6641 59.7137 50.6641 60.0913V60.5942C50.6641 60.9621 50.6917 61.286 50.7471 61.5659C50.8024 61.8426 50.887 62.077 51.001 62.269C51.1182 62.4578 51.2679 62.6011 51.4502 62.6987C51.6357 62.7931 51.8587 62.8403 52.1191 62.8403C52.4251 62.8403 52.6774 62.7915 52.876 62.6938C53.0745 62.5962 53.2259 62.4513 53.3301 62.2593C53.4375 62.0672 53.501 61.828 53.5205 61.5415Z" fill="#112244"/>
<path d="M55.6299 61.312V61.2095C55.6299 60.8221 55.6852 60.4657 55.7959 60.1401C55.9066 59.8114 56.0677 59.5265 56.2793 59.2856C56.4909 59.0448 56.7513 58.8576 57.0605 58.7241C57.3698 58.5874 57.7246 58.519 58.125 58.519C58.5254 58.519 58.8818 58.5874 59.1943 58.7241C59.5068 58.8576 59.7689 59.0448 59.9805 59.2856C60.1953 59.5265 60.3581 59.8114 60.4688 60.1401C60.5794 60.4657 60.6348 60.8221 60.6348 61.2095V61.312C60.6348 61.6961 60.5794 62.0526 60.4688 62.3813C60.3581 62.7069 60.1953 62.9917 59.9805 63.2358C59.7689 63.4767 59.5085 63.6639 59.1992 63.7974C58.89 63.9308 58.5352 63.9976 58.1348 63.9976C57.7344 63.9976 57.3779 63.9308 57.0654 63.7974C56.7562 63.6639 56.4941 63.4767 56.2793 63.2358C56.0677 62.9917 55.9066 62.7069 55.7959 62.3813C55.6852 62.0526 55.6299 61.6961 55.6299 61.312ZM57.0361 61.2095V61.312C57.0361 61.5334 57.0557 61.7401 57.0947 61.9321C57.1338 62.1242 57.1956 62.2935 57.2803 62.4399C57.3682 62.5832 57.4821 62.6955 57.6221 62.7769C57.762 62.8582 57.9329 62.8989 58.1348 62.8989C58.3301 62.8989 58.4977 62.8582 58.6377 62.7769C58.7777 62.6955 58.89 62.5832 58.9746 62.4399C59.0592 62.2935 59.1211 62.1242 59.1602 61.9321C59.2025 61.7401 59.2236 61.5334 59.2236 61.312V61.2095C59.2236 60.9946 59.2025 60.7928 59.1602 60.604C59.1211 60.4119 59.0576 60.2427 58.9697 60.0962C58.8851 59.9465 58.7728 59.8293 58.6328 59.7446C58.4928 59.66 58.3236 59.6177 58.125 59.6177C57.9264 59.6177 57.7572 59.66 57.6172 59.7446C57.4805 59.8293 57.3682 59.9465 57.2803 60.0962C57.1956 60.2427 57.1338 60.4119 57.0947 60.604C57.0557 60.7928 57.0361 60.9946 57.0361 61.2095Z" fill="#112244"/>
<path d="M62.9053 59.7104V63.8999H61.4941V58.6167H62.8174L62.9053 59.7104ZM62.71 61.0728H62.3193C62.3193 60.7049 62.3633 60.3664 62.4512 60.0571C62.5423 59.7446 62.6742 59.4744 62.8467 59.2466C63.0225 59.0155 63.2389 58.8364 63.4961 58.7095C63.7533 58.5825 64.0511 58.519 64.3896 58.519C64.624 58.519 64.8389 58.5548 65.0342 58.6265C65.2295 58.6948 65.3971 58.8039 65.5371 58.9536C65.6803 59.1001 65.791 59.2922 65.8691 59.5298C65.9473 59.7642 65.9863 60.0457 65.9863 60.3745V63.8999H64.5801V60.5308C64.5801 60.2899 64.5475 60.1043 64.4824 59.9741C64.4173 59.8439 64.3245 59.7528 64.2041 59.7007C64.0869 59.6486 63.9453 59.6226 63.7793 59.6226C63.597 59.6226 63.4375 59.66 63.3008 59.7349C63.1673 59.8097 63.0566 59.9139 62.9688 60.0474C62.8809 60.1776 62.8158 60.3306 62.7734 60.5063C62.7311 60.6821 62.71 60.8709 62.71 61.0728ZM65.8545 60.9116L65.3516 60.9751C65.3516 60.63 65.3939 60.3094 65.4785 60.0132C65.5664 59.717 65.695 59.4565 65.8643 59.2319C66.0368 59.0073 66.25 58.8332 66.5039 58.7095C66.7578 58.5825 67.0508 58.519 67.3828 58.519C67.6367 58.519 67.8678 58.5565 68.0762 58.6313C68.2845 58.703 68.4619 58.8185 68.6084 58.978C68.7581 59.1343 68.8721 59.3394 68.9502 59.5933C69.0316 59.8472 69.0723 60.158 69.0723 60.5259V63.8999H67.6611V60.5259C67.6611 60.2817 67.6286 60.0962 67.5635 59.9692C67.5016 59.839 67.4105 59.7495 67.29 59.7007C67.1729 59.6486 67.0329 59.6226 66.8701 59.6226C66.7008 59.6226 66.5527 59.6567 66.4258 59.7251C66.2988 59.7902 66.193 59.8813 66.1084 59.9985C66.0238 60.1157 65.9603 60.2524 65.918 60.4087C65.8757 60.5617 65.8545 60.7293 65.8545 60.9116Z" fill="#112244"/>
<path d="M71.5674 59.6323V65.9312H70.1611V58.6167H71.4648L71.5674 59.6323ZM74.9121 61.1997V61.3022C74.9121 61.6864 74.8665 62.0428 74.7754 62.3716C74.6875 62.7004 74.5573 62.9868 74.3848 63.231C74.2122 63.4718 73.9974 63.6606 73.7402 63.7974C73.4863 63.9308 73.1934 63.9976 72.8613 63.9976C72.5391 63.9976 72.2591 63.9325 72.0215 63.8022C71.7839 63.672 71.5837 63.4897 71.4209 63.2554C71.2614 63.0177 71.1328 62.7427 71.0352 62.4302C70.9375 62.1177 70.8626 61.7824 70.8105 61.4243V61.1558C70.8626 60.7716 70.9375 60.4201 71.0352 60.1011C71.1328 59.7788 71.2614 59.5005 71.4209 59.2661C71.5837 59.0285 71.7822 58.8446 72.0166 58.7144C72.2542 58.5841 72.5326 58.519 72.8516 58.519C73.1868 58.519 73.4814 58.5825 73.7354 58.7095C73.9925 58.8364 74.2074 59.0187 74.3799 59.2563C74.5557 59.494 74.6875 59.7772 74.7754 60.106C74.8665 60.4347 74.9121 60.7993 74.9121 61.1997ZM73.501 61.3022V61.1997C73.501 60.9751 73.4814 60.7684 73.4424 60.5796C73.4066 60.3875 73.348 60.2199 73.2666 60.0767C73.1885 59.9334 73.0843 59.8228 72.9541 59.7446C72.8271 59.6632 72.6725 59.6226 72.4902 59.6226C72.2982 59.6226 72.1338 59.6535 71.9971 59.7153C71.8636 59.7772 71.7546 59.8667 71.6699 59.9839C71.5853 60.1011 71.5218 60.241 71.4795 60.4038C71.4372 60.5666 71.4111 60.7505 71.4014 60.9556V61.6343C71.4176 61.8752 71.4632 62.0916 71.5381 62.2837C71.613 62.4725 71.7285 62.6222 71.8848 62.7329C72.041 62.8436 72.2461 62.8989 72.5 62.8989C72.6855 62.8989 72.8418 62.8582 72.9688 62.7769C73.0957 62.6922 73.1982 62.5767 73.2764 62.4302C73.3577 62.2837 73.4147 62.1144 73.4473 61.9224C73.4831 61.7303 73.501 61.5236 73.501 61.3022Z" fill="#112244"/>
<path d="M78.6377 62.7085V60.355C78.6377 60.1857 78.61 60.0409 78.5547 59.9204C78.4993 59.7967 78.4131 59.7007 78.2959 59.6323C78.182 59.564 78.0339 59.5298 77.8516 59.5298C77.6953 59.5298 77.5602 59.5575 77.4463 59.6128C77.3324 59.6649 77.2445 59.7414 77.1826 59.8423C77.1208 59.9399 77.0898 60.0555 77.0898 60.189H75.6836C75.6836 59.9644 75.7357 59.7511 75.8398 59.5493C75.944 59.3475 76.0954 59.1701 76.2939 59.0171C76.4925 58.8608 76.7285 58.7388 77.002 58.6509C77.2786 58.563 77.5879 58.519 77.9297 58.519C78.3398 58.519 78.7044 58.5874 79.0234 58.7241C79.3424 58.8608 79.5931 59.0659 79.7754 59.3394C79.9609 59.6128 80.0537 59.9546 80.0537 60.3647V62.6255C80.0537 62.9152 80.0716 63.1528 80.1074 63.3384C80.1432 63.5207 80.1953 63.6802 80.2637 63.8169V63.8999H78.8428C78.7744 63.7567 78.7223 63.5776 78.6865 63.3628C78.654 63.1447 78.6377 62.9266 78.6377 62.7085ZM78.8232 60.6821L78.833 61.478H78.0469C77.8613 61.478 77.7002 61.4992 77.5635 61.5415C77.4268 61.5838 77.3145 61.644 77.2266 61.7222C77.1387 61.797 77.0736 61.8849 77.0312 61.9858C76.9922 62.0868 76.9727 62.1974 76.9727 62.3179C76.9727 62.4383 77.0003 62.5474 77.0557 62.645C77.111 62.7394 77.1908 62.8143 77.2949 62.8696C77.3991 62.9217 77.5212 62.9478 77.6611 62.9478C77.8727 62.9478 78.0566 62.9054 78.2129 62.8208C78.3691 62.7362 78.4896 62.632 78.5742 62.5083C78.6621 62.3846 78.7077 62.2674 78.7109 62.1567L79.082 62.7524C79.0299 62.8859 78.9583 63.0243 78.8672 63.1675C78.7793 63.3107 78.667 63.4458 78.5303 63.5728C78.3936 63.6965 78.2292 63.799 78.0371 63.8804C77.8451 63.9585 77.6172 63.9976 77.3535 63.9976C77.0182 63.9976 76.7139 63.9308 76.4404 63.7974C76.1702 63.6606 75.9554 63.4735 75.7959 63.2358C75.6396 62.995 75.5615 62.7215 75.5615 62.4155C75.5615 62.1388 75.6136 61.8931 75.7178 61.6782C75.8219 61.4634 75.9749 61.2827 76.1768 61.1362C76.3818 60.9865 76.6374 60.8742 76.9434 60.7993C77.2493 60.7212 77.6042 60.6821 78.0078 60.6821H78.8232Z" fill="#112244"/>
<path d="M82.5146 59.7446V63.8999H81.1084V58.6167H82.4268L82.5146 59.7446ZM82.3096 61.0728H81.9287C81.9287 60.6821 81.9792 60.3306 82.0801 60.0181C82.181 59.7023 82.3226 59.4338 82.5049 59.2124C82.6872 58.9878 82.9036 58.8169 83.1543 58.6997C83.4082 58.5793 83.6914 58.519 84.0039 58.519C84.2513 58.519 84.4775 58.5548 84.6826 58.6265C84.8877 58.6981 85.0635 58.812 85.21 58.9683C85.3597 59.1245 85.4736 59.3312 85.5518 59.5884C85.6331 59.8455 85.6738 60.1597 85.6738 60.5308V63.8999H84.2578V60.5259C84.2578 60.2915 84.2253 60.1092 84.1602 59.979C84.0951 59.8488 83.999 59.7577 83.8721 59.7056C83.7484 59.6502 83.5954 59.6226 83.4131 59.6226C83.2243 59.6226 83.0599 59.66 82.9199 59.7349C82.7832 59.8097 82.6693 59.9139 82.5781 60.0474C82.4902 60.1776 82.4235 60.3306 82.3779 60.5063C82.3324 60.6821 82.3096 60.8709 82.3096 61.0728Z" fill="#112244"/>
<path d="M88.3105 63.3042L89.7119 58.6167H91.2207L89.0967 64.6958C89.0511 64.8293 88.9893 64.9725 88.9111 65.1255C88.8363 65.2785 88.7337 65.4233 88.6035 65.5601C88.4766 65.7 88.3154 65.814 88.1201 65.9019C87.9281 65.9897 87.6921 66.0337 87.4121 66.0337C87.2786 66.0337 87.1696 66.0256 87.085 66.0093C87.0003 65.993 86.8994 65.9702 86.7822 65.9409V64.9106C86.818 64.9106 86.8555 64.9106 86.8945 64.9106C86.9336 64.9139 86.971 64.9155 87.0068 64.9155C87.1924 64.9155 87.3438 64.8944 87.4609 64.8521C87.5781 64.8097 87.6725 64.7446 87.7441 64.6567C87.8158 64.5721 87.8727 64.4614 87.915 64.3247L88.3105 63.3042ZM87.7246 58.6167L88.8721 62.4448L89.0723 63.9341L88.1152 64.0366L86.2158 58.6167H87.7246Z" fill="#112244"/>
</svg>
