<svg width="106" height="122" viewBox="0 0 106 122" fill="none" xmlns="http://www.w3.org/2000/svg">
<mask id="mask0_13815_915" style="mask-type:luminance" maskUnits="userSpaceOnUse" x="0" y="7" width="106" height="108">
<path d="M99.375 7.5H6.625C2.96612 7.5 0 10.4941 0 14.1875V107.812C0 111.506 2.96612 114.5 6.625 114.5H99.375C103.034 114.5 106 111.506 106 107.812V14.1875C106 10.4941 103.034 7.5 99.375 7.5Z" fill="white"/>
</mask>
<g mask="url(#mask0_13815_915)">
<path fill-rule="evenodd" clip-rule="evenodd" d="M0.167236 7.5H105.832V114.5H0.167236V7.5ZM51.288 22.922C50.9372 22.922 50.1511 22.9732 49.534 23.0329C48.9169 23.0884 48.0715 23.1865 47.6531 23.242C47.2346 23.3017 46.5796 23.4084 46.195 23.4809C45.8102 23.5534 45.2228 23.6686 44.8847 23.7412C44.5465 23.8137 43.9294 23.9587 43.511 24.0654C43.0927 24.1721 42.4459 24.3513 42.0741 24.4622C41.7021 24.5774 41.0089 24.8036 40.5313 24.9656C40.0536 25.1321 39.352 25.3881 38.9674 25.5415C38.5829 25.6952 37.9826 25.947 37.636 26.1048C37.2852 26.2626 36.6005 26.587 36.1146 26.8301C35.6285 27.0775 34.9394 27.4359 34.593 27.6322C34.2422 27.8285 33.7392 28.1271 33.4728 28.2893C33.2065 28.4513 32.8726 28.6604 32.7332 28.75C32.5937 28.8396 32.281 29.0486 32.0359 29.2108C31.7906 29.3772 31.3257 29.7057 31.0002 29.9404C30.6748 30.175 30.1973 30.5291 29.9437 30.7297C29.69 30.9302 29.259 31.2757 28.9927 31.4976C28.7264 31.7238 28.253 32.1376 27.9403 32.4191C27.6274 32.7008 27.1034 33.1914 26.7821 33.5072C26.4566 33.8228 25.8945 34.4073 25.5311 34.8084C25.1676 35.2095 24.7449 35.6788 24.5927 35.8537C24.4407 36.0285 24.1447 36.387 23.9377 36.643C23.7305 36.8989 23.3755 37.3512 23.1557 37.6456C22.9316 37.94 22.5724 38.4392 22.3526 38.7549C22.1328 39.0707 21.8708 39.4504 21.7736 39.5997C21.6764 39.7448 21.6088 39.877 21.6214 39.8983C21.6341 39.9153 21.8877 39.9367 22.1794 39.9452C22.4752 39.9538 22.7837 39.9496 22.8641 39.9367C22.9951 39.9153 23.0627 39.8429 23.4981 39.2583C23.7644 38.9 24.2419 38.2814 24.5589 37.8803C24.8759 37.4792 25.417 36.8307 25.7635 36.4296C26.1058 36.0285 26.7314 35.3588 27.1541 34.9365C27.5725 34.514 28.1727 33.9338 28.4855 33.6521C28.7982 33.3706 29.2547 32.978 29.4998 32.7818C29.745 32.5898 30.0832 32.3339 30.2523 32.2229C30.4171 32.1077 30.5776 32.0139 30.5988 32.0139C30.62 32.0139 30.7679 32.0991 30.9242 32.2016C31.0849 32.3039 31.7442 32.6923 32.3951 33.0591C33.046 33.4261 33.7561 33.8399 33.9715 33.9721C34.1872 34.1044 34.3604 34.2239 34.3604 34.2452C34.3604 34.2624 33.9843 34.7487 33.5278 35.3332C33.0671 35.9133 32.4839 36.6644 32.2345 37.0056C31.9809 37.347 31.5708 37.9315 31.3172 38.307C31.068 38.6823 30.7425 39.1944 30.5946 39.4504C30.4465 39.702 30.3324 39.9197 30.3452 39.9282C30.3578 39.9411 30.4805 39.9666 30.62 39.9922C30.7932 40.0178 31.0002 40.0178 31.275 39.9879C31.4948 39.9623 31.6892 39.9325 31.7104 39.9238C31.7273 39.9153 31.9259 39.6338 32.15 39.3011C32.3739 38.964 32.7206 38.469 32.9192 38.2003C33.1136 37.9315 33.4475 37.4878 33.6588 37.2189C33.8659 36.9502 34.221 36.5065 34.4492 36.2377C34.6733 35.9689 35.0451 35.5465 35.2734 35.2991C35.5016 35.0517 35.7045 34.8554 35.7298 34.8554C35.7552 34.8596 36.3173 35.0687 36.9809 35.3203C37.6444 35.5721 38.6632 35.9476 39.2422 36.1524C39.8254 36.3571 40.6413 36.6259 41.0596 36.7496C41.5204 36.8862 41.8584 37.0099 41.9176 37.0654C41.9684 37.1166 42.0106 37.1678 42.0106 37.1892C42.0106 37.2062 41.7528 37.8163 41.4401 38.5415C41.1272 39.267 40.8695 39.877 40.8695 39.8983C40.8695 39.9153 40.9793 39.9452 41.1103 39.9623C41.2456 39.9793 41.5245 39.9837 41.7359 39.9708C41.9472 39.9538 42.1373 39.9282 42.167 39.9153C42.1966 39.8983 42.4206 39.4545 42.6657 38.9256C42.9108 38.3966 43.1814 37.8462 43.2575 37.7011C43.3504 37.5304 43.4307 37.4322 43.4814 37.4322C43.5195 37.4322 43.7899 37.4792 44.0816 37.5389C44.3733 37.5988 44.9904 37.714 45.4553 37.7949C45.9202 37.876 46.5753 37.9826 46.9135 38.0253C47.2515 38.0722 47.8983 38.1491 48.3504 38.196C48.8028 38.2429 49.6016 38.3112 50.1258 38.3496C50.6498 38.3837 51.2964 38.4263 51.5627 38.4434L52.0445 38.4775C52.2009 38.7507 52.2178 38.8574 52.2221 39.2242C52.2264 39.4716 52.2305 39.7234 52.2348 39.7916L52.239 39.9068C53.397 39.9068 53.5111 39.8941 53.528 39.8429C53.5408 39.8087 53.5492 39.5868 53.5492 39.3522C53.5492 39.1175 53.5704 38.836 53.5915 38.7251L53.6337 38.5203C54.3396 38.469 54.9989 38.4136 55.5569 38.3667C56.1148 38.324 56.8375 38.2558 57.163 38.2174C57.4885 38.1833 58.0421 38.1149 58.3886 38.0681C58.7396 38.0211 59.2509 37.9485 59.5299 37.8974C59.8089 37.8504 60.2484 37.7736 60.502 37.7267C60.7556 37.6755 61.1657 37.5901 61.4108 37.5304C61.6559 37.4707 61.9221 37.4237 62.0024 37.4281C62.0827 37.4322 62.1715 37.4536 62.1927 37.4749C62.2137 37.4963 62.5097 38.051 62.8477 38.7081L63.4606 39.9026C63.8875 39.9496 64.1452 39.9496 64.3059 39.9367C64.4666 39.9238 64.6357 39.9026 64.6779 39.8897C64.716 39.877 64.7498 39.8386 64.7498 39.813C64.7498 39.7831 64.4878 39.156 64.1708 38.4222C63.6593 37.2574 63.5959 37.0825 63.6509 37.0312C63.6846 37.0014 63.9341 36.916 64.2002 36.8436C64.4666 36.771 65.1344 36.5577 65.6796 36.3699C66.2248 36.1865 67.0448 35.8878 67.497 35.7129C67.9493 35.538 68.7016 35.2351 69.1665 35.0431L70.0118 34.6976C70.4261 35.1455 70.7853 35.5678 71.0854 35.9177C71.3812 36.2718 71.8293 36.8265 72.0828 37.1551C72.3366 37.4836 72.8099 38.1149 73.1311 38.5629C73.4524 39.0108 73.7947 39.493 73.8919 39.6338L74.0693 39.8941C74.5597 39.9324 74.8556 39.9282 75.0415 39.9111C75.2275 39.8941 75.4051 39.8685 75.4346 39.8515C75.4684 39.8301 75.4134 39.702 75.2401 39.4077C75.105 39.1773 74.8683 38.7975 74.7202 38.5629C74.5682 38.3282 74.285 37.9229 74.0905 37.667C73.8961 37.411 73.5284 36.9203 73.2748 36.5789C73.017 36.2377 72.6958 35.8154 72.552 35.6403C72.4083 35.4655 72.0913 35.0899 71.842 34.8084C71.4785 34.3988 71.3855 34.2709 71.3855 34.1684C71.3855 34.0447 71.4405 34.0062 73.0635 33.0506C73.9892 32.5087 74.8471 32.0224 74.9697 31.9754L75.1894 31.8858C76.187 32.705 76.7236 33.1573 77.0281 33.4261C77.3323 33.6906 78.0466 34.3817 78.6172 34.9577C79.1878 35.5337 79.8556 36.2333 80.1007 36.5151C80.3417 36.7966 80.8278 37.3854 81.1743 37.8206C81.521 38.2556 81.9943 38.8829 82.2267 39.2115L82.6494 39.813C83.6385 39.9111 83.7864 39.9111 83.9386 39.8685C84.0443 39.8386 84.133 39.8087 84.1415 39.7959C84.1456 39.7874 83.9174 39.446 83.6342 39.0451C83.3511 38.6397 82.9369 38.0681 82.7171 37.7736C82.4973 37.4792 82.155 37.0399 81.9562 36.7923C81.7576 36.5448 81.3181 36.0285 80.9799 35.6403C80.6418 35.2521 80.0331 34.5951 79.6274 34.1728C79.2216 33.7546 78.5834 33.1317 78.2114 32.7903C77.8394 32.4532 77.2097 31.8987 76.8167 31.5658C76.4237 31.2331 75.7728 30.7126 75.3796 30.4139C74.9866 30.1153 74.1962 29.5564 73.6256 29.1767C73.055 28.7927 72.3069 28.3105 71.9561 28.1057C71.6095 27.9011 71.0389 27.5767 70.6881 27.3848C70.3416 27.1927 69.6526 26.8429 69.1665 26.6082C68.6806 26.3736 68.0591 26.0834 67.793 25.964C67.5266 25.8445 67.0617 25.6482 66.7573 25.5288C66.4531 25.4051 65.874 25.1874 65.4683 25.0381C65.0625 24.8888 64.3862 24.6628 63.9679 24.5304C63.5493 24.4025 62.8731 24.2105 62.4673 24.1038C62.0617 23.9971 61.4149 23.8393 61.0303 23.7582C60.6458 23.6729 60.0878 23.5577 59.7835 23.498C59.4791 23.4382 58.7775 23.3273 58.2197 23.2462C57.6617 23.1694 56.9686 23.0799 56.6769 23.0543C56.3852 23.0244 56.1022 23.0159 56.0429 23.0287C55.9838 23.0414 55.9162 23.0329 55.895 23.0159C55.8739 22.9945 55.5864 22.9561 55.261 22.9305C54.9355 22.9049 54.2677 22.8793 53.7818 22.8665C53.2957 22.858 52.6744 22.8665 52.4081 22.8836C52.1418 22.9007 51.6387 22.9177 51.288 22.922ZM42.4333 43.3201C42.1882 43.3457 41.7147 43.4139 41.3766 43.4736C41.0384 43.5334 40.5271 43.6357 40.2355 43.7083C39.9438 43.7765 39.4873 43.9046 39.221 43.9857C38.9547 44.0709 38.4772 44.2458 38.1643 44.3739C37.8516 44.5019 37.3276 44.745 37.0021 44.9157C36.6767 45.0821 36.1906 45.368 35.9243 45.5428C35.6579 45.7177 35.2692 46.008 35.0579 46.1872C34.8465 46.3621 34.5506 46.6436 34.3942 46.8143C34.2337 46.9807 33.9631 47.3135 33.7857 47.5524C33.6082 47.7955 33.3925 48.1155 33.3037 48.2692C33.215 48.4228 33.0755 48.6915 32.9867 48.8665C32.898 49.0414 32.7416 49.4084 32.6402 49.6771C32.5346 49.9459 32.3867 50.4195 32.3105 50.7223C32.2345 51.0253 32.1372 51.5074 32.095 51.789C32.0359 52.173 32.0147 52.5527 32.0147 53.3249C32.0147 53.9564 32.0359 54.5068 32.0697 54.7542C32.1035 54.9761 32.1838 55.4283 32.2472 55.7568C32.3148 56.0854 32.4415 56.5546 32.5218 56.8021C32.6065 57.0495 32.8009 57.4891 32.9488 57.7835C33.1009 58.0777 33.3418 58.4832 33.4856 58.688C33.6292 58.8928 33.8617 59.1955 34.0012 59.3662C34.1406 59.5326 34.4745 59.8869 34.7409 60.147C35.0072 60.4073 35.4678 60.8041 35.7636 61.0259C36.0553 61.2478 36.4948 61.5551 36.7358 61.7085C36.9725 61.8578 37.4205 62.1096 37.7206 62.2674C38.0207 62.4253 38.5067 62.6557 38.7983 62.7752C39.09 62.8989 40.0029 63.2231 40.8271 63.5005C41.6514 63.7778 42.8982 64.1789 43.5955 64.3879C44.293 64.6012 45.823 65.0663 46.9979 65.4204C48.173 65.7745 49.7876 66.2738 50.5907 66.5339C51.3936 66.7942 52.1333 67.0545 52.239 67.1099C52.3446 67.1654 52.5306 67.3147 52.6532 67.4342C52.8096 67.592 52.8983 67.7201 52.9364 67.8523C52.9702 67.9717 52.9786 68.1083 52.9618 68.215C52.9449 68.3088 52.9111 68.424 52.8857 68.4709C52.8602 68.5179 52.7758 68.6161 52.6954 68.6885C52.6194 68.7654 52.48 68.872 52.3869 68.9275C52.2897 68.9872 51.9811 69.0895 51.6684 69.1664C51.3641 69.2388 50.8737 69.337 50.5695 69.384C50.2652 69.4309 49.7622 69.4906 49.4494 69.5162C49.1367 69.5376 48.6802 69.5588 48.4351 69.5588C48.1899 69.5588 47.7335 69.5376 47.4206 69.512C47.1079 69.4864 46.5753 69.4224 46.2372 69.3627C45.899 69.3072 45.4131 69.2047 45.1595 69.1322C44.9058 69.064 44.4662 68.9317 44.1873 68.8336C43.9084 68.7354 43.3378 68.4838 42.9193 68.279C42.4966 68.0657 41.9134 67.7372 41.609 67.528C41.3091 67.3232 40.899 67.0204 40.7004 66.8539C40.5059 66.6876 40.1805 66.3931 39.9819 66.2012C39.7578 65.9879 39.5423 65.7234 39.4112 65.5101C39.297 65.3223 39.09 64.9894 38.9506 64.7719L38.7054 64.3752C33.7476 64.422 32.3063 64.4434 32.302 64.4476C32.302 64.4561 32.2726 65.9111 32.2472 67.6816C32.2176 69.4522 32.2048 71.7262 32.2217 72.7374C32.2345 73.7486 32.2641 75.003 32.281 75.5278L32.3105 76.4834C37.7798 76.4322 39.3732 76.4152 39.3774 76.4152C39.3817 76.4108 39.407 75.9074 39.4324 75.2974C39.462 74.6871 39.4873 74.1837 39.4915 74.1752C39.4915 74.1667 39.5339 74.171 39.5803 74.1837C39.6268 74.1966 40.1762 74.4867 40.8061 74.8281C41.4358 75.1693 42.1839 75.5405 42.4756 75.6557C42.7672 75.7708 43.2997 75.9629 43.6589 76.0823C44.0182 76.1975 44.6184 76.3724 44.9904 76.4663C45.3622 76.5601 45.9118 76.6839 46.216 76.7437C46.5204 76.8034 46.9347 76.8801 47.146 76.9142C47.3572 76.9527 47.7714 77.0082 48.0758 77.0465C48.3801 77.0808 49.0353 77.1276 49.534 77.1533C50.1299 77.1789 50.7174 77.1789 51.2457 77.1533C51.6896 77.1276 52.2602 77.0893 52.5137 77.0637C52.7673 77.038 53.2534 76.9697 53.5915 76.9142C53.9297 76.8546 54.4325 76.7522 54.7116 76.6839C54.9905 76.6156 55.4639 76.4791 55.7683 76.3811C56.0725 76.2829 56.5502 76.1122 56.8376 75.9971C57.1208 75.8819 57.5476 75.6898 57.7886 75.5704C58.0252 75.4467 58.4098 75.2248 58.6424 75.0712C58.8747 74.9219 59.2467 74.6489 59.4665 74.4738C59.6863 74.2948 60.0581 73.9534 60.2907 73.7188C60.5232 73.4841 60.8866 73.0617 61.0979 72.78C61.3051 72.4985 61.5925 72.0762 61.7278 71.8414C61.8629 71.6069 62.0617 71.2314 62.163 71.0095C62.2687 70.7877 62.442 70.3269 62.5561 69.9855C62.6661 69.6443 62.8055 69.128 62.8646 68.8336C62.9238 68.5392 62.9915 68.1125 63.0125 67.8821C63.038 67.6561 63.0591 67.1739 63.0591 66.8156C63.0591 66.4615 63.0379 65.9964 63.0168 65.7831C62.9915 65.5697 62.9324 65.1986 62.8858 64.9511C62.8352 64.7037 62.7167 64.2642 62.6238 63.9697C62.5307 63.6755 62.3025 63.1378 62.125 62.7752C61.9433 62.4126 61.6644 61.9133 61.4994 61.6659C61.3389 61.4185 61.0769 61.0558 60.9162 60.8552C60.7599 60.6548 60.4175 60.2751 60.1638 60.0062C59.9102 59.7417 59.5299 59.3748 59.3186 59.1914C59.1073 59.0121 58.7944 58.7562 58.6212 58.6281C58.4479 58.5002 58.1056 58.2698 57.8604 58.1162C57.6152 57.9669 57.218 57.7322 56.9729 57.6043C56.7276 57.472 56.3092 57.2799 56.0429 57.1732C55.7767 57.0666 52.8392 56.1835 49.5128 55.2065C43.828 53.5383 43.4392 53.4189 42.9617 53.1842C42.5136 52.9623 42.4333 52.9026 42.2811 52.702C42.1839 52.5741 42.0741 52.382 42.036 52.2668C41.9979 52.1559 41.9684 51.9853 41.9684 51.8829C41.9684 51.7507 41.9979 51.6567 42.0951 51.5201C42.1627 51.4222 42.3023 51.26 42.4037 51.166C42.5009 51.0679 42.7122 50.9229 42.877 50.8375C43.0461 50.7522 43.3378 50.6541 43.5533 50.6115C43.8237 50.556 44.1197 50.5304 44.5803 50.5304C44.9311 50.5304 45.5144 50.5518 45.8695 50.573C46.2203 50.5986 46.7106 50.6456 46.9557 50.684C47.2008 50.7223 47.6657 50.8077 47.9912 50.876C48.3166 50.94 48.8577 51.0764 49.1958 51.1704C49.534 51.2685 50.0665 51.4434 50.3793 51.5629C50.692 51.6823 51.1866 51.8956 51.4783 52.0449C51.7698 52.1901 52.1883 52.4204 52.4081 52.557C52.6279 52.6893 52.9533 52.9068 53.1266 53.039C53.2998 53.1671 53.7183 53.5553 54.0564 53.8967C54.3987 54.2423 54.7919 54.6945 54.944 54.912L55.2187 55.3046C57.0192 55.3516 58.5027 55.3516 59.6778 55.3345C60.8528 55.3175 61.8588 55.2917 61.9136 55.2747L62.0151 55.2449C61.9686 48.9603 61.9433 46.4517 61.9264 45.6154C61.9095 44.7791 61.8798 44.0795 61.8629 44.0582C61.8419 44.041 60.4724 44.0283 58.8197 44.0325C57.163 44.0368 55.6414 44.0539 55.4301 44.0753L55.0496 44.1094C55.0117 45.5343 54.9864 45.8117 54.9398 45.9098L54.8807 46.0421C53.0843 45.0522 52.5263 44.775 52.1333 44.6257C51.8078 44.4976 51.3049 44.3184 51.0134 44.2246C50.7217 44.1306 50.1806 43.9728 49.8088 43.879C49.4368 43.785 48.8872 43.6613 48.583 43.6016C48.2787 43.5419 47.7588 43.4565 47.4206 43.4097C47.0826 43.3627 46.5415 43.3072 46.216 43.2816C45.8906 43.2602 45.2905 43.2305 44.8847 43.222C44.479 43.2091 43.8618 43.2176 43.511 43.2347C43.1644 43.2561 42.6784 43.2945 42.4333 43.3201ZM79.078 43.2773C78.8117 43.303 78.258 43.3712 77.8522 43.4309C77.4464 43.4906 76.8464 43.5931 76.5209 43.6657C76.1955 43.7339 75.6037 43.879 75.2106 43.9857C74.8175 44.0923 74.1962 44.2886 73.837 44.4165C73.4777 44.5488 72.962 44.7494 72.6958 44.8646C72.4295 44.9798 71.8589 45.257 71.4278 45.4832C70.9967 45.705 70.4642 46.008 70.2444 46.1444C70.0246 46.2853 69.623 46.5669 69.3568 46.7717C69.0905 46.9721 68.5833 47.4244 68.2325 47.7785C67.8816 48.1284 67.4336 48.6189 67.2434 48.8665C67.049 49.114 66.7278 49.5619 66.5291 49.8692C66.3305 50.1719 65.9923 50.7693 65.781 51.1918C65.5696 51.6141 65.3119 52.1986 65.2062 52.493C65.0963 52.7874 64.9399 53.2652 64.8555 53.5597C64.7667 53.8539 64.6145 54.5324 64.5088 55.0742C64.4074 55.6161 64.289 56.3029 64.2425 56.6102C64.1961 56.9173 64.1327 57.425 64.0989 57.7407C64.0608 58.0565 64.0101 58.6154 63.9848 58.978C63.9551 59.3962 63.9425 60.1726 63.9594 61.0899C63.972 61.9986 64.0058 62.7538 64.0482 63.1166C64.0861 63.4322 64.1664 63.9912 64.2256 64.3538C64.2849 64.7164 64.4074 65.3138 64.4962 65.6764C64.5848 66.039 64.7539 66.6235 64.868 66.9776C64.9822 67.3275 65.1556 67.8097 65.2569 68.0443C65.3541 68.279 65.5739 68.7483 65.743 69.0895C65.9163 69.4309 66.2417 69.994 66.4743 70.3481C66.7066 70.698 67.0279 71.1503 67.1843 71.3507C67.345 71.5514 67.6449 71.8926 67.8562 72.1145C68.0634 72.3321 68.4649 72.6991 68.7438 72.9251C69.0229 73.1555 69.4963 73.514 69.8005 73.7273C70.1048 73.9406 70.6078 74.2648 70.9206 74.4526C71.2333 74.6403 71.6601 74.8834 71.8715 74.9859C72.0828 75.0926 72.4633 75.276 72.7168 75.3912C72.9704 75.5107 73.4862 75.7197 73.858 75.8648C74.23 76.0056 74.8936 76.2274 75.3374 76.3553C75.7812 76.4878 76.4659 76.6583 76.8589 76.7394C77.252 76.8248 77.7888 76.9186 78.0423 76.957C78.2961 76.9953 78.7736 77.0552 79.099 77.0935C79.4245 77.1276 80.2614 77.1704 80.9588 77.1831C81.7576 77.2001 82.5099 77.1874 82.9876 77.1575C83.4059 77.1276 84.0527 77.0679 84.4245 77.0209C84.7965 76.9741 85.3206 76.8972 85.5869 76.8504C85.8532 76.8034 86.2928 76.7181 86.5589 76.6583C86.8253 76.5986 87.4636 76.4449 87.9749 76.3127C88.4863 76.1848 89.0781 76.0141 89.2851 75.9372C89.4923 75.8605 89.9234 75.6812 90.2361 75.5319C90.549 75.387 91.0308 75.1523 91.3056 75.0157C91.576 74.8749 92.0029 74.636 92.2564 74.4825C92.5059 74.3245 92.9073 74.0558 93.1525 73.8766C93.3976 73.7016 93.7399 73.4414 93.9133 73.2963C94.0866 73.1555 94.5093 72.7588 94.8475 72.4174C95.1855 72.0762 95.5997 71.6281 95.7645 71.4148C95.9336 71.2014 96.2379 70.7407 96.4451 70.3909C96.6521 70.0368 96.8972 69.5973 96.9903 69.4095C97.0832 69.2218 97.2777 68.7909 97.4214 68.4495C97.565 68.1083 97.7933 67.4939 97.9286 67.0843C98.0639 66.6747 98.254 66.022 98.347 65.6338C98.44 65.2456 98.5667 64.6609 98.6217 64.3324C98.6809 64.0039 98.757 63.5133 98.7908 63.2445C98.8246 62.9757 98.8796 62.5064 98.9091 62.1992C98.9387 61.8664 98.9599 61.0685 98.9599 60.194C98.9599 59.1402 98.9387 58.5385 98.8837 57.9968C98.8458 57.5872 98.7655 56.9343 98.7062 56.5461C98.6471 56.1579 98.5626 55.6502 98.5161 55.4154C98.4695 55.1809 98.3809 54.7883 98.3259 54.5409C98.2668 54.2934 98.1441 53.8241 98.0511 53.4956C97.9539 53.1671 97.806 52.6978 97.7172 52.4504C97.6285 52.2029 97.4849 51.8316 97.3918 51.6183C97.2989 51.4049 97.0875 50.9955 96.9226 50.7011C96.7621 50.4067 96.462 49.9374 96.2591 49.6558C96.0562 49.3741 95.7392 48.9732 95.5616 48.7599C95.38 48.5465 95.0376 48.1839 94.7966 47.9492C94.5558 47.7103 94.1838 47.3774 93.9768 47.1983C93.7696 47.0233 93.4062 46.7461 93.1737 46.5754C92.9411 46.409 92.4931 46.1232 92.1804 45.9396C91.8677 45.7605 91.3435 45.4788 91.0181 45.321C90.6926 45.1632 90.253 44.9627 90.046 44.8773C89.8388 44.792 89.4458 44.6384 89.1795 44.536C88.9133 44.4379 88.3975 44.2672 88.0383 44.1605C87.6791 44.0495 87.0578 43.8875 86.6646 43.7936C86.2716 43.6998 85.7179 43.5846 85.439 43.5376C85.1601 43.4906 84.7121 43.4224 84.4457 43.3883C84.1794 43.3498 83.6047 43.2945 83.1693 43.2561C82.6578 43.2176 81.9521 43.1964 81.2039 43.2006C80.5572 43.2049 79.9232 43.2134 79.7965 43.222C79.6696 43.2261 79.3442 43.2561 79.078 43.2773ZM9.45308 43.5802C9.41927 46.4047 9.4235 48.1924 9.44041 49.3785C9.4573 50.5645 9.48267 51.5415 9.49112 51.5544C9.50379 51.5671 10.2519 51.5885 11.148 51.6056C12.0482 51.6183 13.0584 51.644 13.3965 51.6611C13.7346 51.6738 14.0432 51.6952 14.0812 51.7079C14.1531 51.7249 14.1573 52.1516 14.1531 59.9466C14.1531 64.4733 14.1362 68.2576 14.1235 68.3643L14.0939 68.5562C12.1919 68.6032 11.1437 68.6288 10.5351 68.6502L9.43194 68.6843C9.38123 69.7765 9.36432 71.2228 9.36432 72.6095C9.36432 73.996 9.38123 75.4296 9.39392 75.7964L9.4235 76.4705H30.3029C30.3029 70.4207 30.2986 68.6629 30.2902 68.6587C30.2861 68.6587 29.3097 68.6373 28.1261 68.6161C26.9428 68.5947 25.8566 68.5606 25.717 68.5435L25.4634 68.5136C25.4677 66.3291 25.4718 62.5789 25.4761 58.7647C25.4846 52.6552 25.493 51.8231 25.5522 51.7463C25.6113 51.6653 25.679 51.6611 27.9529 51.6397L30.2945 51.6183C30.3452 47.7999 30.3367 46.4261 30.3071 45.3039C30.2776 44.3653 30.2523 43.5931 30.248 43.5846C30.2437 43.5802 25.7509 43.5675 20.2648 43.559C14.7786 43.5505 10.104 43.5505 9.87151 43.5632L9.45308 43.5802ZM30.4002 80.063C30.4002 80.0716 30.5565 80.3446 30.751 80.6731C30.9496 81.0016 31.2624 81.5007 31.4526 81.7824C31.6385 82.0639 32.1203 82.7339 32.5218 83.2756C32.9235 83.8132 33.5404 84.6111 33.8912 85.0462C34.2379 85.4814 34.5126 85.8482 34.4957 85.8655C34.4789 85.8825 34.1618 86.0788 33.7898 86.3092C33.4179 86.5352 32.7882 86.9149 32.3951 87.1496C31.9978 87.3842 31.4526 87.6871 31.1778 87.8237C30.9073 87.9645 30.6622 88.0753 30.641 88.0753C30.6157 88.0753 30.4128 87.926 30.1845 87.7468C29.9606 87.5678 29.6014 87.2733 29.3942 87.0985C29.1828 86.9234 28.701 86.4841 28.3164 86.13C27.9319 85.7758 27.3527 85.2084 27.0272 84.8714C26.7018 84.5343 26.2622 84.0648 26.0552 83.8303C25.8438 83.5956 25.4887 83.1818 25.2648 82.9129C25.045 82.6443 24.652 82.1536 24.3984 81.825C24.149 81.4965 23.7601 80.9632 23.5403 80.6432L23.1388 80.0587C22.7119 80.0161 22.3823 80.0161 22.1328 80.0288C21.8836 80.0416 21.6807 80.0672 21.6807 80.0843C21.6807 80.1057 21.8667 80.3958 22.0906 80.7372C22.3188 81.0784 22.7627 81.7013 23.0754 82.1236C23.3881 82.5461 23.8827 83.1818 24.1743 83.5317C24.4617 83.8858 24.9478 84.4489 25.2564 84.7903C25.5606 85.1315 26.2284 85.8227 26.7357 86.3262C27.2429 86.8296 27.881 87.4397 28.1473 87.6744C28.4137 87.909 28.8701 88.3057 29.1618 88.549C29.4533 88.7964 30.1001 89.3042 30.5988 89.6839C31.0975 90.0594 31.8202 90.5798 32.2048 90.8358C32.5896 91.0961 33.2827 91.5355 33.7476 91.8172C34.2125 92.0987 34.8676 92.4784 35.2058 92.6576C35.5438 92.8325 35.8524 92.9818 35.8905 92.9818C35.9327 92.9818 35.9749 93.0117 35.9877 93.0458C36.0004 93.0799 36.2709 93.2379 36.5879 93.3914C36.9091 93.5451 37.5219 93.8266 37.953 94.0143C38.3841 94.2021 38.9547 94.441 39.221 94.5477C39.4873 94.6543 40.0198 94.8548 40.4044 94.9957C40.7892 95.1322 41.4992 95.3754 41.9894 95.5247C42.4756 95.6784 43.3125 95.9173 43.8492 96.0537C44.3817 96.1903 45.2566 96.3908 45.7934 96.4974C46.326 96.6041 47.0995 96.7363 47.5052 96.7962C47.9109 96.8559 48.6042 96.9455 49.0479 96.9881C49.4874 97.0351 50.1637 97.099 50.5483 97.1289C50.9753 97.163 51.9558 97.1844 53.0843 97.1844C54.1789 97.1844 55.223 97.163 55.6626 97.1289C56.0682 97.099 56.7445 97.0351 57.163 96.9881C57.5814 96.9455 58.1985 96.8686 58.5367 96.8174C58.8747 96.7706 59.606 96.6425 60.1638 96.54C60.7218 96.4334 61.6052 96.2415 62.1293 96.1092C62.6533 95.9811 63.4775 95.7551 63.9679 95.6058C64.4538 95.4565 65.2273 95.2047 65.6796 95.0384C66.1318 94.8762 66.7489 94.6415 67.0533 94.5178C67.3534 94.394 67.8393 94.1892 68.131 94.0613C68.4227 93.9333 69.0017 93.6602 69.4201 93.4554C69.8386 93.2506 70.5021 92.9051 70.8994 92.6875C71.2925 92.4657 71.8927 92.1243 72.2309 91.9238C72.5689 91.7232 73.2029 91.3179 73.6468 91.0235C74.0864 90.7291 74.7542 90.2556 75.126 89.9783C75.498 89.7009 75.9714 89.3341 76.1827 89.1676C76.3897 89.0012 76.8843 88.5874 77.2773 88.246C77.6747 87.9048 78.3087 87.3288 78.6932 86.9619C79.078 86.5949 79.6739 86.0019 80.0119 85.6393C80.3502 85.2766 80.8363 84.7433 81.0898 84.4489C81.3434 84.1545 81.7238 83.7022 81.9309 83.4463C82.1422 83.1861 82.493 82.7381 82.7171 82.4436C82.9369 82.1492 83.2623 81.7099 83.4356 81.4624C83.6131 81.215 83.9005 80.7968 84.078 80.5323L84.4035 80.0544L82.9029 80.0587C82.6452 80.4342 82.2986 80.9077 81.969 81.3557C81.6392 81.7995 81.1236 82.465 80.8235 82.8277C80.5234 83.1903 80.0712 83.7193 79.8175 84.001C79.5682 84.2825 78.9511 84.9267 78.4481 85.4303C77.9453 85.9379 77.2478 86.5993 76.9012 86.9022C76.5504 87.2093 76.1236 87.5719 75.9502 87.7085L75.6333 87.9645C75.236 87.909 75.0457 87.8194 74.5428 87.5251C74.1878 87.316 73.651 87.0089 73.3508 86.8382C73.0466 86.6675 72.6408 86.4329 72.4422 86.3134C72.2435 86.1982 71.9646 86.0275 71.8167 85.9379L71.5546 85.7715C72.8859 84.1033 73.4903 83.3184 73.7609 82.9557C74.0271 82.5929 74.4329 82.017 74.657 81.6757C74.8852 81.3343 75.2022 80.8353 75.3627 80.5665C75.5192 80.2976 75.6502 80.0631 75.6544 80.0417C75.6544 80.0246 75.3332 80.0117 74.9443 80.0117L74.2384 80.0161C73.5156 81.0827 73.0804 81.7099 72.8015 82.1024C72.5224 82.4906 72.104 83.0452 71.8758 83.3396C71.6433 83.634 71.2714 84.0821 71.0432 84.3422C70.815 84.5982 70.5443 84.8969 70.4387 85.0036L70.2444 85.1955C69.9653 85.0847 69.4454 84.8755 68.9129 84.6622C68.3761 84.4489 67.4929 84.1118 66.9476 83.9114C66.4024 83.7107 65.5358 83.425 65.0244 83.2714C64.399 83.0836 64.0608 82.9643 63.9973 82.9002C63.9255 82.8318 63.9044 82.7807 63.9256 82.6996C63.9425 82.6399 64.1368 82.2005 64.3566 81.7184C64.5807 81.2362 64.8174 80.6816 64.8808 80.481C64.9484 80.2806 65.0033 80.0928 65.0033 80.063C65.0033 80.0246 64.8511 80.0117 64.3905 80.0117H63.7776C62.7971 81.9444 62.5054 82.5247 62.5013 82.5461C62.4928 82.5674 62.1927 82.5247 61.8333 82.4522C61.4741 82.3754 60.9035 82.2688 60.5654 82.2133C60.2272 82.1536 59.5425 82.0469 59.0438 81.9787C58.5451 81.9061 57.7927 81.808 57.3743 81.761C56.9558 81.714 56.1654 81.6373 55.6202 81.5903C55.075 81.5435 54.4284 81.488 54.1832 81.4709L53.7394 81.441C53.6971 81.2406 53.6846 80.959 53.6802 80.6816C53.6761 80.4086 53.6549 80.144 53.6337 80.0972C53.5958 80.0161 53.5492 80.0117 52.9999 80.0117C52.4715 80.0117 52.4038 80.0203 52.3869 80.0843C52.3784 80.1269 52.37 80.4001 52.3784 80.6944C52.3827 81.121 52.3743 81.2533 52.315 81.3557L52.2474 81.4836C50.4554 81.5988 49.5635 81.6714 49.1113 81.7184C48.659 81.7654 47.9827 81.8421 47.6109 81.8891C47.2389 81.9359 46.6092 82.0255 46.216 82.0854C45.8189 82.145 45.0961 82.2688 44.61 82.3584C44.1197 82.4522 43.7096 82.512 43.6927 82.4948C43.6801 82.4777 43.3842 81.9103 43.0377 81.2362L42.4121 80.0075C41.5288 80.0161 41.2372 80.0288 41.1991 80.0458C41.1356 80.0716 41.2075 80.2677 41.7147 81.4624L42.3064 82.8491C42.1585 82.9898 41.905 83.088 41.6302 83.1689C41.3639 83.2458 40.5651 83.5059 39.855 83.745C39.145 83.9881 38.194 84.3295 37.7417 84.5044C37.2895 84.6836 36.6893 84.9225 36.4104 85.0377C35.937 85.234 35.8948 85.2467 35.7848 85.1914C35.7214 85.1571 35.434 84.8585 35.1508 84.5214C34.8634 84.1887 34.4408 83.6852 34.2082 83.4036C33.98 83.1221 33.587 82.6229 33.3418 82.2943C33.0967 81.9658 32.7121 81.4283 32.4923 81.0998C32.2726 80.7713 32.0443 80.4172 31.9893 80.3147C31.9259 80.1995 31.8287 80.1013 31.7273 80.0502C31.6132 79.9905 31.4906 79.9691 31.2834 79.9734C31.1271 79.9776 30.8651 79.9947 30.7044 80.0161C30.5396 80.0373 30.4043 80.0587 30.4002 80.063ZM52.8307 24.1721C53.3548 24.1678 54.1536 24.1849 54.6059 24.2062C55.0581 24.2318 55.8274 24.2873 56.3177 24.3343C56.8038 24.3811 57.6236 24.4836 58.1351 24.5647C58.6465 24.6456 59.3777 24.7822 59.7623 24.8633C60.1469 24.9485 60.5316 25.034 60.6161 25.0595C60.7133 25.0851 60.7768 25.1277 60.7768 25.1662C60.7768 25.2003 60.5696 25.3667 60.3203 25.533C60.0709 25.6952 59.5932 25.9725 59.2552 26.1474C58.917 26.3181 58.5198 26.5101 58.3676 26.5741C58.2154 26.6338 57.8815 26.7618 57.6279 26.8556C57.37 26.9496 56.8756 27.0989 56.529 27.1927C56.1782 27.2823 55.5992 27.406 55.2399 27.4659C54.8807 27.5297 54.3649 27.5981 54.0988 27.6237C53.8324 27.6493 53.2026 27.6663 52.7039 27.6663C52.2052 27.6663 51.5755 27.6449 51.3092 27.6193C51.0428 27.5938 50.5864 27.5341 50.2947 27.4871C50.003 27.4401 49.5002 27.3335 49.1747 27.2525C48.8493 27.1714 48.3716 27.0307 48.1181 26.9411C47.8602 26.8515 47.4418 26.6893 47.1882 26.5826C46.9304 26.4718 46.4908 26.2541 46.2034 26.0963C45.9159 25.9341 45.4975 25.6525 45.265 25.4648C45.0326 25.277 44.8509 25.1192 44.8551 25.1107C44.8594 25.1063 45.0623 25.0552 45.3074 24.9999C45.5525 24.9443 46.009 24.8462 46.3217 24.7865C46.6346 24.7267 47.0741 24.6499 47.2939 24.6158C47.5137 24.5817 47.9996 24.5133 48.3716 24.4665C48.7436 24.4195 49.4071 24.3513 49.851 24.3129C50.2906 24.2744 50.9287 24.2276 51.2669 24.2105C51.605 24.1934 52.3065 24.1721 52.8307 24.1721ZM62.6661 25.5715C62.6745 25.5715 63.0337 25.674 63.469 25.8018C63.9044 25.9299 64.6229 26.1603 65.0668 26.3181C65.5064 26.4759 66.191 26.7363 66.5884 26.8941C66.9814 27.0563 67.5901 27.3122 67.9409 27.47C68.2874 27.6279 68.765 27.8541 68.9974 27.9693C69.2299 28.0886 69.6652 28.319 69.9696 28.4855C70.2697 28.6475 70.7938 28.9463 71.132 29.1468C71.47 29.3474 72.2056 29.8167 72.7718 30.1964C73.334 30.5719 73.7989 30.9002 73.7989 30.926C73.7989 30.9472 73.7651 31.0112 73.7228 31.0624C73.6806 31.1094 72.9325 31.5573 72.0618 32.0523C70.9079 32.705 70.4387 32.9525 70.3373 32.9525C70.2189 32.9525 70.126 32.8799 69.6399 32.4106C69.3313 32.1162 68.8326 31.6469 68.5325 31.3782C68.2282 31.105 67.7549 30.6871 67.476 30.4523C67.1969 30.2176 66.7489 29.8508 66.4827 29.6416C66.2164 29.4283 65.6837 29.0274 65.2992 28.7457C64.9146 28.46 64.2595 27.999 63.841 27.7218C63.4226 27.4401 62.7886 27.0349 62.4335 26.8173C62.0786 26.5997 61.7954 26.4034 61.7995 26.3778C61.808 26.3522 62.0024 26.1645 62.2349 25.9555C62.4673 25.7463 62.6618 25.5758 62.6661 25.5715ZM42.8348 25.6184C42.8813 25.6141 42.9954 25.6611 43.0884 25.7251C43.1814 25.7891 43.4181 25.964 43.9759 26.3949L43.5745 26.6508C43.3547 26.7918 42.9067 27.086 42.5812 27.2993C42.2558 27.517 41.609 27.9693 41.1441 28.302C40.6792 28.639 40.0029 29.1426 39.6437 29.4241C39.2845 29.7057 38.6082 30.2561 38.1433 30.6486C37.6784 31.0412 37.0147 31.6298 36.6724 31.9542C36.3259 32.2827 35.9117 32.6709 35.4509 33.1018L35.2311 33.0207C35.1129 32.9739 34.8169 32.8458 34.5718 32.7306C34.3266 32.6154 33.9167 32.4021 33.663 32.2613C33.4053 32.1162 32.898 31.8005 32.5303 31.5573C32.1626 31.3142 31.8668 31.088 31.8668 31.0539C31.8668 31.0198 32.0612 30.8491 32.2979 30.6742C32.5387 30.4993 33.0671 30.1409 33.4728 29.8678C33.8786 29.599 34.5337 29.1894 34.931 28.959C35.324 28.733 36.1061 28.3105 36.6639 28.0248C37.2219 27.7431 38.0207 27.3634 38.4391 27.1842C38.8575 27.0049 39.4746 26.7533 39.8128 26.6252C40.1508 26.493 40.7088 26.2882 41.0596 26.1645C41.4063 26.0408 41.774 25.8871 41.8712 25.8189C42.0275 25.7166 42.0655 25.7081 42.1373 25.7507C42.2051 25.7977 42.2642 25.7891 42.484 25.7122C42.6319 25.6653 42.7882 25.6184 42.8348 25.6184ZM60.2357 27.1927C60.2526 27.1927 60.5401 27.3378 60.8697 27.5212C61.2036 27.7004 61.7319 27.999 62.0448 28.1868C62.3575 28.3745 62.8605 28.6903 63.1647 28.8908C63.4649 29.0871 63.9594 29.4283 64.2637 29.646C64.5638 29.8635 65.0709 30.239 65.3838 30.4864C65.6965 30.7297 66.229 31.1691 66.5672 31.455C66.9054 31.745 67.5561 32.338 68.0128 32.7732C68.765 33.4901 68.8454 33.5797 68.7947 33.6521C68.765 33.6949 68.4099 33.874 68.0041 34.049C67.5985 34.2196 66.9392 34.4842 66.546 34.6335C66.1488 34.7828 65.502 35.0132 65.109 35.1413C64.7117 35.2735 64.1242 35.4484 63.7988 35.5295C63.4733 35.6106 63.1435 35.6873 63.0675 35.7002C62.9365 35.7258 62.9281 35.7172 62.7548 35.4143C62.6576 35.2478 62.2644 34.5865 61.8798 33.9551C61.4953 33.3194 60.7809 32.1973 60.2907 31.4591C59.8004 30.7212 59.103 29.6971 58.7353 29.1852C58.3717 28.6775 58.0759 28.2552 58.0802 28.2466C58.0887 28.2381 58.1394 28.2038 58.1985 28.1655C58.2576 28.1314 58.6465 27.9437 59.0649 27.7474C59.4834 27.5553 59.9102 27.3507 60.0159 27.2952C60.1216 27.2397 60.2188 27.197 60.2357 27.1927ZM45.3581 27.2866L45.7004 27.4145C45.8906 27.4829 46.2669 27.6279 46.533 27.7304C46.7994 27.837 47.1289 27.9734 47.2643 28.0375C47.3996 28.1015 47.5094 28.1612 47.5052 28.1741C47.5052 28.1868 47.4756 28.2722 47.4375 28.366C47.3996 28.46 47.1248 28.8609 46.829 29.262C46.533 29.6587 46.0935 30.2731 45.8568 30.6272C45.6201 30.9771 45.2017 31.6213 44.927 32.0565C44.6565 32.4917 44.2719 33.1146 44.0732 33.4432C43.8746 33.7717 43.4898 34.4202 43.2194 34.881C42.8644 35.4954 42.7038 35.7343 42.6319 35.7513C42.5769 35.7641 42.2473 35.6915 41.8415 35.5763C41.457 35.4655 40.8102 35.2735 40.4044 35.1413C39.9988 35.0132 39.2929 34.7743 38.8406 34.6079C38.3884 34.4414 37.7672 34.2025 37.4671 34.0703C37.1626 33.9424 36.9091 33.8357 36.9049 33.8314C36.8965 33.8272 36.9006 33.7673 36.9134 33.6991C36.9303 33.6139 37.0401 33.4644 37.2642 33.2469C37.4459 33.0676 37.822 32.7135 38.1011 32.4618C38.38 32.2058 38.904 31.7536 39.2633 31.4464C39.6225 31.1435 40.2777 30.623 40.7214 30.286C41.161 29.9489 41.905 29.4156 42.3699 29.1041C42.8348 28.7883 43.4898 28.3703 43.828 28.1655C44.1662 27.9649 44.6481 27.6834 44.8973 27.5426L45.3581 27.2866ZM49.0522 28.6178L52.1037 29.0486L52.1292 29.326C52.1461 29.4796 52.1671 30.3157 52.184 31.1819C52.1967 32.0523 52.1924 33.7162 52.1333 37.0056L51.9432 37.0355C51.8416 37.0526 51.4317 37.0654 51.0344 37.0654C50.6202 37.0654 49.9186 37.0226 49.3649 36.9673C48.845 36.916 47.9195 36.8051 47.3149 36.724C46.7106 36.6388 45.9709 36.5278 45.6666 36.4723C45.3665 36.4169 44.9651 36.3358 44.7791 36.2847C44.5931 36.2377 44.369 36.1737 44.1282 36.0884L44.424 35.5337C44.5888 35.2307 44.9735 34.5566 45.2778 34.0405C45.5779 33.5242 46.0893 32.7094 46.4063 32.2272C46.7233 31.745 47.1755 31.0838 47.4122 30.7553C47.6488 30.4268 48.1138 29.8123 48.4477 29.3857L49.0522 28.6178ZM56.5417 28.6519C56.5459 28.6475 56.8332 29.0145 57.1799 29.4668C57.5222 29.919 57.9746 30.5205 58.1773 30.8023C58.3845 31.0838 58.7099 31.5317 58.9001 31.8049C59.0904 32.0736 59.4243 32.5728 59.6482 32.9142C59.868 33.2512 60.1978 33.7802 60.3794 34.0873C60.5611 34.3903 60.8781 34.9706 61.081 35.3758C61.2882 35.7811 61.4446 36.114 61.4318 36.114C61.4234 36.114 61.191 36.161 60.9162 36.2206C60.6415 36.2847 60.0286 36.4084 59.551 36.498C59.0776 36.5875 58.3929 36.6985 58.0294 36.7454C57.6701 36.7923 57.1756 36.8521 56.9305 36.8777C56.6896 36.9033 56.2585 36.9417 55.9796 36.963C55.7005 36.9885 55.0539 37.0185 53.6127 37.0654L53.583 36.2803C53.5661 35.8495 53.5534 34.5225 53.5577 33.3407C53.562 32.1546 53.5746 30.7126 53.6127 29.0956L55.0708 28.8779C55.8739 28.7542 56.5374 28.6561 56.5417 28.6519ZM82.9664 51.4093C83.4906 51.4178 83.9089 51.4519 84.2344 51.5116C84.5049 51.5586 84.8894 51.644 85.0923 51.7037C85.2952 51.7634 85.6207 51.8915 85.811 51.9896C86.0011 52.0877 86.2716 52.2456 86.411 52.3394C86.5505 52.4333 86.8084 52.6552 86.9816 52.8342C87.2014 53.0561 87.3579 53.2652 87.4762 53.4998C87.5734 53.6876 87.7003 54.0034 87.7594 54.2038C87.8144 54.4001 87.8904 54.7586 87.9285 54.9931C87.9664 55.2279 88.0257 55.7654 88.0595 56.1877C88.1102 56.7723 88.1271 57.6511 88.1314 59.8782C88.1398 61.8237 88.1229 63.0355 88.089 63.5048C88.0595 63.8887 88.0004 64.5245 87.9538 64.9127C87.9073 65.2967 87.827 65.7575 87.7806 65.9367C87.734 66.1116 87.6325 66.389 87.5606 66.5553C87.4846 66.7175 87.3367 66.9861 87.231 67.1527C87.1254 67.3147 86.9268 67.5621 86.7873 67.703C86.652 67.8395 86.4238 68.0316 86.2843 68.1254C86.1449 68.2192 85.8405 68.3813 85.6081 68.4795C85.3755 68.582 84.9951 68.7099 84.7627 68.7695C84.5302 68.825 84.2091 68.8933 84.0443 68.9147C83.8836 68.9402 83.5707 68.9743 83.3468 68.9872C83.127 69.0043 82.6916 68.9957 82.3747 68.9658C82.0619 68.9402 81.6054 68.8762 81.3603 68.8294C81.1193 68.7824 80.7178 68.6757 80.4727 68.5947C80.2317 68.5094 79.8599 68.3601 79.6486 68.262C79.4414 68.1638 79.1668 67.9888 79.0356 67.8779C78.9089 67.7669 78.706 67.5579 78.5834 67.4128C78.465 67.2679 78.279 66.9861 78.1777 66.7899C78.072 66.5894 77.9325 66.2524 77.8606 66.0434C77.7931 65.83 77.6958 65.4545 77.6493 65.2113C77.6028 64.9639 77.5352 64.533 77.4971 64.2515C77.4592 63.9698 77.4126 63.4108 77.3914 63.0141C77.3661 62.613 77.3282 61.6062 77.3028 60.7741C77.2647 59.6351 77.2647 58.9994 77.2985 58.2143C77.3282 57.6384 77.3745 56.9173 77.4085 56.6143C77.4423 56.3072 77.5098 55.8294 77.5564 55.5478C77.6071 55.2661 77.6915 54.8438 77.7508 54.6091C77.8057 54.3745 77.886 54.0758 77.9282 53.9479C77.9706 53.8156 78.072 53.5852 78.1565 53.4359C78.2411 53.2823 78.4312 53.022 78.5834 52.8598C78.7313 52.6935 78.9849 52.4716 79.1456 52.3649C79.3062 52.2541 79.5133 52.126 79.6062 52.079C79.6992 52.0322 79.919 51.9341 80.0923 51.8659C80.2698 51.7933 80.6122 51.6867 80.8532 51.6268C81.0983 51.5671 81.4998 51.486 81.7407 51.4519C82.0493 51.4093 82.4254 51.3964 82.9664 51.4093ZM52.2602 82.8917C52.3446 82.8959 52.3446 82.9343 52.3743 86.9064C52.3869 89.1122 52.3869 90.9297 52.3743 90.9424C52.3574 90.9595 52.1545 91.0023 51.922 91.0406C51.6896 91.079 51.1316 91.1558 50.6751 91.2113C50.2228 91.271 49.7664 91.335 49.6607 91.3606C49.5593 91.3862 49.4409 91.4032 49.3987 91.4032C49.3564 91.4076 49.1789 91.2283 48.9719 90.968C48.7816 90.7291 48.4604 90.3197 48.266 90.0635C48.0674 89.8034 47.8052 89.4493 47.6785 89.2743C47.5516 89.0952 47.277 88.7026 47.0698 88.3997C46.8628 88.0926 46.5204 87.5634 46.3048 87.2264C46.0935 86.8851 45.8018 86.4158 45.6623 86.1811C45.5187 85.9464 45.3284 85.6179 45.2355 85.4559C45.1424 85.2893 44.9185 84.8884 44.4198 83.9625L44.517 83.8644C44.5677 83.8089 44.6944 83.7492 44.7916 83.7236C44.8889 83.7022 45.4131 83.6084 45.954 83.5146C46.4951 83.4207 47.2008 83.3055 47.5263 83.2585C47.8517 83.2117 48.4816 83.1348 48.9212 83.088C49.3649 83.0452 50.058 82.9855 50.4638 82.9599C50.8737 82.9343 51.4233 82.9088 51.6896 82.9002C51.9601 82.8959 52.2136 82.8917 52.2602 82.8917ZM53.8112 82.8746L53.9888 82.8959C54.086 82.9044 54.5044 82.9258 54.9229 82.9385C55.3413 82.9514 55.9331 82.9813 56.2332 83.0025C56.5374 83.0281 57.1377 83.0836 57.5645 83.1306C57.9956 83.1774 58.6803 83.267 59.0861 83.3269C59.496 83.3866 60.1893 83.5103 60.6289 83.6041C61.0726 83.698 61.4994 83.7877 61.5756 83.8047C61.6644 83.8218 61.7319 83.8644 61.7488 83.9199C61.77 83.9796 61.7278 84.1033 61.6094 84.3252C61.5165 84.5 61.2796 84.9311 61.081 85.2852C60.8866 85.6351 60.5527 86.2025 60.3413 86.5437C60.1343 86.8808 59.7497 87.4781 59.496 87.8664C59.2424 88.2504 58.8494 88.8264 58.6296 89.1464C58.4098 89.462 57.9575 90.0849 57.6279 90.5328C57.1714 91.1473 56.9982 91.3521 56.9051 91.3776C56.8375 91.3947 56.6431 91.399 56.4656 91.3862C56.2923 91.3691 55.8655 91.3009 55.5145 91.2327C55.168 91.1686 54.6397 91.0876 53.8112 91.0023L53.7775 90.5116C53.7563 90.2386 53.7437 88.6001 53.7437 86.8637C53.7437 85.1273 53.7563 83.5188 53.7775 83.2928L53.8112 82.8746ZM42.856 84.2484C42.9996 84.257 43.0123 84.2697 43.3588 84.8969C43.5533 85.2467 43.9422 85.9208 44.2211 86.3901C44.5001 86.8596 45.0368 87.7127 45.4131 88.2887C45.7849 88.8648 46.3979 89.7735 46.7656 90.3153C47.1333 90.8528 47.5178 91.4161 47.8011 91.8299L47.6657 91.9153C47.5897 91.9621 47.1839 92.1457 46.7656 92.3249C46.347 92.504 45.9287 92.6961 45.6666 92.8496L45.0326 92.5169C44.686 92.3334 44.1154 92.0176 43.7646 91.8086C43.4181 91.6038 42.7503 91.1814 42.2852 90.87C41.8203 90.5586 41.1356 90.0721 40.7638 89.7905C40.3918 89.509 39.8338 89.0609 39.5168 88.7964C39.2041 88.5319 38.7477 88.1352 38.5025 87.909C38.2616 87.6871 37.8263 87.2734 37.5431 86.9918C37.2557 86.7059 37.0232 86.4414 37.0232 86.3986C37.0232 86.3503 37.126 86.2749 37.3317 86.1726C37.5008 86.0873 37.9614 85.8825 38.3546 85.716C38.7518 85.554 39.4367 85.2893 39.8762 85.1273C40.3199 84.9695 41.0977 84.7177 41.609 84.5641C42.1205 84.4106 42.5769 84.2782 42.6235 84.2655C42.67 84.2526 42.7757 84.2441 42.856 84.2484ZM63.3127 84.2355C63.3464 84.2355 63.6719 84.3125 64.0311 84.4106C64.3947 84.5044 64.9653 84.6666 65.2992 84.7689C65.6374 84.8714 66.1698 85.0504 66.4827 85.1656C66.7996 85.2852 67.2562 85.46 67.497 85.5582C67.7421 85.6563 68.1945 85.8569 68.503 85.9977C68.8116 86.1427 69.0608 86.2793 69.0608 86.3048C69.0608 86.3262 68.6551 86.7529 68.1648 87.2434C67.6702 87.7383 66.9602 88.3997 66.5884 88.7112C66.2164 89.0268 65.5064 89.5901 65.0033 89.9697C64.5047 90.3494 63.896 90.7846 63.6509 90.9383C63.4099 91.0917 62.9619 91.3735 62.6576 91.5612C62.3575 91.7488 61.7488 92.1072 60.502 92.8069L59.4875 92.359C58.9297 92.1116 58.4648 91.9024 58.4521 91.8897C58.4436 91.8812 58.4605 91.8086 58.4943 91.7317C58.5282 91.6593 58.8409 91.1899 59.1876 90.6994C59.5384 90.2045 60.1131 89.3597 60.4639 88.822C60.8147 88.2802 61.3346 87.4611 61.6178 86.996C61.901 86.5352 62.349 85.7588 62.6154 85.2681C62.8815 84.7818 63.131 84.3507 63.1732 84.3081C63.2113 84.2697 63.2747 84.2355 63.3127 84.2355ZM70.4683 86.932L70.684 87.0174C70.8022 87.0642 71.1868 87.2392 71.5334 87.4141C71.8842 87.5848 72.4338 87.8878 72.7592 88.0839C73.0847 88.2802 73.5284 88.5619 73.7439 88.7068C73.9595 88.8519 74.1286 88.9842 74.1202 89.0012C74.1117 89.0226 73.8876 89.2019 73.6213 89.4023C73.3593 89.6028 72.8859 89.9398 72.5689 90.1532C72.2562 90.3623 71.732 90.695 71.4066 90.8913C71.0811 91.0876 70.3035 91.5099 69.6738 91.8299C69.0482 92.1457 68.0591 92.615 67.476 92.8624C66.8968 93.1142 66.1826 93.4085 65.8909 93.5195C65.6036 93.6303 64.8427 93.8906 63.038 94.4709L62.8224 94.3344C62.6998 94.2576 62.4673 94.0911 62.3025 93.9632C62.1418 93.8351 62.0067 93.7072 62.0024 93.6858C62.0024 93.6602 62.0448 93.6047 62.0996 93.5536C62.1503 93.5066 62.4716 93.2976 62.8055 93.0885C63.1436 92.8795 63.7607 92.4784 64.1792 92.1969C64.5976 91.9153 65.3119 91.399 65.7641 91.0576C66.2205 90.7121 66.8376 90.2257 67.1378 89.9739C67.442 89.7265 68.0212 89.2274 68.4268 88.8648C68.8369 88.5064 69.4625 87.9219 69.8174 87.5719L70.4683 86.932ZM35.5438 87.0089C35.5778 87.0089 35.827 87.2264 36.0934 87.4867C36.3638 87.7512 36.8372 88.1992 37.15 88.4808C37.4671 88.7623 38.008 89.2316 38.3546 89.526C38.7054 89.8204 39.276 90.2812 39.6225 90.5501C39.9735 90.8187 40.5694 91.271 40.954 91.5483C41.3385 91.8299 42.1923 92.4187 42.856 92.8624C43.5195 93.3061 44.0606 93.6858 44.0606 93.7029C44.0606 93.7199 43.8577 93.9035 43.1518 94.4751L42.6784 94.3429C42.4164 94.2703 41.7528 94.0613 41.2075 93.8778C40.6623 93.6944 39.855 93.3999 39.4112 93.2251C38.9716 93.0458 38.3631 92.7899 38.0587 92.6491C37.7587 92.5125 37.0444 92.1584 36.4738 91.8683C35.9032 91.5739 35.0917 91.126 34.6648 90.8657C34.2337 90.6097 33.4728 90.119 32.9741 89.7778C32.2557 89.2913 32.0569 89.1378 32.0569 89.0653C32.0569 88.9971 32.15 88.916 32.4374 88.7282C32.6487 88.596 33.1517 88.2845 33.5573 88.0412C33.9631 87.7981 34.5633 87.4653 34.8888 87.3031C35.2142 87.1368 35.51 87.0045 35.5438 87.0089ZM53.3591 92.4058C54.1579 92.4144 54.6354 92.4443 55.0919 92.5083C55.4428 92.5553 55.9541 92.6406 56.2332 92.6961C56.5121 92.7558 56.977 92.8709 57.2687 92.9562C57.5603 93.0373 58.0084 93.1866 58.2619 93.2806C58.5198 93.3744 59.0523 93.6133 59.4453 93.8095C59.8426 94.0102 60.3751 94.3044 61.0938 94.7739L60.9247 94.9232C60.8318 94.9999 60.7261 95.0767 60.6921 95.0895C60.6583 95.0981 60.3329 95.1663 59.9737 95.2346C59.6144 95.307 58.9382 95.4222 58.4733 95.4906C58.0084 95.5632 57.3616 95.6484 57.0361 95.6869C56.7107 95.721 56.0091 95.7807 55.4723 95.8191C54.8764 95.8618 53.9297 95.8874 53.0209 95.8874C52.2093 95.8874 51.1992 95.8703 50.7808 95.8404C50.3624 95.8148 49.7538 95.7636 49.4283 95.7295C49.1029 95.6911 48.5533 95.627 48.2025 95.5759C47.856 95.5289 47.2558 95.4351 46.8712 95.3669C46.4867 95.2943 45.954 95.1877 45.6877 95.128C45.4215 95.0681 45.1721 95.0043 45.1383 94.9829C45.0876 94.9615 45.1214 94.9061 45.2947 94.7226C45.4215 94.5861 45.7004 94.3813 45.9709 94.2192C46.2203 94.0655 46.664 93.8351 46.9557 93.7029C47.2474 93.5665 47.7207 93.3744 48.0124 93.2677C48.3041 93.161 48.79 93.0075 49.0901 92.9221C49.3945 92.841 49.8889 92.7216 50.189 92.6661C50.4935 92.6065 50.9963 92.5296 51.3092 92.4913C51.6219 92.4572 51.9642 92.4187 52.0699 92.4102C52.1755 92.3973 52.7546 92.3973 53.3591 92.4058Z" fill="white"/>
</g>
</svg>
