<svg width="128" height="122" viewBox="0 0 128 122" fill="none" xmlns="http://www.w3.org/2000/svg">
<g clip-path="url(#clip0_13815_1077)">
<mask id="mask0_13815_1077" style="mask-type:luminance" maskUnits="userSpaceOnUse" x="0" y="3" width="128" height="117">
<path d="M127.516 3.99902H0V119.118H127.516V3.99902Z" fill="white"/>
</mask>
<g mask="url(#mask0_13815_1077)">
<path d="M63.9576 9.27891C76.0831 9.29172 87.8291 13.4895 97.1948 21.1574C106.561 28.8253 112.968 39.489 115.323 51.3321C117.68 63.1752 115.84 75.4654 110.116 86.1092C104.393 96.753 95.1413 105.092 83.936 109.706C72.7309 114.32 60.2659 114.924 48.6639 111.415C37.0621 107.905 27.0409 100.5 20.3073 90.4588C13.5736 80.4183 10.544 68.3641 11.7346 56.3491C12.9251 44.3343 18.262 33.1018 26.8363 24.565C31.7105 19.7122 37.4982 15.864 43.868 13.241C50.2378 10.618 57.0646 9.27162 63.9576 9.27891ZM63.9576 6.92922C53.1337 6.93705 42.5551 10.1397 33.5588 16.1323C24.5626 22.125 17.5525 30.6387 13.4147 40.5973C9.27677 50.5558 8.19684 61.5124 10.3113 72.082C12.4259 82.6515 17.64 92.3597 25.2945 99.979C32.9491 107.599 42.7005 112.788 53.3163 114.891C63.9322 116.994 74.9359 115.916 84.9365 111.794C94.9376 107.672 103.486 100.689 109.503 91.7303C115.519 82.7715 118.733 72.2376 118.738 61.4604C118.734 46.9954 112.962 33.1238 102.689 22.8955C92.4165 12.6673 78.4852 6.91951 63.9576 6.91602V6.92922Z" fill="white"/>
<path d="M63.8276 111.925C73.8508 111.92 83.6474 108.955 91.9793 103.408C100.31 97.8588 106.802 89.9754 110.635 80.7536C114.466 71.5318 115.466 61.3857 113.508 51.5981C111.549 41.8105 106.72 32.8209 99.6302 25.7658C92.5416 18.7107 83.5102 13.907 73.6793 11.9619C63.8483 10.0168 53.6588 11.0178 44.3991 14.8381C35.1394 18.6585 27.2252 25.1268 21.6571 33.4252C16.0891 41.7237 13.1172 51.4796 13.1172 61.4596C13.1277 74.8453 18.4746 87.6792 27.9832 97.1416C37.4917 106.604 50.384 111.922 63.8276 111.925Z" stroke="white" stroke-width="1.77106" stroke-miterlimit="10" stroke-dasharray="2.66 2.66"/>
<path d="M67.9422 61.9372H61.7244L62.785 59.6535L63.6998 57.5811H65.98L66.8816 59.6535L67.9422 61.9372Z" fill="white"/>
<path d="M71.9156 61.9356H57.783C57.5915 61.9336 57.4018 61.9705 57.2253 62.0441C57.0487 62.1178 56.8891 62.2264 56.7564 62.3637C56.6236 62.5009 56.5202 62.6636 56.4528 62.842C56.3854 63.0203 56.3553 63.2105 56.3644 63.4008V67.889H73.2546V63.4008C73.2765 63.0548 73.1609 62.7142 72.9327 62.4523C72.7045 62.1906 72.382 62.0286 72.0348 62.0016H71.9156" fill="white"/>
<path d="M66.8793 59.6523C66.3225 59.9294 65.779 60.2067 65.1824 60.4443L64.8377 60.5235L64.4797 60.3651C63.8832 60.1274 63.3395 59.8503 62.7827 59.573L63.6976 57.4609H65.8983L66.8793 59.6523Z" fill="white"/>
<path d="M68.8525 55.5459H60.8184V62.4762H68.8525V55.5459Z" fill="white"/>
<path d="M75.7715 35.957H53.8169V37.0131H75.7715V35.957Z" fill="white"/>
<path d="M77.7376 33.9912H51.8455V38.9678H77.7376V33.9912Z" fill="white"/>
<path d="M75.8624 38.0293V35.9568C76.0773 35.9322 76.2765 35.8324 76.4245 35.6753C76.5726 35.5182 76.66 35.314 76.6711 35.0988C76.6822 34.9849 76.6692 34.8699 76.6329 34.7613C76.5966 34.6526 76.5378 34.5528 76.4604 34.4682C76.3829 34.3836 76.2884 34.3161 76.1831 34.2702C76.0778 34.2241 75.964 34.2006 75.8491 34.2012H53.8149C53.5872 34.2076 53.3703 34.2997 53.208 34.459C53.0457 34.6181 52.9499 34.8326 52.9399 35.0593C52.9328 35.1741 52.9489 35.2892 52.9873 35.3977C53.0258 35.5063 53.0857 35.606 53.1636 35.6909C53.2416 35.7759 53.3359 35.8445 53.4409 35.8924C53.5459 35.9404 53.6596 35.9667 53.7751 35.9701V38.0425H47.9153V40.9599C47.9405 44.3106 48.9611 47.579 50.8485 50.3531C52.7358 53.1274 55.4056 55.2834 58.5213 56.5496C59.3106 56.8623 60.1214 57.1182 60.9475 57.3153C62.1694 58.2257 63.5068 58.9714 64.9248 59.533C66.342 58.9695 67.6791 58.224 68.9021 57.3153C69.7216 57.1102 70.5274 56.8544 71.315 56.5496C74.4145 55.2707 77.0656 53.1088 78.9359 50.3354C80.8062 47.562 81.8123 44.3005 81.8283 40.9599V38.0293H75.8624ZM53.9607 49.9098C51.8786 47.3851 50.7275 44.2266 50.6994 40.9599V40.8806H53.8281V43.4548C53.8264 46.4511 54.6125 49.3956 56.1085 51.9954C55.3174 51.3616 54.5973 50.6447 53.9607 49.857V49.9098ZM62.3926 43.8376V51.2827H59.2373V43.0984C59.3005 42.307 59.6312 41.5605 60.1753 40.9803C60.7194 40.4001 61.4449 40.0207 62.2335 39.9038H70.3339V43.0059H62.9759C62.8079 43.0567 62.6606 43.1597 62.5556 43.2998C62.4507 43.44 62.3935 43.6099 62.3926 43.7847V43.8376ZM70.6124 48.1145C70.5846 48.8835 70.2891 49.619 69.7762 50.1947C69.2633 50.7704 68.5653 51.1504 67.8017 51.2695H63.2543V48.0617H67.0725C67.1688 48.0467 67.2569 47.9991 67.3221 47.927C67.3874 47.8549 67.4256 47.7626 67.4305 47.6657V46.9265H63.2543V44.458C63.2543 43.864 63.8775 43.9431 63.8775 43.9431H70.6124V48.1145ZM75.7563 49.857C75.1485 50.5745 74.4737 51.2331 73.7411 51.8238C75.1759 49.285 75.9293 46.4208 75.9286 43.5076V40.8674H78.9381V40.9599H79.0176C79.0146 44.2151 77.8599 47.3652 75.7563 49.857Z" fill="white"/>
<path opacity="0.5" d="M20.9111 76.4691L19.6915 69.684L19.4131 62.833L20.9111 76.4691Z" fill="white"/>
<path d="M79.2347 92.8115C79.2924 92.7469 79.3361 92.6716 79.3635 92.5901C79.3909 92.5086 79.4012 92.4221 79.3939 92.3363V91.9403C79.394 91.773 79.3379 91.6104 79.2347 91.4782C79.1837 91.4251 79.1217 91.3835 79.0532 91.3561C78.9846 91.3288 78.9109 91.3165 78.837 91.3199C78.7653 91.3175 78.6939 91.3304 78.6276 91.3577C78.5613 91.385 78.5016 91.4262 78.4525 91.4782C78.396 91.5406 78.3528 91.6136 78.3255 91.6931C78.2981 91.7724 78.2872 91.8566 78.2935 91.9403V92.3363C78.2915 92.508 78.3475 92.6751 78.4525 92.8115C78.5016 92.8637 78.5613 92.9045 78.6276 92.9319C78.6939 92.9594 78.7653 92.9727 78.837 92.97C78.9812 92.9523 79.1183 92.8983 79.2347 92.8115ZM77.9753 93.1551C77.8716 93.0533 77.7897 92.9319 77.735 92.7982C77.6803 92.6645 77.6538 92.5205 77.6571 92.3759V91.9799C77.656 91.8356 77.6836 91.6925 77.7382 91.5589C77.7928 91.4252 77.8734 91.3036 77.9753 91.2011C78.2135 91.0035 78.5137 90.8953 78.8238 90.8953C79.1338 90.8953 79.4341 91.0035 79.6723 91.2011C79.7742 91.3036 79.8548 91.4252 79.9094 91.5589C79.964 91.6925 79.9915 91.8356 79.9904 91.9799V92.4419C79.9938 92.5866 79.9673 92.73 79.9126 92.8646C79.8578 92.9983 79.7761 93.1197 79.6723 93.2206C79.4241 93.3951 79.1277 93.4889 78.8238 93.4889C78.5199 93.4889 78.2236 93.3951 77.9753 93.2206V93.1551ZM75.2575 93.1551C75.1555 93.0533 75.0757 92.931 75.0233 92.7973C74.9707 92.6627 74.9466 92.5196 74.9526 92.3759V91.9799C74.949 91.8364 74.9741 91.6937 75.0264 91.56C75.0789 91.4263 75.1573 91.3042 75.2575 91.2011C75.3691 91.0987 75.5013 91.0211 75.6452 90.9733C75.7892 90.9255 75.9417 90.9087 76.0927 90.9239C76.3062 90.9225 76.5179 90.9629 76.7158 91.0427C76.8651 91.1257 76.9994 91.2328 77.1135 91.3595C77.1886 91.4635 77.2302 91.5878 77.2329 91.7159V91.7951C77.2329 91.7951 77.2329 91.7951 77.1533 91.7951H76.6362C76.6362 91.7951 76.6362 91.7951 76.6362 91.7159C76.5935 91.6089 76.5252 91.5138 76.4374 91.4387C76.344 91.3872 76.2392 91.36 76.1325 91.3595C76.0587 91.356 75.985 91.3684 75.9164 91.3957C75.8478 91.4231 75.7859 91.4647 75.7348 91.5179C75.6243 91.646 75.5674 91.8113 75.5756 91.9799V92.2967C75.5756 92.6928 75.7745 92.9302 76.0927 92.9302C76.1986 92.9249 76.3023 92.8974 76.3977 92.8513C76.4854 92.7761 76.5537 92.6813 76.5965 92.5742C76.5965 92.5742 76.5965 92.5742 76.5965 92.4948C76.5965 92.4155 76.5965 92.4948 76.6761 92.4948H77.0871H77.1666C77.1666 92.4948 77.1666 92.4947 77.1666 92.5742C77.1639 92.7017 77.1223 92.8266 77.0473 92.9302C76.951 93.0718 76.8115 93.1781 76.6495 93.2339C76.4568 93.3304 76.2412 93.3712 76.0265 93.3526C75.8844 93.3818 75.7374 93.3756 75.5986 93.334C75.4597 93.2923 75.3334 93.2171 75.231 93.1152L75.2575 93.1551ZM73.8389 93.3526C73.833 93.3402 73.83 93.3269 73.83 93.3136C73.83 93.2994 73.833 93.2861 73.8389 93.2737V92.8115V92.6928H74.3162C74.3162 92.6928 74.3162 92.6928 74.3958 92.6928C74.4753 92.6928 74.3958 92.6928 74.3958 92.7717V93.2339C74.3958 93.2339 74.3958 93.2339 74.3958 93.3136C74.3958 93.3924 74.3958 93.3136 74.3162 93.3136H73.8389V93.3526ZM71.6381 93.3526C71.5103 93.3003 71.3934 93.2242 71.2935 93.1285C71.2587 93.0984 71.2303 93.0621 71.2098 93.0214C71.1893 92.9806 71.1771 92.9364 71.1741 92.8903C71.1741 92.8903 71.1741 92.8903 71.1741 92.8115C71.1741 92.7327 71.1741 92.8115 71.2536 92.8115H71.6381C71.6381 92.8115 71.6381 92.8115 71.7177 92.8115L71.837 92.8903C71.8956 92.9452 71.9645 92.9868 72.0396 93.0143C72.1148 93.0417 72.1947 93.0532 72.2745 93.0488C72.3805 93.0435 72.4841 93.0161 72.5795 92.97C72.6165 92.9523 72.6475 92.924 72.6687 92.8885C72.6899 92.8531 72.7003 92.8133 72.6987 92.7717C72.717 92.7203 72.717 92.6645 72.6987 92.6131C72.6409 92.568 72.5787 92.5282 72.5131 92.4948L72.0757 92.3759C71.8521 92.3498 71.6428 92.2526 71.4791 92.0987C71.3748 91.9914 71.3101 91.852 71.2956 91.7034C71.2812 91.5547 71.3178 91.4055 71.3995 91.2802C71.4918 91.1577 71.6155 91.062 71.7575 91.0031C71.9322 90.9238 72.1223 90.8833 72.3143 90.8842C72.5023 90.8811 72.6885 90.9219 72.8579 91.0031C72.986 91.0683 73.1061 91.148 73.2158 91.2407C73.2506 91.2704 73.279 91.3067 73.2995 91.3475C73.32 91.3883 73.3321 91.4327 73.3352 91.4782C73.3352 91.4782 73.3352 91.4782 73.3352 91.5575C73.3352 91.6367 73.3352 91.5575 73.2556 91.5575H72.8976H72.8181C72.8181 91.5575 72.7385 91.5575 72.6987 91.4782L72.553 91.3595C72.4875 91.3443 72.4194 91.3443 72.3541 91.3595C72.2545 91.3488 72.1546 91.3771 72.0757 91.4387C71.9962 91.4387 71.9961 91.5575 71.9961 91.6367C71.9779 91.6879 71.9779 91.7438 71.9961 91.7951C72.0568 91.8434 72.1237 91.8833 72.195 91.9139L72.5795 92.0195C73.1363 92.1383 73.4544 92.3759 73.4544 92.7717C73.4539 92.8779 73.4285 92.9815 73.3802 93.0754C73.3317 93.1693 73.2618 93.2507 73.176 93.3136C72.9361 93.4783 72.6432 93.5483 72.3541 93.5111C72.1098 93.5208 71.8662 93.4801 71.6381 93.3924V93.3526ZM67.0776 93.3526C67.0776 93.3526 67.0776 93.3526 67.0776 93.2737V91.0427V90.9635C67.0776 90.9635 67.0775 90.9635 67.1571 90.9635H67.515C67.515 90.9635 67.515 90.9635 67.515 91.0427V91.2011C67.599 91.1039 67.7026 91.0254 67.8191 90.9708C67.9357 90.9162 68.0625 90.8867 68.1912 90.8842C68.3445 90.8748 68.4971 90.9112 68.6295 90.9888C68.7618 91.0664 68.8677 91.1818 68.9336 91.3199C69.0187 91.1953 69.1267 91.0879 69.2518 91.0031C69.383 90.922 69.5349 90.8808 69.6893 90.8842C69.827 90.8493 69.9718 90.8529 70.1075 90.8949C70.2433 90.9368 70.3647 91.0154 70.4583 91.1219C70.5453 91.2231 70.6113 91.3406 70.6523 91.4675C70.6933 91.5945 70.7084 91.7282 70.6969 91.8611V93.1808C70.6969 93.1808 70.6969 93.1808 70.6969 93.2605C70.6969 93.3393 70.6968 93.2605 70.6173 93.2605H70.2196H70.14C70.1342 93.2481 70.1311 93.2348 70.1311 93.2206C70.1311 93.2073 70.1342 93.1932 70.14 93.1808V91.8611C70.1418 91.7119 70.1003 91.5652 70.0207 91.4387C69.9834 91.3921 69.9341 91.3565 69.8781 91.3356C69.8221 91.3147 69.7614 91.3093 69.7026 91.3199C69.585 91.3166 69.4708 91.3592 69.3844 91.4387C69.3367 91.4973 69.3015 91.565 69.2809 91.6376C69.2604 91.7103 69.255 91.7863 69.265 91.8611V93.1808C69.265 93.1808 69.265 93.1808 69.265 93.2605C69.265 93.3393 69.265 93.2605 69.1855 93.2605H68.801C68.7849 93.2622 68.7684 93.2613 68.7529 93.256C68.7374 93.2507 68.7233 93.2419 68.7118 93.2304C68.7003 93.2188 68.6915 93.2047 68.6863 93.1896C68.6811 93.1737 68.6795 93.1577 68.6817 93.1418V91.8215C68.6834 91.6722 68.642 91.5256 68.5624 91.3991C68.4749 91.3212 68.3616 91.2781 68.2442 91.2781C68.1268 91.2781 68.0135 91.3212 67.926 91.3991C67.8783 91.4577 67.8431 91.5254 67.8226 91.5981C67.8021 91.6707 67.7967 91.7467 67.8067 91.8215V93.1418C67.8067 93.1418 67.8067 93.1418 67.8067 93.2206H67.4089H67.3294L67.0776 93.3526ZM65.1021 93.3526C65.0962 93.3402 65.0932 93.3269 65.0932 93.3136C65.0932 93.2994 65.0962 93.2861 65.1021 93.2737V91.0427V90.9635C65.1021 90.9635 65.1021 90.9635 65.1817 90.9635H65.5794H65.659C65.659 90.9635 65.659 90.9635 65.659 91.0427V91.2407C65.7409 91.1445 65.8423 91.0665 65.9565 91.0119C66.0707 90.9574 66.1952 90.9274 66.3219 90.9239H66.5208H66.6003C66.6003 90.9239 66.6003 90.9239 66.6003 91.0031V91.3595C66.6003 91.3595 66.6003 91.3595 66.6003 91.4387C66.6003 91.5179 66.6003 91.4387 66.5208 91.4387H66.2158C66.0871 91.4413 65.9623 91.4828 65.8578 91.5575C65.7775 91.6537 65.7351 91.7757 65.7385 91.9007V93.2206C65.7385 93.2206 65.7385 93.2206 65.7385 93.3003C65.7385 93.3791 65.7385 93.3003 65.659 93.3003H65.1552L65.1021 93.3526ZM62.4506 93.3526C62.4506 93.3526 62.4506 93.3526 62.4506 93.2737V91.4387H62.0529C62.0529 91.4387 61.9335 91.4387 61.9335 91.3595V91.1219C61.9335 91.1219 61.9335 91.1219 61.9335 91.0427C61.9335 90.9635 61.9335 91.0427 62.0132 91.0427H62.5036V90.8447C62.5008 90.6175 62.5809 90.397 62.729 90.2243C62.8274 90.1425 62.9421 90.0826 63.0655 90.0484C63.189 90.0142 63.3183 90.0067 63.445 90.0262H64.426H64.5056C64.5056 90.0262 64.5056 90.0262 64.5056 90.1054V90.3827V90.4618C64.5056 90.4618 64.5056 90.4618 64.426 90.4618H63.4847C63.3876 90.4698 63.293 90.4967 63.2063 90.541C63.1603 90.622 63.1331 90.7123 63.1268 90.8051V90.9635H64.4525H64.532C64.532 90.9635 64.532 90.9635 64.532 91.0427V93.2737C64.532 93.2737 64.532 93.2737 64.532 93.3526C64.532 93.4323 64.532 93.3526 64.4525 93.3526H64.0548C64.0386 93.3552 64.0221 93.3534 64.0067 93.3481C63.9912 93.3428 63.9772 93.334 63.9656 93.3225C63.9541 93.3109 63.9453 93.2977 63.9401 93.2817C63.9348 93.2667 63.9333 93.2498 63.9355 93.2339V91.4782H63.1533V93.3136C63.1533 93.3136 63.1533 93.3127 63.1533 93.3924C63.1533 93.4712 63.1533 93.3924 63.0737 93.3924H62.5036C62.5036 93.3924 62.4241 93.3924 62.4241 93.3136L62.4506 93.3526ZM60.7139 92.7717C60.8073 92.645 60.8625 92.4936 60.8729 92.3363V91.9403C60.8753 91.8689 60.8624 91.7978 60.835 91.7318C60.8075 91.6658 60.7662 91.6063 60.7139 91.5575C60.6628 91.5043 60.6009 91.4627 60.5323 91.4354C60.4637 91.408 60.39 91.3956 60.3161 91.3991C60.0112 91.3991 59.8123 91.5971 59.7726 92.0195V92.2967C59.7726 92.6928 59.9715 92.9302 60.3161 92.9302C60.3947 92.9452 60.4757 92.9381 60.5504 92.9098C60.6253 92.8823 60.691 92.8345 60.7404 92.7717H60.7139ZM59.3881 93.1551C59.1954 92.9266 59.096 92.6344 59.1097 92.3363V92.0195C59.1076 91.7234 59.2058 91.435 59.3881 91.2011C59.5848 91.0033 59.851 90.8896 60.1305 90.8842C60.2658 90.8819 60.4001 90.909 60.5237 90.9638C60.6474 91.0185 60.7576 91.0995 60.8465 91.2011V90.1451V90.0658C60.8465 90.0658 60.8465 90.0658 60.926 90.0658H61.3105H61.39C61.39 90.0658 61.39 90.0658 61.39 90.1451V93.2737C61.39 93.2737 61.39 93.2737 61.39 93.3526C61.39 93.4323 61.39 93.3526 61.3105 93.3526H60.926C60.9098 93.3552 60.8933 93.3534 60.8779 93.3481C60.8624 93.3428 60.8483 93.334 60.8368 93.3225C60.8252 93.3109 60.8165 93.2977 60.8113 93.2817C60.8061 93.2667 60.8045 93.2498 60.8067 93.2339V93.0488C60.7207 93.1507 60.6146 93.233 60.4951 93.2923C60.3755 93.3508 60.2451 93.3844 60.1118 93.3906C59.9787 93.3968 59.8456 93.3756 59.721 93.3278C59.5965 93.2808 59.4832 93.2082 59.3881 93.1152V93.1551ZM57.89 92.8115C57.9476 92.7469 57.9913 92.6716 58.0187 92.5901C58.0461 92.5086 58.0564 92.4221 58.0491 92.3363V91.9403C58.0492 91.773 57.9931 91.6104 57.89 91.4782C57.841 91.4262 57.7813 91.385 57.715 91.3577C57.6486 91.3304 57.5773 91.3175 57.5055 91.3199C57.4317 91.3165 57.358 91.3288 57.2894 91.3561C57.2209 91.3835 57.1589 91.4251 57.1078 91.4782C57.0513 91.5406 57.0081 91.6136 56.9807 91.6931C56.9533 91.7724 56.9424 91.8566 56.9487 91.9403V92.2967C56.9467 92.4684 57.0027 92.6362 57.1078 92.7717C57.1589 92.8248 57.2209 92.8664 57.2894 92.8939C57.358 92.9213 57.4317 92.9337 57.5055 92.9302C57.5727 92.9638 57.6501 92.97 57.7216 92.9479C57.7933 92.9257 57.8536 92.877 57.89 92.8115ZM56.5642 93.1551C56.4622 93.0533 56.3824 92.931 56.33 92.7973C56.2775 92.6627 56.2534 92.5196 56.2593 92.3759V91.9799C56.2557 91.8364 56.2809 91.6937 56.3332 91.56C56.3855 91.4263 56.4641 91.3042 56.5642 91.2011C56.6837 91.0984 56.8228 91.0208 56.9732 90.9731C57.1236 90.9255 57.2821 90.9088 57.4392 90.9239C57.7503 90.9127 58.0553 91.0108 58.301 91.2011C58.4029 91.3036 58.4835 91.4252 58.5381 91.5589C58.5927 91.6925 58.6203 91.8356 58.6192 91.9799V92.4419C58.6226 92.5866 58.596 92.73 58.5413 92.8646C58.4865 92.9983 58.4048 93.1197 58.301 93.2206C58.0524 93.4128 57.7469 93.5164 57.4326 93.5164C57.1182 93.5164 56.8128 93.4128 56.5642 93.2206V93.1551ZM55.0263 92.8115C55.0839 92.7469 55.1277 92.6716 55.1551 92.5901C55.1825 92.5086 55.1927 92.4221 55.1855 92.3363V91.9403C55.1855 91.773 55.1295 91.6104 55.0263 91.4782C54.979 91.4239 54.9197 91.3813 54.8529 91.3537C54.7862 91.3263 54.7139 91.3147 54.6419 91.3199C54.5681 91.3165 54.4944 91.3288 54.4258 91.3561C54.3571 91.3835 54.2952 91.4251 54.2441 91.4782C54.1876 91.5406 54.1443 91.6136 54.1171 91.6931C54.0897 91.7724 54.0788 91.8566 54.0851 91.9403V92.2967C54.0831 92.4684 54.1391 92.6362 54.2441 92.7717C54.2899 92.8319 54.349 92.8806 54.4169 92.9142C54.4847 92.9479 54.5595 92.9656 54.6353 92.9656C54.711 92.9656 54.7858 92.9479 54.8537 92.9142C54.9215 92.8806 54.9806 92.8319 55.0263 92.7717V92.8115ZM53.7006 93.1551C53.4996 92.9452 53.39 92.6654 53.3956 92.3759V91.9799C53.3955 91.6914 53.5043 91.4133 53.7006 91.2011C53.9388 91.0035 54.239 90.8953 54.5491 90.8953C54.8591 90.8953 55.1593 91.0035 55.3975 91.2011C55.4995 91.3036 55.5801 91.4252 55.6347 91.5589C55.6892 91.6925 55.7169 91.8356 55.7157 91.9799V92.4419C55.7191 92.5866 55.6926 92.73 55.6379 92.8646C55.5832 92.9983 55.5013 93.1197 55.3975 93.2206C55.1593 93.4181 54.8591 93.5261 54.5491 93.5261C54.239 93.5261 53.9388 93.4181 53.7006 93.2206V93.1551ZM52.0566 92.7327C52.1433 92.6167 52.1982 92.4799 52.2158 92.3363V92.0195C52.2196 91.942 52.2075 91.8645 52.1802 91.7919C52.1528 91.7192 52.1107 91.653 52.0566 91.5971C52.008 91.5408 51.9465 91.497 51.8772 91.4695C51.808 91.4419 51.7331 91.4313 51.6589 91.4387C51.301 91.4387 51.1552 91.6367 51.1154 92.0591V92.1779C51.1154 92.6928 51.301 92.9302 51.6589 92.9302C51.8111 92.9142 51.9523 92.8434 52.0566 92.7327ZM50.996 94.3036C50.8512 94.2301 50.728 94.1212 50.6381 93.9866C50.5583 93.9007 50.5155 93.7865 50.5187 93.6696C50.5187 93.6696 50.5187 93.6696 50.5187 93.5908C50.5187 93.5111 50.5187 93.5908 50.5983 93.5908H51.1154C51.1154 93.5908 51.1154 93.5908 51.1154 93.6696C51.1252 93.7103 51.1432 93.7493 51.1683 93.7829C51.1932 93.8175 51.2248 93.8458 51.2612 93.8679C51.3063 93.9007 51.3577 93.9255 51.4123 93.9388C51.4669 93.9529 51.5237 93.9556 51.5794 93.9467C51.7001 93.9671 51.8243 93.9423 51.9272 93.8759C52.0303 93.8104 52.1048 93.7085 52.1362 93.5908V93.0887C51.9392 93.2746 51.6782 93.3782 51.407 93.3782C51.1358 93.3782 50.8748 93.2746 50.6779 93.0887C50.5035 92.8452 50.4065 92.5556 50.3994 92.2571V92.0195C50.3974 91.7234 50.4954 91.435 50.6779 91.2011C50.8736 91.0021 51.1405 90.8882 51.4203 90.8842C51.5694 90.8878 51.717 90.9145 51.8578 90.9635C51.9708 91.0329 52.0773 91.1124 52.176 91.2011V91.0031V90.9239C52.176 90.9239 52.176 90.9239 52.2555 90.9239H52.64H52.7195C52.7195 90.9239 52.7195 90.9239 52.7195 91.0031V93.2339C52.7348 93.3844 52.7178 93.5359 52.6699 93.6793C52.6219 93.8228 52.5439 93.9547 52.4411 94.0654C52.3239 94.1672 52.1867 94.2425 52.0383 94.2886C51.8899 94.3337 51.7336 94.3479 51.5794 94.3293C51.337 94.4001 51.0794 94.4001 50.837 94.3293L50.996 94.3036Z" fill="white"/>
<path d="M127.467 71.7324H113.202V93.5135H127.467L122.866 83.2828L127.467 71.7324ZM0.193848 71.7324H14.5121V93.5135H0.193848L4.79425 83.2828L0.193848 71.7324Z" fill="white"/>
<path d="M120.436 64.2461L113.198 71.6911V93.4719L120.436 86.3041V64.2461ZM7.37524 64.2461L14.6537 71.9947V93.5118L7.37524 86.3041V64.2461Z" fill="white"/>
<path d="M64.5178 13.582L66.8378 18.2418L72.0348 18.981L68.2962 22.6243L69.1978 27.7593L64.5576 25.3304L59.9174 27.7593L60.8189 22.6243L57.0405 18.981L62.2375 18.2418L64.5178 13.582Z" fill="white"/>
<path d="M50.1621 22.6651L48.7436 19.8799L47.3647 22.6651L44.2493 23.1404L46.4897 25.3316L45.986 28.3942L48.7436 26.9422L51.5277 28.3942L51.0238 25.3316L53.2644 23.1404L50.1621 22.6651Z" fill="white"/>
<path d="M84.8321 23.1404L81.7166 22.6651L80.2979 19.8799L78.9192 22.6651L75.8169 23.1404L78.0575 25.3316L77.5404 28.3942L80.2979 26.9422L83.0953 28.3942L82.5915 25.3316L84.8321 23.1404Z" fill="white"/>
<path d="M42.4058 29.9919L41.5706 28.3154L40.7486 29.9919L38.8528 30.2691L40.1918 31.5628L39.8869 33.4372L41.5706 32.5396L43.2278 33.4372L42.9097 31.5628L44.2487 30.2691L42.4058 29.9919Z" fill="white"/>
<path d="M90.2121 30.2691L88.3298 29.9919L87.5079 28.3154L86.6727 29.9919L84.79 30.2691L86.1688 31.5628L85.8506 33.4372L87.5079 32.5396L89.1522 33.4372L88.8334 31.5628L90.2121 30.2691Z" fill="white"/>
<path d="M51.5211 70.3961C51.5211 70.0006 51.2562 69.8027 50.8192 69.8027H49.998V71.0159H50.7C51.2164 71.0159 51.5211 70.7786 51.5211 70.3961Z" fill="white"/>
<path d="M68.8105 78.002L68.2139 79.916H69.4336L68.837 78.002H68.8105Z" fill="white"/>
<path d="M77.1941 73.0237C77.8896 73.0237 78.4535 72.3027 78.4535 71.4132C78.4535 70.5238 77.8896 69.8027 77.1941 69.8027C76.4985 69.8027 75.9346 70.5238 75.9346 71.4132C75.9346 72.3027 76.4985 73.0237 77.1941 73.0237Z" fill="white"/>
<path d="M57.7824 71.3203C57.7824 70.3039 57.2785 69.7891 56.4566 69.7891H55.7539V72.8912H56.4566C57.3184 72.944 57.7824 72.3896 57.7824 71.3203Z" fill="white"/>
<path d="M108.902 64.0868C108.902 63.7172 108.982 63.3476 109.008 62.9911C108.914 63.3658 108.79 63.7322 108.637 64.0868H106.887C107.482 63.2255 107.888 62.2497 108.08 61.2223C108.405 59.5845 108.512 57.9113 108.398 56.2457C108.398 56.6417 107.802 59.7306 105.92 60.3246C105.57 60.4252 105.236 60.5717 104.925 60.7602C104.925 59.8494 104.845 58.9914 104.766 58.1201C106.33 58.3049 107.126 56.3908 107.325 54.2392C107.438 52.6525 107.332 51.0577 107.006 49.5002C107.006 49.7247 106.927 52.8664 105.19 53.6848C104.868 53.8486 104.566 54.0478 104.288 54.2788C104.17 53.3283 103.971 52.4308 103.785 51.4935C105.23 51.4935 105.747 49.5794 105.667 47.5333C105.574 46.0154 105.285 44.5157 104.806 43.0716C104.806 43.3092 105.11 46.3189 103.626 47.2958C103.343 47.4985 103.077 47.7236 102.83 47.9689C102.525 46.9921 102.207 45.9625 101.85 44.9461C103.267 44.7877 103.546 42.9132 103.175 40.92C102.914 39.4576 102.468 38.0339 101.85 36.6825C101.964 37.2207 102.022 37.7693 102.022 38.3194C102.09 38.7877 102.058 39.265 101.928 39.72C101.797 40.175 101.572 40.5974 101.266 40.9595C100.991 41.1949 100.754 41.4709 100.563 41.7779C100.086 40.6823 99.5819 39.5867 99.0258 38.491C100.351 38.2534 100.351 36.3658 99.821 34.3724C99.3525 32.9559 98.7158 31.5998 97.925 30.3331C98.1517 30.8649 98.3244 31.4176 98.4422 31.9832C98.5715 32.4218 98.6096 32.8819 98.5547 33.3357C98.4998 33.7895 98.3536 34.2275 98.1243 34.6233C97.8454 34.9245 97.6417 35.286 97.5275 35.6793C96.347 33.5936 95.048 31.442 93.5497 29.2903C94.8824 31.3419 96.0823 33.4758 97.1431 35.6793C96.819 35.6186 96.4861 35.6186 96.162 35.6793C94.6238 36.0225 92.9935 34.3592 92.8873 34.3592C93.5629 35.2965 94.3059 36.2337 95.0878 37.1446C96.1221 38.3194 97.3813 39.3754 98.4422 38.7022L98.5219 38.9002C98.9859 39.9166 99.4234 40.9067 99.8475 41.9232C99.5305 41.8837 99.21 41.8837 98.8929 41.9232C97.5886 41.7936 96.3887 41.1582 95.5518 40.1543C96.1487 41.1707 96.8775 42.2003 97.5142 43.1772C98.5485 44.4972 99.7678 45.8173 101.067 45.1309C101.411 46.1473 101.73 47.1769 102.048 48.233C101.673 48.0797 101.273 47.9991 100.869 47.9954C99.5066 47.7013 98.3085 46.9041 97.5142 45.7645C98.0349 46.9026 98.614 48.0129 99.2507 49.091C100.192 50.6618 101.372 52.2196 102.91 51.5991C103.149 52.6156 103.347 53.5924 103.507 54.622C103.099 54.3814 102.648 54.2201 102.181 54.1468C100.801 53.6189 99.6456 52.6358 98.9062 51.3615C99.2976 52.6186 99.7714 53.8488 100.325 55.0444C101.16 56.8133 102.221 58.6481 103.944 58.1862C103.944 58.3842 103.944 58.5294 103.944 58.7274C104.024 59.4798 104.024 60.219 104.064 60.9978C103.662 60.6942 103.215 60.4578 102.738 60.2982C100.802 59.4402 99.7413 56.8001 99.7014 56.8001C99.9804 58.1201 100.325 59.4402 100.722 60.7602C100.995 61.9667 101.524 63.1009 102.274 64.0868H100.576C100.288 63.5323 100.048 62.9537 99.8608 62.3575C99.8608 62.3575 99.8608 63.0703 100.019 64.0868H28.4285C28.5147 63.461 28.5634 62.8307 28.5743 62.1991C28.3536 62.846 28.0877 63.4767 27.7789 64.0868H25.9228C26.7896 63.1503 27.3931 62.0029 27.6729 60.7602C28.0706 59.4402 28.4285 58.1201 28.7069 56.7209C28.7069 56.7209 27.6065 59.361 25.6312 60.087C25.1559 60.2573 24.709 60.4976 24.3054 60.7998C24.3054 60.0078 24.3849 59.2685 24.4248 58.5162C24.4248 58.3314 24.4248 58.173 24.4248 57.975C26.1217 58.4369 27.222 56.6549 28.0042 54.8332C28.5532 53.6495 29.0269 52.4326 29.4229 51.1899C28.6981 52.4711 27.5435 53.4572 26.1615 53.9752C25.6991 54.0495 25.2517 54.1965 24.8357 54.4108C24.9948 53.4208 25.1804 52.4044 25.419 51.4275C26.9172 52.0216 28.0706 50.4903 29.0384 48.959C29.6671 47.8832 30.2336 46.7725 30.7354 45.6325C29.9416 46.7486 28.769 47.541 27.4342 47.8634C27.0414 47.8605 26.6527 47.9415 26.294 48.101C26.599 47.0846 26.9172 46.0153 27.2751 44.9989C28.6009 45.672 29.7941 44.3785 30.7751 43.0452C31.4759 42.0766 32.1178 41.0672 32.6974 40.0223C32.6974 40.0223 31.0933 41.91 29.3963 41.7911C29.0838 41.7516 28.7676 41.7516 28.4551 41.7911C28.8793 40.8143 29.3168 39.7847 29.7808 38.7682L29.8603 38.5702C30.921 39.2435 32.1406 38.1874 33.2012 37.0126C33.9835 36.1017 34.6994 35.1645 35.3623 34.2273C35.3623 34.2273 33.6388 35.9566 32.1009 35.6397C31.7948 35.5551 31.4756 35.5282 31.1595 35.5606C32.2439 33.3371 33.4476 31.1735 34.7657 29.0791C33.3194 31.132 31.9915 33.2652 30.7883 35.4681C30.6693 35.077 30.4657 34.7165 30.1918 34.4121C29.968 34.0141 29.8258 33.5756 29.7733 33.1225C29.721 32.6693 29.7596 32.2102 29.8869 31.772C29.9998 31.2068 30.1685 30.654 30.3906 30.1219C29.6042 31.3555 28.9846 32.6871 28.5479 34.0821C28.0308 36.1414 28.0308 37.9894 29.3565 38.227C28.813 39.3226 28.2959 40.4183 27.8585 41.514C27.6698 41.2167 27.4473 40.9421 27.1956 40.6955C26.9019 40.3445 26.6835 39.9375 26.5535 39.4994C26.4236 39.0612 26.3849 38.6013 26.4399 38.1478C26.4668 37.5767 26.5557 37.0102 26.705 36.4581C26.0919 37.8117 25.6467 39.2347 25.3793 40.6955C25.0345 42.6888 25.2997 44.5765 26.705 44.7216C26.3603 45.7513 26.0422 46.7281 25.724 47.7445C25.4929 47.4919 25.23 47.27 24.9417 47.0846C23.4039 46.0945 23.7221 43.1244 23.7618 42.8472C23.2926 44.2943 22.9988 45.7923 22.8869 47.3089C22.8072 49.3946 23.3243 51.2691 24.7827 51.2691C24.5838 52.2064 24.4247 53.1171 24.2656 54.0544C23.9896 53.8328 23.6867 53.6465 23.3641 53.4999C21.6274 52.7211 21.5478 49.5399 21.5876 49.3551C21.2497 50.9331 21.1293 52.5496 21.2296 54.16C21.4152 56.3117 22.2107 58.2389 23.7486 58.0409C23.669 58.899 23.6293 59.757 23.5895 60.6811C23.2579 60.4779 22.9015 60.3182 22.5288 60.2058C20.633 59.5722 20.0762 56.4833 20.0762 56.0873C19.9644 57.7391 20.067 59.3985 20.3812 61.0243C20.5656 62.1375 21.0208 63.1889 21.7069 64.0868H19.8508C19.6608 63.6599 19.5056 63.2184 19.3868 62.7667C19.3868 63.1891 19.4531 63.5983 19.5194 64.0868H7.21631V86.1844H25.5118C26.0671 86.9048 26.6742 87.5842 27.3281 88.2173C29.4493 90.3425 32.207 91.6362 33.3471 89.7881C33.7449 90.2633 34.1691 90.7254 34.6729 91.2005C34.1268 91.2335 33.5917 91.3678 33.0952 91.5965C30.8547 92.5338 27.6993 90.0257 27.4342 89.709C28.7293 91.3938 30.2711 92.8759 32.0081 94.105C34.5668 95.8601 37.563 96.7447 38.385 94.7248C38.8783 95.1588 39.4059 95.551 39.9627 95.8999C39.4059 96.0248 38.8732 96.2391 38.385 96.534C36.3433 97.748 32.671 95.7414 32.3262 95.5174C33.9766 96.9546 35.8304 98.1421 37.8282 99.0418C40.7846 100.362 43.9267 100.639 44.457 98.646C45.0536 98.9621 45.6369 99.2393 46.2733 99.543C45.7432 99.7538 45.2508 100.048 44.8149 100.414C42.9191 101.932 38.9021 100.599 38.4381 100.414C40.3681 101.602 42.476 102.476 44.6824 103.002C47.904 103.78 51.2184 103.503 51.3112 101.471C55.0823 102.548 59.007 102.994 62.9249 102.79V102.077C59.0597 102.268 55.1896 101.822 51.4703 100.758C52.796 99.0418 50.6085 97.3522 48.5271 95.7016L44.1255 92.4414C44.1255 92.4414 46.7771 95.0817 46.4854 97.3788C46.3861 97.8977 46.3861 98.4299 46.4854 98.9488C45.9021 98.6717 45.3055 98.3945 44.7221 98.0783C46.26 96.5995 44.5232 94.4742 42.8263 92.481C41.1294 90.4878 39.2467 88.5208 39.2467 88.4417C39.2467 88.3625 41.2222 91.5438 40.5725 93.7215C40.3936 94.2254 40.3126 94.7585 40.3339 95.2925C39.8301 94.8966 39.3131 94.5407 38.8093 94.1183C40.5327 92.9033 39.2733 90.4746 38.0138 88.1909C37.6028 87.4912 37.2051 86.7916 36.8206 86.158H91.667C91.2429 86.8708 90.7523 87.676 90.275 88.5076C89.0157 90.8045 87.6901 93.2336 89.5063 94.4477C88.9892 94.8834 88.4856 95.2402 87.9685 95.6228C87.977 95.0906 87.8825 94.5619 87.6901 94.0651C87.0273 91.7946 89.0157 88.6925 89.0157 88.6925C89.0157 88.6925 87.2129 90.6858 85.3966 92.7315C83.5803 94.778 81.9363 96.8368 83.514 98.329C82.9571 98.646 82.3341 98.9231 81.7374 99.2003C81.8368 98.6814 81.8368 98.1483 81.7374 97.6294C81.459 95.319 84.0973 92.6527 84.0973 92.6527C84.0973 92.6527 81.9893 94.3024 79.7356 95.9398C77.4817 97.5762 75.4003 99.3057 76.7393 101.035C72.9787 102.097 69.0697 102.542 65.1655 102.355L65.2847 102.975C69.229 103.185 73.181 102.739 76.978 101.655C77.1371 103.688 80.4382 103.965 83.7128 103.174C85.9193 102.61 88.0286 101.72 89.9703 100.533C89.5329 100.731 85.4363 102.065 83.5537 100.533C83.0998 100.207 82.6106 99.9326 82.0954 99.7148C82.6787 99.4376 83.3152 99.1339 83.8985 98.8169C84.3758 100.81 87.5973 100.533 90.5273 99.2136C92.5313 98.2962 94.39 97.091 96.0424 95.6361C95.6448 95.9132 91.9858 97.9198 89.9039 96.7049C89.4107 96.4224 88.8794 96.209 88.3265 96.0717C88.8696 95.7149 89.3868 95.2925 89.9039 94.8966C90.7257 96.8501 93.7223 96.0319 96.3072 94.2635C98.0481 93.0459 99.6102 91.5931 100.947 89.9465C100.669 90.2237 97.4478 92.7714 95.2339 91.8606C94.7194 91.6605 94.1793 91.5316 93.6294 91.4778C94.0934 91.0025 94.491 90.5405 94.955 90.0653C96.0955 91.9398 98.8398 90.6065 101.014 88.4944C101.778 87.7825 102.483 87.0099 103.122 86.1844H120.357V64.0868H108.902ZM27.7524 69.8818H26.4266V73.7627H25.3793V69.8818H24.0535V69.0634H27.7922L27.7524 69.8818ZM30.152 73.842C29.6644 73.871 29.1792 73.7537 28.7593 73.505C28.3395 73.2564 28.0042 72.8881 27.797 72.4476C27.5899 72.007 27.5203 71.5148 27.5972 71.0345C27.6743 70.5542 27.8943 70.1079 28.229 69.7536C28.5635 69.3993 28.9974 69.1531 29.474 69.047C29.9508 68.9409 30.4486 68.9797 30.9028 69.1585C31.3571 69.3373 31.7471 69.6478 32.0221 70.0498C32.2972 70.4517 32.4447 70.9266 32.4456 71.413C32.4782 71.7276 32.4424 72.0455 32.3408 72.3451C32.2391 72.6446 32.0739 72.919 31.8563 73.1494C31.6387 73.3798 31.3739 73.5609 31.0799 73.6804C30.7858 73.7999 30.4694 73.855 30.152 73.842ZM35.6274 89.2073C35.354 89.6724 35.1823 90.1897 35.1236 90.7254C34.6861 90.2633 34.2486 89.7881 33.7979 89.3261C34.9115 88.7453 35.1236 87.5704 34.885 86.1844H35.9853C36.1545 87.2055 36.0304 88.2534 35.6274 89.2073ZM36.6482 70.7266C36.6535 70.9311 36.6183 71.1348 36.5445 71.3258C36.4708 71.5168 36.3599 71.6915 36.2183 71.8398C36.0767 71.9881 35.9071 72.1072 35.7193 72.1903C35.5315 72.2733 35.3291 72.3188 35.1236 72.3239H34.01V73.8155H33.0289V69.0634H35.0441C35.2463 69.049 35.4492 69.0757 35.6408 69.1417C35.8322 69.2077 36.0084 69.3118 36.1583 69.4475C36.3083 69.5833 36.4291 69.7479 36.5133 69.9315C36.5975 70.115 36.6434 70.3137 36.6482 70.5154V70.7266ZM77.1901 69.037C77.6781 69.0052 78.1644 69.1202 78.5859 69.367C79.0074 69.6139 79.3447 69.9812 79.554 70.4213C79.7632 70.8614 79.8349 71.354 79.7594 71.8351C79.684 72.3162 79.4651 72.7636 79.1312 73.1193C78.7973 73.475 78.3636 73.7226 77.8867 73.8298C77.4097 73.9372 76.9113 73.8992 76.4562 73.721C76.0011 73.5427 75.6104 73.2324 75.3346 72.8302C75.0588 72.4281 74.9108 71.9528 74.9098 71.4658C74.8643 71.1475 74.8902 70.823 74.9856 70.5158C75.081 70.2086 75.2436 69.9262 75.4616 69.689C75.6795 69.4518 75.9476 69.2655 76.2464 69.1436C76.5453 69.0218 76.8676 68.9673 77.1901 68.9841V69.037ZM71.5954 69.1162H72.5764V72.9971H74.6314V73.8155H71.5954V69.1162ZM67.8169 69.1162H70.9325V69.9346H68.8113V71.0698H70.8132V71.8222H68.8113V72.9971H70.9325V73.8155H67.8037L67.8169 69.1162ZM54.7184 69.1162H56.5214C56.8204 69.0907 57.1214 69.13 57.4038 69.2312C57.6861 69.3325 57.9431 69.4933 58.1572 69.7026C58.3712 69.9121 58.5373 70.1651 58.644 70.4444C58.7507 70.7236 58.7954 71.0225 58.7752 71.3206C58.8135 71.6292 58.7824 71.9424 58.6842 72.2376C58.5861 72.5327 58.4232 72.8024 58.2076 73.0273C57.9919 73.2521 57.7288 73.4264 57.4372 73.5376C57.1456 73.6488 56.8328 73.6942 56.5214 73.6703H54.7184V69.1162ZM48.9646 69.1162H51.0593C51.9608 69.1162 52.5176 69.5781 52.5176 70.291C52.5122 70.535 52.4221 70.7696 52.2626 70.9549C52.103 71.1402 51.884 71.2648 51.6426 71.3074C51.9392 71.3144 52.2211 71.4375 52.427 71.65C52.6331 71.8625 52.7466 72.1473 52.743 72.4426C52.743 73.2611 52.1199 73.7627 51.1388 73.7627H48.9646V69.1162ZM43.3434 73.8155H42.402L41.4873 70.6078L40.6653 73.8155H39.724L38.4645 69.1162H39.4854L40.2278 72.5219L41.1028 69.1162H41.9247L42.7865 72.5219L43.5423 69.1162H44.5631L43.3434 73.8155ZM45.1464 69.1162H48.2619V69.9346H46.1407V71.0698H48.1426V71.8222H46.1407V72.9971H48.2619V73.8155H45.1464V69.1162ZM49.7601 81.0626C50.024 81.0816 50.2852 80.9991 50.4898 80.8321C50.6946 80.6651 50.8272 80.4264 50.8604 80.165H51.8018C51.7514 80.6661 51.5046 81.1274 51.1149 81.4486C50.7253 81.7698 50.2242 81.9252 49.7203 81.8811C49.1027 81.8357 48.5251 81.5594 48.1036 81.1077C47.6821 80.6559 47.4478 80.0622 47.4478 79.4455C47.4478 78.8289 47.6821 78.2352 48.1036 77.7834C48.5251 77.3316 49.1027 77.0554 49.7203 77.01C50.2295 76.9803 50.7304 77.1478 51.1185 77.4775C51.5064 77.8072 51.7513 78.2735 51.8018 78.7789H50.8604C50.8304 78.5129 50.7002 78.2682 50.4959 78.0942C50.2916 77.9203 50.0286 77.8299 49.7601 77.8417C49.0044 77.8417 48.5404 78.4621 48.5404 79.4521C48.5404 80.4422 49.0044 81.0098 49.7601 81.0098V81.0626ZM54.5461 81.8811C54.0545 81.9155 53.564 81.8018 53.1383 81.5546C52.7126 81.3075 52.3716 80.9384 52.1596 80.4956C51.9476 80.0526 51.8745 79.5564 51.9499 79.0716C52.0253 78.5867 52.2455 78.1357 52.582 77.7773C52.9185 77.4189 53.3556 77.1697 53.8363 77.0622C54.3171 76.9547 54.8193 76.9939 55.2774 77.1746C55.7355 77.3554 56.1282 77.6694 56.4045 78.0756C56.6808 78.4819 56.8278 78.9616 56.8263 79.4521C56.8587 79.7655 56.8233 80.0823 56.7225 80.3809C56.6215 80.6795 56.4575 80.9531 56.2414 81.1833C56.0253 81.4135 55.7622 81.5949 55.4697 81.7152C55.1773 81.8355 54.8623 81.8921 54.5461 81.8811ZM61.5859 81.8018V78.5809L60.2601 81.7226H59.637L58.3112 78.5809V81.7622H57.4495V77.0496H58.5234L59.8491 80.3894L61.1749 77.0496H62.315V81.7622L61.5859 81.8018ZM62.5801 69.9214H60.4192V71.0566H62.5006V71.809H60.4192V72.9839H62.5006V73.8023H59.4381V69.0634H62.5006L62.5801 69.9214ZM64.1048 69.103L65.1655 72.7859L66.2393 69.103H67.2999L65.7223 73.8023H64.5423L62.9646 69.103H64.1048ZM65.245 80.3101H64.1446V81.8018H63.1635V77.0496H65.1522C65.355 77.0353 65.5586 77.0619 65.7509 77.1278C65.9431 77.1937 66.12 77.2976 66.2711 77.4331C66.4221 77.5687 66.5441 77.7331 66.6298 77.9168C66.7154 78.1004 66.7629 78.2994 66.7696 78.5017V78.6601C66.7749 78.8675 66.7389 79.0738 66.6636 79.2673C66.5883 79.4608 66.4753 79.6375 66.3311 79.7872C66.1869 79.937 66.0143 80.0568 65.8233 80.1397C65.6324 80.2226 65.4268 80.2672 65.2185 80.2705L65.245 80.3101ZM70.0575 81.8414L69.6995 80.7062H68.0158L67.6579 81.8414H66.637L68.2544 77.1289H69.4344L71.0916 81.8414H70.0575ZM75.5992 81.8414H74.7772L72.5764 78.7393V81.8018H71.6219V77.0496H72.4572L74.6579 80.1121V77.0496H75.5992V81.8414ZM78.675 80.0725V81.8414H77.6806V79.9934L76.0366 77.0496H77.084L78.1446 79.0561L79.2052 77.0496H80.2658L78.675 80.0725ZM83.7128 70.6738C83.7199 71.0882 83.5623 71.4886 83.2742 71.7878C82.9862 72.087 82.5911 72.2607 82.1749 72.271H81.0613V73.7627H80.067V69.0634H82.0821C82.2861 69.0472 82.4911 69.0723 82.6849 69.1374C82.8788 69.2024 83.0573 69.306 83.2098 69.4418C83.3622 69.5775 83.4854 69.7427 83.5719 69.9272C83.6584 70.1118 83.7063 70.3119 83.7128 70.5154V70.6738ZM88.4325 73.7627V70.5946L87.1068 73.7231H86.4705L85.1447 70.5946V73.7627H84.283V69.0634H85.4231L86.7489 72.3899L88.0746 69.0634H89.215V73.7627H88.4325ZM90.0766 73.7627V69.0634H93.1919V69.8818H91.0711V71.017H92.9935V71.7695H91.0445V72.9443H93.1653V73.7627H90.0766ZM93.2716 91.0422C93.1999 90.5033 93.0245 89.9833 92.7545 89.5109C92.3276 88.4555 92.2258 87.2975 92.4631 86.1844H93.4841C93.1919 87.6892 93.3114 88.9961 94.5308 89.6297C94.1067 90.105 93.6825 90.5801 93.245 91.0422H93.2716ZM97.9118 73.7627H97.09L94.8895 70.7134V73.7627H93.9349V69.0634H94.7699L96.9705 72.1127V69.0634H97.9118V73.7627ZM102.207 69.8818H100.882V73.7627H99.9007V69.8818H98.575V69.0634H102.314L102.207 69.8818Z" fill="white"/>
<path d="M65.0364 77.8408H64.2012V79.5173H64.9171C65.1269 79.5105 65.3267 79.4265 65.4779 79.2816C65.6292 79.1366 65.7211 78.9411 65.7359 78.7326C65.7508 78.5241 65.6874 78.3176 65.5582 78.1529C65.429 77.9882 65.2432 77.8769 65.0364 77.8408Z" fill="white"/>
<path d="M51.7266 72.3494C51.7266 71.927 51.4085 71.6895 50.8251 71.6895H49.9634V73.0095H50.8648C51.4085 73.0623 51.7266 72.8247 51.7266 72.3494Z" fill="white"/>
<path d="M30.1507 69.8027C29.4083 69.8027 28.9045 70.476 28.9045 71.4132C28.9045 72.3505 29.4083 73.0237 30.1507 73.0237C30.8932 73.0237 31.4102 72.3901 31.4102 71.4132C31.4102 70.4364 30.9065 69.8027 30.1507 69.8027Z" fill="white"/>
<path d="M54.5434 77.8018C53.7611 77.8018 53.2839 78.4222 53.2839 79.4122C53.2839 80.4022 53.801 81.0094 54.5434 81.0094C55.2858 81.0094 55.8691 80.389 55.8691 79.4122C55.8691 78.4354 55.2593 77.8018 54.5434 77.8018Z" fill="white"/>
<path d="M81.909 69.8418H81.0605V71.5314H81.7631C81.9882 71.5471 82.2103 71.4733 82.3806 71.326C82.5509 71.1787 82.6555 70.9701 82.6713 70.746C82.6872 70.522 82.6129 70.3008 82.465 70.1312C82.317 69.9616 82.1075 69.8576 81.8825 69.8418H81.909Z" fill="white"/>
<path d="M34.8867 69.8418H34.0515V71.5314H34.7675C34.9925 71.5471 35.2146 71.4733 35.3849 71.326C35.5552 71.1787 35.6598 70.9701 35.6756 70.746C35.6914 70.522 35.6172 70.3008 35.4692 70.1312C35.3214 69.9616 35.1118 69.8576 34.8867 69.8418Z" fill="white"/>
</g>
</g>
<defs>
<clipPath id="clip0_13815_1077">
<rect width="127.516" height="115.119" fill="white" transform="translate(0 3.99902)"/>
</clipPath>
</defs>
</svg>
