<svg width="81" height="84" viewBox="0 0 81 84" fill="none" xmlns="http://www.w3.org/2000/svg">
<mask id="mask0_13890_832" style="mask-type:luminance" maskUnits="userSpaceOnUse" x="4" y="0" width="73" height="84">
<path d="M76.5 6.10352e-05H4.5V84.0001H76.5V6.10352e-05Z" fill="white"/>
</mask>
<g mask="url(#mask0_13890_832)">
<path d="M11.0465 59.7102L11.1819 59.7909C11.2727 59.845 11.3484 59.8674 11.4092 59.858C11.47 59.8487 11.5201 59.8109 11.5596 59.7447C11.5997 59.6774 11.6064 59.616 11.5798 59.5604C11.5532 59.5049 11.4957 59.4507 11.4071 59.3979L11.2782 59.321L11.0465 59.7102ZM10.9506 59.8714L10.6675 60.3468L10.4727 60.2306L11.1813 59.0404L11.518 59.2412C11.6718 59.3329 11.7686 59.4296 11.8082 59.5312C11.8479 59.6328 11.8332 59.7417 11.764 59.8579C11.6757 60.006 11.5358 60.0655 11.3439 60.0364L11.367 60.764L11.1452 60.6317L11.143 59.9861L10.9506 59.8714ZM12.2148 61.2696L11.5406 60.8675L12.2493 59.6773L12.9235 60.0794L12.8256 60.2438L12.3462 59.9579L12.1533 60.2819L12.6025 60.5498L12.5056 60.7126L12.0564 60.4448L11.8339 60.8184L12.3132 61.1043L12.2148 61.2696ZM13.5998 60.6857C13.4879 60.6189 13.3762 60.606 13.2649 60.647C13.1536 60.688 13.0564 60.7782 12.9734 60.9177C12.8864 61.0637 12.8514 61.1925 12.8682 61.304C12.8856 61.4159 12.9527 61.5066 13.0696 61.5763C13.1201 61.6064 13.1719 61.6307 13.225 61.6491C13.2784 61.667 13.3354 61.6834 13.3958 61.6981L13.2965 61.8649C13.182 61.8445 13.0655 61.7989 12.947 61.7283C12.7725 61.6242 12.6699 61.4917 12.6391 61.3306C12.6087 61.1691 12.6519 60.99 12.7689 60.7935C12.8426 60.6698 12.9296 60.575 13.03 60.5091C13.1309 60.4435 13.239 60.4117 13.3542 60.4135C13.4695 60.4153 13.585 60.4507 13.7008 60.5198C13.8226 60.5923 13.9199 60.685 13.9928 60.7976L13.8262 60.9177C13.7973 60.8748 13.7645 60.8328 13.7277 60.7917C13.6919 60.7505 13.6493 60.7152 13.5998 60.6857ZM14.9449 62.0891C14.8296 62.2828 14.6912 62.4044 14.53 62.4538C14.3693 62.5037 14.2 62.4756 14.0223 62.3695C13.8424 62.2623 13.7358 62.1266 13.7024 61.9625C13.6698 61.7982 13.712 61.6178 13.829 61.4214C13.946 61.2249 14.0842 61.1029 14.2436 61.0553C14.4036 61.008 14.5736 61.038 14.7534 61.1453C14.9307 61.251 15.0357 61.3861 15.0688 61.5507C15.1019 61.7153 15.0606 61.8948 14.9449 62.0891ZM14.0351 61.5465C13.9479 61.6931 13.9112 61.822 13.9253 61.9333C13.9396 62.044 14.0049 62.1341 14.1212 62.2035C14.237 62.2725 14.3465 62.2871 14.4498 62.2472C14.5536 62.2076 14.6497 62.1138 14.7379 61.9656C14.8248 61.8196 14.8614 61.6914 14.8476 61.5809C14.8343 61.4708 14.7699 61.3812 14.6541 61.3122C14.5373 61.2425 14.4265 61.2276 14.3218 61.2674C14.2176 61.3074 14.1221 61.4005 14.0351 61.5465ZM15.7175 62.4836L16.1561 62.7452L15.8004 63.3428C15.7147 63.3233 15.6358 63.2987 15.5637 63.2689C15.4921 63.2394 15.4181 63.2019 15.3414 63.1561C15.1609 63.0486 15.0535 62.9124 15.019 62.7477C14.9848 62.5824 15.0256 62.4027 15.1413 62.2084C15.2553 62.0168 15.3997 61.8999 15.5743 61.8577C15.7493 61.8149 15.9335 61.8512 16.127 61.9666C16.2514 62.0408 16.3552 62.1351 16.4381 62.2493L16.2732 62.3704C16.203 62.2683 16.1194 62.1883 16.0227 62.1306C15.8955 62.0548 15.7712 62.0347 15.6498 62.0704C15.5284 62.1061 15.4265 62.1931 15.3441 62.3315C15.2575 62.477 15.2248 62.6075 15.2458 62.723C15.2678 62.8383 15.3412 62.9332 15.4662 63.0078C15.5292 63.0454 15.6014 63.0777 15.6824 63.1047L15.8652 62.7978L15.6182 62.6505L15.7175 62.4836ZM17.0517 64.1541L16.8128 64.0116L16.7914 62.7137L16.7848 62.7097L16.7574 62.7651C16.7049 62.8705 16.6538 62.9651 16.604 63.0487L16.2356 63.6674L16.0587 63.5619L16.7674 62.3717L17.0038 62.5127L17.0265 63.8048L17.0314 63.8077C17.0378 63.7946 17.0626 63.748 17.1058 63.6679C17.1494 63.5873 17.1843 63.5249 17.2105 63.481L17.5818 62.8574L17.7603 62.9639L17.0517 64.1541ZM17.3664 64.3417L18.075 63.1515L18.2698 63.2677L17.5612 64.4579L17.3664 64.3417ZM18.6259 65.0931L17.7732 64.5843L17.8537 64.4492L18.9833 63.9193L18.3988 63.5707L18.4982 63.4038L19.3182 63.893L19.2368 64.0297L18.1057 64.5565L18.7253 64.9257L18.6259 65.0931ZM19.5113 65.621L18.8371 65.2191L19.5457 64.0286L20.2199 64.4306L20.122 64.5951L19.6426 64.3092L19.4497 64.633L19.8989 64.9011L19.802 65.064L19.3528 64.7958L19.1303 65.1699L19.6097 65.4555L19.5113 65.621ZM21.1001 65.7463C20.9832 65.9427 20.8391 66.061 20.6678 66.0998C20.4968 66.1385 20.3086 66.0965 20.1031 65.9738L19.7697 65.7747L20.4784 64.5848L20.8469 64.8042C21.0365 64.9179 21.1537 65.0569 21.1984 65.2216C21.2431 65.3864 21.2104 65.5615 21.1001 65.7463ZM20.8908 65.6307C21.0605 65.3457 21.0119 65.1234 20.745 64.9645L20.5762 64.8637L20.062 65.7276L20.2005 65.8103C20.4876 65.9815 20.7176 65.9214 20.8908 65.6307ZM22.1382 65.5744L22.492 65.7857C22.6561 65.8833 22.7604 65.9783 22.8048 66.0694C22.8497 66.1605 22.8415 66.2581 22.7801 66.3615C22.7388 66.4306 22.6864 66.4778 22.623 66.5023C22.5597 66.5275 22.4908 66.5256 22.4163 66.4971L22.4115 66.5055C22.4858 66.5708 22.5286 66.6387 22.54 66.7091C22.5521 66.7789 22.5347 66.8532 22.4875 66.9327C22.4238 67.0393 22.3364 67.1007 22.2252 67.1168C22.1149 67.133 21.9931 67.1007 21.86 67.0218L21.4295 66.7647L22.1382 65.5744ZM22.0403 66.1825L22.2278 66.2943C22.3093 66.3427 22.3764 66.366 22.4291 66.3627C22.4821 66.3589 22.527 66.3259 22.5639 66.2645C22.5972 66.2083 22.6009 66.156 22.575 66.1062C22.5496 66.0578 22.4929 66.0067 22.4048 65.9544L22.2361 65.8536L22.0403 66.1825ZM21.9462 66.3408L21.7218 66.7175L21.9289 66.8409C22.0104 66.8894 22.081 66.9107 22.1408 66.9042C22.2014 66.8978 22.2517 66.8609 22.2918 66.7937C22.3286 66.7317 22.3347 66.6735 22.3101 66.618C22.2855 66.5631 22.23 66.5094 22.1435 66.4584L21.9462 66.3408ZM23.2538 66.9759L23.8592 66.6012L24.0712 66.7272L23.2403 67.2189L22.9655 67.6809L22.7698 67.5639L23.0408 67.1091L23.0831 66.1379L23.295 66.2645L23.2538 66.9759Z" fill="white"/>
<path d="M40.5327 19.6303C44.9337 19.6303 49.2358 20.9363 52.8951 23.3833C56.5544 25.8304 59.4065 29.3083 61.0907 33.3776C62.7749 37.4468 63.2155 41.9245 62.357 46.2444C61.4983 50.5642 59.3791 54.5323 56.2671 57.6467C53.1551 60.7612 49.1902 62.8821 44.8738 63.7414C40.5574 64.6007 36.0833 64.1597 32.0173 62.4741C27.9513 60.7886 24.476 57.9343 22.031 54.272C19.5859 50.6098 18.2808 46.3043 18.2808 41.8998C18.286 35.9951 20.632 30.3337 24.8039 26.1585C28.9758 21.9832 34.6327 19.6354 40.5327 19.6303ZM40.5327 17.3378C35.6786 17.3378 30.9336 18.7783 26.8976 21.4772C22.8617 24.1761 19.716 28.0122 17.8584 32.5003C16.0008 36.9884 15.5149 41.927 16.4618 46.6916C17.4088 51.4561 19.7463 55.8326 23.1785 59.2677C26.6108 62.7027 30.9839 65.042 35.7447 65.9899C40.5055 66.9378 45.4401 66.4513 49.9246 64.5921C54.4092 62.733 58.2422 59.5849 60.9389 55.5457C63.6358 51.5065 65.0751 46.7577 65.0751 41.8998C65.0751 35.3856 62.4894 29.1381 57.8868 24.5318C53.2842 19.9255 47.0417 17.3378 40.5327 17.3378Z" fill="white"/>
<path d="M41.4955 38.4041C41.0381 38.1238 40.5196 37.9585 39.9844 37.9225H38.0596V45.869H39.9844C40.5233 45.8302 41.0434 45.6546 41.4955 45.3586C42.4579 44.7324 42.9777 43.5573 42.9777 41.9006C42.9777 40.2439 42.5061 39.0302 41.4955 38.4041Z" fill="white"/>
<path d="M40.533 21.3548C36.4727 21.3548 32.5036 22.5598 29.1276 24.8173C25.7516 27.0749 23.1204 30.2836 21.5666 34.0378C20.0128 37.792 19.6062 41.923 20.3984 45.9084C21.1905 49.8938 23.1457 53.5546 26.0167 56.428C28.8878 59.3013 32.5457 61.258 36.5279 62.0508C40.5102 62.8436 44.6379 62.4367 48.3891 60.8816C52.1403 59.3266 55.3465 56.6933 57.6022 53.3146C59.8579 49.9359 61.062 45.9637 61.062 41.9002C61.062 36.4512 58.8991 31.2254 55.0492 27.3724C51.1992 23.5194 45.9776 21.3548 40.533 21.3548ZM33.7958 37.9221H31.2357V46.88C31.2357 47.1355 31.1343 47.3804 30.9538 47.5611C30.7733 47.7417 30.5285 47.8432 30.2732 47.8432C30.018 47.8432 29.7732 47.7417 29.5927 47.5611C29.4122 47.3804 29.3108 47.1355 29.3108 46.88V37.9221H26.6737C26.4095 37.9221 26.1561 37.8171 25.9693 37.6301C25.7825 37.4432 25.6775 37.1896 25.6775 36.9252C25.6775 36.6608 25.7825 36.4072 25.9693 36.2203C26.1561 36.0333 26.4095 35.9283 26.6737 35.9283H33.7958C34.06 35.9283 34.3134 36.0333 34.5002 36.2203C34.687 36.4072 34.792 36.6608 34.792 36.9252C34.792 37.1896 34.687 37.4432 34.5002 37.6301C34.3134 37.8171 34.06 37.9221 33.7958 37.9221ZM39.9555 47.8721H37.0681C36.8129 47.8721 36.5681 47.7707 36.3876 47.59C36.2071 47.4093 36.1057 47.1644 36.1057 46.9089V36.9108C36.1057 36.6553 36.2071 36.4102 36.3876 36.2296C36.5681 36.049 36.8129 35.9475 37.0681 35.9475H39.9555C40.0806 35.9475 45.018 35.9475 45.018 41.9195C45.018 47.8914 40.071 47.8721 39.9459 47.8721H39.9555ZM54.527 47.8721C54.3195 47.8844 54.1136 47.8291 53.9401 47.7145C53.7665 47.5999 53.6348 47.4321 53.5645 47.2364L52.8138 45.3774L52.0149 43.451L50.5232 39.5981L49.0025 43.451L48.2037 45.3774L47.4819 47.1978C47.4115 47.3936 47.2797 47.5614 47.1063 47.6759C46.9328 47.7906 46.7269 47.8459 46.5194 47.8336C46.2642 47.8336 46.0193 47.7321 45.8388 47.5515C45.6583 47.3708 45.5569 47.1259 45.5569 46.8704C45.5525 46.7408 45.5789 46.612 45.6339 46.4947L49.6088 36.6025C49.6853 36.411 49.8185 36.2474 49.9906 36.1338C50.1626 36.0202 50.3652 35.9619 50.5713 35.9668C50.7788 35.9545 50.9847 36.0098 51.1582 36.1244C51.3317 36.239 51.4634 36.4068 51.5337 36.6025L55.5086 46.5429C55.5559 46.6624 55.5788 46.7901 55.576 46.9185C55.5754 47.0527 55.5466 47.1853 55.4918 47.3078C55.437 47.4303 55.3571 47.5399 55.2574 47.6297C55.1578 47.7195 55.0404 47.7874 54.913 47.8291C54.7855 47.8709 54.6508 47.8855 54.5173 47.8721H54.527Z" fill="white"/>
<path d="M40.537 2.88995C41.3589 2.8921 42.1656 3.1114 42.8757 3.52568L72.5579 20.6902C73.2909 21.1219 73.8986 21.7388 74.319 22.4792C74.7399 23.2195 74.9585 24.0574 74.954 24.909V58.8913C74.9585 59.7429 74.7399 60.5808 74.319 61.3211C73.8986 62.0616 73.2909 62.6785 72.5579 63.1101L42.8757 80.3228C42.1666 80.7396 41.3592 80.9593 40.537 80.9593C39.7147 80.9593 38.9073 80.7396 38.1982 80.3228L8.51628 63.1101C7.78274 62.6785 7.17532 62.0616 6.75476 61.3211C6.3342 60.5808 6.11524 59.7429 6.11978 58.8913V24.909C6.11524 24.0574 6.3342 23.2195 6.75476 22.4792C7.17532 21.7388 7.78274 21.1219 8.51628 20.6902L38.1982 3.47751C38.9129 3.08005 39.7194 2.87743 40.537 2.88995ZM40.537 1.44513C39.4686 1.4438 38.4191 1.72634 37.4956 2.26386L7.81368 19.4765C6.86537 20.0301 6.07904 20.8233 5.53345 21.7767C4.98786 22.7302 4.70217 23.8104 4.70498 24.909V58.8913C4.70217 59.99 4.98786 61.0701 5.53345 62.0236C6.07904 62.977 6.86537 63.7702 7.81368 64.3238L37.4956 81.5363C38.4196 82.0726 39.4688 82.355 40.537 82.355C41.6051 82.355 42.6543 82.0726 43.5783 81.5363L73.2604 64.3238C74.2087 63.7702 74.9949 62.977 75.5404 62.0236C76.0859 61.0701 76.3719 59.99 76.3687 58.8913V24.909C76.3719 23.8104 76.0859 22.7302 75.5404 21.7767C74.9949 20.8233 74.2087 20.0301 73.2604 19.4765L43.5783 2.26386C42.6548 1.72634 41.6053 1.4438 40.537 1.44513Z" fill="white"/>
</g>
</svg>
