<svg width="81" height="84" viewBox="0 0 81 84" fill="none" xmlns="http://www.w3.org/2000/svg">
<g clip-path="url(#clip0_13890_833)">
<mask id="mask0_13890_833" style="mask-type:luminance" maskUnits="userSpaceOnUse" x="0" y="7" width="81" height="70">
<path d="M80.8944 7.633H0.647583V76.8952H80.8944V7.633Z" fill="white"/>
</mask>
<g mask="url(#mask0_13890_833)">
<path d="M60.9828 7.633H20.7092L0.647583 42.3016L20.7092 76.8951H60.9828L80.8945 42.3016L60.9828 7.633Z" fill="url(#paint0_linear_13890_833)"/>
<path opacity="0.35" d="M20.7092 7.633L0.647583 42.3016L23.6945 33.1447L20.7092 7.633Z" fill="url(#paint1_linear_13890_833)"/>
<path opacity="0.35" d="M0.647827 42.3019L20.7095 76.8958L24.2671 52.6694L0.647827 42.3019Z" fill="url(#paint2_linear_13890_833)"/>
<path opacity="0.35" d="M60.9819 7.633L80.8933 42.3016L57.9998 33.1447L60.9819 7.633Z" fill="url(#paint3_linear_13890_833)"/>
<path opacity="0.35" d="M80.8939 42.3019L60.9827 76.8958L57.1882 52.77L80.8939 42.3019Z" fill="url(#paint4_linear_13890_833)"/>
<path d="M20.7081 7.633L23.6934 33.1447L36.4151 16.6641V7.633H20.7081Z" fill="url(#paint5_linear_13890_833)"/>
<path d="M60.9828 7.633L58.007 33.1447L45.2821 16.6641V7.633H60.9828Z" fill="url(#paint6_linear_13890_833)"/>
<path d="M20.7081 76.8951L24.2155 52.6129L36.8626 67.5902V76.8951H20.7081Z" fill="url(#paint7_linear_13890_833)"/>
<path d="M60.9829 76.8957L57.161 52.5099L46.256 67.8161V76.8957H60.9829Z" fill="url(#paint8_linear_13890_833)"/>
<path d="M36.4156 16.6641H45.2814L57.6855 33.1447L57.1572 52.5091L46.2659 67.9103L36.881 67.5777L24.2159 52.6126L23.6938 33.1447L36.4156 16.6641Z" fill="url(#paint9_linear_13890_833)"/>
<path d="M55.6472 16.7128H26.0431L11.0908 42.3015L26.0431 67.8152H55.6472L70.4493 42.3015L55.6472 16.7128Z" fill="url(#paint10_linear_13890_833)"/>
<path d="M39.4017 22.8736L38.6217 24.9383H39.1879L40.4553 21.5964L38.3481 22.8736H39.4017Z" fill="white"/>
<path d="M36.7756 23.3397L37.7915 24.3596L38.3482 22.8753L38.9772 21.1336L36.7756 23.3397ZM40.8957 22.9253L40.5498 23.9076L41.5938 24.94L40.8957 22.9253Z" fill="white"/>
<path d="M41.5939 24.939L40.5498 23.9066L40.1849 24.939H41.5939ZM38.3481 22.8743L40.4553 21.5971L38.9772 21.1327L38.3481 22.8743ZM38.9772 21.1327L40.4553 21.5971L40.8958 19.2154L38.9772 21.1327Z" fill="white"/>
<path d="M40.4545 21.5971H41.354L40.8948 19.2154L40.4545 21.5971ZM40.8948 19.2154L41.354 21.5971L43.521 21.845L40.8948 19.2154Z" fill="white"/>
<path d="M41.3553 21.5964L41.7579 22.6852L43.5222 21.8443L41.3553 21.5964ZM44.0067 24.3578L45.0132 23.338L43.6765 23.4666L44.0067 24.3578ZM43.6765 23.4666L45.0132 23.338L43.5222 21.8443L43.6765 23.4666Z" fill="white"/>
<path d="M43.5219 21.8453L42.6351 23.4675H43.676L43.5219 21.8453ZM41.7576 22.6863L42.6005 24.9393H43.1666L42.6351 23.4675L41.7576 22.6863Z" fill="white"/>
<path d="M43.5216 21.8453L41.7572 22.6863L42.6347 23.4675L43.5216 21.8453ZM40.8954 24.9141C39.7224 24.9141 37.7819 24.7604 37.7819 24.3587V24.9268C37.7819 25.1997 39.0619 25.4821 40.8954 25.4821C42.729 25.4821 44.009 25.1966 44.009 24.9268V24.3587C44.009 24.7604 42.0685 24.9141 40.8954 24.9141ZM35.9042 29.2383L35.6557 28.3848H34.426L34.1775 29.2383H33.407L34.5675 25.6485H35.4921L36.6653 29.2383H35.9042ZM35.4891 27.7446L35.2626 26.9633C35.2499 26.9382 35.2374 26.8817 35.2154 26.8221C35.1902 26.7499 35.1809 26.6809 35.1557 26.5962C35.1305 26.5146 35.1085 26.4299 35.0958 26.3482C35.0707 26.2666 35.0613 26.1945 35.0487 26.1349C35.0361 26.1694 35.0361 26.2164 35.0236 26.2666C35.0109 26.3176 34.9993 26.3689 34.989 26.4204C34.9776 26.477 34.9618 26.5327 34.9417 26.5868C34.9292 26.6463 34.9166 26.6934 34.8946 26.7405C34.882 26.7875 34.8695 26.8346 34.86 26.8723C34.8475 26.9068 34.8348 26.9319 34.8348 26.9538L34.6084 27.7353L35.4859 27.7478L35.4891 27.7446ZM38.2 29.2854C37.9988 29.2854 37.8227 29.2603 37.6686 29.2038C37.5145 29.1474 37.3729 29.0626 37.266 28.9559C37.159 28.8367 37.0647 28.6954 37.0049 28.5166C36.9452 28.3378 36.9106 28.1243 36.9106 27.8765C36.9106 27.6035 36.9452 27.3775 37.0049 27.1893C37.0647 27.0104 37.1464 26.8566 37.266 26.7499C37.3729 26.6432 37.5145 26.5616 37.6686 26.5114C37.8227 26.4613 37.9988 26.4392 38.1906 26.4392C38.3321 26.4392 38.4737 26.4518 38.6057 26.4864C38.7473 26.5209 38.8794 26.5679 38.9957 26.6275L38.7819 27.1955C38.6749 27.1485 38.568 27.1139 38.4737 27.0762C38.3793 27.0417 38.285 27.0292 38.1906 27.0292C38.0145 27.0292 37.8824 27.1014 37.8006 27.23C37.7189 27.3712 37.6811 27.5752 37.6811 27.845C37.6811 28.115 37.7157 28.3189 37.8006 28.4507C37.8856 28.5825 38.0145 28.6515 38.178 28.6515C38.3196 28.6515 38.4516 28.6265 38.568 28.5919C38.6904 28.5553 38.8093 28.5079 38.9234 28.4507V29.0783C38.8636 29.1034 38.8039 29.1379 38.7473 29.1599C38.6907 29.1819 38.6278 29.1944 38.5712 29.2195C38.5114 29.2321 38.4516 29.2446 38.395 29.254C38.3479 29.2791 38.2755 29.2791 38.2063 29.2791L38.2 29.2854ZM40.3071 29.2383H39.5618V26.502H40.3071V29.2383ZM42.2981 29.2853C42.0968 29.2853 41.9207 29.2602 41.754 29.2038C41.5873 29.1441 41.4457 29.0626 41.3263 28.9433C41.2068 28.8241 41.1124 28.6828 41.0527 28.504C40.9803 28.3252 40.9583 28.1243 40.9583 27.889C40.9583 27.6536 40.9929 27.4402 41.0527 27.2614C41.1124 27.0825 41.1941 26.9287 41.3011 26.8126C41.4081 26.6934 41.537 26.5992 41.6911 26.5397C41.8535 26.4766 42.0264 26.4446 42.2006 26.4455C42.3767 26.4455 42.5434 26.4706 42.6849 26.5271C42.8264 26.5867 42.9585 26.6589 43.0529 26.7656C43.1598 26.8722 43.229 27.0041 43.2888 27.1578C43.3486 27.3116 43.3706 27.4904 43.3706 27.6913V28.0584H41.7005C41.7005 28.1651 41.7256 28.2592 41.7477 28.344C41.7823 28.4255 41.82 28.4978 41.8766 28.5573C41.9333 28.617 41.9962 28.664 42.0779 28.6891C42.1597 28.7237 42.2446 28.7362 42.3389 28.7362C42.4208 28.7362 42.5056 28.7362 42.5749 28.7237C42.6459 28.7103 42.7172 28.6988 42.7887 28.6891C42.8611 28.664 42.9303 28.6546 43.0026 28.617C43.0749 28.5918 43.1441 28.5573 43.2164 28.5228V29.1033C43.1441 29.1378 43.0874 29.163 43.0152 29.185C42.9428 29.21 42.8863 29.232 42.8012 29.2446C42.729 29.2572 42.6471 29.2697 42.5654 29.279C42.4837 29.2917 42.3988 29.2917 42.2918 29.2917L42.2981 29.2853ZM42.2006 26.9758C42.0716 26.9758 41.9647 27.0229 41.8704 27.117C41.7886 27.2112 41.7288 27.3555 41.7163 27.5564H42.6629C42.6629 27.4747 42.6503 27.39 42.6283 27.3304C42.6032 27.2583 42.5811 27.1985 42.5466 27.1515C42.512 27.1045 42.4648 27.0574 42.405 27.0323C42.3452 26.9978 42.2855 26.9727 42.2037 26.9727L42.2006 26.9758ZM45.1128 28.6954C45.1851 28.6954 45.2543 28.6828 45.3267 28.6703C45.399 28.6578 45.4557 28.6358 45.5279 28.6107V29.1661C45.4557 29.2006 45.3738 29.2383 45.2669 29.2603C45.1599 29.2822 45.0531 29.2948 44.9241 29.2948C44.8046 29.2948 44.6976 29.2822 44.5939 29.2603C44.487 29.2351 44.4051 29.1881 44.3202 29.119C44.2479 29.0469 44.1913 28.9527 44.1441 28.8335C44.0969 28.7142 44.0844 28.5731 44.0844 28.3942V27.0543H43.729V26.7342L44.1441 26.4863L44.358 25.9058H44.8329V26.4863H45.4965V27.0417H44.8329V28.3565C44.8329 28.4632 44.8581 28.5448 44.9146 28.595C44.9618 28.6672 45.0342 28.6891 45.1159 28.6891L45.1128 28.6954ZM45.6947 26.502H46.5124L46.9496 28.0428C46.9747 28.1243 46.9968 28.2216 47.0093 28.3157C47.022 28.4099 47.0345 28.4946 47.0345 28.5762H47.0471C47.0471 28.5417 47.0597 28.4946 47.0597 28.4444C47.0597 28.3942 47.0723 28.3503 47.0848 28.3032C47.0974 28.2561 47.0974 28.2091 47.11 28.162C47.1225 28.115 47.1352 28.0805 47.1446 28.0302L47.5723 26.4894H48.3901L47.3113 29.5835C47.2044 29.869 47.0754 30.0918 46.8962 30.2236C46.72 30.3649 46.5061 30.437 46.2451 30.437C46.1633 30.437 46.091 30.437 46.0187 30.4245C45.9589 30.412 45.8992 30.3994 45.8646 30.3994V29.8063C45.8992 29.8188 45.9369 29.8188 45.9936 29.8314C46.0406 29.8439 46.1005 29.8439 46.1602 29.8439C46.242 29.8439 46.3018 29.8314 46.3615 29.8095C46.4212 29.7874 46.4684 29.7624 46.5029 29.7153C46.5446 29.673 46.5805 29.6256 46.61 29.5741C46.6351 29.5145 46.6571 29.4549 46.6822 29.3952L46.7294 29.254L45.701 26.5051L45.6947 26.502Z" fill="white"/>
<path d="M18.1367 38.8139H18.9672C18.9506 39.0857 18.8755 39.3271 18.7422 39.5379C18.6107 39.7487 18.4265 39.9133 18.1895 40.0317C17.9543 40.15 17.671 40.2092 17.3395 40.2092C17.0803 40.2092 16.8479 40.1648 16.6423 40.076C16.4368 39.9854 16.2609 39.856 16.1146 39.6877C15.9702 39.5195 15.86 39.316 15.784 39.0774C15.7082 38.8389 15.6702 38.5716 15.6702 38.2757V37.9955C15.6702 37.6997 15.7091 37.4324 15.7869 37.1939C15.8665 36.9534 15.9794 36.7491 16.1257 36.5808C16.2739 36.4125 16.4507 36.283 16.6562 36.1924C16.8618 36.1018 17.0914 36.0565 17.3451 36.0565C17.6821 36.0565 17.9663 36.1176 18.1978 36.2396C18.4311 36.3616 18.6117 36.53 18.7395 36.7445C18.8691 36.959 18.9468 37.2031 18.9728 37.4768H18.1395C18.1302 37.3141 18.0978 37.1763 18.0423 37.0635C17.9867 36.9489 17.9025 36.8628 17.7895 36.8055C17.6784 36.7463 17.5302 36.7168 17.3451 36.7168C17.2062 36.7168 17.0849 36.7427 16.9812 36.7944C16.8775 36.8462 16.7905 36.9248 16.7202 37.0302C16.6498 37.1356 16.597 37.2688 16.5618 37.4297C16.5285 37.5887 16.5118 37.7755 16.5118 37.99V38.2757C16.5118 38.4847 16.5276 38.6687 16.559 38.8278C16.5905 38.985 16.6387 39.1181 16.7034 39.2272C16.7702 39.3344 16.8553 39.4158 16.959 39.4713C17.0646 39.525 17.1914 39.5518 17.3395 39.5518C17.5136 39.5518 17.6571 39.524 17.7701 39.4685C17.883 39.4131 17.9691 39.3308 18.0284 39.2217C18.0895 39.1125 18.1256 38.9766 18.1367 38.8139ZM21.2421 39.4353V37.1523H22.042V40.1538H21.2892L21.2421 39.4353ZM21.3309 38.8194L21.5671 38.8139C21.5671 39.0136 21.5439 39.1995 21.4976 39.3715C21.4513 39.5416 21.3819 39.6896 21.2892 39.8153C21.1967 39.9392 21.08 40.0363 20.9393 40.1066C20.7986 40.175 20.6328 40.2092 20.4421 40.2092C20.2959 40.2092 20.1606 40.1889 20.0366 40.1482C19.9144 40.1057 19.8088 40.04 19.72 39.9512C19.6329 39.8606 19.5644 39.745 19.5144 39.6045C19.4663 39.4621 19.4422 39.291 19.4422 39.0913V37.1523H20.2421V39.0968C20.2421 39.1856 20.2523 39.2605 20.2727 39.3216C20.2949 39.3826 20.3255 39.4325 20.3644 39.4713C20.4032 39.5102 20.4486 39.5379 20.5004 39.5546C20.5541 39.5712 20.6134 39.5795 20.6782 39.5795C20.843 39.5795 20.9727 39.5463 21.067 39.4796C21.1634 39.4131 21.2309 39.3225 21.2698 39.2078C21.3106 39.0913 21.3309 38.9618 21.3309 38.8194ZM24.278 39.3243C24.278 39.267 24.2613 39.2152 24.228 39.169C24.1947 39.1227 24.1326 39.0802 24.0419 39.0413C23.953 39.0007 23.8243 38.9637 23.6558 38.9304C23.5039 38.8971 23.3623 38.8555 23.2308 38.8056C23.1012 38.7538 22.9882 38.6918 22.892 38.6197C22.7975 38.5476 22.7234 38.4625 22.6698 38.3645C22.616 38.2646 22.5892 38.1509 22.5892 38.0233C22.5892 37.8975 22.616 37.7792 22.6698 37.6682C22.7253 37.5573 22.804 37.4592 22.9058 37.3742C23.0095 37.2873 23.1355 37.2197 23.2836 37.1717C23.4336 37.1217 23.6021 37.0968 23.7891 37.0968C24.0502 37.0968 24.2743 37.1384 24.4613 37.2216C24.6502 37.3049 24.7946 37.4195 24.8946 37.5656C24.9964 37.7098 25.0474 37.8744 25.0474 38.0593H24.2474C24.2474 37.9817 24.2307 37.9124 24.1974 37.8513C24.166 37.7884 24.116 37.7394 24.0474 37.7043C23.9808 37.6673 23.8938 37.6488 23.7863 37.6488C23.6975 37.6488 23.6206 37.6645 23.5558 37.696C23.491 37.7256 23.441 37.7662 23.4058 37.818C23.3725 37.868 23.3558 37.9234 23.3558 37.9845C23.3558 38.0307 23.3651 38.0723 23.3836 38.1093C23.404 38.1445 23.4364 38.1768 23.4808 38.2064C23.5253 38.236 23.5826 38.2637 23.653 38.2896C23.7252 38.3137 23.8141 38.3358 23.9197 38.3562C24.1363 38.4006 24.3298 38.4588 24.5002 38.5309C24.6706 38.6012 24.8057 38.6974 24.9057 38.8194C25.0057 38.9397 25.0557 39.0978 25.0557 39.2938C25.0557 39.427 25.0261 39.549 24.9668 39.66C24.9076 39.7709 24.8224 39.868 24.7113 39.9512C24.6002 40.0326 24.4669 40.0964 24.3113 40.1427C24.1576 40.187 23.9845 40.2092 23.7919 40.2092C23.5123 40.2092 23.2753 40.1593 23.0808 40.0594C22.8882 39.9595 22.742 39.8329 22.642 39.6794C22.5438 39.524 22.4948 39.365 22.4948 39.2022H23.2531C23.2568 39.3114 23.2845 39.3992 23.3364 39.4658C23.3901 39.5323 23.4577 39.5805 23.5392 39.61C23.6224 39.6396 23.7123 39.6544 23.8086 39.6544C23.9123 39.6544 23.9984 39.6405 24.0669 39.6128C24.1354 39.5832 24.1872 39.5444 24.2224 39.4963C24.2594 39.4464 24.278 39.389 24.278 39.3243ZM27.0472 37.1523V37.7181H25.2974V37.1523H27.0472ZM25.7307 36.4116H26.5306V39.2494C26.5306 39.3363 26.5417 39.4029 26.5639 39.4491C26.588 39.4953 26.6232 39.5278 26.6695 39.5463C26.7158 39.5629 26.7741 39.5712 26.8445 39.5712C26.8945 39.5712 26.9389 39.5693 26.9778 39.5656C27.0185 39.5601 27.0528 39.5546 27.0806 39.549L27.0834 40.1371C27.0149 40.1593 26.9408 40.1769 26.8612 40.1898C26.7816 40.2027 26.6936 40.2092 26.5973 40.2092C26.4213 40.2092 26.2677 40.1806 26.1362 40.1232C26.0066 40.0641 25.9066 39.9697 25.8362 39.8403C25.7658 39.7108 25.7307 39.5407 25.7307 39.3299V36.4116ZM27.3028 38.6835V38.6253C27.3028 38.4052 27.3343 38.2027 27.3973 38.0178C27.4602 37.831 27.5518 37.6692 27.6722 37.5323C27.7926 37.3955 27.9407 37.2891 28.1166 37.2133C28.2925 37.1356 28.4944 37.0968 28.7222 37.0968C28.9499 37.0968 29.1527 37.1356 29.3304 37.2133C29.5082 37.2891 29.6573 37.3955 29.7776 37.5323C29.8998 37.6692 29.9924 37.831 30.0554 38.0178C30.1183 38.2027 30.1498 38.4052 30.1498 38.6253V38.6835C30.1498 38.9018 30.1183 39.1042 30.0554 39.291C29.9924 39.476 29.8998 39.6377 29.7776 39.7765C29.6573 39.9133 29.5092 40.0197 29.3332 40.0955C29.1573 40.1713 28.9555 40.2092 28.7277 40.2092C28.5 40.2092 28.2972 40.1713 28.1194 40.0955C27.9435 40.0197 27.7944 39.9133 27.6722 39.7765C27.5518 39.6377 27.4602 39.476 27.3973 39.291C27.3343 39.1042 27.3028 38.9018 27.3028 38.6835ZM28.1027 38.6253V38.6835C28.1027 38.8093 28.1139 38.9267 28.1361 39.0358C28.1583 39.145 28.1935 39.2411 28.2416 39.3243C28.2916 39.4057 28.3564 39.4695 28.4361 39.5157C28.5157 39.562 28.6129 39.585 28.7277 39.585C28.8388 39.585 28.9342 39.562 29.0138 39.5157C29.0934 39.4695 29.1573 39.4057 29.2055 39.3243C29.2536 39.2411 29.2888 39.145 29.311 39.0358C29.3351 38.9267 29.3471 38.8093 29.3471 38.6835V38.6253C29.3471 38.5032 29.3351 38.3885 29.311 38.2813C29.2888 38.1722 29.2527 38.076 29.2027 37.9928C29.1545 37.9077 29.0906 37.8412 29.011 37.7931C28.9314 37.745 28.8351 37.7209 28.7222 37.7209C28.6092 37.7209 28.5129 37.745 28.4333 37.7931C28.3555 37.8412 28.2916 37.9077 28.2416 37.9928C28.1935 38.076 28.1583 38.1722 28.1361 38.2813C28.1139 38.3885 28.1027 38.5032 28.1027 38.6253ZM31.4414 37.7736V40.1538H30.6387V37.1523H31.3914L31.4414 37.7736ZM31.3303 38.5476H31.1081C31.1081 38.3386 31.1331 38.1463 31.1831 37.9706C31.235 37.7931 31.3099 37.6395 31.4081 37.5101C31.5081 37.3788 31.6313 37.2771 31.7775 37.205C31.9238 37.1328 32.0932 37.0968 32.2858 37.0968C32.4192 37.0968 32.5414 37.1171 32.6525 37.1578C32.7636 37.1967 32.8589 37.2586 32.9385 37.3436C33.02 37.4269 33.083 37.536 33.1274 37.671C33.1718 37.8042 33.1941 37.9641 33.1941 38.1509V40.1538H32.3941V38.2397C32.3941 38.1028 32.3756 37.9974 32.3386 37.9234C32.3015 37.8495 32.2488 37.7977 32.1802 37.7681C32.1136 37.7385 32.0331 37.7237 31.9386 37.7237C31.8349 37.7237 31.7442 37.745 31.6664 37.7875C31.5905 37.8301 31.5275 37.8892 31.4775 37.9651C31.4275 38.039 31.3905 38.126 31.3664 38.2258C31.3423 38.3256 31.3303 38.4329 31.3303 38.5476ZM33.1191 38.4561L32.833 38.4921C32.833 38.2961 32.857 38.1139 32.9052 37.9456C32.9552 37.7774 33.0283 37.6294 33.1247 37.5018C33.2228 37.3742 33.3441 37.2752 33.4885 37.205C33.633 37.1328 33.7996 37.0968 33.9884 37.0968C34.1329 37.0968 34.2644 37.1181 34.3829 37.1606C34.5014 37.2012 34.6024 37.2669 34.6856 37.3576C34.7708 37.4463 34.8356 37.5628 34.8801 37.7071C34.9264 37.8513 34.9495 38.0279 34.9495 38.2369V40.1538H34.1468V38.2369C34.1468 38.0982 34.1283 37.9928 34.0912 37.9207C34.0561 37.8467 34.0042 37.7959 33.9357 37.7681C33.869 37.7385 33.7894 37.7237 33.6968 37.7237C33.6006 37.7237 33.5163 37.7432 33.444 37.7819C33.3718 37.8189 33.3116 37.8707 33.2635 37.9373C33.2154 38.0039 33.1793 38.0816 33.1552 38.1703C33.1311 38.2572 33.1191 38.3525 33.1191 38.4561ZM38.0104 39.5129L38.816 36.1148H39.2659L39.3687 36.6807L38.5104 40.1538H38.0271L38.0104 39.5129ZM37.5966 36.1148L38.2632 39.5129L38.2077 40.1538H37.6688L36.7717 36.1148H37.5966ZM40.077 39.4991L40.7353 36.1148H41.5602L40.6658 40.1538H40.127L40.077 39.4991ZM39.5187 36.1148L40.3298 39.5268L40.3075 40.1538H39.8243L38.9604 36.6779L39.0715 36.1148H39.5187ZM43.2574 40.2092C43.024 40.2092 42.8148 40.1722 42.6296 40.0983C42.4444 40.0224 42.287 39.918 42.1574 39.7848C42.0296 39.6517 41.9315 39.4972 41.863 39.3216C41.7945 39.144 41.7602 38.9554 41.7602 38.7556V38.6447C41.7602 38.4172 41.7926 38.2091 41.8574 38.0205C41.9222 37.8319 42.0148 37.6682 42.1352 37.5295C42.2574 37.3908 42.4055 37.2845 42.5796 37.2105C42.7537 37.1347 42.9499 37.0968 43.1685 37.0968C43.3814 37.0968 43.5703 37.1319 43.7351 37.2022C43.8999 37.2724 44.0379 37.3723 44.149 37.5018C44.2619 37.6312 44.3471 37.7866 44.4045 37.9678C44.4619 38.1472 44.4906 38.3469 44.4906 38.567V38.8999H42.1018V38.3673H43.7046V38.3063C43.7046 38.1953 43.6842 38.0963 43.6435 38.0094C43.6045 37.9207 43.5453 37.8504 43.4656 37.7986C43.386 37.7468 43.2842 37.7209 43.1601 37.7209C43.0546 37.7209 42.9638 37.7441 42.8879 37.7903C42.812 37.8365 42.75 37.9012 42.7018 37.9845C42.6555 38.0677 42.6204 38.1657 42.5962 38.2785C42.5741 38.3894 42.563 38.5115 42.563 38.6447V38.7556C42.563 38.8759 42.5796 38.9868 42.613 39.0885C42.6481 39.1902 42.6972 39.2781 42.7601 39.352C42.825 39.426 42.9027 39.4834 42.9935 39.524C43.0861 39.5647 43.1907 39.585 43.3073 39.585C43.4518 39.585 43.586 39.5573 43.7101 39.5019C43.836 39.4445 43.9443 39.3586 44.0351 39.2439L44.4239 39.6655C44.361 39.7561 44.2749 39.843 44.1656 39.9263C44.0582 40.0095 43.9286 40.0779 43.7767 40.1315C43.6249 40.1833 43.4518 40.2092 43.2574 40.2092ZM44.9461 35.8929H45.7461V39.4658L45.6655 40.1538H44.9461V35.8929ZM47.6487 38.6225V38.6808C47.6487 38.9045 47.6247 39.1098 47.5765 39.2966C47.5302 39.4834 47.458 39.6452 47.3599 39.782C47.2617 39.917 47.1395 40.0224 46.9932 40.0983C46.8488 40.1722 46.6784 40.2092 46.4822 40.2092C46.2988 40.2092 46.1396 40.1722 46.0044 40.0983C45.871 40.0243 45.759 39.9198 45.6683 39.7848C45.5775 39.6498 45.5044 39.4917 45.4489 39.3104C45.3933 39.1292 45.3517 38.9313 45.3238 38.7168V38.5892C45.3517 38.3747 45.3933 38.1768 45.4489 37.9955C45.5044 37.8144 45.5775 37.6562 45.6683 37.5212C45.759 37.3862 45.871 37.2817 46.0044 37.2078C46.1377 37.1338 46.2951 37.0968 46.4766 37.0968C46.6747 37.0968 46.8469 37.1347 46.9932 37.2105C47.1413 37.2845 47.2635 37.3899 47.3599 37.5268C47.458 37.6618 47.5302 37.8227 47.5765 38.0094C47.6247 38.1944 47.6487 38.3987 47.6487 38.6225ZM46.8488 38.6808V38.6225C46.8488 38.5005 46.8395 38.3858 46.821 38.2785C46.8044 38.1694 46.7747 38.0742 46.7321 37.9928C46.6895 37.9096 46.6312 37.8439 46.5571 37.7959C46.4849 37.7477 46.3914 37.7237 46.2766 37.7237C46.1674 37.7237 46.0748 37.7422 45.9988 37.7792C45.9229 37.8162 45.8599 37.868 45.8099 37.9345C45.7618 38.0011 45.7257 38.0806 45.7016 38.1731C45.6775 38.2637 45.6628 38.3636 45.6572 38.4727V38.8361C45.6628 38.9822 45.6868 39.1116 45.7294 39.2245C45.7739 39.3354 45.8405 39.4232 45.9294 39.488C46.0201 39.5508 46.1377 39.5823 46.2821 39.5823C46.3951 39.5823 46.4886 39.5601 46.5627 39.5157C46.6367 39.4713 46.6942 39.4085 46.7349 39.3271C46.7775 39.2457 46.8071 39.1505 46.8238 39.0413C46.8404 38.9304 46.8488 38.8102 46.8488 38.6808ZM50.8541 40.1538H49.9736L49.9791 39.5046H50.8541C51.0726 39.5046 51.2568 39.4556 51.4068 39.3576C51.5568 39.2577 51.6698 39.1125 51.7457 38.9221C51.8235 38.7316 51.8623 38.5014 51.8623 38.2314V38.0344C51.8623 37.8272 51.8401 37.6451 51.7957 37.4879C51.7531 37.3307 51.6892 37.1985 51.6041 37.0913C51.5188 36.984 51.4142 36.9036 51.2902 36.8499C51.1661 36.7944 51.0235 36.7667 50.8624 36.7667H49.9569V36.1148H50.8624C51.1327 36.1148 51.38 36.161 51.6041 36.2535C51.8299 36.3441 52.0253 36.4745 52.1901 36.6446C52.3549 36.8148 52.4818 37.0182 52.5706 37.2549C52.6614 37.4898 52.7068 37.7515 52.7068 38.0399V38.2314C52.7068 38.518 52.6614 38.7797 52.5706 39.0164C52.4818 39.2531 52.3549 39.4566 52.1901 39.6267C52.0272 39.795 51.8318 39.9253 51.6041 40.0178C51.3781 40.1085 51.1282 40.1538 50.8541 40.1538ZM50.4457 36.1148V40.1538H49.6125V36.1148H50.4457ZM54.6455 40.2092C54.4122 40.2092 54.2029 40.1722 54.0178 40.0983C53.8326 40.0224 53.6752 39.918 53.5456 39.7848C53.4178 39.6517 53.3197 39.4972 53.2512 39.3216C53.1826 39.144 53.1484 38.9554 53.1484 38.7556V38.6447C53.1484 38.4172 53.1808 38.2091 53.2456 38.0205C53.3104 37.8319 53.403 37.6682 53.5234 37.5295C53.6456 37.3908 53.7937 37.2845 53.9678 37.2105C54.1418 37.1347 54.3381 37.0968 54.5566 37.0968C54.7696 37.0968 54.9585 37.1319 55.1232 37.2022C55.2881 37.2724 55.426 37.3723 55.5371 37.5018C55.6501 37.6312 55.7353 37.7866 55.7927 37.9678C55.85 38.1472 55.8788 38.3469 55.8788 38.567V38.8999H53.49V38.3673H55.0927V38.3063C55.0927 38.1953 55.0723 38.0963 55.0316 38.0094C54.9927 37.9207 54.9334 37.8504 54.8538 37.7986C54.7742 37.7468 54.6724 37.7209 54.5483 37.7209C54.4428 37.7209 54.352 37.7441 54.2761 37.7903C54.2002 37.8365 54.1381 37.9012 54.09 37.9845C54.0437 38.0677 54.0085 38.1657 53.9844 38.2785C53.9622 38.3894 53.9511 38.5115 53.9511 38.6447V38.7556C53.9511 38.8759 53.9678 38.9868 54.0011 39.0885C54.0363 39.1902 54.0854 39.2781 54.1483 39.352C54.2131 39.426 54.2909 39.4834 54.3817 39.524C54.4743 39.5647 54.5788 39.585 54.6955 39.585C54.8399 39.585 54.9742 39.5573 55.0983 39.5019C55.2242 39.4445 55.3325 39.3586 55.4233 39.2439L55.8121 39.6655C55.7491 39.7561 55.663 39.843 55.5538 39.9263C55.4464 40.0095 55.3167 40.0779 55.1649 40.1315C55.0131 40.1833 54.8399 40.2092 54.6455 40.2092ZM57.9592 39.3243C57.9592 39.267 57.9425 39.2152 57.9092 39.169C57.8759 39.1227 57.8138 39.0802 57.7231 39.0413C57.6342 39.0007 57.5055 38.9637 57.337 38.9304C57.1851 38.8971 57.0435 38.8555 56.912 38.8056C56.7824 38.7538 56.6694 38.6918 56.5732 38.6197C56.4787 38.5476 56.4047 38.4625 56.351 38.3645C56.2972 38.2646 56.2704 38.1509 56.2704 38.0233C56.2704 37.8975 56.2972 37.7792 56.351 37.6682C56.4065 37.5573 56.4852 37.4592 56.5871 37.3742C56.6907 37.2873 56.8167 37.2197 56.9648 37.1717C57.1148 37.1217 57.2833 37.0968 57.4703 37.0968C57.7314 37.0968 57.9555 37.1384 58.1425 37.2216C58.3314 37.3049 58.4758 37.4195 58.5758 37.5656C58.6777 37.7098 58.7286 37.8744 58.7286 38.0593H57.9287C57.9287 37.9817 57.9119 37.9124 57.8787 37.8513C57.8472 37.7884 57.7972 37.7394 57.7286 37.7043C57.662 37.6673 57.575 37.6488 57.4675 37.6488C57.3787 37.6488 57.3019 37.6645 57.237 37.696C57.1722 37.7256 57.1222 37.7662 57.087 37.818C57.0537 37.868 57.037 37.9234 57.037 37.9845C57.037 38.0307 57.0463 38.0723 57.0648 38.1093C57.0852 38.1445 57.1176 38.1768 57.162 38.2064C57.2064 38.236 57.2639 38.2637 57.3342 38.2896C57.4064 38.3137 57.4953 38.3358 57.6009 38.3562C57.8176 38.4006 58.011 38.4588 58.1814 38.5309C58.3518 38.6012 58.4869 38.6974 58.5869 38.8194C58.6869 38.9397 58.7369 39.0978 58.7369 39.2938C58.7369 39.427 58.7073 39.549 58.648 39.66C58.5887 39.7709 58.5036 39.868 58.3925 39.9512C58.2814 40.0326 58.1481 40.0964 57.9925 40.1427C57.8389 40.187 57.6657 40.2092 57.4731 40.2092C57.1935 40.2092 56.9565 40.1593 56.762 40.0594C56.5694 39.9595 56.4232 39.8329 56.3232 39.6794C56.225 39.524 56.176 39.365 56.176 39.2022H56.9342C56.938 39.3114 56.9657 39.3992 57.0176 39.4658C57.0713 39.5323 57.1389 39.5805 57.2204 39.61C57.3037 39.6396 57.3935 39.6544 57.4898 39.6544C57.5935 39.6544 57.6796 39.6405 57.7481 39.6128C57.8166 39.5832 57.8685 39.5444 57.9036 39.4963C57.9407 39.4464 57.9592 39.389 57.9592 39.3243ZM60.1008 37.1523V40.1538H59.298V37.1523H60.1008ZM59.248 36.37C59.248 36.2535 59.2887 36.1573 59.3702 36.0815C59.4517 36.0056 59.5609 35.9678 59.698 35.9678C59.8331 35.9678 59.9415 36.0056 60.0229 36.0815C60.1063 36.1573 60.1479 36.2535 60.1479 36.37C60.1479 36.4865 60.1063 36.5827 60.0229 36.6585C59.9415 36.7343 59.8331 36.7722 59.698 36.7722C59.5609 36.7722 59.4517 36.7343 59.3702 36.6585C59.2887 36.5827 59.248 36.4865 59.248 36.37ZM62.6645 37.1523H63.3894V40.0539C63.3894 40.3276 63.3283 40.5597 63.2061 40.7502C63.0857 40.9425 62.9172 41.0877 62.7005 41.1857C62.4839 41.2856 62.2321 41.3355 61.945 41.3355C61.8191 41.3355 61.6858 41.3188 61.5451 41.2856C61.4062 41.2523 61.2729 41.2004 61.1451 41.1302C61.0192 41.0599 60.9136 40.9712 60.8285 40.8639L61.1812 40.3923C61.2738 40.4996 61.3812 40.5828 61.5034 40.642C61.6257 40.703 61.7608 40.7335 61.909 40.7335C62.0533 40.7335 62.1756 40.7067 62.2756 40.6531C62.3756 40.6013 62.4524 40.5245 62.5061 40.4228C62.5598 40.323 62.5867 40.2018 62.5867 40.0594V37.8457L62.6645 37.1523ZM60.6423 38.6891V38.6308C60.6423 38.4015 60.6701 38.1934 60.7257 38.0066C60.7831 37.818 60.8636 37.6562 60.9673 37.5212C61.0729 37.3862 61.2007 37.2817 61.3506 37.2078C61.5006 37.1338 61.67 37.0968 61.859 37.0968C62.0589 37.0968 62.2265 37.1338 62.3617 37.2078C62.4969 37.2817 62.608 37.3871 62.695 37.524C62.782 37.659 62.8496 37.8189 62.8978 38.0039C62.9478 38.187 62.9867 38.3876 63.0144 38.6058V38.7335C62.9867 38.9424 62.945 39.1366 62.8895 39.316C62.8339 39.4953 62.7607 39.6526 62.67 39.7876C62.5792 39.9208 62.4663 40.0243 62.3311 40.0983C62.1978 40.1722 62.0386 40.2092 61.8534 40.2092C61.6682 40.2092 61.5006 40.1713 61.3506 40.0955C61.2025 40.0197 61.0756 39.9133 60.9701 39.7765C60.8646 39.6396 60.7831 39.4787 60.7257 39.2938C60.6701 39.1089 60.6423 38.9073 60.6423 38.6891ZM61.4423 38.6308V38.6891C61.4423 38.813 61.4544 38.9286 61.4784 39.0358C61.5025 39.1431 61.5395 39.2383 61.5895 39.3216C61.6413 39.4029 61.7053 39.4667 61.7811 39.5129C61.859 39.5573 61.9506 39.5795 62.0561 39.5795C62.2025 39.5795 62.3219 39.549 62.4145 39.488C62.5071 39.4251 62.5765 39.3391 62.6228 39.23C62.6691 39.1209 62.696 38.9951 62.7033 38.8527V38.4893C62.6996 38.3728 62.6839 38.2684 62.6561 38.1759C62.6283 38.0816 62.5894 38.0011 62.5394 37.9345C62.4894 37.868 62.4247 37.8162 62.345 37.7792C62.2654 37.7422 62.171 37.7237 62.0617 37.7237C61.9562 37.7237 61.8645 37.7477 61.7867 37.7959C61.7108 37.8421 61.6469 37.9058 61.5951 37.9872C61.5451 38.0686 61.5071 38.1648 61.4812 38.2757C61.4553 38.3849 61.4423 38.5032 61.4423 38.6308ZM64.7949 37.7931V40.1538H63.9949V37.1523H64.7449L64.7949 37.7931ZM64.6782 38.5476H64.4616C64.4616 38.3256 64.4902 38.126 64.5477 37.9484C64.6051 37.769 64.6856 37.6165 64.7893 37.4907C64.893 37.3631 65.0161 37.266 65.1587 37.1994C65.3032 37.131 65.4643 37.0968 65.642 37.0968C65.7827 37.0968 65.9115 37.1171 66.0281 37.1578C66.1448 37.1985 66.2448 37.2632 66.3281 37.352C66.4133 37.4408 66.4781 37.5582 66.5225 37.7043C66.5688 37.8504 66.592 38.0289 66.592 38.2397V40.1538H65.7865V38.2369C65.7865 38.1037 65.768 38.0002 65.7309 37.9262C65.6939 37.8522 65.6393 37.8004 65.5671 37.7709C65.4967 37.7394 65.4096 37.7237 65.3059 37.7237C65.1985 37.7237 65.105 37.745 65.0254 37.7875C64.9476 37.8301 64.8828 37.8892 64.831 37.9651C64.781 38.039 64.743 38.126 64.7171 38.2258C64.6911 38.3256 64.6782 38.4329 64.6782 38.5476ZM25.9224 47.08H25.0418L25.0474 46.4308H25.9224C26.1408 46.4308 26.3251 46.3818 26.4751 46.2838C26.625 46.1839 26.738 46.0388 26.8139 45.8483C26.8917 45.6578 26.9306 45.4276 26.9306 45.1576V44.9606C26.9306 44.7535 26.9084 44.5713 26.8639 44.4141C26.8214 44.2569 26.7574 44.1247 26.6723 44.0175C26.5871 43.9102 26.4824 43.8298 26.3584 43.7761C26.2344 43.7206 26.0918 43.6929 25.9307 43.6929H25.0252V43.041H25.9307C26.201 43.041 26.4482 43.0872 26.6723 43.1797C26.8982 43.2703 27.0936 43.4007 27.2584 43.5708C27.4231 43.741 27.55 43.9444 27.6389 44.1811C27.7296 44.416 27.775 44.6777 27.775 44.9662V45.1576C27.775 45.4442 27.7296 45.7059 27.6389 45.9426C27.55 46.1794 27.4231 46.3828 27.2584 46.5529C27.0954 46.7212 26.9 46.8515 26.6723 46.944C26.4464 47.0347 26.1964 47.08 25.9224 47.08ZM25.514 43.041V47.08H24.6808V43.041H25.514ZM29.7137 47.1354C29.4805 47.1354 29.2712 47.0985 29.086 47.0245C28.9008 46.9486 28.7434 46.8442 28.6138 46.711C28.4861 46.5779 28.3879 46.4234 28.3194 46.2478C28.2509 46.0702 28.2167 45.8816 28.2167 45.6818V45.5709C28.2167 45.3434 28.249 45.1354 28.3138 44.9468C28.3787 44.7581 28.4712 44.5944 28.5916 44.4558C28.7138 44.317 28.862 44.2107 29.036 44.1367C29.21 44.0609 29.4064 44.023 29.6248 44.023C29.8378 44.023 30.0267 44.0581 30.1915 44.1284C30.3563 44.1987 30.4942 44.2985 30.6053 44.428C30.7183 44.5574 30.8035 44.7128 30.8609 44.8941C30.9183 45.0734 30.947 45.2731 30.947 45.4932V45.8261H28.5583V45.2935H30.1609V45.2325C30.1609 45.1215 30.1406 45.0225 30.0998 44.9356C30.0609 44.8469 30.0017 44.7766 29.9221 44.7248C29.8425 44.673 29.7406 44.6471 29.6165 44.6471C29.511 44.6471 29.4203 44.6703 29.3443 44.7165C29.2684 44.7627 29.2064 44.8274 29.1582 44.9107C29.1119 44.9939 29.0768 45.0919 29.0527 45.2047C29.0305 45.3157 29.0193 45.4378 29.0193 45.5709V45.6818C29.0193 45.8021 29.036 45.913 29.0693 46.0147C29.1046 46.1165 29.1536 46.2043 29.2166 46.2783C29.2813 46.3522 29.3592 46.4096 29.4499 46.4502C29.5424 46.491 29.6471 46.5113 29.7638 46.5113C29.9082 46.5113 30.0424 46.4836 30.1665 46.4281C30.2924 46.3707 30.4007 46.2848 30.4915 46.1701L30.8803 46.5917C30.8174 46.6823 30.7313 46.7693 30.622 46.8525C30.5146 46.9357 30.385 47.0041 30.2332 47.0577C30.0813 47.1095 29.9082 47.1354 29.7137 47.1354ZM32.3858 46.4974L33.0524 44.0785H33.8885L32.8747 47.08H32.3692L32.3858 46.4974ZM31.9275 44.0785L32.5969 46.5002L32.6108 47.08H32.1025L31.0886 44.0785H31.9275ZM35.5912 47.1354C35.3579 47.1354 35.1486 47.0985 34.9634 47.0245C34.7782 46.9486 34.6209 46.8442 34.4912 46.711C34.3634 46.5779 34.2653 46.4234 34.1968 46.2478C34.1283 46.0702 34.094 45.8816 34.094 45.6818V45.5709C34.094 45.3434 34.1265 45.1354 34.1912 44.9468C34.2561 44.7581 34.3487 44.5944 34.469 44.4558C34.5913 44.317 34.7394 44.2107 34.9134 44.1367C35.0875 44.0609 35.2838 44.023 35.5023 44.023C35.7152 44.023 35.9041 44.0581 36.0689 44.1284C36.2337 44.1987 36.3717 44.2985 36.4828 44.428C36.5957 44.5574 36.6809 44.7128 36.7383 44.8941C36.7957 45.0734 36.8244 45.2731 36.8244 45.4932V45.8261H34.4357V45.2935H36.0383V45.2325C36.0383 45.1215 36.018 45.0225 35.9772 44.9356C35.9383 44.8469 35.8791 44.7766 35.7995 44.7248C35.7199 44.673 35.618 44.6471 35.4939 44.6471C35.3884 44.6471 35.2977 44.6703 35.2217 44.7165C35.1458 44.7627 35.0838 44.8274 35.0357 44.9107C34.9893 44.9939 34.9542 45.0919 34.9301 45.2047C34.9078 45.3157 34.8967 45.4378 34.8967 45.5709V45.6818C34.8967 45.8021 34.9134 45.913 34.9468 46.0147C34.9819 46.1165 35.031 46.2043 35.094 46.2783C35.1588 46.3522 35.2366 46.4096 35.3273 46.4502C35.4199 46.491 35.5245 46.5113 35.6412 46.5113C35.7856 46.5113 35.9198 46.4836 36.0439 46.4281C36.1698 46.3707 36.2782 46.2848 36.3689 46.1701L36.7577 46.5917C36.6948 46.6823 36.6087 46.7693 36.4995 46.8525C36.392 46.9357 36.2624 47.0041 36.1105 47.0577C35.9587 47.1095 35.7856 47.1354 35.5912 47.1354ZM38.1243 42.8191V47.08H37.3216V42.8191H38.1243ZM38.6576 45.6097V45.5515C38.6576 45.3314 38.6891 45.1289 38.7521 44.944C38.8151 44.7572 38.9067 44.5954 39.0271 44.4585C39.1474 44.3217 39.2956 44.2154 39.4715 44.1395C39.6474 44.0618 39.8492 44.023 40.077 44.023C40.3047 44.023 40.5075 44.0618 40.6853 44.1395C40.8631 44.2154 41.0121 44.3217 41.1325 44.4585C41.2547 44.5954 41.3473 44.7572 41.4103 44.944C41.4732 45.1289 41.5046 45.3314 41.5046 45.5515V45.6097C41.5046 45.828 41.4732 46.0304 41.4103 46.2172C41.3473 46.4022 41.2547 46.564 41.1325 46.7027C41.0121 46.8396 40.864 46.9459 40.688 47.0217C40.5122 47.0976 40.3103 47.1354 40.0825 47.1354C39.8548 47.1354 39.652 47.0976 39.4742 47.0217C39.2984 46.9459 39.1493 46.8396 39.0271 46.7027C38.9067 46.564 38.8151 46.4022 38.7521 46.2172C38.6891 46.0304 38.6576 45.828 38.6576 45.6097ZM39.4576 45.5515V45.6097C39.4576 45.7355 39.4687 45.8529 39.4909 45.962C39.5131 46.0712 39.5483 46.1673 39.5964 46.2506C39.6464 46.3319 39.7113 46.3957 39.7909 46.4419C39.8705 46.4882 39.9677 46.5113 40.0825 46.5113C40.1936 46.5113 40.289 46.4882 40.3687 46.4419C40.4483 46.3957 40.5122 46.3319 40.5603 46.2506C40.6084 46.1673 40.6436 46.0712 40.6658 45.962C40.6899 45.8529 40.702 45.7355 40.702 45.6097V45.5515C40.702 45.4295 40.6899 45.3148 40.6658 45.2075C40.6436 45.0984 40.6075 45.0022 40.5575 44.919C40.5094 44.8339 40.4455 44.7674 40.3659 44.7193C40.2862 44.6712 40.1899 44.6471 40.077 44.6471C39.964 44.6471 39.8677 44.6712 39.7881 44.7193C39.7103 44.7674 39.6464 44.8339 39.5964 44.919C39.5483 45.0022 39.5131 45.0984 39.4909 45.2075C39.4687 45.3148 39.4576 45.4295 39.4576 45.5515ZM42.7963 44.6554V48.2339H41.9963V44.0785H42.7379L42.7963 44.6554ZM44.6989 45.546V45.6042C44.6989 45.8224 44.673 46.0249 44.6212 46.2117C44.5712 46.3985 44.4971 46.5612 44.399 46.6999C44.3008 46.8368 44.1786 46.944 44.0323 47.0217C43.8878 47.0976 43.7212 47.1354 43.5324 47.1354C43.349 47.1354 43.1898 47.0985 43.0546 47.0245C42.9194 46.9505 42.8055 46.847 42.713 46.7138C42.6222 46.5788 42.5491 46.4225 42.4935 46.245C42.438 46.0674 42.3953 45.877 42.3657 45.6735V45.5209C42.3953 45.3028 42.438 45.103 42.4935 44.9218C42.5491 44.7387 42.6222 44.5806 42.713 44.4475C42.8055 44.3124 42.9185 44.2079 43.0518 44.134C43.187 44.06 43.3453 44.023 43.5268 44.023C43.7175 44.023 43.8851 44.059 44.0295 44.1312C44.1758 44.2033 44.298 44.3069 44.3961 44.4418C44.4961 44.5769 44.5712 44.7378 44.6212 44.9245C44.673 45.1113 44.6989 45.3185 44.6989 45.546ZM43.8962 45.6042V45.546C43.8962 45.4183 43.8851 45.3009 43.8629 45.1936C43.8425 45.0845 43.8091 44.9893 43.7629 44.9079C43.7184 44.8265 43.6592 44.7636 43.5851 44.7193C43.5129 44.673 43.4249 44.6499 43.3212 44.6499C43.2119 44.6499 43.1185 44.6675 43.0407 44.7026C42.9648 44.7378 42.9027 44.7886 42.8546 44.8552C42.8064 44.9218 42.7703 45.0013 42.7463 45.0937C42.7222 45.1862 42.7073 45.2907 42.7018 45.4072V45.7928C42.7111 45.9297 42.737 46.0527 42.7796 46.1618C42.8222 46.269 42.8879 46.3541 42.9768 46.417C43.0657 46.4799 43.1823 46.5113 43.3268 46.5113C43.4323 46.5113 43.5212 46.4882 43.5935 46.4419C43.6656 46.3939 43.724 46.3282 43.7684 46.245C43.8147 46.1618 43.8471 46.0656 43.8657 45.9565C43.886 45.8474 43.8962 45.7299 43.8962 45.6042ZM45.9961 44.6998V47.08H45.1933V44.0785H45.9461L45.9961 44.6998ZM45.885 45.4738H45.6628C45.6628 45.2648 45.6877 45.0725 45.7377 44.8968C45.7896 44.7193 45.8646 44.5658 45.9627 44.4363C46.0627 44.305 46.1859 44.2033 46.3322 44.1312C46.4784 44.059 46.6478 44.023 46.8404 44.023C46.9738 44.023 47.096 44.0433 47.2071 44.084C47.3182 44.1229 47.4136 44.1848 47.4932 44.2699C47.5747 44.3531 47.6376 44.4622 47.6821 44.5972C47.7265 44.7304 47.7487 44.8903 47.7487 45.0771V47.08H46.9488V45.1659C46.9488 45.029 46.9302 44.9236 46.8932 44.8497C46.8562 44.7757 46.8034 44.7239 46.7349 44.6943C46.6682 44.6647 46.5877 44.6499 46.4933 44.6499C46.3896 44.6499 46.2988 44.6712 46.2211 44.7137C46.1451 44.7563 46.0821 44.8154 46.0321 44.8913C45.9822 44.9653 45.9452 45.0522 45.921 45.152C45.897 45.2519 45.885 45.3591 45.885 45.4738ZM47.6738 45.3823L47.3876 45.4183C47.3876 45.2223 47.4117 45.0401 47.4599 44.8718C47.5099 44.7036 47.583 44.5556 47.6793 44.428C47.7774 44.3004 47.8987 44.2014 48.0431 44.1312C48.1876 44.059 48.3542 44.023 48.5432 44.023C48.6875 44.023 48.819 44.0443 48.9376 44.0868C49.0561 44.1275 49.157 44.1931 49.2403 44.2838C49.3255 44.3725 49.3903 44.489 49.4347 44.6333C49.481 44.7776 49.5042 44.9541 49.5042 45.1631V47.08H48.7014V45.1631C48.7014 45.0244 48.6829 44.919 48.6459 44.8469C48.6107 44.7729 48.5588 44.7221 48.4904 44.6943C48.4237 44.6647 48.344 44.6499 48.2515 44.6499C48.1552 44.6499 48.0709 44.6694 47.9987 44.7082C47.9265 44.7451 47.8663 44.7969 47.8182 44.8635C47.77 44.9301 47.7339 45.0078 47.7098 45.0965C47.6858 45.1834 47.6738 45.2787 47.6738 45.3823ZM51.5068 47.1354C51.2735 47.1354 51.0642 47.0985 50.8791 47.0245C50.6939 46.9486 50.5365 46.8442 50.4069 46.711C50.2791 46.5779 50.181 46.4234 50.1124 46.2478C50.0439 46.0702 50.0097 45.8816 50.0097 45.6818V45.5709C50.0097 45.3434 50.0421 45.1354 50.1069 44.9468C50.1717 44.7581 50.2643 44.5944 50.3847 44.4558C50.5069 44.317 50.6551 44.2107 50.8291 44.1367C51.0031 44.0609 51.1995 44.023 51.4179 44.023C51.6309 44.023 51.8197 44.0581 51.9846 44.1284C52.1494 44.1987 52.2873 44.2985 52.3984 44.428C52.5114 44.5574 52.5966 44.7128 52.654 44.8941C52.7114 45.0734 52.7401 45.2731 52.7401 45.4932V45.8261H50.3514V45.2935H51.954V45.2325C51.954 45.1215 51.9336 45.0225 51.8929 44.9356C51.854 44.8469 51.7948 44.7766 51.7152 44.7248C51.6355 44.673 51.5337 44.6471 51.4096 44.6471C51.304 44.6471 51.2133 44.6703 51.1374 44.7165C51.0615 44.7627 50.9995 44.8274 50.9513 44.9107C50.905 44.9939 50.8698 45.0919 50.8458 45.2047C50.8235 45.3157 50.8124 45.4378 50.8124 45.5709V45.6818C50.8124 45.8021 50.8291 45.913 50.8624 46.0147C50.8976 46.1165 50.9467 46.2043 51.0096 46.2783C51.0744 46.3522 51.1522 46.4096 51.2429 46.4502C51.3355 46.491 51.4402 46.5113 51.5568 46.5113C51.7012 46.5113 51.8355 46.4836 51.9596 46.4281C52.0855 46.3707 52.1938 46.2848 52.2845 46.1701L52.6734 46.5917C52.6104 46.6823 52.5244 46.7693 52.4151 46.8525C52.3077 46.9357 52.1781 47.0041 52.0262 47.0577C51.8744 47.1095 51.7012 47.1354 51.5068 47.1354ZM53.9789 44.7193V47.08H53.179V44.0785H53.9289L53.9789 44.7193ZM53.8622 45.4738H53.6456C53.6456 45.2519 53.6743 45.0522 53.7317 44.8746C53.7891 44.6952 53.8696 44.5427 53.9733 44.4169C54.077 44.2893 54.2002 44.1922 54.3428 44.1257C54.4872 44.0572 54.6483 44.023 54.8261 44.023C54.9668 44.023 55.0955 44.0433 55.2122 44.084C55.3288 44.1247 55.4288 44.1895 55.5121 44.2782C55.5973 44.367 55.6621 44.4844 55.7066 44.6305C55.7528 44.7766 55.776 44.9551 55.776 45.1659V47.08H54.9705V45.1631C54.9705 45.0299 54.9519 44.9264 54.9149 44.8524C54.8779 44.7785 54.8233 44.7266 54.751 44.6971C54.6807 44.6656 54.5937 44.6499 54.49 44.6499C54.3826 44.6499 54.2891 44.6712 54.2094 44.7137C54.1317 44.7563 54.0669 44.8154 54.015 44.8913C53.965 44.9653 53.9271 45.0522 53.9011 45.152C53.8752 45.2519 53.8622 45.3591 53.8622 45.4738ZM57.8564 44.0785V44.6444H56.1065V44.0785H57.8564ZM56.5398 43.3378H57.3398V46.1756C57.3398 46.2625 57.3509 46.3291 57.3731 46.3754C57.3972 46.4216 57.4324 46.454 57.4786 46.4725C57.525 46.4891 57.5833 46.4974 57.6537 46.4974C57.7037 46.4974 57.7481 46.4955 57.787 46.4919C57.8277 46.4863 57.8619 46.4808 57.8898 46.4752L57.8925 47.0633C57.824 47.0855 57.7499 47.1031 57.6703 47.1161C57.5907 47.1289 57.5028 47.1354 57.4064 47.1354C57.2306 47.1354 57.0768 47.1068 56.9454 47.0494C56.8158 46.9903 56.7158 46.8959 56.6454 46.7665C56.5751 46.637 56.5398 46.4669 56.5398 46.2561V43.3378Z" fill="#112244"/>
<path d="M33.1217 54.6393V58.0536H32.4196V54.6393H33.1217ZM34.1736 54.6393V55.1904H31.3842V54.6393H34.1736ZM37.3177 56.2667V56.4285C37.3177 56.688 37.2825 56.921 37.212 57.1274C37.1416 57.3337 37.0421 57.5096 36.9138 57.655C36.7855 57.7988 36.6321 57.9091 36.4536 57.9857C36.2767 58.0623 36.0802 58.1006 35.8642 58.1006C35.6498 58.1006 35.4533 58.0623 35.2749 57.9857C35.098 57.9091 34.9446 57.7988 34.8146 57.655C34.6847 57.5096 34.5838 57.3337 34.5118 57.1274C34.4413 56.921 34.4061 56.688 34.4061 56.4285V56.2667C34.4061 56.0057 34.4413 55.7727 34.5118 55.5679C34.5822 55.3616 34.6816 55.1857 34.81 55.0403C34.9399 54.8949 35.0933 54.7839 35.2702 54.7073C35.4487 54.6307 35.6451 54.5924 35.8596 54.5924C36.0755 54.5924 36.272 54.6307 36.4489 54.7073C36.6274 54.7839 36.7808 54.8949 36.9091 55.0403C37.039 55.1857 37.1392 55.3616 37.2096 55.5679C37.2817 55.7727 37.3177 56.0057 37.3177 56.2667ZM36.6062 56.4285V56.2621C36.6062 56.0807 36.5898 55.9212 36.5569 55.7837C36.524 55.6461 36.4755 55.5304 36.4113 55.4366C36.3472 55.3428 36.2689 55.2725 36.1765 55.2256C36.0842 55.1771 35.9785 55.1528 35.8596 55.1528C35.7406 55.1528 35.6349 55.1771 35.5426 55.2256C35.4518 55.2725 35.3742 55.3428 35.3101 55.4366C35.2475 55.5304 35.1997 55.6461 35.1669 55.7837C35.134 55.9212 35.1176 56.0807 35.1176 56.2621V56.4285C35.1176 56.6083 35.134 56.7678 35.1669 56.9069C35.1997 57.0445 35.2483 57.161 35.3124 57.2563C35.3766 57.3501 35.4549 57.4212 35.5473 57.4697C35.6396 57.5182 35.7453 57.5425 35.8642 57.5425C35.9832 57.5425 36.0888 57.5182 36.1812 57.4697C36.2736 57.4212 36.3511 57.3501 36.4137 57.2563C36.4763 57.161 36.524 57.0445 36.5569 56.9069C36.5898 56.7678 36.6062 56.6083 36.6062 56.4285ZM39.1562 56.8366H38.2851V56.2878H39.1562C39.2908 56.2878 39.4004 56.266 39.4849 56.2222C39.5695 56.1769 39.6313 56.1143 39.6704 56.0346C39.7096 55.9548 39.7291 55.865 39.7291 55.7649C39.7291 55.6633 39.7096 55.5687 39.6704 55.4812C39.6313 55.3936 39.5695 55.3233 39.4849 55.2701C39.4004 55.217 39.2908 55.1904 39.1562 55.1904H38.5293V58.0536H37.8249V54.6393H39.1562C39.4239 54.6393 39.6532 54.6878 39.8442 54.7847C40.0367 54.8801 40.1838 55.0122 40.2856 55.181C40.3873 55.3498 40.4382 55.5429 40.4382 55.7602C40.4382 55.9807 40.3873 56.1714 40.2856 56.3324C40.1838 56.4934 40.0367 56.6177 39.8442 56.7053C39.6532 56.7928 39.4239 56.8366 39.1562 56.8366ZM43.6996 54.6323V58.0536H43.0234V55.4108L42.211 55.6688V55.1364L43.6269 54.6323H43.6996ZM47.1137 56.0463V56.6373C47.1137 56.8936 47.0863 57.1148 47.0315 57.3009C46.9767 57.4854 46.8976 57.637 46.7944 57.7559C46.6926 57.873 46.5713 57.9598 46.4304 58.0161C46.2895 58.0724 46.133 58.1006 45.9608 58.1006C45.823 58.1006 45.6947 58.0833 45.5757 58.049C45.4567 58.013 45.3495 57.9575 45.254 57.8825C45.1601 57.8074 45.0787 57.7128 45.0098 57.5987C44.9426 57.483 44.8909 57.3455 44.8549 57.186C44.8189 57.0265 44.8009 56.8436 44.8009 56.6373V56.0463C44.8009 55.7899 44.8283 55.5703 44.8831 55.3874C44.9394 55.2029 45.0184 55.052 45.1202 54.9348C45.2235 54.8175 45.3456 54.7315 45.4865 54.6768C45.6274 54.6206 45.7839 54.5924 45.9561 54.5924C46.0939 54.5924 46.2214 54.6104 46.3388 54.6463C46.4578 54.6808 46.565 54.7346 46.6605 54.8081C46.756 54.8816 46.8374 54.9762 46.9047 55.0919C46.972 55.206 47.0237 55.3428 47.0597 55.5023C47.0957 55.6602 47.1137 55.8415 47.1137 56.0463ZM46.4351 56.7263V55.9548C46.4351 55.8313 46.4281 55.7235 46.414 55.6312C46.4014 55.539 46.3819 55.4609 46.3553 55.3967C46.3287 55.3311 46.2958 55.2779 46.2566 55.2373C46.2175 55.1966 46.1729 55.1669 46.1228 55.1482C46.0727 55.1294 46.0172 55.12 45.9561 55.12C45.8794 55.12 45.8113 55.1349 45.7518 55.1646C45.6939 55.1943 45.6446 55.242 45.6039 55.3076C45.5632 55.3717 45.5319 55.4577 45.51 55.5656C45.4896 55.6719 45.4795 55.8016 45.4795 55.9548V56.7263C45.4795 56.8498 45.4857 56.9585 45.4983 57.0523C45.5123 57.1461 45.5327 57.2266 45.5593 57.2939C45.5875 57.3595 45.6203 57.4134 45.6579 57.4557C45.697 57.4963 45.7416 57.526 45.7918 57.5447C45.8434 57.5635 45.8997 57.5729 45.9608 57.5729C46.036 57.5729 46.1025 57.558 46.1604 57.5283C46.2199 57.4971 46.2699 57.4486 46.3107 57.3829C46.3529 57.3158 46.3842 57.2282 46.4046 57.1203C46.4249 57.0125 46.4351 56.8811 46.4351 56.7263ZM47.5645 55.4765V55.2959C47.5645 55.1661 47.5927 55.0481 47.6491 54.9418C47.7054 54.8355 47.7883 54.7503 47.8979 54.6862C48.0075 54.6221 48.1421 54.5901 48.3018 54.5901C48.4662 54.5901 48.6031 54.6221 48.7127 54.6862C48.8238 54.7503 48.9068 54.8355 48.9616 54.9418C49.0179 55.0481 49.0461 55.1661 49.0461 55.2959V55.4765C49.0461 55.6031 49.0179 55.7195 48.9616 55.8259C48.9068 55.9322 48.8247 56.0174 48.7151 56.0815C48.6055 56.1456 48.4693 56.1777 48.3065 56.1777C48.1453 56.1777 48.0091 56.1456 47.8979 56.0815C47.7883 56.0174 47.7054 55.9322 47.6491 55.8259C47.5927 55.7195 47.5645 55.6031 47.5645 55.4765ZM48.013 55.2959V55.4765C48.013 55.5312 48.0232 55.5836 48.0435 55.6336C48.0654 55.6821 48.0983 55.7219 48.1421 55.7532C48.1875 55.7829 48.2423 55.7977 48.3065 55.7977C48.3738 55.7977 48.4286 55.7829 48.4708 55.7532C48.5131 55.7219 48.5444 55.6821 48.5648 55.6336C48.5851 55.5836 48.5953 55.5312 48.5953 55.4765V55.2959C48.5953 55.238 48.5844 55.1849 48.5624 55.1364C48.542 55.0864 48.51 55.0465 48.4662 55.0169C48.4239 54.9856 48.3691 54.9699 48.3018 54.9699C48.2392 54.9699 48.1859 54.9856 48.1421 55.0169C48.0983 55.0465 48.0654 55.0864 48.0435 55.1364C48.0232 55.1849 48.013 55.238 48.013 55.2959ZM49.1987 57.397V57.2164C49.1987 57.0883 49.2269 56.971 49.2833 56.8647C49.3412 56.7584 49.425 56.6732 49.5345 56.6091C49.6456 56.545 49.7819 56.5129 49.9431 56.5129C50.1059 56.5129 50.2421 56.545 50.3516 56.6091C50.4612 56.6732 50.5442 56.7584 50.6005 56.8647C50.6569 56.971 50.6851 57.0883 50.6851 57.2164V57.397C50.6851 57.5252 50.6569 57.6425 50.6005 57.7488C50.5458 57.8551 50.4636 57.9403 50.354 58.0044C50.2444 58.0685 50.109 58.1006 49.9478 58.1006C49.785 58.1006 49.648 58.0685 49.5369 58.0044C49.4257 57.9403 49.3412 57.8551 49.2833 57.7488C49.2269 57.6425 49.1987 57.5252 49.1987 57.397ZM49.6496 57.2164V57.397C49.6496 57.4533 49.6621 57.5064 49.6871 57.5565C49.7122 57.6065 49.7466 57.6464 49.7905 57.6761C49.8359 57.7058 49.8883 57.7207 49.9478 57.7207C50.0229 57.7207 50.0816 57.7058 50.1239 57.6761C50.1661 57.6464 50.1951 57.6065 50.2107 57.5565C50.228 57.5064 50.2366 57.4533 50.2366 57.397V57.2164C50.2366 57.1602 50.2256 57.1078 50.2037 57.0594C50.1818 57.0093 50.1489 56.9695 50.1051 56.9397C50.0628 56.9085 50.0088 56.8929 49.9431 56.8929C49.8773 56.8929 49.8226 56.9085 49.7787 56.9397C49.7364 56.9695 49.7044 57.0093 49.6825 57.0594C49.6606 57.1078 49.6496 57.1602 49.6496 57.2164ZM50.1098 55.1271L48.4403 57.7957L48.1116 57.6222L49.7811 54.9535L50.1098 55.1271Z" fill="#112244"/>
<path d="M39.3006 73.3258V73.7215H37.5466V73.3838L38.376 72.4957C38.4594 72.403 38.5251 72.3215 38.5733 72.2512C38.6214 72.1796 38.656 72.1158 38.6772 72.0594C38.6995 72.002 38.7106 71.9475 38.7106 71.8959C38.7106 71.8185 38.6977 71.7523 38.6719 71.6971C38.646 71.6409 38.6079 71.5975 38.5574 71.567C38.5081 71.5365 38.4471 71.5213 38.3742 71.5213C38.2968 71.5213 38.2298 71.54 38.1735 71.5776C38.1183 71.6151 38.076 71.6673 38.0467 71.7341C38.0185 71.8009 38.0045 71.8765 38.0045 71.961H37.4955C37.4955 71.8085 37.5319 71.669 37.6047 71.5424C37.6775 71.4146 37.7802 71.3131 37.9128 71.2381C38.0455 71.1619 38.2029 71.1238 38.3848 71.1238C38.5645 71.1238 38.7159 71.1531 38.8392 71.2117C38.9636 71.2692 39.0576 71.3524 39.1209 71.4615C39.1855 71.5693 39.2178 71.6983 39.2178 71.8484C39.2178 71.9328 39.2043 72.0155 39.1773 72.0964C39.1503 72.1762 39.1115 72.2559 39.061 72.3356C39.0117 72.4141 38.9519 72.4939 38.8814 72.5748C38.811 72.6557 38.7329 72.7395 38.6472 72.8262L38.2017 73.3258H39.3006ZM41.3433 72.216V72.6592C41.3433 72.8515 41.3228 73.0174 41.2817 73.1569C41.2406 73.2953 41.1813 73.409 41.1039 73.4981C41.0276 73.586 40.9366 73.6512 40.8309 73.6933C40.7253 73.7355 40.6078 73.7566 40.4787 73.7566C40.3754 73.7566 40.2791 73.7438 40.1899 73.718C40.1007 73.691 40.0202 73.6494 39.9486 73.5931C39.8782 73.5368 39.8171 73.4659 39.7655 73.3803C39.715 73.2935 39.6762 73.1904 39.6493 73.0707C39.6222 72.9511 39.6088 72.814 39.6088 72.6592V72.216C39.6088 72.0237 39.6293 71.8589 39.6704 71.7218C39.7127 71.5834 39.772 71.4703 39.8482 71.3823C39.9257 71.2944 40.0173 71.2299 40.1229 71.1889C40.2286 71.1466 40.346 71.1256 40.4752 71.1256C40.5785 71.1256 40.6741 71.139 40.7622 71.166C40.8514 71.1918 40.9319 71.2322 41.0035 71.2874C41.0751 71.3424 41.1362 71.4134 41.1867 71.5002C41.2371 71.5858 41.2758 71.6883 41.3028 71.808C41.3299 71.9264 41.3433 72.0624 41.3433 72.216ZM40.8344 72.726V72.1474C40.8344 72.0547 40.8292 71.9738 40.8185 71.9047C40.8092 71.8355 40.7945 71.7769 40.7746 71.7288C40.7546 71.6795 40.7299 71.6397 40.7006 71.6092C40.6712 71.5787 40.6377 71.5565 40.6002 71.5424C40.5626 71.5283 40.521 71.5213 40.4752 71.5213C40.4176 71.5213 40.3666 71.5324 40.322 71.5547C40.2785 71.577 40.2415 71.6127 40.211 71.6619C40.1805 71.71 40.157 71.7746 40.1406 71.8555C40.1253 71.9352 40.1177 72.0325 40.1177 72.1474V72.726C40.1177 72.8186 40.1224 72.9001 40.1318 72.9705C40.1424 73.0408 40.1576 73.1012 40.1775 73.1516C40.1987 73.2009 40.2234 73.2413 40.2515 73.273C40.2809 73.3035 40.3144 73.3258 40.3519 73.3398C40.3906 73.3539 40.4329 73.3609 40.4787 73.3609C40.535 73.3609 40.585 73.3498 40.6284 73.3275C40.673 73.3041 40.7106 73.2677 40.7411 73.2185C40.7728 73.1681 40.7963 73.1024 40.8115 73.0215C40.8268 72.9406 40.8344 72.8421 40.8344 72.726ZM43.4425 73.3258V73.7215H41.6885V73.3838L42.5179 72.4957C42.6013 72.403 42.667 72.3215 42.7152 72.2512C42.7633 72.1796 42.798 72.1158 42.8191 72.0594C42.8414 72.002 42.8526 71.9475 42.8526 71.8959C42.8526 71.8185 42.8397 71.7523 42.8138 71.6971C42.788 71.6409 42.7498 71.5975 42.6994 71.567C42.6501 71.5365 42.589 71.5213 42.5162 71.5213C42.4387 71.5213 42.3718 71.54 42.3154 71.5776C42.2603 71.6151 42.218 71.6673 42.1887 71.7341C42.1605 71.8009 42.1464 71.8765 42.1464 71.961H41.6374C41.6374 71.8085 41.6739 71.669 41.7466 71.5424C41.8194 71.4146 41.9221 71.3131 42.0548 71.2381C42.1875 71.1619 42.3448 71.1238 42.5267 71.1238C42.7064 71.1238 42.8578 71.1531 42.9811 71.2117C43.1056 71.2692 43.1995 71.3524 43.2629 71.4615C43.3275 71.5693 43.3597 71.6983 43.3597 71.8484C43.3597 71.9328 43.3462 72.0155 43.3192 72.0964C43.2922 72.1762 43.2535 72.2559 43.203 72.3356C43.1537 72.4141 43.0938 72.4939 43.0234 72.5748C42.9529 72.6557 42.8749 72.7395 42.7892 72.8262L42.3437 73.3258H43.4425ZM44.2367 72.5554L43.8317 72.4587L43.9779 71.1607H45.4184V71.5705H44.3952L44.3318 72.1386C44.3659 72.1187 44.4175 72.0975 44.4868 72.0753C44.556 72.0518 44.6336 72.0401 44.7192 72.0401C44.8437 72.0401 44.9541 72.0594 45.0503 72.0982C45.1466 72.1368 45.2282 72.1931 45.2951 72.267C45.3632 72.3409 45.4148 72.4312 45.4501 72.5378C45.4853 72.6445 45.5029 72.7653 45.5029 72.9001C45.5029 73.0139 45.4853 73.1223 45.4501 73.2255C45.4148 73.3275 45.3614 73.419 45.2899 73.4999C45.2182 73.5796 45.1284 73.6424 45.0204 73.6881C44.9124 73.7338 44.7844 73.7566 44.6365 73.7566C44.5262 73.7566 44.4193 73.7402 44.3159 73.7074C44.2139 73.6746 44.1217 73.6259 44.0395 73.5615C43.9585 73.497 43.8933 73.419 43.844 73.3275C43.7959 73.2349 43.7706 73.1293 43.7683 73.011H44.272C44.279 73.0836 44.2978 73.1464 44.3283 73.1992C44.36 73.2508 44.4017 73.2906 44.4533 73.3187C44.505 73.3469 44.5655 73.3609 44.6348 73.3609C44.6993 73.3609 44.7545 73.3486 44.8002 73.324C44.8461 73.2994 44.883 73.2654 44.9112 73.222C44.9393 73.1774 44.9599 73.1259 44.9728 73.0672C44.9869 73.0074 44.994 72.943 44.994 72.8738C44.994 72.8046 44.9857 72.7419 44.9693 72.6856C44.9529 72.6293 44.9276 72.5806 44.8936 72.5396C44.8595 72.4986 44.8161 72.4669 44.7633 72.4446C44.7116 72.4224 44.6512 72.4112 44.5819 72.4112C44.4879 72.4112 44.4152 72.4258 44.3635 72.4552C44.313 72.4845 44.2708 72.5179 44.2367 72.5554Z" fill="#112244"/>
</g>
</g>
<defs>
<linearGradient id="paint0_linear_13890_833" x1="40.7709" y1="7.633" x2="40.7709" y2="76.8951" gradientUnits="userSpaceOnUse">
<stop stop-color="#899FB6"/>
<stop offset="1" stop-color="#E6EFF7"/>
</linearGradient>
<linearGradient id="paint1_linear_13890_833" x1="12.171" y1="7.633" x2="12.171" y2="42.3016" gradientUnits="userSpaceOnUse">
<stop stop-color="#899FB6"/>
<stop offset="1" stop-color="#E6EFF7"/>
</linearGradient>
<linearGradient id="paint2_linear_13890_833" x1="12.4575" y1="42.3019" x2="12.4575" y2="76.8958" gradientUnits="userSpaceOnUse">
<stop stop-color="#899FB6"/>
<stop offset="1" stop-color="#E6EFF7"/>
</linearGradient>
<linearGradient id="paint3_linear_13890_833" x1="69.4465" y1="7.633" x2="69.4465" y2="42.3016" gradientUnits="userSpaceOnUse">
<stop stop-color="#899FB6"/>
<stop offset="1" stop-color="#E6EFF7"/>
</linearGradient>
<linearGradient id="paint4_linear_13890_833" x1="69.0411" y1="42.3019" x2="69.0411" y2="76.8958" gradientUnits="userSpaceOnUse">
<stop stop-color="#899FB6"/>
<stop offset="1" stop-color="#E6EFF7"/>
</linearGradient>
<linearGradient id="paint5_linear_13890_833" x1="28.5616" y1="7.633" x2="28.5616" y2="33.1447" gradientUnits="userSpaceOnUse">
<stop stop-color="#899FB6"/>
<stop offset="1" stop-color="#E6EFF7"/>
</linearGradient>
<linearGradient id="paint6_linear_13890_833" x1="53.1325" y1="7.633" x2="53.1325" y2="33.1447" gradientUnits="userSpaceOnUse">
<stop stop-color="#899FB6"/>
<stop offset="1" stop-color="#E6EFF7"/>
</linearGradient>
<linearGradient id="paint7_linear_13890_833" x1="28.7854" y1="52.6129" x2="28.7854" y2="76.8951" gradientUnits="userSpaceOnUse">
<stop stop-color="#899FB6"/>
<stop offset="1" stop-color="#E6EFF7"/>
</linearGradient>
<linearGradient id="paint8_linear_13890_833" x1="28.7866" y1="52.6136" x2="28.7866" y2="76.8957" gradientUnits="userSpaceOnUse">
<stop stop-color="#899FB6"/>
<stop offset="1" stop-color="#E6EFF7"/>
</linearGradient>
<linearGradient id="paint9_linear_13890_833" x1="40.6897" y1="16.6641" x2="40.6897" y2="67.9103" gradientUnits="userSpaceOnUse">
<stop stop-color="#02A9F9"/>
<stop offset="1" stop-color="#CFE0A9"/>
</linearGradient>
<linearGradient id="paint10_linear_13890_833" x1="40.77" y1="16.7128" x2="40.77" y2="67.8152" gradientUnits="userSpaceOnUse">
<stop stop-color="#899FB6"/>
<stop offset="1" stop-color="#E6EFF7"/>
</linearGradient>
<clipPath id="clip0_13890_833">
<rect width="80.396" height="70" fill="white" transform="translate(0.5 7)"/>
</clipPath>
</defs>
</svg>
