<svg width="81" height="84" viewBox="0 0 81 84" fill="none" xmlns="http://www.w3.org/2000/svg">
<mask id="mask0_13805_1691" style="mask-type:luminance" maskUnits="userSpaceOnUse" x="0" y="6" width="81" height="73">
<path d="M80.5 6.00018H0.5V78.0002H80.5V6.00018Z" fill="white"/>
</mask>
<g mask="url(#mask0_13805_1691)">
<path d="M40.6254 9.30298C48.2325 9.311 55.6016 11.9365 61.4774 16.7323C67.3535 21.5281 71.373 28.1976 72.8507 35.6048C74.3291 43.012 73.1746 50.6987 69.5841 57.3558C65.9935 64.0129 60.1891 69.2284 53.1592 72.1145C46.1295 75.0001 38.3093 75.3778 31.0305 73.1829C23.7519 70.988 17.4649 66.3562 13.2404 60.0762C9.01587 53.7965 7.11521 46.2573 7.8621 38.7426C8.60899 31.2281 11.9572 24.2028 17.3365 18.8636C20.3944 15.8284 24.0255 13.4216 28.0217 11.781C32.0179 10.1405 36.3009 9.29843 40.6254 9.30298ZM40.6254 7.83339C33.8348 7.83829 27.198 9.84135 21.554 13.5894C15.91 17.3375 11.5121 22.6623 8.91615 28.8908C6.32015 35.1193 5.64264 41.972 6.96921 48.5826C8.29582 55.1932 11.567 61.2651 16.3692 66.0305C21.1715 70.7964 27.2893 74.0419 33.9493 75.3573C40.6094 76.6727 47.5128 75.9981 53.7869 73.4199C60.0613 70.8418 65.4246 66.4747 69.1991 60.8715C72.9735 55.2682 74.9896 48.68 74.993 41.9394C74.9907 32.8924 71.3691 24.2166 64.9246 17.8194C58.4796 11.4222 49.7395 7.82732 40.6254 7.82513V7.83339Z" fill="white"/>
<path d="M40.5436 73.5025C46.8319 73.4991 52.978 71.6449 58.2052 68.175C63.4319 64.7046 67.5046 59.774 69.9091 54.0063C72.313 48.2386 72.9402 41.8928 71.7119 35.7713C70.483 29.6497 67.453 24.0272 63.0052 19.6147C58.558 15.2021 52.892 12.1977 46.7243 10.9811C40.5566 9.76461 34.164 10.3906 28.3548 12.78C22.5455 15.1695 17.5803 19.215 14.0871 24.4052C10.5939 29.5954 8.72937 35.6972 8.72937 41.9391C8.73598 50.311 12.0905 58.3379 18.0559 64.256C24.0213 70.1744 32.1095 73.5002 40.5436 73.5025Z" stroke="white" stroke-width="1.29782" stroke-miterlimit="10" stroke-dasharray="1.95 1.95"/>
<path d="M43.125 42.2369H39.2241L39.8895 40.8086L40.4635 39.5123H41.894L42.4596 40.8086L43.125 42.2369Z" fill="white"/>
<path d="M45.618 42.2361H36.7516C36.6315 42.2348 36.5124 42.2579 36.4017 42.3039C36.2909 42.35 36.1908 42.418 36.1075 42.5038C36.0242 42.5896 35.9594 42.6914 35.9171 42.8029C35.8748 42.9145 35.8559 43.0334 35.8616 43.1525V45.9596H46.458V43.1525C46.4718 42.9361 46.3992 42.723 46.2561 42.5592C46.1129 42.3955 45.9106 42.2942 45.6928 42.2773H45.618" fill="white"/>
<path d="M42.4583 40.8082C42.109 40.9816 41.768 41.155 41.3937 41.3036L41.1774 41.3531L40.9528 41.2541C40.5786 41.1054 40.2375 40.9321 39.8882 40.7587L40.4621 39.4377H41.8428L42.4583 40.8082Z" fill="white"/>
<path d="M43.6961 38.2402H38.6558V42.5747H43.6961V38.2402Z" fill="white"/>
<path d="M48.0368 25.9885H34.2631V26.649H48.0368V25.9885Z" fill="white"/>
<path d="M49.2704 24.7585H33.0264V27.871H49.2704V24.7585Z" fill="white"/>
<path d="M48.0941 27.2848V25.9886C48.229 25.9732 48.3539 25.9107 48.4468 25.8125C48.5397 25.7142 48.5945 25.5865 48.6015 25.4519C48.6085 25.3807 48.6003 25.3088 48.5775 25.2408C48.5547 25.1729 48.5179 25.1104 48.4693 25.0575C48.4207 25.0046 48.3614 24.9624 48.2954 24.9337C48.2293 24.9049 48.1579 24.8902 48.0858 24.8905H34.2622C34.1193 24.8946 33.9832 24.9522 33.8814 25.0517C33.7796 25.1513 33.7195 25.2854 33.7132 25.4272C33.7087 25.499 33.7189 25.571 33.743 25.6389C33.7671 25.7068 33.8047 25.7691 33.8536 25.8222C33.9025 25.8754 33.9616 25.9183 34.0275 25.9482C34.0934 25.9783 34.1647 25.9948 34.2372 25.9969V27.293H30.5609V29.1177C30.5767 31.2133 31.217 33.2575 32.4011 34.9926C33.5852 36.7278 35.2601 38.0762 37.2149 38.8681C37.71 39.0637 38.2187 39.2238 38.737 39.347C39.5035 39.9164 40.3426 40.3828 41.2322 40.7341C42.1213 40.3816 42.9602 39.9154 43.7275 39.347C44.2416 39.2187 44.7471 39.0588 45.2412 38.8681C47.1857 38.0682 48.849 36.7161 50.0224 34.9815C51.1957 33.2469 51.827 31.207 51.837 29.1177V27.2848H48.0941ZM34.3536 34.7153C33.0474 33.1363 32.3252 31.1608 32.3076 29.1177V29.0681H34.2705V30.6781C34.2694 32.5521 34.7626 34.3937 35.7011 36.0198C35.2048 35.6233 34.753 35.1749 34.3536 34.6823V34.7153ZM39.6436 30.9175V35.574H37.664V30.4552C37.7037 29.9603 37.9111 29.4933 38.2525 29.1304C38.5939 28.7676 39.049 28.5303 39.5437 28.4572H44.6257V30.3973H40.0095C39.9041 30.4291 39.8117 30.4935 39.7459 30.5812C39.68 30.6688 39.6441 30.7751 39.6436 30.8845V30.9175ZM44.8004 33.5925C44.783 34.0734 44.5976 34.5335 44.2759 34.8935C43.9541 35.2536 43.5161 35.4912 43.0371 35.5657H40.1842V33.5595H42.5796C42.64 33.5501 42.6953 33.5203 42.7362 33.4752C42.7771 33.4301 42.8011 33.3724 42.8042 33.3118V32.8494H40.1842V31.3055C40.1842 30.934 40.5751 30.9835 40.5751 30.9835H44.8004V33.5925ZM48.0276 34.6823C47.6462 35.1311 47.2229 35.543 46.7633 35.9124C47.6635 34.3246 48.1361 32.5331 48.1357 30.7111V29.0599H50.0237V29.1177H50.0736C50.0717 31.1536 49.3473 33.1238 48.0276 34.6823Z" fill="white"/>
<path opacity="0.5" d="M13.6189 51.3261L12.8537 47.0824L12.6791 42.7975L13.6189 51.3261Z" fill="white"/>
<path d="M50.2095 61.5477C50.2456 61.5072 50.2731 61.4602 50.2903 61.4092C50.3074 61.3582 50.3139 61.3041 50.3093 61.2505V61.0028C50.3094 60.8981 50.2742 60.7964 50.2095 60.7138C50.1775 60.6806 50.1386 60.6545 50.0956 60.6374C50.0525 60.6203 50.0063 60.6126 49.96 60.6148C49.915 60.6133 49.8702 60.6213 49.8286 60.6384C49.787 60.6555 49.7495 60.6812 49.7188 60.7138C49.6833 60.7528 49.6561 60.7985 49.639 60.8482C49.6219 60.8978 49.615 60.9504 49.619 61.0028V61.2505C49.6177 61.3579 49.6529 61.4624 49.7188 61.5477C49.7495 61.5803 49.787 61.6058 49.8286 61.623C49.8702 61.6402 49.915 61.6485 49.96 61.6468C50.0504 61.6357 50.1364 61.6019 50.2095 61.5477ZM49.4194 61.7626C49.3543 61.6989 49.3029 61.623 49.2686 61.5394C49.2343 61.4557 49.2176 61.3657 49.2197 61.2752V61.0275C49.219 60.9373 49.2363 60.8478 49.2706 60.7643C49.3049 60.6806 49.3554 60.6046 49.4194 60.5404C49.5688 60.4169 49.7571 60.3492 49.9516 60.3492C50.1461 60.3492 50.3345 60.4169 50.484 60.5404C50.5479 60.6046 50.5985 60.6806 50.6328 60.7643C50.667 60.8478 50.6843 60.9373 50.6836 61.0275V61.3165C50.6857 61.407 50.6691 61.4967 50.6348 61.5809C50.6004 61.6645 50.5491 61.7404 50.484 61.8035C50.3283 61.9127 50.1423 61.9714 49.9516 61.9714C49.761 61.9714 49.5751 61.9127 49.4194 61.8035V61.7626ZM47.7143 61.7626C47.6503 61.6989 47.6002 61.6224 47.5673 61.5388C47.5344 61.4546 47.5193 61.3651 47.523 61.2752V61.0275C47.5208 60.9378 47.5365 60.8485 47.5693 60.7649C47.6022 60.6813 47.6514 60.605 47.7143 60.5404C47.7843 60.4764 47.8672 60.4279 47.9575 60.398C48.0479 60.3681 48.1435 60.3576 48.2383 60.3671C48.3722 60.3662 48.505 60.3915 48.6292 60.4414C48.7228 60.4933 48.8071 60.5603 48.8787 60.6395C48.9258 60.7046 48.9519 60.7823 48.9536 60.8625V60.912C48.9536 60.912 48.9536 60.912 48.9037 60.912H48.5793C48.5793 60.912 48.5793 60.912 48.5793 60.8625C48.5524 60.7955 48.5096 60.736 48.4545 60.689C48.3959 60.6569 48.3301 60.6399 48.2632 60.6395C48.2169 60.6374 48.1707 60.6451 48.1276 60.6622C48.0846 60.6793 48.0458 60.7053 48.0137 60.7386C47.9444 60.8187 47.9087 60.9221 47.9139 61.0275V61.2257C47.9139 61.4735 48.0386 61.6219 48.2383 61.6219C48.3047 61.6186 48.3698 61.6014 48.4296 61.5726C48.4846 61.5255 48.5275 61.4663 48.5543 61.3992C48.5543 61.3992 48.5543 61.3992 48.5543 61.3496C48.5543 61.3 48.5543 61.3496 48.6043 61.3496H48.8621H48.912C48.912 61.3496 48.912 61.3496 48.912 61.3992C48.9103 61.479 48.8842 61.5571 48.8371 61.6219C48.7768 61.7105 48.6892 61.777 48.5876 61.8119C48.4667 61.8722 48.3314 61.8977 48.1967 61.8861C48.1076 61.9043 48.0154 61.9005 47.9283 61.8744C47.8411 61.8484 47.7619 61.8013 47.6976 61.7376L47.7143 61.7626ZM46.8243 61.8861C46.8206 61.8783 46.8187 61.87 46.8187 61.8617C46.8187 61.8528 46.8206 61.8445 46.8243 61.8368V61.5477V61.4735H47.1237C47.1237 61.4735 47.1238 61.4735 47.1736 61.4735C47.2235 61.4735 47.1736 61.4735 47.1736 61.5227V61.8119C47.1736 61.8119 47.1736 61.8119 47.1736 61.8617C47.1736 61.911 47.1736 61.8617 47.1237 61.8617H46.8243V61.8861ZM45.4436 61.8861C45.3634 61.8534 45.29 61.8058 45.2274 61.7459C45.2055 61.7271 45.1877 61.7044 45.1749 61.6789C45.162 61.6535 45.1544 61.6258 45.1525 61.597C45.1525 61.597 45.1525 61.597 45.1525 61.5477C45.1525 61.4984 45.1525 61.5477 45.2024 61.5477H45.4436C45.4436 61.5477 45.4436 61.5477 45.4935 61.5477L45.5684 61.597C45.6051 61.6313 45.6483 61.6573 45.6955 61.6745C45.7426 61.6917 45.7928 61.6989 45.8428 61.6961C45.9093 61.6928 45.9743 61.6756 46.0341 61.6468C46.0574 61.6357 46.0768 61.618 46.0901 61.5959C46.1034 61.5737 46.11 61.5488 46.109 61.5227C46.1204 61.4906 46.1204 61.4557 46.109 61.4236C46.0727 61.3954 46.0337 61.3705 45.9925 61.3496L45.7181 61.2752C45.5778 61.2589 45.4465 61.1981 45.3438 61.1019C45.2784 61.0347 45.2378 60.9476 45.2287 60.8546C45.2196 60.7616 45.2426 60.6683 45.2939 60.59C45.3518 60.5133 45.4294 60.4534 45.5185 60.4166C45.6281 60.367 45.7473 60.3417 45.8678 60.3423C45.9858 60.3403 46.1025 60.3658 46.2088 60.4166C46.2892 60.4574 46.3645 60.5073 46.4334 60.5652C46.4552 60.5838 46.473 60.6065 46.4859 60.632C46.4988 60.6575 46.5063 60.6853 46.5083 60.7138C46.5083 60.7138 46.5083 60.7138 46.5083 60.7634C46.5083 60.8129 46.5083 60.7634 46.4583 60.7634H46.2338H46.1839C46.1839 60.7634 46.1339 60.7634 46.109 60.7138L46.0175 60.6395C45.9765 60.63 45.9338 60.63 45.8928 60.6395C45.8303 60.6328 45.7676 60.6505 45.7181 60.689C45.6682 60.689 45.6681 60.7634 45.6681 60.8129C45.6568 60.8449 45.6568 60.8799 45.6681 60.912C45.7063 60.9421 45.7482 60.9671 45.7929 60.9863L46.0341 61.0523C46.3835 61.1266 46.5831 61.2752 46.5831 61.5227C46.5828 61.5892 46.5668 61.654 46.5365 61.7127C46.5061 61.7714 46.4623 61.8224 46.4084 61.8617C46.2579 61.9647 46.0741 62.0085 45.8928 61.9852C45.7395 61.9913 45.5866 61.9658 45.4436 61.911V61.8861ZM42.5824 61.8861C42.5824 61.8861 42.5824 61.8861 42.5824 61.8368V60.4414V60.3918C42.5824 60.3918 42.5824 60.3918 42.6323 60.3918H42.8569C42.8569 60.3918 42.8569 60.3918 42.8569 60.4414V60.5404C42.9095 60.4796 42.9745 60.4306 43.0476 60.3964C43.1208 60.3623 43.2003 60.3438 43.2811 60.3423C43.3773 60.3364 43.473 60.3591 43.556 60.4077C43.639 60.4562 43.7055 60.5284 43.7468 60.6148C43.8003 60.5368 43.868 60.4697 43.9465 60.4166C44.0288 60.3659 44.1241 60.3401 44.2209 60.3423C44.3073 60.3204 44.3981 60.3227 44.4833 60.3489C44.5685 60.3752 44.6446 60.4243 44.7034 60.4909C44.758 60.5542 44.7994 60.6277 44.8251 60.7071C44.8508 60.7865 44.8603 60.8701 44.8531 60.9532V61.7786C44.8531 61.7786 44.8531 61.7786 44.8531 61.8285C44.8531 61.8778 44.853 61.8285 44.8031 61.8285H44.5536H44.5037C44.5 61.8207 44.4981 61.8124 44.4981 61.8035C44.4981 61.7952 44.5 61.7864 44.5037 61.7786V60.9532C44.5048 60.8599 44.4788 60.7682 44.4289 60.689C44.4054 60.6599 44.3745 60.6376 44.3394 60.6246C44.3043 60.6115 44.2662 60.6081 44.2293 60.6148C44.1555 60.6127 44.0839 60.6394 44.0296 60.689C43.9997 60.7257 43.9776 60.7681 43.9648 60.8135C43.9519 60.8589 43.9485 60.9065 43.9548 60.9532V61.7786C43.9548 61.7786 43.9548 61.7786 43.9548 61.8285C43.9548 61.8778 43.9548 61.8285 43.9049 61.8285H43.6636C43.6535 61.8296 43.6432 61.829 43.6335 61.8257C43.6238 61.8224 43.6149 61.8168 43.6077 61.8096C43.6005 61.8024 43.595 61.7936 43.5917 61.7842C43.5884 61.7742 43.5874 61.7642 43.5888 61.7543V60.9285C43.5899 60.8351 43.5639 60.7434 43.514 60.6643C43.459 60.6155 43.388 60.5886 43.3143 60.5886C43.2407 60.5886 43.1696 60.6155 43.1147 60.6643C43.0848 60.7009 43.0627 60.7433 43.0498 60.7887C43.037 60.8341 43.0336 60.8817 43.0399 60.9285V61.7543C43.0399 61.7543 43.0399 61.7543 43.0399 61.8035H42.7903H42.7404L42.5824 61.8861ZM41.3431 61.8861C41.3394 61.8783 41.3375 61.87 41.3375 61.8617C41.3375 61.8528 41.3394 61.8445 41.3431 61.8368V60.4414V60.3918C41.3431 60.3918 41.3431 60.3918 41.393 60.3918H41.6425H41.6924C41.6924 60.3918 41.6924 60.3918 41.6924 60.4414V60.5652C41.7438 60.5051 41.8074 60.4563 41.8791 60.4221C41.9508 60.388 42.0289 60.3692 42.1083 60.3671H42.2331H42.283C42.283 60.3671 42.283 60.3671 42.283 60.4166V60.6395C42.283 60.6395 42.283 60.6395 42.283 60.689C42.283 60.7386 42.283 60.689 42.2331 60.689H42.0418C41.961 60.6907 41.8828 60.7166 41.8172 60.7634C41.7668 60.8235 41.7402 60.8998 41.7423 60.978V61.8035C41.7423 61.8035 41.7423 61.8035 41.7423 61.8534C41.7423 61.9027 41.7423 61.8534 41.6924 61.8534H41.3764L41.3431 61.8861ZM39.6796 61.8861C39.6796 61.8861 39.6796 61.8861 39.6796 61.8368V60.689H39.4301C39.4301 60.689 39.3552 60.689 39.3552 60.6395V60.4909C39.3552 60.4909 39.3552 60.4909 39.3552 60.4414C39.3552 60.3918 39.3552 60.4414 39.4051 60.4414H39.7129V60.3175C39.7111 60.1755 39.7613 60.0376 39.8543 59.9295C39.916 59.8784 39.9879 59.8409 40.0654 59.8195C40.1428 59.7981 40.224 59.7934 40.3034 59.8057H40.9189H40.9688C40.9688 59.8057 40.9688 59.8057 40.9688 59.8552V60.0286V60.0781C40.9688 60.0781 40.9688 60.0781 40.9189 60.0781H40.3284C40.2674 60.0831 40.2081 60.0999 40.1537 60.1276C40.1248 60.1783 40.1078 60.2347 40.1038 60.2928V60.3918H40.9355H40.9854C40.9854 60.3918 40.9854 60.3918 40.9854 60.4414V61.8368C40.9854 61.8368 40.9854 61.8368 40.9854 61.8861C40.9854 61.9359 40.9854 61.8861 40.9355 61.8861H40.686C40.6759 61.8877 40.6655 61.8866 40.6558 61.8833C40.6461 61.88 40.6373 61.8744 40.63 61.8672C40.6228 61.86 40.6173 61.8517 40.614 61.8418C40.6108 61.8323 40.6098 61.8218 40.6111 61.8119V60.7138H40.1204V61.8617C40.1204 61.8617 40.1204 61.8611 40.1204 61.911C40.1204 61.9603 40.1204 61.911 40.0705 61.911H39.7129C39.7129 61.911 39.663 61.911 39.663 61.8617L39.6796 61.8861ZM38.59 61.5227C38.6486 61.4435 38.6833 61.3488 38.6898 61.2505V61.0028C38.6913 60.9581 38.6832 60.9137 38.666 60.8724C38.6488 60.8311 38.6229 60.7939 38.59 60.7634C38.558 60.7301 38.5191 60.704 38.4761 60.687C38.433 60.6699 38.3868 60.6621 38.3405 60.6643C38.1492 60.6643 38.0244 60.7881 37.9995 61.0523V61.2257C37.9995 61.4735 38.1243 61.6219 38.3405 61.6219C38.3898 61.6313 38.4406 61.6269 38.4875 61.6091C38.5344 61.592 38.5756 61.5621 38.6066 61.5227H38.59ZM37.7583 61.7626C37.6374 61.6197 37.575 61.4369 37.5836 61.2505V61.0523C37.5823 60.8671 37.6439 60.6868 37.7583 60.5404C37.8816 60.4167 38.0487 60.3457 38.224 60.3423C38.3089 60.3408 38.3931 60.3578 38.4707 60.392C38.5483 60.4262 38.6174 60.4769 38.6732 60.5404V59.88V59.8304C38.6732 59.8304 38.6732 59.8304 38.7231 59.8304H38.9643H39.0142C39.0142 59.8304 39.0142 59.8304 39.0142 59.88V61.8368C39.0142 61.8368 39.0142 61.8368 39.0142 61.8861C39.0142 61.9359 39.0142 61.8861 38.9643 61.8861H38.7231C38.7129 61.8877 38.7026 61.8866 38.6929 61.8833C38.6832 61.88 38.6744 61.8744 38.6671 61.8672C38.6599 61.86 38.6544 61.8517 38.6511 61.8418C38.6479 61.8323 38.6469 61.8218 38.6483 61.8119V61.6961C38.5943 61.7598 38.5278 61.8113 38.4528 61.8484C38.3778 61.885 38.2959 61.906 38.2123 61.9099C38.1288 61.9138 38.0453 61.9005 37.9671 61.8706C37.889 61.8412 37.8179 61.7958 37.7583 61.7376V61.7626ZM36.8184 61.5477C36.8545 61.5072 36.882 61.4602 36.8992 61.4092C36.9163 61.3582 36.9228 61.3041 36.9182 61.2505V61.0028C36.9183 60.8981 36.8831 60.7964 36.8184 60.7138C36.7876 60.6812 36.7502 60.6555 36.7086 60.6384C36.667 60.6213 36.6222 60.6133 36.5772 60.6148C36.5309 60.6126 36.4846 60.6203 36.4416 60.6374C36.3986 60.6545 36.3597 60.6806 36.3276 60.7138C36.2922 60.7528 36.2651 60.7985 36.2479 60.8482C36.2308 60.8978 36.2239 60.9504 36.2279 61.0028V61.2257C36.2266 61.3331 36.2618 61.438 36.3276 61.5227C36.3597 61.556 36.3986 61.582 36.4416 61.5992C36.4846 61.6163 36.5309 61.6241 36.5772 61.6219C36.6193 61.6429 36.6679 61.6468 36.7128 61.633C36.7577 61.6191 36.7955 61.5887 36.8184 61.5477ZM35.9866 61.7626C35.9226 61.6989 35.8726 61.6224 35.8397 61.5388C35.8068 61.4546 35.7916 61.3651 35.7954 61.2752V61.0275C35.7931 60.9378 35.8089 60.8485 35.8417 60.7649C35.8745 60.6813 35.9238 60.605 35.9866 60.5404C36.0616 60.4762 36.1489 60.4277 36.2432 60.3979C36.3376 60.3681 36.437 60.3576 36.5356 60.3671C36.7308 60.3601 36.9221 60.4214 37.0763 60.5404C37.1402 60.6046 37.1908 60.6806 37.225 60.7643C37.2593 60.8478 37.2765 60.9373 37.2759 61.0275V61.3165C37.278 61.407 37.2613 61.4967 37.227 61.5809C37.1926 61.6645 37.1414 61.7404 37.0763 61.8035C36.9203 61.9237 36.7286 61.9885 36.5314 61.9885C36.3342 61.9885 36.1426 61.9237 35.9866 61.8035V61.7626ZM35.0218 61.5477C35.0579 61.5072 35.0854 61.4602 35.1026 61.4092C35.1198 61.3582 35.1262 61.3041 35.1216 61.2505V61.0028C35.1216 60.8981 35.0865 60.7964 35.0218 60.7138C34.9921 60.6798 34.9549 60.6531 34.913 60.6359C34.8711 60.6188 34.8258 60.6115 34.7806 60.6148C34.7343 60.6126 34.6881 60.6203 34.645 60.6374C34.602 60.6545 34.5631 60.6806 34.5311 60.7138C34.4956 60.7528 34.4685 60.7985 34.4514 60.8482C34.4342 60.8978 34.4274 60.9504 34.4313 61.0028V61.2257C34.43 61.3331 34.4652 61.438 34.5311 61.5227C34.5598 61.5604 34.5969 61.5909 34.6395 61.6119C34.682 61.633 34.7289 61.644 34.7765 61.644C34.824 61.644 34.8709 61.633 34.9135 61.6119C34.956 61.5909 34.9931 61.5604 35.0218 61.5227V61.5477ZM34.1901 61.7626C34.064 61.6313 33.9952 61.4563 33.9988 61.2752V61.0275C33.9986 60.8471 34.0669 60.6732 34.1901 60.5404C34.3395 60.4169 34.5279 60.3492 34.7224 60.3492C34.9169 60.3492 35.1053 60.4169 35.2547 60.5404C35.3186 60.6046 35.3692 60.6806 35.4035 60.7643C35.4377 60.8478 35.455 60.9373 35.4543 61.0275V61.3165C35.4564 61.407 35.4398 61.4967 35.4055 61.5809C35.3711 61.6645 35.3198 61.7404 35.2547 61.8035C35.1053 61.9271 34.9169 61.9946 34.7224 61.9946C34.5279 61.9946 34.3395 61.9271 34.1901 61.8035V61.7626ZM33.1587 61.4984C33.2131 61.4258 33.2475 61.3403 33.2585 61.2505V61.0523C33.261 61.0038 33.2534 60.9554 33.2362 60.91C33.219 60.8645 33.1926 60.8231 33.1587 60.7881C33.1282 60.7529 33.0896 60.7255 33.0461 60.7083C33.0027 60.691 32.9558 60.6844 32.9092 60.689C32.6846 60.689 32.5931 60.8129 32.5682 61.0771V61.1514C32.5682 61.4735 32.6846 61.6219 32.9092 61.6219C33.0046 61.6119 33.0933 61.5676 33.1587 61.4984ZM32.4933 62.4809C32.4025 62.4349 32.3251 62.3668 32.2688 62.2826C32.2187 62.2289 32.1919 62.1575 32.1939 62.0843C32.1939 62.0843 32.1939 62.0843 32.1939 62.0351C32.1939 61.9852 32.1939 62.0351 32.2438 62.0351H32.5682C32.5682 62.0351 32.5682 62.0351 32.5682 62.0843C32.5744 62.1098 32.5856 62.1342 32.6014 62.1552C32.617 62.1768 32.6369 62.1946 32.6596 62.2084C32.688 62.2289 32.7202 62.2444 32.7545 62.2527C32.7888 62.2616 32.8244 62.2632 32.8593 62.2577C32.935 62.2704 33.0129 62.2549 33.0775 62.2134C33.1422 62.1724 33.1889 62.1087 33.2086 62.0351V61.721C33.085 61.8373 32.9213 61.9021 32.7511 61.9021C32.581 61.9021 32.4173 61.8373 32.2937 61.721C32.1843 61.5687 32.1235 61.3876 32.119 61.2009V61.0523C32.1178 60.8671 32.1793 60.6868 32.2937 60.5404C32.4165 60.416 32.584 60.3448 32.7595 60.3423C32.853 60.3445 32.9456 60.3612 33.034 60.3918C33.1049 60.4353 33.1717 60.485 33.2336 60.5404V60.4166V60.3671C33.2336 60.3671 33.2336 60.3671 33.2835 60.3671H33.5247H33.5746C33.5746 60.3671 33.5746 60.3671 33.5746 60.4166V61.8119C33.5841 61.906 33.5735 62.0007 33.5434 62.0904C33.5133 62.1802 33.4644 62.2627 33.3999 62.3319C33.3264 62.3956 33.2403 62.4427 33.1472 62.4715C33.0541 62.4997 32.956 62.5086 32.8593 62.497C32.7072 62.5413 32.5456 62.5413 32.3935 62.497L32.4933 62.4809Z" fill="white"/>
<path d="M80.4692 48.363H71.5197V61.9858H80.4692L77.5831 55.5871L80.4692 48.363ZM0.621826 48.363H9.60469V61.9858H0.621826L3.50799 55.5871L0.621826 48.363Z" fill="white"/>
<path d="M76.058 43.6813L71.5169 48.3377V61.9603L76.058 57.4773V43.6813ZM5.12695 43.6813L9.69322 48.5276V61.9852L5.12695 57.4773V43.6813Z" fill="white"/>
<path d="M40.9769 11.9941L42.4324 14.9085L45.6929 15.3709L43.3474 17.6496L43.913 20.8612L41.0019 19.3421L38.0908 20.8612L38.6563 17.6496L36.2859 15.3709L39.5463 14.9085L40.9769 11.9941Z" fill="white"/>
<path d="M31.9704 17.6748L31.0805 15.9327L30.2154 17.6748L28.2609 17.972L29.6665 19.3425L29.3504 21.2579L31.0805 20.3498L32.8271 21.2579L32.511 19.3425L33.9167 17.972L31.9704 17.6748Z" fill="white"/>
<path d="M53.7212 17.972L51.7666 17.6748L50.8766 15.9327L50.0116 17.6748L48.0653 17.972L49.471 19.3425L49.1466 21.2579L50.8766 20.3498L52.6316 21.2579L52.3155 19.3425L53.7212 17.972Z" fill="white"/>
<path d="M27.1043 22.2569L26.5803 21.2083L26.0646 22.2569L24.8752 22.4302L25.7153 23.2393L25.524 24.4117L26.5803 23.8503L27.62 24.4117L27.4204 23.2393L28.2605 22.4302L27.1043 22.2569Z" fill="white"/>
<path d="M57.0966 22.4302L55.9157 22.2569L55.4001 21.2083L54.8761 22.2569L53.6949 22.4302L54.5599 23.2393L54.3603 24.4117L55.4001 23.8503L56.4316 24.4117L56.2316 23.2393L57.0966 22.4302Z" fill="white"/>
<path d="M32.8229 47.528C32.8229 47.2806 32.6568 47.1569 32.3826 47.1569H31.8674V47.9156H32.3078C32.6318 47.9156 32.8229 47.7672 32.8229 47.528Z" fill="white"/>
<path d="M43.6696 52.2843L43.2953 53.4814H44.0605L43.6862 52.2843H43.6696Z" fill="white"/>
<path d="M48.9295 49.1714C49.3658 49.1714 49.7196 48.7204 49.7196 48.1641C49.7196 47.6079 49.3658 47.1569 48.9295 47.1569C48.4931 47.1569 48.1393 47.6079 48.1393 48.1641C48.1393 48.7204 48.4931 49.1714 48.9295 49.1714Z" fill="white"/>
<path d="M36.7513 48.1059C36.7513 47.4702 36.4351 47.1482 35.9195 47.1482H35.4786V49.0884H35.9195C36.4601 49.1214 36.7513 48.7747 36.7513 48.1059Z" fill="white"/>
<path d="M68.822 43.5818C68.822 43.3506 68.872 43.1194 68.8886 42.8965C68.8298 43.1308 68.752 43.36 68.6559 43.5818H67.5581C67.9309 43.0431 68.1859 42.4328 68.3064 41.7902C68.5103 40.7659 68.5775 39.7194 68.5059 38.6776C68.5059 38.9253 68.132 40.8572 66.9509 41.2288C66.7314 41.2917 66.522 41.3833 66.327 41.5012C66.327 40.9315 66.277 40.3949 66.227 39.85C67.2086 39.9656 67.7075 38.7684 67.8325 37.4227C67.9036 36.4303 67.837 35.4329 67.6325 34.4587C67.6325 34.5991 67.5831 36.5641 66.4931 37.0759C66.2914 37.1784 66.1014 37.303 65.9275 37.4474C65.8531 36.853 65.7281 36.2916 65.6114 35.7054C66.5181 35.7054 66.8425 34.5083 66.7925 33.2286C66.7342 32.2792 66.5525 31.3412 66.252 30.438C66.252 30.5866 66.4431 32.469 65.512 33.08C65.3342 33.2068 65.1675 33.3476 65.0125 33.501C64.8214 32.8901 64.622 32.2461 64.3975 31.6104C65.287 31.5113 65.462 30.3389 65.2292 29.0923C65.0653 28.1777 64.7853 27.2872 64.3975 26.442C64.4692 26.7786 64.5053 27.1217 64.5053 27.4658C64.5481 27.7587 64.5281 28.0572 64.4464 28.3418C64.3647 28.6264 64.2231 28.8906 64.0314 29.117C63.8586 29.2642 63.7103 29.4369 63.5903 29.6289C63.2909 28.9436 62.9748 28.2584 62.6259 27.5731C63.4575 27.4245 63.4575 26.2439 63.1248 24.9972C62.8309 24.1112 62.4314 23.2631 61.9353 22.4708C62.0775 22.8035 62.1859 23.1491 62.2598 23.5029C62.3409 23.7772 62.3648 24.065 62.3303 24.3488C62.2959 24.6326 62.2042 24.9065 62.0603 25.1541C61.8853 25.3425 61.7575 25.5686 61.6859 25.8146C60.9453 24.5101 60.1303 23.1644 59.1903 21.8186C60.0264 23.1018 60.7792 24.4364 61.4448 25.8146C61.2414 25.7766 61.0325 25.7766 60.8292 25.8146C59.8642 26.0292 58.8414 24.9889 58.7747 24.9889C59.1986 25.5751 59.6648 26.1613 60.1553 26.731C60.8042 27.4658 61.5942 28.1263 62.2598 27.7052L62.3098 27.8291C62.6009 28.4648 62.8753 29.084 63.1414 29.7197C62.9425 29.695 62.7414 29.695 62.5425 29.7197C61.7242 29.6387 60.9714 29.2413 60.4464 28.6134C60.8209 29.2491 61.2781 29.8931 61.6775 30.504C62.3264 31.3297 63.0914 32.1553 63.9064 31.726C64.1225 32.3617 64.3225 33.0056 64.522 33.6662C64.287 33.5703 64.0359 33.5199 63.782 33.5176C62.9275 33.3336 62.1759 32.835 61.6775 32.1223C62.0042 32.8341 62.3675 33.5285 62.767 34.2028C63.3575 35.1853 64.0981 36.1595 65.0625 35.7714C65.2125 36.4072 65.337 37.0181 65.437 37.6621C65.1814 37.5116 64.8986 37.4108 64.6053 37.3649C63.7398 37.0347 63.0148 36.4198 62.5509 35.6228C62.7964 36.4091 63.0936 37.1785 63.4409 37.9263C63.9648 39.0327 64.6303 40.1802 65.7114 39.8913C65.7114 40.0151 65.7114 40.106 65.7114 40.2298C65.7614 40.7004 65.7614 41.1627 65.7864 41.6498C65.5348 41.4599 65.2542 41.3121 64.9548 41.2123C63.7403 40.6756 63.0748 39.0244 63.0498 39.0244C63.2248 39.85 63.4409 40.6756 63.6903 41.5012C63.8614 42.2558 64.1931 42.9652 64.6636 43.5818H63.5986C63.4175 43.235 63.267 42.8731 63.1497 42.5002C63.1497 42.5002 63.1498 42.946 63.2492 43.5818H18.3351C18.3892 43.1904 18.4198 42.7962 18.4266 42.4011C18.2881 42.8057 18.1214 43.2002 17.9276 43.5818H16.7631C17.3069 42.996 17.6856 42.2784 17.8611 41.5012C18.1106 40.6756 18.3351 39.85 18.5098 38.9748C18.5098 38.9748 17.8195 40.6261 16.5802 41.0802C16.282 41.1867 16.0016 41.3369 15.7484 41.526C15.7484 41.0306 15.7983 40.5682 15.8233 40.0977C15.8233 39.9821 15.8233 39.883 15.8233 39.7592C16.8879 40.0481 17.5783 38.9336 18.069 37.7942C18.4134 37.0539 18.7106 36.2928 18.959 35.5155C18.5043 36.3168 17.7799 36.9336 16.9129 37.2576C16.6228 37.304 16.3421 37.396 16.0811 37.53C16.1809 36.9108 16.2974 36.2751 16.4471 35.6641C17.387 36.0357 18.1106 35.078 18.7178 34.1203C19.1122 33.4474 19.4676 32.7527 19.7824 32.0397C19.2844 32.7377 18.5488 33.2334 17.7114 33.435C17.4649 33.4332 17.221 33.4838 16.996 33.5836C17.1874 32.9479 17.387 32.2791 17.6115 31.6434C18.4433 32.0644 19.1919 31.2554 19.8074 30.4215C20.247 29.8157 20.6497 29.1844 21.0134 28.5308C21.0134 28.5308 20.007 29.7115 18.9423 29.6372C18.7463 29.6125 18.5479 29.6125 18.3518 29.6372C18.618 29.0262 18.8924 28.3822 19.1835 27.7465L19.2334 27.6226C19.8989 28.0437 20.664 27.3832 21.3294 26.6484C21.8202 26.0787 22.2693 25.4926 22.6852 24.9064C22.6852 24.9064 21.6039 25.988 20.6391 25.7898C20.4471 25.7369 20.2468 25.7201 20.0485 25.7403C20.7288 24.3496 21.484 22.9964 22.3109 21.6865C21.4036 22.9705 20.5705 24.3047 19.8156 25.6825C19.741 25.4378 19.6133 25.2124 19.4414 25.022C19.301 24.7731 19.2118 24.4988 19.1789 24.2154C19.146 23.932 19.1703 23.6449 19.2501 23.3708C19.3209 23.0172 19.4268 22.6715 19.5661 22.3387C19.0728 23.1103 18.684 23.9431 18.41 24.8156C18.0856 26.1036 18.0856 27.2594 18.9174 27.408C18.5764 28.0932 18.252 28.7785 17.9775 29.4638C17.8591 29.2779 17.7196 29.1061 17.5616 28.9519C17.3774 28.7324 17.2404 28.4778 17.1588 28.2038C17.0773 27.9298 17.053 27.6421 17.0875 27.3585C17.1044 27.0013 17.1602 26.6469 17.2539 26.3017C16.8693 27.1483 16.5899 28.0383 16.4221 28.9519C16.2059 30.1986 16.3723 31.3792 17.2539 31.47C17.0376 32.114 16.838 32.725 16.6384 33.3607C16.4934 33.2026 16.3285 33.0639 16.1476 32.9479C15.1829 32.3287 15.3825 30.471 15.4074 30.2977C15.113 31.2028 14.9287 32.1396 14.8585 33.0882C14.8085 34.3927 15.1329 35.5651 16.0479 35.5651C15.9231 36.1513 15.8233 36.7209 15.7235 37.3071C15.5503 37.1685 15.3603 37.052 15.1579 36.9603C14.0683 36.4732 14.0184 34.4835 14.0434 34.3679C13.8314 35.3549 13.7558 36.3659 13.8188 37.3732C13.9352 38.7189 14.4343 39.9243 15.3991 39.8005C15.3492 40.3371 15.3243 40.8737 15.2993 41.4517C15.0913 41.3246 14.8676 41.2248 14.6339 41.1544C13.4445 40.7582 13.0951 38.8262 13.0951 38.5786C13.025 39.6117 13.0894 40.6495 13.2865 41.6664C13.4022 42.3626 13.6878 43.0202 14.1182 43.5818H12.9538C12.8345 43.3148 12.7372 43.0387 12.6626 42.7562C12.6626 43.0203 12.7043 43.2763 12.7458 43.5818H5.02722V57.4025H16.5053C16.8537 57.8531 17.2345 58.278 17.6448 58.674C18.9756 60.0032 20.7056 60.8123 21.4209 59.6564C21.6705 59.9536 21.9366 60.2426 22.2527 60.5398C21.9101 60.5604 21.5744 60.6445 21.2629 60.7875C19.8573 61.3737 17.8777 59.805 17.7114 59.6069C18.5239 60.6607 19.4911 61.5877 20.5809 62.3564C22.1861 63.4541 24.0659 64.0074 24.5816 62.7441C24.891 63.0155 25.222 63.2608 25.5714 63.479C25.2221 63.5571 24.8879 63.6912 24.5816 63.8756C23.3007 64.6349 20.9968 63.3799 20.7805 63.2398C21.8159 64.1387 22.9789 64.8814 24.2323 65.4441C26.087 66.2699 28.0583 66.4432 28.391 65.1965C28.7653 65.3942 29.1312 65.5676 29.5305 65.7576C29.1979 65.8894 28.889 66.0733 28.6155 66.3025C27.4261 67.2518 24.906 66.4183 24.6149 66.3025C25.8257 67.0453 27.1481 67.5919 28.5324 67.9209C30.5535 68.4077 32.6329 68.2344 32.6911 66.9633C35.057 67.6368 37.5192 67.9159 39.9772 67.7885V67.3427C37.5523 67.4618 35.1243 67.1832 32.7909 66.5174C33.6226 65.4441 32.2503 64.3873 30.9444 63.355L28.183 61.3159C28.183 61.3159 29.8465 62.9673 29.6635 64.404C29.6013 64.7285 29.6013 65.0614 29.6635 65.3859C29.2976 65.2126 28.9233 65.0392 28.5573 64.8415C29.5221 63.9166 28.4325 62.5873 27.3679 61.3407C26.3033 60.094 25.1222 58.8638 25.1222 58.8143C25.1222 58.7648 26.3615 60.7545 25.954 62.1166C25.8417 62.4317 25.7909 62.7651 25.8043 63.0991C25.4882 62.8515 25.1638 62.6289 24.8478 62.3647C25.929 61.6048 25.1389 60.0858 24.3487 58.6575C24.0909 58.2199 23.8413 57.7823 23.6001 57.386H58.0092C57.7431 57.8319 57.4353 58.3355 57.1359 58.8556C56.3459 60.2921 55.5142 61.8114 56.6536 62.5707C56.3292 62.8432 56.0133 63.0664 55.6889 63.3057C55.6942 62.9728 55.6349 62.6422 55.5142 62.3315C55.0984 60.9114 56.3459 58.9712 56.3459 58.9712C56.3459 58.9712 55.2148 60.2179 54.0753 61.4974C52.9358 62.7773 51.9044 64.065 52.8942 64.9982C52.5449 65.1965 52.154 65.3699 51.7796 65.5432C51.842 65.2187 51.842 64.8853 51.7796 64.5607C51.605 63.1157 53.2602 61.4481 53.2602 61.4481C53.2602 61.4481 51.9377 62.4799 50.5238 63.504C49.1098 64.5275 47.8039 65.6091 48.644 66.6908C46.2847 67.3549 43.8323 67.6334 41.3829 67.516L41.4577 67.9043C43.9323 68.0355 46.4116 67.7564 48.7937 67.0785C48.8935 68.3501 50.9646 68.5235 53.019 68.0283C54.4033 67.6755 55.7265 67.1189 56.9448 66.3768C56.6703 66.5008 54.1003 67.3349 52.9191 66.3768C52.6344 66.1729 52.3275 66.0012 52.0043 65.865C52.3702 65.6916 52.7695 65.5017 53.1354 65.3034C53.4349 66.5501 55.456 66.3768 57.2942 65.5515C58.5514 64.9777 59.7175 64.224 60.7542 63.314C60.5048 63.4873 58.2092 64.7424 56.9031 63.9825C56.5936 63.8058 56.2603 63.6723 55.9135 63.5865C56.2542 63.3633 56.5786 63.0991 56.9031 62.8515C57.4186 64.0733 59.2986 63.5616 60.9203 62.4555C62.0125 61.694 62.9925 60.7854 63.8314 59.7555C63.657 59.9289 61.6359 61.5223 60.247 60.9527C59.9242 60.8275 59.5853 60.7469 59.2403 60.7132C59.5314 60.416 59.7809 60.127 60.072 59.8298C60.7875 61.0022 62.5092 60.1683 63.8731 58.8473C64.3525 58.402 64.7948 57.9188 65.1959 57.4025H76.0086V43.5818H68.822ZM17.911 47.2062H17.0792V49.6335H16.4221V47.2062H15.5904V46.6943H17.9359L17.911 47.2062ZM19.4164 49.6831C19.1105 49.7012 18.8061 49.6278 18.5427 49.4723C18.2793 49.3169 18.069 49.0865 17.939 48.811C17.809 48.5354 17.7654 48.2276 17.8136 47.9271C17.862 47.6267 18 47.3477 18.21 47.126C18.4199 46.9044 18.692 46.7504 18.9911 46.6841C19.2902 46.6177 19.6025 46.642 19.8875 46.7538C20.1725 46.8656 20.4171 47.0599 20.5897 47.3113C20.7623 47.5627 20.8548 47.8597 20.8554 48.1639C20.8758 48.3606 20.8534 48.5595 20.7896 48.7468C20.7258 48.9342 20.6221 49.1058 20.4856 49.2499C20.3491 49.394 20.183 49.5073 19.9985 49.582C19.814 49.6568 19.6155 49.6912 19.4164 49.6831ZM22.8515 59.2932C22.68 59.5841 22.5723 59.9076 22.5355 60.2426C22.261 59.9536 21.9865 59.6564 21.7038 59.3675C22.4024 59.0042 22.5355 58.2694 22.3858 57.4025H23.0761C23.1822 58.0412 23.1044 58.6966 22.8515 59.2932ZM23.492 47.7346C23.4953 47.8625 23.4732 47.9899 23.4269 48.1094C23.3806 48.2288 23.3111 48.338 23.2223 48.4308C23.1334 48.5236 23.027 48.5981 22.9092 48.65C22.7914 48.702 22.6644 48.7304 22.5355 48.7336H21.8368V49.6665H21.2213V46.6943H22.4856C22.6124 46.6854 22.7398 46.702 22.8599 46.7433C22.98 46.7846 23.0905 46.8497 23.1846 46.9346C23.2787 47.0195 23.3545 47.1225 23.4073 47.2373C23.4601 47.3521 23.4889 47.4763 23.492 47.6025V47.7346ZM48.9268 46.6778C49.2329 46.658 49.538 46.7299 49.8025 46.8843C50.0669 47.0387 50.2785 47.2684 50.4098 47.5437C50.5411 47.8189 50.586 48.127 50.5387 48.4279C50.4914 48.7288 50.3541 49.0086 50.1446 49.2311C49.9351 49.4535 49.663 49.6084 49.3638 49.6755C49.0645 49.7426 48.7519 49.7188 48.4664 49.6074C48.1809 49.4959 47.9357 49.3018 47.7627 49.0503C47.5897 48.7988 47.4968 48.5015 47.4962 48.1969C47.4676 47.9978 47.4839 47.7949 47.5438 47.6028C47.6036 47.4106 47.7056 47.234 47.8424 47.0856C47.9791 46.9373 48.1473 46.8208 48.3348 46.7445C48.5223 46.6683 48.7245 46.6342 48.9268 46.6448V46.6778ZM45.4168 46.7273H46.0323V49.1546H47.3215V49.6665H45.4168V46.7273ZM43.0463 46.7273H45.0009V47.2392H43.6701V47.9492H44.9261V48.4198H43.6701V49.1546H45.0009V49.6665H43.038L43.0463 46.7273ZM34.8287 46.7273H35.9599C36.1474 46.7115 36.3363 46.736 36.5134 46.7993C36.6905 46.8627 36.8518 46.9632 36.9861 47.0942C37.1204 47.2251 37.2245 47.3834 37.2915 47.5581C37.3584 47.7327 37.3865 47.9197 37.3738 48.1061C37.3978 48.2991 37.3783 48.495 37.3167 48.6796C37.2551 48.8642 37.153 49.0329 37.0177 49.1735C36.8824 49.3141 36.7173 49.4231 36.5344 49.4927C36.3514 49.5623 36.1552 49.5906 35.9599 49.5757H34.8287V46.7273ZM31.2189 46.7273H32.5331C33.0986 46.7273 33.448 47.0163 33.448 47.4621C33.4446 47.6148 33.388 47.7615 33.288 47.8774C33.1879 47.9933 33.0505 48.0712 32.899 48.0978C33.0851 48.1022 33.2619 48.1792 33.3911 48.3121C33.5204 48.445 33.5916 48.6232 33.5894 48.8079C33.5894 49.3198 33.1985 49.6335 32.583 49.6335H31.2189V46.7273ZM27.6923 49.6665H27.1018L26.5279 47.6603L26.0122 49.6665H25.4216L24.6315 46.7273H25.2719L25.7377 48.8574L26.2866 46.7273H26.8023L27.343 48.8574L27.8171 46.7273H28.4575L27.6923 49.6665ZM28.8235 46.7273H30.7781V47.2392H29.4473V47.9492H30.7032V48.4198H29.4473V49.1546H30.7781V49.6665H28.8235V46.7273ZM31.718 54.1991C31.8835 54.211 32.0474 54.1594 32.1758 54.055C32.3043 53.9506 32.3875 53.8012 32.4083 53.6377H32.9989C32.9673 53.9512 32.8124 54.2397 32.568 54.4405C32.3235 54.6415 32.0091 54.7387 31.693 54.711C31.3055 54.6827 30.9432 54.5099 30.6788 54.2274C30.4143 53.9448 30.2673 53.5734 30.2673 53.1877C30.2673 52.8021 30.4143 52.4307 30.6788 52.1482C30.9432 51.8657 31.3055 51.6929 31.693 51.6645C32.0125 51.6459 32.3268 51.7507 32.5702 51.9569C32.8136 52.1631 32.9672 52.4547 32.9989 52.7708H32.4083C32.3895 52.6045 32.3078 52.4514 32.1796 52.3426C32.0514 52.2338 31.8864 52.1773 31.718 52.1847C31.2439 52.1847 30.9528 52.5727 30.9528 53.1919C30.9528 53.8111 31.2439 54.1661 31.718 54.1661V54.1991ZM34.7206 54.711C34.4122 54.7326 34.1044 54.6615 33.8374 54.5069C33.5703 54.3523 33.3564 54.1215 33.2234 53.8445C33.0904 53.5675 33.0445 53.2571 33.0918 52.9539C33.1391 52.6506 33.2773 52.3685 33.4884 52.1444C33.6995 51.9202 33.9737 51.7644 34.2753 51.6971C34.5769 51.6299 34.892 51.6544 35.1794 51.7675C35.4668 51.8805 35.7131 52.0769 35.8865 52.3309C36.0599 52.585 36.1521 52.8851 36.1511 53.1919C36.1715 53.3879 36.1493 53.586 36.086 53.7728C36.0226 53.9595 35.9198 54.1307 35.7841 54.2747C35.6486 54.4186 35.4835 54.532 35.3 54.6073C35.1166 54.6826 34.919 54.718 34.7206 54.711ZM39.1371 54.6615V52.647L38.3054 54.612H37.9145L37.0827 52.647V54.6367H36.5421V51.6893H37.2158L38.0475 53.7781L38.8793 51.6893H39.5946V54.6367L39.1371 54.6615ZM39.7609 47.231H38.4052V47.941H39.711V48.4116H38.4052V49.1464H39.711V49.6582H37.7897V46.6943H39.711L39.7609 47.231ZM40.7174 46.7191L41.3829 49.0225L42.0566 46.7191H42.722L41.7322 49.6582H40.9919L40.0021 46.7191H40.7174ZM41.4328 53.7285H40.7424V54.6615H40.1269V51.6893H41.3745C41.5018 51.6803 41.6295 51.697 41.7501 51.7382C41.8708 51.7794 41.9818 51.8443 42.0765 51.9291C42.1713 52.0139 42.2478 52.1168 42.3015 52.2316C42.3553 52.3465 42.3851 52.4709 42.3893 52.5975V52.6965C42.3926 52.8262 42.37 52.9553 42.3228 53.0763C42.2755 53.1973 42.2046 53.3078 42.1141 53.4015C42.0237 53.4951 41.9154 53.5701 41.7956 53.622C41.6758 53.6738 41.5468 53.7017 41.4161 53.7038L41.4328 53.7285ZM44.452 54.6862L44.2274 53.9763H43.1711L42.9465 54.6862H42.3061L43.3208 51.7388H44.0611L45.1008 54.6862H44.452ZM47.9287 54.6862H47.413L46.0323 52.7461V54.6615H45.4335V51.6893H45.9575L47.3381 53.6047V51.6893H47.9287V54.6862ZM49.8584 53.5799V54.6862H49.2345V53.5304L48.2031 51.6893H48.8603L49.5256 52.9442L50.191 51.6893H50.8564L49.8584 53.5799ZM53.019 47.7016C53.0234 47.9608 52.9245 48.2112 52.7438 48.3983C52.5631 48.5854 52.3152 48.6941 52.0541 48.7005H51.3555V49.6335H50.7317V46.6943H51.9959C52.1239 46.6842 52.2525 46.6999 52.3741 46.7406C52.4957 46.7813 52.6077 46.8461 52.7034 46.931C52.799 47.0159 52.8763 47.1192 52.9305 47.2346C52.9848 47.35 53.0149 47.4752 53.019 47.6025V47.7016ZM55.98 49.6335V47.6521L55.1483 49.6087H54.749L53.9173 47.6521V49.6335H53.3766V46.6943H54.0919L54.9237 48.7749L55.7554 46.6943H56.4709V49.6335H55.98ZM57.0114 49.6335V46.6943H58.9659V47.2062H57.6353V47.9162H58.8414V48.3868H57.6186V49.1216H58.9492V49.6335H57.0114ZM59.0159 60.4408C58.9709 60.1037 58.8609 59.7785 58.6914 59.4831C58.4236 58.823 58.3598 58.0987 58.5086 57.4025H59.1492C58.9659 58.3437 59.0409 59.1611 59.8059 59.5574C59.5398 59.8546 59.2736 60.1518 58.9992 60.4408H59.0159ZM61.927 49.6335H61.4114L60.0309 47.7263V49.6335H59.432V46.6943H59.9559L61.3364 48.6015V46.6943H61.927V49.6335ZM64.622 47.2062H63.7903V49.6335H63.1748V47.2062H62.3431V46.6943H64.6886L64.622 47.2062Z" fill="white"/>
<path d="M41.3018 52.1848H40.7778V53.2333H41.227C41.3586 53.229 41.4839 53.1765 41.5788 53.0859C41.6737 52.9952 41.7314 52.8729 41.7407 52.7425C41.75 52.6121 41.7103 52.4829 41.6292 52.3799C41.5482 52.2769 41.4316 52.2074 41.3018 52.1848Z" fill="white"/>
<path d="M32.9518 48.7498C32.9518 48.4856 32.7522 48.337 32.3862 48.337H31.8456V49.1627H32.4111C32.7522 49.1957 32.9518 49.0471 32.9518 48.7498Z" fill="white"/>
<path d="M19.4157 47.1569C18.95 47.1569 18.6339 47.578 18.6339 48.1641C18.6339 48.7503 18.95 49.1714 19.4157 49.1714C19.8815 49.1714 20.2059 48.7751 20.2059 48.1641C20.2059 47.5532 19.8899 47.1569 19.4157 47.1569Z" fill="white"/>
<path d="M34.7192 52.1599C34.2285 52.1599 33.9291 52.5479 33.9291 53.1671C33.9291 53.7863 34.2535 54.166 34.7192 54.166C35.185 54.166 35.551 53.778 35.551 53.1671C35.551 52.5561 35.1684 52.1599 34.7192 52.1599Z" fill="white"/>
<path d="M51.8875 47.1817H51.3552V48.2384H51.796C51.9372 48.2483 52.0766 48.2021 52.1834 48.11C52.2902 48.0178 52.3558 47.8874 52.3658 47.7472C52.3757 47.6071 52.3291 47.4688 52.2363 47.3627C52.1435 47.2566 52.0121 47.1916 51.8709 47.1817H51.8875Z" fill="white"/>
<path d="M22.387 47.1817H21.863V48.2384H22.3122C22.4534 48.2483 22.5927 48.2021 22.6995 48.11C22.8064 48.0178 22.872 47.8874 22.8819 47.7472C22.8919 47.6071 22.8453 47.4688 22.7525 47.3627C22.6597 47.2566 22.5282 47.1916 22.387 47.1817Z" fill="white"/>
</g>
</svg>
