<svg width="44" height="44" viewBox="0 0 44 44" fill="none" xmlns="http://www.w3.org/2000/svg">
<path d="M31.9998 16.5H24.9998V14.5H31.9998V16.5ZM33.7257 26.5C33.2837 27.797 31.6968 29.5 28.6248 29.5C25.5508 29.5 23.0609 27.771 23.0609 23.825C23.0609 19.915 25.3858 17.905 28.5268 17.905C31.6088 17.905 33.4907 19.687 33.9017 22.331C33.9797 22.837 34.0107 23.519 33.9967 24.471H25.9698C26.0998 27.682 29.4528 27.783 30.5578 26.5H33.7257ZM26.0398 22.5H31.0048C30.8998 20.953 29.8688 20.281 28.5278 20.281C27.0618 20.281 26.2508 21.049 26.0398 22.5ZM16.4659 29.488H10V14.521H16.9529C22.4289 14.602 22.5329 19.965 19.6729 21.427C23.1339 22.687 23.2499 29.488 16.4659 29.488ZM13 20.5H16.5839C19.0919 20.5 19.4899 17.5 16.2719 17.5H13V20.5ZM16.3909 23.5H13V26.516H16.3409C19.3959 26.516 19.2089 23.5 16.3909 23.5Z" fill="white"/>
</svg>
