<svg width="144" height="130" viewBox="0 0 144 130" fill="none" xmlns="http://www.w3.org/2000/svg">
<g clip-path="url(#clip0_4810_2609)">
<path d="M72.2253 5.96326C85.9182 5.97773 99.1826 10.7182 109.759 19.3773C120.336 28.0364 127.571 40.0786 130.231 53.4526C132.892 66.8267 130.814 80.7056 124.351 92.7253C117.888 104.745 107.44 114.162 94.7862 119.373C82.1327 124.583 68.0563 125.265 54.9546 121.302C41.853 117.339 30.5364 108.976 22.9323 97.6372C15.3282 86.2988 11.907 72.6863 13.2514 59.1182C14.5958 45.5502 20.6226 32.8657 30.3053 23.2254C35.8096 17.7452 42.3455 13.3996 49.5387 10.4375C56.7319 7.47547 64.4412 5.95503 72.2253 5.96326ZM72.2253 3.30983C60.0022 3.31867 48.0561 6.93531 37.8969 13.7026C27.7377 20.47 19.8214 30.0842 15.1487 41.3301C10.4759 52.576 9.25637 64.9489 11.6442 76.8848C14.0321 88.8206 19.9202 99.7838 28.5642 108.388C37.2083 116.993 48.2203 122.853 60.2084 125.228C72.1966 127.603 84.6227 126.385 95.9161 121.73C107.21 117.075 116.864 109.19 123.658 99.0731C130.452 88.9561 134.081 77.0606 134.087 64.8902C134.083 48.5553 127.564 32.8906 115.964 21.3401C104.363 9.78963 88.6308 3.29887 72.2253 3.29492V3.30983Z" fill="#112244"/>
<path d="M72.0782 121.879C83.3971 121.873 94.4601 118.525 103.869 112.26C113.277 105.994 120.608 97.0915 124.936 86.6776C129.263 76.2637 130.392 64.806 128.181 53.7532C125.969 42.7004 120.515 32.5487 112.509 24.5816C104.504 16.6145 94.3052 11.1898 83.2034 8.99327C72.1016 6.79675 60.5949 7.92706 50.1382 12.2413C39.6815 16.5555 30.7442 23.86 24.4564 33.2311C18.1686 42.6023 14.8125 53.6194 14.8125 64.8895C14.8244 80.0055 20.8625 94.4985 31.6002 105.184C42.3379 115.87 56.8968 121.875 72.0782 121.879" stroke="#112244" stroke-width="2" stroke-miterlimit="10" stroke-dasharray="3 3"/>
<path d="M76.7247 65.4271H69.7031L70.9008 62.8482L71.9339 60.5078H74.5089L75.527 62.8482L76.7247 65.4271Z" fill="#112244"/>
<path d="M81.2117 65.4259H65.2522C65.036 65.4236 64.8217 65.4653 64.6224 65.5484C64.423 65.6316 64.2428 65.7543 64.0929 65.9093C63.9429 66.0642 63.8262 66.248 63.7501 66.4494C63.674 66.6508 63.64 66.8656 63.6502 67.0805V72.1489H82.7238V67.0805C82.7486 66.6898 82.618 66.3051 82.3603 66.0094C82.1026 65.7138 81.7384 65.5309 81.3464 65.5004H81.2117" fill="#112244"/>
<path d="M75.5246 62.8476C74.8958 63.1606 74.282 63.4737 73.6083 63.742L73.219 63.8314L72.8148 63.6526C72.1411 63.3842 71.5272 63.0712 70.8984 62.7581L71.9315 60.373H74.4167L75.5246 62.8476Z" fill="#112244"/>
<path d="M77.7524 58.2109H68.6797V66.0371H77.7524V58.2109Z" fill="#112244"/>
<path d="M85.5661 36.0898H60.7734V37.2824H85.5661V36.0898Z" fill="#112244"/>
<path d="M87.7861 33.8691H58.5469V39.489H87.7861V33.8691Z" fill="#112244"/>
<path d="M85.6692 38.4304V36.09C85.9119 36.0622 86.1368 35.9495 86.304 35.7721C86.4712 35.5947 86.5699 35.3641 86.5824 35.1211C86.595 34.9924 86.5803 34.8626 86.5393 34.7399C86.4983 34.6172 86.4319 34.5045 86.3445 34.4089C86.257 34.3134 86.1503 34.2372 86.0314 34.1853C85.9125 34.1333 85.784 34.1068 85.6542 34.1074H60.7717C60.5145 34.1147 60.2696 34.2187 60.0863 34.3985C59.903 34.5782 59.7948 34.8204 59.7835 35.0764C59.7755 35.2061 59.7937 35.3361 59.8371 35.4586C59.8805 35.5812 59.9482 35.6938 60.0362 35.7897C60.1242 35.8857 60.2307 35.9631 60.3493 36.0172C60.4679 36.0714 60.5963 36.1012 60.7267 36.105V38.4453H54.1094V41.7398C54.1379 45.5236 55.2904 49.2145 57.4218 52.3473C59.5531 55.4802 62.568 57.9149 66.0865 59.3448C66.9778 59.6979 67.8934 59.9869 68.8263 60.2094C70.2061 61.2375 71.7164 62.0796 73.3177 62.7138C74.9181 62.0775 76.4281 61.2356 77.8092 60.2094C78.7346 59.9778 79.6446 59.689 80.534 59.3448C84.0341 57.9005 87.0279 55.4592 89.14 52.3273C91.2521 49.1954 92.3883 45.5122 92.4063 41.7398V38.4304H85.6692ZM60.9363 51.8466C58.585 48.9956 57.2852 45.4288 57.2534 41.7398V41.6503H60.7866V44.5572C60.7846 47.9408 61.6724 51.266 63.3617 54.2019C62.4684 53.4861 61.6552 52.6765 60.9363 51.787V51.8466ZM70.4582 44.9895V53.397H66.895V44.1547C66.9664 43.2611 67.3398 42.418 67.9543 41.7628C68.5687 41.1077 69.388 40.6792 70.2785 40.5472H79.4261V44.0503H71.1169C70.9272 44.1077 70.7608 44.224 70.6423 44.3822C70.5238 44.5405 70.4592 44.7324 70.4582 44.9298V44.9895ZM79.7405 49.8193C79.7092 50.6877 79.3754 51.5183 78.7963 52.1684C78.2171 52.8185 77.4288 53.2476 76.5665 53.3821H71.4313V49.7597H75.7431C75.8518 49.7427 75.9513 49.689 76.0249 49.6075C76.0986 49.5261 76.1418 49.4219 76.1473 49.3125V48.4777H71.4313V45.6901C71.4313 45.0193 72.135 45.1087 72.135 45.1087H79.7405V49.8193ZM85.5494 51.787C84.863 52.5973 84.101 53.341 83.2737 54.0081C84.894 51.1411 85.7448 47.9066 85.744 44.6168V41.6354H89.1425V41.7398H89.2323C89.2289 45.4158 87.9249 48.9731 85.5494 51.787Z" fill="#112244"/>
<path opacity="0.5" d="M23.6136 81.8383L22.2363 74.1761L21.9219 66.4395L23.6136 81.8383Z" fill="#112244"/>
<path d="M89.4769 100.294C89.542 100.221 89.5914 100.136 89.6223 100.044C89.6532 99.9519 89.6649 99.8543 89.6566 99.7574V99.3102C89.6567 99.1212 89.5934 98.9376 89.4769 98.7884C89.4193 98.7284 89.3493 98.6814 89.2719 98.6505C89.1944 98.6196 89.1112 98.6057 89.0278 98.6096C88.9468 98.6069 88.8662 98.6214 88.7913 98.6523C88.7164 98.6831 88.649 98.7296 88.5936 98.7884C88.5298 98.8588 88.4809 98.9413 88.4501 99.031C88.4192 99.1206 88.4069 99.2156 88.414 99.3102V99.7574C88.4117 99.9513 88.475 100.14 88.5936 100.294C88.649 100.353 88.7164 100.399 88.7913 100.43C88.8662 100.461 88.9468 100.476 89.0278 100.473C89.1906 100.453 89.3454 100.392 89.4769 100.294ZM88.0547 100.682C87.9375 100.567 87.8451 100.43 87.7833 100.279C87.7215 100.128 87.6916 99.9654 87.6953 99.8021V99.3549C87.6941 99.192 87.7252 99.0304 87.7869 98.8795C87.8486 98.7285 87.9396 98.5912 88.0547 98.4754C88.3237 98.2523 88.6627 98.1301 89.0128 98.1301C89.3629 98.1301 89.702 98.2523 89.971 98.4754C90.0861 98.5912 90.1771 98.7285 90.2388 98.8795C90.3004 99.0304 90.3315 99.192 90.3303 99.3549V99.8766C90.3341 100.04 90.3042 100.202 90.2424 100.354C90.1805 100.505 90.0882 100.642 89.971 100.756C89.6907 100.953 89.356 101.059 89.0128 101.059C88.6697 101.059 88.335 100.953 88.0547 100.756V100.682ZM84.9855 100.682C84.8703 100.567 84.7802 100.429 84.721 100.278C84.6617 100.126 84.6345 99.9644 84.6412 99.8021V99.3549C84.6372 99.1929 84.6655 99.0317 84.7246 98.8807C84.7838 98.7297 84.8724 98.5919 84.9855 98.4754C85.1116 98.3598 85.2608 98.2722 85.4234 98.2182C85.586 98.1642 85.7582 98.1452 85.9287 98.1624C86.1698 98.1608 86.4089 98.2064 86.6324 98.2965C86.8009 98.3903 86.9526 98.5112 87.0815 98.6543C87.1663 98.7718 87.2132 98.9121 87.2163 99.0568V99.1462C87.2163 99.1462 87.2163 99.1462 87.1264 99.1462H86.5425C86.5425 99.1462 86.5425 99.1462 86.5425 99.0568C86.4942 98.9359 86.4171 98.8285 86.318 98.7437C86.2125 98.6856 86.0941 98.6549 85.9736 98.6543C85.8903 98.6504 85.8071 98.6644 85.7296 98.6952C85.6521 98.7261 85.5822 98.7731 85.5245 98.8332C85.3998 98.9778 85.3355 99.1645 85.3448 99.3549V99.7127C85.3448 100.16 85.5694 100.428 85.9287 100.428C86.0483 100.422 86.1654 100.391 86.2731 100.339C86.3722 100.254 86.4493 100.147 86.4976 100.026C86.4976 100.026 86.4976 100.026 86.4976 99.9363C86.4976 99.8468 86.4976 99.9363 86.5875 99.9363H87.0516H87.1414C87.1414 99.9363 87.1414 99.9363 87.1414 100.026C87.1384 100.17 87.0914 100.311 87.0067 100.428C86.898 100.588 86.7404 100.708 86.5575 100.771C86.3399 100.88 86.0964 100.926 85.8539 100.905C85.6935 100.938 85.5275 100.931 85.3707 100.884C85.2139 100.837 85.0713 100.752 84.9556 100.637L84.9855 100.682ZM83.3836 100.905C83.3769 100.891 83.3735 100.876 83.3735 100.861C83.3735 100.845 83.3769 100.83 83.3836 100.816V100.294V100.16H83.9225C83.9225 100.16 83.9226 100.16 84.0124 100.16C84.1022 100.16 84.0124 100.16 84.0124 100.249V100.771C84.0124 100.771 84.0124 100.771 84.0124 100.861C84.0124 100.95 84.0124 100.861 83.9225 100.861H83.3836V100.905ZM80.8983 100.905C80.7539 100.846 80.6219 100.76 80.5091 100.652C80.4698 100.618 80.4377 100.577 80.4146 100.531C80.3914 100.485 80.3777 100.435 80.3743 100.383C80.3743 100.383 80.3743 100.383 80.3743 100.294C80.3743 100.205 80.3743 100.294 80.4641 100.294H80.8983C80.8983 100.294 80.8983 100.294 80.9881 100.294L81.1229 100.383C81.189 100.445 81.2668 100.492 81.3517 100.523C81.4366 100.554 81.5268 100.567 81.6169 100.562C81.7366 100.556 81.8536 100.525 81.9613 100.473C82.0031 100.453 82.0381 100.421 82.0621 100.381C82.086 100.341 82.0978 100.296 82.096 100.249C82.1166 100.191 82.1166 100.128 82.096 100.07C82.0307 100.019 81.9605 99.9741 81.8864 99.9363L81.3924 99.8021C81.1399 99.7726 80.9036 99.6628 80.7187 99.4891C80.6009 99.3679 80.5279 99.2105 80.5115 99.0426C80.4952 98.8747 80.5366 98.7063 80.6288 98.5648C80.7331 98.4264 80.8727 98.3183 81.0331 98.2518C81.2304 98.1623 81.445 98.1165 81.6619 98.1176C81.8742 98.1141 82.0844 98.1601 82.2757 98.2518C82.4204 98.3255 82.556 98.4155 82.6799 98.5201C82.7192 98.5537 82.7513 98.5947 82.7744 98.6408C82.7976 98.6868 82.8112 98.737 82.8147 98.7884C82.8147 98.7884 82.8147 98.7884 82.8147 98.8779C82.8147 98.9673 82.8147 98.8779 82.7248 98.8779H82.3206H82.2308C82.2308 98.8779 82.1409 98.8779 82.096 98.7884L81.9314 98.6543C81.8575 98.6371 81.7806 98.6371 81.7068 98.6543C81.5943 98.6422 81.4815 98.6742 81.3924 98.7437C81.3026 98.7437 81.3025 98.8779 81.3025 98.9673C81.282 99.0252 81.282 99.0883 81.3025 99.1462C81.3711 99.2007 81.4466 99.2458 81.5271 99.2804L81.9613 99.3996C82.5901 99.5338 82.9494 99.8021 82.9494 100.249C82.9488 100.369 82.9201 100.486 82.8655 100.592C82.8108 100.698 82.7319 100.79 82.635 100.861C82.364 101.047 82.0333 101.126 81.7068 101.084C81.4309 101.095 81.1558 101.049 80.8983 100.95V100.905ZM75.7482 100.905C75.7482 100.905 75.7482 100.905 75.7482 100.816V98.2965V98.2071C75.7482 98.2071 75.7481 98.2071 75.838 98.2071H76.2422C76.2422 98.2071 76.2422 98.2071 76.2422 98.2965V98.4754C76.337 98.3656 76.454 98.277 76.5856 98.2153C76.7172 98.1537 76.8604 98.1204 77.0058 98.1176C77.1789 98.1069 77.3512 98.148 77.5007 98.2357C77.6501 98.3233 77.7697 98.4536 77.8441 98.6096C77.9403 98.4689 78.0622 98.3476 78.2035 98.2518C78.3516 98.1603 78.5232 98.1137 78.6975 98.1176C78.853 98.0781 79.0165 98.0822 79.1698 98.1296C79.3231 98.177 79.4602 98.2657 79.5659 98.386C79.6642 98.5003 79.7387 98.633 79.785 98.7763C79.8313 98.9197 79.8484 99.0707 79.8354 99.2207V100.711C79.8354 100.711 79.8354 100.711 79.8354 100.801C79.8354 100.89 79.8353 100.801 79.7455 100.801H79.2964H79.2065C79.1999 100.787 79.1964 100.772 79.1964 100.756C79.1964 100.741 79.1999 100.725 79.2065 100.711V99.2207C79.2085 99.0522 79.1617 98.8866 79.0718 98.7437C79.0296 98.6911 78.974 98.6509 78.9107 98.6273C78.8475 98.6037 78.779 98.5976 78.7125 98.6096C78.5797 98.6059 78.4508 98.654 78.3532 98.7437C78.2993 98.8099 78.2596 98.8864 78.2364 98.9684C78.2132 99.0504 78.2071 99.1363 78.2184 99.2207V100.711C78.2184 100.711 78.2184 100.711 78.2184 100.801C78.2184 100.89 78.2184 100.801 78.1286 100.801H77.6944C77.6762 100.803 77.6576 100.802 77.6401 100.796C77.6226 100.79 77.6067 100.78 77.5937 100.767C77.5807 100.754 77.5708 100.738 77.5649 100.721C77.559 100.703 77.5572 100.685 77.5597 100.667V99.176C77.5616 99.0074 77.5149 98.8419 77.425 98.699C77.3261 98.611 77.1982 98.5624 77.0656 98.5624C76.9331 98.5624 76.8051 98.611 76.7063 98.699C76.6524 98.7652 76.6127 98.8417 76.5895 98.9237C76.5664 99.0057 76.5603 99.0916 76.5716 99.176V100.667C76.5716 100.667 76.5716 100.667 76.5716 100.756C76.5716 100.846 76.5716 100.756 76.5716 100.756H76.1224H76.0326L75.7482 100.905ZM73.5174 100.905C73.5107 100.891 73.5073 100.876 73.5073 100.861C73.5073 100.845 73.5107 100.83 73.5174 100.816V98.2965V98.2071C73.5174 98.2071 73.5174 98.2071 73.6072 98.2071H74.0564H74.1462C74.1462 98.2071 74.1462 98.2071 74.1462 98.2965V98.5201C74.2387 98.4115 74.3532 98.3234 74.4822 98.2618C74.6112 98.2002 74.7518 98.1663 74.8948 98.1624H75.1194H75.2092C75.2092 98.1624 75.2092 98.1624 75.2092 98.2518V98.6543C75.2092 98.6543 75.2092 98.6543 75.2092 98.7437C75.2092 98.8332 75.2092 98.7437 75.1194 98.7437H74.775C74.6297 98.7467 74.4888 98.7935 74.3708 98.8779C74.2801 98.9865 74.2322 99.1243 74.236 99.2655V100.756C74.236 100.756 74.236 100.756 74.236 100.846C74.236 100.935 74.236 100.846 74.1462 100.846H73.5773L73.5174 100.905ZM70.5231 100.905C70.5231 100.905 70.5231 100.905 70.5231 100.816V98.7437H70.074C70.074 98.7437 69.9392 98.7437 69.9392 98.6543V98.386C69.9392 98.386 69.9392 98.386 69.9392 98.2965C69.9392 98.2071 69.9392 98.2965 70.0291 98.2965H70.583V98.0729C70.5798 97.8164 70.6702 97.5674 70.8375 97.3723C70.9486 97.28 71.0781 97.2123 71.2175 97.1737C71.3569 97.1351 71.503 97.1266 71.646 97.1487H72.7539H72.8437C72.8437 97.1487 72.8437 97.1487 72.8437 97.2381V97.5512V97.6406C72.8437 97.6406 72.8437 97.6406 72.7539 97.6406H71.6909C71.5812 97.6496 71.4744 97.68 71.3765 97.73C71.3245 97.8215 71.2938 97.9234 71.2867 98.0282V98.2071H72.7838H72.8736C72.8736 98.2071 72.8736 98.2071 72.8736 98.2965V100.816C72.8736 100.816 72.8736 100.816 72.8736 100.905C72.8736 100.995 72.8736 100.905 72.7838 100.905H72.3347C72.3164 100.908 72.2978 100.906 72.2803 100.9C72.2628 100.894 72.247 100.884 72.2339 100.871C72.2209 100.858 72.211 100.843 72.2051 100.825C72.1992 100.808 72.1975 100.789 72.1999 100.771V98.7884H71.3166V100.861C71.3166 100.861 71.3166 100.86 71.3166 100.95C71.3166 101.039 71.3166 100.95 71.2268 100.95H70.583C70.583 100.95 70.4932 100.95 70.4932 100.861L70.5231 100.905ZM68.5619 100.249C68.6674 100.106 68.7297 99.935 68.7415 99.7574V99.3102C68.7442 99.2295 68.7296 99.1493 68.6986 99.0747C68.6676 99.0002 68.621 98.933 68.5619 98.8779C68.5042 98.8178 68.4343 98.7708 68.3568 98.74C68.2793 98.7091 68.1961 98.6951 68.1127 98.699C67.7684 98.699 67.5438 98.9226 67.4989 99.3996V99.7127C67.4989 100.16 67.7235 100.428 68.1127 100.428C68.2014 100.445 68.2929 100.437 68.3773 100.405C68.4618 100.374 68.536 100.32 68.5918 100.249H68.5619ZM67.0647 100.682C66.8471 100.424 66.7349 100.094 66.7503 99.7574V99.3996C66.748 99.0652 66.8588 98.7396 67.0647 98.4754C67.2868 98.252 67.5875 98.1237 67.9031 98.1176C68.0559 98.115 68.2075 98.1456 68.3471 98.2074C68.4868 98.2692 68.6112 98.3607 68.7116 98.4754V97.2829V97.1934C68.7116 97.1934 68.7116 97.1934 68.8014 97.1934H69.2356H69.3254C69.3254 97.1934 69.3254 97.1934 69.3254 97.2829V100.816C69.3254 100.816 69.3254 100.816 69.3254 100.905C69.3254 100.995 69.3254 100.905 69.2356 100.905H68.8014C68.7831 100.908 68.7645 100.906 68.7471 100.9C68.7296 100.894 68.7137 100.884 68.7007 100.871C68.6876 100.858 68.6778 100.843 68.6719 100.825C68.666 100.808 68.6642 100.789 68.6667 100.771V100.562C68.5696 100.677 68.4498 100.77 68.3148 100.837C68.1798 100.903 68.0325 100.941 67.882 100.948C67.7316 100.955 67.5814 100.931 67.4407 100.877C67.3001 100.824 67.1721 100.742 67.0647 100.637V100.682ZM65.373 100.294C65.438 100.221 65.4874 100.136 65.5183 100.044C65.5492 99.9519 65.5609 99.8543 65.5526 99.7574V99.3102C65.5527 99.1212 65.4894 98.9376 65.373 98.7884C65.3176 98.7296 65.2502 98.6831 65.1753 98.6523C65.1004 98.6214 65.0198 98.6069 64.9388 98.6096C64.8554 98.6057 64.7722 98.6196 64.6947 98.6505C64.6173 98.6814 64.5473 98.7284 64.4896 98.7884C64.4258 98.8588 64.377 98.9413 64.3461 99.031C64.3152 99.1206 64.3029 99.2156 64.31 99.3102V99.7127C64.3077 99.9065 64.371 100.096 64.4896 100.249C64.5473 100.309 64.6173 100.356 64.6947 100.387C64.7722 100.418 64.8554 100.432 64.9388 100.428C65.0146 100.466 65.102 100.473 65.1828 100.448C65.2637 100.423 65.3318 100.368 65.373 100.294ZM63.8758 100.682C63.7606 100.567 63.6705 100.429 63.6113 100.278C63.552 100.126 63.5248 99.9644 63.5315 99.8021V99.3549C63.5274 99.1929 63.5558 99.0317 63.6149 98.8807C63.674 98.7297 63.7627 98.5919 63.8758 98.4754C64.0107 98.3594 64.1678 98.2718 64.3376 98.218C64.5075 98.1642 64.6865 98.1453 64.8639 98.1624C65.2152 98.1497 65.5596 98.2605 65.8371 98.4754C65.9522 98.5912 66.0432 98.7285 66.1048 98.8795C66.1665 99.0304 66.1976 99.192 66.1964 99.3549V99.8766C66.2002 100.04 66.1702 100.202 66.1084 100.354C66.0466 100.505 65.9543 100.642 65.8371 100.756C65.5564 100.973 65.2114 101.09 64.8564 101.09C64.5014 101.09 64.1565 100.973 63.8758 100.756V100.682ZM62.1391 100.294C62.2041 100.221 62.2536 100.136 62.2845 100.044C62.3154 99.9519 62.327 99.8543 62.3188 99.7574V99.3102C62.3188 99.1212 62.2556 98.9376 62.1391 98.7884C62.0857 98.727 62.0187 98.6789 61.9433 98.6478C61.8679 98.6168 61.7863 98.6037 61.705 98.6096C61.6216 98.6057 61.5384 98.6196 61.4609 98.6505C61.3834 98.6814 61.3135 98.7284 61.2558 98.7884C61.192 98.8588 61.1431 98.9413 61.1123 99.031C61.0814 99.1206 61.0691 99.2156 61.0762 99.3102V99.7127C61.0739 99.9065 61.1372 100.096 61.2558 100.249C61.3075 100.317 61.3742 100.372 61.4509 100.41C61.5275 100.448 61.6119 100.468 61.6975 100.468C61.783 100.468 61.8675 100.448 61.9441 100.41C62.0207 100.372 62.0875 100.317 62.1391 100.249V100.294ZM60.642 100.682C60.415 100.445 60.2912 100.129 60.2976 99.8021V99.3549C60.2974 99.0291 60.4203 98.7151 60.642 98.4754C60.911 98.2523 61.25 98.1301 61.6002 98.1301C61.9503 98.1301 62.2893 98.2523 62.5583 98.4754C62.6734 98.5912 62.7644 98.7285 62.8261 98.8795C62.8877 99.0304 62.9189 99.192 62.9176 99.3549V99.8766C62.9214 100.04 62.8915 100.202 62.8297 100.354C62.7679 100.505 62.6755 100.642 62.5583 100.756C62.2893 100.979 61.9503 101.101 61.6002 101.101C61.25 101.101 60.911 100.979 60.642 100.756V100.682ZM58.7855 100.205C58.8834 100.074 58.9454 99.9195 58.9652 99.7574V99.3996C58.9696 99.3121 58.9559 99.2246 58.925 99.1426C58.8941 99.0605 58.8466 98.9857 58.7855 98.9226C58.7306 98.859 58.6611 98.8096 58.5829 98.7785C58.5047 98.7473 58.4202 98.7354 58.3364 98.7437C57.9322 98.7437 57.7675 98.9673 57.7226 99.4443V99.5785C57.7226 100.16 57.9322 100.428 58.3364 100.428C58.5082 100.41 58.6677 100.33 58.7855 100.205ZM57.5878 101.979C57.4243 101.896 57.2851 101.773 57.1836 101.621C57.0935 101.524 57.0452 101.395 57.0488 101.263C57.0488 101.263 57.0488 101.263 57.0488 101.174C57.0488 101.084 57.0488 101.174 57.1387 101.174H57.7226C57.7226 101.174 57.7226 101.174 57.7226 101.263C57.7337 101.309 57.754 101.353 57.7823 101.391C57.8105 101.43 57.8462 101.462 57.8872 101.487C57.9382 101.524 57.9962 101.552 58.0579 101.567C58.1196 101.583 58.1837 101.586 58.2466 101.576C58.3829 101.599 58.5231 101.571 58.6394 101.496C58.7558 101.422 58.8399 101.307 58.8754 101.174V100.607C58.6529 100.817 58.3582 100.934 58.0519 100.934C57.7456 100.934 57.4509 100.817 57.2285 100.607C57.0316 100.332 56.9221 100.005 56.9141 99.6679V99.3996C56.9118 99.0652 57.0225 98.7396 57.2285 98.4754C57.4496 98.2507 57.751 98.1221 58.0669 98.1176C58.2353 98.1216 58.402 98.1518 58.561 98.2071C58.6886 98.2855 58.8089 98.3753 58.9203 98.4754V98.2518V98.1624C58.9203 98.1624 58.9203 98.1624 59.0101 98.1624H59.4443H59.5341C59.5341 98.1624 59.5341 98.1624 59.5341 98.2518V100.771C59.5513 100.941 59.5322 101.112 59.478 101.274C59.4238 101.436 59.3358 101.585 59.2197 101.71C59.0873 101.825 58.9324 101.91 58.7648 101.962C58.5972 102.013 58.4207 102.029 58.2466 102.008C57.9728 102.088 57.6819 102.088 57.4082 102.008L57.5878 101.979Z" fill="#112244"/>
<path d="M143.944 76.4883H127.835V101.085H143.944L138.749 89.5318L143.944 76.4883ZM0.21875 76.4883H16.3879V101.085H0.21875L5.41384 89.5318L0.21875 76.4883Z" fill="#112244"/>
<path d="M136.004 68.0352L127.83 76.4426V101.039L136.004 92.9446V68.0352ZM8.32812 68.0352L16.5474 76.7855V101.084L8.32812 92.9446V68.0352Z" fill="#112244"/>
<path d="M72.8579 10.8223L75.4779 16.0844L81.3467 16.9192L77.1248 21.0335L78.1429 26.8323L72.9029 24.0894L67.6629 26.8323L68.6809 21.0335L64.4141 16.9192L70.2829 16.0844L72.8579 10.8223Z" fill="#112244"/>
<path d="M56.646 21.0789L55.0441 17.9336L53.487 21.0789L49.9688 21.6156L52.4989 24.0901L51.93 27.5485L55.0441 25.9088L58.1881 27.5485L57.6191 24.0901L60.1493 21.6156L56.646 21.0789Z" fill="#112244"/>
<path d="M95.7978 21.6156L92.2795 21.0789L90.6775 17.9336L89.1205 21.0789L85.6172 21.6156L88.1474 24.0901L87.5635 27.5485L90.6775 25.9088L93.8365 27.5485L93.2676 24.0901L95.7978 21.6156Z" fill="#112244"/>
<path d="M47.8873 29.3522L46.9441 27.459L46.0159 29.3522L43.875 29.6652L45.3871 31.1261L45.0428 33.2429L46.9441 32.2292L48.8156 33.2429L48.4563 31.1261L49.9684 29.6652L47.8873 29.3522Z" fill="#112244"/>
<path d="M101.873 29.6652L99.7474 29.3522L98.8192 27.459L97.876 29.3522L95.75 29.6652L97.307 31.1261L96.9477 33.2429L98.8192 32.2292L100.676 33.2429L100.316 31.1261L101.873 29.6652Z" fill="#112244"/>
<path d="M58.1808 74.9806C58.1808 74.5339 57.8817 74.3105 57.3882 74.3105H56.4609V75.6805H57.2536C57.8368 75.6805 58.1808 75.4125 58.1808 74.9806Z" fill="#112244"/>
<path d="M77.705 83.5684L77.0312 85.7299H78.4086L77.7349 83.5684H77.705Z" fill="#112244"/>
<path d="M87.1723 77.9478C87.9578 77.9478 88.5946 77.1336 88.5946 76.1292C88.5946 75.1248 87.9578 74.3105 87.1723 74.3105C86.3868 74.3105 85.75 75.1248 85.75 76.1292C85.75 77.1336 86.3868 77.9478 87.1723 77.9478Z" fill="#112244"/>
<path d="M65.2516 76.0241C65.2516 74.8763 64.6826 74.2949 63.7544 74.2949H62.9609V77.798H63.7544C64.7276 77.8577 65.2516 77.2316 65.2516 76.0241Z" fill="#112244"/>
<path d="M122.979 67.8554C122.979 67.438 123.069 67.0206 123.099 66.6181C122.993 67.0412 122.853 67.455 122.68 67.8554H120.704C121.375 66.8828 121.834 65.7808 122.051 64.6206C122.418 62.7711 122.539 60.8816 122.41 59.0007C122.41 59.4479 121.737 62.9361 119.611 63.6069C119.216 63.7205 118.839 63.8859 118.488 64.0988C118.488 63.0702 118.398 62.1013 118.308 61.1174C120.075 61.3261 120.973 59.1646 121.198 56.7348C121.326 54.943 121.206 53.1421 120.838 51.3832C120.838 51.6367 120.749 55.1845 118.787 56.1087C118.424 56.2937 118.082 56.5187 117.769 56.7795C117.635 55.7062 117.41 54.6926 117.2 53.6342C118.832 53.6342 119.416 51.4727 119.326 49.1621C119.221 47.4479 118.894 45.7544 118.353 44.1236C118.353 44.3919 118.697 47.7907 117.021 48.8938C116.701 49.1228 116.401 49.377 116.122 49.654C115.778 48.5509 115.419 47.3882 115.015 46.2404C116.616 46.0615 116.931 43.9447 116.512 41.6938C116.217 40.0424 115.713 38.4347 115.015 36.9086C115.144 37.5164 115.209 38.1359 115.209 38.7571C115.286 39.2859 115.25 39.8249 115.103 40.3387C114.956 40.8526 114.701 41.3296 114.356 41.7385C114.045 42.0043 113.778 42.316 113.562 42.6627C113.023 41.4254 112.454 40.1882 111.826 38.9509C113.323 38.6826 113.323 36.5509 112.724 34.2999C112.195 32.7002 111.476 31.1689 110.583 29.7384C110.839 30.339 111.034 30.9631 111.167 31.6018C111.313 32.0971 111.356 32.6167 111.294 33.1291C111.232 33.6416 111.067 34.1362 110.808 34.5832C110.493 34.9233 110.263 35.3316 110.134 35.7757C108.801 33.4204 107.334 30.9906 105.642 28.5608C107.147 30.8776 108.502 33.2874 109.7 35.7757C109.334 35.7071 108.958 35.7071 108.592 35.7757C106.855 36.1633 105.014 34.285 104.894 34.285C105.657 35.3434 106.496 36.4018 107.379 37.4304C108.547 38.7571 109.969 39.9496 111.167 39.1894L111.257 39.413C111.781 40.5608 112.275 41.6788 112.754 42.8267C112.396 42.7821 112.034 42.7821 111.676 42.8267C110.203 42.6804 108.848 41.9628 107.903 40.8292C108.577 41.977 109.4 43.1397 110.119 44.2428C111.287 45.7335 112.664 47.2242 114.131 46.4491C114.52 47.5969 114.88 48.7596 115.239 49.9522C114.816 49.7791 114.364 49.6881 113.907 49.6839C112.369 49.3518 111.016 48.4515 110.119 47.1646C110.707 48.4498 111.361 49.7037 112.08 50.9211C113.143 52.695 114.476 54.4541 116.212 53.7534C116.482 54.9013 116.706 56.0044 116.886 57.1671C116.426 56.8954 115.917 56.7133 115.389 56.6305C113.831 56.0343 112.526 54.9241 111.691 53.4851C112.133 54.9047 112.668 56.294 113.293 57.6441C114.236 59.6417 115.434 61.7137 117.38 61.192C117.38 61.4156 117.38 61.5796 117.38 61.8032C117.47 62.6529 117.47 63.4876 117.515 64.3671C117.062 64.0242 116.557 63.7573 116.018 63.5771C113.832 62.6081 112.634 59.6268 112.589 59.6268C112.904 61.1174 113.293 62.6081 113.742 64.0988C114.05 65.4612 114.647 66.7421 115.494 67.8554H113.577C113.251 67.2292 112.98 66.5758 112.769 65.9026C112.769 65.9026 112.769 66.7075 112.948 67.8554H32.1027C32.2 67.1487 32.255 66.4369 32.2674 65.7237C32.0181 66.4542 31.7179 67.1664 31.3691 67.8554H29.2731C30.2519 66.7978 30.9335 65.5021 31.2494 64.0988C31.6985 62.6081 32.1027 61.1174 32.4171 59.5373C32.4171 59.5373 31.1745 62.5187 28.9438 63.3386C28.4071 63.5309 27.9024 63.8022 27.4466 64.1435C27.4466 63.2491 27.5364 62.4143 27.5814 61.5647C27.5814 61.356 27.5814 61.1771 27.5814 60.9535C29.4977 61.4752 30.7403 59.4628 31.6236 57.4056C32.2435 56.0689 32.7785 54.6947 33.2256 53.2913C32.4072 54.7381 31.1033 55.8517 29.5426 56.4367C29.0205 56.5206 28.5152 56.6866 28.0455 56.9286C28.2251 55.8106 28.4347 54.6628 28.7042 53.5596C30.396 54.2305 31.6985 52.5013 32.7914 50.7721C33.5014 49.5572 34.1412 48.3029 34.7078 47.0155C33.8114 48.2759 32.4872 49.1708 30.9799 49.5348C30.5363 49.5315 30.0973 49.623 29.6923 49.8031C30.0367 48.6553 30.396 47.4478 30.8002 46.3C32.2974 47.0602 33.6448 45.5994 34.7527 44.0938C35.544 43 36.2689 41.8601 36.9235 40.6801C36.9235 40.6801 35.112 42.8118 33.1956 42.6776C32.8427 42.633 32.4856 42.633 32.1327 42.6776C32.6118 41.5745 33.1058 40.4118 33.6298 39.2639L33.7196 39.0403C34.9174 39.8006 36.2947 38.608 37.4924 37.2813C38.3758 36.2527 39.1842 35.1943 39.9328 34.136C39.9328 34.136 37.9865 36.0888 36.2498 35.731C35.9042 35.6354 35.5437 35.6051 35.1868 35.6416C36.4113 33.1307 37.7706 30.6874 39.2591 28.3223C37.6259 30.6406 36.1263 33.0495 34.7676 35.5372C34.6332 35.0955 34.4033 34.6884 34.0939 34.3447C33.8412 33.8952 33.6806 33.4001 33.6214 32.8884C33.5623 32.3766 33.6059 31.8582 33.7496 31.3633C33.8771 30.725 34.0676 30.1008 34.3185 29.4999C33.4304 30.893 32.7307 32.3967 32.2375 33.972C31.6536 36.2975 31.6536 38.3844 33.1507 38.6527C32.5369 39.89 31.953 41.1273 31.459 42.3646C31.2459 42.0289 30.9947 41.7188 30.7104 41.4403C30.3788 41.044 30.1321 40.5843 29.9853 40.0896C29.8386 39.5948 29.7949 39.0754 29.857 38.5633C29.8874 37.9184 29.9878 37.2786 30.1564 36.6552C29.4641 38.1838 28.9613 39.7907 28.6593 41.4403C28.27 43.6913 28.5695 45.823 30.1564 45.9869C29.7672 47.1497 29.4079 48.2528 29.0486 49.4006C28.7876 49.1153 28.4907 48.8647 28.1652 48.6553C26.4286 47.5373 26.7879 44.1832 26.8328 43.8702C26.3029 45.5044 25.9711 47.196 25.8447 48.9087C25.7548 51.264 26.3387 53.3808 27.9856 53.3808C27.761 54.4392 27.5814 55.4677 27.4017 56.5261C27.09 56.2759 26.7479 56.0655 26.3836 55.9C24.4224 55.0205 24.3326 51.428 24.3775 51.2193C23.9959 53.0013 23.8599 54.8268 23.9732 56.6454C24.1828 59.0752 25.0811 61.2516 26.8178 61.028C26.728 61.997 26.6831 62.9659 26.6382 64.0094C26.2637 63.78 25.8612 63.5997 25.4404 63.4727C23.2995 62.7572 22.6707 59.269 22.6707 58.8218C22.5445 60.6872 22.6603 62.561 23.0151 64.397C23.2234 65.6541 23.7374 66.8414 24.5122 67.8554H22.4162C22.2016 67.3733 22.0264 66.8748 21.8922 66.3647C21.8922 66.8417 21.9671 67.3038 22.0419 67.8554H8.14844V92.8095H28.809C29.4361 93.6231 30.1216 94.3903 30.8601 95.1052C33.2555 97.5052 36.3696 98.9661 37.6571 96.8791C38.1063 97.4157 38.5854 97.9375 39.1543 98.4741C38.5376 98.5113 37.9333 98.663 37.3727 98.9213C34.8425 99.9797 31.2793 97.1474 30.9799 96.7897C32.4424 98.6924 34.1835 100.366 36.145 101.754C39.0345 103.736 42.418 104.735 43.3463 102.454C43.9033 102.944 44.4991 103.387 45.1279 103.781C44.4992 103.922 43.8976 104.164 43.3463 104.497C41.0407 105.868 36.8936 103.602 36.5043 103.349C38.368 104.972 40.4615 106.313 42.7175 107.329C46.0561 108.82 49.6043 109.133 50.2032 106.882C50.8769 107.239 51.5356 107.552 52.2543 107.895C51.6557 108.133 51.0996 108.465 50.6074 108.879C48.4665 110.593 43.9302 109.088 43.4062 108.879C45.5857 110.22 47.9661 111.207 50.4577 111.801C54.0958 112.68 57.8386 112.367 57.9434 110.072C62.202 111.288 66.634 111.792 71.0584 111.562V110.757C66.6936 110.972 62.3232 110.469 58.1231 109.267C59.6202 107.329 57.1499 105.421 54.7994 103.557L49.8289 99.8754C49.8289 99.8754 52.8232 102.857 52.4938 105.451C52.3817 106.037 52.3817 106.638 52.4938 107.224C51.8351 106.911 51.1614 106.598 50.5026 106.241C52.2393 104.571 50.278 102.171 48.3617 99.9201C46.4454 97.6692 44.3194 95.448 44.3194 95.3586C44.3194 95.2692 46.5502 98.8617 45.8166 101.321C45.6145 101.89 45.523 102.492 45.5471 103.095C44.9782 102.648 44.3943 102.246 43.8254 101.769C45.7716 100.397 44.3494 97.6543 42.9271 95.0754C42.463 94.2853 42.0138 93.4952 41.5796 92.7797H103.516C103.037 93.5847 102.483 94.494 101.944 95.4331C100.522 98.0269 99.025 100.77 101.076 102.141C100.492 102.633 99.9233 103.036 99.3394 103.468C99.349 102.867 99.2423 102.27 99.025 101.709C98.2765 99.145 100.522 95.6418 100.522 95.6418C100.522 95.6418 98.4861 97.8928 96.435 100.203C94.3839 102.514 92.5274 104.839 94.309 106.524C93.6802 106.882 92.9766 107.195 92.3028 107.508C92.415 106.922 92.415 106.32 92.3028 105.734C91.9884 103.125 94.9678 100.114 94.9678 100.114C94.9678 100.114 92.5873 101.977 90.0422 103.826C87.497 105.674 85.1465 107.627 86.6586 109.58C82.4119 110.779 77.9976 111.282 73.5886 111.07L73.7233 111.771C78.1775 112.008 82.6403 111.504 86.9281 110.28C87.1078 112.576 90.8357 112.889 94.5336 111.995C97.0253 111.358 99.4072 110.353 101.6 109.013C101.106 109.237 96.4799 110.743 94.3539 109.013C93.8413 108.645 93.2889 108.335 92.7071 108.089C93.3658 107.776 94.0845 107.433 94.7432 107.075C95.2822 109.326 98.9202 109.013 102.229 107.523C104.492 106.487 106.591 105.126 108.457 103.483C108.008 103.796 103.876 106.062 101.525 104.69C100.968 104.371 100.368 104.13 99.7437 103.975C100.357 103.572 100.941 103.095 101.525 102.648C102.453 104.854 105.837 103.93 108.756 101.933C110.722 100.558 112.486 98.9174 113.996 97.058C113.682 97.371 110.044 100.248 107.544 99.2195C106.963 98.9935 106.353 98.848 105.732 98.7872C106.256 98.2505 106.705 97.7288 107.229 97.1921C108.517 99.3089 111.616 97.8033 114.071 95.4182C114.934 94.6142 115.73 93.7417 116.452 92.8095H135.915V67.8554H122.979ZM31.3392 74.3995H29.842V78.7821H28.6593V74.3995H27.1622V73.4753H31.3841L31.3392 74.3995ZM34.049 78.8716C33.4984 78.9044 32.9505 78.7719 32.4763 78.4911C32.0022 78.2104 31.6236 77.7944 31.3896 77.297C31.1557 76.7995 31.0771 76.2436 31.164 75.7012C31.251 75.1588 31.4995 74.6549 31.8774 74.2547C32.2552 73.8546 32.7451 73.5766 33.2834 73.4568C33.8218 73.337 34.3839 73.3808 34.8969 73.5827C35.4099 73.7846 35.8503 74.1353 36.1609 74.5892C36.4715 75.0431 36.6381 75.5794 36.6391 76.1287C36.6759 76.4839 36.6355 76.8429 36.5207 77.1812C36.4059 77.5195 36.2193 77.8293 35.9736 78.0895C35.7279 78.3497 35.4289 78.5542 35.0968 78.6891C34.7647 78.8241 34.4074 78.8863 34.049 78.8716ZM40.2322 96.2232C39.9235 96.7484 39.7296 97.3326 39.6633 97.9375C39.1692 97.4157 38.6752 96.8791 38.1662 96.3574C39.4238 95.7015 39.6633 94.3747 39.3938 92.8095H40.6364C40.8274 93.9626 40.6873 95.146 40.2322 96.2232ZM41.385 75.3535C41.391 75.5845 41.3512 75.8145 41.2679 76.0302C41.1846 76.2459 41.0594 76.4431 40.8995 76.6106C40.7396 76.7781 40.5481 76.9126 40.336 77.0064C40.1239 77.1002 39.8953 77.1515 39.6633 77.1573H38.4057V78.8417H37.2978V73.4753H39.5735C39.8018 73.4591 40.031 73.4892 40.2473 73.5637C40.4635 73.6383 40.6624 73.7558 40.8317 73.9091C41.0011 74.0624 41.1375 74.2483 41.2326 74.4556C41.3277 74.6629 41.3795 74.8872 41.385 75.115V75.3535ZM87.1677 73.4455C87.7187 73.4096 88.2679 73.5395 88.7439 73.8182C89.2199 74.097 89.6008 74.5118 89.8371 75.0088C90.0734 75.5058 90.1543 76.062 90.0691 76.6053C89.984 77.1486 89.7368 77.6539 89.3597 78.0555C88.9826 78.4572 88.4929 78.7368 87.9543 78.8579C87.4156 78.9791 86.8528 78.9362 86.3389 78.735C85.825 78.5337 85.3837 78.1832 85.0723 77.7291C84.7609 77.275 84.5937 76.7382 84.5926 76.1883C84.5412 75.8288 84.5705 75.4624 84.6782 75.1155C84.7859 74.7686 84.9695 74.4497 85.2157 74.1818C85.4618 73.9139 85.7645 73.7036 86.102 73.5659C86.4395 73.4283 86.8035 73.3668 87.1677 73.3858V73.4455ZM80.8497 73.5349H81.9576V77.9175H84.2782V78.8417H80.8497V73.5349ZM76.5828 73.5349H80.1011V74.4591H77.7057V75.7411H79.9664V76.5908H77.7057V77.9175H80.1011V78.8417H76.5679L76.5828 73.5349ZM61.7911 73.5349H63.8272C64.1648 73.5062 64.5047 73.5505 64.8236 73.6648C65.1424 73.7792 65.4326 73.9608 65.6744 74.1972C65.9161 74.4337 66.1036 74.7194 66.2241 75.0348C66.3446 75.3501 66.3951 75.6877 66.3723 76.0243C66.4155 76.3728 66.3804 76.7265 66.2695 77.0598C66.1587 77.3931 65.9748 77.6977 65.7313 77.9516C65.4877 78.2055 65.1906 78.4023 64.8613 78.5279C64.532 78.6535 64.1788 78.7047 63.8272 78.6778H61.7911V73.5349ZM55.2935 73.5349H57.659C58.677 73.5349 59.3058 74.0566 59.3058 74.8616C59.2997 75.1372 59.1979 75.4021 59.0178 75.6113C58.8376 75.8206 58.5903 75.9613 58.3177 76.0094C58.6526 76.0173 58.9709 76.1563 59.2035 76.3963C59.4362 76.6363 59.5644 76.9579 59.5603 77.2914C59.5603 78.2157 58.8567 78.7821 57.7488 78.7821H55.2935V73.5349ZM48.9456 78.8417H47.8826L46.8496 75.2194L45.9214 78.8417H44.8584L43.4361 73.5349H44.5889L45.4273 77.3809L46.4154 73.5349H47.3436L48.3168 77.3809L49.1702 73.5349H50.323L48.9456 78.8417ZM50.9817 73.5349H54.5V74.4591H52.1046V75.7411H54.3652V76.5908H52.1046V77.9175H54.5V78.8417H50.9817V73.5349ZM56.1918 87.0256C56.4898 87.0471 56.7848 86.9539 57.0159 86.7653C57.2471 86.5768 57.3969 86.3072 57.4344 86.012H58.4974C58.4405 86.5779 58.1618 87.0988 57.7218 87.4615C57.2818 87.8243 56.7159 87.9998 56.1469 87.9499C55.4494 87.8987 54.7972 87.5867 54.3212 87.0766C53.8452 86.5664 53.5806 85.8959 53.5806 85.1995C53.5806 84.5032 53.8452 83.8327 54.3212 83.3225C54.7972 82.8124 55.4494 82.5004 56.1469 82.4492C56.7219 82.4156 57.2876 82.6048 57.7258 82.9771C58.1639 83.3494 58.4404 83.876 58.4974 84.4467H57.4344C57.4005 84.1464 57.2534 83.87 57.0227 83.6735C56.792 83.4771 56.495 83.3751 56.1918 83.3884C55.3384 83.3884 54.8144 84.089 54.8144 85.207C54.8144 86.325 55.3384 86.966 56.1918 86.966V87.0256ZM61.5965 87.9499C61.0414 87.9888 60.4874 87.8604 60.0067 87.5813C59.526 87.3022 59.1409 86.8854 58.9015 86.3853C58.6621 85.8851 58.5796 85.3248 58.6647 84.7773C58.7498 84.2297 58.9985 83.7204 59.3785 83.3157C59.7585 82.9109 60.2521 82.6295 60.795 82.5081C61.3379 82.3867 61.905 82.431 62.4223 82.6351C62.9396 82.8392 63.3831 83.1938 63.6951 83.6525C64.0072 84.1113 64.1732 84.653 64.1715 85.207C64.2081 85.5609 64.1681 85.9186 64.0542 86.2558C63.9402 86.593 63.755 86.902 63.5109 87.162C63.2669 87.4219 62.9698 87.6267 62.6395 87.7626C62.3093 87.8985 61.9536 87.9624 61.5965 87.9499ZM69.5463 87.8604V84.2231L68.0491 87.771H67.3455L65.8483 84.2231V87.8157H64.8752V82.4939H66.0879L67.585 86.2654L69.0822 82.4939H70.3697V87.8157L69.5463 87.8604ZM70.6691 74.4442H68.2288V75.7262H70.5793V76.5759H68.2288V77.9026H70.5793V78.8268H67.1209V73.4753H70.5793L70.6691 74.4442ZM72.3908 73.52L73.5886 77.679L74.8013 73.52H75.999L74.2174 78.8268H72.8849L71.1033 73.52H72.3908ZM73.6784 86.1759H72.4358V87.8604H71.3279V82.4939H73.5736C73.8026 82.4778 74.0326 82.5078 74.2497 82.5822C74.4668 82.6566 74.6666 82.7739 74.8372 82.927C75.0077 83.0801 75.1455 83.2658 75.2422 83.4732C75.3389 83.6805 75.3926 83.9052 75.4001 84.1337V84.3126C75.4061 84.5468 75.3654 84.7798 75.2804 84.9983C75.1954 85.2168 75.0678 85.4163 74.9049 85.5854C74.7421 85.7545 74.5472 85.8898 74.3315 85.9835C74.1159 86.0771 73.8837 86.1274 73.6485 86.1312L73.6784 86.1759ZM79.113 87.9051L78.7088 86.6232H76.8074L76.4032 87.9051H75.2504L77.0769 82.5834H78.4094L80.2808 87.9051H79.113ZM85.3711 87.9051H84.4428L81.9576 84.402V87.8604H80.8797V82.4939H81.8229L84.3081 85.9523V82.4939H85.3711V87.9051ZM88.8445 85.9076V87.9051H87.7216V85.8182L85.8651 82.4939H87.0479L88.2456 84.7598L89.4433 82.4939H90.641L88.8445 85.9076ZM94.5336 75.2939C94.5416 75.7619 94.3636 76.214 94.0383 76.5519C93.713 76.8898 93.2668 77.0859 92.7969 77.0976H91.5393V78.7821H90.4165V73.4753H92.6921C92.9224 73.457 93.1539 73.4854 93.3728 73.5589C93.5917 73.6323 93.7933 73.7493 93.9655 73.9026C94.1376 74.0559 94.2768 74.2424 94.3744 74.4508C94.4721 74.6592 94.5262 74.8852 94.5336 75.115V75.2939ZM99.8634 78.7821V75.2045L98.3663 78.7374H97.6477L96.1505 75.2045V78.7821H95.1774V73.4753H96.4649L97.9621 77.2318L99.4592 73.4753H100.747V78.7821H99.8634ZM101.72 78.7821V73.4753H105.238V74.3995H102.843V75.6815H105.014V76.5312H102.813V77.8579H105.208V78.7821H101.72ZM105.328 98.2953C105.247 97.6867 105.049 97.0995 104.744 96.5661C104.262 95.3742 104.147 94.0665 104.415 92.8095H105.568C105.238 94.5089 105.373 95.9847 106.75 96.7002C106.271 97.2369 105.792 97.7735 105.298 98.2953H105.328ZM110.568 78.7821H109.64L107.155 75.3386V78.7821H106.077V73.4753H107.02L109.505 76.9188V73.4753H110.568V78.7821ZM115.419 74.3995H113.922V78.7821H112.814V74.3995H111.317V73.4753H115.539L115.419 74.3995Z" fill="#112244"/>
<path d="M73.4432 83.3887H72.5V85.2819H73.3085C73.5454 85.2742 73.771 85.1794 73.9418 85.0157C74.1126 84.852 74.2164 84.6312 74.2331 84.3958C74.2499 84.1603 74.1784 83.9271 74.0325 83.7411C73.8866 83.5551 73.6767 83.4295 73.4432 83.3887Z" fill="#112244"/>
<path d="M58.4131 77.1867C58.4131 76.7097 58.0538 76.4414 57.395 76.4414H56.4219V77.9321H57.4399C58.0538 77.9917 58.4131 77.7234 58.4131 77.1867Z" fill="#112244"/>
<path d="M34.0479 74.3105C33.2095 74.3105 32.6406 75.0708 32.6406 76.1292C32.6406 77.1876 33.2095 77.9478 34.0479 77.9478C34.8863 77.9478 35.4702 77.2323 35.4702 76.1292C35.4702 75.0261 34.9013 74.3105 34.0479 74.3105Z" fill="#112244"/>
<path d="M61.5942 83.3438C60.7108 83.3438 60.1719 84.0444 60.1719 85.1624C60.1719 86.2804 60.7558 86.9661 61.5942 86.9661C62.4326 86.9661 63.0913 86.2655 63.0913 85.1624C63.0913 84.0593 62.4026 83.3438 61.5942 83.3438Z" fill="#112244"/>
<path d="M92.4972 74.3555H91.5391V76.2635H92.3325C92.5867 76.2813 92.8375 76.1979 93.0298 76.0316C93.2221 75.8652 93.3402 75.6296 93.3581 75.3766C93.376 75.1236 93.2921 74.8738 93.1251 74.6823C92.958 74.4908 92.7214 74.3733 92.4673 74.3555H92.4972Z" fill="#112244"/>
<path d="M39.3963 74.3555H38.4531V76.2635H39.2616C39.5157 76.2813 39.7665 76.1979 39.9588 76.0316C40.1512 75.8652 40.2693 75.6296 40.2871 75.3766C40.305 75.1236 40.2212 74.8738 40.0541 74.6823C39.8871 74.4908 39.6504 74.3733 39.3963 74.3555Z" fill="#112244"/>
</g>
<defs>
<clipPath id="clip0_4810_2609">
<rect width="144" height="130" fill="white"/>
</clipPath>
</defs>
</svg>
