<svg width="73" height="38" viewBox="0 0 73 38" fill="none" xmlns="http://www.w3.org/2000/svg">
<path fill-rule="evenodd" clip-rule="evenodd" d="M38.5732 6.15683L37.0587 6.27083L37.1054 6.24233H36.6848C36.3482 6.22333 36.2921 6.13783 36.4136 5.82433V5.76733C36.4369 5.68797 36.4284 5.60246 36.3899 5.52948C36.3513 5.4565 36.2859 5.40198 36.208 5.37783C36.108 5.34042 36.0001 5.33038 35.895 5.34872C35.79 5.36706 35.6916 5.41314 35.6096 5.48233L34.843 6.13783C34.7187 6.25533 34.5547 6.31992 34.3849 6.31833L32.6928 6.40383C32.2602 6.43524 31.8643 6.47494 31.4404 6.51746L31.4404 6.51746C31.2231 6.53926 30.9984 6.5618 30.7576 6.58433C30.0471 6.65083 29.3927 6.65083 28.6354 6.65083C27.8782 6.65083 27.0835 6.73633 26.3263 6.83133C26.172 6.83933 26.0222 6.88603 25.89 6.96726C25.7579 7.04849 25.6476 7.16172 25.569 7.29683C25.4742 7.47215 25.4199 7.66705 25.4101 7.86683C25.3926 8.06274 25.4353 8.25935 25.5324 8.42952C25.6296 8.59969 25.7763 8.73502 25.9523 8.81683C26.4093 8.93587 26.8884 8.93587 27.3453 8.81683C27.798 8.75488 28.2536 8.71683 28.7102 8.70283C28.8789 8.68965 28.9801 8.67646 29.1543 8.65375C29.2311 8.64374 29.3221 8.63187 29.4394 8.61733C29.7202 8.58254 30.031 8.52737 30.3094 8.47794L30.3095 8.47794L30.3096 8.47792C30.4113 8.45987 30.5086 8.44258 30.5987 8.42733C30.7432 8.40285 30.8895 8.38888 31.036 8.37489C31.2307 8.35631 31.4257 8.33769 31.6177 8.29433C32.2829 8.1851 32.9542 8.11847 33.6277 8.09483L34.5626 7.99033L35.6844 7.80983L35.7817 7.79926C36.2652 7.74676 36.6958 7.7 37.1428 7.61983C37.3485 7.58183 37.5729 7.52483 37.629 7.27783C37.6862 7.08961 37.7854 6.91732 37.9188 6.77433C37.9927 6.68936 38.0907 6.62964 38.1993 6.60333C38.2913 6.57207 38.3886 6.55956 38.4854 6.56652C38.5822 6.57348 38.6768 6.59977 38.7636 6.64388C38.8504 6.688 38.9279 6.74908 38.9914 6.82362C39.055 6.89817 39.1035 6.98473 39.1341 7.07833C39.1666 7.18902 39.2409 7.28213 39.3408 7.33732C39.4406 7.39251 39.5579 7.40527 39.667 7.37283L40.6019 7.21133C40.7528 7.17051 40.9122 7.17577 41.0602 7.22645C41.2082 7.27714 41.3382 7.37101 41.4339 7.49633C41.5573 7.67414 41.6667 7.86156 41.7612 8.05683C42.0416 8.55083 42.2286 8.70283 42.6867 8.64583C42.8257 8.62854 42.9656 8.61036 43.1061 8.59211L43.1061 8.59211L43.1061 8.5921L43.1062 8.59209L43.1062 8.59209L43.1063 8.59208L43.1063 8.59208C43.4287 8.5502 43.7542 8.50791 44.0797 8.47483C44.4349 8.43683 44.7925 8.40833 45.1501 8.37983L45.1502 8.37983C45.5077 8.35133 45.8653 8.32283 46.2205 8.28483C46.5384 8.24683 46.8469 8.18983 47.1554 8.13283C47.2009 8.1217 47.2438 8.10154 47.2815 8.07353C47.3193 8.04551 47.3513 8.01019 47.3756 7.96959C47.3999 7.92898 47.4161 7.8839 47.4233 7.83692C47.4304 7.78994 47.4283 7.742 47.4172 7.69583C47.3942 7.41449 47.3942 7.13168 47.4172 6.85033L47.2396 4.58933V4.50383C47.1991 4.31726 47.0884 4.15417 46.9312 4.04943C46.774 3.94469 46.5827 3.90661 46.3982 3.94333C45.5588 4.09514 44.7085 4.15893 43.8598 4.22261C43.5931 4.24262 43.3266 4.26262 43.0606 4.28533C42.749 4.30908 42.4374 4.36582 42.1258 4.42256C42.0634 4.4339 42.0011 4.44525 41.9388 4.45633C41.8578 4.45904 41.7792 4.48442 41.7116 4.52969C41.6439 4.57495 41.5899 4.63834 41.5555 4.71283C41.5415 4.76112 41.5242 4.8094 41.5068 4.85794L41.5067 4.85809L41.5067 4.85811C41.4659 4.97187 41.4246 5.08702 41.4246 5.20683C41.3847 5.40673 41.2709 5.5835 41.1067 5.70083C40.83 5.88942 40.5051 5.99178 40.1719 5.99533L38.5732 6.15683ZM43.3691 5.44433L42.668 5.53933L42.6586 5.52983L42.3034 5.44433C42.2472 5.43496 42.1966 5.40423 42.1619 5.35836C42.1272 5.31249 42.1109 5.25493 42.1164 5.19733C42.1216 5.14176 42.1445 5.08944 42.1816 5.04829C42.2187 5.00714 42.2681 4.97942 42.3221 4.96933C42.5368 4.91528 42.7558 4.88032 42.9765 4.86483L44.7715 4.68433L45.9868 4.56083C46.1295 4.54681 46.2734 4.56631 46.4075 4.61783C46.4574 4.63606 46.5022 4.66634 46.538 4.70605C46.5739 4.74577 46.5996 4.79374 46.6132 4.84583C46.6225 4.91233 46.5197 5.06433 46.4356 5.06433C46.2237 5.14156 46.0043 5.1957 45.7811 5.22583L43.3691 5.44433ZM46.0149 5.78633H46.1925L46.2486 5.76733C46.3335 5.75474 46.4202 5.76281 46.5014 5.79089C46.5827 5.81896 46.6562 5.86624 46.716 5.92883C46.7337 5.94399 46.748 5.9629 46.7577 5.98423C46.7675 6.00557 46.7725 6.02881 46.7725 6.05233C46.7725 6.07586 46.7675 6.0991 46.7577 6.12043C46.748 6.14177 46.7337 6.16067 46.716 6.17583C46.6547 6.2367 46.5812 6.28346 46.5006 6.31297C46.4199 6.34247 46.334 6.35402 46.2486 6.34683L44.0236 6.56533L42.9858 6.69833C42.7885 6.72794 42.5872 6.68768 42.4156 6.58433C42.3717 6.57043 42.3348 6.53978 42.3127 6.49883C42.2897 6.45213 42.2856 6.39811 42.3013 6.34837C42.3171 6.29863 42.3514 6.25715 42.3969 6.23283C42.4548 6.18426 42.5274 6.15743 42.6025 6.15683L43.8366 5.99533L45.0332 5.89083L46.0149 5.78633ZM45.5287 7.07833L46.3888 6.97383H46.4075C46.5147 7.01479 46.618 7.06567 46.716 7.12583C46.7488 7.14513 46.7775 7.17098 46.8002 7.20183C46.8145 7.22503 46.8237 7.25111 46.8272 7.27828C46.8307 7.30545 46.8284 7.33307 46.8204 7.35924C46.8124 7.38541 46.799 7.40951 46.7809 7.4299C46.7629 7.45028 46.7408 7.46646 46.716 7.47733C46.6205 7.54218 46.5119 7.58439 46.3982 7.60083L43.7618 7.87633C43.511 7.91789 43.2582 7.94643 43.0045 7.96183C42.8544 7.96976 42.7043 7.94381 42.5652 7.88583C42.525 7.86918 42.4899 7.84189 42.4636 7.80681C42.4373 7.77173 42.4207 7.73013 42.4156 7.68633C42.422 7.6405 42.4379 7.59655 42.462 7.55729C42.4861 7.51803 42.5181 7.48432 42.5558 7.45833C42.66 7.40255 42.7748 7.37016 42.8924 7.36333L45.5287 7.07833ZM43.514 16.508C43.726 16.9404 43.83 17.4191 43.8169 17.902C43.8815 17.8982 43.9446 17.8811 44.0025 17.8517C44.0603 17.8223 44.1117 17.7812 44.1535 17.731C44.2065 17.6729 44.2578 17.6094 44.3097 17.5452L44.3097 17.5451L44.3098 17.5451C44.3766 17.4623 44.4444 17.3784 44.5181 17.3035L46.2289 15.527C46.3526 15.4013 46.4695 15.2848 46.5812 15.1735C46.7902 14.9652 46.981 14.7751 47.1638 14.577L49.4355 12.2115C49.5509 12.1069 49.6572 11.9925 49.7534 11.8695C49.7765 11.8308 49.7887 11.7865 49.7887 11.7413C49.7887 11.696 49.7765 11.6517 49.7534 11.613C49.7347 11.5465 49.7347 11.5465 49.5197 11.5465H46.6309C46.5041 11.5445 46.3782 11.5687 46.2608 11.6177C46.1435 11.6667 46.0372 11.7394 45.9484 11.8315C45.8082 12.0025 45.6586 12.164 45.4997 12.3255L44.5648 13.323L43.7234 14.273L42.7885 15.223L42.6016 15.4225C42.9887 15.7028 43.3021 16.0756 43.514 16.508ZM41.5547 20.6268C42.0036 20.5304 42.4234 20.3267 42.7795 20.0327C43.1355 19.7386 43.4175 19.3626 43.6021 18.9358L43.7797 19.0593L48.183 24.0278C48.5611 24.44 48.9342 24.8624 49.3097 25.2876L49.3097 25.2877L49.3097 25.2877L49.3098 25.2878L49.3098 25.2878L49.3101 25.2882L49.3105 25.2885L49.311 25.2891L49.3114 25.2896L49.3122 25.2905C49.4465 25.4426 49.581 25.5949 49.7162 25.7473L49.819 25.8708L50.0434 25.5288C50.4267 24.9113 50.81 24.2938 51.184 23.6763C51.3516 23.3995 51.521 23.1113 51.6907 22.8227C51.8996 22.4675 52.1088 22.1118 52.3152 21.7763L53.1752 20.3513L53.8671 19.1638L55.1292 17.1023C55.2786 16.8534 55.4346 16.6046 55.5908 16.3553C55.8938 15.872 56.1976 15.3872 56.4567 14.8983L56.9989 13.9103L57.5972 12.9128C57.6754 12.7556 57.7628 12.6033 57.859 12.4568C57.9681 12.3034 58.1077 12.1751 58.2688 12.0802C58.4298 11.9853 58.6087 11.9259 58.7939 11.9058C58.965 11.8867 59.1382 11.9076 59.3002 11.9669C59.4623 12.0261 59.6088 12.1222 59.7288 12.2478C59.9948 12.5642 60.2123 12.9198 60.3738 13.3023C60.673 13.7773 60.9628 14.2523 61.2433 14.7368C61.3402 14.9043 61.4328 15.0696 61.5231 15.231L61.5232 15.2311C61.6941 15.5365 61.8573 15.8281 62.0286 16.0953C62.1677 16.3263 62.3056 16.5586 62.4431 16.7903L62.4433 16.7905L62.4435 16.7909C62.6848 17.1974 62.9251 17.6021 63.1691 17.9953L64.104 19.4488C64.2189 19.6434 64.3339 19.8374 64.4487 20.0311C64.7539 20.5461 65.0578 21.0589 65.3567 21.5768L66.6375 23.7523L67.75 25.6523C67.7751 25.6905 67.804 25.7231 67.8315 25.7542L67.8316 25.7542C67.8656 25.7926 67.8977 25.8288 67.9183 25.8708C67.9757 25.9573 68.0021 26.0613 67.9931 26.1653C67.9641 26.2021 67.927 26.2316 67.8848 26.2514C67.8426 26.2712 67.7965 26.2808 67.75 26.2793H65.4128C65.3157 26.2849 65.2194 26.2582 65.1385 26.2034C65.0576 26.1486 64.9964 26.0685 64.9641 25.9753C64.887 25.8185 64.8024 25.6643 64.7142 25.5036C64.6314 25.3525 64.5453 25.1956 64.4593 25.0253C64.3408 24.7909 64.1726 24.5144 64.0043 24.2379L64.004 24.2373C63.9199 24.0992 63.8359 23.9611 63.7581 23.8283C63.6023 23.5623 63.4548 23.3469 63.3073 23.1316C63.2335 23.0239 63.1598 22.9163 63.085 22.8023C63.0383 22.7365 62.9731 22.6867 62.898 22.6596C62.8228 22.6324 62.7413 22.6292 62.6643 22.6503H56.7091C56.6562 22.6431 56.608 22.6154 56.5749 22.5728C56.5417 22.5303 56.5261 22.4763 56.5315 22.4223C56.5383 22.3772 56.5617 22.3365 56.5969 22.3083L56.8306 22.0233C57.0238 21.7176 57.1986 21.4003 57.3542 21.0733C57.4062 20.9293 57.5025 20.8063 57.6288 20.7224C57.7551 20.6386 57.9047 20.5984 58.0553 20.6078H61.5892C61.664 20.6078 61.7668 20.6078 61.7855 20.5413C61.7949 20.4719 61.7949 20.4016 61.7855 20.3323L60.9067 19.0023L60.1588 17.7673L59.1491 16.0193C59.065 15.8863 58.9809 15.7628 58.8874 15.6393C58.8596 15.6125 58.8228 15.5976 58.7845 15.5976C58.7463 15.5976 58.7095 15.6125 58.6817 15.6393C58.6682 15.6456 58.6561 15.6548 58.6465 15.6663C58.6368 15.6777 58.6297 15.6912 58.6256 15.7058C58.5742 15.7984 58.5233 15.8911 58.4724 15.9838C58.32 16.2616 58.1675 16.5394 57.9992 16.8173L56.7184 19.0023C56.251 19.8003 55.7836 20.6078 55.3348 21.4058C55.2133 21.6116 55.0908 21.8174 54.9682 22.0232C54.723 22.4349 54.4779 22.8466 54.241 23.2583C54.1086 23.4884 53.997 23.6789 53.8951 23.8529L53.8945 23.8539C53.7231 24.1465 53.5789 24.3927 53.409 24.7023C53.2635 24.9674 53.1422 25.1668 53.0279 25.3549L53.0278 25.355C52.9291 25.5174 52.8355 25.6713 52.7359 25.8518C52.6585 25.9937 52.5394 26.1075 52.3952 26.1773C52.2511 26.2472 52.0891 26.2695 51.9319 26.2413H50.2117C50.0497 26.228 49.8898 26.1961 49.7349 26.1463C49.572 26.0831 49.4027 26.0385 49.2301 26.0133H46.36C46.1917 26.0133 45.9112 25.7568 45.7523 25.5383L44.967 24.5883L43.9106 23.3248L42.8542 22.0328C42.5737 21.6908 42.2839 21.3393 41.9941 21.0068C41.8625 20.8633 41.7151 20.7358 41.5547 20.6268ZM0.905517 19.184V12.211C0.907909 12.1673 0.926689 12.1262 0.957992 12.0962C0.989295 12.0662 1.03074 12.0494 1.0738 12.0495H8.89874C9.51763 12.0317 10.1348 12.1249 10.7218 12.325C10.8246 12.363 10.9298 12.382 11.0349 12.401C11.1401 12.42 11.2453 12.439 11.3481 12.477C12.1405 12.7694 12.8844 13.1827 13.5544 13.7025C13.8639 13.9858 14.14 14.3046 14.3771 14.6525C14.8739 15.3114 15.2449 16.0589 15.471 16.8565C15.6022 17.3938 15.6959 17.9398 15.7514 18.4905C15.8373 19.1084 15.8055 19.7373 15.6579 20.343C15.5549 20.8409 15.4142 21.33 15.2372 21.806C15.0079 22.3952 14.6927 22.946 14.3024 23.44C13.7873 24.1398 13.1543 24.7413 12.4326 25.2165C12.0841 25.4435 11.7107 25.6284 11.3201 25.7675C11.0143 25.8748 10.7053 25.9385 10.3949 26.0024C10.1833 26.046 9.97105 26.0897 9.75883 26.1475C9.52853 26.1978 9.29316 26.2201 9.05767 26.214H1.26077C1.21257 26.2169 1.16431 26.2092 1.11928 26.1915C1.07425 26.1738 1.0335 26.1464 0.999802 26.1113C0.966102 26.0761 0.940239 26.034 0.923971 25.9878C0.907702 25.9416 0.901409 25.8924 0.905517 25.8435V19.184ZM6.38391 23.6965H8.96418C9.61247 23.6748 10.2492 23.5163 10.8339 23.231C11.3388 22.9734 11.7872 22.6148 12.1521 22.1765C12.4697 21.7923 12.731 21.3636 12.9281 20.9035C12.9922 20.6918 13.0422 20.476 13.0777 20.2575C13.1999 19.8507 13.2659 19.4287 13.274 19.0035C13.266 18.809 13.2442 18.6153 13.2085 18.424C13.1908 18.3362 13.1736 18.2485 13.1565 18.1608L13.1564 18.1607L13.1564 18.1606L13.1564 18.1605L13.1564 18.1603L13.1563 18.1602L13.1563 18.1601L13.1563 18.16L13.1563 18.1599L13.1563 18.1598L13.1562 18.1596L13.1562 18.1595L13.1562 18.1594L13.1562 18.1594L13.1562 18.1594L13.1562 18.1594L13.1562 18.1594L13.1562 18.1593L13.1562 18.1593L13.1562 18.1593L13.1562 18.1593L13.1562 18.1593L13.1562 18.1593L13.1562 18.1593L13.1562 18.1592L13.1562 18.1592L13.1561 18.1592L13.1561 18.1592L13.1561 18.1592L13.1561 18.1592L13.1561 18.1592L13.1561 18.1591C13.101 17.8774 13.046 17.5969 12.9748 17.322C12.9306 17.221 12.8807 17.1226 12.8252 17.0275C12.6549 16.584 12.3936 16.1824 12.0586 15.8495C11.5778 15.3727 10.991 15.0208 10.3478 14.8235C9.8392 14.6637 9.30958 14.5836 8.77721 14.586H3.61667C3.43904 14.586 3.3736 14.6335 3.3736 14.814V23.1455C3.38296 23.2085 3.38296 23.2725 3.3736 23.3355C3.35007 23.4098 3.35654 23.4906 3.3916 23.5601C3.42667 23.6296 3.48745 23.6821 3.56058 23.706C3.60498 23.736 3.65687 23.7524 3.71016 23.7535H6.41196L6.38391 23.6965ZM29.8856 12.0484H23.9304L18.1248 12.0579C18.0439 12.0579 17.9762 12.0525 17.9196 12.048C17.6756 12.0286 17.6387 12.0256 17.6387 12.5424V25.8424C17.6387 25.9944 17.6854 26.1179 17.835 26.1179H18.4801H29.951C30.0276 26.0997 30.0941 26.0517 30.1361 25.9841C30.1781 25.9166 30.1922 25.8349 30.1754 25.7569V25.1679C30.1567 24.8135 30.1567 24.4583 30.1754 24.1039C30.2128 23.8189 30.1006 23.6289 29.7734 23.6289H20.4246C20.3808 23.6265 20.3379 23.6152 20.2984 23.5956C20.259 23.576 20.2238 23.5485 20.195 23.5149C20.1662 23.4812 20.1444 23.442 20.1309 23.3995C20.1173 23.3571 20.1123 23.3123 20.1161 23.2679V14.7939C20.1135 14.7664 20.1163 14.7387 20.1244 14.7123C20.1324 14.686 20.1455 14.6615 20.1629 14.6403C20.1802 14.6191 20.2016 14.6016 20.2256 14.5888C20.2497 14.5761 20.276 14.5683 20.3031 14.5659H29.521C29.6842 14.5531 29.8465 14.5309 30.0071 14.4994C30.0699 14.4836 30.1246 14.4447 30.1609 14.3904C30.1971 14.336 30.2123 14.2699 30.2035 14.2049C30.153 13.9614 30.1342 13.7123 30.1474 13.4639V12.4189C30.1518 12.4034 30.1518 12.3869 30.1474 12.3714C30.1512 12.3327 30.1475 12.2936 30.1364 12.2563C30.1253 12.2191 30.1071 12.1845 30.0828 12.1544C30.0584 12.1244 30.0285 12.0996 29.9946 12.0813C29.9608 12.0631 29.9237 12.0519 29.8856 12.0484ZM70.8626 12.045H71.7974C72.0966 12.045 72.1994 12.1685 72.1994 12.4725V25.7725C72.1994 26.048 72.1153 26.143 71.8535 26.143H70.4512C70.2831 26.1525 70.1145 26.1525 69.9464 26.143C69.6192 26.143 69.6192 25.9055 69.6472 25.6965C69.6566 25.513 69.6566 25.3291 69.6472 25.1455V12.7955C69.6569 12.6225 69.6379 12.4491 69.5911 12.2825C69.535 12.121 69.6659 11.9785 69.8809 11.9785L70.8626 12.045ZM25.7362 20.0855H22.2678C21.8752 20.0855 21.7723 19.9145 21.8191 19.5155C21.8565 19.1174 21.8565 18.7166 21.8191 18.3185C21.8191 18.043 21.8191 17.9385 22.1369 17.9385H29.2981C29.5412 17.9385 29.6814 18.0525 29.6721 18.3565C29.6658 18.5587 29.6679 18.8744 29.67 19.1917V19.1918V19.192V19.1921V19.1922V19.1923V19.1924V19.1925V19.1926V19.1927V19.1927C29.671 19.3521 29.6721 19.512 29.6721 19.658C29.6721 19.924 29.5412 20.0855 29.2233 20.095H25.7362V20.0855ZM21.863 34.7608L22.9007 34.8558L22.9381 34.7988H23.4242C23.8389 34.8169 24.2494 34.7077 24.6022 34.4853C24.7598 34.3932 24.8958 34.2673 25.0008 34.1163C25.1057 33.9654 25.177 33.7931 25.2098 33.6113C25.2357 33.4023 25.2109 33.19 25.1376 32.993C25.0643 32.7959 24.9446 32.6201 24.7891 32.4808C24.5648 32.2623 24.5741 32.1958 24.7891 31.9773C24.9393 31.7951 25.0292 31.5694 25.046 31.3324C25.0628 31.0953 25.0056 30.8589 24.8826 30.6568C24.7826 30.4767 24.6485 30.3185 24.488 30.1914C24.3276 30.0642 24.144 29.9705 23.9478 29.9158C23.7501 29.8588 23.5456 29.83 23.3401 29.8303C22.7875 29.7866 22.2318 29.8121 21.6853 29.9063C21.6322 29.9106 21.5823 29.934 21.5447 29.9723C21.507 30.0106 21.4839 30.0613 21.4797 30.1153C21.4703 30.2766 21.4703 30.4384 21.4797 30.5998V34.2573C21.4797 34.5803 21.5919 34.7608 21.863 34.7608ZM23.4523 33.8298H23.2559L23.284 33.8678C23.1364 33.8587 22.9896 33.8397 22.8446 33.8108C22.6576 33.7728 22.6576 33.6493 22.6576 33.4783C22.667 33.3138 22.667 33.1488 22.6576 32.9843C22.6532 32.9738 22.651 32.9625 22.651 32.951C22.651 32.9396 22.6532 32.9283 22.6576 32.9178C22.6691 32.853 22.7046 32.7953 22.7568 32.7564C22.809 32.7175 22.8739 32.7004 22.9381 32.7088C23.1277 32.6898 23.3187 32.6898 23.5084 32.7088C23.6197 32.7275 23.7232 32.7788 23.8062 32.8564C23.8893 32.9341 23.9482 33.0346 23.9758 33.1458C24.0072 33.2447 24.0088 33.3508 23.9805 33.4507C23.9522 33.5505 23.8952 33.6395 23.8169 33.7063C23.7044 33.7712 23.5806 33.8132 23.4523 33.8298ZM22.7137 31.4548V31.3503H22.695V31.0558C22.6937 31.0288 22.6979 31.0018 22.7072 30.9765C22.7165 30.9512 22.7307 30.9281 22.7491 30.9085C22.7675 30.889 22.7895 30.8734 22.814 30.8628C22.8384 30.8522 22.8647 30.8468 22.8913 30.8468C23.1496 30.8278 23.409 30.8278 23.6673 30.8468C23.7744 30.8726 23.8697 30.9346 23.9376 31.0226C24.0056 31.1106 24.0421 31.2194 24.0412 31.3313C24.049 31.433 24.0215 31.5344 23.9634 31.6177C23.9053 31.7009 23.8204 31.761 23.7234 31.7873C23.4942 31.8453 23.2583 31.8709 23.0222 31.8633C22.7698 31.8443 22.7137 31.7303 22.7137 31.4548ZM2.38253 29.8135C2.69592 29.8162 3.00857 29.8448 3.31741 29.899C3.60008 29.9567 3.86049 30.0957 4.06765 30.2995C4.27482 30.5033 4.42003 30.7633 4.48601 31.0485C4.56498 31.3516 4.54265 31.6729 4.42251 31.9617C4.30237 32.2506 4.09123 32.4908 3.82224 32.6445C3.7835 32.6613 3.75189 32.6915 3.73305 32.7298C3.71421 32.7681 3.70938 32.8119 3.71941 32.8535V32.901C3.93443 33.319 4.14945 33.7275 4.37382 34.136C4.4214 34.221 4.47781 34.3007 4.5421 34.3735C4.69168 34.5825 4.60754 34.782 4.36447 34.7915C4.09992 34.8106 3.83437 34.8106 3.56982 34.7915C3.52215 34.7788 3.47759 34.7563 3.43896 34.7252C3.40034 34.6941 3.36849 34.6552 3.34545 34.611C3.13043 34.231 2.91541 33.8415 2.71908 33.452C2.71908 33.3849 2.66735 33.312 2.61797 33.2425L2.61796 33.2425L2.6179 33.2424C2.60433 33.2233 2.59094 33.2044 2.57885 33.186C2.51576 33.1019 2.43189 33.0364 2.33578 32.996C2.11141 32.939 2.01792 32.996 2.02727 33.2905C2.03352 33.4873 2.03142 33.612 2.02933 33.7354C2.0283 33.7967 2.02727 33.8577 2.02727 33.927C2.01771 34.0376 2.01771 34.1489 2.02727 34.2595C2.08336 34.6205 2.02727 34.7915 1.63462 34.8105H1.07369C0.942812 34.8105 0.886719 34.706 0.886719 34.5635V30.1745C0.886719 29.956 0.989555 29.9085 1.18588 29.8895L2.38253 29.8135ZM2.50406 30.811H2.33578C2.27036 30.8083 2.20648 30.8316 2.15764 30.8759C2.1088 30.9203 2.07881 30.9821 2.07402 31.0485V31.7325C2.0681 31.8048 2.08869 31.8768 2.13183 31.9347C2.17496 31.9925 2.23761 32.0322 2.30774 32.046H2.36383H2.93411C3.00772 32.0475 3.08039 32.0289 3.14453 31.9921C3.20866 31.9554 3.26191 31.9018 3.29871 31.837C3.37967 31.7018 3.40732 31.5405 3.37611 31.3854C3.3449 31.2303 3.25713 31.093 3.13043 31.001C2.94171 30.8874 2.72242 30.8375 2.50406 30.8585V30.811ZM35.3651 33.6698C35.4922 33.2456 35.5367 32.8003 35.496 32.3588L35.5147 31.7698C35.5203 31.4354 35.4362 31.1058 35.2715 30.8163C35.1068 30.5268 34.8677 30.2883 34.5798 30.1263C34.2752 29.9455 33.931 29.8448 33.5784 29.8332C33.2259 29.8216 32.876 29.8994 32.5605 30.0598C32.1983 30.2395 31.9126 30.5467 31.7565 30.9243C31.6386 31.2657 31.5847 31.6266 31.5976 31.9883V33.0903C31.6061 33.4743 31.7362 33.8452 31.9686 34.1481C32.201 34.451 32.5233 34.6697 32.8877 34.7718C33.1278 34.8191 33.3725 34.8382 33.6169 34.8288C33.9953 34.8624 34.3731 34.758 34.6827 34.5343C34.9896 34.3214 35.2272 34.0205 35.3651 33.6698ZM32.7568 33.0428V32.5298L32.7662 31.5228C32.7754 31.3867 32.825 31.2566 32.9084 31.1498C32.9919 31.0429 33.1053 30.9643 33.2336 30.9243C33.349 30.8747 33.4762 30.8609 33.5993 30.8846C33.7224 30.9082 33.8358 30.9683 33.9254 31.0573C34.02 31.1489 34.0947 31.2596 34.1446 31.3823C34.1946 31.505 34.2186 31.637 34.2152 31.7698V32.8813C34.2283 33.1356 34.1558 33.3869 34.0096 33.5938C33.8693 33.7359 33.6794 33.8157 33.4813 33.8157C33.2833 33.8157 33.0933 33.7359 32.9531 33.5938C32.8229 33.4411 32.753 33.2448 32.7568 33.0428ZM14.929 32.4066C14.9277 32.7752 14.9027 33.1433 14.8542 33.5086C14.7625 33.9259 14.5144 34.2906 14.1624 34.5251C13.8646 34.7517 13.4955 34.8598 13.1247 34.8291C12.8648 34.8382 12.6046 34.819 12.3487 34.7721C11.9735 34.6559 11.6455 34.4192 11.4138 34.0976C11.2751 33.8769 11.1887 33.6265 11.1614 33.3661C11.0024 32.6007 11.0119 31.8092 11.1895 31.0481C11.3009 30.7563 11.4839 30.4983 11.7212 30.2988C11.9585 30.0992 12.2421 29.9647 12.545 29.9081C12.9185 29.8412 13.3019 29.8607 13.6669 29.9651C14.0035 30.074 14.2989 30.2857 14.513 30.5712C14.7271 30.8568 14.8495 31.2024 14.8635 31.5611C14.8673 31.6516 14.8783 31.751 14.8903 31.8589C14.9086 32.0228 14.929 32.206 14.929 32.4066ZM12.1898 32.4066V33.0621C12.1935 33.2629 12.27 33.4553 12.4045 33.6025C12.539 33.7497 12.7222 33.8414 12.919 33.8601C13.0835 33.8819 13.25 33.8375 13.3827 33.7363C13.5155 33.6351 13.6041 33.4852 13.6295 33.3186C13.7042 32.7479 13.7042 32.1697 13.6295 31.5991C13.6327 31.4904 13.6111 31.3825 13.5664 31.2838C13.5216 31.185 13.455 31.0982 13.3716 31.0301C13.2883 30.962 13.1905 30.9144 13.086 30.8911C12.9815 30.8679 12.8732 30.8696 12.7694 30.8961C12.6398 30.9236 12.5207 30.9884 12.4262 31.0827C12.3318 31.177 12.2659 31.2969 12.2365 31.4281C12.184 31.7422 12.1528 32.0596 12.143 32.3781L12.1898 32.4066ZM69.2923 34.7614L70.1524 34.8469C70.4098 34.8334 70.666 34.8017 70.919 34.7519C71.2053 34.6777 71.4666 34.5264 71.6755 34.3142C71.8844 34.1019 72.0332 33.8363 72.1063 33.5454C72.1157 33.4824 72.1157 33.4184 72.1063 33.3554C72.0922 33.1468 72.0339 32.9438 71.9355 32.7602C71.8371 32.5765 71.7008 32.4167 71.536 32.2914C71.3096 32.1279 71.068 31.9876 70.8281 31.8483L70.828 31.8482C70.6916 31.769 70.5557 31.6901 70.4235 31.6074C70.2811 31.5137 70.1438 31.4123 70.0122 31.3034C69.9664 31.2676 69.9346 31.2164 69.9226 31.1589C69.9106 31.1015 69.9192 31.0415 69.9467 30.9899C69.9728 30.9454 70.008 30.907 70.0499 30.8775C70.0919 30.848 70.1396 30.828 70.1898 30.8189C70.5991 30.8076 71.0087 30.8299 71.4145 30.8854C71.4834 30.9028 71.5554 30.9029 71.6243 30.8858C71.6932 30.8687 71.7571 30.835 71.8104 30.7873C71.8637 30.7397 71.9048 30.6797 71.9303 30.6124C71.9558 30.5451 71.9649 30.4725 71.9567 30.4009C71.9361 30.3027 71.9048 30.2071 71.8632 30.1159C71.837 30.0466 71.7909 29.9869 71.7309 29.9446C71.6709 29.9022 71.5997 29.8792 71.5267 29.8784H69.8532C69.6938 29.8936 69.539 29.9409 69.3977 30.0176C69.2565 30.0942 69.1316 30.1987 69.0306 30.3249L68.9464 30.4484C68.8569 30.5924 68.7964 30.7529 68.7682 30.9207C68.7399 31.0885 68.7447 31.2604 68.782 31.4263C68.8194 31.5923 68.8886 31.7492 68.9858 31.8878C69.083 32.0265 69.2063 32.1443 69.3484 32.2344C69.5851 32.4088 69.8292 32.5641 70.0737 32.7196L70.0738 32.7197L70.074 32.7198C70.2158 32.81 70.3577 32.9003 70.4983 32.9944C70.6103 33.0718 70.7084 33.1682 70.7881 33.2794C70.8337 33.3356 70.8587 33.4061 70.8587 33.4789C70.8587 33.5517 70.8337 33.6223 70.7881 33.6784C70.7194 33.7455 70.6365 33.7958 70.5458 33.8254C70.4551 33.8551 70.3589 33.8633 70.2646 33.8494H69.2643C68.881 33.8494 68.881 33.9254 68.881 34.2674C68.9184 34.5429 69.0025 34.7614 69.2923 34.7614ZM59.4484 32.2982V31.3482C59.4638 30.996 59.5993 30.6602 59.8317 30.3982C59.9683 30.2185 60.1386 30.068 60.3327 29.9555C60.5269 29.843 60.7411 29.7707 60.9629 29.7427C61.3842 29.6762 61.813 29.6762 62.2343 29.7427C62.2938 29.754 62.3483 29.7839 62.3902 29.8281C62.4321 29.8724 62.4593 29.9289 62.468 29.9897C62.4965 30.0857 62.5153 30.1844 62.5241 30.2842C62.5241 30.6262 62.4306 30.7307 62.1128 30.7117H61.3742C61.1921 30.7115 61.0168 30.7823 60.8846 30.9096C60.7524 31.0369 60.6733 31.2109 60.6637 31.3957V32.9062C60.6547 33.0239 60.67 33.1421 60.7086 33.2534C60.7473 33.3646 60.8084 33.4664 60.8881 33.5522C60.9552 33.617 61.0345 33.6673 61.1213 33.7C61.2081 33.7326 61.3005 33.747 61.3929 33.7422H62.2063C62.4587 33.7422 62.5615 33.8467 62.5615 34.1032V34.4452C62.5615 34.5497 62.4026 34.7112 62.1969 34.7207C61.8544 34.7397 61.5111 34.7397 61.1685 34.7207C60.9035 34.7276 60.6408 34.669 60.4031 34.5498C60.1653 34.4307 59.9596 34.2546 59.8036 34.0367C59.5513 33.7172 59.4218 33.3155 59.439 32.9062C59.4528 32.7039 59.4559 32.5009 59.4484 32.2982ZM44.8449 29.832H43.3865L43.2837 29.9365H42.0029C41.7131 29.9365 41.6102 30.003 41.6102 30.2975V30.4495C41.5728 30.706 41.6944 30.8865 41.9001 30.8865C41.9683 30.8865 42.0365 30.8855 42.105 30.8844H42.1051C42.2432 30.8823 42.3827 30.8802 42.5264 30.8865C42.7414 30.896 42.863 30.991 42.863 31.1905V34.354C42.8443 34.582 42.8817 34.7055 43.0874 34.772C43.324 34.829 43.5705 34.829 43.8072 34.772C43.8932 34.7602 43.9714 34.715 44.0254 34.646C44.0794 34.5769 44.105 34.4893 44.097 34.4015C44.0581 34.0261 44.0425 33.6485 44.0503 33.271V31.0955C44.0503 30.896 44.1344 30.82 44.3401 30.82H44.901C45.1628 30.7915 45.2937 30.706 45.2937 30.402V30.212C45.2563 29.927 45.1441 29.832 44.8449 29.832ZM52.8551 32.2342V34.5902C52.8551 34.6431 52.8344 34.6939 52.7976 34.7313C52.7608 34.7687 52.7108 34.7897 52.6588 34.7897C52.3843 34.8468 52.1012 34.8468 51.8267 34.7897C51.6678 34.7897 51.6117 34.6377 51.6397 34.4572C51.6538 34.3151 51.6538 34.1719 51.6397 34.0297V30.1632C51.6397 29.9732 51.6397 29.8782 51.8548 29.8687C52.1131 29.8497 52.3724 29.8497 52.6307 29.8687C52.7616 29.8687 52.8457 30.0112 52.8457 30.1727L52.8551 32.2342ZM41.4812 20.6516C41.4323 20.8484 41.3634 21.0394 41.2755 21.2216C40.9202 21.8011 40.5556 22.3806 40.191 22.9506C40.0675 23.1431 39.9295 23.3355 39.7962 23.5214L39.7423 23.5966C39.6872 23.6776 39.6577 23.7737 39.6577 23.8721C39.6577 23.9706 39.6872 24.0667 39.7423 24.1476C39.8609 24.3699 39.961 24.6019 40.0414 24.8411C40.1063 25.1063 40.15 25.3763 40.1723 25.6486C40.1805 25.7139 40.1638 25.7798 40.1255 25.8329C40.0872 25.8859 40.0303 25.922 39.9666 25.9336H31.9641C31.8958 25.9431 31.8266 25.9431 31.7584 25.9336C31.4966 25.8671 31.4592 25.7816 31.534 25.5156C31.5776 25.3606 31.5926 25.2476 31.6068 25.1407C31.617 25.0642 31.6267 24.9909 31.6462 24.9076C31.8232 24.1385 32.2317 23.4444 32.8148 22.9221C32.8767 22.871 32.9337 22.8167 32.99 22.7632L32.99 22.7631L32.99 22.7631L32.9901 22.7631L32.9901 22.7631L32.9901 22.763C33.0698 22.6872 33.1479 22.6129 33.2355 22.5516C33.4152 22.4102 33.6095 22.2891 33.8151 22.1906C34.1744 22.011 34.5463 21.8586 34.9276 21.7346C35.1586 21.689 35.3935 21.6667 35.6288 21.6681C35.7514 21.6583 35.8685 21.6121 35.9654 21.5351C36.2137 21.3235 36.4414 21.0909 36.6721 20.8554L36.7881 20.7371L37.7884 19.7871C37.9193 19.6446 38.0595 19.4926 38.2091 19.3596C38.3587 19.2266 38.4802 19.2266 38.6017 19.4071C38.8489 19.823 39.1992 20.1656 39.6175 20.4006C40.0359 20.6357 40.5077 20.755 40.9857 20.7466L41.4812 20.6516ZM36.3969 12.294L36.2286 12.2275C36.1365 12.2753 36.0515 12.3361 35.9762 12.408C35.7685 12.7647 35.4337 13.0266 35.0413 13.1395C34.7608 13.206 34.7421 13.377 34.9198 13.586L36.0884 14.9825L37.472 16.588C37.5832 16.7452 37.7051 16.8944 37.8366 17.0345C37.8957 17.1104 37.9649 17.1775 38.0423 17.234C38.1357 17.2815 38.2386 17.2625 38.2386 17.1295C38.3317 16.7151 38.5177 16.3281 38.782 15.9985C39.0463 15.669 39.3818 15.4059 39.7624 15.2295C39.8372 15.163 39.8279 15.0965 39.7624 15.0205L39.6689 14.935L38.304 13.814L36.7989 12.579L36.3969 12.294ZM42.6673 17.7862C42.6751 18.2201 42.5166 18.6401 42.2253 18.9574C41.934 19.2748 41.5326 19.4645 41.1061 19.4867H41.0313C40.8127 19.4867 40.5964 19.4429 40.3945 19.3579C40.1926 19.273 40.0091 19.1484 39.8546 18.9914C39.7001 18.8343 39.5775 18.6479 39.4939 18.4428C39.4102 18.2376 39.3672 18.0177 39.3672 17.7957C39.3987 17.3678 39.5882 16.9679 39.8977 16.6761C40.2072 16.3843 40.6138 16.2222 41.0359 16.2222C41.4581 16.2222 41.8647 16.3843 42.1742 16.6761C42.4837 16.9679 42.6732 17.3678 42.7047 17.7957L42.6673 17.7862ZM36.2416 11.0811C36.3253 11.1662 36.4358 11.2187 36.5538 11.2293L36.7034 11.2103C37.0676 11.1235 37.4172 10.9826 37.7411 10.7923C37.8871 10.718 38.0114 10.6061 38.1016 10.4677C38.1918 10.3294 38.2448 10.1694 38.2553 10.0038C38.2459 9.93766 38.2459 9.87049 38.2553 9.80433C38.4236 9.09183 38.6012 8.37933 38.7788 7.67633C38.811 7.58247 38.8194 7.48186 38.803 7.38386C38.7867 7.28585 38.7462 7.19365 38.6853 7.11583C38.5451 6.91633 38.0403 6.91633 37.9748 7.17283C37.9421 7.30093 37.9025 7.43614 37.8628 7.57136L37.8627 7.5715L37.8626 7.57183C37.8229 7.7072 37.7832 7.84258 37.7504 7.97083C37.7154 8.10818 37.6911 8.23192 37.6646 8.36683L37.6645 8.36694C37.6415 8.48393 37.6169 8.60934 37.5822 8.75933C37.5141 9.08018 37.4299 9.39727 37.3297 9.70933C37.3119 9.77543 37.2812 9.83724 37.2394 9.89108C37.1977 9.94493 37.1457 9.98972 37.0867 10.0228L36.3575 10.3553C36.0957 10.4503 36.0957 10.5548 36.0957 10.7638C36.1062 10.8837 36.1578 10.996 36.2416 11.0811ZM34.5052 10.5637C34.7407 10.5629 34.9678 10.6525 35.1412 10.8145C35.3145 10.9766 35.4212 11.1991 35.4401 11.4377V11.4852C35.4401 11.7371 35.3416 11.9787 35.1663 12.1569C34.9909 12.3351 34.7531 12.4352 34.5052 12.4352C34.2572 12.4352 34.0195 12.3351 33.8441 12.1569C33.6688 11.9787 33.5703 11.7371 33.5703 11.4852C33.5703 11.2332 33.6688 10.9916 33.8441 10.8134C34.0195 10.6352 34.2572 10.5352 34.5052 10.5352V10.5637ZM33.3393 9.08188C33.3695 9.21972 33.3914 9.35932 33.4048 9.49988H33.3206V9.66138C33.3174 9.72852 33.3384 9.79456 33.3797 9.84705C33.4211 9.89954 33.4798 9.93487 33.545 9.94638H33.6665C33.8088 9.9464 33.9453 9.88965 34.0467 9.78837C34.1481 9.68708 34.2063 9.54936 34.2088 9.40488C34.2182 9.23084 34.2182 9.05641 34.2088 8.88238V8.80638C34.2128 8.7876 34.2128 8.76815 34.2088 8.74938C34.1954 8.71322 34.175 8.6802 34.1487 8.65232C34.1224 8.62443 34.0909 8.60226 34.0559 8.58716C34.0209 8.57206 33.9833 8.56433 33.9453 8.56445C33.9073 8.56458 33.8697 8.57255 33.8348 8.58788C33.7389 8.57897 33.6423 8.59533 33.5544 8.63538C33.4691 8.66764 33.3992 8.73194 33.3592 8.81503C33.3192 8.89811 33.3121 8.99363 33.3393 9.08188Z" fill="url(#paint0_linear_4564_4272)"/>
<defs>
<linearGradient id="paint0_linear_4564_4272" x1="0.886719" y1="19.3927" x2="72.1994" y2="19.3927" gradientUnits="userSpaceOnUse">
<stop stop-color="#950F23"/>
<stop offset="1" stop-color="#00459C"/>
</linearGradient>
</defs>
</svg>
