<svg width="92" height="101" viewBox="0 0 92 101" fill="none" xmlns="http://www.w3.org/2000/svg">
<g clip-path="url(#clip0_1736_1207)">
<path d="M0.690908 25.7912L46.0185 0.800781L91.3461 25.7912L91.3215 25.8485H91.5313V75.6907H91.2003L91.2477 75.8011L45.9693 100.802L0.690908 75.8011L0.73828 75.6903H0.537109V25.8488H0.715517L0.690908 25.7912Z" fill="#112244"/>
<path d="M4.75715 27.8565L46.0054 4.92969L87.2533 27.8565L87.2312 27.9088H87.4219V73.6359H87.1207L87.1638 73.7374L45.9605 96.6738L4.75715 73.7371L4.80021 73.6356H4.61719V27.9094H4.77929L4.75715 27.8571V27.8565Z" fill="#C6D0DB"/>
<path d="M8.53524 29.9064L46.0012 9.08203L83.4673 29.9064L83.447 29.9544H83.6201V40.2017H8.4082V29.9544H8.55585L8.53524 29.9064ZM8.53524 70.943L46.0012 91.7674L83.4673 70.943L83.447 70.895H83.6201V60.6477H8.4082V70.895H8.55585L8.53524 70.943Z" fill="#112244"/>
<path d="M50.6412 19.3659L46.0321 14.7305L42.6692 18.1126L38.8086 21.9952L40.5937 23.7906L41.5693 21.181H43.4177L42.1694 24.4907C41.2441 24.3349 40.5741 24.1044 40.5741 23.7906V24.7936C40.5741 25.2743 42.8154 25.7747 46.0343 25.7747C49.2511 25.7747 51.4945 25.2743 51.4945 24.7936V23.7906C51.4945 24.1044 50.8267 24.3327 49.9036 24.4907L49.0852 22.2257H50.9118L51.4923 23.7906L53.2579 21.9952L50.6412 19.3659ZM48.9499 24.6202C48.3912 24.6795 47.7998 24.7212 47.2346 24.7453L46.0343 21.2644L45.432 22.9983L44.8122 24.7453C44.2535 24.7212 43.6687 24.6795 43.1165 24.6202L45.264 18.9269H46.8418L47.5467 20.8474L48.9499 24.6202Z" fill="white"/>
<path d="M37.2843 33.4035L36.8478 31.9001H34.6895L34.253 33.4035H32.9043L34.9382 27.0781H36.5575L38.6133 33.4035H37.2843ZM36.5575 30.7742L36.1625 29.3958C36.1407 29.3541 36.1211 29.2488 36.0796 29.1456C36.0381 29.0205 36.0163 28.8954 35.9748 28.7484C35.9334 28.6013 35.8919 28.4565 35.8701 28.3094C35.8286 28.1624 35.8068 28.0373 35.7872 27.9341C35.7653 27.9977 35.7653 28.0811 35.7457 28.1645C35.7239 28.248 35.7042 28.3533 35.6824 28.4367C35.6606 28.5421 35.6409 28.6255 35.5995 28.7286C35.5777 28.834 35.558 28.9174 35.5166 29.0008C35.4947 29.0842 35.4751 29.1676 35.4533 29.2312C35.4314 29.2949 35.4118 29.3366 35.4118 29.3783L35.0212 30.7522L36.5575 30.7742ZM41.3107 33.4869C40.9571 33.4869 40.6472 33.4452 40.3766 33.3399C40.106 33.2345 39.8572 33.0897 39.6717 32.9009C39.484 32.6924 39.3182 32.4422 39.2156 32.1283C39.1109 31.8145 39.0498 31.4392 39.0498 31.0002C39.0498 30.5196 39.1131 30.1223 39.2156 29.7887C39.3204 29.4748 39.4644 29.2049 39.6717 29.0161C39.8594 28.8274 40.1082 28.6825 40.3766 28.5991C40.6472 28.5157 40.9571 28.474 41.291 28.474C41.5398 28.474 41.7886 28.496 42.0177 28.5574C42.2665 28.6211 42.4957 28.7045 42.703 28.8076L42.3298 29.8106C42.1421 29.7272 41.9566 29.6636 41.7908 29.6021C41.6249 29.5385 41.4591 29.5187 41.2932 29.5187C40.9811 29.5187 40.7542 29.6438 40.608 29.8743C40.4617 30.1245 40.4006 30.4801 40.4006 30.9607C40.4006 31.4414 40.4639 31.7947 40.608 32.0252C40.7542 32.2556 40.9811 32.3807 41.2714 32.3807C41.5202 32.3807 41.7493 32.339 41.9566 32.2754C42.164 32.2118 42.3713 32.1283 42.5786 32.0252V33.1314C42.4739 33.1731 42.3713 33.2367 42.2665 33.2784C42.1618 33.3201 42.0592 33.3421 41.9545 33.3838C41.8497 33.4057 41.7471 33.4255 41.6424 33.4474C41.5616 33.4869 41.4372 33.4869 41.3107 33.4869ZM45.0075 33.4035H43.7003V28.5816H45.0075V33.4035ZM48.4949 33.4869C48.1414 33.4869 47.8315 33.4452 47.5391 33.3399C47.2488 33.2345 47 33.0897 46.7927 32.8812C46.5854 32.6727 46.4195 32.4225 46.3148 32.1086C46.1904 31.7947 46.1489 31.4414 46.1489 31.0222C46.1489 30.603 46.2122 30.2299 46.3148 29.916C46.4195 29.6021 46.5636 29.3322 46.7512 29.1237C46.9389 28.9152 47.1659 28.7484 47.4365 28.643C47.7071 28.5377 47.9974 28.4762 48.3291 28.4762C48.6411 28.4762 48.9314 28.5179 49.1802 28.6233C49.429 28.7286 49.6581 28.8537 49.824 29.0403C50.0117 29.229 50.136 29.4573 50.2386 29.7294C50.3434 30.0016 50.3848 30.3133 50.3848 30.6688V31.3163H47.4561C47.4561 31.505 47.4976 31.6718 47.5391 31.8167C47.6023 31.9637 47.6635 32.0888 47.7682 32.192C47.873 32.2973 47.9755 32.3807 48.1217 32.4225C48.268 32.4861 48.412 32.5059 48.5779 32.5059C48.7241 32.5059 48.8681 32.5059 48.9925 32.4839C49.1169 32.462 49.2413 32.4422 49.3657 32.4203C49.4901 32.3786 49.6145 32.3566 49.7389 32.2952C49.8633 32.2535 49.9876 32.1898 50.112 32.1283V33.1511C49.9876 33.2148 49.8829 33.2565 49.7585 33.2982C49.6341 33.3399 49.5294 33.3816 49.3853 33.4035C49.2609 33.4255 49.1147 33.4452 48.9707 33.4672C48.8266 33.4869 48.6804 33.4869 48.4949 33.4869ZM48.3291 29.4178C48.0999 29.4178 47.9144 29.5012 47.7486 29.668C47.6023 29.8348 47.4998 30.085 47.478 30.4406H49.1387C49.1387 30.2935 49.1169 30.1486 49.0754 30.0433C49.034 29.9182 48.9925 29.8128 48.9292 29.7294C48.8659 29.646 48.783 29.5626 48.6804 29.5209C48.5779 29.4595 48.4731 29.4178 48.3291 29.4178ZM53.4357 32.4444C53.5601 32.4444 53.6845 32.4225 53.8089 32.4027C53.9333 32.3829 54.0381 32.339 54.1625 32.2973V33.2784C54.0381 33.3421 53.8918 33.4035 53.7064 33.4452C53.5187 33.4869 53.3332 33.5089 53.104 33.5089C52.8967 33.5089 52.709 33.4869 52.5235 33.4452C52.3358 33.4035 52.1918 33.3201 52.0456 33.195C51.9212 33.0699 51.8164 32.9031 51.7335 32.6946C51.6506 32.4861 51.6288 32.2359 51.6288 31.922V29.5626H51.0068V28.9986L51.7335 28.5596L52.1067 27.5368H52.936V28.5596H54.0992V29.5407H52.936V31.8584C52.936 32.0471 52.9774 32.192 53.0822 32.2754C53.1651 32.4027 53.2895 32.4444 53.4357 32.4444ZM54.4527 28.5816H55.8843L56.6525 31.2965C56.694 31.4436 56.7354 31.6104 56.7573 31.7772C56.7791 31.944 56.7987 32.091 56.7987 32.2359H56.8205C56.8205 32.1722 56.8424 32.0888 56.8424 32.0054C56.8424 31.922 56.8642 31.8386 56.8838 31.7552C56.9057 31.6718 56.9057 31.5884 56.9253 31.505C56.9471 31.4216 56.9668 31.358 56.9886 31.2746L57.7349 28.5596H59.1666L57.2767 34.0093C57.089 34.5097 56.862 34.907 56.5499 35.1374C56.2379 35.3876 55.8647 35.5127 55.4086 35.5127C55.2624 35.5127 55.138 35.5127 55.0136 35.4908C54.9088 35.4688 54.8062 35.4491 54.743 35.4491V34.4044C54.8062 34.4263 54.8674 34.4263 54.9721 34.4461C55.055 34.468 55.1598 34.468 55.2624 34.468C55.4086 34.468 55.5111 34.4461 55.6159 34.4044C55.7206 34.3626 55.8036 34.3209 55.8647 34.2375C55.928 34.1739 55.9891 34.0905 56.0524 33.9873C56.0938 33.882 56.1353 33.7788 56.1768 33.6735L56.2597 33.4233L54.4527 28.5816Z" fill="white"/>
<path d="M13.2229 46.6146H11.8747L11.8675 45.872H12.9994C13.1989 45.872 13.3623 45.8468 13.4896 45.7963C13.617 45.7435 13.7119 45.6678 13.7744 45.5692C13.8393 45.4683 13.8717 45.3458 13.8717 45.2016C13.8717 45.0382 13.8405 44.906 13.778 44.8051C13.7179 44.7041 13.623 44.6308 13.4932 44.5852C13.3659 44.5395 13.2013 44.5167 12.9994 44.5167H12.2496V48.918H11.1682V43.6696H12.9994C13.3046 43.6696 13.5773 43.6984 13.8177 43.7561C14.0604 43.8138 14.2658 43.9015 14.4341 44.0192C14.6023 44.137 14.7308 44.286 14.8197 44.4662C14.9087 44.644 14.9531 44.8555 14.9531 45.1006C14.9531 45.3169 14.9039 45.5164 14.8053 45.699C14.7092 45.8816 14.5566 46.0306 14.3475 46.146C14.1409 46.2613 13.8705 46.325 13.5365 46.337L13.2229 46.6146ZM13.176 48.918H11.5792L12.0009 48.0745H13.176C13.3659 48.0745 13.5209 48.0444 13.641 47.9844C13.7612 47.9219 13.8501 47.8378 13.9078 47.732C13.9654 47.6263 13.9943 47.5049 13.9943 47.368C13.9943 47.2142 13.9678 47.0808 13.915 46.9678C13.8645 46.8549 13.7828 46.7684 13.6699 46.7083C13.5569 46.6458 13.4079 46.6146 13.2229 46.6146H12.1811L12.1883 45.872H13.486L13.7347 46.164C14.0544 46.1592 14.3115 46.2157 14.5061 46.3334C14.7032 46.4488 14.8462 46.599 14.9351 46.784C15.0264 46.969 15.0721 47.1673 15.0721 47.3788C15.0721 47.7152 14.9988 47.9988 14.8522 48.2295C14.7056 48.4578 14.4905 48.6296 14.207 48.7449C13.9258 48.8603 13.5821 48.918 13.176 48.918ZM18.1252 47.9844V45.0177H19.1634V48.918H18.1865L18.1252 47.9844ZM18.2406 47.1841L18.547 47.1769C18.547 47.4365 18.5169 47.678 18.4569 47.9015C18.3968 48.1225 18.3067 48.3148 18.1865 48.4782C18.0663 48.6392 17.915 48.7654 17.7323 48.8567C17.5497 48.9456 17.3346 48.9901 17.0871 48.9901C16.8972 48.9901 16.7218 48.9636 16.5608 48.9108C16.4022 48.8555 16.2652 48.7702 16.1499 48.6548C16.0369 48.5371 15.948 48.3869 15.8831 48.2042C15.8206 48.0192 15.7894 47.7969 15.7894 47.5374V45.0177H16.8275V47.5446C16.8275 47.6599 16.8408 47.7573 16.8672 47.8366C16.896 47.9159 16.9357 47.9808 16.9862 48.0312C17.0366 48.0817 17.0955 48.1177 17.1628 48.1394C17.2325 48.161 17.3094 48.1718 17.3935 48.1718C17.6074 48.1718 17.7756 48.1285 17.8981 48.042C18.0231 47.9555 18.1108 47.8378 18.1613 47.6888C18.2141 47.5374 18.2406 47.3692 18.2406 47.1841ZM22.0651 47.8402C22.0651 47.7657 22.0435 47.6984 22.0002 47.6383C21.957 47.5782 21.8765 47.523 21.7587 47.4725C21.6434 47.4196 21.4764 47.3716 21.2577 47.3283C21.0606 47.2851 20.8768 47.231 20.7062 47.1661C20.5379 47.0988 20.3914 47.0183 20.2664 46.9246C20.1438 46.8309 20.0477 46.7203 19.978 46.593C19.9083 46.4632 19.8735 46.3154 19.8735 46.1496C19.8735 45.9862 19.9083 45.8324 19.978 45.6882C20.0501 45.544 20.1522 45.4166 20.2844 45.3061C20.419 45.1932 20.5824 45.1054 20.7746 45.043C20.9693 44.9781 21.188 44.9456 21.4307 44.9456C21.7695 44.9456 22.0603 44.9997 22.303 45.1078C22.5481 45.216 22.7356 45.365 22.8654 45.5548C22.9975 45.7423 23.0636 45.9561 23.0636 46.1965H22.0255C22.0255 46.0955 22.0038 46.0054 21.9606 45.9261C21.9197 45.8444 21.8548 45.7807 21.7659 45.7351C21.6794 45.687 21.5665 45.663 21.4271 45.663C21.3117 45.663 21.212 45.6834 21.1279 45.7242C21.0438 45.7627 20.9789 45.8156 20.9333 45.8828C20.89 45.9477 20.8684 46.0198 20.8684 46.0991C20.8684 46.1592 20.8804 46.2133 20.9044 46.2613C20.9308 46.307 20.9729 46.349 21.0306 46.3875C21.0883 46.4259 21.1627 46.462 21.2541 46.4956C21.3478 46.5269 21.4631 46.5557 21.6001 46.5821C21.8813 46.6398 22.1324 46.7155 22.3535 46.8092C22.5746 46.9006 22.75 47.0255 22.8798 47.1841C23.0095 47.3403 23.0744 47.5458 23.0744 47.8005C23.0744 47.9735 23.036 48.1322 22.9591 48.2763C22.8822 48.4205 22.7716 48.5467 22.6274 48.6548C22.4833 48.7606 22.3102 48.8435 22.1084 48.9036C21.9089 48.9612 21.6842 48.9901 21.4343 48.9901C21.0714 48.9901 20.7638 48.9252 20.5115 48.7954C20.2616 48.6656 20.0717 48.501 19.942 48.3016C19.8146 48.0997 19.7509 47.893 19.7509 47.6816H20.735C20.7398 47.8234 20.7758 47.9375 20.8431 48.024C20.9128 48.1105 21.0005 48.173 21.1063 48.2115C21.2144 48.2499 21.331 48.2691 21.4559 48.2691C21.5905 48.2691 21.7022 48.2511 21.7912 48.2151C21.8801 48.1766 21.9474 48.1261 21.993 48.0637C22.0411 47.9988 22.0651 47.9243 22.0651 47.8402ZM24.8443 45.0177V48.918H23.8026V45.0177H24.8443ZM23.7377 44.0012C23.7377 43.8498 23.7905 43.7249 23.8963 43.6263C24.002 43.5278 24.1438 43.4785 24.3216 43.4785C24.4971 43.4785 24.6376 43.5278 24.7434 43.6263C24.8515 43.7249 24.9056 43.8498 24.9056 44.0012C24.9056 44.1526 24.8515 44.2776 24.7434 44.3761C24.6376 44.4746 24.4971 44.5239 24.3216 44.5239C24.1438 44.5239 24.002 44.4746 23.8963 44.3761C23.7905 44.2776 23.7377 44.1526 23.7377 44.0012ZM26.7187 45.8504V48.918H25.6806V45.0177H26.6538L26.7187 45.8504ZM26.5673 46.8309H26.2862C26.2862 46.5425 26.3234 46.283 26.3979 46.0523C26.4724 45.8192 26.5769 45.6209 26.7115 45.4575C26.8461 45.2917 27.0059 45.1655 27.1909 45.079C27.3784 44.9901 27.5875 44.9456 27.8182 44.9456C28.0008 44.9456 28.1678 44.9721 28.3192 45.0249C28.4706 45.0778 28.6004 45.1619 28.7085 45.2773C28.819 45.3926 28.9032 45.5452 28.9608 45.7351C29.0209 45.9249 29.0509 46.1568 29.0509 46.4308V48.918H28.0056V46.4271C28.0056 46.2541 27.9816 46.1196 27.9335 46.0234C27.8854 45.9273 27.8145 45.86 27.7208 45.8216C27.6295 45.7807 27.5166 45.7603 27.382 45.7603C27.2426 45.7603 27.1213 45.7879 27.0179 45.8432C26.917 45.8985 26.8329 45.9754 26.7656 46.0739C26.7007 46.17 26.6514 46.283 26.6178 46.4127C26.5842 46.5425 26.5673 46.6819 26.5673 46.8309ZM31.6355 48.9901C31.3327 48.9901 31.0611 48.942 30.8208 48.8459C30.5805 48.7473 30.3763 48.6116 30.208 48.4385C30.0422 48.2655 29.9149 48.0649 29.8259 47.8366C29.737 47.6059 29.6926 47.3608 29.6926 47.1012V46.957C29.6926 46.6615 29.7346 46.3911 29.8187 46.146C29.9028 45.9009 30.023 45.6882 30.1792 45.508C30.3378 45.3277 30.5301 45.1895 30.756 45.0934C30.9818 44.9949 31.2366 44.9456 31.5201 44.9456C31.7965 44.9456 32.0416 44.9913 32.2555 45.0826C32.4694 45.1739 32.6484 45.3037 32.7926 45.4719C32.9392 45.6401 33.0497 45.842 33.1242 46.0775C33.1987 46.3106 33.236 46.5701 33.236 46.8561V47.2887H30.1359V46.5966H32.2158V46.5173C32.2158 46.3731 32.1894 46.2445 32.1365 46.1316C32.0861 46.0162 32.0092 45.9249 31.9058 45.8576C31.8025 45.7903 31.6703 45.7567 31.5093 45.7567C31.3723 45.7567 31.2546 45.7867 31.1561 45.8468C31.0575 45.9069 30.977 45.991 30.9146 46.0991C30.8545 46.2073 30.8088 46.3346 30.7776 46.4812C30.7487 46.6254 30.7343 46.784 30.7343 46.957V47.1012C30.7343 47.2574 30.756 47.4016 30.7992 47.5338C30.8449 47.666 30.9085 47.7801 30.9903 47.8762C31.0744 47.9723 31.1753 48.0468 31.293 48.0997C31.4132 48.1526 31.549 48.179 31.7004 48.179C31.8878 48.179 32.062 48.143 32.223 48.0709C32.3865 47.9964 32.527 47.8846 32.6448 47.7356L33.1494 48.2835C33.0677 48.4013 32.956 48.5142 32.8142 48.6224C32.6748 48.7305 32.5066 48.8194 32.3096 48.8891C32.1125 48.9564 31.8878 48.9901 31.6355 48.9901ZM35.9358 47.8402C35.9358 47.7657 35.9142 47.6984 35.871 47.6383C35.8277 47.5782 35.7472 47.523 35.6295 47.4725C35.5141 47.4196 35.3471 47.3716 35.1284 47.3283C34.9313 47.2851 34.7475 47.231 34.5769 47.1661C34.4087 47.0988 34.2621 47.0183 34.1371 46.9246C34.0146 46.8309 33.9184 46.7203 33.8487 46.593C33.7791 46.4632 33.7442 46.3154 33.7442 46.1496C33.7442 45.9862 33.7791 45.8324 33.8487 45.6882C33.9208 45.544 34.023 45.4166 34.1551 45.3061C34.2897 45.1932 34.4531 45.1054 34.6454 45.043C34.84 44.9781 35.0587 44.9456 35.3014 44.9456C35.6403 44.9456 35.931 44.9997 36.1738 45.1078C36.4189 45.216 36.6063 45.365 36.7361 45.5548C36.8683 45.7423 36.9343 45.9561 36.9343 46.1965H35.8962C35.8962 46.0955 35.8746 46.0054 35.8313 45.9261C35.7905 45.8444 35.7256 45.7807 35.6367 45.7351C35.5501 45.687 35.4372 45.663 35.2978 45.663C35.1825 45.663 35.0827 45.6834 34.9986 45.7242C34.9145 45.7627 34.8496 45.8156 34.804 45.8828C34.7607 45.9477 34.7391 46.0198 34.7391 46.0991C34.7391 46.1592 34.7511 46.2133 34.7751 46.2613C34.8016 46.307 34.8436 46.349 34.9013 46.3875C34.959 46.4259 35.0335 46.462 35.1248 46.4956C35.2185 46.5269 35.3339 46.5557 35.4708 46.5821C35.752 46.6398 36.0031 46.7155 36.2242 46.8092C36.4453 46.9006 36.6207 47.0255 36.7505 47.1841C36.8803 47.3403 36.9452 47.5458 36.9452 47.8005C36.9452 47.9735 36.9067 48.1322 36.8298 48.2763C36.7529 48.4205 36.6424 48.5467 36.4982 48.6548C36.354 48.7606 36.181 48.8435 35.9791 48.9036C35.7796 48.9612 35.555 48.9901 35.305 48.9901C34.9422 48.9901 34.6346 48.9252 34.3822 48.7954C34.1323 48.6656 33.9425 48.501 33.8127 48.3016C33.6853 48.0997 33.6217 47.893 33.6217 47.6816H34.6057C34.6105 47.8234 34.6466 47.9375 34.7139 48.024C34.7836 48.1105 34.8713 48.173 34.977 48.2115C35.0851 48.2499 35.2017 48.2691 35.3267 48.2691C35.4612 48.2691 35.573 48.2511 35.6619 48.2151C35.7508 48.1766 35.8181 48.1261 35.8638 48.0637C35.9118 47.9988 35.9358 47.9243 35.9358 47.8402ZM39.7279 47.8402C39.7279 47.7657 39.7063 47.6984 39.6631 47.6383C39.6198 47.5782 39.5393 47.523 39.4216 47.4725C39.3062 47.4196 39.1392 47.3716 38.9205 47.3283C38.7235 47.2851 38.5396 47.231 38.369 47.1661C38.2008 47.0988 38.0542 47.0183 37.9292 46.9246C37.8067 46.8309 37.7105 46.7203 37.6409 46.593C37.5712 46.4632 37.5363 46.3154 37.5363 46.1496C37.5363 45.9862 37.5712 45.8324 37.6409 45.6882C37.7129 45.544 37.8151 45.4166 37.9472 45.3061C38.0818 45.1932 38.2452 45.1054 38.4375 45.043C38.6321 44.9781 38.8508 44.9456 39.0935 44.9456C39.4324 44.9456 39.7231 44.9997 39.9659 45.1078C40.211 45.216 40.3984 45.365 40.5282 45.5548C40.6604 45.7423 40.7264 45.9561 40.7264 46.1965H39.6883C39.6883 46.0955 39.6667 46.0054 39.6234 45.9261C39.5826 45.8444 39.5177 45.7807 39.4288 45.7351C39.3423 45.687 39.2293 45.663 39.0899 45.663C38.9746 45.663 38.8748 45.6834 38.7907 45.7242C38.7066 45.7627 38.6417 45.8156 38.5961 45.8828C38.5528 45.9477 38.5312 46.0198 38.5312 46.0991C38.5312 46.1592 38.5432 46.2133 38.5672 46.2613C38.5937 46.307 38.6357 46.349 38.6934 46.3875C38.7511 46.4259 38.8256 46.462 38.9169 46.4956C39.0106 46.5269 39.126 46.5557 39.2629 46.5821C39.5441 46.6398 39.7952 46.7155 40.0163 46.8092C40.2374 46.9006 40.4128 47.0255 40.5426 47.1841C40.6724 47.3403 40.7373 47.5458 40.7373 47.8005C40.7373 47.9735 40.6988 48.1322 40.6219 48.2763C40.545 48.4205 40.4345 48.5467 40.2903 48.6548C40.1461 48.7606 39.9731 48.8435 39.7712 48.9036C39.5717 48.9612 39.3471 48.9901 39.0971 48.9901C38.7343 48.9901 38.4267 48.9252 38.1743 48.7954C37.9244 48.6656 37.7346 48.501 37.6048 48.3016C37.4774 48.0997 37.4138 47.893 37.4138 47.6816H38.3978C38.4026 47.8234 38.4387 47.9375 38.506 48.024C38.5757 48.1105 38.6634 48.173 38.7691 48.2115C38.8773 48.2499 38.9938 48.2691 39.1188 48.2691C39.2533 48.2691 39.3651 48.2511 39.454 48.2151C39.5429 48.1766 39.6102 48.1261 39.6559 48.0637C39.7039 47.9988 39.7279 47.9243 39.7279 47.8402ZM44.4645 43.6696V48.918H43.3867V43.6696H44.4645ZM46.429 45.8504V48.918H45.3909V45.0177H46.3641L46.429 45.8504ZM46.2776 46.8309H45.9965C45.9965 46.5425 46.0337 46.283 46.1082 46.0523C46.1827 45.8192 46.2872 45.6209 46.4218 45.4575C46.5564 45.2917 46.7162 45.1655 46.9012 45.079C47.0887 44.9901 47.2977 44.9456 47.5284 44.9456C47.7111 44.9456 47.8781 44.9721 48.0295 45.0249C48.1809 45.0778 48.3106 45.1619 48.4188 45.2773C48.5293 45.3926 48.6134 45.5452 48.6711 45.7351C48.7312 45.9249 48.7612 46.1568 48.7612 46.4308V48.918H47.7159V46.4271C47.7159 46.2541 47.6918 46.1196 47.6438 46.0234C47.5957 45.9273 47.5248 45.86 47.4311 45.8216C47.3398 45.7807 47.2268 45.7603 47.0923 45.7603C46.9529 45.7603 46.8315 45.7879 46.7282 45.8432C46.6273 45.8985 46.5432 45.9754 46.4759 46.0739C46.411 46.17 46.3617 46.283 46.3281 46.4127C46.2944 46.5425 46.2776 46.6819 46.2776 46.8309ZM51.4611 45.0177V45.7531H49.1902V45.0177H51.4611ZM49.7525 44.0553H50.7907V47.7428C50.7907 47.8558 50.8051 47.9423 50.8339 48.0024C50.8651 48.0625 50.9108 48.1045 50.9709 48.1285C51.031 48.1502 51.1067 48.161 51.198 48.161C51.2629 48.161 51.3205 48.1586 51.371 48.1538C51.4239 48.1466 51.4683 48.1394 51.5044 48.1322L51.508 48.8963C51.4191 48.9252 51.3229 48.948 51.2196 48.9648C51.1163 48.9817 51.0021 48.9901 50.8772 48.9901C50.6489 48.9901 50.4494 48.9528 50.2788 48.8783C50.1106 48.8014 49.9808 48.6789 49.8895 48.5106C49.7982 48.3424 49.7525 48.1213 49.7525 47.8474V44.0553ZM53.8474 48.9901C53.5446 48.9901 53.2731 48.942 53.0327 48.8459C52.7924 48.7473 52.5882 48.6116 52.42 48.4385C52.2541 48.2655 52.1268 48.0649 52.0379 47.8366C51.9489 47.6059 51.9045 47.3608 51.9045 47.1012V46.957C51.9045 46.6615 51.9465 46.3911 52.0307 46.146C52.1148 45.9009 52.2349 45.6882 52.3911 45.508C52.5497 45.3277 52.742 45.1895 52.9679 45.0934C53.1938 44.9949 53.4485 44.9456 53.7321 44.9456C54.0084 44.9456 54.2535 44.9913 54.4674 45.0826C54.6813 45.1739 54.8603 45.3037 55.0045 45.4719C55.1511 45.6401 55.2616 45.842 55.3361 46.0775C55.4106 46.3106 55.4479 46.5701 55.4479 46.8561V47.2887H52.3479V46.5966H54.4278V46.5173C54.4278 46.3731 54.4013 46.2445 54.3484 46.1316C54.298 46.0162 54.2211 45.9249 54.1178 45.8576C54.0144 45.7903 53.8822 45.7567 53.7212 45.7567C53.5843 45.7567 53.4665 45.7867 53.368 45.8468C53.2695 45.9069 53.189 45.991 53.1265 46.0991C53.0664 46.2073 53.0207 46.3346 52.9895 46.4812C52.9607 46.6254 52.9462 46.784 52.9462 46.957V47.1012C52.9462 47.2574 52.9679 47.4016 53.0111 47.5338C53.0568 47.666 53.1205 47.7801 53.2022 47.8762C53.2863 47.9723 53.3872 48.0468 53.505 48.0997C53.6251 48.1526 53.7609 48.179 53.9123 48.179C54.0997 48.179 54.274 48.143 54.435 48.0709C54.5984 47.9964 54.739 47.8846 54.8567 47.7356L55.3614 48.2835C55.2797 48.4013 55.1679 48.5142 55.0261 48.6224C54.8867 48.7305 54.7185 48.8194 54.5215 48.8891C54.3244 48.9564 54.0997 48.9901 53.8474 48.9901ZM57.1349 43.3812V48.918H56.0931V43.3812H57.1349ZM59.0886 43.3812V48.918H58.0468V43.3812H59.0886ZM61.0423 45.0177V48.918H60.0006V45.0177H61.0423ZM59.9357 44.0012C59.9357 43.8498 59.9885 43.7249 60.0943 43.6263C60.2 43.5278 60.3418 43.4785 60.5196 43.4785C60.6951 43.4785 60.8356 43.5278 60.9414 43.6263C61.0495 43.7249 61.1036 43.8498 61.1036 44.0012C61.1036 44.1526 61.0495 44.2776 60.9414 44.3761C60.8356 44.4746 60.6951 44.5239 60.5196 44.5239C60.3418 44.5239 60.2 44.4746 60.0943 44.3761C59.9885 44.2776 59.9357 44.1526 59.9357 44.0012ZM64.3694 45.0177H65.3102V48.7882C65.3102 49.1439 65.2309 49.4455 65.0723 49.693C64.9161 49.9429 64.6974 50.1315 64.4163 50.2589C64.1351 50.3887 63.8083 50.4536 63.4358 50.4536C63.2724 50.4536 63.0994 50.4319 62.9167 50.3887C62.7365 50.3454 62.5635 50.2781 62.3977 50.1868C62.2342 50.0955 62.0973 49.9801 61.9867 49.8408L62.4445 49.228C62.5647 49.3673 62.7041 49.4755 62.8627 49.5524C63.0213 49.6317 63.1967 49.6713 63.3889 49.6713C63.5764 49.6713 63.735 49.6365 63.8648 49.5668C63.9945 49.4995 64.0942 49.3998 64.1639 49.2676C64.2336 49.1379 64.2685 48.9804 64.2685 48.7954V45.9189L64.3694 45.0177ZM61.7452 47.0147V46.939C61.7452 46.641 61.7813 46.3707 61.8534 46.128C61.9278 45.8828 62.0324 45.6726 62.167 45.4971C62.3039 45.3217 62.4697 45.1859 62.6644 45.0898C62.8591 44.9937 63.0789 44.9456 63.3241 44.9456C63.5836 44.9456 63.8011 44.9937 63.9765 45.0898C64.1519 45.1859 64.2961 45.3229 64.4091 45.5008C64.522 45.6762 64.6097 45.884 64.6722 46.1244C64.7371 46.3623 64.7875 46.623 64.8236 46.9066V47.0724C64.7875 47.3439 64.7335 47.5963 64.6614 47.8294C64.5893 48.0625 64.4944 48.2667 64.3766 48.4422C64.2589 48.6152 64.1123 48.7498 63.9368 48.8459C63.7638 48.942 63.5572 48.9901 63.3168 48.9901C63.0765 48.9901 62.8591 48.9408 62.6644 48.8423C62.4722 48.7437 62.3075 48.6056 62.1706 48.4277C62.0336 48.2499 61.9278 48.0408 61.8534 47.8005C61.7813 47.5602 61.7452 47.2983 61.7452 47.0147ZM62.7834 46.939V47.0147C62.7834 47.1757 62.799 47.3259 62.8302 47.4653C62.8615 47.6047 62.9095 47.7284 62.9744 47.8366C63.0417 47.9423 63.1246 48.0252 63.2231 48.0853C63.3241 48.143 63.443 48.1718 63.58 48.1718C63.7698 48.1718 63.9248 48.1322 64.045 48.0529C64.1651 47.9711 64.2553 47.8594 64.3153 47.7176C64.3754 47.5758 64.4103 47.4124 64.4199 47.2274V46.7552C64.4151 46.6038 64.3946 46.468 64.3586 46.3478C64.3225 46.2253 64.2721 46.1208 64.2072 46.0342C64.1423 45.9477 64.0582 45.8804 63.9549 45.8324C63.8515 45.7843 63.729 45.7603 63.5872 45.7603C63.4502 45.7603 63.3313 45.7915 63.2303 45.854C63.1318 45.9141 63.0489 45.997 62.9816 46.1027C62.9167 46.2085 62.8675 46.3334 62.8338 46.4776C62.8002 46.6194 62.7834 46.7732 62.7834 46.939ZM67.9128 48.9901C67.61 48.9901 67.3384 48.942 67.0981 48.8459C66.8578 48.7473 66.6536 48.6116 66.4853 48.4385C66.3195 48.2655 66.1922 48.0649 66.1032 47.8366C66.0143 47.6059 65.9699 47.3608 65.9699 47.1012V46.957C65.9699 46.6615 66.0119 46.3911 66.096 46.146C66.1801 45.9009 66.3003 45.6882 66.4565 45.508C66.6151 45.3277 66.8074 45.1895 67.0332 45.0934C67.2591 44.9949 67.5139 44.9456 67.7974 44.9456C68.0738 44.9456 68.3189 44.9913 68.5328 45.0826C68.7467 45.1739 68.9257 45.3037 69.0699 45.4719C69.2165 45.6401 69.327 45.842 69.4015 46.0775C69.476 46.3106 69.5133 46.5701 69.5133 46.8561V47.2887H66.4132V46.5966H68.4931V46.5173C68.4931 46.3731 68.4667 46.2445 68.4138 46.1316C68.3634 46.0162 68.2865 45.9249 68.1831 45.8576C68.0798 45.7903 67.9476 45.7567 67.7866 45.7567C67.6496 45.7567 67.5319 45.7867 67.4334 45.8468C67.3348 45.9069 67.2543 45.991 67.1919 46.0991C67.1318 46.2073 67.0861 46.3346 67.0549 46.4812C67.026 46.6254 67.0116 46.784 67.0116 46.957V47.1012C67.0116 47.2574 67.0332 47.4016 67.0765 47.5338C67.1222 47.666 67.1858 47.7801 67.2676 47.8762C67.3517 47.9723 67.4526 48.0468 67.5703 48.0997C67.6905 48.1526 67.8263 48.179 67.9777 48.179C68.1651 48.179 68.3393 48.143 68.5003 48.0709C68.6638 47.9964 68.8043 47.8846 68.9221 47.7356L69.4267 48.2835C69.345 48.4013 69.2333 48.5142 69.0915 48.6224C68.9521 48.7305 68.7839 48.8194 68.5869 48.8891C68.3898 48.9564 68.1651 48.9901 67.9128 48.9901ZM71.1209 45.8504V48.918H70.0828V45.0177H71.0561L71.1209 45.8504ZM70.9695 46.8309H70.6884C70.6884 46.5425 70.7256 46.283 70.8001 46.0523C70.8746 45.8192 70.9792 45.6209 71.1137 45.4575C71.2483 45.2917 71.4081 45.1655 71.5931 45.079C71.7806 44.9901 71.9897 44.9456 72.2204 44.9456C72.403 44.9456 72.57 44.9721 72.7214 45.0249C72.8728 45.0778 73.0026 45.1619 73.1107 45.2773C73.2213 45.3926 73.3054 45.5452 73.363 45.7351C73.4231 45.9249 73.4531 46.1568 73.4531 46.4308V48.918H72.4078V46.4271C72.4078 46.2541 72.3838 46.1196 72.3357 46.0234C72.2876 45.9273 72.2168 45.86 72.123 45.8216C72.0317 45.7807 71.9188 45.7603 71.7842 45.7603C71.6448 45.7603 71.5235 45.7879 71.4201 45.8432C71.3192 45.8985 71.2351 45.9754 71.1678 46.0739C71.1029 46.17 71.0536 46.283 71.02 46.4127C70.9864 46.5425 70.9695 46.6819 70.9695 46.8309ZM75.8539 48.179C75.9812 48.179 76.0942 48.155 76.1927 48.1069C76.2912 48.0565 76.3681 47.9868 76.4234 47.8978C76.4811 47.8065 76.5111 47.6996 76.5135 47.577H77.4904C77.488 47.851 77.4147 48.0949 77.2705 48.3088C77.1263 48.5203 76.9328 48.6873 76.6901 48.8098C76.4474 48.93 76.1759 48.9901 75.8755 48.9901C75.5727 48.9901 75.3083 48.9396 75.0825 48.8387C74.859 48.7377 74.6727 48.5984 74.5237 48.4205C74.3747 48.2403 74.263 48.0312 74.1885 47.7933C74.114 47.553 74.0768 47.2959 74.0768 47.0219V46.9174C74.0768 46.641 74.114 46.3839 74.1885 46.146C74.263 45.9057 74.3747 45.6966 74.5237 45.5188C74.6727 45.3385 74.859 45.198 75.0825 45.097C75.3059 44.9961 75.5679 44.9456 75.8683 44.9456C76.1879 44.9456 76.4678 45.0069 76.7082 45.1295C76.9509 45.252 77.1407 45.4275 77.2777 45.6558C77.4171 45.8816 77.488 46.1496 77.4904 46.4596H76.5135C76.5111 46.3298 76.4835 46.2121 76.4306 46.1063C76.3801 46.0006 76.3056 45.9165 76.2071 45.854C76.111 45.7891 75.992 45.7567 75.8502 45.7567C75.6989 45.7567 75.5751 45.7891 75.479 45.854C75.3828 45.9165 75.3083 46.003 75.2555 46.1135C75.2026 46.2217 75.1654 46.3454 75.1437 46.4848C75.1245 46.6218 75.1149 46.766 75.1149 46.9174V47.0219C75.1149 47.1733 75.1245 47.3187 75.1437 47.4581C75.163 47.5975 75.199 47.7212 75.2519 47.8294C75.3071 47.9375 75.3828 48.0228 75.479 48.0853C75.5751 48.1478 75.7001 48.179 75.8539 48.179ZM79.8875 48.9901C79.5847 48.9901 79.3131 48.942 79.0728 48.8459C78.8325 48.7473 78.6282 48.6116 78.46 48.4385C78.2942 48.2655 78.1668 48.0649 78.0779 47.8366C77.989 47.6059 77.9446 47.3608 77.9446 47.1012V46.957C77.9446 46.6615 77.9866 46.3911 78.0707 46.146C78.1548 45.9009 78.275 45.6882 78.4312 45.508C78.5898 45.3277 78.782 45.1895 79.0079 45.0934C79.2338 44.9949 79.4885 44.9456 79.7721 44.9456C80.0485 44.9456 80.2936 44.9913 80.5075 45.0826C80.7213 45.1739 80.9004 45.3037 81.0446 45.4719C81.1911 45.6401 81.3017 45.842 81.3762 46.0775C81.4507 46.3106 81.4879 46.5701 81.4879 46.8561V47.2887H78.3879V46.5966H80.4678V46.5173C80.4678 46.3731 80.4414 46.2445 80.3885 46.1316C80.338 46.0162 80.2611 45.9249 80.1578 45.8576C80.0545 45.7903 79.9223 45.7567 79.7613 45.7567C79.6243 45.7567 79.5066 45.7867 79.408 45.8468C79.3095 45.9069 79.229 45.991 79.1665 46.0991C79.1065 46.2073 79.0608 46.3346 79.0296 46.4812C79.0007 46.6254 78.9863 46.784 78.9863 46.957V47.1012C78.9863 47.2574 79.0079 47.4016 79.0512 47.5338C79.0968 47.666 79.1605 47.7801 79.2422 47.8762C79.3263 47.9723 79.4273 48.0468 79.545 48.0997C79.6652 48.1526 79.801 48.179 79.9523 48.179C80.1398 48.179 80.314 48.143 80.475 48.0709C80.6384 47.9964 80.779 47.8846 80.8968 47.7356L81.4014 48.2835C81.3197 48.4013 81.208 48.5142 81.0662 48.6224C80.9268 48.7305 80.7586 48.8194 80.5615 48.8891C80.3645 48.9564 80.1398 48.9901 79.8875 48.9901ZM35.0743 56.5446C35.0743 56.4509 35.0599 56.3668 35.0311 56.2923C35.0046 56.2154 34.9542 56.1457 34.8797 56.0832C34.8052 56.0183 34.7006 55.9546 34.5661 55.8921C34.4315 55.8297 34.2573 55.7648 34.0434 55.6975C33.8055 55.6206 33.5796 55.5341 33.3657 55.438C33.1542 55.3418 32.9668 55.2301 32.8034 55.1027C32.6424 54.973 32.515 54.8228 32.4213 54.6521C32.33 54.4815 32.2843 54.2833 32.2843 54.0574C32.2843 53.8387 32.3324 53.6404 32.4285 53.4626C32.5246 53.2824 32.6592 53.1286 32.8322 53.0012C33.0053 52.8714 33.2095 52.7717 33.445 52.702C33.6829 52.6323 33.9437 52.5975 34.2272 52.5975C34.6141 52.5975 34.9518 52.6672 35.2401 52.8066C35.5285 52.9459 35.752 53.137 35.9106 53.3797C36.0716 53.6224 36.1521 53.9 36.1521 54.2124H35.0779C35.0779 54.0586 35.0455 53.924 34.9806 53.8087C34.9181 53.6909 34.822 53.5984 34.6922 53.5311C34.5649 53.4638 34.4039 53.4302 34.2092 53.4302C34.0218 53.4302 33.8656 53.459 33.7406 53.5167C33.6156 53.572 33.5219 53.6476 33.4594 53.7438C33.397 53.8375 33.3657 53.9432 33.3657 54.061C33.3657 54.1499 33.3874 54.2304 33.4306 54.3025C33.4763 54.3746 33.5436 54.4419 33.6325 54.5044C33.7214 54.5668 33.8307 54.6257 33.9605 54.681C34.0903 54.7363 34.2405 54.7903 34.4111 54.8432C34.697 54.9297 34.9482 55.027 35.1644 55.1352C35.3831 55.2433 35.5658 55.3647 35.7124 55.4992C35.8589 55.6338 35.9695 55.7864 36.044 55.957C36.1185 56.1277 36.1557 56.3211 36.1557 56.5374C36.1557 56.7657 36.1113 56.9699 36.0224 57.1502C35.9334 57.3304 35.8049 57.483 35.6367 57.608C35.4684 57.7329 35.2678 57.8279 35.0347 57.8927C34.8016 57.9576 34.5408 57.9901 34.2525 57.9901C33.9929 57.9901 33.737 57.9564 33.4847 57.8891C33.2324 57.8194 33.0029 57.7149 32.7962 57.5755C32.5919 57.4361 32.4285 57.2583 32.306 57.042C32.1834 56.8258 32.1221 56.5698 32.1221 56.2742H33.2071C33.2071 56.4377 33.2324 56.5758 33.2828 56.6888C33.3333 56.8017 33.4042 56.893 33.4955 56.9627C33.5892 57.0324 33.6998 57.0829 33.8271 57.1141C33.9569 57.1454 34.0987 57.161 34.2525 57.161C34.4399 57.161 34.5937 57.1346 34.7139 57.0817C34.8364 57.0288 34.9265 56.9555 34.9842 56.8618C35.0443 56.7681 35.0743 56.6623 35.0743 56.5446ZM38.6213 57.9901C38.3185 57.9901 38.047 57.942 37.8067 57.8459C37.5664 57.7473 37.3621 57.6116 37.1939 57.4385C37.0281 57.2655 36.9007 57.0649 36.8118 56.8366C36.7229 56.6059 36.6784 56.3608 36.6784 56.1012V55.957C36.6784 55.6615 36.7205 55.3911 36.8046 55.146C36.8887 54.9009 37.0088 54.6882 37.165 54.508C37.3236 54.3277 37.5159 54.1895 37.7418 54.0934C37.9677 53.9949 38.2224 53.9456 38.506 53.9456C38.7823 53.9456 39.0274 53.9913 39.2413 54.0826C39.4552 54.1739 39.6342 54.3037 39.7784 54.4719C39.925 54.6401 40.0355 54.842 40.11 55.0775C40.1845 55.3106 40.2218 55.5701 40.2218 55.8561V56.2887H37.1218V55.5966H39.2017V55.5173C39.2017 55.3731 39.1752 55.2445 39.1224 55.1316C39.0719 55.0162 38.995 54.9249 38.8917 54.8576C38.7883 54.7903 38.6562 54.7567 38.4952 54.7567C38.3582 54.7567 38.2404 54.7867 38.1419 54.8468C38.0434 54.9069 37.9629 54.991 37.9004 55.0991C37.8403 55.2073 37.7946 55.3346 37.7634 55.4812C37.7346 55.6254 37.7202 55.784 37.7202 55.957V56.1012C37.7202 56.2574 37.7418 56.4016 37.785 56.5338C37.8307 56.666 37.8944 56.7801 37.9761 56.8762C38.0602 56.9723 38.1611 57.0468 38.2789 57.0997C38.399 57.1526 38.5348 57.179 38.6862 57.179C38.8736 57.179 39.0479 57.143 39.2089 57.0709C39.3723 56.9964 39.5129 56.8846 39.6306 56.7356L40.1353 57.2835C40.0536 57.4013 39.9418 57.5142 39.8 57.6224C39.6607 57.7305 39.4924 57.8194 39.2954 57.8891C39.0983 57.9564 38.8736 57.9901 38.6213 57.9901ZM41.8511 54.8684V57.918H40.813V54.0177H41.7898L41.8511 54.8684ZM43.0262 53.9925L43.0082 54.9549C42.9577 54.9477 42.8964 54.9417 42.8244 54.9369C42.7547 54.9297 42.691 54.9261 42.6333 54.9261C42.4867 54.9261 42.3594 54.9453 42.2512 54.9838C42.1455 55.0198 42.0566 55.0739 41.9845 55.146C41.9148 55.2181 41.8619 55.3058 41.8259 55.4091C41.7922 55.5125 41.773 55.6302 41.7682 55.7624L41.5591 55.6975C41.5591 55.4452 41.5843 55.2133 41.6348 55.0018C41.6853 54.7879 41.7586 54.6017 41.8547 54.4431C41.9532 54.2845 42.0734 54.1619 42.2152 54.0754C42.3569 53.9889 42.5192 53.9456 42.7018 53.9456C42.7595 53.9456 42.8183 53.9504 42.8784 53.9601C42.9385 53.9673 42.9878 53.9781 43.0262 53.9925ZM44.9078 57.161L45.773 54.0177H46.858L45.5423 57.918H44.8862L44.9078 57.161ZM44.3131 54.0177L45.1818 57.1646L45.1998 57.918H44.5402L43.2245 54.0177H44.3131ZM48.4188 54.0177V57.918H47.377V54.0177H48.4188ZM47.3122 53.0012C47.3122 52.8498 47.365 52.7249 47.4708 52.6263C47.5765 52.5278 47.7183 52.4785 47.8961 52.4785C48.0715 52.4785 48.2121 52.5278 48.3179 52.6263C48.426 52.7249 48.4801 52.8498 48.4801 53.0012C48.4801 53.1526 48.426 53.2776 48.3179 53.3761C48.2121 53.4746 48.0715 53.5239 47.8961 53.5239C47.7183 53.5239 47.5765 53.4746 47.4708 53.3761C47.365 53.2776 47.3122 53.1526 47.3122 53.0012ZM50.888 57.179C51.0153 57.179 51.1283 57.155 51.2268 57.1069C51.3253 57.0565 51.4022 56.9868 51.4575 56.8978C51.5152 56.8065 51.5452 56.6996 51.5476 56.577H52.5245C52.5221 56.851 52.4488 57.0949 52.3046 57.3088C52.1604 57.5203 51.967 57.6873 51.7243 57.8098C51.4815 57.93 51.21 57.9901 50.9096 57.9901C50.6068 57.9901 50.3425 57.9396 50.1166 57.8387C49.8931 57.7377 49.7068 57.5984 49.5579 57.4205C49.4089 57.2403 49.2971 57.0312 49.2226 56.7933C49.1481 56.553 49.1109 56.2959 49.1109 56.0219V55.9174C49.1109 55.641 49.1481 55.3839 49.2226 55.146C49.2971 54.9057 49.4089 54.6966 49.5579 54.5188C49.7068 54.3385 49.8931 54.198 50.1166 54.097C50.3401 53.9961 50.602 53.9456 50.9024 53.9456C51.222 53.9456 51.502 54.0069 51.7423 54.1295C51.985 54.252 52.1748 54.4275 52.3118 54.6558C52.4512 54.8816 52.5221 55.1496 52.5245 55.4596H51.5476C51.5452 55.3298 51.5176 55.2121 51.4647 55.1063C51.4143 55.0006 51.3398 54.9165 51.2412 54.854C51.1451 54.7891 51.0262 54.7567 50.8844 54.7567C50.733 54.7567 50.6092 54.7891 50.5131 54.854C50.417 54.9165 50.3425 55.003 50.2896 55.1135C50.2367 55.2217 50.1995 55.3454 50.1779 55.4848C50.1586 55.6218 50.149 55.766 50.149 55.9174V56.0219C50.149 56.1733 50.1586 56.3187 50.1779 56.4581C50.1971 56.5975 50.2331 56.7212 50.286 56.8294C50.3413 56.9375 50.417 57.0228 50.5131 57.0853C50.6092 57.1478 50.7342 57.179 50.888 57.179ZM54.9216 57.9901C54.6188 57.9901 54.3472 57.942 54.1069 57.8459C53.8666 57.7473 53.6624 57.6116 53.4941 57.4385C53.3283 57.2655 53.201 57.0649 53.1121 56.8366C53.0231 56.6059 52.9787 56.3608 52.9787 56.1012V55.957C52.9787 55.6615 53.0207 55.3911 53.1048 55.146C53.189 54.9009 53.3091 54.6882 53.4653 54.508C53.6239 54.3277 53.8162 54.1895 54.0421 54.0934C54.2679 53.9949 54.5227 53.9456 54.8062 53.9456C55.0826 53.9456 55.3277 53.9913 55.5416 54.0826C55.7555 54.1739 55.9345 54.3037 56.0787 54.4719C56.2253 54.6401 56.3358 54.842 56.4103 55.0775C56.4848 55.3106 56.5221 55.5701 56.5221 55.8561V56.2887H53.4221V55.5966H55.5019V55.5173C55.5019 55.3731 55.4755 55.2445 55.4226 55.1316C55.3722 55.0162 55.2953 54.9249 55.1919 54.8576C55.0886 54.7903 54.9564 54.7567 54.7954 54.7567C54.6585 54.7567 54.5407 54.7867 54.4422 54.8468C54.3436 54.9069 54.2631 54.991 54.2007 55.0991C54.1406 55.2073 54.0949 55.3346 54.0637 55.4812C54.0348 55.6254 54.0204 55.784 54.0204 55.957V56.1012C54.0204 56.2574 54.0421 56.4016 54.0853 56.5338C54.131 56.666 54.1947 56.7801 54.2764 56.8762C54.3605 56.9723 54.4614 57.0468 54.5791 57.0997C54.6993 57.1526 54.8351 57.179 54.9865 57.179C55.1739 57.179 55.3481 57.143 55.5092 57.0709C55.6726 56.9964 55.8131 56.8846 55.9309 56.7356L56.4355 57.2835C56.3538 57.4013 56.2421 57.5142 56.1003 57.6224C55.9609 57.7305 55.7927 57.8194 55.5957 57.8891C55.3986 57.9564 55.1739 57.9901 54.9216 57.9901ZM59.222 56.8402C59.222 56.7657 59.2003 56.6984 59.1571 56.6383C59.1138 56.5782 59.0333 56.523 58.9156 56.4725C58.8002 56.4196 58.6332 56.3716 58.4145 56.3283C58.2175 56.2851 58.0336 56.231 57.863 56.1661C57.6948 56.0988 57.5482 56.0183 57.4232 55.9246C57.3007 55.8309 57.2045 55.7203 57.1349 55.593C57.0652 55.4632 57.0303 55.3154 57.0303 55.1496C57.0303 54.9862 57.0652 54.8324 57.1349 54.6882C57.2069 54.544 57.3091 54.4166 57.4412 54.3061C57.5758 54.1932 57.7392 54.1054 57.9315 54.043C58.1261 53.9781 58.3448 53.9456 58.5875 53.9456C58.9264 53.9456 59.2171 53.9997 59.4599 54.1078C59.705 54.216 59.8924 54.365 60.0222 54.5548C60.1544 54.7423 60.2204 54.9561 60.2204 55.1965H59.1823C59.1823 55.0955 59.1607 55.0054 59.1174 54.9261C59.0766 54.8444 59.0117 54.7807 58.9228 54.7351C58.8363 54.687 58.7233 54.663 58.5839 54.663C58.4686 54.663 58.3688 54.6834 58.2847 54.7242C58.2006 54.7627 58.1357 54.8156 58.0901 54.8828C58.0468 54.9477 58.0252 55.0198 58.0252 55.0991C58.0252 55.1592 58.0372 55.2133 58.0613 55.2613C58.0877 55.307 58.1297 55.349 58.1874 55.3875C58.2451 55.4259 58.3196 55.462 58.4109 55.4956C58.5046 55.5269 58.62 55.5557 58.757 55.5821C59.0381 55.6398 59.2892 55.7155 59.5103 55.8092C59.7314 55.9006 59.9068 56.0255 60.0366 56.1841C60.1664 56.3403 60.2313 56.5458 60.2313 56.8005C60.2313 56.9735 60.1928 57.1322 60.1159 57.2763C60.039 57.4205 59.9285 57.5467 59.7843 57.6548C59.6401 57.7606 59.4671 57.8435 59.2652 57.9036C59.0657 57.9612 58.8411 57.9901 58.5911 57.9901C58.2283 57.9901 57.9207 57.9252 57.6683 57.7954C57.4184 57.6656 57.2286 57.501 57.0988 57.3016C56.9714 57.0997 56.9078 56.893 56.9078 56.6816H57.8918C57.8966 56.8234 57.9327 56.9375 58 57.024C58.0697 57.1105 58.1574 57.173 58.2631 57.2115C58.3713 57.2499 58.4878 57.2691 58.6128 57.2691C58.7473 57.2691 58.8591 57.2511 58.948 57.2151C59.0369 57.1766 59.1042 57.1261 59.1499 57.0637C59.1979 56.9988 59.222 56.9243 59.222 56.8402Z" fill="#112244"/>
<path d="M36.3536 66.3802V70.5352H35.5004V66.3802H36.3536ZM37.6321 66.3802V67.0508H34.2419V66.3802H37.6321ZM41.4532 68.3606V68.5575C41.4532 68.8734 41.4104 69.1568 41.3248 69.4079C41.2392 69.6591 41.1184 69.8731 40.9623 70.05C40.8063 70.2251 40.6199 70.3592 40.403 70.4524C40.188 70.5456 39.9493 70.5922 39.6867 70.5922C39.4261 70.5922 39.1874 70.5456 38.9705 70.4524C38.7555 70.3592 38.5691 70.2251 38.4112 70.05C38.2532 69.8731 38.1305 69.6591 38.043 69.4079C37.9574 69.1568 37.9146 68.8734 37.9146 68.5575V68.3606C37.9146 68.0429 37.9574 67.7595 38.043 67.5102C38.1286 67.2591 38.2494 67.0451 38.4054 66.8682C38.5633 66.6912 38.7498 66.5562 38.9648 66.4629C39.1816 66.3697 39.4204 66.3231 39.681 66.3231C39.9436 66.3231 40.1823 66.3697 40.3973 66.4629C40.6142 66.5562 40.8006 66.6912 40.9566 66.8682C41.1145 67.0451 41.2363 67.2591 41.3219 67.5102C41.4094 67.7595 41.4532 68.0429 41.4532 68.3606ZM40.5885 68.5575V68.3549C40.5885 68.1343 40.5685 67.9402 40.5286 67.7728C40.4886 67.6054 40.4297 67.4646 40.3517 67.3504C40.2737 67.2363 40.1785 67.1507 40.0663 67.0936C39.954 67.0346 39.8256 67.0051 39.681 67.0051C39.5365 67.0051 39.408 67.0346 39.2958 67.0936C39.1855 67.1507 39.0913 67.2363 39.0133 67.3504C38.9372 67.4646 38.8792 67.6054 38.8392 67.7728C38.7993 67.9402 38.7793 68.1343 38.7793 68.3549V68.5575C38.7793 68.7763 38.7993 68.9704 38.8392 69.1397C38.8792 69.3071 38.9381 69.4489 39.0161 69.5649C39.0941 69.679 39.1893 69.7656 39.3015 69.8246C39.4137 69.8836 39.5422 69.9131 39.6867 69.9131C39.8313 69.9131 39.9598 69.8836 40.072 69.8246C40.1842 69.7656 40.2784 69.679 40.3545 69.5649C40.4306 69.4489 40.4886 69.3071 40.5286 69.1397C40.5685 68.9704 40.5885 68.7763 40.5885 68.5575ZM43.6876 69.0541H42.6289V68.3863H43.6876C43.8512 68.3863 43.9844 68.3597 44.0871 68.3064C44.1899 68.2513 44.265 68.1752 44.3126 68.0781C44.3601 67.9811 44.3839 67.8717 44.3839 67.75C44.3839 67.6263 44.3601 67.5112 44.3126 67.4047C44.265 67.2981 44.1899 67.2125 44.0871 67.1478C43.9844 67.0831 43.8512 67.0508 43.6876 67.0508H42.9257V70.5352H42.0696V66.3802H43.6876C44.0129 66.3802 44.2917 66.4392 44.5238 66.5571C44.7578 66.6732 44.9366 66.8339 45.0602 67.0394C45.1839 67.2449 45.2457 67.4798 45.2457 67.7442C45.2457 68.0125 45.1839 68.2446 45.0602 68.4405C44.9366 68.6365 44.7578 68.7877 44.5238 68.8943C44.2917 69.0008 44.0129 69.0541 43.6876 69.0541ZM49.2095 66.3716V70.5352H48.3876V67.319L47.4003 67.633V66.9852L49.121 66.3716H49.2095ZM53.3588 68.0924V68.8115C53.3588 69.1235 53.3255 69.3927 53.2589 69.6191C53.1923 69.8436 53.0962 70.0282 52.9707 70.1727C52.847 70.3154 52.6996 70.421 52.5284 70.4895C52.3571 70.558 52.1669 70.5922 51.9576 70.5922C51.7902 70.5922 51.6342 70.5713 51.4896 70.5294C51.345 70.4857 51.2147 70.4182 51.0987 70.3268C50.9845 70.2355 50.8856 70.1204 50.8019 69.9815C50.7201 69.8408 50.6573 69.6733 50.6135 69.4793C50.5698 69.2852 50.5479 69.0627 50.5479 68.8115V68.0924C50.5479 67.7804 50.5812 67.5131 50.6478 67.2905C50.7163 67.066 50.8123 66.8824 50.936 66.7397C51.0616 66.5971 51.2099 66.4924 51.3812 66.4258C51.5524 66.3574 51.7426 66.3231 51.9519 66.3231C52.1193 66.3231 52.2744 66.345 52.4171 66.3887C52.5616 66.4306 52.692 66.4962 52.808 66.5857C52.9241 66.6751 53.023 66.7902 53.1048 66.9309C53.1866 67.0698 53.2494 67.2363 53.2931 67.4303C53.3369 67.6225 53.3588 67.8432 53.3588 68.0924ZM52.5341 68.92V67.9811C52.5341 67.8308 52.5255 67.6995 52.5084 67.5873C52.4932 67.4751 52.4694 67.3799 52.437 67.3019C52.4047 67.222 52.3647 67.1573 52.3172 67.1079C52.2696 67.0584 52.2154 67.0223 52.1545 66.9994C52.0936 66.9766 52.0261 66.9652 51.9519 66.9652C51.8587 66.9652 51.7759 66.9833 51.7036 67.0194C51.6332 67.0556 51.5733 67.1136 51.5239 67.1935C51.4744 67.2715 51.4363 67.3761 51.4097 67.5074C51.385 67.6368 51.3726 67.7947 51.3726 67.9811V68.92C51.3726 69.0703 51.3802 69.2025 51.3954 69.3166C51.4126 69.4308 51.4373 69.5288 51.4696 69.6106C51.5039 69.6905 51.5438 69.7561 51.5895 69.8075C51.637 69.8569 51.6913 69.8931 51.7521 69.9159C51.8149 69.9387 51.8834 69.9501 51.9576 69.9501C52.0489 69.9501 52.1298 69.9321 52.2002 69.8959C52.2725 69.8579 52.3333 69.7989 52.3828 69.719C52.4342 69.6372 52.4722 69.5307 52.497 69.3994C52.5217 69.2681 52.5341 69.1083 52.5341 68.92ZM53.9067 67.399V67.1792C53.9067 67.0213 53.9409 66.8777 54.0094 66.7483C54.0779 66.6189 54.1787 66.5153 54.3119 66.4373C54.4451 66.3593 54.6087 66.3203 54.8027 66.3203C55.0025 66.3203 55.169 66.3593 55.3021 66.4373C55.4372 66.5153 55.538 66.6189 55.6046 66.7483C55.6731 66.8777 55.7074 67.0213 55.7074 67.1792V67.399C55.7074 67.5531 55.6731 67.6948 55.6046 67.8242C55.538 67.9535 55.4382 68.0572 55.305 68.1352C55.1718 68.2132 55.0063 68.2522 54.8084 68.2522C54.6125 68.2522 54.447 68.2132 54.3119 68.1352C54.1787 68.0572 54.0779 67.9535 54.0094 67.8242C53.9409 67.6948 53.9067 67.5531 53.9067 67.399ZM54.4517 67.1792V67.399C54.4517 67.4655 54.4641 67.5293 54.4888 67.5901C54.5155 67.6491 54.5554 67.6976 54.6087 67.7357C54.6639 67.7718 54.7304 67.7899 54.8084 67.7899C54.8903 67.7899 54.9568 67.7718 55.0082 67.7357C55.0596 67.6976 55.0976 67.6491 55.1224 67.5901C55.1471 67.5293 55.1595 67.4655 55.1595 67.399V67.1792C55.1595 67.1088 55.1461 67.0441 55.1195 66.9852C55.0948 66.9243 55.0558 66.8758 55.0025 66.8396C54.9511 66.8016 54.8845 66.7826 54.8027 66.7826C54.7266 66.7826 54.662 66.8016 54.6087 66.8396C54.5554 66.8758 54.5155 66.9243 54.4888 66.9852C54.4641 67.0441 54.4517 67.1088 54.4517 67.1792ZM55.8929 69.7361V69.5164C55.8929 69.3604 55.9271 69.2177 55.9956 69.0883C56.066 68.959 56.1678 68.8553 56.3009 68.7773C56.436 68.6993 56.6015 68.6603 56.7975 68.6603C56.9953 68.6603 57.1608 68.6993 57.294 68.7773C57.4272 68.8553 57.528 68.959 57.5965 69.0883C57.665 69.2177 57.6992 69.3604 57.6992 69.5164V69.7361C57.6992 69.8921 57.665 70.0348 57.5965 70.1642C57.5299 70.2935 57.43 70.3972 57.2969 70.4752C57.1637 70.5532 56.9991 70.5922 56.8032 70.5922C56.6053 70.5922 56.4389 70.5532 56.3038 70.4752C56.1687 70.3972 56.066 70.2935 55.9956 70.1642C55.9271 70.0348 55.8929 69.8921 55.8929 69.7361ZM56.4408 69.5164V69.7361C56.4408 69.8046 56.456 69.8693 56.4864 69.9302C56.5169 69.9911 56.5587 70.0396 56.612 70.0757C56.6672 70.1119 56.7309 70.1299 56.8032 70.1299C56.8945 70.1299 56.9658 70.1119 57.0172 70.0757C57.0686 70.0396 57.1038 69.9911 57.1228 69.9302C57.1437 69.8693 57.1542 69.8046 57.1542 69.7361V69.5164C57.1542 69.4479 57.1409 69.3842 57.1142 69.3252C57.0876 69.2643 57.0476 69.2158 56.9944 69.1797C56.943 69.1416 56.8774 69.1226 56.7975 69.1226C56.7176 69.1226 56.651 69.1416 56.5977 69.1797C56.5463 69.2158 56.5073 69.2643 56.4807 69.3252C56.4541 69.3842 56.4408 69.4479 56.4408 69.5164ZM57.0001 66.9738L54.9711 70.2213L54.5716 70.0101L56.6006 66.7626L57.0001 66.9738Z" fill="white"/>
<path d="M41.4019 77.6331V78.5117H37.5125V77.7619L39.3517 75.7899C39.5366 75.5842 39.6824 75.4033 39.7891 75.2471C39.8959 75.0883 39.9727 74.9464 40.0195 74.8214C40.069 74.6939 40.0937 74.5728 40.0937 74.4583C40.0937 74.2865 40.0651 74.1394 40.0078 74.017C39.9505 73.892 39.8659 73.7957 39.754 73.728C39.6446 73.6603 39.5093 73.6265 39.3478 73.6265C39.176 73.6265 39.0276 73.6682 38.9027 73.7515C38.7803 73.8348 38.6866 73.9506 38.6215 74.099C38.559 74.2474 38.5278 74.4153 38.5278 74.6028H37.3992C37.3992 74.2643 37.4799 73.9545 37.6413 73.6734C37.8027 73.3896 38.0305 73.1644 38.3247 72.9978C38.6189 72.8286 38.9678 72.744 39.3713 72.744C39.7696 72.744 40.1054 72.809 40.3788 72.9392C40.6547 73.0668 40.863 73.2516 41.0036 73.4937C41.1468 73.7332 41.2184 74.0196 41.2184 74.3528C41.2184 74.5403 41.1884 74.7238 41.1285 74.9035C41.0687 75.0805 40.9828 75.2575 40.8708 75.4345C40.7615 75.609 40.6287 75.786 40.4725 75.9656C40.3163 76.1453 40.1432 76.3314 39.9531 76.524L38.9652 77.6331H41.4019ZM45.9318 75.169V76.1531C45.9318 76.58 45.8862 76.9484 45.7951 77.2582C45.704 77.5654 45.5725 77.8179 45.4007 78.0158C45.2315 78.211 45.0297 78.3555 44.7954 78.4492C44.5611 78.543 44.3007 78.5898 44.0144 78.5898C43.7853 78.5898 43.5718 78.5612 43.3739 78.5039C43.1761 78.444 42.9978 78.3516 42.839 78.2267C42.6828 78.1017 42.5474 77.9442 42.4328 77.7541C42.3209 77.5615 42.235 77.3324 42.1751 77.0669C42.1152 76.8013 42.0853 76.4967 42.0853 76.1531V75.169C42.0853 74.742 42.1308 74.3763 42.222 74.0717C42.3157 73.7645 42.4472 73.5133 42.6164 73.318C42.7882 73.1228 42.9913 72.9796 43.2256 72.8884C43.4599 72.7947 43.7202 72.7479 44.0066 72.7479C44.2357 72.7479 44.4478 72.7778 44.6431 72.8377C44.8409 72.895 45.0193 72.9848 45.1781 73.1071C45.3369 73.2295 45.4723 73.387 45.5842 73.5796C45.6962 73.7697 45.7821 73.9975 45.8419 74.263C45.9018 74.526 45.9318 74.828 45.9318 75.169ZM44.8032 76.3015V75.0167C44.8032 74.811 44.7915 74.6314 44.7681 74.4778C44.7472 74.3242 44.7147 74.194 44.6704 74.0873C44.6262 73.978 44.5715 73.8894 44.5064 73.8218C44.4413 73.7541 44.3671 73.7046 44.2838 73.6734C44.2005 73.6421 44.1081 73.6265 44.0066 73.6265C43.879 73.6265 43.7658 73.6512 43.6668 73.7007C43.5705 73.7502 43.4885 73.8296 43.4208 73.9389C43.3531 74.0456 43.3011 74.1888 43.2646 74.3685C43.2308 74.5455 43.2138 74.7616 43.2138 75.0167V76.3015C43.2138 76.5071 43.2243 76.6881 43.2451 76.8443C43.2685 77.0005 43.3024 77.1345 43.3466 77.2465C43.3935 77.3558 43.4481 77.4456 43.5106 77.5159C43.5757 77.5836 43.6499 77.6331 43.7332 77.6643C43.8191 77.6956 43.9128 77.7112 44.0144 77.7112C44.1393 77.7112 44.25 77.6865 44.3463 77.637C44.4452 77.5849 44.5285 77.5042 44.5962 77.3949C44.6665 77.2829 44.7186 77.1371 44.7524 76.9575C44.7863 76.7779 44.8032 76.5592 44.8032 76.3015ZM50.5866 77.6331V78.5117H46.6971V77.7619L48.5364 75.7899C48.7213 75.5842 48.8671 75.4033 48.9738 75.2471C49.0805 75.0883 49.1573 74.9464 49.2042 74.8214C49.2537 74.6939 49.2784 74.5728 49.2784 74.4583C49.2784 74.2865 49.2497 74.1394 49.1925 74.017C49.1352 73.892 49.0506 73.7957 48.9386 73.728C48.8293 73.6603 48.6939 73.6265 48.5325 73.6265C48.3607 73.6265 48.2123 73.6682 48.0873 73.7515C47.965 73.8348 47.8713 73.9506 47.8062 74.099C47.7437 74.2474 47.7125 74.4153 47.7125 74.6028H46.5839C46.5839 74.2643 46.6646 73.9545 46.826 73.6734C46.9874 73.3896 47.2152 73.1644 47.5094 72.9978C47.8036 72.8286 48.1524 72.744 48.5559 72.744C48.9543 72.744 49.2901 72.809 49.5635 72.9392C49.8394 73.0668 50.0477 73.2516 50.1883 73.4937C50.3314 73.7332 50.403 74.0196 50.403 74.3528C50.403 74.5403 50.3731 74.7238 50.3132 74.9035C50.2533 75.0805 50.1674 75.2575 50.0555 75.4345C49.9461 75.609 49.8134 75.786 49.6572 75.9656C49.501 76.1453 49.3278 76.3314 49.1378 76.524L48.1498 77.6331H50.5866ZM55.2726 76.3874V77.2699H51.1762L51.1216 76.5865L53.4919 72.826H54.3862L53.4177 74.4466L52.2384 76.3874H55.2726ZM54.6283 72.826V78.5117H53.5036V72.826H54.6283Z" fill="white"/>
</g>
<defs>
<clipPath id="clip0_1736_1207">
<rect width="90.9935" height="100" fill="white" transform="translate(0.537109 0.800781)"/>
</clipPath>
</defs>
</svg>
