<svg width="116" height="101" viewBox="0 0 116 101" fill="none" xmlns="http://www.w3.org/2000/svg">
<g clip-path="url(#clip0_1736_1283)">
<path d="M87.2118 0.914062H29.1403L0.212891 50.9682L29.1403 100.914H87.2118L115.923 50.9682L87.2118 0.914062Z" fill="url(#paint0_linear_1736_1283)"/>
<path opacity="0.35" d="M29.1403 0.914062L0.212891 50.9682L33.4448 37.7476L29.1403 0.914062Z" fill="url(#paint1_linear_1736_1283)"/>
<path opacity="0.35" d="M0.212891 50.9688L29.1403 100.915L34.2701 65.9373L0.212891 50.9688Z" fill="url(#paint2_linear_1736_1283)"/>
<path opacity="0.35" d="M87.2102 0.914062L115.921 50.9682L82.9102 37.7476L87.2102 0.914062Z" fill="url(#paint3_linear_1736_1283)"/>
<path opacity="0.35" d="M115.922 50.9688L87.2115 100.915L81.7402 66.0825L115.922 50.9688Z" fill="url(#paint4_linear_1736_1283)"/>
<path d="M29.1387 0.914062L33.4432 37.7476L51.787 13.9531V0.914062H29.1387Z" fill="url(#paint5_linear_1736_1283)"/>
<path d="M87.2116 0.914062L82.9206 37.7476L64.5723 13.9531V0.914062H87.2116Z" fill="url(#paint6_linear_1736_1283)"/>
<path d="M29.1387 100.914L34.196 65.8555L52.4323 87.4797V100.914H29.1387Z" fill="url(#paint7_linear_1736_1283)"/>
<path d="M87.2117 100.915L81.7008 65.707L65.9766 87.8059V100.915H87.2117Z" fill="url(#paint8_linear_1736_1283)"/>
<path d="M51.7872 13.9531H64.5711L82.4569 37.7477L81.695 65.7058L65.9906 87.9419L52.4583 87.4617L34.1962 65.8553L33.4434 37.7477L51.7872 13.9531Z" fill="url(#paint9_linear_1736_1283)"/>
<path d="M79.5185 14.0234H36.8316L15.2715 50.9682L36.8316 87.8046H79.5185L100.862 50.9682L79.5185 14.0234Z" fill="url(#paint10_linear_1736_1283)"/>
<path d="M56.0934 22.9182L54.9687 25.8992H55.7851L57.6126 21.0742L54.5742 22.9182H56.0934Z" fill="white"/>
<path d="M52.3066 23.5913L53.7714 25.0638L54.5741 22.9208L55.4811 20.4062L52.3066 23.5913ZM58.2474 22.9931L57.7486 24.4112L59.2541 25.9018L58.2474 22.9931Z" fill="white"/>
<path d="M59.2543 25.9004L57.7488 24.4098L57.2226 25.9004H59.2543ZM54.5742 22.9194L57.6126 21.0754L55.4812 20.4049L54.5742 22.9194ZM55.4814 20.4049L57.6128 21.0754L58.2477 17.6367L55.4814 20.4049Z" fill="white"/>
<path d="M57.6113 21.0754H58.9083L58.2462 17.6367L57.6113 21.0754ZM58.2462 17.6367L58.9084 21.0754L62.033 21.4333L58.2462 17.6367Z" fill="white"/>
<path d="M58.9102 21.0742L59.4907 22.6463L62.0347 21.4321L58.9102 21.0742ZM62.7333 25.0611L64.1845 23.5887L62.2572 23.7744L62.7333 25.0611ZM62.257 23.7744L64.1844 23.5887L62.0347 21.4322L62.257 23.7744Z" fill="white"/>
<path d="M62.0342 21.4336L60.7555 23.7758H62.2564L62.0342 21.4336ZM59.4902 22.6478L60.7056 25.9007H61.5219L60.7555 23.7758L59.4902 22.6478Z" fill="white"/>
<path d="M62.0337 21.4336L59.4896 22.6478L60.7549 23.7758L62.0337 21.4336ZM58.2469 25.8644C56.5555 25.8644 53.7575 25.6424 53.7575 25.0625V25.8826C53.7575 26.2767 55.6032 26.6844 58.2469 26.6844C60.8908 26.6844 62.7365 26.2722 62.7365 25.8826V25.0625C62.7365 25.6424 59.9385 25.8644 58.2469 25.8644ZM51.05 32.1076L50.6917 30.8753H48.9186L48.5603 32.1076H47.4492L49.1226 26.9246H50.4558L52.1474 32.1076H51.05ZM50.4514 29.951L50.1248 28.823C50.1066 28.7867 50.0885 28.7051 50.0568 28.6191C50.0205 28.5148 50.007 28.4152 49.9707 28.2929C49.9344 28.1751 49.9026 28.0528 49.8844 27.9349C49.8482 27.8171 49.8346 27.7129 49.8165 27.6269C49.7983 27.6767 49.7983 27.7446 49.7802 27.8171C49.7619 27.8907 49.7452 27.9648 49.7303 28.0391C49.7139 28.1208 49.6912 28.2012 49.6622 28.2793C49.6441 28.3653 49.626 28.4333 49.5943 28.5013C49.5761 28.5692 49.558 28.6372 49.5443 28.6916C49.5263 28.7414 49.508 28.7776 49.508 28.8093L49.1816 29.9375L50.4468 29.9556L50.4514 29.951ZM54.3604 32.1756C54.0702 32.1756 53.8163 32.1393 53.5941 32.0578C53.3719 31.9763 53.1677 31.8539 53.0136 31.6999C52.8594 31.5277 52.7233 31.3238 52.6372 31.0656C52.551 30.8074 52.5011 30.4992 52.5011 30.1414C52.5011 29.7472 52.551 29.421 52.6372 29.1492C52.7233 28.8909 52.8412 28.6689 53.0136 28.5149C53.1677 28.3608 53.3719 28.243 53.5941 28.1705C53.8163 28.0981 54.0702 28.0663 54.3468 28.0663C54.5508 28.0663 54.755 28.0845 54.9454 28.1344C55.1495 28.1842 55.34 28.2521 55.5077 28.3381L55.1994 29.1582C55.0452 29.0903 54.891 29.0404 54.755 28.986C54.6189 28.9362 54.4829 28.9181 54.3468 28.9181C54.0929 28.9181 53.9024 29.0223 53.7845 29.208C53.6666 29.4119 53.6122 29.7064 53.6122 30.096C53.6122 30.4857 53.662 30.7802 53.7845 30.9704C53.907 31.1607 54.0929 31.2604 54.3286 31.2604C54.5328 31.2604 54.7232 31.2242 54.891 31.1743C55.0675 31.1214 55.2389 31.0531 55.4035 30.9704V31.8766C55.3173 31.9128 55.2311 31.9626 55.1495 31.9944C55.0679 32.0261 54.9772 32.0442 54.8956 32.0804C54.8094 32.0986 54.7232 32.1167 54.6416 32.1302C54.5736 32.1665 54.4693 32.1665 54.3695 32.1665L54.3604 32.1756ZM57.3987 32.1076H56.324V28.1569H57.3987V32.1076ZM60.2695 32.1755C59.9792 32.1755 59.7253 32.1392 59.485 32.0578C59.2446 31.9716 59.0405 31.8539 58.8682 31.6817C58.6959 31.5095 58.5598 31.3056 58.4737 31.0474C58.3694 30.7892 58.3376 30.4992 58.3376 30.1594C58.3376 29.8196 58.3875 29.5115 58.4737 29.2533C58.5598 28.995 58.6777 28.773 58.8319 28.6054C58.9862 28.4333 59.1721 28.2973 59.3943 28.2113C59.6285 28.1202 59.8777 28.0741 60.129 28.0753C60.3829 28.0753 60.6232 28.1116 60.8273 28.1932C61.0313 28.2792 61.2218 28.3834 61.3579 28.5375C61.5121 28.6914 61.6118 28.8818 61.698 29.1038C61.7842 29.3258 61.816 29.584 61.816 29.874V30.404H59.4078C59.4078 30.5581 59.4441 30.694 59.4759 30.8164C59.5258 30.9341 59.5802 31.0384 59.6618 31.1244C59.7435 31.2105 59.8342 31.2784 59.952 31.3147C60.07 31.3646 60.1924 31.3827 60.3284 31.3827C60.4464 31.3827 60.5688 31.3827 60.6686 31.3646C60.771 31.3453 60.8738 31.3287 60.977 31.3147C61.0813 31.2784 61.1811 31.2649 61.2853 31.2105C61.3896 31.1742 61.4894 31.1244 61.5937 31.0745V31.9127C61.4894 31.9625 61.4077 31.9988 61.3035 32.0306C61.1992 32.0667 61.1176 32.0985 60.995 32.1166C60.8908 32.1348 60.7728 32.1529 60.655 32.1664C60.5371 32.1846 60.4147 32.1846 60.2604 32.1846L60.2695 32.1755ZM60.129 28.841C59.9429 28.841 59.7888 28.909 59.6528 29.0449C59.5348 29.1808 59.4487 29.3892 59.4306 29.6792H60.7956C60.7956 29.5613 60.7774 29.439 60.7456 29.353C60.7094 29.2488 60.6776 29.1626 60.6278 29.0947C60.5779 29.0268 60.5099 28.9588 60.4237 28.9225C60.3375 28.8727 60.2514 28.8365 60.1334 28.8365L60.129 28.841ZM64.3281 31.3237C64.4324 31.3237 64.5322 31.3056 64.6365 31.2875C64.7408 31.2695 64.8225 31.2377 64.9267 31.2014V32.0034C64.8225 32.0532 64.7045 32.1076 64.5503 32.1393C64.3961 32.171 64.242 32.1892 64.056 32.1892C63.8837 32.1892 63.7295 32.171 63.5799 32.1393C63.4257 32.103 63.3077 32.0351 63.1853 31.9354C63.081 31.8312 62.9994 31.6952 62.9313 31.5231C62.8633 31.3509 62.8452 31.1471 62.8452 30.8888V28.9543H62.3328V28.4922L62.9313 28.1342L63.2397 27.2961H63.9245V28.1342H64.8814V28.9362H63.9245V30.8345C63.9245 30.9885 63.9608 31.1063 64.0424 31.1788C64.1104 31.283 64.2148 31.3147 64.3326 31.3147L64.3281 31.3237ZM65.1672 28.157H66.3463L66.9766 30.3815C67.0129 30.4992 67.0447 30.6397 67.0628 30.7756C67.081 30.9115 67.0991 31.0338 67.0991 31.1517H67.1173C67.1173 31.1018 67.1354 31.0338 67.1354 30.9613C67.1354 30.8888 67.1536 30.8255 67.1716 30.7575C67.1897 30.6895 67.1897 30.6216 67.2079 30.5536C67.226 30.4857 67.2442 30.4359 67.2578 30.3634L67.8746 28.1388H69.0537L67.4982 32.606C67.344 33.0182 67.158 33.3399 66.8996 33.5302C66.6456 33.7341 66.3372 33.8383 65.9608 33.8383C65.8429 33.8383 65.7386 33.8383 65.6343 33.8202C65.5481 33.8021 65.462 33.784 65.4121 33.784V32.9276C65.462 32.9457 65.5164 32.9457 65.5981 32.9639C65.666 32.982 65.7523 32.982 65.8384 32.982C65.9563 32.982 66.0425 32.9639 66.1286 32.9322C66.2148 32.9004 66.2828 32.8643 66.3326 32.7962C66.3926 32.7352 66.4445 32.6667 66.4869 32.5924C66.5231 32.5063 66.5549 32.4203 66.5911 32.3341L66.6592 32.1302L65.1763 28.1614L65.1672 28.157Z" fill="white"/>
<path d="M25.4307 45.9327H26.6282C26.6042 46.3252 26.496 46.6737 26.3038 46.9781C26.1142 47.2824 25.8485 47.5201 25.5068 47.691C25.1677 47.8618 24.7591 47.9473 24.2812 47.9473C23.9074 47.9473 23.5723 47.8832 23.2759 47.755C22.9795 47.6242 22.7259 47.4373 22.515 47.1943C22.3067 46.9514 22.1478 46.6576 22.0383 46.3132C21.9289 45.9688 21.8741 45.5829 21.8741 45.1557V44.7512C21.8741 44.324 21.9302 43.9382 22.0424 43.5938C22.1572 43.2466 22.32 42.9516 22.531 42.7086C22.7446 42.4656 22.9996 42.2787 23.2959 42.1479C23.5923 42.0171 23.9234 41.9517 24.2892 41.9517C24.7752 41.9517 25.185 42.0398 25.5188 42.216C25.8552 42.3922 26.1155 42.6352 26.2998 42.9449C26.4867 43.2547 26.5988 43.6071 26.6362 44.0023H25.4347C25.4213 43.7673 25.3746 43.5684 25.2945 43.4055C25.2144 43.24 25.0929 43.1158 24.93 43.033C24.7698 42.9476 24.5562 42.9049 24.2892 42.9049C24.089 42.9049 23.9141 42.9423 23.7645 43.017C23.615 43.0918 23.4895 43.2053 23.3881 43.3574C23.2866 43.5096 23.2105 43.7019 23.1598 43.9342C23.1117 44.1638 23.0877 44.4335 23.0877 44.7432V45.1557C23.0877 45.4575 23.1104 45.7231 23.1558 45.9528C23.2012 46.1797 23.2706 46.372 23.364 46.5295C23.4602 46.6843 23.583 46.8018 23.7325 46.8819C23.8847 46.9594 24.0676 46.9981 24.2812 46.9981C24.5322 46.9981 24.7391 46.958 24.902 46.8779C25.0649 46.7978 25.189 46.679 25.2745 46.5215C25.3626 46.3639 25.4146 46.1677 25.4307 45.9327ZM29.9084 46.8299V43.5337H31.0618V47.8672H29.9764L29.9084 46.8299ZM30.0365 45.9407L30.377 45.9327C30.377 46.2211 30.3436 46.4894 30.2768 46.7378C30.2101 46.9834 30.11 47.197 29.9764 47.3786C29.8429 47.5575 29.6747 47.6976 29.4718 47.7991C29.2689 47.8979 29.0299 47.9473 28.7549 47.9473C28.544 47.9473 28.349 47.9179 28.1702 47.8592C27.9939 47.7978 27.8417 47.703 27.7136 47.5748C27.5881 47.444 27.4893 47.2771 27.4172 47.0742C27.3478 46.8686 27.3131 46.6216 27.3131 46.3332V43.5337H28.4665V46.3412C28.4665 46.4694 28.4812 46.5775 28.5106 46.6657C28.5426 46.7538 28.5867 46.8259 28.6428 46.8819C28.6988 46.938 28.7642 46.9781 28.839 47.0021C28.9164 47.0261 29.0019 47.0381 29.0953 47.0381C29.333 47.0381 29.5199 46.9901 29.656 46.8939C29.7949 46.7978 29.8923 46.667 29.9484 46.5014C30.0072 46.3332 30.0365 46.1463 30.0365 45.9407ZM34.2859 46.6697C34.2859 46.5869 34.2619 46.5121 34.2138 46.4454C34.1658 46.3786 34.0763 46.3172 33.9455 46.2611C33.8173 46.2024 33.6318 46.149 33.3888 46.1009C33.1698 46.0529 32.9656 45.9928 32.776 45.9207C32.5891 45.8459 32.4262 45.7565 32.2874 45.6524C32.1512 45.5482 32.0444 45.4254 31.967 45.2839C31.8895 45.1397 31.8508 44.9755 31.8508 44.7913C31.8508 44.6097 31.8895 44.4388 31.967 44.2786C32.0471 44.1184 32.1606 43.9769 32.3074 43.8541C32.4569 43.7286 32.6385 43.6311 32.8521 43.5617C33.0684 43.4896 33.3114 43.4536 33.581 43.4536C33.9575 43.4536 34.2806 43.5136 34.5503 43.6338C34.8226 43.754 35.0309 43.9195 35.1751 44.1304C35.3219 44.3387 35.3953 44.5763 35.3953 44.8433H34.2419C34.2419 44.7312 34.2178 44.6311 34.1698 44.543C34.1244 44.4522 34.0523 44.3814 33.9535 44.3307C33.8574 44.2773 33.7319 44.2506 33.577 44.2506C33.4489 44.2506 33.3381 44.2733 33.2446 44.3187C33.1512 44.3614 33.0791 44.4201 33.0283 44.4949C32.9803 44.567 32.9562 44.6471 32.9562 44.7352C32.9562 44.802 32.9696 44.862 32.9963 44.9154C33.0257 44.9662 33.0724 45.0129 33.1365 45.0556C33.2006 45.0983 33.2833 45.1384 33.3848 45.1758C33.4889 45.2105 33.6171 45.2425 33.7693 45.2719C34.0817 45.336 34.3607 45.4201 34.6063 45.5242C34.852 45.6257 35.0469 45.7645 35.1911 45.9407C35.3353 46.1143 35.4074 46.3426 35.4074 46.6256C35.4074 46.8179 35.3646 46.9941 35.2792 47.1543C35.1938 47.3145 35.0709 47.4547 34.9107 47.5748C34.7505 47.6923 34.5583 47.7844 34.334 47.8512C34.1124 47.9152 33.8627 47.9473 33.585 47.9473C33.1819 47.9473 32.8401 47.8752 32.5597 47.731C32.282 47.5868 32.0711 47.4039 31.9269 47.1823C31.7854 46.958 31.7147 46.7284 31.7147 46.4934H32.8081C32.8134 46.651 32.8534 46.7778 32.9282 46.8739C33.0056 46.97 33.1031 47.0395 33.2206 47.0822C33.3407 47.1249 33.4702 47.1463 33.6091 47.1463C33.7586 47.1463 33.8828 47.1262 33.9815 47.0862C34.0803 47.0435 34.1551 46.9874 34.2058 46.918C34.2592 46.8459 34.2859 46.7631 34.2859 46.6697ZM38.279 43.5337V44.3507H35.7558V43.5337H38.279ZM36.3806 42.4643H37.5341V46.5615C37.5341 46.687 37.5501 46.7831 37.5821 46.8499C37.6168 46.9166 37.6676 46.9634 37.7343 46.9901C37.8011 47.0141 37.8852 47.0261 37.9866 47.0261C38.0587 47.0261 38.1228 47.0234 38.1789 47.0181C38.2376 47.0101 38.287 47.0021 38.3271 46.9941L38.3311 47.8432C38.2323 47.8752 38.1255 47.9006 38.0107 47.9193C37.8959 47.9379 37.769 47.9473 37.6302 47.9473C37.3765 47.9473 37.1549 47.9059 36.9653 47.8231C36.7784 47.7377 36.6343 47.6015 36.5328 47.4146C36.4313 47.2277 36.3806 46.9821 36.3806 46.6777V42.4643ZM38.6475 45.7445V45.6604C38.6475 45.3426 38.6929 45.0503 38.7837 44.7833C38.8744 44.5136 39.0066 44.28 39.1802 44.0824C39.3537 43.8848 39.5673 43.7313 39.821 43.6218C40.0746 43.5096 40.3657 43.4536 40.6941 43.4536C41.0225 43.4536 41.3149 43.5096 41.5712 43.6218C41.8275 43.7313 42.0425 43.8848 42.216 44.0824C42.3922 44.28 42.5257 44.5136 42.6165 44.7833C42.7073 45.0503 42.7527 45.3426 42.7527 45.6604V45.7445C42.7527 46.0596 42.7073 46.3519 42.6165 46.6216C42.5257 46.8886 42.3922 47.1222 42.216 47.3225C42.0425 47.5201 41.8289 47.6736 41.5752 47.7831C41.3215 47.8926 41.0305 47.9473 40.7021 47.9473C40.3737 47.9473 40.0813 47.8926 39.825 47.7831C39.5713 47.6736 39.3564 47.5201 39.1802 47.3225C39.0066 47.1222 38.8744 46.8886 38.7837 46.6216C38.6929 46.3519 38.6475 46.0596 38.6475 45.7445ZM39.8009 45.6604V45.7445C39.8009 45.9261 39.817 46.0956 39.849 46.2531C39.8811 46.4107 39.9318 46.5495 40.0012 46.6697C40.0733 46.7871 40.1667 46.8793 40.2816 46.946C40.3964 47.0128 40.5366 47.0461 40.7021 47.0461C40.8623 47.0461 40.9998 47.0128 41.1146 46.946C41.2294 46.8793 41.3215 46.7871 41.391 46.6697C41.4604 46.5495 41.5111 46.4107 41.5432 46.2531C41.5779 46.0956 41.5952 45.9261 41.5952 45.7445V45.6604C41.5952 45.4842 41.5779 45.3186 41.5432 45.1637C41.5111 45.0062 41.4591 44.8674 41.387 44.7472C41.3175 44.6244 41.2254 44.5283 41.1106 44.4589C40.9958 44.3894 40.857 44.3547 40.6941 44.3547C40.5312 44.3547 40.3924 44.3894 40.2776 44.4589C40.1654 44.5283 40.0733 44.6244 40.0012 44.7472C39.9318 44.8674 39.8811 45.0062 39.849 45.1637C39.817 45.3186 39.8009 45.4842 39.8009 45.6604ZM44.6151 44.4308V47.8672H43.4576V43.5337H44.543L44.6151 44.4308ZM44.4549 45.5482H44.1345C44.1345 45.2465 44.1705 44.9688 44.2426 44.7152C44.3174 44.4589 44.4255 44.2372 44.567 44.0503C44.7112 43.8608 44.8888 43.7139 45.0997 43.6098C45.3106 43.5056 45.5549 43.4536 45.8326 43.4536C46.0249 43.4536 46.2011 43.4829 46.3613 43.5417C46.5215 43.5978 46.659 43.6872 46.7738 43.81C46.8913 43.9302 46.9821 44.0877 47.0462 44.2826C47.1102 44.4749 47.1423 44.7058 47.1423 44.9755V47.8672H45.9888V45.1037C45.9888 44.9061 45.9621 44.7539 45.9087 44.6471C45.8553 44.5403 45.7792 44.4655 45.6804 44.4228C45.5843 44.3801 45.4682 44.3587 45.332 44.3587C45.1825 44.3587 45.0516 44.3894 44.9395 44.4508C44.83 44.5123 44.7392 44.5977 44.6671 44.7072C44.595 44.814 44.5416 44.9395 44.5069 45.0836C44.4722 45.2278 44.4549 45.3827 44.4549 45.5482ZM47.0342 45.4161L46.6216 45.4681C46.6216 45.1851 46.6563 44.9221 46.7258 44.6791C46.7979 44.4362 46.9033 44.2226 47.0422 44.0383C47.1837 43.8541 47.3586 43.7112 47.5668 43.6098C47.7751 43.5056 48.0154 43.4536 48.2877 43.4536C48.496 43.4536 48.6856 43.4843 48.8565 43.5457C49.0274 43.6044 49.1729 43.6992 49.293 43.8301C49.4158 43.9582 49.5093 44.1264 49.5734 44.3347C49.6401 44.543 49.6735 44.7979 49.6735 45.0997V47.8672H48.516V45.0997C48.516 44.8994 48.4893 44.7472 48.4359 44.6431C48.3852 44.5363 48.3104 44.4629 48.2116 44.4228C48.1155 44.3801 48.0007 44.3587 47.8672 44.3587C47.7284 44.3587 47.6069 44.3868 47.5027 44.4428C47.3986 44.4962 47.3118 44.571 47.2424 44.6671C47.173 44.7632 47.1209 44.8754 47.0862 45.0035C47.0515 45.129 47.0342 45.2665 47.0342 45.4161ZM54.0871 46.942L55.2486 42.0358H55.8974L56.0456 42.8528L54.808 47.8672H54.1112L54.0871 46.942ZM53.4904 42.0358L54.4516 46.942L54.3715 47.8672H53.5945L52.3009 42.0358H53.4904ZM57.0669 46.922L58.0161 42.0358H59.2056L57.916 47.8672H57.139L57.0669 46.922ZM56.2619 42.0358L57.4314 46.962L57.3993 47.8672H56.7025L55.4569 42.8488L55.6171 42.0358H56.2619ZM61.6528 47.9473C61.3163 47.9473 61.0146 47.8939 60.7476 47.7871C60.4806 47.6776 60.2536 47.5268 60.0667 47.3345C59.8825 47.1423 59.741 46.9193 59.6422 46.6657C59.5434 46.4093 59.494 46.137 59.494 45.8486V45.6884C59.494 45.36 59.5407 45.0596 59.6342 44.7873C59.7276 44.5149 59.8611 44.2786 60.0347 44.0784C60.2109 43.8781 60.4245 43.7246 60.6755 43.6178C60.9265 43.5083 61.2095 43.4536 61.5246 43.4536C61.8316 43.4536 62.104 43.5043 62.3416 43.6058C62.5793 43.7072 62.7782 43.8514 62.9384 44.0383C63.1013 44.2252 63.2241 44.4495 63.3069 44.7112C63.3896 44.9702 63.431 45.2585 63.431 45.5763V46.0569H59.9866V45.2879H62.2976V45.1998C62.2976 45.0396 62.2682 44.8967 62.2095 44.7712C62.1534 44.6431 62.0679 44.5416 61.9531 44.4669C61.8383 44.3921 61.6915 44.3547 61.5126 44.3547C61.3604 44.3547 61.2295 44.3881 61.1201 44.4548C61.0106 44.5216 60.9212 44.615 60.8517 44.7352C60.785 44.8554 60.7343 44.9969 60.6995 45.1597C60.6675 45.3199 60.6515 45.4962 60.6515 45.6884V45.8486C60.6515 46.0222 60.6755 46.1824 60.7236 46.3292C60.7743 46.4761 60.8451 46.6029 60.9358 46.7097C61.0293 46.8165 61.1414 46.8993 61.2723 46.958C61.4058 47.0168 61.5566 47.0461 61.7248 47.0461C61.9331 47.0461 62.1267 47.0061 62.3056 46.926C62.4871 46.8432 62.6433 46.7191 62.7742 46.5535L63.3349 47.1623C63.2441 47.2931 63.12 47.4186 62.9624 47.5388C62.8076 47.6589 62.6207 47.7577 62.4017 47.8351C62.1828 47.9099 61.9331 47.9473 61.6528 47.9473ZM64.0878 41.7154H65.2413V46.8739L65.1252 47.8672H64.0878V41.7154ZM67.9848 45.6564V45.7405C67.9848 46.0636 67.9501 46.3599 67.8807 46.6296C67.8139 46.8993 67.7098 47.1329 67.5683 47.3305C67.4268 47.5254 67.2505 47.6776 67.0396 47.7871C66.8313 47.8939 66.5857 47.9473 66.3027 47.9473C66.0383 47.9473 65.8087 47.8939 65.6138 47.7871C65.4215 47.6803 65.26 47.5294 65.1292 47.3345C64.9983 47.1396 64.8929 46.9113 64.8128 46.6496C64.7327 46.388 64.6726 46.1023 64.6325 45.7925V45.6083C64.6726 45.2986 64.7327 45.0129 64.8128 44.7512C64.8929 44.4896 64.9983 44.2613 65.1292 44.0664C65.26 43.8714 65.4215 43.7206 65.6138 43.6138C65.806 43.507 66.033 43.4536 66.2947 43.4536C66.5804 43.4536 66.8287 43.5083 67.0396 43.6178C67.2532 43.7246 67.4294 43.8768 67.5683 44.0744C67.7098 44.2693 67.8139 44.5016 67.8807 44.7712C67.9501 45.0383 67.9848 45.3333 67.9848 45.6564ZM66.8313 45.7405V45.6564C66.8313 45.4802 66.818 45.3146 66.7913 45.1597C66.7673 45.0022 66.7245 44.8647 66.6631 44.7472C66.6017 44.6271 66.5176 44.5323 66.4108 44.4629C66.3067 44.3934 66.1718 44.3587 66.0063 44.3587C65.8488 44.3587 65.7153 44.3854 65.6058 44.4388C65.4963 44.4922 65.4055 44.567 65.3334 44.6631C65.264 44.7592 65.2119 44.874 65.1772 45.0075C65.1425 45.1384 65.1212 45.2826 65.1132 45.4401V45.9648C65.1212 46.1757 65.1559 46.3626 65.2173 46.5255C65.2814 46.6857 65.3775 46.8125 65.5057 46.906C65.6365 46.9967 65.806 47.0421 66.0143 47.0421C66.1772 47.0421 66.312 47.0101 66.4188 46.946C66.5256 46.8819 66.6084 46.7912 66.6671 46.6737C66.7285 46.5562 66.7713 46.4187 66.7953 46.2611C66.8193 46.1009 66.8313 45.9274 66.8313 45.7405ZM72.6067 47.8672H71.3371L71.3451 46.93H72.6067C72.9218 46.93 73.1874 46.8592 73.4037 46.7177C73.62 46.5735 73.7829 46.3639 73.8923 46.0889C74.0045 45.8139 74.0605 45.4815 74.0605 45.0917V44.8073C74.0605 44.5082 74.0285 44.2452 73.9644 44.0183C73.903 43.7913 73.8109 43.6004 73.6881 43.4456C73.5652 43.2907 73.4144 43.1746 73.2355 43.0971C73.0566 43.017 72.851 42.977 72.6187 42.977H71.313V42.0358H72.6187C73.0085 42.0358 73.365 42.1025 73.6881 42.236C74.0138 42.3669 74.2955 42.5551 74.5331 42.8007C74.7708 43.0464 74.9537 43.3401 75.0818 43.6819C75.2127 44.021 75.2781 44.3988 75.2781 44.8153V45.0917C75.2781 45.5055 75.2127 45.8833 75.0818 46.2251C74.9537 46.5669 74.7708 46.8606 74.5331 47.1062C74.2982 47.3492 74.0165 47.5374 73.6881 47.6709C73.3623 47.8018 73.0019 47.8672 72.6067 47.8672ZM72.0179 42.0358V47.8672H70.8164V42.0358H72.0179ZM78.0736 47.9473C77.7372 47.9473 77.4355 47.8939 77.1685 47.7871C76.9015 47.6776 76.6745 47.5268 76.4876 47.3345C76.3034 47.1423 76.1619 46.9193 76.0631 46.6657C75.9643 46.4093 75.9149 46.137 75.9149 45.8486V45.6884C75.9149 45.36 75.9616 45.0596 76.0551 44.7873C76.1485 44.5149 76.282 44.2786 76.4556 44.0784C76.6318 43.8781 76.8454 43.7246 77.0964 43.6178C77.3474 43.5083 77.6304 43.4536 77.9455 43.4536C78.2525 43.4536 78.5249 43.5043 78.7625 43.6058C79.0002 43.7072 79.1991 43.8514 79.3593 44.0383C79.5222 44.2252 79.645 44.4495 79.7278 44.7112C79.8105 44.9702 79.8519 45.2585 79.8519 45.5763V46.0569H76.4075V45.2879H78.7185V45.1998C78.7185 45.0396 78.6891 44.8967 78.6304 44.7712C78.5743 44.6431 78.4888 44.5416 78.374 44.4669C78.2592 44.3921 78.1124 44.3547 77.9335 44.3547C77.7813 44.3547 77.6504 44.3881 77.541 44.4548C77.4315 44.5216 77.342 44.615 77.2726 44.7352C77.2059 44.8554 77.1551 44.9969 77.1204 45.1597C77.0884 45.3199 77.0724 45.4962 77.0724 45.6884V45.8486C77.0724 46.0222 77.0964 46.1824 77.1445 46.3292C77.1952 46.4761 77.266 46.6029 77.3567 46.7097C77.4502 46.8165 77.5623 46.8993 77.6932 46.958C77.8267 47.0168 77.9775 47.0461 78.1457 47.0461C78.354 47.0461 78.5476 47.0061 78.7265 46.926C78.908 46.8432 79.0642 46.7191 79.1951 46.5535L79.7558 47.1623C79.665 47.2931 79.5408 47.4186 79.3833 47.5388C79.2285 47.6589 79.0415 47.7577 78.8226 47.8351C78.6037 47.9099 78.354 47.9473 78.0736 47.9473ZM82.8517 46.6697C82.8517 46.5869 82.8277 46.5121 82.7796 46.4454C82.7316 46.3786 82.6421 46.3172 82.5113 46.2611C82.3831 46.2024 82.1976 46.149 81.9546 46.1009C81.7356 46.0529 81.5314 45.9928 81.3418 45.9207C81.1549 45.8459 80.992 45.7565 80.8532 45.6524C80.717 45.5482 80.6102 45.4254 80.5328 45.2839C80.4553 45.1397 80.4166 44.9755 80.4166 44.7913C80.4166 44.6097 80.4553 44.4388 80.5328 44.2786C80.6129 44.1184 80.7264 43.9769 80.8732 43.8541C81.0227 43.7286 81.2043 43.6311 81.4179 43.5617C81.6342 43.4896 81.8772 43.4536 82.1468 43.4536C82.5233 43.4536 82.8464 43.5136 83.1161 43.6338C83.3884 43.754 83.5967 43.9195 83.7409 44.1304C83.8877 44.3387 83.9611 44.5763 83.9611 44.8433H82.8077C82.8077 44.7312 82.7836 44.6311 82.7356 44.543C82.6902 44.4522 82.6181 44.3814 82.5193 44.3307C82.4232 44.2773 82.2977 44.2506 82.1428 44.2506C82.0147 44.2506 81.9039 44.2733 81.8104 44.3187C81.7169 44.3614 81.6449 44.4201 81.5941 44.4949C81.5461 44.567 81.522 44.6471 81.522 44.7352C81.522 44.802 81.5354 44.862 81.5621 44.9154C81.5915 44.9662 81.6382 45.0129 81.7023 45.0556C81.7663 45.0983 81.8491 45.1384 81.9506 45.1758C82.0547 45.2105 82.1829 45.2425 82.3351 45.2719C82.6475 45.336 82.9265 45.4201 83.1721 45.5242C83.4178 45.6257 83.6127 45.7645 83.7569 45.9407C83.9011 46.1143 83.9732 46.3426 83.9732 46.6256C83.9732 46.8179 83.9304 46.9941 83.845 47.1543C83.7595 47.3145 83.6367 47.4547 83.4765 47.5748C83.3163 47.6923 83.1241 47.7844 82.8998 47.8512C82.6782 47.9152 82.4285 47.9473 82.1508 47.9473C81.7477 47.9473 81.4059 47.8752 81.1255 47.731C80.8478 47.5868 80.6369 47.4039 80.4927 47.1823C80.3512 46.958 80.2805 46.7284 80.2805 46.4934H81.3738C81.3792 46.651 81.4192 46.7778 81.494 46.8739C81.5714 46.97 81.6689 47.0395 81.7864 47.0822C81.9065 47.1249 82.036 47.1463 82.1749 47.1463C82.3244 47.1463 82.4485 47.1262 82.5473 47.0862C82.6461 47.0435 82.7209 46.9874 82.7716 46.918C82.825 46.8459 82.8517 46.7631 82.8517 46.6697ZM85.9397 43.5337V47.8672H84.7822V43.5337H85.9397ZM84.7101 42.4042C84.7101 42.236 84.7688 42.0972 84.8863 41.9877C85.0038 41.8782 85.1613 41.8235 85.3589 41.8235C85.5538 41.8235 85.71 41.8782 85.8275 41.9877C85.9477 42.0972 86.0077 42.236 86.0077 42.4042C86.0077 42.5725 85.9477 42.7113 85.8275 42.8208C85.71 42.9302 85.5538 42.985 85.3589 42.985C85.1613 42.985 85.0038 42.9302 84.8863 42.8208C84.7688 42.7113 84.7101 42.5725 84.7101 42.4042ZM89.6364 43.5337H90.6817V47.723C90.6817 48.1182 90.5936 48.4533 90.4174 48.7283C90.2438 49.006 90.0008 49.2156 89.6884 49.3571C89.376 49.5013 89.0129 49.5734 88.599 49.5734C88.4175 49.5734 88.2252 49.5493 88.0223 49.5013C87.8221 49.4532 87.6298 49.3784 87.4456 49.277C87.264 49.1755 87.1118 49.0474 86.989 48.8925L87.4976 48.2116C87.6311 48.3665 87.786 48.4866 87.9622 48.5721C88.1385 48.6602 88.3334 48.7043 88.547 48.7043C88.7552 48.7043 88.9315 48.6655 89.0756 48.5881C89.2198 48.5133 89.3306 48.4025 89.4081 48.2557C89.4855 48.1115 89.5242 47.9366 89.5242 47.731V44.5349L89.6364 43.5337ZM86.7206 45.7525V45.6684C86.7206 45.3373 86.7607 45.0369 86.8408 44.7672C86.9236 44.4949 87.0397 44.2613 87.1892 44.0664C87.3414 43.8714 87.5257 43.7206 87.7419 43.6138C87.9582 43.507 88.2025 43.4536 88.4749 43.4536C88.7632 43.4536 89.0049 43.507 89.1998 43.6138C89.3947 43.7206 89.5549 43.8728 89.6804 44.0704C89.8059 44.2653 89.9034 44.4962 89.9728 44.7632C90.0449 45.0276 90.101 45.3173 90.141 45.6323V45.8166C90.101 46.1183 90.0409 46.3987 89.9608 46.6576C89.8807 46.9166 89.7752 47.1436 89.6444 47.3385C89.5135 47.5308 89.3507 47.6803 89.1557 47.7871C88.9635 47.8939 88.7339 47.9473 88.4669 47.9473C88.1999 47.9473 87.9582 47.8926 87.7419 47.7831C87.5283 47.6736 87.3454 47.5201 87.1933 47.3225C87.0411 47.1249 86.9236 46.8926 86.8408 46.6256C86.7607 46.3586 86.7206 46.0676 86.7206 45.7525ZM87.8741 45.6684V45.7525C87.8741 45.9314 87.8915 46.0983 87.9262 46.2531C87.9609 46.408 88.0143 46.5455 88.0864 46.6657C88.1611 46.7831 88.2533 46.8753 88.3627 46.942C88.4749 47.0061 88.607 47.0381 88.7592 47.0381C88.9702 47.0381 89.1424 46.9941 89.2759 46.906C89.4094 46.8152 89.5095 46.691 89.5763 46.5335C89.643 46.376 89.6818 46.1944 89.6924 45.9888V45.4641C89.6871 45.2959 89.6644 45.1451 89.6243 45.0116C89.5843 44.8754 89.5282 44.7592 89.4561 44.6631C89.384 44.567 89.2906 44.4922 89.1758 44.4388C89.061 44.3854 88.9248 44.3587 88.7673 44.3587C88.6151 44.3587 88.4829 44.3934 88.3707 44.4629C88.2613 44.5296 88.1692 44.6217 88.0944 44.7392C88.0223 44.8567 87.9676 44.9955 87.9302 45.1557C87.8928 45.3133 87.8741 45.4842 87.8741 45.6684ZM92.7083 44.4589V47.8672H91.5548V43.5337H92.6362L92.7083 44.4589ZM92.5401 45.5482H92.2277C92.2277 45.2278 92.269 44.9395 92.3518 44.6831C92.4346 44.4241 92.5507 44.2039 92.7003 44.0223C92.8498 43.8381 93.0273 43.6979 93.2329 43.6018C93.4412 43.503 93.6735 43.4536 93.9298 43.4536C94.1327 43.4536 94.3183 43.4829 94.4865 43.5417C94.6547 43.6004 94.7989 43.6939 94.9191 43.822C95.0419 43.9502 95.1354 44.1198 95.1994 44.3307C95.2662 44.5416 95.2996 44.7993 95.2996 45.1037V47.8672H94.1381V45.0997C94.1381 44.9074 94.1114 44.7579 94.058 44.6511C94.0046 44.5443 93.9258 44.4695 93.8217 44.4268C93.7202 44.3814 93.5947 44.3587 93.4452 44.3587C93.2903 44.3587 93.1555 44.3894 93.0407 44.4508C92.9285 44.5123 92.8351 44.5977 92.7603 44.7072C92.6882 44.814 92.6335 44.9395 92.5961 45.0836C92.5587 45.2278 92.5401 45.3827 92.5401 45.5482ZM36.657 57.8672H35.3873L35.3953 56.93H36.657C36.972 56.93 37.2377 56.8592 37.454 56.7177C37.6702 56.5735 37.8331 56.3639 37.9426 56.0889C38.0547 55.8139 38.1108 55.4815 38.1108 55.0917V54.8073C38.1108 54.5082 38.0788 54.2452 38.0147 54.0183C37.9533 53.7913 37.8611 53.6004 37.7383 53.4456C37.6155 53.2907 37.4646 53.1746 37.2858 53.0971C37.1069 53.017 36.9013 52.977 36.669 52.977H35.3633V52.0358H36.669C37.0588 52.0358 37.4152 52.1025 37.7383 52.236C38.0641 52.3669 38.3458 52.5551 38.5834 52.8007C38.821 53.0464 39.0039 53.3401 39.1321 53.6819C39.2629 54.021 39.3283 54.3988 39.3283 54.8153V55.0917C39.3283 55.5055 39.2629 55.8833 39.1321 56.2251C39.0039 56.5669 38.821 56.8606 38.5834 57.1062C38.3484 57.3492 38.0667 57.5374 37.7383 57.6709C37.4126 57.8018 37.0521 57.8672 36.657 57.8672ZM36.0682 52.0358V57.8672H34.8667V52.0358H36.0682ZM42.1239 57.9473C41.7875 57.9473 41.4858 57.8939 41.2188 57.7871C40.9517 57.6776 40.7248 57.5268 40.5379 57.3345C40.3537 57.1423 40.2121 56.9193 40.1133 56.6657C40.0146 56.4093 39.9652 56.137 39.9652 55.8486V55.6884C39.9652 55.36 40.0119 55.0596 40.1053 54.7873C40.1988 54.5149 40.3323 54.2786 40.5058 54.0784C40.6821 53.8781 40.8957 53.7246 41.1467 53.6178C41.3976 53.5083 41.6807 53.4536 41.9957 53.4536C42.3028 53.4536 42.5751 53.5043 42.8128 53.6058C43.0504 53.7072 43.2493 53.8514 43.4095 54.0383C43.5724 54.2252 43.6952 54.4495 43.778 54.7112C43.8608 54.9702 43.9022 55.2585 43.9022 55.5763V56.0569H40.4578V55.2879H42.7687V55.1998C42.7687 55.0396 42.7394 54.8967 42.6806 54.7712C42.6245 54.6431 42.5391 54.5416 42.4243 54.4669C42.3095 54.3921 42.1626 54.3547 41.9837 54.3547C41.8315 54.3547 41.7007 54.3881 41.5912 54.4548C41.4818 54.5216 41.3923 54.615 41.3229 54.7352C41.2561 54.8554 41.2054 54.9969 41.1707 55.1597C41.1387 55.3199 41.1226 55.4962 41.1226 55.6884V55.8486C41.1226 56.0222 41.1467 56.1824 41.1947 56.3292C41.2455 56.4761 41.3162 56.6029 41.407 56.7097C41.5004 56.8165 41.6126 56.8993 41.7434 56.958C41.8769 57.0168 42.0278 57.0461 42.196 57.0461C42.4043 57.0461 42.5978 57.0061 42.7767 56.926C42.9583 56.8432 43.1145 56.7191 43.2453 56.5535L43.806 57.1623C43.7153 57.2931 43.5911 57.4186 43.4336 57.5388C43.2787 57.6589 43.0918 57.7577 42.8729 57.8351C42.6539 57.9099 42.4043 57.9473 42.1239 57.9473ZM45.9768 57.0261L46.938 53.5337H48.1436L46.6817 57.8672H45.9528L45.9768 57.0261ZM45.316 53.5337L46.2812 57.0301L46.3012 57.8672H45.5683L44.1064 53.5337H45.316ZM50.5987 57.9473C50.2623 57.9473 49.9605 57.8939 49.6935 57.7871C49.4265 57.6776 49.1996 57.5268 49.0127 57.3345C48.8284 57.1423 48.6869 56.9193 48.5881 56.6657C48.4893 56.4093 48.4399 56.137 48.4399 55.8486V55.6884C48.4399 55.36 48.4867 55.0596 48.5801 54.7873C48.6736 54.5149 48.8071 54.2786 48.9806 54.0784C49.1569 53.8781 49.3705 53.7246 49.6214 53.6178C49.8724 53.5083 50.1555 53.4536 50.4705 53.4536C50.7776 53.4536 51.0499 53.5043 51.2876 53.6058C51.5252 53.7072 51.7241 53.8514 51.8843 54.0383C52.0472 54.2252 52.17 54.4495 52.2528 54.7112C52.3356 54.9702 52.377 55.2585 52.377 55.5763V56.0569H48.9326V55.2879H51.2435V55.1998C51.2435 55.0396 51.2141 54.8967 51.1554 54.7712C51.0993 54.6431 51.0139 54.5416 50.8991 54.4669C50.7843 54.3921 50.6374 54.3547 50.4585 54.3547C50.3063 54.3547 50.1755 54.3881 50.066 54.4548C49.9565 54.5216 49.8671 54.615 49.7977 54.7352C49.7309 54.8554 49.6802 54.9969 49.6455 55.1597C49.6134 55.3199 49.5974 55.4962 49.5974 55.6884V55.8486C49.5974 56.0222 49.6214 56.1824 49.6695 56.3292C49.7202 56.4761 49.791 56.6029 49.8818 56.7097C49.9752 56.8165 50.0874 56.8993 50.2182 56.958C50.3517 57.0168 50.5026 57.0461 50.6708 57.0461C50.879 57.0461 51.0726 57.0061 51.2515 56.926C51.4331 56.8432 51.5893 56.7191 51.7201 56.5535L52.2808 57.1623C52.19 57.2931 52.0659 57.4186 51.9084 57.5388C51.7535 57.6589 51.5666 57.7577 51.3476 57.8351C51.1287 57.9099 50.879 57.9473 50.5987 57.9473ZM54.2513 51.7154V57.8672H53.0939V51.7154H54.2513ZM55.0203 55.7445V55.6604C55.0203 55.3426 55.0657 55.0503 55.1565 54.7833C55.2473 54.5136 55.3794 54.28 55.553 54.0824C55.7265 53.8848 55.9402 53.7313 56.1938 53.6218C56.4475 53.5096 56.7385 53.4536 57.0669 53.4536C57.3953 53.4536 57.6877 53.5096 57.944 53.6218C58.2004 53.7313 58.4153 53.8848 58.5889 54.0824C58.7651 54.28 58.8986 54.5136 58.9894 54.7833C59.0802 55.0503 59.1255 55.3426 59.1255 55.6604V55.7445C59.1255 56.0596 59.0802 56.3519 58.9894 56.6216C58.8986 56.8886 58.7651 57.1222 58.5889 57.3225C58.4153 57.5201 58.2017 57.6736 57.948 57.7831C57.6944 57.8926 57.4033 57.9473 57.0749 57.9473C56.7465 57.9473 56.4541 57.8926 56.1978 57.7831C55.9442 57.6736 55.7292 57.5201 55.553 57.3225C55.3794 57.1222 55.2473 56.8886 55.1565 56.6216C55.0657 56.3519 55.0203 56.0596 55.0203 55.7445ZM56.1738 55.6604V55.7445C56.1738 55.9261 56.1898 56.0956 56.2218 56.2531C56.2539 56.4107 56.3046 56.5495 56.374 56.6697C56.4461 56.7871 56.5396 56.8793 56.6544 56.946C56.7692 57.0128 56.9094 57.0461 57.0749 57.0461C57.2351 57.0461 57.3726 57.0128 57.4875 56.946C57.6023 56.8793 57.6944 56.7871 57.7638 56.6697C57.8332 56.5495 57.884 56.4107 57.916 56.2531C57.9507 56.0956 57.9681 55.9261 57.9681 55.7445V55.6604C57.9681 55.4842 57.9507 55.3186 57.916 55.1637C57.884 55.0062 57.8319 54.8674 57.7598 54.7472C57.6904 54.6244 57.5983 54.5283 57.4835 54.4589C57.3686 54.3894 57.2298 54.3547 57.0669 54.3547C56.904 54.3547 56.7652 54.3894 56.6504 54.4589C56.5382 54.5283 56.4461 54.6244 56.374 54.7472C56.3046 54.8674 56.2539 55.0062 56.2218 55.1637C56.1898 55.3186 56.1738 55.4842 56.1738 55.6604ZM60.9879 54.3667V59.5333H59.8344V53.5337H60.9038L60.9879 54.3667ZM63.7314 55.6524V55.7365C63.7314 56.0515 63.694 56.3439 63.6193 56.6136C63.5472 56.8833 63.4404 57.1182 63.2989 57.3185C63.1573 57.5161 62.9811 57.6709 62.7702 57.7831C62.5619 57.8926 62.3216 57.9473 62.0493 57.9473C61.7849 57.9473 61.5553 57.8939 61.3604 57.7871C61.1655 57.6803 61.0013 57.5308 60.8678 57.3385C60.7369 57.1436 60.6315 56.918 60.5514 56.6617C60.4713 56.4053 60.4098 56.1303 60.3671 55.8366V55.6163C60.4098 55.3013 60.4713 55.0129 60.5514 54.7512C60.6315 54.4869 60.7369 54.2586 60.8678 54.0664C61.0013 53.8714 61.1641 53.7206 61.3564 53.6138C61.5513 53.507 61.7796 53.4536 62.0413 53.4536C62.3163 53.4536 62.5579 53.5056 62.7662 53.6098C62.9771 53.7139 63.1533 53.8634 63.2948 54.0583C63.439 54.2533 63.5472 54.4856 63.6193 54.7552C63.694 55.0249 63.7314 55.324 63.7314 55.6524ZM62.5739 55.7365V55.6524C62.5739 55.4681 62.5579 55.2986 62.5259 55.1437C62.4965 54.9862 62.4484 54.8487 62.3817 54.7312C62.3176 54.6137 62.2322 54.5229 62.1254 54.4589C62.0212 54.3921 61.8944 54.3587 61.7449 54.3587C61.5873 54.3587 61.4525 54.3841 61.3404 54.4348C61.2309 54.4856 61.1414 54.559 61.072 54.6551C61.0026 54.7512 60.9505 54.866 60.9158 54.9995C60.8811 55.133 60.8597 55.2839 60.8517 55.4521V56.0088C60.8651 56.2064 60.9025 56.384 60.9639 56.5415C61.0253 56.6964 61.1201 56.8192 61.2482 56.91C61.3764 57.0008 61.5446 57.0461 61.7529 57.0461C61.9051 57.0461 62.0332 57.0128 62.1374 56.946C62.2415 56.8766 62.3256 56.7818 62.3897 56.6617C62.4564 56.5415 62.5032 56.4027 62.5299 56.2451C62.5592 56.0876 62.5739 55.918 62.5739 55.7365ZM65.6018 54.4308V57.8672H64.4443V53.5337H65.5297L65.6018 54.4308ZM65.4416 55.5482H65.1212C65.1212 55.2465 65.1572 54.9688 65.2293 54.7152C65.3041 54.4589 65.4122 54.2372 65.5537 54.0503C65.6979 53.8608 65.8755 53.7139 66.0864 53.6098C66.2973 53.5056 66.5416 53.4536 66.8193 53.4536C67.0116 53.4536 67.1878 53.4829 67.348 53.5417C67.5082 53.5978 67.6457 53.6872 67.7605 53.81C67.878 53.9302 67.9688 54.0877 68.0329 54.2826C68.097 54.4749 68.129 54.7058 68.129 54.9755V57.8672H66.9755V55.1037C66.9755 54.9061 66.9488 54.7539 66.8954 54.6471C66.842 54.5403 66.7659 54.4655 66.6671 54.4228C66.571 54.3801 66.4549 54.3587 66.3187 54.3587C66.1692 54.3587 66.0383 54.3894 65.9262 54.4508C65.8167 54.5123 65.7259 54.5977 65.6538 54.7072C65.5818 54.814 65.5284 54.9395 65.4936 55.0836C65.4589 55.2278 65.4416 55.3827 65.4416 55.5482ZM68.0209 55.4161L67.6083 55.4681C67.6083 55.1851 67.643 54.9221 67.7125 54.6791C67.7846 54.4362 67.89 54.2226 68.0289 54.0383C68.1704 53.8541 68.3453 53.7112 68.5535 53.6098C68.7618 53.5056 69.0021 53.4536 69.2745 53.4536C69.4827 53.4536 69.6723 53.4843 69.8432 53.5457C70.0141 53.6044 70.1596 53.6992 70.2797 53.8301C70.4026 53.9582 70.496 54.1264 70.5601 54.3347C70.6268 54.543 70.6602 54.7979 70.6602 55.0997V57.8672H69.5027V55.0997C69.5027 54.8994 69.476 54.7472 69.4226 54.6431C69.3719 54.5363 69.2971 54.4629 69.1984 54.4228C69.1022 54.3801 68.9874 54.3587 68.8539 54.3587C68.7151 54.3587 68.5936 54.3868 68.4895 54.4428C68.3853 54.4962 68.2985 54.571 68.2291 54.6671C68.1597 54.7632 68.1076 54.8754 68.0729 55.0035C68.0382 55.129 68.0209 55.2665 68.0209 55.4161ZM73.5479 57.9473C73.2115 57.9473 72.9097 57.8939 72.6427 57.7871C72.3757 57.6776 72.1488 57.5268 71.9619 57.3345C71.7776 57.1423 71.6361 56.9193 71.5373 56.6657C71.4385 56.4093 71.3891 56.137 71.3891 55.8486V55.6884C71.3891 55.36 71.4359 55.0596 71.5293 54.7873C71.6228 54.5149 71.7563 54.2786 71.9298 54.0784C72.1061 53.8781 72.3197 53.7246 72.5706 53.6178C72.8216 53.5083 73.1047 53.4536 73.4197 53.4536C73.7268 53.4536 73.9991 53.5043 74.2368 53.6058C74.4744 53.7072 74.6733 53.8514 74.8335 54.0383C74.9964 54.2252 75.1192 54.4495 75.202 54.7112C75.2848 54.9702 75.3262 55.2585 75.3262 55.5763V56.0569H71.8818V55.2879H74.1927V55.1998C74.1927 55.0396 74.1633 54.8967 74.1046 54.7712C74.0485 54.6431 73.9631 54.5416 73.8483 54.4669C73.7335 54.3921 73.5866 54.3547 73.4077 54.3547C73.2555 54.3547 73.1247 54.3881 73.0152 54.4548C72.9057 54.5216 72.8163 54.615 72.7469 54.7352C72.6801 54.8554 72.6294 54.9969 72.5947 55.1597C72.5626 55.3199 72.5466 55.4962 72.5466 55.6884V55.8486C72.5466 56.0222 72.5706 56.1824 72.6187 56.3292C72.6694 56.4761 72.7402 56.6029 72.831 56.7097C72.9244 56.8165 73.0366 56.8993 73.1674 56.958C73.3009 57.0168 73.4518 57.0461 73.62 57.0461C73.8282 57.0461 74.0218 57.0061 74.2007 56.926C74.3823 56.8432 74.5385 56.7191 74.6693 56.5535L75.23 57.1623C75.1392 57.2931 75.0151 57.4186 74.8576 57.5388C74.7027 57.6589 74.5158 57.7577 74.2968 57.8351C74.0779 57.9099 73.8282 57.9473 73.5479 57.9473ZM77.1124 54.4589V57.8672H75.959V53.5337H77.0403L77.1124 54.4589ZM76.9442 55.5482H76.6318C76.6318 55.2278 76.6732 54.9395 76.756 54.6831C76.8387 54.4241 76.9549 54.2039 77.1044 54.0223C77.2539 53.8381 77.4315 53.6979 77.6371 53.6018C77.8454 53.503 78.0777 53.4536 78.334 53.4536C78.5369 53.4536 78.7225 53.4829 78.8907 53.5417C79.0589 53.6004 79.2031 53.6939 79.3232 53.822C79.4461 53.9502 79.5395 54.1198 79.6036 54.3307C79.6703 54.5416 79.7037 54.7993 79.7037 55.1037V57.8672H78.5422V55.0997C78.5422 54.9074 78.5155 54.7579 78.4621 54.6511C78.4087 54.5443 78.33 54.4695 78.2258 54.4268C78.1244 54.3814 77.9989 54.3587 77.8494 54.3587C77.6945 54.3587 77.5597 54.3894 77.4448 54.4508C77.3327 54.5123 77.2393 54.5977 77.1645 54.7072C77.0924 54.814 77.0377 54.9395 77.0003 55.0836C76.9629 55.2278 76.9442 55.3827 76.9442 55.5482ZM82.7035 53.5337V54.3507H80.1803V53.5337H82.7035ZM80.8051 52.4643H81.9586V56.5615C81.9586 56.687 81.9746 56.7831 82.0066 56.8499C82.0414 56.9166 82.0921 56.9634 82.1588 56.9901C82.2256 57.0141 82.3097 57.0261 82.4112 57.0261C82.4833 57.0261 82.5473 57.0234 82.6034 57.0181C82.6621 57.0101 82.7115 57.0021 82.7516 56.9941L82.7556 57.8432C82.6568 57.8752 82.55 57.9006 82.4352 57.9193C82.3204 57.9379 82.1936 57.9473 82.0547 57.9473C81.8011 57.9473 81.5794 57.9059 81.3899 57.8231C81.203 57.7377 81.0588 57.6015 80.9573 57.4146C80.8559 57.2277 80.8051 56.9821 80.8051 56.6777V52.4643Z" fill="#112244"/>
<path d="M47.0382 68.7814V73.7109H46.0259V68.7814H47.0382ZM48.555 68.7814V69.577H44.5328V68.7814H48.555ZM53.0885 71.131V71.3646C53.0885 71.7393 53.0377 72.0756 52.9361 72.3736C52.8346 72.6715 52.6912 72.9255 52.5061 73.1354C52.3211 73.343 52.0999 73.5022 51.8425 73.6128C51.5875 73.7234 51.3042 73.7787 50.9927 73.7787C50.6835 73.7787 50.4002 73.7234 50.1429 73.6128C49.8879 73.5022 49.6667 73.343 49.4793 73.1354C49.292 72.9255 49.1464 72.6715 49.0426 72.3736C48.941 72.0756 48.8902 71.7393 48.8902 71.3646V71.131C48.8902 70.7541 48.941 70.4178 49.0426 70.1221C49.1441 69.8242 49.2875 69.5702 49.4726 69.3603C49.6599 69.1504 49.8811 68.9901 50.1362 68.8795C50.3935 68.7689 50.6767 68.7136 50.986 68.7136C51.2974 68.7136 51.5807 68.7689 51.8358 68.8795C52.0931 68.9901 52.3143 69.1504 52.4994 69.3603C52.6867 69.5702 52.8312 69.8242 52.9327 70.1221C53.0366 70.4178 53.0885 70.7541 53.0885 71.131ZM52.0626 71.3646V71.1243C52.0626 70.8624 52.0389 70.6322 51.9915 70.4336C51.9441 70.235 51.8741 70.0679 51.7816 69.9325C51.6891 69.7971 51.5762 69.6955 51.443 69.6278C51.3099 69.5578 51.1575 69.5228 50.986 69.5228C50.8144 69.5228 50.6621 69.5578 50.5289 69.6278C50.398 69.6955 50.2862 69.7971 50.1937 69.9325C50.1034 70.0679 50.0346 70.235 49.9872 70.4336C49.9398 70.6322 49.9161 70.8624 49.9161 71.1243V71.3646C49.9161 71.6242 49.9398 71.8544 49.9872 72.0553C50.0346 72.254 50.1046 72.4221 50.1971 72.5598C50.2896 72.6952 50.4025 72.7979 50.5357 72.8679C50.6688 72.9379 50.8212 72.9729 50.9927 72.9729C51.1643 72.9729 51.3166 72.9379 51.4498 72.8679C51.583 72.7979 51.6947 72.6952 51.785 72.5598C51.8753 72.4221 51.9441 72.254 51.9915 72.0553C52.0389 71.8544 52.0626 71.6242 52.0626 71.3646ZM55.7395 71.9538H54.4834V71.1615H55.7395C55.9336 71.1615 56.0916 71.1299 56.2135 71.0667C56.3354 71.0013 56.4245 70.911 56.4809 70.7959C56.5374 70.6807 56.5656 70.551 56.5656 70.4065C56.5656 70.2598 56.5374 70.1232 56.4809 69.9968C56.4245 69.8704 56.3354 69.7689 56.2135 69.6921C56.0916 69.6154 55.9336 69.577 55.7395 69.577H54.8355V73.7109H53.8198V68.7814H55.7395C56.1255 68.7814 56.4561 68.8513 56.7315 68.9913C57.0091 69.129 57.2213 69.3197 57.368 69.5635C57.5147 69.8072 57.5881 70.086 57.5881 70.3997C57.5881 70.718 57.5147 70.9934 57.368 71.2258C57.2213 71.4583 57.0091 71.6378 56.7315 71.7642C56.4561 71.8906 56.1255 71.9538 55.7395 71.9538ZM62.2908 68.7712V73.7109H61.3157V69.8953L60.1443 70.2677V69.4991L62.1859 68.7712H62.2908ZM67.2136 70.8128V71.666C67.2136 72.0361 67.1741 72.3555 67.0951 72.6241C67.0161 72.8905 66.9021 73.1094 66.7532 73.281C66.6064 73.4502 66.4315 73.5755 66.2284 73.6568C66.0252 73.738 65.7995 73.7787 65.5512 73.7787C65.3526 73.7787 65.1675 73.7538 64.996 73.7042C64.8244 73.6523 64.6698 73.5721 64.5321 73.4638C64.3967 73.3554 64.2793 73.2189 64.18 73.0541C64.083 72.8871 64.0085 72.6885 63.9566 72.4582C63.9047 72.228 63.8787 71.9639 63.8787 71.666V70.8128C63.8787 70.4426 63.9182 70.1255 63.9972 69.8614C64.0785 69.5951 64.1924 69.3772 64.3392 69.208C64.4881 69.0387 64.6642 68.9145 64.8673 68.8355C65.0705 68.7543 65.2962 68.7136 65.5445 68.7136C65.7431 68.7136 65.927 68.7396 66.0963 68.7915C66.2679 68.8412 66.4225 68.919 66.5602 69.0251C66.6979 69.1312 66.8152 69.2678 66.9123 69.4348C67.0093 69.5996 67.0838 69.7971 67.1357 70.0273C67.1877 70.2553 67.2136 70.5171 67.2136 70.8128ZM66.2351 71.7946V70.6807C66.2351 70.5024 66.225 70.3467 66.2047 70.2135C66.1866 70.0803 66.1584 69.9675 66.12 69.8749C66.0817 69.7801 66.0343 69.7034 65.9778 69.6447C65.9214 69.586 65.8571 69.5431 65.7848 69.5161C65.7126 69.489 65.6325 69.4754 65.5445 69.4754C65.4339 69.4754 65.3357 69.4969 65.2499 69.5398C65.1664 69.5826 65.0953 69.6515 65.0366 69.7463C64.9779 69.8388 64.9328 69.963 64.9012 70.1187C64.8718 70.2722 64.8572 70.4595 64.8572 70.6807V71.7946C64.8572 71.9729 64.8662 72.1298 64.8843 72.2652C64.9046 72.4007 64.9339 72.5169 64.9723 72.614C65.0129 72.7088 65.0603 72.7866 65.1145 72.8476C65.1709 72.9063 65.2352 72.9492 65.3075 72.9762C65.382 73.0033 65.4632 73.0169 65.5512 73.0169C65.6596 73.0169 65.7555 72.9954 65.839 72.9525C65.9248 72.9074 65.997 72.8374 66.0557 72.7426C66.1166 72.6456 66.1618 72.5192 66.1911 72.3634C66.2205 72.2077 66.2351 72.0181 66.2351 71.7946ZM67.8637 69.9901V69.7294C67.8637 69.542 67.9043 69.3716 67.9856 69.2181C68.0668 69.0646 68.1864 68.9416 68.3444 68.8491C68.5024 68.7565 68.6965 68.7103 68.9268 68.7103C69.1638 68.7103 69.3613 68.7565 69.5193 68.8491C69.6795 68.9416 69.7992 69.0646 69.8782 69.2181C69.9594 69.3716 70 69.542 70 69.7294V69.9901C70 70.1729 69.9594 70.341 69.8782 70.4945C69.7992 70.648 69.6807 70.771 69.5227 70.8636C69.3647 70.9561 69.1683 71.0024 68.9335 71.0024C68.7011 71.0024 68.5047 70.9561 68.3444 70.8636C68.1864 70.771 68.0668 70.648 67.9856 70.4945C67.9043 70.341 67.8637 70.1729 67.8637 69.9901ZM68.5103 69.7294V69.9901C68.5103 70.0691 68.525 70.1447 68.5543 70.2169C68.5859 70.2869 68.6333 70.3444 68.6965 70.3896C68.762 70.4325 68.841 70.4539 68.9335 70.4539C69.0306 70.4539 69.1096 70.4325 69.1705 70.3896C69.2315 70.3444 69.2766 70.2869 69.306 70.2169C69.3353 70.1447 69.35 70.0691 69.35 69.9901V69.7294C69.35 69.6458 69.3342 69.5691 69.3026 69.4991C69.2732 69.4269 69.227 69.3693 69.1638 69.3265C69.1028 69.2813 69.0238 69.2587 68.9268 69.2587C68.8365 69.2587 68.7597 69.2813 68.6965 69.3265C68.6333 69.3693 68.5859 69.4269 68.5543 69.4991C68.525 69.5691 68.5103 69.6458 68.5103 69.7294ZM70.2201 72.7629V72.5022C70.2201 72.3172 70.2607 72.1479 70.342 71.9944C70.4255 71.8409 70.5463 71.7179 70.7043 71.6253C70.8645 71.5328 71.0609 71.4865 71.2934 71.4865C71.5281 71.4865 71.7245 71.5328 71.8825 71.6253C72.0405 71.7179 72.1601 71.8409 72.2414 71.9944C72.3226 72.1479 72.3633 72.3172 72.3633 72.5022V72.7629C72.3633 72.948 72.3226 73.1173 72.2414 73.2708C72.1624 73.4243 72.0439 73.5473 71.8859 73.6398C71.7279 73.7324 71.5326 73.7787 71.3002 73.7787C71.0654 73.7787 70.8679 73.7324 70.7077 73.6398C70.5474 73.5473 70.4255 73.4243 70.342 73.2708C70.2607 73.1173 70.2201 72.948 70.2201 72.7629ZM70.8702 72.5022V72.7629C70.8702 72.8442 70.8882 72.9209 70.9243 72.9932C70.9605 73.0654 71.0101 73.123 71.0733 73.1658C71.1388 73.2087 71.2144 73.2302 71.3002 73.2302C71.4085 73.2302 71.4931 73.2087 71.5541 73.1658C71.615 73.123 71.6568 73.0654 71.6793 72.9932C71.7042 72.9209 71.7166 72.8442 71.7166 72.7629V72.5022C71.7166 72.421 71.7008 72.3454 71.6692 72.2754C71.6376 72.2032 71.5902 72.1456 71.527 72.1027C71.466 72.0576 71.3882 72.035 71.2934 72.035C71.1986 72.035 71.1196 72.0576 71.0564 72.1027C70.9954 72.1456 70.9492 72.2032 70.9176 72.2754C70.886 72.3454 70.8702 72.421 70.8702 72.5022ZM71.5338 69.4856L69.1265 73.3385L68.6525 73.088L71.0598 69.235L71.5338 69.4856Z" fill="#112244"/>
<path d="M55.9474 95.7607V96.332H53.4183V95.8445L54.6143 94.5622C54.7345 94.4284 54.8293 94.3108 54.8987 94.2092C54.9681 94.1059 55.018 94.0137 55.0485 93.9324C55.0807 93.8495 55.0967 93.7708 55.0967 93.6963C55.0967 93.5845 55.0781 93.4889 55.0409 93.4093C55.0036 93.3281 54.9486 93.2654 54.8758 93.2214C54.8047 93.1774 54.7167 93.1554 54.6117 93.1554C54.5 93.1554 54.4035 93.1825 54.3223 93.2367C54.2427 93.2908 54.1817 93.3662 54.1394 93.4627C54.0988 93.5591 54.0785 93.6683 54.0785 93.7902H53.3446C53.3446 93.5701 53.3971 93.3687 53.5021 93.1859C53.607 93.0014 53.7552 92.8549 53.9464 92.7466C54.1377 92.6365 54.3646 92.5815 54.627 92.5815C54.886 92.5815 55.1044 92.6238 55.2821 92.7085C55.4615 92.7914 55.597 92.9116 55.6884 93.0691C55.7815 93.2248 55.828 93.411 55.828 93.6277C55.828 93.7496 55.8086 93.8689 55.7696 93.9857C55.7307 94.1009 55.6748 94.216 55.602 94.3311C55.5309 94.4445 55.4446 94.5596 55.343 94.6764C55.2415 94.7932 55.1289 94.9143 55.0053 95.0395L54.3629 95.7607H55.9474ZM58.8929 94.1584V94.7983C58.8929 95.0759 58.8633 95.3155 58.8041 95.5169C58.7448 95.7167 58.6593 95.8809 58.5476 96.0095C58.4376 96.1365 58.3064 96.2305 58.154 96.2914C58.0017 96.3523 57.8324 96.3828 57.6462 96.3828C57.4972 96.3828 57.3584 96.3642 57.2297 96.327C57.1011 96.288 56.9851 96.2279 56.8818 96.1467C56.7803 96.0654 56.6922 95.963 56.6178 95.8394C56.545 95.7141 56.4891 95.5652 56.4502 95.3925C56.4112 95.2198 56.3918 95.0218 56.3918 94.7983V94.1584C56.3918 93.8808 56.4214 93.6429 56.4806 93.4449C56.5416 93.2451 56.6271 93.0818 56.7371 92.9548C56.8488 92.8278 56.9809 92.7347 57.1332 92.6755C57.2856 92.6145 57.4549 92.5841 57.6411 92.5841C57.7901 92.5841 57.928 92.6035 58.055 92.6425C58.1836 92.6797 58.2996 92.7381 58.4029 92.8177C58.5061 92.8972 58.5942 92.9997 58.667 93.1249C58.7397 93.2485 58.7956 93.3966 58.8345 93.5693C58.8735 93.7403 58.8929 93.9366 58.8929 94.1584ZM58.1591 94.8948V94.0594C58.1591 93.9256 58.1515 93.8088 58.1362 93.709C58.1227 93.6091 58.1015 93.5244 58.0728 93.455C58.044 93.3839 58.0084 93.3264 57.9661 93.2824C57.9238 93.2383 57.8755 93.2062 57.8214 93.1859C57.7672 93.1656 57.7071 93.1554 57.6411 93.1554C57.5581 93.1554 57.4845 93.1715 57.4202 93.2036C57.3575 93.2358 57.3042 93.2874 57.2602 93.3585C57.2162 93.4279 57.1823 93.5211 57.1586 93.6379C57.1366 93.753 57.1256 93.8935 57.1256 94.0594V94.8948C57.1256 95.0285 57.1324 95.1462 57.1459 95.2478C57.1612 95.3493 57.1832 95.4365 57.2119 95.5093C57.2424 95.5804 57.278 95.6388 57.3186 95.6845C57.3609 95.7285 57.4092 95.7607 57.4633 95.781C57.5192 95.8013 57.5801 95.8115 57.6462 95.8115C57.7274 95.8115 57.7994 95.7954 57.862 95.7632C57.9263 95.7294 57.9805 95.6769 58.0245 95.6058C58.0702 95.533 58.1041 95.4382 58.1261 95.3214C58.1481 95.2046 58.1591 95.0624 58.1591 94.8948ZM61.9198 95.7607V96.332H59.3906V95.8445L60.5866 94.5622C60.7068 94.4284 60.8016 94.3108 60.871 94.2092C60.9404 94.1059 60.9904 94.0137 61.0209 93.9324C61.053 93.8495 61.0691 93.7708 61.0691 93.6963C61.0691 93.5845 61.0505 93.4889 61.0132 93.4093C60.976 93.3281 60.921 93.2654 60.8482 93.2214C60.7771 93.1774 60.6891 93.1554 60.5841 93.1554C60.4724 93.1554 60.3759 93.1825 60.2946 93.2367C60.2151 93.2908 60.1541 93.3662 60.1118 93.4627C60.0712 93.5591 60.0509 93.6683 60.0509 93.7902H59.317C59.317 93.5701 59.3695 93.3687 59.4744 93.1859C59.5794 93.0014 59.7275 92.8549 59.9188 92.7466C60.1101 92.6365 60.3369 92.5815 60.5993 92.5815C60.8583 92.5815 61.0767 92.6238 61.2545 92.7085C61.4339 92.7914 61.5693 92.9116 61.6608 93.0691C61.7539 93.2248 61.8004 93.411 61.8004 93.6277C61.8004 93.7496 61.7809 93.8689 61.742 93.9857C61.7031 94.1009 61.6472 94.216 61.5744 94.3311C61.5033 94.4445 61.417 94.5596 61.3154 94.6764C61.2138 94.7932 61.1013 94.9143 60.9777 95.0395L60.3353 95.7607H61.9198ZM63.065 94.6485L62.4809 94.5088L62.6917 92.6348H64.7688V93.2265H63.2935L63.2021 94.0467C63.2512 94.0179 63.3257 93.9874 63.4256 93.9553C63.5254 93.9214 63.6372 93.9045 63.7607 93.9045C63.9402 93.9045 64.0993 93.9324 64.2381 93.9883C64.3769 94.0441 64.4946 94.1254 64.5911 94.2321C64.6893 94.3387 64.7637 94.4691 64.8145 94.6231C64.8653 94.7771 64.8907 94.9515 64.8907 95.1462C64.8907 95.3104 64.8653 95.467 64.8145 95.616C64.7637 95.7632 64.6867 95.8953 64.5835 96.0121C64.4802 96.1272 64.3507 96.2178 64.195 96.2838C64.0392 96.3498 63.8547 96.3828 63.6414 96.3828C63.4823 96.3828 63.3282 96.3591 63.1792 96.3117C63.032 96.2643 62.8991 96.1941 62.7806 96.101C62.6638 96.0079 62.5698 95.8953 62.4987 95.7632C62.4293 95.6295 62.3929 95.4771 62.3895 95.3062H63.1158C63.1259 95.4111 63.153 95.5017 63.197 95.5779C63.2427 95.6524 63.3028 95.7099 63.3773 95.7505C63.4518 95.7912 63.539 95.8115 63.6389 95.8115C63.732 95.8115 63.8115 95.7937 63.8775 95.7582C63.9436 95.7226 63.9969 95.6735 64.0375 95.6109C64.0781 95.5465 64.1078 95.4721 64.1264 95.3874C64.1467 95.3011 64.1569 95.208 64.1569 95.1081C64.1569 95.0082 64.145 94.9177 64.1213 94.8364C64.0976 94.7551 64.0612 94.6849 64.0121 94.6256C63.963 94.5664 63.9004 94.5207 63.8242 94.4885C63.7497 94.4564 63.6626 94.4403 63.5627 94.4403C63.4272 94.4403 63.3223 94.4614 63.2478 94.5038C63.175 94.5461 63.1141 94.5943 63.065 94.6485Z" fill="#112244"/>
</g>
<defs>
<linearGradient id="paint0_linear_1736_1283" x1="58.0677" y1="0.914062" x2="58.0677" y2="100.914" gradientUnits="userSpaceOnUse">
<stop stop-color="#899FB6"/>
<stop offset="1" stop-color="#E6EFF7"/>
</linearGradient>
<linearGradient id="paint1_linear_1736_1283" x1="16.8288" y1="0.914062" x2="16.8288" y2="50.9682" gradientUnits="userSpaceOnUse">
<stop stop-color="#899FB6"/>
<stop offset="1" stop-color="#E6EFF7"/>
</linearGradient>
<linearGradient id="paint2_linear_1736_1283" x1="17.2415" y1="50.9688" x2="17.2415" y2="100.915" gradientUnits="userSpaceOnUse">
<stop stop-color="#899FB6"/>
<stop offset="1" stop-color="#E6EFF7"/>
</linearGradient>
<linearGradient id="paint3_linear_1736_1283" x1="99.4155" y1="0.914062" x2="99.4155" y2="50.9682" gradientUnits="userSpaceOnUse">
<stop stop-color="#899FB6"/>
<stop offset="1" stop-color="#E6EFF7"/>
</linearGradient>
<linearGradient id="paint4_linear_1736_1283" x1="98.8312" y1="50.9688" x2="98.8312" y2="100.915" gradientUnits="userSpaceOnUse">
<stop stop-color="#899FB6"/>
<stop offset="1" stop-color="#E6EFF7"/>
</linearGradient>
<linearGradient id="paint5_linear_1736_1283" x1="40.4628" y1="0.914062" x2="40.4628" y2="37.7476" gradientUnits="userSpaceOnUse">
<stop stop-color="#899FB6"/>
<stop offset="1" stop-color="#E6EFF7"/>
</linearGradient>
<linearGradient id="paint6_linear_1736_1283" x1="75.892" y1="0.914062" x2="75.892" y2="37.7476" gradientUnits="userSpaceOnUse">
<stop stop-color="#899FB6"/>
<stop offset="1" stop-color="#E6EFF7"/>
</linearGradient>
<linearGradient id="paint7_linear_1736_1283" x1="40.7855" y1="65.8555" x2="40.7855" y2="100.914" gradientUnits="userSpaceOnUse">
<stop stop-color="#899FB6"/>
<stop offset="1" stop-color="#E6EFF7"/>
</linearGradient>
<linearGradient id="paint8_linear_1736_1283" x1="40.787" y1="65.8567" x2="40.787" y2="100.915" gradientUnits="userSpaceOnUse">
<stop stop-color="#899FB6"/>
<stop offset="1" stop-color="#E6EFF7"/>
</linearGradient>
<linearGradient id="paint9_linear_1736_1283" x1="57.9502" y1="13.9531" x2="57.9502" y2="87.9419" gradientUnits="userSpaceOnUse">
<stop stop-color="#02A9F9"/>
<stop offset="1" stop-color="#CFE0A9"/>
</linearGradient>
<linearGradient id="paint10_linear_1736_1283" x1="58.0667" y1="14.0234" x2="58.0667" y2="87.8046" gradientUnits="userSpaceOnUse">
<stop stop-color="#899FB6"/>
<stop offset="1" stop-color="#E6EFF7"/>
</linearGradient>
<clipPath id="clip0_1736_1283">
<rect width="115.71" height="100" fill="white" transform="translate(0.212891 0.914062)"/>
</clipPath>
</defs>
</svg>
