<svg width="92" height="101" viewBox="0 0 92 101" fill="none" xmlns="http://www.w3.org/2000/svg">
<g clip-path="url(#clip0_1736_1216)">
<path d="M0.190908 25.7912L45.5185 0.800781L90.8461 25.7912L90.8215 25.8485H91.0313V75.6907H90.7003L90.7477 75.8011L45.4693 100.802L0.190908 75.8011L0.23828 75.6903H0.0371094V25.8488H0.215517L0.190908 25.7912Z" fill="#112244"/>
<path d="M4.25715 27.8565L45.5054 4.92969L86.7533 27.8565L86.7312 27.9088H86.9219V73.6359H86.6207L86.6638 73.7374L45.4605 96.6738L4.25715 73.7371L4.30021 73.6356H4.11719V27.9094H4.27929L4.25715 27.8571V27.8565Z" fill="#C6D0DB"/>
<path d="M8.03524 29.9064L45.5012 9.08203L82.9673 29.9064L82.947 29.9544H83.1201V40.2017H7.9082V29.9544H8.05585L8.03524 29.9064ZM8.03524 70.943L45.5012 91.7674L82.9673 70.943L82.947 70.895H83.1201V60.6477H7.9082V70.895H8.05585L8.03524 70.943Z" fill="#112244"/>
<path d="M50.1412 19.3659L45.5321 14.7305L42.1692 18.1126L38.3086 21.9952L40.0937 23.7906L41.0693 21.181H42.9177L41.6694 24.4907C40.7441 24.3349 40.0741 24.1044 40.0741 23.7906V24.7936C40.0741 25.2743 42.3154 25.7747 45.5343 25.7747C48.7511 25.7747 50.9945 25.2743 50.9945 24.7936V23.7906C50.9945 24.1044 50.3267 24.3327 49.4036 24.4907L48.5852 22.2257H50.4118L50.9923 23.7906L52.7579 21.9952L50.1412 19.3659ZM48.4499 24.6202C47.8912 24.6795 47.2998 24.7212 46.7346 24.7453L45.5343 21.2644L44.932 22.9983L44.3122 24.7453C43.7535 24.7212 43.1687 24.6795 42.6165 24.6202L44.764 18.9269H46.3418L47.0467 20.8474L48.4499 24.6202Z" fill="white"/>
<path d="M36.7843 33.4035L36.3478 31.9001H34.1895L33.753 33.4035H32.4043L34.4382 27.0781H36.0575L38.1133 33.4035H36.7843ZM36.0575 30.7742L35.6625 29.3958C35.6407 29.3541 35.6211 29.2488 35.5796 29.1456C35.5381 29.0205 35.5163 28.8954 35.4748 28.7484C35.4334 28.6013 35.3919 28.4565 35.3701 28.3094C35.3286 28.1624 35.3068 28.0373 35.2872 27.9341C35.2653 27.9977 35.2653 28.0811 35.2457 28.1645C35.2239 28.248 35.2042 28.3533 35.1824 28.4367C35.1606 28.5421 35.1409 28.6255 35.0995 28.7286C35.0777 28.834 35.058 28.9174 35.0166 29.0008C34.9947 29.0842 34.9751 29.1676 34.9533 29.2312C34.9314 29.2949 34.9118 29.3366 34.9118 29.3783L34.5212 30.7522L36.0575 30.7742ZM40.8107 33.4869C40.4571 33.4869 40.1472 33.4452 39.8766 33.3399C39.606 33.2345 39.3572 33.0897 39.1717 32.9009C38.984 32.6924 38.8182 32.4422 38.7156 32.1283C38.6109 31.8145 38.5498 31.4392 38.5498 31.0002C38.5498 30.5196 38.6131 30.1223 38.7156 29.7887C38.8204 29.4748 38.9644 29.2049 39.1717 29.0161C39.3594 28.8274 39.6082 28.6825 39.8766 28.5991C40.1472 28.5157 40.4571 28.474 40.791 28.474C41.0398 28.474 41.2886 28.496 41.5177 28.5574C41.7665 28.6211 41.9957 28.7045 42.203 28.8076L41.8298 29.8106C41.6421 29.7272 41.4566 29.6636 41.2908 29.6021C41.1249 29.5385 40.9591 29.5187 40.7932 29.5187C40.4811 29.5187 40.2542 29.6438 40.108 29.8743C39.9617 30.1245 39.9006 30.4801 39.9006 30.9607C39.9006 31.4414 39.9639 31.7947 40.108 32.0252C40.2542 32.2556 40.4811 32.3807 40.7714 32.3807C41.0202 32.3807 41.2493 32.339 41.4566 32.2754C41.664 32.2118 41.8713 32.1283 42.0786 32.0252V33.1314C41.9739 33.1731 41.8713 33.2367 41.7665 33.2784C41.6618 33.3201 41.5592 33.3421 41.4545 33.3838C41.3497 33.4057 41.2471 33.4255 41.1424 33.4474C41.0616 33.4869 40.9372 33.4869 40.8107 33.4869ZM44.5075 33.4035H43.2003V28.5816H44.5075V33.4035ZM47.9949 33.4869C47.6414 33.4869 47.3315 33.4452 47.0391 33.3399C46.7488 33.2345 46.5 33.0897 46.2927 32.8812C46.0854 32.6727 45.9195 32.4225 45.8148 32.1086C45.6904 31.7947 45.6489 31.4414 45.6489 31.0222C45.6489 30.603 45.7122 30.2299 45.8148 29.916C45.9195 29.6021 46.0636 29.3322 46.2512 29.1237C46.4389 28.9152 46.6659 28.7484 46.9365 28.643C47.2071 28.5377 47.4974 28.4762 47.8291 28.4762C48.1411 28.4762 48.4314 28.5179 48.6802 28.6233C48.929 28.7286 49.1581 28.8537 49.324 29.0403C49.5117 29.229 49.636 29.4573 49.7386 29.7294C49.8434 30.0016 49.8848 30.3133 49.8848 30.6688V31.3163H46.9561C46.9561 31.505 46.9976 31.6718 47.0391 31.8167C47.1023 31.9637 47.1635 32.0888 47.2682 32.192C47.373 32.2973 47.4755 32.3807 47.6217 32.4225C47.768 32.4861 47.912 32.5059 48.0779 32.5059C48.2241 32.5059 48.3681 32.5059 48.4925 32.4839C48.6169 32.462 48.7413 32.4422 48.8657 32.4203C48.9901 32.3786 49.1145 32.3566 49.2389 32.2952C49.3633 32.2535 49.4876 32.1898 49.612 32.1283V33.1511C49.4876 33.2148 49.3829 33.2565 49.2585 33.2982C49.1341 33.3399 49.0294 33.3816 48.8853 33.4035C48.7609 33.4255 48.6147 33.4452 48.4707 33.4672C48.3266 33.4869 48.1804 33.4869 47.9949 33.4869ZM47.8291 29.4178C47.5999 29.4178 47.4144 29.5012 47.2486 29.668C47.1023 29.8348 46.9998 30.085 46.978 30.4406H48.6387C48.6387 30.2935 48.6169 30.1486 48.5754 30.0433C48.534 29.9182 48.4925 29.8128 48.4292 29.7294C48.3659 29.646 48.283 29.5626 48.1804 29.5209C48.0779 29.4595 47.9731 29.4178 47.8291 29.4178ZM52.9357 32.4444C53.0601 32.4444 53.1845 32.4225 53.3089 32.4027C53.4333 32.3829 53.5381 32.339 53.6625 32.2973V33.2784C53.5381 33.3421 53.3918 33.4035 53.2064 33.4452C53.0187 33.4869 52.8332 33.5089 52.604 33.5089C52.3967 33.5089 52.209 33.4869 52.0235 33.4452C51.8358 33.4035 51.6918 33.3201 51.5456 33.195C51.4212 33.0699 51.3164 32.9031 51.2335 32.6946C51.1506 32.4861 51.1288 32.2359 51.1288 31.922V29.5626H50.5068V28.9986L51.2335 28.5596L51.6067 27.5368H52.436V28.5596H53.5992V29.5407H52.436V31.8584C52.436 32.0471 52.4774 32.192 52.5822 32.2754C52.6651 32.4027 52.7895 32.4444 52.9357 32.4444ZM53.9527 28.5816H55.3843L56.1525 31.2965C56.194 31.4436 56.2354 31.6104 56.2573 31.7772C56.2791 31.944 56.2987 32.091 56.2987 32.2359H56.3205C56.3205 32.1722 56.3424 32.0888 56.3424 32.0054C56.3424 31.922 56.3642 31.8386 56.3838 31.7552C56.4057 31.6718 56.4057 31.5884 56.4253 31.505C56.4471 31.4216 56.4668 31.358 56.4886 31.2746L57.2349 28.5596H58.6666L56.7767 34.0093C56.589 34.5097 56.362 34.907 56.0499 35.1374C55.7379 35.3876 55.3647 35.5127 54.9086 35.5127C54.7624 35.5127 54.638 35.5127 54.5136 35.4908C54.4088 35.4688 54.3062 35.4491 54.243 35.4491V34.4044C54.3062 34.4263 54.3674 34.4263 54.4721 34.4461C54.555 34.468 54.6598 34.468 54.7624 34.468C54.9086 34.468 55.0111 34.4461 55.1159 34.4044C55.2206 34.3626 55.3036 34.3209 55.3647 34.2375C55.428 34.1739 55.4891 34.0905 55.5524 33.9873C55.5938 33.882 55.6353 33.7788 55.6768 33.6735L55.7597 33.4233L53.9527 28.5816Z" fill="white"/>
<path d="M27.5316 49.0156H26.3889L26.3961 48.1721H27.5316C27.8152 48.1721 28.0543 48.1085 28.2489 47.9811C28.4436 47.8513 28.5902 47.6627 28.6887 47.4152C28.7896 47.1676 28.8401 46.8684 28.8401 46.5176V46.2617C28.8401 45.9925 28.8113 45.7558 28.7536 45.5515C28.6983 45.3473 28.6154 45.1755 28.5049 45.0361C28.3943 44.8967 28.2585 44.7922 28.0975 44.7225C27.9365 44.6504 27.7515 44.6143 27.5424 44.6143H26.3673V43.7672H27.5424C27.8933 43.7672 28.2141 43.8273 28.5049 43.9475C28.798 44.0652 29.0516 44.2346 29.2655 44.4557C29.4793 44.6768 29.6439 44.9412 29.7593 45.2488C29.877 45.5539 29.9359 45.894 29.9359 46.2689V46.5176C29.9359 46.8901 29.877 47.2301 29.7593 47.5377C29.6439 47.8453 29.4793 48.1097 29.2655 48.3307C29.054 48.5494 28.8005 48.7188 28.5049 48.839C28.2117 48.9567 27.8873 49.0156 27.5316 49.0156ZM27.0017 43.7672V49.0156H25.9203V43.7672H27.0017ZM32.762 48.1361V46.3986C32.762 46.2737 32.7415 46.1667 32.7007 46.0778C32.6598 45.9865 32.5962 45.9156 32.5096 45.8652C32.4255 45.8147 32.3162 45.7895 32.1816 45.7895C32.0663 45.7895 31.9665 45.8099 31.8824 45.8507C31.7983 45.8892 31.7334 45.9457 31.6878 46.0202C31.6421 46.0922 31.6193 46.1776 31.6193 46.2761H30.5812C30.5812 46.1103 30.6196 45.9529 30.6965 45.8039C30.7734 45.6549 30.8851 45.5239 31.0317 45.411C31.1783 45.2956 31.3525 45.2055 31.5544 45.1406C31.7587 45.0757 31.987 45.0433 32.2393 45.0433C32.5421 45.0433 32.8112 45.0938 33.0467 45.1947C33.2822 45.2956 33.4673 45.447 33.6019 45.6489C33.7388 45.8507 33.8073 46.1031 33.8073 46.4059V48.0748C33.8073 48.2887 33.8205 48.4641 33.847 48.6011C33.8734 48.7357 33.9119 48.8534 33.9623 48.9543V49.0156H32.9134C32.8629 48.9099 32.8245 48.7777 32.798 48.6191C32.774 48.4581 32.762 48.2971 32.762 48.1361ZM32.8989 46.6402L32.9062 47.2277H32.3258C32.1888 47.2277 32.0699 47.2433 31.9689 47.2746C31.868 47.3058 31.7851 47.3503 31.7202 47.4079C31.6553 47.4632 31.6073 47.5281 31.576 47.6026C31.5472 47.6771 31.5328 47.7588 31.5328 47.8477C31.5328 47.9366 31.5532 48.0171 31.5941 48.0892C31.6349 48.1589 31.6938 48.2142 31.7707 48.255C31.8476 48.2935 31.9377 48.3127 32.041 48.3127C32.1972 48.3127 32.333 48.2815 32.4484 48.219C32.5637 48.1565 32.6526 48.0796 32.7151 47.9883C32.78 47.897 32.8136 47.8105 32.816 47.7288L33.09 48.1685C33.0515 48.2671 32.9987 48.3692 32.9314 48.4749C32.8665 48.5807 32.7836 48.6804 32.6827 48.7741C32.5817 48.8654 32.4604 48.9411 32.3186 49.0012C32.1768 49.0589 32.0086 49.0877 31.8139 49.0877C31.5664 49.0877 31.3417 49.0385 31.1399 48.9399C30.9404 48.839 30.7818 48.7008 30.6641 48.5254C30.5487 48.3476 30.491 48.1457 30.491 47.9198C30.491 47.7155 30.5295 47.5341 30.6064 47.3755C30.6833 47.2169 30.7962 47.0835 30.9452 46.9754C31.0966 46.8648 31.2853 46.7819 31.5112 46.7267C31.737 46.669 31.999 46.6402 32.297 46.6402H32.8989ZM36.518 45.1154V45.8507H34.2471V45.1154H36.518ZM34.8094 44.1529H35.8476V47.8405C35.8476 47.9535 35.862 48.04 35.8908 48.1C35.9221 48.1601 35.9677 48.2022 36.0278 48.2262C36.0879 48.2478 36.1636 48.2586 36.2549 48.2586C36.3198 48.2586 36.3774 48.2562 36.4279 48.2514C36.4808 48.2442 36.5252 48.237 36.5613 48.2298L36.5649 48.994C36.476 49.0228 36.3798 49.0457 36.2765 49.0625C36.1732 49.0793 36.059 49.0877 35.9341 49.0877C35.7058 49.0877 35.5063 49.0505 35.3357 48.976C35.1675 48.8991 35.0377 48.7765 34.9464 48.6083C34.8551 48.4401 34.8094 48.219 34.8094 47.945V44.1529ZM39.2143 48.1361V46.3986C39.2143 46.2737 39.1939 46.1667 39.153 46.0778C39.1122 45.9865 39.0485 45.9156 38.962 45.8652C38.8779 45.8147 38.7685 45.7895 38.634 45.7895C38.5186 45.7895 38.4189 45.8099 38.3348 45.8507C38.2507 45.8892 38.1858 45.9457 38.1401 46.0202C38.0945 46.0922 38.0716 46.1776 38.0716 46.2761H37.0335C37.0335 46.1103 37.0719 45.9529 37.1488 45.8039C37.2257 45.6549 37.3375 45.5239 37.4841 45.411C37.6307 45.2956 37.8049 45.2055 38.0068 45.1406C38.211 45.0757 38.4393 45.0433 38.6916 45.0433C38.9944 45.0433 39.2636 45.0938 39.4991 45.1947C39.7346 45.2956 39.9196 45.447 40.0542 45.6489C40.1912 45.8507 40.2597 46.1031 40.2597 46.4059V48.0748C40.2597 48.2887 40.2729 48.4641 40.2993 48.6011C40.3258 48.7357 40.3642 48.8534 40.4147 48.9543V49.0156H39.3657C39.3152 48.9099 39.2768 48.7777 39.2504 48.6191C39.2263 48.4581 39.2143 48.2971 39.2143 48.1361ZM39.3513 46.6402L39.3585 47.2277H38.7782C38.6412 47.2277 38.5222 47.2433 38.4213 47.2746C38.3204 47.3058 38.2375 47.3503 38.1726 47.4079C38.1077 47.4632 38.0596 47.5281 38.0284 47.6026C37.9995 47.6771 37.9851 47.7588 37.9851 47.8477C37.9851 47.9366 38.0056 48.0171 38.0464 48.0892C38.0873 48.1589 38.1461 48.2142 38.223 48.255C38.2999 48.2935 38.39 48.3127 38.4934 48.3127C38.6496 48.3127 38.7854 48.2815 38.9007 48.219C39.0161 48.1565 39.105 48.0796 39.1675 47.9883C39.2323 47.897 39.266 47.8105 39.2684 47.7288L39.5423 48.1685C39.5039 48.2671 39.451 48.3692 39.3837 48.4749C39.3188 48.5807 39.2359 48.6804 39.135 48.7741C39.0341 48.8654 38.9127 48.9411 38.7709 49.0012C38.6292 49.0589 38.4609 49.0877 38.2663 49.0877C38.0188 49.0877 37.7941 49.0385 37.5922 48.9399C37.3928 48.839 37.2342 48.7008 37.1164 48.5254C37.0011 48.3476 36.9434 48.1457 36.9434 47.9198C36.9434 47.7155 36.9818 47.5341 37.0587 47.3755C37.1356 47.2169 37.2486 47.0835 37.3976 46.9754C37.549 46.8648 37.7376 46.7819 37.9635 46.7267C38.1894 46.669 38.4513 46.6402 38.7493 46.6402H39.3513ZM43.457 43.7672H44.3726L45.7207 47.6206L47.0689 43.7672H47.9844L46.0884 49.0156H45.353L43.457 43.7672ZM42.9632 43.7672H43.8751L44.041 47.5233V49.0156H42.9632V43.7672ZM47.5663 43.7672H48.4819V49.0156H47.4005V47.5233L47.5663 43.7672ZM50.4609 45.1154V49.0156H49.4191V45.1154H50.4609ZM49.3542 44.0989C49.3542 43.9475 49.4071 43.8225 49.5128 43.724C49.6186 43.6255 49.7603 43.5762 49.9382 43.5762C50.1136 43.5762 50.2542 43.6255 50.3599 43.724C50.4681 43.8225 50.5221 43.9475 50.5221 44.0989C50.5221 44.2503 50.4681 44.3752 50.3599 44.4738C50.2542 44.5723 50.1136 44.6215 49.9382 44.6215C49.7603 44.6215 49.6186 44.5723 49.5128 44.4738C49.4071 44.3752 49.3542 44.2503 49.3542 44.0989ZM52.3353 45.9481V49.0156H51.2971V45.1154H52.2704L52.3353 45.9481ZM52.1839 46.9285H51.9027C51.9027 46.6402 51.94 46.3806 52.0145 46.1499C52.089 45.9168 52.1935 45.7186 52.3281 45.5552C52.4626 45.3893 52.6224 45.2632 52.8075 45.1767C52.9949 45.0877 53.204 45.0433 53.4347 45.0433C53.6173 45.0433 53.7843 45.0697 53.9357 45.1226C54.0871 45.1755 54.2169 45.2596 54.325 45.3749C54.4356 45.4903 54.5197 45.6429 54.5774 45.8327C54.6375 46.0226 54.6675 46.2545 54.6675 46.5284V49.0156H53.6221V46.5248C53.6221 46.3518 53.5981 46.2172 53.55 46.1211C53.502 46.025 53.4311 45.9577 53.3374 45.9192C53.2461 45.8784 53.1331 45.8579 52.9985 45.8579C52.8592 45.8579 52.7378 45.8856 52.6345 45.9408C52.5335 45.9961 52.4494 46.073 52.3821 46.1715C52.3173 46.2677 52.268 46.3806 52.2343 46.5104C52.2007 46.6402 52.1839 46.7795 52.1839 46.9285ZM56.5527 45.1154V49.0156H55.511V45.1154H56.5527ZM55.4461 44.0989C55.4461 43.9475 55.499 43.8225 55.6047 43.724C55.7104 43.6255 55.8522 43.5762 56.0301 43.5762C56.2055 43.5762 56.3461 43.6255 56.4518 43.724C56.5599 43.8225 56.614 43.9475 56.614 44.0989C56.614 44.2503 56.5599 44.3752 56.4518 44.4738C56.3461 44.5723 56.2055 44.6215 56.0301 44.6215C55.8522 44.6215 55.7104 44.5723 55.6047 44.4738C55.499 44.3752 55.4461 44.2503 55.4461 44.0989ZM58.4272 45.9481V49.0156H57.389V45.1154H58.3623L58.4272 45.9481ZM58.2758 46.9285H57.9946C57.9946 46.6402 58.0318 46.3806 58.1063 46.1499C58.1808 45.9168 58.2854 45.7186 58.4199 45.5552C58.5545 45.3893 58.7143 45.2632 58.8994 45.1767C59.0868 45.0877 59.2959 45.0433 59.5266 45.0433C59.7092 45.0433 59.8762 45.0697 60.0276 45.1226C60.179 45.1755 60.3088 45.2596 60.4169 45.3749C60.5275 45.4903 60.6116 45.6429 60.6693 45.8327C60.7293 46.0226 60.7594 46.2545 60.7594 46.5284V49.0156H59.714V46.5248C59.714 46.3518 59.69 46.2172 59.6419 46.1211C59.5939 46.025 59.523 45.9577 59.4292 45.9192C59.3379 45.8784 59.225 45.8579 59.0904 45.8579C58.951 45.8579 58.8297 45.8856 58.7263 45.9408C58.6254 45.9961 58.5413 46.073 58.474 46.1715C58.4091 46.2677 58.3599 46.3806 58.3262 46.5104C58.2926 46.6402 58.2758 46.7795 58.2758 46.9285ZM64.018 45.1154H64.9588V48.8859C64.9588 49.2415 64.8795 49.5431 64.7209 49.7906C64.5647 50.0406 64.346 50.2292 64.0648 50.3566C63.7837 50.4863 63.4569 50.5512 63.0844 50.5512C62.921 50.5512 62.7479 50.5296 62.5653 50.4863C62.3851 50.4431 62.212 50.3758 62.0462 50.2845C61.8828 50.1931 61.7458 50.0778 61.6353 49.9384L62.0931 49.3256C62.2132 49.465 62.3526 49.5731 62.5112 49.65C62.6698 49.7293 62.8453 49.769 63.0375 49.769C63.225 49.769 63.3836 49.7342 63.5133 49.6645C63.6431 49.5972 63.7428 49.4974 63.8125 49.3653C63.8822 49.2355 63.917 49.0781 63.917 48.8931V46.0165L64.018 45.1154ZM61.3938 47.1124V47.0367C61.3938 46.7387 61.4298 46.4683 61.5019 46.2256C61.5764 45.9805 61.681 45.7702 61.8155 45.5948C61.9525 45.4194 62.1183 45.2836 62.313 45.1875C62.5076 45.0914 62.7275 45.0433 62.9726 45.0433C63.2322 45.0433 63.4496 45.0914 63.6251 45.1875C63.8005 45.2836 63.9447 45.4206 64.0576 45.5984C64.1706 45.7738 64.2583 45.9817 64.3208 46.222C64.3857 46.4599 64.4361 46.7207 64.4722 47.0042V47.17C64.4361 47.4416 64.3821 47.6939 64.31 47.927C64.2379 48.1601 64.1429 48.3644 64.0252 48.5398C63.9074 48.7128 63.7608 48.8474 63.5854 48.9435C63.4124 49.0397 63.2057 49.0877 62.9654 49.0877C62.7251 49.0877 62.5076 49.0385 62.313 48.9399C62.1207 48.8414 61.9561 48.7032 61.8191 48.5254C61.6822 48.3476 61.5764 48.1385 61.5019 47.8982C61.4298 47.6579 61.3938 47.3959 61.3938 47.1124ZM62.4319 47.0367V47.1124C62.4319 47.2734 62.4475 47.4236 62.4788 47.5629C62.51 47.7023 62.5581 47.8261 62.623 47.9342C62.6903 48.04 62.7732 48.1229 62.8717 48.1829C62.9726 48.2406 63.0916 48.2695 63.2286 48.2695C63.4184 48.2695 63.5734 48.2298 63.6936 48.1505C63.8137 48.0688 63.9038 47.9571 63.9639 47.8153C64.024 47.6735 64.0588 47.5101 64.0684 47.325V46.8528C64.0636 46.7014 64.0432 46.5657 64.0072 46.4455C63.9711 46.3229 63.9207 46.2184 63.8558 46.1319C63.7909 46.0454 63.7068 45.9781 63.6034 45.93C63.5001 45.882 63.3776 45.8579 63.2358 45.8579C63.0988 45.8579 62.9798 45.8892 62.8789 45.9517C62.7804 46.0117 62.6975 46.0946 62.6302 46.2004C62.5653 46.3061 62.516 46.4311 62.4824 46.5753C62.4488 46.7171 62.4319 46.8709 62.4319 47.0367ZM25.632 58.0156H24.4893L24.4965 57.1721H25.632C25.9155 57.1721 26.1546 57.1085 26.3493 56.9811C26.5439 56.8513 26.6905 56.6627 26.789 56.4152C26.89 56.1676 26.9404 55.8684 26.9404 55.5176V55.2617C26.9404 54.9925 26.9116 54.7558 26.8539 54.5515C26.7987 54.3473 26.7158 54.1755 26.6052 54.0361C26.4947 53.8967 26.3589 53.7922 26.1979 53.7225C26.0369 53.6504 25.8518 53.6143 25.6428 53.6143H24.4676V52.7672H25.6428C25.9936 52.7672 26.3144 52.8273 26.6052 52.9475C26.8984 53.0652 27.1519 53.2346 27.3658 53.4557C27.5797 53.6768 27.7443 53.9412 27.8596 54.2488C27.9774 54.5539 28.0363 54.894 28.0363 55.2689V55.5176C28.0363 55.8901 27.9774 56.2301 27.8596 56.5377C27.7443 56.8453 27.5797 57.1097 27.3658 57.3307C27.1543 57.5494 26.9008 57.7188 26.6052 57.839C26.312 57.9567 25.9876 58.0156 25.632 58.0156ZM25.1021 52.7672V58.0156H24.0207V52.7672H25.1021ZM30.5523 58.0877C30.2495 58.0877 29.978 58.0397 29.7377 57.9435C29.4974 57.845 29.2931 57.7092 29.1249 57.5362C28.9591 57.3632 28.8317 57.1625 28.7428 56.9342C28.6539 56.7035 28.6094 56.4584 28.6094 56.1989V56.0547C28.6094 55.7591 28.6515 55.4888 28.7356 55.2436C28.8197 54.9985 28.9398 54.7858 29.096 54.6056C29.2546 54.4254 29.4469 54.2872 29.6728 54.1911C29.8987 54.0926 30.1534 54.0433 30.437 54.0433C30.7133 54.0433 30.9584 54.0889 31.1723 54.1803C31.3862 54.2716 31.5652 54.4014 31.7094 54.5696C31.856 54.7378 31.9665 54.9396 32.041 55.1752C32.1155 55.4083 32.1528 55.6678 32.1528 55.9538V56.3863H29.0528V55.6942H31.1327V55.6149C31.1327 55.4707 31.1062 55.3422 31.0534 55.2292C31.0029 55.1139 30.926 55.0226 30.8227 54.9553C30.7193 54.888 30.5872 54.8543 30.4262 54.8543C30.2892 54.8543 30.1714 54.8844 30.0729 54.9445C29.9744 55.0045 29.8939 55.0886 29.8314 55.1968C29.7713 55.3049 29.7256 55.4323 29.6944 55.5789C29.6656 55.7231 29.6511 55.8817 29.6511 56.0547V56.1989C29.6511 56.3551 29.6728 56.4993 29.716 56.6314C29.7617 56.7636 29.8254 56.8778 29.9071 56.9739C29.9912 57.07 30.0921 57.1445 30.2099 57.1974C30.33 57.2502 30.4658 57.2767 30.6172 57.2767C30.8046 57.2767 30.9789 57.2406 31.1399 57.1685C31.3033 57.094 31.4439 56.9823 31.5616 56.8333L32.0663 57.3812C31.9846 57.499 31.8728 57.6119 31.731 57.72C31.5917 57.8282 31.4234 57.9171 31.2264 57.9868C31.0293 58.0541 30.8046 58.0877 30.5523 58.0877ZM34.02 57.2586L34.8851 54.1154H35.9701L34.6544 58.0156H33.9984L34.02 57.2586ZM33.4252 54.1154L34.294 57.2623L34.312 58.0156H33.6523L32.3366 54.1154H33.4252ZM38.1798 58.0877C37.877 58.0877 37.6054 58.0397 37.3651 57.9435C37.1248 57.845 36.9205 57.7092 36.7523 57.5362C36.5865 57.3632 36.4592 57.1625 36.3702 56.9342C36.2813 56.7035 36.2369 56.4584 36.2369 56.1989V56.0547C36.2369 55.7591 36.2789 55.4888 36.363 55.2436C36.4471 54.9985 36.5673 54.7858 36.7235 54.6056C36.8821 54.4254 37.0743 54.2872 37.3002 54.1911C37.5261 54.0926 37.7809 54.0433 38.0644 54.0433C38.3408 54.0433 38.5859 54.0889 38.7998 54.1803C39.0137 54.2716 39.1927 54.4014 39.3369 54.5696C39.4835 54.7378 39.594 54.9396 39.6685 55.1752C39.743 55.4083 39.7802 55.6678 39.7802 55.9538V56.3863H36.6802V55.6942H38.7601V55.6149C38.7601 55.4707 38.7337 55.3422 38.6808 55.2292C38.6304 55.1139 38.5535 55.0226 38.4501 54.9553C38.3468 54.888 38.2146 54.8543 38.0536 54.8543C37.9166 54.8543 37.7989 54.8844 37.7004 54.9445C37.6018 55.0045 37.5213 55.0886 37.4588 55.1968C37.3988 55.3049 37.3531 55.4323 37.3219 55.5789C37.293 55.7231 37.2786 55.8817 37.2786 56.0547V56.1989C37.2786 56.3551 37.3002 56.4993 37.3435 56.6314C37.3892 56.7636 37.4528 56.8778 37.5345 56.9739C37.6187 57.07 37.7196 57.1445 37.8373 57.1974C37.9575 57.2502 38.0933 57.2767 38.2447 57.2767C38.4321 57.2767 38.6063 57.2406 38.7673 57.1685C38.9307 57.094 39.0713 56.9823 39.1891 56.8333L39.6937 57.3812C39.612 57.499 39.5003 57.6119 39.3585 57.72C39.2191 57.8282 39.0509 57.9171 38.8538 57.9868C38.6568 58.0541 38.4321 58.0877 38.1798 58.0877ZM41.4672 52.4789V58.0156H40.4255V52.4789H41.4672ZM42.1593 56.1052V56.0295C42.1593 55.7435 42.2002 55.4803 42.2819 55.24C42.3636 54.9973 42.4825 54.7871 42.6387 54.6092C42.7949 54.4314 42.9872 54.2932 43.2155 54.1947C43.4438 54.0938 43.7057 54.0433 44.0013 54.0433C44.2969 54.0433 44.56 54.0938 44.7907 54.1947C45.0214 54.2932 45.2149 54.4314 45.3711 54.6092C45.5297 54.7871 45.6498 54.9973 45.7315 55.24C45.8132 55.4803 45.8541 55.7435 45.8541 56.0295V56.1052C45.8541 56.3887 45.8132 56.6519 45.7315 56.8946C45.6498 57.1349 45.5297 57.3452 45.3711 57.5254C45.2149 57.7032 45.0226 57.8414 44.7943 57.9399C44.566 58.0385 44.3041 58.0877 44.0085 58.0877C43.7129 58.0877 43.4498 58.0385 43.2191 57.9399C42.9908 57.8414 42.7973 57.7032 42.6387 57.5254C42.4825 57.3452 42.3636 57.1349 42.2819 56.8946C42.2002 56.6519 42.1593 56.3887 42.1593 56.1052ZM43.1975 56.0295V56.1052C43.1975 56.2686 43.2119 56.4212 43.2407 56.5629C43.2696 56.7047 43.3152 56.8297 43.3777 56.9378C43.4426 57.0436 43.5267 57.1265 43.63 57.1866C43.7334 57.2466 43.8595 57.2767 44.0085 57.2767C44.1527 57.2767 44.2765 57.2466 44.3798 57.1866C44.4831 57.1265 44.566 57.0436 44.6285 56.9378C44.691 56.8297 44.7367 56.7047 44.7655 56.5629C44.7967 56.4212 44.8124 56.2686 44.8124 56.1052V56.0295C44.8124 55.8709 44.7967 55.7219 44.7655 55.5825C44.7367 55.4407 44.6898 55.3157 44.6249 55.2076C44.5624 55.0971 44.4795 55.0105 44.3762 54.9481C44.2729 54.8856 44.1479 54.8543 44.0013 54.8543C43.8547 54.8543 43.7298 54.8856 43.6264 54.9481C43.5255 55.0105 43.4426 55.0971 43.3777 55.2076C43.3152 55.3157 43.2696 55.4407 43.2407 55.5825C43.2119 55.7219 43.1975 55.8709 43.1975 56.0295ZM47.5303 54.8652V59.5152H46.4921V54.1154H47.4546L47.5303 54.8652ZM49.9995 56.0222V56.0979C49.9995 56.3815 49.9658 56.6447 49.8985 56.8874C49.8336 57.1301 49.7375 57.3416 49.6102 57.5218C49.4828 57.6996 49.3242 57.839 49.1343 57.9399C48.9469 58.0385 48.7306 58.0877 48.4855 58.0877C48.2476 58.0877 48.0409 58.0397 47.8655 57.9435C47.6901 57.8474 47.5423 57.7128 47.4221 57.5398C47.3044 57.3644 47.2095 57.1613 47.1374 56.9306C47.0653 56.6999 47.01 56.4524 46.9715 56.1881V55.9898C47.01 55.7062 47.0653 55.4467 47.1374 55.2112C47.2095 54.9733 47.3044 54.7678 47.4221 54.5948C47.5423 54.4194 47.6889 54.2836 47.8619 54.1875C48.0373 54.0914 48.2428 54.0433 48.4783 54.0433C48.7258 54.0433 48.9433 54.0902 49.1307 54.1839C49.3206 54.2776 49.4792 54.4122 49.6065 54.5876C49.7363 54.763 49.8336 54.9721 49.8985 55.2148C49.9658 55.4575 49.9995 55.7267 49.9995 56.0222ZM48.9577 56.0979V56.0222C48.9577 55.8564 48.9433 55.7038 48.9145 55.5645C48.888 55.4227 48.8448 55.2989 48.7847 55.1932C48.727 55.0874 48.6501 55.0057 48.554 54.9481C48.4603 54.888 48.3461 54.8579 48.2115 54.8579C48.0698 54.8579 47.9484 54.8808 47.8475 54.9264C47.7489 54.9721 47.6684 55.0382 47.606 55.1247C47.5435 55.2112 47.4966 55.3145 47.4654 55.4347C47.4341 55.5548 47.4149 55.6906 47.4077 55.842V56.3431C47.4197 56.5209 47.4534 56.6807 47.5086 56.8225C47.5639 56.9619 47.6492 57.0724 47.7646 57.1541C47.8799 57.2358 48.0313 57.2767 48.2188 57.2767C48.3557 57.2767 48.4711 57.2466 48.5648 57.1866C48.6585 57.1241 48.7342 57.0388 48.7919 56.9306C48.852 56.8225 48.894 56.6975 48.9181 56.5557C48.9445 56.414 48.9577 56.2614 48.9577 56.0979ZM51.6828 54.9228V58.0156H50.6411V54.1154H51.6179L51.6828 54.9228ZM51.5386 55.9285H51.2503C51.2503 55.657 51.2827 55.4071 51.3476 55.1788C51.4149 54.9481 51.5122 54.7486 51.6396 54.5804C51.7693 54.4098 51.9291 54.2776 52.119 54.1839C52.3088 54.0902 52.5287 54.0433 52.7786 54.0433C52.9517 54.0433 53.1103 54.0697 53.2545 54.1226C53.3986 54.1731 53.5224 54.2536 53.6257 54.3641C53.7315 54.4722 53.8132 54.614 53.8709 54.7895C53.9285 54.9625 53.9574 55.1703 53.9574 55.4131V58.0156H52.9192V55.5284C52.9192 55.3506 52.8952 55.2136 52.8471 55.1175C52.7991 55.0214 52.7306 54.9541 52.6417 54.9156C52.5552 54.8772 52.4506 54.8579 52.3281 54.8579C52.1935 54.8579 52.0757 54.8856 51.9748 54.9408C51.8763 54.9961 51.7946 55.073 51.7297 55.1715C51.6648 55.2677 51.6167 55.3806 51.5855 55.5104C51.5543 55.6402 51.5386 55.7795 51.5386 55.9285ZM53.86 55.8096L53.4888 55.8564C53.4888 55.6017 53.52 55.365 53.5825 55.1463C53.6474 54.9276 53.7423 54.7354 53.8673 54.5696C53.9946 54.4038 54.152 54.2752 54.3395 54.1839C54.5269 54.0902 54.7432 54.0433 54.9883 54.0433C55.1757 54.0433 55.3464 54.0709 55.5002 54.1262C55.654 54.1791 55.7849 54.2644 55.8931 54.3821C56.0036 54.4975 56.0877 54.6489 56.1454 54.8363C56.2055 55.0238 56.2355 55.2533 56.2355 55.5248V58.0156H55.1938V55.5248C55.1938 55.3446 55.1697 55.2076 55.1217 55.1139C55.076 55.0177 55.0087 54.9517 54.9198 54.9156C54.8333 54.8772 54.73 54.8579 54.6098 54.8579C54.4849 54.8579 54.3755 54.8832 54.2818 54.9336C54.1881 54.9817 54.11 55.049 54.0475 55.1355C53.985 55.222 53.9381 55.3229 53.9069 55.4383C53.8757 55.5512 53.86 55.675 53.86 55.8096ZM58.8345 58.0877C58.5317 58.0877 58.2601 58.0397 58.0198 57.9435C57.7795 57.845 57.5753 57.7092 57.407 57.5362C57.2412 57.3632 57.1139 57.1625 57.0249 56.9342C56.936 56.7035 56.8916 56.4584 56.8916 56.1989V56.0547C56.8916 55.7591 56.9336 55.4888 57.0177 55.2436C57.1018 54.9985 57.222 54.7858 57.3782 54.6056C57.5368 54.4254 57.729 54.2872 57.9549 54.1911C58.1808 54.0926 58.4356 54.0433 58.7191 54.0433C58.9955 54.0433 59.2406 54.0889 59.4545 54.1803C59.6684 54.2716 59.8474 54.4014 59.9916 54.5696C60.1382 54.7378 60.2487 54.9396 60.3232 55.1752C60.3977 55.4083 60.4349 55.6678 60.4349 55.9538V56.3863H57.3349V55.6942H59.4148V55.6149C59.4148 55.4707 59.3884 55.3422 59.3355 55.2292C59.2851 55.1139 59.2082 55.0226 59.1048 54.9553C59.0015 54.888 58.8693 54.8543 58.7083 54.8543C58.5713 54.8543 58.4536 54.8844 58.3551 54.9445C58.2565 55.0045 58.176 55.0886 58.1135 55.1968C58.0535 55.3049 58.0078 55.4323 57.9766 55.5789C57.9477 55.7231 57.9333 55.8817 57.9333 56.0547V56.1989C57.9333 56.3551 57.9549 56.4993 57.9982 56.6314C58.0439 56.7636 58.1075 56.8778 58.1892 56.9739C58.2734 57.07 58.3743 57.1445 58.492 57.1974C58.6122 57.2502 58.748 57.2767 58.8994 57.2767C59.0868 57.2767 59.261 57.2406 59.422 57.1685C59.5854 57.094 59.726 56.9823 59.8438 56.8333L60.3484 57.3812C60.2667 57.499 60.155 57.6119 60.0132 57.72C59.8738 57.8282 59.7056 57.9171 59.5085 57.9868C59.3115 58.0541 59.0868 58.0877 58.8345 58.0877ZM62.0426 54.9481V58.0156H61.0045V54.1154H61.9777L62.0426 54.9481ZM61.8912 55.9285H61.6101C61.6101 55.6402 61.6473 55.3806 61.7218 55.1499C61.7963 54.9168 61.9008 54.7186 62.0354 54.5552C62.17 54.3893 62.3298 54.2632 62.5148 54.1767C62.7023 54.0877 62.9113 54.0433 63.142 54.0433C63.3247 54.0433 63.4917 54.0697 63.6431 54.1226C63.7945 54.1755 63.9243 54.2596 64.0324 54.3749C64.1429 54.4903 64.2271 54.6429 64.2847 54.8327C64.3448 55.0226 64.3748 55.2545 64.3748 55.5284V58.0156H63.3295V55.5248C63.3295 55.3518 63.3055 55.2172 63.2574 55.1211C63.2093 55.025 63.1384 54.9577 63.0447 54.9192C62.9534 54.8784 62.8405 54.8579 62.7059 54.8579C62.5665 54.8579 62.4451 54.8856 62.3418 54.9408C62.2409 54.9961 62.1568 55.073 62.0895 55.1715C62.0246 55.2677 61.9753 55.3806 61.9417 55.5104C61.9081 55.6402 61.8912 55.7795 61.8912 55.9285ZM67.0747 54.1154V54.8507H64.8038V54.1154H67.0747ZM65.3661 53.1529H66.4043V56.8405C66.4043 56.9535 66.4187 57.04 66.4475 57.1C66.4788 57.1601 66.5244 57.2022 66.5845 57.2262C66.6446 57.2478 66.7203 57.2586 66.8116 57.2586C66.8765 57.2586 66.9341 57.2562 66.9846 57.2514C67.0375 57.2442 67.0819 57.237 67.118 57.2298L67.1216 57.994C67.0327 58.0228 66.9365 58.0457 66.8332 58.0625C66.7299 58.0793 66.6157 58.0877 66.4908 58.0877C66.2625 58.0877 66.063 58.0505 65.8924 57.976C65.7242 57.8991 65.5944 57.7765 65.5031 57.6083C65.4118 57.4401 65.3661 57.219 65.3661 56.945V53.1529Z" fill="#112244"/>
<path d="M35.8536 66.3802V70.5352H35.0004V66.3802H35.8536ZM37.1321 66.3802V67.0508H33.7419V66.3802H37.1321ZM40.9532 68.3606V68.5575C40.9532 68.8734 40.9104 69.1568 40.8248 69.4079C40.7392 69.6591 40.6184 69.8731 40.4623 70.05C40.3063 70.2251 40.1199 70.3592 39.903 70.4524C39.688 70.5456 39.4493 70.5922 39.1867 70.5922C38.9261 70.5922 38.6874 70.5456 38.4705 70.4524C38.2555 70.3592 38.0691 70.2251 37.9112 70.05C37.7532 69.8731 37.6305 69.6591 37.543 69.4079C37.4574 69.1568 37.4146 68.8734 37.4146 68.5575V68.3606C37.4146 68.0429 37.4574 67.7595 37.543 67.5102C37.6286 67.2591 37.7494 67.0451 37.9054 66.8682C38.0633 66.6912 38.2498 66.5562 38.4648 66.4629C38.6816 66.3697 38.9204 66.3231 39.181 66.3231C39.4436 66.3231 39.6823 66.3697 39.8973 66.4629C40.1142 66.5562 40.3006 66.6912 40.4566 66.8682C40.6145 67.0451 40.7363 67.2591 40.8219 67.5102C40.9094 67.7595 40.9532 68.0429 40.9532 68.3606ZM40.0885 68.5575V68.3549C40.0885 68.1343 40.0685 67.9402 40.0286 67.7728C39.9886 67.6054 39.9297 67.4646 39.8517 67.3504C39.7737 67.2363 39.6785 67.1507 39.5663 67.0936C39.454 67.0346 39.3256 67.0051 39.181 67.0051C39.0365 67.0051 38.908 67.0346 38.7958 67.0936C38.6855 67.1507 38.5913 67.2363 38.5133 67.3504C38.4372 67.4646 38.3792 67.6054 38.3392 67.7728C38.2993 67.9402 38.2793 68.1343 38.2793 68.3549V68.5575C38.2793 68.7763 38.2993 68.9704 38.3392 69.1397C38.3792 69.3071 38.4381 69.4489 38.5161 69.5649C38.5941 69.679 38.6893 69.7656 38.8015 69.8246C38.9137 69.8836 39.0422 69.9131 39.1867 69.9131C39.3313 69.9131 39.4598 69.8836 39.572 69.8246C39.6842 69.7656 39.7784 69.679 39.8545 69.5649C39.9306 69.4489 39.9886 69.3071 40.0286 69.1397C40.0685 68.9704 40.0885 68.7763 40.0885 68.5575ZM43.1876 69.0541H42.1289V68.3863H43.1876C43.3512 68.3863 43.4844 68.3597 43.5871 68.3064C43.6899 68.2513 43.765 68.1752 43.8126 68.0781C43.8601 67.9811 43.8839 67.8717 43.8839 67.75C43.8839 67.6263 43.8601 67.5112 43.8126 67.4047C43.765 67.2981 43.6899 67.2125 43.5871 67.1478C43.4844 67.0831 43.3512 67.0508 43.1876 67.0508H42.4257V70.5352H41.5696V66.3802H43.1876C43.5129 66.3802 43.7917 66.4392 44.0238 66.5571C44.2578 66.6732 44.4366 66.8339 44.5602 67.0394C44.6839 67.2449 44.7457 67.4798 44.7457 67.7442C44.7457 68.0125 44.6839 68.2446 44.5602 68.4405C44.4366 68.6365 44.2578 68.7877 44.0238 68.8943C43.7917 69.0008 43.5129 69.0541 43.1876 69.0541ZM48.7095 66.3716V70.5352H47.8876V67.319L46.9003 67.633V66.9852L48.621 66.3716H48.7095ZM52.8588 68.0924V68.8115C52.8588 69.1235 52.8255 69.3927 52.7589 69.6191C52.6923 69.8436 52.5962 70.0282 52.4707 70.1727C52.347 70.3154 52.1996 70.421 52.0284 70.4895C51.8571 70.558 51.6669 70.5922 51.4576 70.5922C51.2902 70.5922 51.1342 70.5713 50.9896 70.5294C50.845 70.4857 50.7147 70.4182 50.5987 70.3268C50.4845 70.2355 50.3856 70.1204 50.3019 69.9815C50.2201 69.8408 50.1573 69.6733 50.1135 69.4793C50.0698 69.2852 50.0479 69.0627 50.0479 68.8115V68.0924C50.0479 67.7804 50.0812 67.5131 50.1478 67.2905C50.2163 67.066 50.3123 66.8824 50.436 66.7397C50.5616 66.5971 50.7099 66.4924 50.8812 66.4258C51.0524 66.3574 51.2426 66.3231 51.4519 66.3231C51.6193 66.3231 51.7744 66.345 51.9171 66.3887C52.0616 66.4306 52.192 66.4962 52.308 66.5857C52.4241 66.6751 52.523 66.7902 52.6048 66.9309C52.6866 67.0698 52.7494 67.2363 52.7931 67.4303C52.8369 67.6225 52.8588 67.8432 52.8588 68.0924ZM52.0341 68.92V67.9811C52.0341 67.8308 52.0255 67.6995 52.0084 67.5873C51.9932 67.4751 51.9694 67.3799 51.937 67.3019C51.9047 67.222 51.8647 67.1573 51.8172 67.1079C51.7696 67.0584 51.7154 67.0223 51.6545 66.9994C51.5936 66.9766 51.5261 66.9652 51.4519 66.9652C51.3587 66.9652 51.2759 66.9833 51.2036 67.0194C51.1332 67.0556 51.0733 67.1136 51.0239 67.1935C50.9744 67.2715 50.9363 67.3761 50.9097 67.5074C50.885 67.6368 50.8726 67.7947 50.8726 67.9811V68.92C50.8726 69.0703 50.8802 69.2025 50.8954 69.3166C50.9126 69.4308 50.9373 69.5288 50.9696 69.6106C51.0039 69.6905 51.0438 69.7561 51.0895 69.8075C51.137 69.8569 51.1913 69.8931 51.2521 69.9159C51.3149 69.9387 51.3834 69.9501 51.4576 69.9501C51.5489 69.9501 51.6298 69.9321 51.7002 69.8959C51.7725 69.8579 51.8333 69.7989 51.8828 69.719C51.9342 69.6372 51.9722 69.5307 51.997 69.3994C52.0217 69.2681 52.0341 69.1083 52.0341 68.92ZM53.4067 67.399V67.1792C53.4067 67.0213 53.4409 66.8777 53.5094 66.7483C53.5779 66.6189 53.6787 66.5153 53.8119 66.4373C53.9451 66.3593 54.1087 66.3203 54.3027 66.3203C54.5025 66.3203 54.669 66.3593 54.8021 66.4373C54.9372 66.5153 55.038 66.6189 55.1046 66.7483C55.1731 66.8777 55.2074 67.0213 55.2074 67.1792V67.399C55.2074 67.5531 55.1731 67.6948 55.1046 67.8242C55.038 67.9535 54.9382 68.0572 54.805 68.1352C54.6718 68.2132 54.5063 68.2522 54.3084 68.2522C54.1125 68.2522 53.947 68.2132 53.8119 68.1352C53.6787 68.0572 53.5779 67.9535 53.5094 67.8242C53.4409 67.6948 53.4067 67.5531 53.4067 67.399ZM53.9517 67.1792V67.399C53.9517 67.4655 53.9641 67.5293 53.9888 67.5901C54.0155 67.6491 54.0554 67.6976 54.1087 67.7357C54.1639 67.7718 54.2304 67.7899 54.3084 67.7899C54.3903 67.7899 54.4568 67.7718 54.5082 67.7357C54.5596 67.6976 54.5976 67.6491 54.6224 67.5901C54.6471 67.5293 54.6595 67.4655 54.6595 67.399V67.1792C54.6595 67.1088 54.6461 67.0441 54.6195 66.9852C54.5948 66.9243 54.5558 66.8758 54.5025 66.8396C54.4511 66.8016 54.3845 66.7826 54.3027 66.7826C54.2266 66.7826 54.162 66.8016 54.1087 66.8396C54.0554 66.8758 54.0155 66.9243 53.9888 66.9852C53.9641 67.0441 53.9517 67.1088 53.9517 67.1792ZM55.3929 69.7361V69.5164C55.3929 69.3604 55.4271 69.2177 55.4956 69.0883C55.566 68.959 55.6678 68.8553 55.8009 68.7773C55.936 68.6993 56.1015 68.6603 56.2975 68.6603C56.4953 68.6603 56.6608 68.6993 56.794 68.7773C56.9272 68.8553 57.028 68.959 57.0965 69.0883C57.165 69.2177 57.1992 69.3604 57.1992 69.5164V69.7361C57.1992 69.8921 57.165 70.0348 57.0965 70.1642C57.0299 70.2935 56.93 70.3972 56.7969 70.4752C56.6637 70.5532 56.4991 70.5922 56.3032 70.5922C56.1053 70.5922 55.9389 70.5532 55.8038 70.4752C55.6687 70.3972 55.566 70.2935 55.4956 70.1642C55.4271 70.0348 55.3929 69.8921 55.3929 69.7361ZM55.9408 69.5164V69.7361C55.9408 69.8046 55.956 69.8693 55.9864 69.9302C56.0169 69.9911 56.0587 70.0396 56.112 70.0757C56.1672 70.1119 56.2309 70.1299 56.3032 70.1299C56.3945 70.1299 56.4658 70.1119 56.5172 70.0757C56.5686 70.0396 56.6038 69.9911 56.6228 69.9302C56.6437 69.8693 56.6542 69.8046 56.6542 69.7361V69.5164C56.6542 69.4479 56.6409 69.3842 56.6142 69.3252C56.5876 69.2643 56.5476 69.2158 56.4944 69.1797C56.443 69.1416 56.3774 69.1226 56.2975 69.1226C56.2176 69.1226 56.151 69.1416 56.0977 69.1797C56.0463 69.2158 56.0073 69.2643 55.9807 69.3252C55.9541 69.3842 55.9408 69.4479 55.9408 69.5164ZM56.5001 66.9738L54.4711 70.2213L54.0716 70.0101L56.1006 66.7626L56.5001 66.9738Z" fill="white"/>
<path d="M40.9019 77.6331V78.5117H37.0125V77.7619L38.8517 75.7899C39.0366 75.5842 39.1824 75.4033 39.2891 75.2471C39.3959 75.0883 39.4727 74.9464 39.5195 74.8214C39.569 74.6939 39.5937 74.5728 39.5937 74.4583C39.5937 74.2865 39.5651 74.1394 39.5078 74.017C39.4505 73.892 39.3659 73.7957 39.254 73.728C39.1446 73.6603 39.0093 73.6265 38.8478 73.6265C38.676 73.6265 38.5276 73.6682 38.4027 73.7515C38.2803 73.8348 38.1866 73.9506 38.1215 74.099C38.059 74.2474 38.0278 74.4153 38.0278 74.6028H36.8992C36.8992 74.2643 36.9799 73.9545 37.1413 73.6734C37.3027 73.3896 37.5305 73.1644 37.8247 72.9978C38.1189 72.8286 38.4678 72.744 38.8713 72.744C39.2696 72.744 39.6054 72.809 39.8788 72.9392C40.1547 73.0668 40.363 73.2516 40.5036 73.4937C40.6468 73.7332 40.7184 74.0196 40.7184 74.3528C40.7184 74.5403 40.6884 74.7238 40.6285 74.9035C40.5687 75.0805 40.4828 75.2575 40.3708 75.4345C40.2615 75.609 40.1287 75.786 39.9725 75.9656C39.8163 76.1453 39.6432 76.3314 39.4531 76.524L38.4652 77.6331H40.9019ZM45.4318 75.169V76.1531C45.4318 76.58 45.3862 76.9484 45.2951 77.2582C45.204 77.5654 45.0725 77.8179 44.9007 78.0158C44.7315 78.211 44.5297 78.3555 44.2954 78.4492C44.0611 78.543 43.8007 78.5898 43.5144 78.5898C43.2853 78.5898 43.0718 78.5612 42.8739 78.5039C42.6761 78.444 42.4978 78.3516 42.339 78.2267C42.1828 78.1017 42.0474 77.9442 41.9328 77.7541C41.8209 77.5615 41.735 77.3324 41.6751 77.0669C41.6152 76.8013 41.5853 76.4967 41.5853 76.1531V75.169C41.5853 74.742 41.6308 74.3763 41.722 74.0717C41.8157 73.7645 41.9472 73.5133 42.1164 73.318C42.2882 73.1228 42.4913 72.9796 42.7256 72.8884C42.9599 72.7947 43.2202 72.7479 43.5066 72.7479C43.7357 72.7479 43.9478 72.7778 44.1431 72.8377C44.3409 72.895 44.5193 72.9848 44.6781 73.1071C44.8369 73.2295 44.9723 73.387 45.0842 73.5796C45.1962 73.7697 45.2821 73.9975 45.3419 74.263C45.4018 74.526 45.4318 74.828 45.4318 75.169ZM44.3032 76.3015V75.0167C44.3032 74.811 44.2915 74.6314 44.2681 74.4778C44.2472 74.3242 44.2147 74.194 44.1704 74.0873C44.1262 73.978 44.0715 73.8894 44.0064 73.8218C43.9413 73.7541 43.8671 73.7046 43.7838 73.6734C43.7005 73.6421 43.6081 73.6265 43.5066 73.6265C43.379 73.6265 43.2658 73.6512 43.1668 73.7007C43.0705 73.7502 42.9885 73.8296 42.9208 73.9389C42.8531 74.0456 42.8011 74.1888 42.7646 74.3685C42.7308 74.5455 42.7138 74.7616 42.7138 75.0167V76.3015C42.7138 76.5071 42.7243 76.6881 42.7451 76.8443C42.7685 77.0005 42.8024 77.1345 42.8466 77.2465C42.8935 77.3558 42.9481 77.4456 43.0106 77.5159C43.0757 77.5836 43.1499 77.6331 43.2332 77.6643C43.3191 77.6956 43.4128 77.7112 43.5144 77.7112C43.6393 77.7112 43.75 77.6865 43.8463 77.637C43.9452 77.5849 44.0285 77.5042 44.0962 77.3949C44.1665 77.2829 44.2186 77.1371 44.2524 76.9575C44.2863 76.7779 44.3032 76.5592 44.3032 76.3015ZM50.0866 77.6331V78.5117H46.1971V77.7619L48.0364 75.7899C48.2213 75.5842 48.3671 75.4033 48.4738 75.2471C48.5805 75.0883 48.6573 74.9464 48.7042 74.8214C48.7537 74.6939 48.7784 74.5728 48.7784 74.4583C48.7784 74.2865 48.7497 74.1394 48.6925 74.017C48.6352 73.892 48.5506 73.7957 48.4386 73.728C48.3293 73.6603 48.1939 73.6265 48.0325 73.6265C47.8607 73.6265 47.7123 73.6682 47.5873 73.7515C47.465 73.8348 47.3713 73.9506 47.3062 74.099C47.2437 74.2474 47.2125 74.4153 47.2125 74.6028H46.0839C46.0839 74.2643 46.1646 73.9545 46.326 73.6734C46.4874 73.3896 46.7152 73.1644 47.0094 72.9978C47.3036 72.8286 47.6524 72.744 48.0559 72.744C48.4543 72.744 48.7901 72.809 49.0635 72.9392C49.3394 73.0668 49.5477 73.2516 49.6883 73.4937C49.8314 73.7332 49.903 74.0196 49.903 74.3528C49.903 74.5403 49.8731 74.7238 49.8132 74.9035C49.7533 75.0805 49.6674 75.2575 49.5555 75.4345C49.4461 75.609 49.3134 75.786 49.1572 75.9656C49.001 76.1453 48.8278 76.3314 48.6378 76.524L47.6498 77.6331H50.0866ZM54.7726 76.3874V77.2699H50.6762L50.6216 76.5865L52.9919 72.826H53.8862L52.9177 74.4466L51.7384 76.3874H54.7726ZM54.1283 72.826V78.5117H53.0036V72.826H54.1283Z" fill="white"/>
</g>
<defs>
<clipPath id="clip0_1736_1216">
<rect width="90.9935" height="100" fill="white" transform="translate(0.0371094 0.800781)"/>
</clipPath>
</defs>
</svg>
