<svg width="116" height="101" viewBox="0 0 116 101" fill="none" xmlns="http://www.w3.org/2000/svg">
<g clip-path="url(#clip0_1736_1371)">
<path d="M87.2118 0.914062H29.1403L0.212891 50.9682L29.1403 100.914H87.2118L115.923 50.9682L87.2118 0.914062Z" fill="url(#paint0_linear_1736_1371)"/>
<path opacity="0.35" d="M29.1403 0.914062L0.212891 50.9682L33.4448 37.7476L29.1403 0.914062Z" fill="url(#paint1_linear_1736_1371)"/>
<path opacity="0.35" d="M0.212891 50.9688L29.1403 100.915L34.2701 65.9373L0.212891 50.9688Z" fill="url(#paint2_linear_1736_1371)"/>
<path opacity="0.35" d="M87.2102 0.914062L115.921 50.9682L82.9102 37.7476L87.2102 0.914062Z" fill="url(#paint3_linear_1736_1371)"/>
<path opacity="0.35" d="M115.922 50.9688L87.2115 100.915L81.7402 66.0825L115.922 50.9688Z" fill="url(#paint4_linear_1736_1371)"/>
<path d="M29.1387 0.914062L33.4432 37.7476L51.787 13.9531V0.914062H29.1387Z" fill="url(#paint5_linear_1736_1371)"/>
<path d="M87.2116 0.914062L82.9206 37.7476L64.5723 13.9531V0.914062H87.2116Z" fill="url(#paint6_linear_1736_1371)"/>
<path d="M29.1387 100.914L34.196 65.8555L52.4323 87.4797V100.914H29.1387Z" fill="url(#paint7_linear_1736_1371)"/>
<path d="M87.2117 100.915L81.7008 65.707L65.9766 87.8059V100.915H87.2117Z" fill="url(#paint8_linear_1736_1371)"/>
<path d="M51.7872 13.9531H64.5711L82.4569 37.7477L81.695 65.7058L65.9906 87.9419L52.4583 87.4617L34.1962 65.8553L33.4434 37.7477L51.7872 13.9531Z" fill="url(#paint9_linear_1736_1371)"/>
<path d="M79.5185 14.0234H36.8316L15.2715 50.9682L36.8316 87.8046H79.5185L100.862 50.9682L79.5185 14.0234Z" fill="url(#paint10_linear_1736_1371)"/>
<path d="M56.0934 22.9182L54.9687 25.8992H55.7851L57.6126 21.0742L54.5742 22.9182H56.0934Z" fill="white"/>
<path d="M52.3066 23.5913L53.7714 25.0638L54.5741 22.9208L55.4811 20.4062L52.3066 23.5913ZM58.2474 22.9931L57.7486 24.4112L59.2541 25.9018L58.2474 22.9931Z" fill="white"/>
<path d="M59.2543 25.9004L57.7488 24.4098L57.2226 25.9004H59.2543ZM54.5742 22.9194L57.6126 21.0754L55.4812 20.4049L54.5742 22.9194ZM55.4814 20.4049L57.6128 21.0754L58.2477 17.6367L55.4814 20.4049Z" fill="white"/>
<path d="M57.6113 21.0754H58.9083L58.2462 17.6367L57.6113 21.0754ZM58.2462 17.6367L58.9084 21.0754L62.033 21.4333L58.2462 17.6367Z" fill="white"/>
<path d="M58.9102 21.0742L59.4907 22.6463L62.0347 21.4321L58.9102 21.0742ZM62.7333 25.0611L64.1845 23.5887L62.2572 23.7744L62.7333 25.0611ZM62.257 23.7744L64.1844 23.5887L62.0347 21.4322L62.257 23.7744Z" fill="white"/>
<path d="M62.0342 21.4336L60.7555 23.7758H62.2564L62.0342 21.4336ZM59.4902 22.6478L60.7056 25.9007H61.5219L60.7555 23.7758L59.4902 22.6478Z" fill="white"/>
<path d="M62.0337 21.4336L59.4896 22.6478L60.7549 23.7758L62.0337 21.4336ZM58.2469 25.8644C56.5555 25.8644 53.7575 25.6424 53.7575 25.0625V25.8826C53.7575 26.2767 55.6032 26.6844 58.2469 26.6844C60.8908 26.6844 62.7365 26.2722 62.7365 25.8826V25.0625C62.7365 25.6424 59.9385 25.8644 58.2469 25.8644ZM51.05 32.1076L50.6917 30.8753H48.9186L48.5603 32.1076H47.4492L49.1226 26.9246H50.4558L52.1474 32.1076H51.05ZM50.4514 29.951L50.1248 28.823C50.1066 28.7867 50.0885 28.7051 50.0568 28.6191C50.0205 28.5148 50.007 28.4152 49.9707 28.2929C49.9344 28.1751 49.9026 28.0528 49.8844 27.9349C49.8482 27.8171 49.8346 27.7129 49.8165 27.6269C49.7983 27.6767 49.7983 27.7446 49.7802 27.8171C49.7619 27.8907 49.7452 27.9648 49.7303 28.0391C49.7139 28.1208 49.6912 28.2012 49.6622 28.2793C49.6441 28.3653 49.626 28.4333 49.5943 28.5013C49.5761 28.5692 49.558 28.6372 49.5443 28.6916C49.5263 28.7414 49.508 28.7776 49.508 28.8093L49.1816 29.9375L50.4468 29.9556L50.4514 29.951ZM54.3604 32.1756C54.0702 32.1756 53.8163 32.1393 53.5941 32.0578C53.3719 31.9763 53.1677 31.8539 53.0136 31.6999C52.8594 31.5277 52.7233 31.3238 52.6372 31.0656C52.551 30.8074 52.5011 30.4992 52.5011 30.1414C52.5011 29.7472 52.551 29.421 52.6372 29.1492C52.7233 28.8909 52.8412 28.6689 53.0136 28.5149C53.1677 28.3608 53.3719 28.243 53.5941 28.1705C53.8163 28.0981 54.0702 28.0663 54.3468 28.0663C54.5508 28.0663 54.755 28.0845 54.9454 28.1344C55.1495 28.1842 55.34 28.2521 55.5077 28.3381L55.1994 29.1582C55.0452 29.0903 54.891 29.0404 54.755 28.986C54.6189 28.9362 54.4829 28.9181 54.3468 28.9181C54.0929 28.9181 53.9024 29.0223 53.7845 29.208C53.6666 29.4119 53.6122 29.7064 53.6122 30.096C53.6122 30.4857 53.662 30.7802 53.7845 30.9704C53.907 31.1607 54.0929 31.2604 54.3286 31.2604C54.5328 31.2604 54.7232 31.2242 54.891 31.1743C55.0675 31.1214 55.2389 31.0531 55.4035 30.9704V31.8766C55.3173 31.9128 55.2311 31.9626 55.1495 31.9944C55.0679 32.0261 54.9772 32.0442 54.8956 32.0804C54.8094 32.0986 54.7232 32.1167 54.6416 32.1302C54.5736 32.1665 54.4693 32.1665 54.3695 32.1665L54.3604 32.1756ZM57.3987 32.1076H56.324V28.1569H57.3987V32.1076ZM60.2695 32.1755C59.9792 32.1755 59.7253 32.1392 59.485 32.0578C59.2446 31.9716 59.0405 31.8539 58.8682 31.6817C58.6959 31.5095 58.5598 31.3056 58.4737 31.0474C58.3694 30.7892 58.3376 30.4992 58.3376 30.1594C58.3376 29.8196 58.3875 29.5115 58.4737 29.2533C58.5598 28.995 58.6777 28.773 58.8319 28.6054C58.9862 28.4333 59.1721 28.2973 59.3943 28.2113C59.6285 28.1202 59.8777 28.0741 60.129 28.0753C60.3829 28.0753 60.6232 28.1116 60.8273 28.1932C61.0313 28.2792 61.2218 28.3834 61.3579 28.5375C61.5121 28.6914 61.6118 28.8818 61.698 29.1038C61.7842 29.3258 61.816 29.584 61.816 29.874V30.404H59.4078C59.4078 30.5581 59.4441 30.694 59.4759 30.8164C59.5258 30.9341 59.5802 31.0384 59.6618 31.1244C59.7435 31.2105 59.8342 31.2784 59.952 31.3147C60.07 31.3646 60.1924 31.3827 60.3284 31.3827C60.4464 31.3827 60.5688 31.3827 60.6686 31.3646C60.771 31.3453 60.8738 31.3287 60.977 31.3147C61.0813 31.2784 61.1811 31.2649 61.2853 31.2105C61.3896 31.1742 61.4894 31.1244 61.5937 31.0745V31.9127C61.4894 31.9625 61.4077 31.9988 61.3035 32.0306C61.1992 32.0667 61.1176 32.0985 60.995 32.1166C60.8908 32.1348 60.7728 32.1529 60.655 32.1664C60.5371 32.1846 60.4147 32.1846 60.2604 32.1846L60.2695 32.1755ZM60.129 28.841C59.9429 28.841 59.7888 28.909 59.6528 29.0449C59.5348 29.1808 59.4487 29.3892 59.4306 29.6792H60.7956C60.7956 29.5613 60.7774 29.439 60.7456 29.353C60.7094 29.2488 60.6776 29.1626 60.6278 29.0947C60.5779 29.0268 60.5099 28.9588 60.4237 28.9225C60.3375 28.8727 60.2514 28.8365 60.1334 28.8365L60.129 28.841ZM64.3281 31.3237C64.4324 31.3237 64.5322 31.3056 64.6365 31.2875C64.7408 31.2695 64.8225 31.2377 64.9267 31.2014V32.0034C64.8225 32.0532 64.7045 32.1076 64.5503 32.1393C64.3961 32.171 64.242 32.1892 64.056 32.1892C63.8837 32.1892 63.7295 32.171 63.5799 32.1393C63.4257 32.103 63.3077 32.0351 63.1853 31.9354C63.081 31.8312 62.9994 31.6952 62.9313 31.5231C62.8633 31.3509 62.8452 31.1471 62.8452 30.8888V28.9543H62.3328V28.4922L62.9313 28.1342L63.2397 27.2961H63.9245V28.1342H64.8814V28.9362H63.9245V30.8345C63.9245 30.9885 63.9608 31.1063 64.0424 31.1788C64.1104 31.283 64.2148 31.3147 64.3326 31.3147L64.3281 31.3237ZM65.1672 28.157H66.3463L66.9766 30.3815C67.0129 30.4992 67.0447 30.6397 67.0628 30.7756C67.081 30.9115 67.0991 31.0338 67.0991 31.1517H67.1173C67.1173 31.1018 67.1354 31.0338 67.1354 30.9613C67.1354 30.8888 67.1536 30.8255 67.1716 30.7575C67.1897 30.6895 67.1897 30.6216 67.2079 30.5536C67.226 30.4857 67.2442 30.4359 67.2578 30.3634L67.8746 28.1388H69.0537L67.4982 32.606C67.344 33.0182 67.158 33.3399 66.8996 33.5302C66.6456 33.7341 66.3372 33.8383 65.9608 33.8383C65.8429 33.8383 65.7386 33.8383 65.6343 33.8202C65.5481 33.8021 65.462 33.784 65.4121 33.784V32.9276C65.462 32.9457 65.5164 32.9457 65.5981 32.9639C65.666 32.982 65.7523 32.982 65.8384 32.982C65.9563 32.982 66.0425 32.9639 66.1286 32.9322C66.2148 32.9004 66.2828 32.8643 66.3326 32.7962C66.3926 32.7352 66.4445 32.6667 66.4869 32.5924C66.5231 32.5063 66.5549 32.4203 66.5911 32.3341L66.6592 32.1302L65.1763 28.1614L65.1672 28.157Z" fill="white"/>
<path d="M53.7835 42.0358V47.8672H52.586V42.0358H53.7835ZM54.6526 45.7445V45.6604C54.6526 45.3426 54.698 45.0503 54.7888 44.7833C54.8796 44.5136 55.0117 44.28 55.1853 44.0824C55.3588 43.8848 55.5724 43.7313 55.8261 43.6218C56.0798 43.5096 56.3708 43.4536 56.6992 43.4536C57.0276 43.4536 57.32 43.5096 57.5763 43.6218C57.8327 43.7313 58.0476 43.8848 58.2211 44.0824C58.3974 44.28 58.5309 44.5136 58.6217 44.7833C58.7124 45.0503 58.7578 45.3426 58.7578 45.6604V45.7445C58.7578 46.0596 58.7124 46.3519 58.6217 46.6216C58.5309 46.8886 58.3974 47.1222 58.2211 47.3225C58.0476 47.5201 57.834 47.6736 57.5803 47.7831C57.3267 47.8926 57.0356 47.9473 56.7072 47.9473C56.3788 47.9473 56.0864 47.8926 55.8301 47.7831C55.5764 47.6736 55.3615 47.5201 55.1853 47.3225C55.0117 47.1222 54.8796 46.8886 54.7888 46.6216C54.698 46.3519 54.6526 46.0596 54.6526 45.7445ZM55.8061 45.6604V45.7445C55.8061 45.9261 55.8221 46.0956 55.8541 46.2531C55.8862 46.4107 55.9369 46.5495 56.0063 46.6697C56.0784 46.7871 56.1719 46.8793 56.2867 46.946C56.4015 47.0128 56.5417 47.0461 56.7072 47.0461C56.8674 47.0461 57.0049 47.0128 57.1197 46.946C57.2346 46.8793 57.3267 46.7871 57.3961 46.6697C57.4655 46.5495 57.5162 46.4107 57.5483 46.2531C57.583 46.0956 57.6004 45.9261 57.6004 45.7445V45.6604C57.6004 45.4842 57.583 45.3186 57.5483 45.1637C57.5162 45.0062 57.4642 44.8674 57.3921 44.7472C57.3227 44.6244 57.2306 44.5283 57.1157 44.4589C57.0009 44.3894 56.8621 44.3547 56.6992 44.3547C56.5363 44.3547 56.3975 44.3894 56.2827 44.4589C56.1705 44.5283 56.0784 44.6244 56.0063 44.7472C55.9369 44.8674 55.8862 45.0062 55.8541 45.1637C55.8221 45.3186 55.8061 45.4842 55.8061 45.6604ZM62.1461 42.0358V47.8672H60.9486V42.0358H62.1461ZM63.9404 42.0358V42.977H59.1824V42.0358H63.9404ZM45.6972 56.3412C45.6972 56.2371 45.6812 56.1437 45.6492 56.0609C45.6198 55.9754 45.5637 55.898 45.4809 55.8286C45.3982 55.7565 45.282 55.6857 45.1325 55.6163C44.983 55.5469 44.7894 55.4748 44.5518 55.4C44.2874 55.3146 44.0364 55.2185 43.7988 55.1117C43.5638 55.0049 43.3556 54.8807 43.174 54.7392C42.9951 54.595 42.8536 54.4281 42.7495 54.2386C42.648 54.049 42.5973 53.8287 42.5973 53.5777C42.5973 53.3348 42.6507 53.1145 42.7575 52.9169C42.8643 52.7166 43.0138 52.5458 43.206 52.4042C43.3983 52.2601 43.6252 52.1492 43.8869 52.0718C44.1512 51.9944 44.4409 51.9557 44.756 51.9557C45.1859 51.9557 45.561 52.0331 45.8814 52.188C46.2019 52.3428 46.4502 52.5551 46.6264 52.8248C46.8053 53.0944 46.8947 53.4028 46.8947 53.7499H45.7012C45.7012 53.5791 45.6652 53.4295 45.5931 53.3014C45.5237 53.1705 45.4169 53.0677 45.2727 52.993C45.1312 52.9182 44.9523 52.8808 44.736 52.8808C44.5277 52.8808 44.3542 52.9129 44.2153 52.977C44.0765 53.0384 43.9723 53.1225 43.9029 53.2293C43.8335 53.3334 43.7988 53.4509 43.7988 53.5817C43.7988 53.6805 43.8228 53.77 43.8709 53.8501C43.9216 53.9302 43.9964 54.0049 44.0952 54.0744C44.194 54.1438 44.3155 54.2092 44.4596 54.2706C44.6038 54.332 44.7707 54.3921 44.9603 54.4508C45.278 54.547 45.557 54.6551 45.7973 54.7753C46.0403 54.8954 46.2432 55.0302 46.4061 55.1798C46.569 55.3293 46.6918 55.4988 46.7746 55.6884C46.8574 55.878 46.8987 56.0929 46.8987 56.3332C46.8987 56.5869 46.8493 56.8138 46.7506 57.0141C46.6518 57.2144 46.5089 57.3839 46.322 57.5227C46.1351 57.6616 45.9122 57.7671 45.6532 57.8392C45.3942 57.9112 45.1045 57.9473 44.784 57.9473C44.4957 57.9473 44.2113 57.9099 43.931 57.8351C43.6506 57.7577 43.3956 57.6416 43.166 57.4867C42.939 57.3318 42.7575 57.1343 42.6213 56.8939C42.4851 56.6536 42.417 56.3693 42.417 56.0409H43.6226C43.6226 56.2224 43.6506 56.376 43.7067 56.5014C43.7627 56.6269 43.8415 56.7284 43.943 56.8058C44.0471 56.8833 44.1699 56.9393 44.3114 56.9741C44.4556 57.0088 44.6132 57.0261 44.784 57.0261C44.9923 57.0261 45.1632 56.9967 45.2967 56.938C45.4329 56.8793 45.533 56.7978 45.5971 56.6937C45.6638 56.5896 45.6972 56.4721 45.6972 56.3412ZM49.6382 57.9473C49.3018 57.9473 49.0001 57.8939 48.7331 57.7871C48.4661 57.6776 48.2391 57.5268 48.0522 57.3345C47.868 57.1423 47.7265 56.9193 47.6277 56.6657C47.5289 56.4093 47.4795 56.137 47.4795 55.8486V55.6884C47.4795 55.36 47.5262 55.0596 47.6197 54.7873C47.7131 54.5149 47.8466 54.2786 48.0202 54.0784C48.1964 53.8781 48.41 53.7246 48.661 53.6178C48.912 53.5083 49.195 53.4536 49.5101 53.4536C49.8171 53.4536 50.0895 53.5043 50.3271 53.6058C50.5647 53.7072 50.7637 53.8514 50.9239 54.0383C51.0867 54.2252 51.2096 54.4495 51.2923 54.7112C51.3751 54.9702 51.4165 55.2585 51.4165 55.5763V56.0569H47.9721V55.2879H50.283V55.1998C50.283 55.0396 50.2537 54.8967 50.1949 54.7712C50.1389 54.6431 50.0534 54.5416 49.9386 54.4669C49.8238 54.3921 49.6769 54.3547 49.498 54.3547C49.3459 54.3547 49.215 54.3881 49.1055 54.4548C48.9961 54.5216 48.9066 54.615 48.8372 54.7352C48.7705 54.8554 48.7197 54.9969 48.685 55.1597C48.653 55.3199 48.637 55.4962 48.637 55.6884V55.8486C48.637 56.0222 48.661 56.1824 48.709 56.3292C48.7598 56.4761 48.8305 56.6029 48.9213 56.7097C49.0148 56.8165 49.1269 56.8993 49.2577 56.958C49.3912 57.0168 49.5421 57.0461 49.7103 57.0461C49.9186 57.0461 50.1122 57.0061 50.2911 56.926C50.4726 56.8432 50.6288 56.7191 50.7597 56.5535L51.3204 57.1623C51.2296 57.2931 51.1054 57.4186 50.9479 57.5388C50.793 57.6589 50.6061 57.7577 50.3872 57.8351C50.1682 57.9099 49.9186 57.9473 49.6382 57.9473ZM53.2268 54.4789V57.8672H52.0733V53.5337H53.1587L53.2268 54.4789ZM54.5325 53.5056L54.5124 54.575C54.4564 54.567 54.3883 54.5603 54.3082 54.555C54.2307 54.547 54.16 54.543 54.0959 54.543C53.933 54.543 53.7915 54.5643 53.6714 54.607C53.5539 54.6471 53.4551 54.7072 53.375 54.7873C53.2975 54.8674 53.2388 54.9648 53.1988 55.0796C53.1614 55.1945 53.14 55.3253 53.1347 55.4721L52.9024 55.4C52.9024 55.1197 52.9304 54.862 52.9865 54.6271C53.0426 54.3894 53.124 54.1825 53.2308 54.0063C53.3403 53.8301 53.4738 53.6939 53.6313 53.5978C53.7888 53.5016 53.9691 53.4536 54.172 53.4536C54.2361 53.4536 54.3015 53.4589 54.3682 53.4696C54.435 53.4776 54.4897 53.4896 54.5325 53.5056ZM56.6231 57.0261L57.5843 53.5337H58.7899L57.328 57.8672H56.5991L56.6231 57.0261ZM55.9623 53.5337L56.9275 57.0301L56.9475 57.8672H56.2146L54.7527 53.5337H55.9623ZM60.5241 53.5337V57.8672H59.3666V53.5337H60.5241ZM59.2945 52.4042C59.2945 52.236 59.3533 52.0972 59.4707 51.9877C59.5882 51.8782 59.7458 51.8235 59.9433 51.8235C60.1383 51.8235 60.2945 51.8782 60.4119 51.9877C60.5321 52.0972 60.5922 52.236 60.5922 52.4042C60.5922 52.5725 60.5321 52.7113 60.4119 52.8208C60.2945 52.9302 60.1383 52.985 59.9433 52.985C59.7458 52.985 59.5882 52.9302 59.4707 52.8208C59.3533 52.7113 59.2945 52.5725 59.2945 52.4042ZM63.2676 57.0461C63.4091 57.0461 63.5346 57.0194 63.644 56.966C63.7535 56.91 63.839 56.8325 63.9004 56.7337C63.9645 56.6323 63.9978 56.5135 64.0005 56.3773H65.0859C65.0832 56.6817 65.0018 56.9527 64.8416 57.1903C64.6814 57.4253 64.4664 57.6109 64.1967 57.747C63.9271 57.8805 63.6254 57.9473 63.2916 57.9473C62.9552 57.9473 62.6615 57.8912 62.4105 57.7791C62.1622 57.6669 61.9552 57.5121 61.7897 57.3145C61.6241 57.1142 61.5 56.8819 61.4172 56.6176C61.3344 56.3506 61.2931 56.0649 61.2931 55.7605V55.6444C61.2931 55.3373 61.3344 55.0516 61.4172 54.7873C61.5 54.5203 61.6241 54.288 61.7897 54.0904C61.9552 53.8901 62.1622 53.7339 62.4105 53.6218C62.6588 53.5096 62.9498 53.4536 63.2836 53.4536C63.6387 53.4536 63.9498 53.5217 64.2168 53.6578C64.4865 53.794 64.6974 53.9889 64.8496 54.2426C65.0044 54.4936 65.0832 54.7913 65.0859 55.1357H64.0005C63.9978 54.9915 63.9671 54.8607 63.9084 54.7432C63.8523 54.6257 63.7695 54.5323 63.6601 54.4629C63.5533 54.3908 63.4211 54.3547 63.2636 54.3547C63.0953 54.3547 62.9578 54.3908 62.851 54.4629C62.7442 54.5323 62.6615 54.6284 62.6027 54.7512C62.544 54.8714 62.5026 55.0089 62.4786 55.1637C62.4572 55.3159 62.4465 55.4761 62.4465 55.6444V55.7605C62.4465 55.9287 62.4572 56.0903 62.4786 56.2451C62.4999 56.4 62.54 56.5375 62.5987 56.6576C62.6601 56.7778 62.7442 56.8726 62.851 56.942C62.9578 57.0114 63.0967 57.0461 63.2676 57.0461ZM67.7493 57.9473C67.4128 57.9473 67.1111 57.8939 66.8441 57.7871C66.5771 57.6776 66.3502 57.5268 66.1633 57.3345C65.979 57.1423 65.8375 56.9193 65.7387 56.6657C65.6399 56.4093 65.5905 56.137 65.5905 55.8486V55.6884C65.5905 55.36 65.6372 55.0596 65.7307 54.7873C65.8242 54.5149 65.9577 54.2786 66.1312 54.0784C66.3074 53.8781 66.521 53.7246 66.772 53.6178C67.023 53.5083 67.306 53.4536 67.6211 53.4536C67.9282 53.4536 68.2005 53.5043 68.4381 53.6058C68.6758 53.7072 68.8747 53.8514 69.0349 54.0383C69.1978 54.2252 69.3206 54.4495 69.4034 54.7112C69.4861 54.9702 69.5275 55.2585 69.5275 55.5763V56.0569H66.0831V55.2879H68.3941V55.1998C68.3941 55.0396 68.3647 54.8967 68.306 54.7712C68.2499 54.6431 68.1645 54.5416 68.0497 54.4669C67.9348 54.3921 67.788 54.3547 67.6091 54.3547C67.4569 54.3547 67.3261 54.3881 67.2166 54.4548C67.1071 54.5216 67.0177 54.615 66.9482 54.7352C66.8815 54.8554 66.8308 54.9969 66.7961 55.1597C66.764 55.3199 66.748 55.4962 66.748 55.6884V55.8486C66.748 56.0222 66.772 56.1824 66.8201 56.3292C66.8708 56.4761 66.9416 56.6029 67.0324 56.7097C67.1258 56.8165 67.238 56.8993 67.3688 56.958C67.5023 57.0168 67.6531 57.0461 67.8214 57.0461C68.0296 57.0461 68.2232 57.0061 68.4021 56.926C68.5837 56.8432 68.7399 56.7191 68.8707 56.5535L69.4314 57.1623C69.3406 57.2931 69.2165 57.4186 69.0589 57.5388C68.9041 57.6589 68.7172 57.7577 68.4982 57.8351C68.2793 57.9099 68.0296 57.9473 67.7493 57.9473ZM72.5273 56.6697C72.5273 56.5869 72.5033 56.5121 72.4553 56.4454C72.4072 56.3786 72.3177 56.3172 72.1869 56.2611C72.0588 56.2024 71.8732 56.149 71.6302 56.1009C71.4113 56.0529 71.207 55.9928 71.0174 55.9207C70.8305 55.8459 70.6676 55.7565 70.5288 55.6524C70.3926 55.5482 70.2858 55.4254 70.2084 55.2839C70.131 55.1397 70.0922 54.9755 70.0922 54.7913C70.0922 54.6097 70.131 54.4388 70.2084 54.2786C70.2885 54.1184 70.402 53.9769 70.5488 53.8541C70.6984 53.7286 70.8799 53.6311 71.0935 53.5617C71.3098 53.4896 71.5528 53.4536 71.8225 53.4536C72.1989 53.4536 72.522 53.5136 72.7917 53.6338C73.064 53.754 73.2723 53.9195 73.4165 54.1304C73.5633 54.3387 73.6368 54.5763 73.6368 54.8433H72.4833C72.4833 54.7312 72.4593 54.6311 72.4112 54.543C72.3658 54.4522 72.2937 54.3814 72.1949 54.3307C72.0988 54.2773 71.9733 54.2506 71.8184 54.2506C71.6903 54.2506 71.5795 54.2733 71.486 54.3187C71.3926 54.3614 71.3205 54.4201 71.2697 54.4949C71.2217 54.567 71.1977 54.6471 71.1977 54.7352C71.1977 54.802 71.211 54.862 71.2377 54.9154C71.2671 54.9662 71.3138 55.0129 71.3779 55.0556C71.442 55.0983 71.5247 55.1384 71.6262 55.1758C71.7303 55.2105 71.8585 55.2425 72.0107 55.2719C72.3231 55.336 72.6021 55.4201 72.8478 55.5242C73.0934 55.6257 73.2883 55.7645 73.4325 55.9407C73.5767 56.1143 73.6488 56.3426 73.6488 56.6256C73.6488 56.8179 73.6061 56.9941 73.5206 57.1543C73.4352 57.3145 73.3123 57.4547 73.1521 57.5748C72.9919 57.6923 72.7997 57.7844 72.5754 57.8512C72.3538 57.9152 72.1041 57.9473 71.8265 57.9473C71.4233 57.9473 71.0815 57.8752 70.8012 57.731C70.5235 57.5868 70.3125 57.4039 70.1683 57.1823C70.0268 56.958 69.9561 56.7284 69.9561 56.4934H71.0495C71.0548 56.651 71.0949 56.7778 71.1696 56.8739C71.2471 56.97 71.3445 57.0395 71.462 57.0822C71.5821 57.1249 71.7116 57.1463 71.8505 57.1463C72 57.1463 72.1242 57.1262 72.223 57.0862C72.3218 57.0435 72.3965 56.9874 72.4472 56.918C72.5006 56.8459 72.5273 56.7631 72.5273 56.6697Z" fill="#112244"/>
<path d="M47.0382 68.7814V73.7109H46.0259V68.7814H47.0382ZM48.555 68.7814V69.577H44.5328V68.7814H48.555ZM53.0885 71.131V71.3646C53.0885 71.7393 53.0377 72.0756 52.9361 72.3736C52.8346 72.6715 52.6912 72.9255 52.5061 73.1354C52.3211 73.343 52.0999 73.5022 51.8425 73.6128C51.5875 73.7234 51.3042 73.7787 50.9927 73.7787C50.6835 73.7787 50.4002 73.7234 50.1429 73.6128C49.8879 73.5022 49.6667 73.343 49.4793 73.1354C49.292 72.9255 49.1464 72.6715 49.0426 72.3736C48.941 72.0756 48.8902 71.7393 48.8902 71.3646V71.131C48.8902 70.7541 48.941 70.4178 49.0426 70.1221C49.1441 69.8242 49.2875 69.5702 49.4726 69.3603C49.6599 69.1504 49.8811 68.9901 50.1362 68.8795C50.3935 68.7689 50.6767 68.7136 50.986 68.7136C51.2974 68.7136 51.5807 68.7689 51.8358 68.8795C52.0931 68.9901 52.3143 69.1504 52.4994 69.3603C52.6867 69.5702 52.8312 69.8242 52.9327 70.1221C53.0366 70.4178 53.0885 70.7541 53.0885 71.131ZM52.0626 71.3646V71.1243C52.0626 70.8624 52.0389 70.6322 51.9915 70.4336C51.9441 70.235 51.8741 70.0679 51.7816 69.9325C51.6891 69.7971 51.5762 69.6955 51.443 69.6278C51.3099 69.5578 51.1575 69.5228 50.986 69.5228C50.8144 69.5228 50.6621 69.5578 50.5289 69.6278C50.398 69.6955 50.2862 69.7971 50.1937 69.9325C50.1034 70.0679 50.0346 70.235 49.9872 70.4336C49.9398 70.6322 49.9161 70.8624 49.9161 71.1243V71.3646C49.9161 71.6242 49.9398 71.8544 49.9872 72.0553C50.0346 72.254 50.1046 72.4221 50.1971 72.5598C50.2896 72.6952 50.4025 72.7979 50.5357 72.8679C50.6688 72.9379 50.8212 72.9729 50.9927 72.9729C51.1643 72.9729 51.3166 72.9379 51.4498 72.8679C51.583 72.7979 51.6947 72.6952 51.785 72.5598C51.8753 72.4221 51.9441 72.254 51.9915 72.0553C52.0389 71.8544 52.0626 71.6242 52.0626 71.3646ZM55.7395 71.9538H54.4834V71.1615H55.7395C55.9336 71.1615 56.0916 71.1299 56.2135 71.0667C56.3354 71.0013 56.4245 70.911 56.4809 70.7959C56.5374 70.6807 56.5656 70.551 56.5656 70.4065C56.5656 70.2598 56.5374 70.1232 56.4809 69.9968C56.4245 69.8704 56.3354 69.7689 56.2135 69.6921C56.0916 69.6154 55.9336 69.577 55.7395 69.577H54.8355V73.7109H53.8198V68.7814H55.7395C56.1255 68.7814 56.4561 68.8513 56.7315 68.9913C57.0091 69.129 57.2213 69.3197 57.368 69.5635C57.5147 69.8072 57.5881 70.086 57.5881 70.3997C57.5881 70.718 57.5147 70.9934 57.368 71.2258C57.2213 71.4583 57.0091 71.6378 56.7315 71.7642C56.4561 71.8906 56.1255 71.9538 55.7395 71.9538ZM62.2908 68.7712V73.7109H61.3157V69.8953L60.1443 70.2677V69.4991L62.1859 68.7712H62.2908ZM67.2136 70.8128V71.666C67.2136 72.0361 67.1741 72.3555 67.0951 72.6241C67.0161 72.8905 66.9021 73.1094 66.7532 73.281C66.6064 73.4502 66.4315 73.5755 66.2284 73.6568C66.0252 73.738 65.7995 73.7787 65.5512 73.7787C65.3526 73.7787 65.1675 73.7538 64.996 73.7042C64.8244 73.6523 64.6698 73.5721 64.5321 73.4638C64.3967 73.3554 64.2793 73.2189 64.18 73.0541C64.083 72.8871 64.0085 72.6885 63.9566 72.4582C63.9047 72.228 63.8787 71.9639 63.8787 71.666V70.8128C63.8787 70.4426 63.9182 70.1255 63.9972 69.8614C64.0785 69.5951 64.1924 69.3772 64.3392 69.208C64.4881 69.0387 64.6642 68.9145 64.8673 68.8355C65.0705 68.7543 65.2962 68.7136 65.5445 68.7136C65.7431 68.7136 65.927 68.7396 66.0963 68.7915C66.2679 68.8412 66.4225 68.919 66.5602 69.0251C66.6979 69.1312 66.8152 69.2678 66.9123 69.4348C67.0093 69.5996 67.0838 69.7971 67.1357 70.0273C67.1877 70.2553 67.2136 70.5171 67.2136 70.8128ZM66.2351 71.7946V70.6807C66.2351 70.5024 66.225 70.3467 66.2047 70.2135C66.1866 70.0803 66.1584 69.9675 66.12 69.8749C66.0817 69.7801 66.0343 69.7034 65.9778 69.6447C65.9214 69.586 65.8571 69.5431 65.7848 69.5161C65.7126 69.489 65.6325 69.4754 65.5445 69.4754C65.4339 69.4754 65.3357 69.4969 65.2499 69.5398C65.1664 69.5826 65.0953 69.6515 65.0366 69.7463C64.9779 69.8388 64.9328 69.963 64.9012 70.1187C64.8718 70.2722 64.8572 70.4595 64.8572 70.6807V71.7946C64.8572 71.9729 64.8662 72.1298 64.8843 72.2652C64.9046 72.4007 64.9339 72.5169 64.9723 72.614C65.0129 72.7088 65.0603 72.7866 65.1145 72.8476C65.1709 72.9063 65.2352 72.9492 65.3075 72.9762C65.382 73.0033 65.4632 73.0169 65.5512 73.0169C65.6596 73.0169 65.7555 72.9954 65.839 72.9525C65.9248 72.9074 65.997 72.8374 66.0557 72.7426C66.1166 72.6456 66.1618 72.5192 66.1911 72.3634C66.2205 72.2077 66.2351 72.0181 66.2351 71.7946ZM67.8637 69.9901V69.7294C67.8637 69.542 67.9043 69.3716 67.9856 69.2181C68.0668 69.0646 68.1864 68.9416 68.3444 68.8491C68.5024 68.7565 68.6965 68.7103 68.9268 68.7103C69.1638 68.7103 69.3613 68.7565 69.5193 68.8491C69.6795 68.9416 69.7992 69.0646 69.8782 69.2181C69.9594 69.3716 70 69.542 70 69.7294V69.9901C70 70.1729 69.9594 70.341 69.8782 70.4945C69.7992 70.648 69.6807 70.771 69.5227 70.8636C69.3647 70.9561 69.1683 71.0024 68.9335 71.0024C68.7011 71.0024 68.5047 70.9561 68.3444 70.8636C68.1864 70.771 68.0668 70.648 67.9856 70.4945C67.9043 70.341 67.8637 70.1729 67.8637 69.9901ZM68.5103 69.7294V69.9901C68.5103 70.0691 68.525 70.1447 68.5543 70.2169C68.5859 70.2869 68.6333 70.3444 68.6965 70.3896C68.762 70.4325 68.841 70.4539 68.9335 70.4539C69.0306 70.4539 69.1096 70.4325 69.1705 70.3896C69.2315 70.3444 69.2766 70.2869 69.306 70.2169C69.3353 70.1447 69.35 70.0691 69.35 69.9901V69.7294C69.35 69.6458 69.3342 69.5691 69.3026 69.4991C69.2732 69.4269 69.227 69.3693 69.1638 69.3265C69.1028 69.2813 69.0238 69.2587 68.9268 69.2587C68.8365 69.2587 68.7597 69.2813 68.6965 69.3265C68.6333 69.3693 68.5859 69.4269 68.5543 69.4991C68.525 69.5691 68.5103 69.6458 68.5103 69.7294ZM70.2201 72.7629V72.5022C70.2201 72.3172 70.2607 72.1479 70.342 71.9944C70.4255 71.8409 70.5463 71.7179 70.7043 71.6253C70.8645 71.5328 71.0609 71.4865 71.2934 71.4865C71.5281 71.4865 71.7245 71.5328 71.8825 71.6253C72.0405 71.7179 72.1601 71.8409 72.2414 71.9944C72.3226 72.1479 72.3633 72.3172 72.3633 72.5022V72.7629C72.3633 72.948 72.3226 73.1173 72.2414 73.2708C72.1624 73.4243 72.0439 73.5473 71.8859 73.6398C71.7279 73.7324 71.5326 73.7787 71.3002 73.7787C71.0654 73.7787 70.8679 73.7324 70.7077 73.6398C70.5474 73.5473 70.4255 73.4243 70.342 73.2708C70.2607 73.1173 70.2201 72.948 70.2201 72.7629ZM70.8702 72.5022V72.7629C70.8702 72.8442 70.8882 72.9209 70.9243 72.9932C70.9605 73.0654 71.0101 73.123 71.0733 73.1658C71.1388 73.2087 71.2144 73.2302 71.3002 73.2302C71.4085 73.2302 71.4931 73.2087 71.5541 73.1658C71.615 73.123 71.6568 73.0654 71.6793 72.9932C71.7042 72.9209 71.7166 72.8442 71.7166 72.7629V72.5022C71.7166 72.421 71.7008 72.3454 71.6692 72.2754C71.6376 72.2032 71.5902 72.1456 71.527 72.1027C71.466 72.0576 71.3882 72.035 71.2934 72.035C71.1986 72.035 71.1196 72.0576 71.0564 72.1027C70.9954 72.1456 70.9492 72.2032 70.9176 72.2754C70.886 72.3454 70.8702 72.421 70.8702 72.5022ZM71.5338 69.4856L69.1265 73.3385L68.6525 73.088L71.0598 69.235L71.5338 69.4856Z" fill="#112244"/>
<path d="M55.9474 95.7607V96.332H53.4183V95.8445L54.6143 94.5622C54.7345 94.4284 54.8293 94.3108 54.8987 94.2092C54.9681 94.1059 55.018 94.0137 55.0485 93.9324C55.0807 93.8495 55.0967 93.7708 55.0967 93.6963C55.0967 93.5845 55.0781 93.4889 55.0409 93.4093C55.0036 93.3281 54.9486 93.2654 54.8758 93.2214C54.8047 93.1774 54.7167 93.1554 54.6117 93.1554C54.5 93.1554 54.4035 93.1825 54.3223 93.2367C54.2427 93.2908 54.1817 93.3662 54.1394 93.4627C54.0988 93.5591 54.0785 93.6683 54.0785 93.7902H53.3446C53.3446 93.5701 53.3971 93.3687 53.5021 93.1859C53.607 93.0014 53.7552 92.8549 53.9464 92.7466C54.1377 92.6365 54.3646 92.5815 54.627 92.5815C54.886 92.5815 55.1044 92.6238 55.2821 92.7085C55.4615 92.7914 55.597 92.9116 55.6884 93.0691C55.7815 93.2248 55.828 93.411 55.828 93.6277C55.828 93.7496 55.8086 93.8689 55.7696 93.9857C55.7307 94.1009 55.6748 94.216 55.602 94.3311C55.5309 94.4445 55.4446 94.5596 55.343 94.6764C55.2415 94.7932 55.1289 94.9143 55.0053 95.0395L54.3629 95.7607H55.9474ZM58.8929 94.1584V94.7983C58.8929 95.0759 58.8633 95.3155 58.8041 95.5169C58.7448 95.7167 58.6593 95.8809 58.5476 96.0095C58.4376 96.1365 58.3064 96.2305 58.154 96.2914C58.0017 96.3523 57.8324 96.3828 57.6462 96.3828C57.4972 96.3828 57.3584 96.3642 57.2297 96.327C57.1011 96.288 56.9851 96.2279 56.8818 96.1467C56.7803 96.0654 56.6922 95.963 56.6178 95.8394C56.545 95.7141 56.4891 95.5652 56.4502 95.3925C56.4112 95.2198 56.3918 95.0218 56.3918 94.7983V94.1584C56.3918 93.8808 56.4214 93.6429 56.4806 93.4449C56.5416 93.2451 56.6271 93.0818 56.7371 92.9548C56.8488 92.8278 56.9809 92.7347 57.1332 92.6755C57.2856 92.6145 57.4549 92.5841 57.6411 92.5841C57.7901 92.5841 57.928 92.6035 58.055 92.6425C58.1836 92.6797 58.2996 92.7381 58.4029 92.8177C58.5061 92.8972 58.5942 92.9997 58.667 93.1249C58.7397 93.2485 58.7956 93.3966 58.8345 93.5693C58.8735 93.7403 58.8929 93.9366 58.8929 94.1584ZM58.1591 94.8948V94.0594C58.1591 93.9256 58.1515 93.8088 58.1362 93.709C58.1227 93.6091 58.1015 93.5244 58.0728 93.455C58.044 93.3839 58.0084 93.3264 57.9661 93.2824C57.9238 93.2383 57.8755 93.2062 57.8214 93.1859C57.7672 93.1656 57.7071 93.1554 57.6411 93.1554C57.5581 93.1554 57.4845 93.1715 57.4202 93.2036C57.3575 93.2358 57.3042 93.2874 57.2602 93.3585C57.2162 93.4279 57.1823 93.5211 57.1586 93.6379C57.1366 93.753 57.1256 93.8935 57.1256 94.0594V94.8948C57.1256 95.0285 57.1324 95.1462 57.1459 95.2478C57.1612 95.3493 57.1832 95.4365 57.2119 95.5093C57.2424 95.5804 57.278 95.6388 57.3186 95.6845C57.3609 95.7285 57.4092 95.7607 57.4633 95.781C57.5192 95.8013 57.5801 95.8115 57.6462 95.8115C57.7274 95.8115 57.7994 95.7954 57.862 95.7632C57.9263 95.7294 57.9805 95.6769 58.0245 95.6058C58.0702 95.533 58.1041 95.4382 58.1261 95.3214C58.1481 95.2046 58.1591 95.0624 58.1591 94.8948ZM61.9198 95.7607V96.332H59.3906V95.8445L60.5866 94.5622C60.7068 94.4284 60.8016 94.3108 60.871 94.2092C60.9404 94.1059 60.9904 94.0137 61.0209 93.9324C61.053 93.8495 61.0691 93.7708 61.0691 93.6963C61.0691 93.5845 61.0505 93.4889 61.0132 93.4093C60.976 93.3281 60.921 93.2654 60.8482 93.2214C60.7771 93.1774 60.6891 93.1554 60.5841 93.1554C60.4724 93.1554 60.3759 93.1825 60.2946 93.2367C60.2151 93.2908 60.1541 93.3662 60.1118 93.4627C60.0712 93.5591 60.0509 93.6683 60.0509 93.7902H59.317C59.317 93.5701 59.3695 93.3687 59.4744 93.1859C59.5794 93.0014 59.7275 92.8549 59.9188 92.7466C60.1101 92.6365 60.3369 92.5815 60.5993 92.5815C60.8583 92.5815 61.0767 92.6238 61.2545 92.7085C61.4339 92.7914 61.5693 92.9116 61.6608 93.0691C61.7539 93.2248 61.8004 93.411 61.8004 93.6277C61.8004 93.7496 61.7809 93.8689 61.742 93.9857C61.7031 94.1009 61.6472 94.216 61.5744 94.3311C61.5033 94.4445 61.417 94.5596 61.3154 94.6764C61.2138 94.7932 61.1013 94.9143 60.9777 95.0395L60.3353 95.7607H61.9198ZM63.065 94.6485L62.4809 94.5088L62.6917 92.6348H64.7688V93.2265H63.2935L63.2021 94.0467C63.2512 94.0179 63.3257 93.9874 63.4256 93.9553C63.5254 93.9214 63.6372 93.9045 63.7607 93.9045C63.9402 93.9045 64.0993 93.9324 64.2381 93.9883C64.3769 94.0441 64.4946 94.1254 64.5911 94.2321C64.6893 94.3387 64.7637 94.4691 64.8145 94.6231C64.8653 94.7771 64.8907 94.9515 64.8907 95.1462C64.8907 95.3104 64.8653 95.467 64.8145 95.616C64.7637 95.7632 64.6867 95.8953 64.5835 96.0121C64.4802 96.1272 64.3507 96.2178 64.195 96.2838C64.0392 96.3498 63.8547 96.3828 63.6414 96.3828C63.4823 96.3828 63.3282 96.3591 63.1792 96.3117C63.032 96.2643 62.8991 96.1941 62.7806 96.101C62.6638 96.0079 62.5698 95.8953 62.4987 95.7632C62.4293 95.6295 62.3929 95.4771 62.3895 95.3062H63.1158C63.1259 95.4111 63.153 95.5017 63.197 95.5779C63.2427 95.6524 63.3028 95.7099 63.3773 95.7505C63.4518 95.7912 63.539 95.8115 63.6389 95.8115C63.732 95.8115 63.8115 95.7937 63.8775 95.7582C63.9436 95.7226 63.9969 95.6735 64.0375 95.6109C64.0781 95.5465 64.1078 95.4721 64.1264 95.3874C64.1467 95.3011 64.1569 95.208 64.1569 95.1081C64.1569 95.0082 64.145 94.9177 64.1213 94.8364C64.0976 94.7551 64.0612 94.6849 64.0121 94.6256C63.963 94.5664 63.9004 94.5207 63.8242 94.4885C63.7497 94.4564 63.6626 94.4403 63.5627 94.4403C63.4272 94.4403 63.3223 94.4614 63.2478 94.5038C63.175 94.5461 63.1141 94.5943 63.065 94.6485Z" fill="#112244"/>
</g>
<defs>
<linearGradient id="paint0_linear_1736_1371" x1="58.0677" y1="0.914062" x2="58.0677" y2="100.914" gradientUnits="userSpaceOnUse">
<stop stop-color="#899FB6"/>
<stop offset="1" stop-color="#E6EFF7"/>
</linearGradient>
<linearGradient id="paint1_linear_1736_1371" x1="16.8288" y1="0.914062" x2="16.8288" y2="50.9682" gradientUnits="userSpaceOnUse">
<stop stop-color="#899FB6"/>
<stop offset="1" stop-color="#E6EFF7"/>
</linearGradient>
<linearGradient id="paint2_linear_1736_1371" x1="17.2415" y1="50.9688" x2="17.2415" y2="100.915" gradientUnits="userSpaceOnUse">
<stop stop-color="#899FB6"/>
<stop offset="1" stop-color="#E6EFF7"/>
</linearGradient>
<linearGradient id="paint3_linear_1736_1371" x1="99.4155" y1="0.914062" x2="99.4155" y2="50.9682" gradientUnits="userSpaceOnUse">
<stop stop-color="#899FB6"/>
<stop offset="1" stop-color="#E6EFF7"/>
</linearGradient>
<linearGradient id="paint4_linear_1736_1371" x1="98.8312" y1="50.9688" x2="98.8312" y2="100.915" gradientUnits="userSpaceOnUse">
<stop stop-color="#899FB6"/>
<stop offset="1" stop-color="#E6EFF7"/>
</linearGradient>
<linearGradient id="paint5_linear_1736_1371" x1="40.4628" y1="0.914062" x2="40.4628" y2="37.7476" gradientUnits="userSpaceOnUse">
<stop stop-color="#899FB6"/>
<stop offset="1" stop-color="#E6EFF7"/>
</linearGradient>
<linearGradient id="paint6_linear_1736_1371" x1="75.892" y1="0.914062" x2="75.892" y2="37.7476" gradientUnits="userSpaceOnUse">
<stop stop-color="#899FB6"/>
<stop offset="1" stop-color="#E6EFF7"/>
</linearGradient>
<linearGradient id="paint7_linear_1736_1371" x1="40.7855" y1="65.8555" x2="40.7855" y2="100.914" gradientUnits="userSpaceOnUse">
<stop stop-color="#899FB6"/>
<stop offset="1" stop-color="#E6EFF7"/>
</linearGradient>
<linearGradient id="paint8_linear_1736_1371" x1="40.787" y1="65.8567" x2="40.787" y2="100.915" gradientUnits="userSpaceOnUse">
<stop stop-color="#899FB6"/>
<stop offset="1" stop-color="#E6EFF7"/>
</linearGradient>
<linearGradient id="paint9_linear_1736_1371" x1="57.9502" y1="13.9531" x2="57.9502" y2="87.9419" gradientUnits="userSpaceOnUse">
<stop stop-color="#02A9F9"/>
<stop offset="1" stop-color="#CFE0A9"/>
</linearGradient>
<linearGradient id="paint10_linear_1736_1371" x1="58.0667" y1="14.0234" x2="58.0667" y2="87.8046" gradientUnits="userSpaceOnUse">
<stop stop-color="#899FB6"/>
<stop offset="1" stop-color="#E6EFF7"/>
</linearGradient>
<clipPath id="clip0_1736_1371">
<rect width="115.71" height="100" fill="white" transform="translate(0.212891 0.914062)"/>
</clipPath>
</defs>
</svg>
