<svg width="116" height="101" viewBox="0 0 116 101" fill="none" xmlns="http://www.w3.org/2000/svg">
<g clip-path="url(#clip0_1736_1415)">
<path d="M87.2118 0.914062H29.1403L0.212891 50.9682L29.1403 100.914H87.2118L115.923 50.9682L87.2118 0.914062Z" fill="url(#paint0_linear_1736_1415)"/>
<path opacity="0.35" d="M29.1403 0.914062L0.212891 50.9682L33.4448 37.7476L29.1403 0.914062Z" fill="url(#paint1_linear_1736_1415)"/>
<path opacity="0.35" d="M0.212891 50.9688L29.1403 100.915L34.2701 65.9373L0.212891 50.9688Z" fill="url(#paint2_linear_1736_1415)"/>
<path opacity="0.35" d="M87.2102 0.914062L115.921 50.9682L82.9102 37.7476L87.2102 0.914062Z" fill="url(#paint3_linear_1736_1415)"/>
<path opacity="0.35" d="M115.922 50.9688L87.2115 100.915L81.7402 66.0825L115.922 50.9688Z" fill="url(#paint4_linear_1736_1415)"/>
<path d="M29.1387 0.914062L33.4432 37.7476L51.787 13.9531V0.914062H29.1387Z" fill="url(#paint5_linear_1736_1415)"/>
<path d="M87.2116 0.914062L82.9206 37.7476L64.5723 13.9531V0.914062H87.2116Z" fill="url(#paint6_linear_1736_1415)"/>
<path d="M29.1387 100.914L34.196 65.8555L52.4323 87.4797V100.914H29.1387Z" fill="url(#paint7_linear_1736_1415)"/>
<path d="M87.2117 100.915L81.7008 65.707L65.9766 87.8059V100.915H87.2117Z" fill="url(#paint8_linear_1736_1415)"/>
<path d="M51.7872 13.9531H64.5711L82.4569 37.7477L81.695 65.7058L65.9906 87.9419L52.4583 87.4617L34.1962 65.8553L33.4434 37.7477L51.7872 13.9531Z" fill="url(#paint9_linear_1736_1415)"/>
<path d="M79.5185 14.0234H36.8316L15.2715 50.9682L36.8316 87.8046H79.5185L100.862 50.9682L79.5185 14.0234Z" fill="url(#paint10_linear_1736_1415)"/>
<path d="M56.0934 22.9182L54.9687 25.8992H55.7851L57.6126 21.0742L54.5742 22.9182H56.0934Z" fill="white"/>
<path d="M52.3066 23.5913L53.7714 25.0638L54.5741 22.9208L55.4811 20.4062L52.3066 23.5913ZM58.2474 22.9931L57.7486 24.4112L59.2541 25.9018L58.2474 22.9931Z" fill="white"/>
<path d="M59.2543 25.9004L57.7488 24.4098L57.2226 25.9004H59.2543ZM54.5742 22.9194L57.6126 21.0754L55.4812 20.4049L54.5742 22.9194ZM55.4814 20.4049L57.6128 21.0754L58.2477 17.6367L55.4814 20.4049Z" fill="white"/>
<path d="M57.6113 21.0754H58.9083L58.2462 17.6367L57.6113 21.0754ZM58.2462 17.6367L58.9084 21.0754L62.033 21.4333L58.2462 17.6367Z" fill="white"/>
<path d="M58.9102 21.0742L59.4907 22.6463L62.0347 21.4321L58.9102 21.0742ZM62.7333 25.0611L64.1845 23.5887L62.2572 23.7744L62.7333 25.0611ZM62.257 23.7744L64.1844 23.5887L62.0347 21.4322L62.257 23.7744Z" fill="white"/>
<path d="M62.0342 21.4336L60.7555 23.7758H62.2564L62.0342 21.4336ZM59.4902 22.6478L60.7056 25.9007H61.5219L60.7555 23.7758L59.4902 22.6478Z" fill="white"/>
<path d="M62.0337 21.4336L59.4896 22.6478L60.7549 23.7758L62.0337 21.4336ZM58.2469 25.8644C56.5555 25.8644 53.7575 25.6424 53.7575 25.0625V25.8826C53.7575 26.2767 55.6032 26.6844 58.2469 26.6844C60.8908 26.6844 62.7365 26.2722 62.7365 25.8826V25.0625C62.7365 25.6424 59.9385 25.8644 58.2469 25.8644ZM51.05 32.1076L50.6917 30.8753H48.9186L48.5603 32.1076H47.4492L49.1226 26.9246H50.4558L52.1474 32.1076H51.05ZM50.4514 29.951L50.1248 28.823C50.1066 28.7867 50.0885 28.7051 50.0568 28.6191C50.0205 28.5148 50.007 28.4152 49.9707 28.2929C49.9344 28.1751 49.9026 28.0528 49.8844 27.9349C49.8482 27.8171 49.8346 27.7129 49.8165 27.6269C49.7983 27.6767 49.7983 27.7446 49.7802 27.8171C49.7619 27.8907 49.7452 27.9648 49.7303 28.0391C49.7139 28.1208 49.6912 28.2012 49.6622 28.2793C49.6441 28.3653 49.626 28.4333 49.5943 28.5013C49.5761 28.5692 49.558 28.6372 49.5443 28.6916C49.5263 28.7414 49.508 28.7776 49.508 28.8093L49.1816 29.9375L50.4468 29.9556L50.4514 29.951ZM54.3604 32.1756C54.0702 32.1756 53.8163 32.1393 53.5941 32.0578C53.3719 31.9763 53.1677 31.8539 53.0136 31.6999C52.8594 31.5277 52.7233 31.3238 52.6372 31.0656C52.551 30.8074 52.5011 30.4992 52.5011 30.1414C52.5011 29.7472 52.551 29.421 52.6372 29.1492C52.7233 28.8909 52.8412 28.6689 53.0136 28.5149C53.1677 28.3608 53.3719 28.243 53.5941 28.1705C53.8163 28.0981 54.0702 28.0663 54.3468 28.0663C54.5508 28.0663 54.755 28.0845 54.9454 28.1344C55.1495 28.1842 55.34 28.2521 55.5077 28.3381L55.1994 29.1582C55.0452 29.0903 54.891 29.0404 54.755 28.986C54.6189 28.9362 54.4829 28.9181 54.3468 28.9181C54.0929 28.9181 53.9024 29.0223 53.7845 29.208C53.6666 29.4119 53.6122 29.7064 53.6122 30.096C53.6122 30.4857 53.662 30.7802 53.7845 30.9704C53.907 31.1607 54.0929 31.2604 54.3286 31.2604C54.5328 31.2604 54.7232 31.2242 54.891 31.1743C55.0675 31.1214 55.2389 31.0531 55.4035 30.9704V31.8766C55.3173 31.9128 55.2311 31.9626 55.1495 31.9944C55.0679 32.0261 54.9772 32.0442 54.8956 32.0804C54.8094 32.0986 54.7232 32.1167 54.6416 32.1302C54.5736 32.1665 54.4693 32.1665 54.3695 32.1665L54.3604 32.1756ZM57.3987 32.1076H56.324V28.1569H57.3987V32.1076ZM60.2695 32.1755C59.9792 32.1755 59.7253 32.1392 59.485 32.0578C59.2446 31.9716 59.0405 31.8539 58.8682 31.6817C58.6959 31.5095 58.5598 31.3056 58.4737 31.0474C58.3694 30.7892 58.3376 30.4992 58.3376 30.1594C58.3376 29.8196 58.3875 29.5115 58.4737 29.2533C58.5598 28.995 58.6777 28.773 58.8319 28.6054C58.9862 28.4333 59.1721 28.2973 59.3943 28.2113C59.6285 28.1202 59.8777 28.0741 60.129 28.0753C60.3829 28.0753 60.6232 28.1116 60.8273 28.1932C61.0313 28.2792 61.2218 28.3834 61.3579 28.5375C61.5121 28.6914 61.6118 28.8818 61.698 29.1038C61.7842 29.3258 61.816 29.584 61.816 29.874V30.404H59.4078C59.4078 30.5581 59.4441 30.694 59.4759 30.8164C59.5258 30.9341 59.5802 31.0384 59.6618 31.1244C59.7435 31.2105 59.8342 31.2784 59.952 31.3147C60.07 31.3646 60.1924 31.3827 60.3284 31.3827C60.4464 31.3827 60.5688 31.3827 60.6686 31.3646C60.771 31.3453 60.8738 31.3287 60.977 31.3147C61.0813 31.2784 61.1811 31.2649 61.2853 31.2105C61.3896 31.1742 61.4894 31.1244 61.5937 31.0745V31.9127C61.4894 31.9625 61.4077 31.9988 61.3035 32.0306C61.1992 32.0667 61.1176 32.0985 60.995 32.1166C60.8908 32.1348 60.7728 32.1529 60.655 32.1664C60.5371 32.1846 60.4147 32.1846 60.2604 32.1846L60.2695 32.1755ZM60.129 28.841C59.9429 28.841 59.7888 28.909 59.6528 29.0449C59.5348 29.1808 59.4487 29.3892 59.4306 29.6792H60.7956C60.7956 29.5613 60.7774 29.439 60.7456 29.353C60.7094 29.2488 60.6776 29.1626 60.6278 29.0947C60.5779 29.0268 60.5099 28.9588 60.4237 28.9225C60.3375 28.8727 60.2514 28.8365 60.1334 28.8365L60.129 28.841ZM64.3281 31.3237C64.4324 31.3237 64.5322 31.3056 64.6365 31.2875C64.7408 31.2695 64.8225 31.2377 64.9267 31.2014V32.0034C64.8225 32.0532 64.7045 32.1076 64.5503 32.1393C64.3961 32.171 64.242 32.1892 64.056 32.1892C63.8837 32.1892 63.7295 32.171 63.5799 32.1393C63.4257 32.103 63.3077 32.0351 63.1853 31.9354C63.081 31.8312 62.9994 31.6952 62.9313 31.5231C62.8633 31.3509 62.8452 31.1471 62.8452 30.8888V28.9543H62.3328V28.4922L62.9313 28.1342L63.2397 27.2961H63.9245V28.1342H64.8814V28.9362H63.9245V30.8345C63.9245 30.9885 63.9608 31.1063 64.0424 31.1788C64.1104 31.283 64.2148 31.3147 64.3326 31.3147L64.3281 31.3237ZM65.1672 28.157H66.3463L66.9766 30.3815C67.0129 30.4992 67.0447 30.6397 67.0628 30.7756C67.081 30.9115 67.0991 31.0338 67.0991 31.1517H67.1173C67.1173 31.1018 67.1354 31.0338 67.1354 30.9613C67.1354 30.8888 67.1536 30.8255 67.1716 30.7575C67.1897 30.6895 67.1897 30.6216 67.2079 30.5536C67.226 30.4857 67.2442 30.4359 67.2578 30.3634L67.8746 28.1388H69.0537L67.4982 32.606C67.344 33.0182 67.158 33.3399 66.8996 33.5302C66.6456 33.7341 66.3372 33.8383 65.9608 33.8383C65.8429 33.8383 65.7386 33.8383 65.6343 33.8202C65.5481 33.8021 65.462 33.784 65.4121 33.784V32.9276C65.462 32.9457 65.5164 32.9457 65.5981 32.9639C65.666 32.982 65.7523 32.982 65.8384 32.982C65.9563 32.982 66.0425 32.9639 66.1286 32.9322C66.2148 32.9004 66.2828 32.8643 66.3326 32.7962C66.3926 32.7352 66.4445 32.6667 66.4869 32.5924C66.5231 32.5063 66.5549 32.4203 66.5911 32.3341L66.6592 32.1302L65.1763 28.1614L65.1672 28.157Z" fill="white"/>
<path d="M24.1357 42.0358H26.3105C26.7564 42.0358 27.1396 42.1025 27.46 42.236C27.783 42.3695 28.0314 42.5671 28.2049 42.8288C28.3785 43.0904 28.4652 43.4122 28.4652 43.794C28.4652 44.1064 28.4118 44.3747 28.305 44.599C28.2009 44.8206 28.0527 45.0062 27.8605 45.1557C27.6709 45.3026 27.448 45.4201 27.1916 45.5082L26.8111 45.7084H24.9207L24.9127 44.7712H26.3185C26.5294 44.7712 26.7043 44.7339 26.8432 44.6591C26.982 44.5843 27.0862 44.4802 27.1556 44.3467C27.2277 44.2132 27.2637 44.0583 27.2637 43.8821C27.2637 43.6952 27.229 43.5337 27.1596 43.3975C27.0902 43.2613 26.9847 43.1572 26.8432 43.0851C26.7017 43.013 26.5241 42.977 26.3105 42.977H25.3373V47.8672H24.1357V42.0358ZM27.3959 47.8672L26.0662 45.2679L27.3358 45.2599L28.6815 47.8111V47.8672H27.3959ZM31.3129 47.9473C30.9764 47.9473 30.6747 47.8939 30.4077 47.7871C30.1407 47.6776 29.9138 47.5268 29.7269 47.3345C29.5426 47.1423 29.4011 46.9193 29.3023 46.6657C29.2035 46.4093 29.1541 46.137 29.1541 45.8486V45.6884C29.1541 45.36 29.2008 45.0596 29.2943 44.7873C29.3878 44.5149 29.5213 44.2786 29.6948 44.0784C29.871 43.8781 30.0846 43.7246 30.3356 43.6178C30.5866 43.5083 30.8696 43.4536 31.1847 43.4536C31.4918 43.4536 31.7641 43.5043 32.0017 43.6058C32.2394 43.7072 32.4383 43.8514 32.5985 44.0383C32.7614 44.2252 32.8842 44.4495 32.967 44.7112C33.0497 44.9702 33.0911 45.2585 33.0911 45.5763V46.0569H29.6467V45.2879H31.9577V45.1998C31.9577 45.0396 31.9283 44.8967 31.8696 44.7712C31.8135 44.6431 31.7281 44.5416 31.6133 44.4669C31.4984 44.3921 31.3516 44.3547 31.1727 44.3547C31.0205 44.3547 30.8897 44.3881 30.7802 44.4548C30.6707 44.5216 30.5813 44.615 30.5118 44.7352C30.4451 44.8554 30.3944 44.9969 30.3597 45.1597C30.3276 45.3199 30.3116 45.4962 30.3116 45.6884V45.8486C30.3116 46.0222 30.3356 46.1824 30.3837 46.3292C30.4344 46.4761 30.5052 46.6029 30.596 46.7097C30.6894 46.8165 30.8016 46.8993 30.9324 46.958C31.0659 47.0168 31.2167 47.0461 31.385 47.0461C31.5932 47.0461 31.7868 47.0061 31.9657 46.926C32.1473 46.8432 32.3035 46.7191 32.4343 46.5535L32.995 47.1623C32.9042 47.2931 32.7801 47.4186 32.6225 47.5388C32.4677 47.6589 32.2808 47.7577 32.0618 47.8351C31.8429 47.9099 31.5932 47.9473 31.3129 47.9473ZM36.0909 46.6697C36.0909 46.5869 36.0669 46.5121 36.0189 46.4454C35.9708 46.3786 35.8813 46.3172 35.7505 46.2611C35.6224 46.2024 35.4368 46.149 35.1938 46.1009C34.9749 46.0529 34.7706 45.9928 34.581 45.9207C34.3941 45.8459 34.2312 45.7565 34.0924 45.6524C33.9562 45.5482 33.8494 45.4254 33.772 45.2839C33.6946 45.1397 33.6559 44.9755 33.6559 44.7913C33.6559 44.6097 33.6946 44.4388 33.772 44.2786C33.8521 44.1184 33.9656 43.9769 34.1124 43.8541C34.262 43.7286 34.4435 43.6311 34.6571 43.5617C34.8734 43.4896 35.1164 43.4536 35.3861 43.4536C35.7625 43.4536 36.0856 43.5136 36.3553 43.6338C36.6276 43.754 36.8359 43.9195 36.9801 44.1304C37.1269 44.3387 37.2004 44.5763 37.2004 44.8433H36.0469C36.0469 44.7312 36.0229 44.6311 35.9748 44.543C35.9294 44.4522 35.8573 44.3814 35.7585 44.3307C35.6624 44.2773 35.5369 44.2506 35.382 44.2506C35.2539 44.2506 35.1431 44.2733 35.0496 44.3187C34.9562 44.3614 34.8841 44.4201 34.8333 44.4949C34.7853 44.567 34.7613 44.6471 34.7613 44.7352C34.7613 44.802 34.7746 44.862 34.8013 44.9154C34.8307 44.9662 34.8774 45.0129 34.9415 45.0556C35.0056 45.0983 35.0883 45.1384 35.1898 45.1758C35.2939 45.2105 35.4221 45.2425 35.5743 45.2719C35.8867 45.336 36.1657 45.4201 36.4114 45.5242C36.657 45.6257 36.8519 45.7645 36.9961 45.9407C37.1403 46.1143 37.2124 46.3426 37.2124 46.6256C37.2124 46.8179 37.1697 46.9941 37.0842 47.1543C36.9988 47.3145 36.8759 47.4547 36.7157 47.5748C36.5555 47.6923 36.3633 47.7844 36.139 47.8512C35.9174 47.9152 35.6677 47.9473 35.3901 47.9473C34.9869 47.9473 34.6451 47.8752 34.3648 47.731C34.0871 47.5868 33.8761 47.4039 33.7319 47.1823C33.5904 46.958 33.5197 46.7284 33.5197 46.4934H34.6131C34.6184 46.651 34.6585 46.7778 34.7332 46.8739C34.8107 46.97 34.9081 47.0395 35.0256 47.0822C35.1457 47.1249 35.2752 47.1463 35.4141 47.1463C35.5636 47.1463 35.6878 47.1262 35.7866 47.0862C35.8854 47.0435 35.9601 46.9874 36.0108 46.918C36.0642 46.8459 36.0909 46.7631 36.0909 46.6697ZM39.1148 44.3667V49.5333H37.9613V43.5337H39.0307L39.1148 44.3667ZM41.8583 45.6524V45.7365C41.8583 46.0515 41.8209 46.3439 41.7461 46.6136C41.6741 46.8833 41.5672 47.1182 41.4257 47.3185C41.2842 47.5161 41.108 47.6709 40.8971 47.7831C40.6888 47.8926 40.4485 47.9473 40.1761 47.9473C39.9118 47.9473 39.6822 47.8939 39.4873 47.7871C39.2924 47.6803 39.1281 47.5308 38.9946 47.3385C38.8638 47.1436 38.7583 46.918 38.6782 46.6617C38.5981 46.4053 38.5367 46.1303 38.494 45.8366V45.6163C38.5367 45.3013 38.5981 45.0129 38.6782 44.7512C38.7583 44.4869 38.8638 44.2586 38.9946 44.0664C39.1281 43.8714 39.291 43.7206 39.4833 43.6138C39.6782 43.507 39.9065 43.4536 40.1681 43.4536C40.4432 43.4536 40.6848 43.5056 40.8931 43.6098C41.104 43.7139 41.2802 43.8634 41.4217 44.0583C41.5659 44.2533 41.6741 44.4856 41.7461 44.7552C41.8209 45.0249 41.8583 45.324 41.8583 45.6524ZM40.7008 45.7365V45.6524C40.7008 45.4681 40.6848 45.2986 40.6528 45.1437C40.6234 44.9862 40.5753 44.8487 40.5086 44.7312C40.4445 44.6137 40.359 44.5229 40.2522 44.4589C40.1481 44.3921 40.0213 44.3587 39.8718 44.3587C39.7142 44.3587 39.5794 44.3841 39.4672 44.4348C39.3578 44.4856 39.2683 44.559 39.1989 44.6551C39.1295 44.7512 39.0774 44.866 39.0427 44.9995C39.008 45.133 38.9866 45.2839 38.9786 45.4521V46.0088C38.992 46.2064 39.0294 46.384 39.0908 46.5415C39.1522 46.6964 39.247 46.8192 39.3751 46.91C39.5033 47.0008 39.6715 47.0461 39.8798 47.0461C40.032 47.0461 40.1601 47.0128 40.2643 46.946C40.3684 46.8766 40.4525 46.7818 40.5166 46.6617C40.5833 46.5415 40.6301 46.4027 40.6568 46.2451C40.6861 46.0876 40.7008 45.918 40.7008 45.7365ZM42.391 45.7445V45.6604C42.391 45.3426 42.4364 45.0503 42.5271 44.7833C42.6179 44.5136 42.7501 44.28 42.9236 44.0824C43.0972 43.8848 43.3108 43.7313 43.5645 43.6218C43.8181 43.5096 44.1091 43.4536 44.4376 43.4536C44.766 43.4536 45.0584 43.5096 45.3147 43.6218C45.571 43.7313 45.7859 43.8848 45.9595 44.0824C46.1357 44.28 46.2692 44.5136 46.36 44.7833C46.4508 45.0503 46.4962 45.3426 46.4962 45.6604V45.7445C46.4962 46.0596 46.4508 46.3519 46.36 46.6216C46.2692 46.8886 46.1357 47.1222 45.9595 47.3225C45.7859 47.5201 45.5723 47.6736 45.3187 47.7831C45.065 47.8926 44.774 47.9473 44.4456 47.9473C44.1172 47.9473 43.8248 47.8926 43.5685 47.7831C43.3148 47.6736 43.0999 47.5201 42.9236 47.3225C42.7501 47.1222 42.6179 46.8886 42.5271 46.6216C42.4364 46.3519 42.391 46.0596 42.391 45.7445ZM43.5444 45.6604V45.7445C43.5444 45.9261 43.5605 46.0956 43.5925 46.2531C43.6245 46.4107 43.6753 46.5495 43.7447 46.6697C43.8168 46.7871 43.9102 46.8793 44.025 46.946C44.1399 47.0128 44.28 47.0461 44.4456 47.0461C44.6058 47.0461 44.7433 47.0128 44.8581 46.946C44.9729 46.8793 45.065 46.7871 45.1345 46.6697C45.2039 46.5495 45.2546 46.4107 45.2866 46.2531C45.3214 46.0956 45.3387 45.9261 45.3387 45.7445V45.6604C45.3387 45.4842 45.3214 45.3186 45.2866 45.1637C45.2546 45.0062 45.2025 44.8674 45.1304 44.7472C45.061 44.6244 44.9689 44.5283 44.8541 44.4589C44.7393 44.3894 44.6004 44.3547 44.4376 44.3547C44.2747 44.3547 44.1359 44.3894 44.021 44.4589C43.9089 44.5283 43.8168 44.6244 43.7447 44.7472C43.6753 44.8674 43.6245 45.0062 43.5925 45.1637C43.5605 45.3186 43.5444 45.4842 43.5444 45.6604ZM48.3345 44.4589V47.8672H47.1811V43.5337H48.2624L48.3345 44.4589ZM48.1663 45.5482H47.8539C47.8539 45.2278 47.8953 44.9395 47.9781 44.6831C48.0608 44.4241 48.177 44.2039 48.3265 44.0223C48.476 43.8381 48.6536 43.6979 48.8592 43.6018C49.0675 43.503 49.2998 43.4536 49.5561 43.4536C49.759 43.4536 49.9446 43.4829 50.1128 43.5417C50.281 43.6004 50.4252 43.6939 50.5453 43.822C50.6682 43.9502 50.7616 44.1198 50.8257 44.3307C50.8924 44.5416 50.9258 44.7993 50.9258 45.1037V47.8672H49.7643V45.0997C49.7643 44.9074 49.7376 44.7579 49.6842 44.6511C49.6308 44.5443 49.5521 44.4695 49.4479 44.4268C49.3465 44.3814 49.221 44.3587 49.0715 44.3587C48.9166 44.3587 48.7818 44.3894 48.667 44.4508C48.5548 44.5123 48.4614 44.5977 48.3866 44.7072C48.3145 44.814 48.2598 44.9395 48.2224 45.0836C48.185 45.2278 48.1663 45.3827 48.1663 45.5482ZM54.1459 46.6697C54.1459 46.5869 54.1219 46.5121 54.0738 46.4454C54.0258 46.3786 53.9363 46.3172 53.8055 46.2611C53.6773 46.2024 53.4918 46.149 53.2488 46.1009C53.0298 46.0529 52.8256 45.9928 52.636 45.9207C52.4491 45.8459 52.2862 45.7565 52.1474 45.6524C52.0112 45.5482 51.9044 45.4254 51.827 45.2839C51.7495 45.1397 51.7108 44.9755 51.7108 44.7913C51.7108 44.6097 51.7495 44.4388 51.827 44.2786C51.9071 44.1184 52.0205 43.9769 52.1674 43.8541C52.3169 43.7286 52.4985 43.6311 52.7121 43.5617C52.9284 43.4896 53.1713 43.4536 53.441 43.4536C53.8175 43.4536 54.1406 43.5136 54.4103 43.6338C54.6826 43.754 54.8909 43.9195 55.0351 44.1304C55.1819 44.3387 55.2553 44.5763 55.2553 44.8433H54.1019C54.1019 44.7312 54.0778 44.6311 54.0298 44.543C53.9844 44.4522 53.9123 44.3814 53.8135 44.3307C53.7174 44.2773 53.5919 44.2506 53.437 44.2506C53.3089 44.2506 53.198 44.2733 53.1046 44.3187C53.0111 44.3614 52.9391 44.4201 52.8883 44.4949C52.8403 44.567 52.8162 44.6471 52.8162 44.7352C52.8162 44.802 52.8296 44.862 52.8563 44.9154C52.8856 44.9662 52.9324 45.0129 52.9965 45.0556C53.0605 45.0983 53.1433 45.1384 53.2448 45.1758C53.3489 45.2105 53.4771 45.2425 53.6293 45.2719C53.9417 45.336 54.2207 45.4201 54.4663 45.5242C54.712 45.6257 54.9069 45.7645 55.0511 45.9407C55.1953 46.1143 55.2673 46.3426 55.2673 46.6256C55.2673 46.8179 55.2246 46.9941 55.1392 47.1543C55.0537 47.3145 54.9309 47.4547 54.7707 47.5748C54.6105 47.6923 54.4183 47.7844 54.194 47.8512C53.9724 47.9152 53.7227 47.9473 53.445 47.9473C53.0418 47.9473 52.7001 47.8752 52.4197 47.731C52.142 47.5868 51.9311 47.4039 51.7869 47.1823C51.6454 46.958 51.5746 46.7284 51.5746 46.4934H52.668C52.6734 46.651 52.7134 46.7778 52.7882 46.8739C52.8656 46.97 52.9631 47.0395 53.0806 47.0822C53.2007 47.1249 53.3302 47.1463 53.4691 47.1463C53.6186 47.1463 53.7427 47.1262 53.8415 47.0862C53.9403 47.0435 54.0151 46.9874 54.0658 46.918C54.1192 46.8459 54.1459 46.7631 54.1459 46.6697ZM57.2338 43.5337V47.8672H56.0764V43.5337H57.2338ZM56.0043 42.4042C56.0043 42.236 56.063 42.0972 56.1805 41.9877C56.298 41.8782 56.4555 41.8235 56.6531 41.8235C56.848 41.8235 57.0042 41.8782 57.1217 41.9877C57.2419 42.0972 57.3019 42.236 57.3019 42.4042C57.3019 42.5725 57.2419 42.7113 57.1217 42.8208C57.0042 42.9302 56.848 42.985 56.6531 42.985C56.4555 42.985 56.298 42.9302 56.1805 42.8208C56.063 42.7113 56.0043 42.5725 56.0043 42.4042ZM59.6609 47.0261L60.6222 43.5337H61.8277L60.3658 47.8672H59.6369L59.6609 47.0261ZM59.0001 43.5337L59.9653 47.0301L59.9853 47.8672H59.2524L57.7906 43.5337H59.0001ZM64.2828 47.9473C63.9464 47.9473 63.6447 47.8939 63.3777 47.7871C63.1107 47.6776 62.8837 47.5268 62.6968 47.3345C62.5126 47.1423 62.3711 46.9193 62.2723 46.6657C62.1735 46.4093 62.1241 46.137 62.1241 45.8486V45.6884C62.1241 45.36 62.1708 45.0596 62.2643 44.7873C62.3577 44.5149 62.4912 44.2786 62.6648 44.0784C62.841 43.8781 63.0546 43.7246 63.3056 43.6178C63.5566 43.5083 63.8396 43.4536 64.1547 43.4536C64.4617 43.4536 64.7341 43.5043 64.9717 43.6058C65.2093 43.7072 65.4083 43.8514 65.5685 44.0383C65.7313 44.2252 65.8542 44.4495 65.9369 44.7112C66.0197 44.9702 66.0611 45.2585 66.0611 45.5763V46.0569H62.6167V45.2879H64.9276V45.1998C64.9276 45.0396 64.8983 44.8967 64.8395 44.7712C64.7835 44.6431 64.698 44.5416 64.5832 44.4669C64.4684 44.3921 64.3215 44.3547 64.1426 44.3547C63.9904 44.3547 63.8596 44.3881 63.7501 44.4548C63.6407 44.5216 63.5512 44.615 63.4818 44.7352C63.415 44.8554 63.3643 44.9969 63.3296 45.1597C63.2976 45.3199 63.2815 45.4962 63.2815 45.6884V45.8486C63.2815 46.0222 63.3056 46.1824 63.3536 46.3292C63.4044 46.4761 63.4751 46.6029 63.5659 46.7097C63.6594 46.8165 63.7715 46.8993 63.9023 46.958C64.0358 47.0168 64.1867 47.0461 64.3549 47.0461C64.5632 47.0461 64.7568 47.0061 64.9356 46.926C65.1172 46.8432 65.2734 46.7191 65.4042 46.5535L65.965 47.1623C65.8742 47.2931 65.75 47.4186 65.5925 47.5388C65.4376 47.6589 65.2507 47.7577 65.0318 47.8351C64.8128 47.9099 64.5632 47.9473 64.2828 47.9473ZM70.6229 47.8672H69.3533L69.3613 46.93H70.6229C70.938 46.93 71.2036 46.8592 71.4199 46.7177C71.6362 46.5735 71.799 46.3639 71.9085 46.0889C72.0207 45.8139 72.0767 45.4815 72.0767 45.0917V44.8073C72.0767 44.5082 72.0447 44.2452 71.9806 44.0183C71.9192 43.7913 71.8271 43.6004 71.7043 43.4456C71.5814 43.2907 71.4306 43.1746 71.2517 43.0971C71.0728 43.017 70.8672 42.977 70.6349 42.977H69.3292V42.0358H70.6349C71.0247 42.0358 71.3812 42.1025 71.7043 42.236C72.03 42.3669 72.3117 42.5551 72.5493 42.8007C72.787 43.0464 72.9699 43.3401 73.098 43.6819C73.2289 44.021 73.2943 44.3988 73.2943 44.8153V45.0917C73.2943 45.5055 73.2289 45.8833 73.098 46.2251C72.9699 46.5669 72.787 46.8606 72.5493 47.1062C72.3144 47.3492 72.0327 47.5374 71.7043 47.6709C71.3785 47.8018 71.0181 47.8672 70.6229 47.8672ZM70.0341 42.0358V47.8672H68.8326V42.0358H70.0341ZM76.0898 47.9473C75.7534 47.9473 75.4517 47.8939 75.1847 47.7871C74.9177 47.6776 74.6907 47.5268 74.5038 47.3345C74.3196 47.1423 74.1781 46.9193 74.0793 46.6657C73.9805 46.4093 73.9311 46.137 73.9311 45.8486V45.6884C73.9311 45.36 73.9778 45.0596 74.0713 44.7873C74.1647 44.5149 74.2982 44.2786 74.4718 44.0784C74.648 43.8781 74.8616 43.7246 75.1126 43.6178C75.3636 43.5083 75.6466 43.4536 75.9617 43.4536C76.2687 43.4536 76.5411 43.5043 76.7787 43.6058C77.0164 43.7072 77.2153 43.8514 77.3755 44.0383C77.5384 44.2252 77.6612 44.4495 77.7439 44.7112C77.8267 44.9702 77.8681 45.2585 77.8681 45.5763V46.0569H74.4237V45.2879H76.7347V45.1998C76.7347 45.0396 76.7053 44.8967 76.6465 44.7712C76.5905 44.6431 76.505 44.5416 76.3902 44.4669C76.2754 44.3921 76.1286 44.3547 75.9497 44.3547C75.7975 44.3547 75.6666 44.3881 75.5572 44.4548C75.4477 44.5216 75.3582 44.615 75.2888 44.7352C75.2221 44.8554 75.1713 44.9969 75.1366 45.1597C75.1046 45.3199 75.0886 45.4962 75.0886 45.6884V45.8486C75.0886 46.0222 75.1126 46.1824 75.1607 46.3292C75.2114 46.4761 75.2821 46.6029 75.3729 46.7097C75.4664 46.8165 75.5785 46.8993 75.7094 46.958C75.8429 47.0168 75.9937 47.0461 76.1619 47.0461C76.3702 47.0461 76.5638 47.0061 76.7427 46.926C76.9242 46.8432 77.0804 46.7191 77.2113 46.5535L77.772 47.1623C77.6812 47.2931 77.557 47.4186 77.3995 47.5388C77.2446 47.6589 77.0577 47.7577 76.8388 47.8351C76.6198 47.9099 76.3702 47.9473 76.0898 47.9473ZM80.8679 46.6697C80.8679 46.5869 80.8439 46.5121 80.7958 46.4454C80.7478 46.3786 80.6583 46.3172 80.5275 46.2611C80.3993 46.2024 80.2138 46.149 79.9708 46.1009C79.7518 46.0529 79.5476 45.9928 79.358 45.9207C79.1711 45.8459 79.0082 45.7565 78.8694 45.6524C78.7332 45.5482 78.6264 45.4254 78.549 45.2839C78.4715 45.1397 78.4328 44.9755 78.4328 44.7913C78.4328 44.6097 78.4715 44.4388 78.549 44.2786C78.6291 44.1184 78.7426 43.9769 78.8894 43.8541C79.0389 43.7286 79.2205 43.6311 79.4341 43.5617C79.6504 43.4896 79.8933 43.4536 80.163 43.4536C80.5395 43.4536 80.8626 43.5136 81.1323 43.6338C81.4046 43.754 81.6129 43.9195 81.7571 44.1304C81.9039 44.3387 81.9773 44.5763 81.9773 44.8433H80.8239C80.8239 44.7312 80.7998 44.6311 80.7518 44.543C80.7064 44.4522 80.6343 44.3814 80.5355 44.3307C80.4394 44.2773 80.3139 44.2506 80.159 44.2506C80.0309 44.2506 79.92 44.2733 79.8266 44.3187C79.7331 44.3614 79.6611 44.4201 79.6103 44.4949C79.5623 44.567 79.5382 44.6471 79.5382 44.7352C79.5382 44.802 79.5516 44.862 79.5783 44.9154C79.6077 44.9662 79.6544 45.0129 79.7185 45.0556C79.7825 45.0983 79.8653 45.1384 79.9668 45.1758C80.0709 45.2105 80.1991 45.2425 80.3513 45.2719C80.6637 45.336 80.9427 45.4201 81.1883 45.5242C81.434 45.6257 81.6289 45.7645 81.7731 45.9407C81.9173 46.1143 81.9893 46.3426 81.9893 46.6256C81.9893 46.8179 81.9466 46.9941 81.8612 47.1543C81.7757 47.3145 81.6529 47.4547 81.4927 47.5748C81.3325 47.6923 81.1403 47.7844 80.916 47.8512C80.6944 47.9152 80.4447 47.9473 80.167 47.9473C79.7639 47.9473 79.4221 47.8752 79.1417 47.731C78.864 47.5868 78.6531 47.4039 78.5089 47.1823C78.3674 46.958 78.2967 46.7284 78.2967 46.4934H79.39C79.3954 46.651 79.4354 46.7778 79.5102 46.8739C79.5876 46.97 79.6851 47.0395 79.8026 47.0822C79.9227 47.1249 80.0522 47.1463 80.1911 47.1463C80.3406 47.1463 80.4647 47.1262 80.5635 47.0862C80.6623 47.0435 80.7371 46.9874 80.7878 46.918C80.8412 46.8459 80.8679 46.7631 80.8679 46.6697ZM83.9558 43.5337V47.8672H82.7984V43.5337H83.9558ZM82.7263 42.4042C82.7263 42.236 82.785 42.0972 82.9025 41.9877C83.02 41.8782 83.1775 41.8235 83.3751 41.8235C83.57 41.8235 83.7262 41.8782 83.8437 41.9877C83.9639 42.0972 84.0239 42.236 84.0239 42.4042C84.0239 42.5725 83.9639 42.7113 83.8437 42.8208C83.7262 42.9302 83.57 42.985 83.3751 42.985C83.1775 42.985 83.02 42.9302 82.9025 42.8208C82.785 42.7113 82.7263 42.5725 82.7263 42.4042ZM87.6526 43.5337H88.6979V47.723C88.6979 48.1182 88.6098 48.4533 88.4335 48.7283C88.26 49.006 88.017 49.2156 87.7046 49.3571C87.3922 49.5013 87.0291 49.5734 86.6152 49.5734C86.4337 49.5734 86.2414 49.5493 86.0385 49.5013C85.8382 49.4532 85.646 49.3784 85.4618 49.277C85.2802 49.1755 85.128 49.0474 85.0052 48.8925L85.5138 48.2116C85.6473 48.3665 85.8022 48.4866 85.9784 48.5721C86.1546 48.6602 86.3496 48.7043 86.5632 48.7043C86.7714 48.7043 86.9477 48.6655 87.0918 48.5881C87.236 48.5133 87.3468 48.4025 87.4243 48.2557C87.5017 48.1115 87.5404 47.9366 87.5404 47.731V44.5349L87.6526 43.5337ZM84.7368 45.7525V45.6684C84.7368 45.3373 84.7769 45.0369 84.857 44.7672C84.9398 44.4949 85.0559 44.2613 85.2054 44.0664C85.3576 43.8714 85.5419 43.7206 85.7581 43.6138C85.9744 43.507 86.2187 43.4536 86.4911 43.4536C86.7794 43.4536 87.0211 43.507 87.216 43.6138C87.4109 43.7206 87.5711 43.8728 87.6966 44.0704C87.8221 44.2653 87.9196 44.4962 87.989 44.7632C88.0611 45.0276 88.1171 45.3173 88.1572 45.6323V45.8166C88.1171 46.1183 88.0571 46.3987 87.977 46.6576C87.8969 46.9166 87.7914 47.1436 87.6606 47.3385C87.5297 47.5308 87.3669 47.6803 87.1719 47.7871C86.9797 47.8939 86.7501 47.9473 86.4831 47.9473C86.2161 47.9473 85.9744 47.8926 85.7581 47.7831C85.5445 47.6736 85.3616 47.5201 85.2094 47.3225C85.0573 47.1249 84.9398 46.8926 84.857 46.6256C84.7769 46.3586 84.7368 46.0676 84.7368 45.7525ZM85.8903 45.6684V45.7525C85.8903 45.9314 85.9077 46.0983 85.9424 46.2531C85.9771 46.408 86.0305 46.5455 86.1026 46.6657C86.1773 46.7831 86.2695 46.8753 86.3789 46.942C86.4911 47.0061 86.6232 47.0381 86.7754 47.0381C86.9864 47.0381 87.1586 46.9941 87.2921 46.906C87.4256 46.8152 87.5257 46.691 87.5925 46.5335C87.6592 46.376 87.6979 46.1944 87.7086 45.9888V45.4641C87.7033 45.2959 87.6806 45.1451 87.6405 45.0116C87.6005 44.8754 87.5444 44.7592 87.4723 44.6631C87.4002 44.567 87.3068 44.4922 87.192 44.4388C87.0772 44.3854 86.941 44.3587 86.7834 44.3587C86.6313 44.3587 86.4991 44.3934 86.3869 44.4629C86.2775 44.5296 86.1854 44.6217 86.1106 44.7392C86.0385 44.8567 85.9838 44.9955 85.9464 45.1557C85.909 45.3133 85.8903 45.4842 85.8903 45.6684ZM90.7245 44.4589V47.8672H89.571V43.5337H90.6524L90.7245 44.4589ZM90.5562 45.5482H90.2439C90.2439 45.2278 90.2852 44.9395 90.368 44.6831C90.4508 44.4241 90.5669 44.2039 90.7165 44.0223C90.866 43.8381 91.0435 43.6979 91.2491 43.6018C91.4574 43.503 91.6897 43.4536 91.946 43.4536C92.1489 43.4536 92.3345 43.4829 92.5027 43.5417C92.6709 43.6004 92.8151 43.6939 92.9353 43.822C93.0581 43.9502 93.1515 44.1198 93.2156 44.3307C93.2824 44.5416 93.3158 44.7993 93.3158 45.1037V47.8672H92.1543V45.0997C92.1543 44.9074 92.1276 44.7579 92.0742 44.6511C92.0208 44.5443 91.942 44.4695 91.8379 44.4268C91.7364 44.3814 91.6109 44.3587 91.4614 44.3587C91.3065 44.3587 91.1717 44.3894 91.0569 44.4508C90.9447 44.5123 90.8513 44.5977 90.7765 44.7072C90.7044 44.814 90.6497 44.9395 90.6123 45.0836C90.5749 45.2278 90.5562 45.3827 90.5562 45.5482ZM36.7077 57.8672H35.4381L35.4461 56.93H36.7077C37.0228 56.93 37.2885 56.8592 37.5047 56.7177C37.721 56.5735 37.8839 56.3639 37.9934 56.0889C38.1055 55.8139 38.1616 55.4815 38.1616 55.0917V54.8073C38.1616 54.5082 38.1295 54.2452 38.0655 54.0183C38.004 53.7913 37.9119 53.6004 37.7891 53.4456C37.6663 53.2907 37.5154 53.1746 37.3365 53.0971C37.1576 53.017 36.952 52.977 36.7197 52.977H35.4141V52.0358H36.7197C37.1096 52.0358 37.466 52.1025 37.7891 52.236C38.1149 52.3669 38.3965 52.5551 38.6342 52.8007C38.8718 53.0464 39.0547 53.3401 39.1829 53.6819C39.3137 54.021 39.3791 54.3988 39.3791 54.8153V55.0917C39.3791 55.5055 39.3137 55.8833 39.1829 56.2251C39.0547 56.5669 38.8718 56.8606 38.6342 57.1062C38.3992 57.3492 38.1175 57.5374 37.7891 57.6709C37.4634 57.8018 37.1029 57.8672 36.7077 57.8672ZM36.119 52.0358V57.8672H34.9175V52.0358H36.119ZM42.1747 57.9473C41.8383 57.9473 41.5365 57.8939 41.2695 57.7871C41.0025 57.6776 40.7756 57.5268 40.5887 57.3345C40.4044 57.1423 40.2629 56.9193 40.1641 56.6657C40.0653 56.4093 40.0159 56.137 40.0159 55.8486V55.6884C40.0159 55.36 40.0627 55.0596 40.1561 54.7873C40.2496 54.5149 40.3831 54.2786 40.5566 54.0784C40.7329 53.8781 40.9465 53.7246 41.1974 53.6178C41.4484 53.5083 41.7315 53.4536 42.0465 53.4536C42.3536 53.4536 42.6259 53.5043 42.8636 53.6058C43.1012 53.7072 43.3001 53.8514 43.4603 54.0383C43.6232 54.2252 43.746 54.4495 43.8288 54.7112C43.9116 54.9702 43.9529 55.2585 43.9529 55.5763V56.0569H40.5086V55.2879H42.8195V55.1998C42.8195 55.0396 42.7901 54.8967 42.7314 54.7712C42.6753 54.6431 42.5899 54.5416 42.4751 54.4669C42.3603 54.3921 42.2134 54.3547 42.0345 54.3547C41.8823 54.3547 41.7515 54.3881 41.642 54.4548C41.5325 54.5216 41.4431 54.615 41.3737 54.7352C41.3069 54.8554 41.2562 54.9969 41.2215 55.1597C41.1894 55.3199 41.1734 55.4962 41.1734 55.6884V55.8486C41.1734 56.0222 41.1974 56.1824 41.2455 56.3292C41.2962 56.4761 41.367 56.6029 41.4578 56.7097C41.5512 56.8165 41.6634 56.8993 41.7942 56.958C41.9277 57.0168 42.0786 57.0461 42.2468 57.0461C42.455 57.0461 42.6486 57.0061 42.8275 56.926C43.0091 56.8432 43.1653 56.7191 43.2961 56.5535L43.8568 57.1623C43.766 57.2931 43.6419 57.4186 43.4844 57.5388C43.3295 57.6589 43.1426 57.7577 42.9236 57.8351C42.7047 57.9099 42.455 57.9473 42.1747 57.9473ZM46.0276 57.0261L46.9888 53.5337H48.1943L46.7325 57.8672H46.0036L46.0276 57.0261ZM45.3667 53.5337L46.332 57.0301L46.352 57.8672H45.6191L44.1572 53.5337H45.3667ZM50.6495 57.9473C50.313 57.9473 50.0113 57.8939 49.7443 57.7871C49.4773 57.6776 49.2504 57.5268 49.0635 57.3345C48.8792 57.1423 48.7377 56.9193 48.6389 56.6657C48.5401 56.4093 48.4907 56.137 48.4907 55.8486V55.6884C48.4907 55.36 48.5374 55.0596 48.6309 54.7873C48.7244 54.5149 48.8579 54.2786 49.0314 54.0784C49.2076 53.8781 49.4212 53.7246 49.6722 53.6178C49.9232 53.5083 50.2062 53.4536 50.5213 53.4536C50.8284 53.4536 51.1007 53.5043 51.3383 53.6058C51.576 53.7072 51.7749 53.8514 51.9351 54.0383C52.098 54.2252 52.2208 54.4495 52.3036 54.7112C52.3863 54.9702 52.4277 55.2585 52.4277 55.5763V56.0569H48.9834V55.2879H51.2943V55.1998C51.2943 55.0396 51.2649 54.8967 51.2062 54.7712C51.1501 54.6431 51.0647 54.5416 50.9499 54.4669C50.835 54.3921 50.6882 54.3547 50.5093 54.3547C50.3571 54.3547 50.2263 54.3881 50.1168 54.4548C50.0073 54.5216 49.9179 54.615 49.8485 54.7352C49.7817 54.8554 49.731 54.9969 49.6963 55.1597C49.6642 55.3199 49.6482 55.4962 49.6482 55.6884V55.8486C49.6482 56.0222 49.6722 56.1824 49.7203 56.3292C49.771 56.4761 49.8418 56.6029 49.9326 56.7097C50.026 56.8165 50.1382 56.8993 50.269 56.958C50.4025 57.0168 50.5533 57.0461 50.7216 57.0461C50.9298 57.0461 51.1234 57.0061 51.3023 56.926C51.4839 56.8432 51.6401 56.7191 51.7709 56.5535L52.3316 57.1623C52.2408 57.2931 52.1167 57.4186 51.9591 57.5388C51.8043 57.6589 51.6174 57.7577 51.3984 57.8351C51.1795 57.9099 50.9298 57.9473 50.6495 57.9473ZM54.3021 51.7154V57.8672H53.1446V51.7154H54.3021ZM55.0711 55.7445V55.6604C55.0711 55.3426 55.1165 55.0503 55.2073 54.7833C55.2981 54.5136 55.4302 54.28 55.6038 54.0824C55.7773 53.8848 55.9909 53.7313 56.2446 53.6218C56.4982 53.5096 56.7893 53.4536 57.1177 53.4536C57.4461 53.4536 57.7385 53.5096 57.9948 53.6218C58.2511 53.7313 58.4661 53.8848 58.6396 54.0824C58.8159 54.28 58.9494 54.5136 59.0401 54.7833C59.1309 55.0503 59.1763 55.3426 59.1763 55.6604V55.7445C59.1763 56.0596 59.1309 56.3519 59.0401 56.6216C58.9494 56.8886 58.8159 57.1222 58.6396 57.3225C58.4661 57.5201 58.2525 57.6736 57.9988 57.7831C57.7452 57.8926 57.4541 57.9473 57.1257 57.9473C56.7973 57.9473 56.5049 57.8926 56.2486 57.7831C55.9949 57.6736 55.78 57.5201 55.6038 57.3225C55.4302 57.1222 55.2981 56.8886 55.2073 56.6216C55.1165 56.3519 55.0711 56.0596 55.0711 55.7445ZM56.2246 55.6604V55.7445C56.2246 55.9261 56.2406 56.0956 56.2726 56.2531C56.3047 56.4107 56.3554 56.5495 56.4248 56.6697C56.4969 56.7871 56.5904 56.8793 56.7052 56.946C56.82 57.0128 56.9602 57.0461 57.1257 57.0461C57.2859 57.0461 57.4234 57.0128 57.5382 56.946C57.653 56.8793 57.7452 56.7871 57.8146 56.6697C57.884 56.5495 57.9347 56.4107 57.9668 56.2531C58.0015 56.0956 58.0188 55.9261 58.0188 55.7445V55.6604C58.0188 55.4842 58.0015 55.3186 57.9668 55.1637C57.9347 55.0062 57.8827 54.8674 57.8106 54.7472C57.7412 54.6244 57.649 54.5283 57.5342 54.4589C57.4194 54.3894 57.2806 54.3547 57.1177 54.3547C56.9548 54.3547 56.816 54.3894 56.7012 54.4589C56.589 54.5283 56.4969 54.6244 56.4248 54.7472C56.3554 54.8674 56.3047 55.0062 56.2726 55.1637C56.2406 55.3186 56.2246 55.4842 56.2246 55.6604ZM61.0387 54.3667V59.5333H59.8852V53.5337H60.9546L61.0387 54.3667ZM63.7822 55.6524V55.7365C63.7822 56.0515 63.7448 56.3439 63.67 56.6136C63.5979 56.8833 63.4911 57.1182 63.3496 57.3185C63.2081 57.5161 63.0319 57.6709 62.821 57.7831C62.6127 57.8926 62.3724 57.9473 62.1 57.9473C61.8357 57.9473 61.6061 57.8939 61.4112 57.7871C61.2163 57.6803 61.052 57.5308 60.9185 57.3385C60.7877 57.1436 60.6822 56.918 60.6021 56.6617C60.522 56.4053 60.4606 56.1303 60.4179 55.8366V55.6163C60.4606 55.3013 60.522 55.0129 60.6021 54.7512C60.6822 54.4869 60.7877 54.2586 60.9185 54.0664C61.052 53.8714 61.2149 53.7206 61.4072 53.6138C61.6021 53.507 61.8304 53.4536 62.092 53.4536C62.367 53.4536 62.6087 53.5056 62.817 53.6098C63.0279 53.7139 63.2041 53.8634 63.3456 54.0583C63.4898 54.2533 63.5979 54.4856 63.67 54.7552C63.7448 55.0249 63.7822 55.324 63.7822 55.6524ZM62.6247 55.7365V55.6524C62.6247 55.4681 62.6087 55.2986 62.5766 55.1437C62.5473 54.9862 62.4992 54.8487 62.4325 54.7312C62.3684 54.6137 62.2829 54.5229 62.1761 54.4589C62.072 54.3921 61.9452 54.3587 61.7957 54.3587C61.6381 54.3587 61.5033 54.3841 61.3911 54.4348C61.2817 54.4856 61.1922 54.559 61.1228 54.6551C61.0534 54.7512 61.0013 54.866 60.9666 54.9995C60.9319 55.133 60.9105 55.2839 60.9025 55.4521V56.0088C60.9159 56.2064 60.9532 56.384 61.0147 56.5415C61.0761 56.6964 61.1709 56.8192 61.299 56.91C61.4272 57.0008 61.5954 57.0461 61.8037 57.0461C61.9559 57.0461 62.084 57.0128 62.1882 56.946C62.2923 56.8766 62.3764 56.7818 62.4405 56.6617C62.5072 56.5415 62.554 56.4027 62.5807 56.2451C62.61 56.0876 62.6247 55.918 62.6247 55.7365ZM65.6526 54.4308V57.8672H64.4951V53.5337H65.5805L65.6526 54.4308ZM65.4924 55.5482H65.1719C65.1719 55.2465 65.208 54.9688 65.2801 54.7152C65.3548 54.4589 65.463 54.2372 65.6045 54.0503C65.7487 53.8608 65.9262 53.7139 66.1372 53.6098C66.3481 53.5056 66.5924 53.4536 66.8701 53.4536C67.0624 53.4536 67.2386 53.4829 67.3988 53.5417C67.559 53.5978 67.6965 53.6872 67.8113 53.81C67.9288 53.9302 68.0196 54.0877 68.0837 54.2826C68.1477 54.4749 68.1798 54.7058 68.1798 54.9755V57.8672H67.0263V55.1037C67.0263 54.9061 66.9996 54.7539 66.9462 54.6471C66.8928 54.5403 66.8167 54.4655 66.7179 54.4228C66.6218 54.3801 66.5056 54.3587 66.3695 54.3587C66.2199 54.3587 66.0891 54.3894 65.977 54.4508C65.8675 54.5123 65.7767 54.5977 65.7046 54.7072C65.6325 54.814 65.5791 54.9395 65.5444 55.0836C65.5097 55.2278 65.4924 55.3827 65.4924 55.5482ZM68.0716 55.4161L67.6591 55.4681C67.6591 55.1851 67.6938 54.9221 67.7632 54.6791C67.8353 54.4362 67.9408 54.2226 68.0796 54.0383C68.2212 53.8541 68.3961 53.7112 68.6043 53.6098C68.8126 53.5056 69.0529 53.4536 69.3252 53.4536C69.5335 53.4536 69.7231 53.4843 69.894 53.5457C70.0648 53.6044 70.2104 53.6992 70.3305 53.8301C70.4533 53.9582 70.5468 54.1264 70.6109 54.3347C70.6776 54.543 70.711 54.7979 70.711 55.0997V57.8672H69.5535V55.0997C69.5535 54.8994 69.5268 54.7472 69.4734 54.6431C69.4227 54.5363 69.3479 54.4629 69.2491 54.4228C69.153 54.3801 69.0382 54.3587 68.9047 54.3587C68.7659 54.3587 68.6444 54.3868 68.5402 54.4428C68.4361 54.4962 68.3493 54.571 68.2799 54.6671C68.2105 54.7632 68.1584 54.8754 68.1237 55.0035C68.089 55.129 68.0716 55.2665 68.0716 55.4161ZM73.5987 57.9473C73.2622 57.9473 72.9605 57.8939 72.6935 57.7871C72.4265 57.6776 72.1996 57.5268 72.0127 57.3345C71.8284 57.1423 71.6869 56.9193 71.5881 56.6657C71.4893 56.4093 71.4399 56.137 71.4399 55.8486V55.6884C71.4399 55.36 71.4867 55.0596 71.5801 54.7873C71.6736 54.5149 71.8071 54.2786 71.9806 54.0784C72.1568 53.8781 72.3704 53.7246 72.6214 53.6178C72.8724 53.5083 73.1554 53.4536 73.4705 53.4536C73.7776 53.4536 74.0499 53.5043 74.2875 53.6058C74.5252 53.7072 74.7241 53.8514 74.8843 54.0383C75.0472 54.2252 75.17 54.4495 75.2528 54.7112C75.3355 54.9702 75.3769 55.2585 75.3769 55.5763V56.0569H71.9326V55.2879H74.2435V55.1998C74.2435 55.0396 74.2141 54.8967 74.1554 54.7712C74.0993 54.6431 74.0139 54.5416 73.8991 54.4669C73.7842 54.3921 73.6374 54.3547 73.4585 54.3547C73.3063 54.3547 73.1755 54.3881 73.066 54.4548C72.9565 54.5216 72.8671 54.615 72.7977 54.7352C72.7309 54.8554 72.6802 54.9969 72.6455 55.1597C72.6134 55.3199 72.5974 55.4962 72.5974 55.6884V55.8486C72.5974 56.0222 72.6214 56.1824 72.6695 56.3292C72.7202 56.4761 72.791 56.6029 72.8818 56.7097C72.9752 56.8165 73.0874 56.8993 73.2182 56.958C73.3517 57.0168 73.5025 57.0461 73.6708 57.0461C73.879 57.0461 74.0726 57.0061 74.2515 56.926C74.4331 56.8432 74.5893 56.7191 74.7201 56.5535L75.2808 57.1623C75.19 57.2931 75.0659 57.4186 74.9083 57.5388C74.7535 57.6589 74.5666 57.7577 74.3476 57.8351C74.1287 57.9099 73.879 57.9473 73.5987 57.9473ZM77.1632 54.4589V57.8672H76.0097V53.5337H77.0911L77.1632 54.4589ZM76.995 55.5482H76.6826C76.6826 55.2278 76.724 54.9395 76.8068 54.6831C76.8895 54.4241 77.0057 54.2039 77.1552 54.0223C77.3047 53.8381 77.4823 53.6979 77.6879 53.6018C77.8961 53.503 78.1284 53.4536 78.3848 53.4536C78.5877 53.4536 78.7733 53.4829 78.9415 53.5417C79.1097 53.6004 79.2539 53.6939 79.374 53.822C79.4968 53.9502 79.5903 54.1198 79.6544 54.3307C79.7211 54.5416 79.7545 54.7993 79.7545 55.1037V57.8672H78.593V55.0997C78.593 54.9074 78.5663 54.7579 78.5129 54.6511C78.4595 54.5443 78.3808 54.4695 78.2766 54.4268C78.1752 54.3814 78.0497 54.3587 77.9001 54.3587C77.7453 54.3587 77.6104 54.3894 77.4956 54.4508C77.3835 54.5123 77.29 54.5977 77.2153 54.7072C77.1432 54.814 77.0884 54.9395 77.0511 55.0836C77.0137 55.2278 76.995 55.3827 76.995 55.5482ZM82.7543 53.5337V54.3507H80.2311V53.5337H82.7543ZM80.8559 52.4643H82.0094V56.5615C82.0094 56.687 82.0254 56.7831 82.0574 56.8499C82.0921 56.9166 82.1429 56.9634 82.2096 56.9901C82.2764 57.0141 82.3605 57.0261 82.4619 57.0261C82.534 57.0261 82.5981 57.0234 82.6542 57.0181C82.7129 57.0101 82.7623 57.0021 82.8024 56.9941L82.8064 57.8432C82.7076 57.8752 82.6008 57.9006 82.486 57.9193C82.3712 57.9379 82.2443 57.9473 82.1055 57.9473C81.8518 57.9473 81.6302 57.9059 81.4406 57.8231C81.2537 57.7377 81.1096 57.6015 81.0081 57.4146C80.9066 57.2277 80.8559 56.9821 80.8559 56.6777V52.4643Z" fill="#112244"/>
<path d="M47.0382 68.7814V73.7109H46.0259V68.7814H47.0382ZM48.555 68.7814V69.577H44.5328V68.7814H48.555ZM53.0885 71.131V71.3646C53.0885 71.7393 53.0377 72.0756 52.9361 72.3736C52.8346 72.6715 52.6912 72.9255 52.5061 73.1354C52.3211 73.343 52.0999 73.5022 51.8425 73.6128C51.5875 73.7234 51.3042 73.7787 50.9927 73.7787C50.6835 73.7787 50.4002 73.7234 50.1429 73.6128C49.8879 73.5022 49.6667 73.343 49.4793 73.1354C49.292 72.9255 49.1464 72.6715 49.0426 72.3736C48.941 72.0756 48.8902 71.7393 48.8902 71.3646V71.131C48.8902 70.7541 48.941 70.4178 49.0426 70.1221C49.1441 69.8242 49.2875 69.5702 49.4726 69.3603C49.6599 69.1504 49.8811 68.9901 50.1362 68.8795C50.3935 68.7689 50.6767 68.7136 50.986 68.7136C51.2974 68.7136 51.5807 68.7689 51.8358 68.8795C52.0931 68.9901 52.3143 69.1504 52.4994 69.3603C52.6867 69.5702 52.8312 69.8242 52.9327 70.1221C53.0366 70.4178 53.0885 70.7541 53.0885 71.131ZM52.0626 71.3646V71.1243C52.0626 70.8624 52.0389 70.6322 51.9915 70.4336C51.9441 70.235 51.8741 70.0679 51.7816 69.9325C51.6891 69.7971 51.5762 69.6955 51.443 69.6278C51.3099 69.5578 51.1575 69.5228 50.986 69.5228C50.8144 69.5228 50.6621 69.5578 50.5289 69.6278C50.398 69.6955 50.2862 69.7971 50.1937 69.9325C50.1034 70.0679 50.0346 70.235 49.9872 70.4336C49.9398 70.6322 49.9161 70.8624 49.9161 71.1243V71.3646C49.9161 71.6242 49.9398 71.8544 49.9872 72.0553C50.0346 72.254 50.1046 72.4221 50.1971 72.5598C50.2896 72.6952 50.4025 72.7979 50.5357 72.8679C50.6688 72.9379 50.8212 72.9729 50.9927 72.9729C51.1643 72.9729 51.3166 72.9379 51.4498 72.8679C51.583 72.7979 51.6947 72.6952 51.785 72.5598C51.8753 72.4221 51.9441 72.254 51.9915 72.0553C52.0389 71.8544 52.0626 71.6242 52.0626 71.3646ZM55.7395 71.9538H54.4834V71.1615H55.7395C55.9336 71.1615 56.0916 71.1299 56.2135 71.0667C56.3354 71.0013 56.4245 70.911 56.4809 70.7959C56.5374 70.6807 56.5656 70.551 56.5656 70.4065C56.5656 70.2598 56.5374 70.1232 56.4809 69.9968C56.4245 69.8704 56.3354 69.7689 56.2135 69.6921C56.0916 69.6154 55.9336 69.577 55.7395 69.577H54.8355V73.7109H53.8198V68.7814H55.7395C56.1255 68.7814 56.4561 68.8513 56.7315 68.9913C57.0091 69.129 57.2213 69.3197 57.368 69.5635C57.5147 69.8072 57.5881 70.086 57.5881 70.3997C57.5881 70.718 57.5147 70.9934 57.368 71.2258C57.2213 71.4583 57.0091 71.6378 56.7315 71.7642C56.4561 71.8906 56.1255 71.9538 55.7395 71.9538ZM62.2908 68.7712V73.7109H61.3157V69.8953L60.1443 70.2677V69.4991L62.1859 68.7712H62.2908ZM67.2136 70.8128V71.666C67.2136 72.0361 67.1741 72.3555 67.0951 72.6241C67.0161 72.8905 66.9021 73.1094 66.7532 73.281C66.6064 73.4502 66.4315 73.5755 66.2284 73.6568C66.0252 73.738 65.7995 73.7787 65.5512 73.7787C65.3526 73.7787 65.1675 73.7538 64.996 73.7042C64.8244 73.6523 64.6698 73.5721 64.5321 73.4638C64.3967 73.3554 64.2793 73.2189 64.18 73.0541C64.083 72.8871 64.0085 72.6885 63.9566 72.4582C63.9047 72.228 63.8787 71.9639 63.8787 71.666V70.8128C63.8787 70.4426 63.9182 70.1255 63.9972 69.8614C64.0785 69.5951 64.1924 69.3772 64.3392 69.208C64.4881 69.0387 64.6642 68.9145 64.8673 68.8355C65.0705 68.7543 65.2962 68.7136 65.5445 68.7136C65.7431 68.7136 65.927 68.7396 66.0963 68.7915C66.2679 68.8412 66.4225 68.919 66.5602 69.0251C66.6979 69.1312 66.8152 69.2678 66.9123 69.4348C67.0093 69.5996 67.0838 69.7971 67.1357 70.0273C67.1877 70.2553 67.2136 70.5171 67.2136 70.8128ZM66.2351 71.7946V70.6807C66.2351 70.5024 66.225 70.3467 66.2047 70.2135C66.1866 70.0803 66.1584 69.9675 66.12 69.8749C66.0817 69.7801 66.0343 69.7034 65.9778 69.6447C65.9214 69.586 65.8571 69.5431 65.7848 69.5161C65.7126 69.489 65.6325 69.4754 65.5445 69.4754C65.4339 69.4754 65.3357 69.4969 65.2499 69.5398C65.1664 69.5826 65.0953 69.6515 65.0366 69.7463C64.9779 69.8388 64.9328 69.963 64.9012 70.1187C64.8718 70.2722 64.8572 70.4595 64.8572 70.6807V71.7946C64.8572 71.9729 64.8662 72.1298 64.8843 72.2652C64.9046 72.4007 64.9339 72.5169 64.9723 72.614C65.0129 72.7088 65.0603 72.7866 65.1145 72.8476C65.1709 72.9063 65.2352 72.9492 65.3075 72.9762C65.382 73.0033 65.4632 73.0169 65.5512 73.0169C65.6596 73.0169 65.7555 72.9954 65.839 72.9525C65.9248 72.9074 65.997 72.8374 66.0557 72.7426C66.1166 72.6456 66.1618 72.5192 66.1911 72.3634C66.2205 72.2077 66.2351 72.0181 66.2351 71.7946ZM67.8637 69.9901V69.7294C67.8637 69.542 67.9043 69.3716 67.9856 69.2181C68.0668 69.0646 68.1864 68.9416 68.3444 68.8491C68.5024 68.7565 68.6965 68.7103 68.9268 68.7103C69.1638 68.7103 69.3613 68.7565 69.5193 68.8491C69.6795 68.9416 69.7992 69.0646 69.8782 69.2181C69.9594 69.3716 70 69.542 70 69.7294V69.9901C70 70.1729 69.9594 70.341 69.8782 70.4945C69.7992 70.648 69.6807 70.771 69.5227 70.8636C69.3647 70.9561 69.1683 71.0024 68.9335 71.0024C68.7011 71.0024 68.5047 70.9561 68.3444 70.8636C68.1864 70.771 68.0668 70.648 67.9856 70.4945C67.9043 70.341 67.8637 70.1729 67.8637 69.9901ZM68.5103 69.7294V69.9901C68.5103 70.0691 68.525 70.1447 68.5543 70.2169C68.5859 70.2869 68.6333 70.3444 68.6965 70.3896C68.762 70.4325 68.841 70.4539 68.9335 70.4539C69.0306 70.4539 69.1096 70.4325 69.1705 70.3896C69.2315 70.3444 69.2766 70.2869 69.306 70.2169C69.3353 70.1447 69.35 70.0691 69.35 69.9901V69.7294C69.35 69.6458 69.3342 69.5691 69.3026 69.4991C69.2732 69.4269 69.227 69.3693 69.1638 69.3265C69.1028 69.2813 69.0238 69.2587 68.9268 69.2587C68.8365 69.2587 68.7597 69.2813 68.6965 69.3265C68.6333 69.3693 68.5859 69.4269 68.5543 69.4991C68.525 69.5691 68.5103 69.6458 68.5103 69.7294ZM70.2201 72.7629V72.5022C70.2201 72.3172 70.2607 72.1479 70.342 71.9944C70.4255 71.8409 70.5463 71.7179 70.7043 71.6253C70.8645 71.5328 71.0609 71.4865 71.2934 71.4865C71.5281 71.4865 71.7245 71.5328 71.8825 71.6253C72.0405 71.7179 72.1601 71.8409 72.2414 71.9944C72.3226 72.1479 72.3633 72.3172 72.3633 72.5022V72.7629C72.3633 72.948 72.3226 73.1173 72.2414 73.2708C72.1624 73.4243 72.0439 73.5473 71.8859 73.6398C71.7279 73.7324 71.5326 73.7787 71.3002 73.7787C71.0654 73.7787 70.8679 73.7324 70.7077 73.6398C70.5474 73.5473 70.4255 73.4243 70.342 73.2708C70.2607 73.1173 70.2201 72.948 70.2201 72.7629ZM70.8702 72.5022V72.7629C70.8702 72.8442 70.8882 72.9209 70.9243 72.9932C70.9605 73.0654 71.0101 73.123 71.0733 73.1658C71.1388 73.2087 71.2144 73.2302 71.3002 73.2302C71.4085 73.2302 71.4931 73.2087 71.5541 73.1658C71.615 73.123 71.6568 73.0654 71.6793 72.9932C71.7042 72.9209 71.7166 72.8442 71.7166 72.7629V72.5022C71.7166 72.421 71.7008 72.3454 71.6692 72.2754C71.6376 72.2032 71.5902 72.1456 71.527 72.1027C71.466 72.0576 71.3882 72.035 71.2934 72.035C71.1986 72.035 71.1196 72.0576 71.0564 72.1027C70.9954 72.1456 70.9492 72.2032 70.9176 72.2754C70.886 72.3454 70.8702 72.421 70.8702 72.5022ZM71.5338 69.4856L69.1265 73.3385L68.6525 73.088L71.0598 69.235L71.5338 69.4856Z" fill="#112244"/>
<path d="M55.9474 95.7607V96.332H53.4183V95.8445L54.6143 94.5622C54.7345 94.4284 54.8293 94.3108 54.8987 94.2092C54.9681 94.1059 55.018 94.0137 55.0485 93.9324C55.0807 93.8495 55.0967 93.7708 55.0967 93.6963C55.0967 93.5845 55.0781 93.4889 55.0409 93.4093C55.0036 93.3281 54.9486 93.2654 54.8758 93.2214C54.8047 93.1774 54.7167 93.1554 54.6117 93.1554C54.5 93.1554 54.4035 93.1825 54.3223 93.2367C54.2427 93.2908 54.1817 93.3662 54.1394 93.4627C54.0988 93.5591 54.0785 93.6683 54.0785 93.7902H53.3446C53.3446 93.5701 53.3971 93.3687 53.5021 93.1859C53.607 93.0014 53.7552 92.8549 53.9464 92.7466C54.1377 92.6365 54.3646 92.5815 54.627 92.5815C54.886 92.5815 55.1044 92.6238 55.2821 92.7085C55.4615 92.7914 55.597 92.9116 55.6884 93.0691C55.7815 93.2248 55.828 93.411 55.828 93.6277C55.828 93.7496 55.8086 93.8689 55.7696 93.9857C55.7307 94.1009 55.6748 94.216 55.602 94.3311C55.5309 94.4445 55.4446 94.5596 55.343 94.6764C55.2415 94.7932 55.1289 94.9143 55.0053 95.0395L54.3629 95.7607H55.9474ZM58.8929 94.1584V94.7983C58.8929 95.0759 58.8633 95.3155 58.8041 95.5169C58.7448 95.7167 58.6593 95.8809 58.5476 96.0095C58.4376 96.1365 58.3064 96.2305 58.154 96.2914C58.0017 96.3523 57.8324 96.3828 57.6462 96.3828C57.4972 96.3828 57.3584 96.3642 57.2297 96.327C57.1011 96.288 56.9851 96.2279 56.8818 96.1467C56.7803 96.0654 56.6922 95.963 56.6178 95.8394C56.545 95.7141 56.4891 95.5652 56.4502 95.3925C56.4112 95.2198 56.3918 95.0218 56.3918 94.7983V94.1584C56.3918 93.8808 56.4214 93.6429 56.4806 93.4449C56.5416 93.2451 56.6271 93.0818 56.7371 92.9548C56.8488 92.8278 56.9809 92.7347 57.1332 92.6755C57.2856 92.6145 57.4549 92.5841 57.6411 92.5841C57.7901 92.5841 57.928 92.6035 58.055 92.6425C58.1836 92.6797 58.2996 92.7381 58.4029 92.8177C58.5061 92.8972 58.5942 92.9997 58.667 93.1249C58.7397 93.2485 58.7956 93.3966 58.8345 93.5693C58.8735 93.7403 58.8929 93.9366 58.8929 94.1584ZM58.1591 94.8948V94.0594C58.1591 93.9256 58.1515 93.8088 58.1362 93.709C58.1227 93.6091 58.1015 93.5244 58.0728 93.455C58.044 93.3839 58.0084 93.3264 57.9661 93.2824C57.9238 93.2383 57.8755 93.2062 57.8214 93.1859C57.7672 93.1656 57.7071 93.1554 57.6411 93.1554C57.5581 93.1554 57.4845 93.1715 57.4202 93.2036C57.3575 93.2358 57.3042 93.2874 57.2602 93.3585C57.2162 93.4279 57.1823 93.5211 57.1586 93.6379C57.1366 93.753 57.1256 93.8935 57.1256 94.0594V94.8948C57.1256 95.0285 57.1324 95.1462 57.1459 95.2478C57.1612 95.3493 57.1832 95.4365 57.2119 95.5093C57.2424 95.5804 57.278 95.6388 57.3186 95.6845C57.3609 95.7285 57.4092 95.7607 57.4633 95.781C57.5192 95.8013 57.5801 95.8115 57.6462 95.8115C57.7274 95.8115 57.7994 95.7954 57.862 95.7632C57.9263 95.7294 57.9805 95.6769 58.0245 95.6058C58.0702 95.533 58.1041 95.4382 58.1261 95.3214C58.1481 95.2046 58.1591 95.0624 58.1591 94.8948ZM61.9198 95.7607V96.332H59.3906V95.8445L60.5866 94.5622C60.7068 94.4284 60.8016 94.3108 60.871 94.2092C60.9404 94.1059 60.9904 94.0137 61.0209 93.9324C61.053 93.8495 61.0691 93.7708 61.0691 93.6963C61.0691 93.5845 61.0505 93.4889 61.0132 93.4093C60.976 93.3281 60.921 93.2654 60.8482 93.2214C60.7771 93.1774 60.6891 93.1554 60.5841 93.1554C60.4724 93.1554 60.3759 93.1825 60.2946 93.2367C60.2151 93.2908 60.1541 93.3662 60.1118 93.4627C60.0712 93.5591 60.0509 93.6683 60.0509 93.7902H59.317C59.317 93.5701 59.3695 93.3687 59.4744 93.1859C59.5794 93.0014 59.7275 92.8549 59.9188 92.7466C60.1101 92.6365 60.3369 92.5815 60.5993 92.5815C60.8583 92.5815 61.0767 92.6238 61.2545 92.7085C61.4339 92.7914 61.5693 92.9116 61.6608 93.0691C61.7539 93.2248 61.8004 93.411 61.8004 93.6277C61.8004 93.7496 61.7809 93.8689 61.742 93.9857C61.7031 94.1009 61.6472 94.216 61.5744 94.3311C61.5033 94.4445 61.417 94.5596 61.3154 94.6764C61.2138 94.7932 61.1013 94.9143 60.9777 95.0395L60.3353 95.7607H61.9198ZM63.065 94.6485L62.4809 94.5088L62.6917 92.6348H64.7688V93.2265H63.2935L63.2021 94.0467C63.2512 94.0179 63.3257 93.9874 63.4256 93.9553C63.5254 93.9214 63.6372 93.9045 63.7607 93.9045C63.9402 93.9045 64.0993 93.9324 64.2381 93.9883C64.3769 94.0441 64.4946 94.1254 64.5911 94.2321C64.6893 94.3387 64.7637 94.4691 64.8145 94.6231C64.8653 94.7771 64.8907 94.9515 64.8907 95.1462C64.8907 95.3104 64.8653 95.467 64.8145 95.616C64.7637 95.7632 64.6867 95.8953 64.5835 96.0121C64.4802 96.1272 64.3507 96.2178 64.195 96.2838C64.0392 96.3498 63.8547 96.3828 63.6414 96.3828C63.4823 96.3828 63.3282 96.3591 63.1792 96.3117C63.032 96.2643 62.8991 96.1941 62.7806 96.101C62.6638 96.0079 62.5698 95.8953 62.4987 95.7632C62.4293 95.6295 62.3929 95.4771 62.3895 95.3062H63.1158C63.1259 95.4111 63.153 95.5017 63.197 95.5779C63.2427 95.6524 63.3028 95.7099 63.3773 95.7505C63.4518 95.7912 63.539 95.8115 63.6389 95.8115C63.732 95.8115 63.8115 95.7937 63.8775 95.7582C63.9436 95.7226 63.9969 95.6735 64.0375 95.6109C64.0781 95.5465 64.1078 95.4721 64.1264 95.3874C64.1467 95.3011 64.1569 95.208 64.1569 95.1081C64.1569 95.0082 64.145 94.9177 64.1213 94.8364C64.0976 94.7551 64.0612 94.6849 64.0121 94.6256C63.963 94.5664 63.9004 94.5207 63.8242 94.4885C63.7497 94.4564 63.6626 94.4403 63.5627 94.4403C63.4272 94.4403 63.3223 94.4614 63.2478 94.5038C63.175 94.5461 63.1141 94.5943 63.065 94.6485Z" fill="#112244"/>
</g>
<defs>
<linearGradient id="paint0_linear_1736_1415" x1="58.0677" y1="0.914062" x2="58.0677" y2="100.914" gradientUnits="userSpaceOnUse">
<stop stop-color="#899FB6"/>
<stop offset="1" stop-color="#E6EFF7"/>
</linearGradient>
<linearGradient id="paint1_linear_1736_1415" x1="16.8288" y1="0.914062" x2="16.8288" y2="50.9682" gradientUnits="userSpaceOnUse">
<stop stop-color="#899FB6"/>
<stop offset="1" stop-color="#E6EFF7"/>
</linearGradient>
<linearGradient id="paint2_linear_1736_1415" x1="17.2415" y1="50.9688" x2="17.2415" y2="100.915" gradientUnits="userSpaceOnUse">
<stop stop-color="#899FB6"/>
<stop offset="1" stop-color="#E6EFF7"/>
</linearGradient>
<linearGradient id="paint3_linear_1736_1415" x1="99.4155" y1="0.914062" x2="99.4155" y2="50.9682" gradientUnits="userSpaceOnUse">
<stop stop-color="#899FB6"/>
<stop offset="1" stop-color="#E6EFF7"/>
</linearGradient>
<linearGradient id="paint4_linear_1736_1415" x1="98.8312" y1="50.9688" x2="98.8312" y2="100.915" gradientUnits="userSpaceOnUse">
<stop stop-color="#899FB6"/>
<stop offset="1" stop-color="#E6EFF7"/>
</linearGradient>
<linearGradient id="paint5_linear_1736_1415" x1="40.4628" y1="0.914062" x2="40.4628" y2="37.7476" gradientUnits="userSpaceOnUse">
<stop stop-color="#899FB6"/>
<stop offset="1" stop-color="#E6EFF7"/>
</linearGradient>
<linearGradient id="paint6_linear_1736_1415" x1="75.892" y1="0.914062" x2="75.892" y2="37.7476" gradientUnits="userSpaceOnUse">
<stop stop-color="#899FB6"/>
<stop offset="1" stop-color="#E6EFF7"/>
</linearGradient>
<linearGradient id="paint7_linear_1736_1415" x1="40.7855" y1="65.8555" x2="40.7855" y2="100.914" gradientUnits="userSpaceOnUse">
<stop stop-color="#899FB6"/>
<stop offset="1" stop-color="#E6EFF7"/>
</linearGradient>
<linearGradient id="paint8_linear_1736_1415" x1="40.787" y1="65.8567" x2="40.787" y2="100.915" gradientUnits="userSpaceOnUse">
<stop stop-color="#899FB6"/>
<stop offset="1" stop-color="#E6EFF7"/>
</linearGradient>
<linearGradient id="paint9_linear_1736_1415" x1="57.9502" y1="13.9531" x2="57.9502" y2="87.9419" gradientUnits="userSpaceOnUse">
<stop stop-color="#02A9F9"/>
<stop offset="1" stop-color="#CFE0A9"/>
</linearGradient>
<linearGradient id="paint10_linear_1736_1415" x1="58.0667" y1="14.0234" x2="58.0667" y2="87.8046" gradientUnits="userSpaceOnUse">
<stop stop-color="#899FB6"/>
<stop offset="1" stop-color="#E6EFF7"/>
</linearGradient>
<clipPath id="clip0_1736_1415">
<rect width="115.71" height="100" fill="white" transform="translate(0.212891 0.914062)"/>
</clipPath>
</defs>
</svg>
