<svg width="179" height="29" viewBox="0 0 179 29" fill="none" xmlns="http://www.w3.org/2000/svg">
<g clip-path="url(#clip0_3925_20609)">
<path d="M38.5624 22.4035C36.0853 22.4035 34.1231 21.6395 32.6758 20.1113L34.2831 17.7758C35.4799 19.0733 36.955 19.7221 38.7085 19.7221C39.4739 19.7221 40.0653 19.5707 40.4828 19.2679C40.9142 18.9508 41.1299 18.5687 41.1299 18.1218C41.1299 17.7326 40.9281 17.4082 40.5246 17.1487C40.1349 16.8892 39.6409 16.7018 39.0425 16.5865C38.458 16.4711 37.8178 16.3053 37.122 16.0891C36.4262 15.8728 35.7791 15.6278 35.1807 15.3539C34.5962 15.0799 34.1022 14.6474 33.6986 14.0564C33.309 13.4653 33.1141 12.7445 33.1141 11.8939C33.1141 10.6541 33.5943 9.61607 34.5545 8.77991C35.5147 7.92933 36.795 7.50405 38.3954 7.50405C40.6081 7.50405 42.4172 8.17442 43.8227 9.51515L42.1736 11.7641C41.0742 10.7117 39.7244 10.1855 38.124 10.1855C37.4978 10.1855 37.0107 10.3153 36.6628 10.5748C36.3149 10.8343 36.1409 11.1875 36.1409 11.6344C36.1409 11.9804 36.3358 12.2759 36.7254 12.521C37.129 12.7517 37.623 12.9247 38.2075 13.04C38.8059 13.1553 39.446 13.3283 40.1279 13.559C40.8238 13.7752 41.4639 14.0275 42.0484 14.3159C42.6468 14.5898 43.1408 15.0295 43.5305 15.635C43.934 16.2261 44.1358 16.9397 44.1358 17.7758C44.1358 19.1598 43.6557 20.2771 42.6955 21.1277C41.7492 21.9782 40.3715 22.4035 38.5624 22.4035Z" fill="white"/>
<path d="M57.9684 20.7817C56.9108 21.8629 55.3521 22.4035 53.2925 22.4035C51.2329 22.4035 49.6673 21.8629 48.5958 20.7817C47.5381 19.686 47.0093 18.2227 47.0093 16.3918V7.72029H50.0152V16.2837C50.0152 17.3217 50.3005 18.1507 50.8711 18.7706C51.4417 19.3761 52.2488 19.6788 53.2925 19.6788C54.3362 19.6788 55.1364 19.3761 55.6931 18.7706C56.2636 18.1507 56.5489 17.3217 56.5489 16.2837V7.72029H59.5757V16.3702C59.5757 18.2299 59.0399 19.7004 57.9684 20.7817Z" fill="white"/>
<path d="M78.2885 22.144H75.3034V12.0453L71.3791 22.144H70.0848L66.1605 12.0453V22.144H63.1963V7.72029H67.3503L70.7319 16.4351L74.1136 7.72029H78.2885V22.144Z" fill="white"/>
<path d="M94.9153 22.144H91.5336L90.6778 19.7004H84.7077L83.831 22.144H80.4493L85.8349 7.72029H89.5506L94.9153 22.144ZM89.8637 16.9973L87.6927 10.791L85.5218 16.9973H89.8637Z" fill="white"/>
<path d="M101.933 22.144H98.948V10.4234H94.8774V7.72029H105.983V10.4234H101.933V22.144Z" fill="white"/>
<path d="M114.847 22.4035C112.746 22.4035 111.006 21.7043 109.629 20.3059C108.265 18.8931 107.583 17.1055 107.583 14.943C107.583 12.7805 108.265 11.0001 109.629 9.60165C111.006 8.18883 112.746 7.48242 114.847 7.48242C116.963 7.48242 118.702 8.18162 120.066 9.58003C121.444 10.9784 122.132 12.7661 122.132 14.943C122.132 17.1199 121.444 18.9075 120.066 20.3059C118.702 21.7043 116.963 22.4035 114.847 22.4035ZM111.779 18.3381C112.558 19.2319 113.581 19.6788 114.847 19.6788C116.114 19.6788 117.136 19.2319 117.916 18.3381C118.695 17.4442 119.085 16.3126 119.085 14.943C119.085 13.5734 118.695 12.4417 117.916 11.5479C117.136 10.6541 116.114 10.2071 114.847 10.2071C113.581 10.2071 112.558 10.6541 111.779 11.5479C111.013 12.4417 110.631 13.5734 110.631 14.943C110.631 16.3126 111.013 17.4442 111.779 18.3381Z" fill="white"/>
<path d="M130.037 22.4035C127.56 22.4035 125.598 21.6395 124.151 20.1113L125.758 17.7758C126.955 19.0733 128.43 19.7221 130.184 19.7221C130.949 19.7221 131.54 19.5707 131.958 19.2679C132.389 18.9508 132.605 18.5687 132.605 18.1218C132.605 17.7326 132.403 17.4082 132 17.1487C131.61 16.8892 131.116 16.7018 130.518 16.5865C129.933 16.4711 129.293 16.3053 128.597 16.0891C127.901 15.8728 127.254 15.6278 126.656 15.3539C126.071 15.0799 125.577 14.6474 125.174 14.0564C124.784 13.4653 124.589 12.7445 124.589 11.8939C124.589 10.6541 125.069 9.61607 126.03 8.77991C126.99 7.92933 128.27 7.50405 129.87 7.50405C132.083 7.50405 133.892 8.17442 135.298 9.51515L133.649 11.7641C132.549 10.7117 131.199 10.1855 129.599 10.1855C128.973 10.1855 128.486 10.3153 128.138 10.5748C127.79 10.8343 127.616 11.1875 127.616 11.6344C127.616 11.9804 127.811 12.2759 128.201 12.521C128.604 12.7517 129.098 12.9247 129.683 13.04C130.281 13.1553 130.921 13.3283 131.603 13.559C132.299 13.7752 132.939 14.0275 133.523 14.3159C134.122 14.5898 134.616 15.0295 135.006 15.635C135.409 16.2261 135.611 16.9397 135.611 17.7758C135.611 19.1598 135.131 20.2771 134.171 21.1277C133.224 21.9782 131.847 22.4035 130.037 22.4035Z" fill="white"/>
<path d="M145.081 22.4035C142.979 22.4035 141.24 21.7043 139.862 20.3059C138.498 18.8931 137.816 17.1055 137.816 14.943C137.816 12.7805 138.498 11.0001 139.862 9.60165C141.24 8.18883 142.979 7.48242 145.081 7.48242C147.196 7.48242 148.936 8.18162 150.299 9.58003C151.677 10.9784 152.366 12.7661 152.366 14.943C152.366 17.1199 151.677 18.9075 150.299 20.3059C148.936 21.7043 147.196 22.4035 145.081 22.4035ZM142.012 18.3381C142.792 19.2319 143.814 19.6788 145.081 19.6788C146.347 19.6788 147.37 19.2319 148.149 18.3381C148.929 17.4442 149.318 16.3126 149.318 14.943C149.318 13.5734 148.929 12.4417 148.149 11.5479C147.37 10.6541 146.347 10.2071 145.081 10.2071C143.814 10.2071 142.792 10.6541 142.012 11.5479C141.247 12.4417 140.864 13.5734 140.864 14.943C140.864 16.3126 141.247 17.4442 142.012 18.3381Z" fill="white"/>
<path d="M158.288 22.144H155.324V7.72029H165.176V10.4234H158.288V13.4725H165.03V16.1756H158.288V22.144Z" fill="white"/>
<path d="M174.326 22.144H171.341V10.4234H167.271V7.72029H178.376V10.4234H174.326V22.144Z" fill="white"/>
<path fill-rule="evenodd" clip-rule="evenodd" d="M4.14581 6.58097L4.82985 14.5136L13.0086 16.655V20.9756L1.97471 16.7524L0.398438 4.07453L13.0086 0V4.61806L4.14581 6.58097ZM7.00381 11.8456L13.0115 12.946V8.32798L6.73614 9.45815L7.00381 11.8456ZM2.27734 19.8691L2.72346 22.7622L13.0139 28.7104V24.6575L2.27734 19.8691Z" fill="white"/>
<path fill-rule="evenodd" clip-rule="evenodd" d="M13.0156 4.61806L25.2095 6.87838L25.6556 4.07453L13.0156 0V4.61806ZM18.6665 15.6737L13.0157 16.6551V20.9758L18.3096 18.9831L18.6665 15.6737ZM13.0157 8.32798L24.9418 10.0827L23.3358 22.7606L13.0157 28.7088V24.6558L20.332 21.2653L21.1052 12.4107L13.0157 12.946V8.32798Z" fill="white"/>
</g>
<defs>
<clipPath id="clip0_3925_20609">
<rect width="179" height="29" fill="white"/>
</clipPath>
</defs>
</svg>
