<svg width="141" height="147" viewBox="0 0 141 147" fill="none" xmlns="http://www.w3.org/2000/svg">
<path d="M9.16162 0.748213C9.16162 0.334983 9.49661 0 9.90984 0H129.634C130.047 0 130.382 0.334988 130.382 0.748218V118.775C130.382 119.068 130.212 119.333 129.945 119.455L70.0833 146.857C69.8856 146.948 69.6582 146.948 69.4605 146.857L9.59842 119.455C9.33229 119.333 9.16162 119.068 9.16162 118.775V0.748213Z" fill="#C6D0DB"/>
<path d="M11.7544 3.30583C11.7544 2.8926 12.0894 2.55762 12.5026 2.55762H124.641C125.054 2.55762 125.389 2.89261 125.389 3.30583V113.544C125.389 113.837 125.218 114.103 124.951 114.224L68.8823 139.816C68.685 139.906 68.4583 139.906 68.2609 139.816L12.1919 114.224C11.9254 114.103 11.7544 113.837 11.7544 113.544V3.30583Z" fill="white"/>
<path d="M124.117 3.80552C124.59 3.34116 125.389 3.67654 125.389 4.33966V113.544C125.389 113.837 125.218 114.103 124.951 114.224L68.8823 139.816C68.685 139.906 68.4583 139.906 68.2609 139.816L12.7451 114.477C12.2675 114.259 12.1571 113.629 12.5318 113.262L124.117 3.80552Z" fill="#F7F9FB"/>
<path d="M5.82041 84.9375H134.435L140.658 94.9928L134.435 105.048H5.82041L1.27545e-05 94.9928L5.82041 84.9375Z" fill="#112244"/>
<path d="M53.2974 0.748216C53.2974 0.334986 53.6324 0 54.0456 0H85.4693C85.8825 0 86.2175 0.334988 86.2175 0.748218V20.3423C86.2175 20.5592 86.1234 20.7654 85.9595 20.9075L70.2477 34.5343C69.9664 34.7783 69.5485 34.7783 69.2672 34.5343L53.5553 20.9075C53.3915 20.7654 53.2974 20.5592 53.2974 20.3423V0.748216Z" fill="#112244"/>
<g clip-path="url(#clip0_8_476)">
<path d="M59.0884 10.4991H66.3264C67.774 10.4991 67.5327 12.9118 66.3264 12.9118H59.0884V15.0832H65.6026C66.8089 15.0832 67.2914 15.3244 67.2914 16.0483V20.1498C67.2914 22.5625 73.5644 22.5625 73.5644 20.1498V15.0832H82.0087V12.6705H73.5644C73.5644 11.4642 73.5644 10.4991 74.7707 10.4991H82.0087V8.08643H74.147C72.1168 8.08643 71.393 9.29276 71.1518 10.7404V20.1498H69.4628V15.0832C68.5328 14.1386 68.7645 13.6872 69.4628 12.9118C69.7467 9.50932 69.0663 8.56718 66.8089 8.08643H59.0884V10.4991Z" fill="white"/>
</g>
<path d="M42.0464 50.7026C42.0687 50.7027 42.0904 50.7083 42.1099 50.7192C42.1274 50.7291 42.1425 50.7427 42.1538 50.7593L43.3159 53.1118L43.3599 53.1997L43.4565 53.2134L46.0601 53.5952V53.5962C46.0791 53.5992 46.0973 53.6078 46.1118 53.6206C46.1246 53.6319 46.1333 53.6466 46.1392 53.6626C46.1426 53.681 46.1418 53.6997 46.1353 53.7173C46.1282 53.736 46.1162 53.7524 46.1001 53.7642L46.0884 53.7729L46.0776 53.7837L44.2104 55.6499L44.1411 55.7192L44.1587 55.8149L44.6157 58.3823L44.6167 58.3862C44.6203 58.4044 44.619 58.4238 44.6118 58.4409C44.6046 58.458 44.5922 58.4728 44.5767 58.4829L44.5659 58.4897L44.5571 58.4976C44.5479 58.5055 44.5351 58.5091 44.5229 58.5083L44.4897 58.5063L44.4565 58.5161C44.4488 58.5184 44.441 58.5172 44.4331 58.5161L42.1235 57.3159L42.0376 57.271L41.9507 57.3149L39.6079 58.5288L39.604 58.5308C39.5858 58.5407 39.5651 58.5455 39.5444 58.5444C39.5236 58.5433 39.5029 58.5369 39.4858 58.5249C39.4689 58.513 39.4559 58.4961 39.4478 58.4771C39.4396 58.4578 39.4367 58.4361 39.4399 58.4155L39.439 58.4146L39.8872 55.8237L39.9038 55.728L37.9644 53.7886C37.9492 53.7741 37.9383 53.7552 37.9331 53.7349C37.928 53.7146 37.9286 53.6932 37.9351 53.6733C37.9416 53.6533 37.9539 53.635 37.9702 53.6216C37.9865 53.6081 38.0068 53.5998 38.0278 53.5972L38.0317 53.5962L40.6362 53.2134L40.7329 53.1997L40.7769 53.1118L41.936 50.7622C41.9476 50.7441 41.9642 50.7298 41.9829 50.7192C42.0024 50.7084 42.0241 50.7026 42.0464 50.7026Z" fill="#899FB6" stroke="#5E6D8E" stroke-width="0.374109"/>
<path d="M55.9072 50.7026C55.9295 50.7027 55.9513 50.7083 55.9707 50.7192C55.9883 50.7291 56.0033 50.7427 56.0146 50.7593L57.1768 53.1118L57.2207 53.1997L57.3174 53.2134L59.9209 53.5952V53.5962C59.94 53.5992 59.9581 53.6078 59.9727 53.6206C59.9854 53.6319 59.9942 53.6466 60 53.6626C60.0035 53.681 60.0027 53.6997 59.9961 53.7173C59.9891 53.736 59.9771 53.7524 59.9609 53.7642L59.9492 53.7729L59.9385 53.7837L58.0713 55.6499L58.002 55.7192L58.0195 55.8149L58.4766 58.3823L58.4775 58.3862C58.4812 58.4044 58.4798 58.4238 58.4727 58.4409C58.4655 58.458 58.453 58.4728 58.4375 58.4829L58.4268 58.4897L58.418 58.4976C58.4087 58.5055 58.3959 58.5091 58.3838 58.5083L58.3506 58.5063L58.3174 58.5161C58.3097 58.5184 58.3018 58.5172 58.2939 58.5161L55.9844 57.3159L55.8984 57.271L55.8115 57.3149L53.4688 58.5288L53.4648 58.5308C53.4467 58.5407 53.426 58.5455 53.4053 58.5444C53.3845 58.5433 53.3637 58.5369 53.3467 58.5249C53.3297 58.513 53.3168 58.4961 53.3086 58.4771C53.3004 58.4578 53.2976 58.4361 53.3008 58.4155L53.2998 58.4146L53.748 55.8237L53.7646 55.728L51.8252 53.7886C51.81 53.7741 51.7991 53.7552 51.7939 53.7349C51.7889 53.7146 51.7895 53.6932 51.7959 53.6733C51.8025 53.6533 51.8147 53.635 51.8311 53.6216C51.8474 53.6081 51.8677 53.5998 51.8887 53.5972L51.8926 53.5962L54.4971 53.2134L54.5938 53.1997L54.6377 53.1118L55.7969 50.7622C55.8084 50.7441 55.825 50.7298 55.8438 50.7192C55.8632 50.7084 55.885 50.7026 55.9072 50.7026Z" fill="#899FB6" stroke="#5E6D8E" stroke-width="0.374109"/>
<path d="M69.7676 50.7026C69.7899 50.7027 69.8116 50.7083 69.8311 50.7192C69.8486 50.7291 69.8637 50.7427 69.875 50.7593L71.0371 53.1118L71.0811 53.1997L71.1777 53.2134L73.7812 53.5952V53.5962C73.8003 53.5992 73.8185 53.6078 73.833 53.6206C73.8458 53.6319 73.8545 53.6466 73.8604 53.6626C73.8638 53.681 73.863 53.6997 73.8564 53.7173C73.8494 53.736 73.8374 53.7524 73.8213 53.7642L73.8096 53.7729L73.7988 53.7837L71.9316 55.6499L71.8623 55.7192L71.8799 55.8149L72.3369 58.3823L72.3379 58.3862C72.3415 58.4044 72.3402 58.4238 72.333 58.4409C72.3258 58.458 72.3134 58.4728 72.2979 58.4829L72.2871 58.4897L72.2783 58.4976C72.2691 58.5055 72.2563 58.5091 72.2441 58.5083L72.2109 58.5063L72.1777 58.5161C72.17 58.5184 72.1622 58.5172 72.1543 58.5161L69.8447 57.3159L69.7588 57.271L69.6719 57.3149L67.3291 58.5288L67.3252 58.5308C67.307 58.5407 67.2863 58.5455 67.2656 58.5444C67.2448 58.5433 67.2241 58.5369 67.207 58.5249C67.19 58.513 67.1771 58.4961 67.1689 58.4771C67.1608 58.4578 67.1579 58.4361 67.1611 58.4155L67.1602 58.4146L67.6084 55.8237L67.625 55.728L65.6855 53.7886C65.6703 53.7741 65.6595 53.7552 65.6543 53.7349C65.6492 53.7146 65.6498 53.6932 65.6562 53.6733C65.6628 53.6533 65.6751 53.635 65.6914 53.6216C65.7077 53.6081 65.728 53.5998 65.749 53.5972L65.7529 53.5962L68.3574 53.2134L68.4541 53.1997L68.498 53.1118L69.6572 50.7622C69.6688 50.7441 69.6853 50.7298 69.7041 50.7192C69.7236 50.7084 69.7453 50.7026 69.7676 50.7026Z" fill="#899FB6" stroke="#5E6D8E" stroke-width="0.374109"/>
<path d="M83.6284 50.7026C83.6507 50.7027 83.6724 50.7083 83.6919 50.7192C83.7095 50.7291 83.7245 50.7427 83.7358 50.7593L84.8979 53.1118L84.9419 53.1997L85.0386 53.2134L87.6421 53.5952V53.5962C87.6612 53.5992 87.6793 53.6078 87.6938 53.6206C87.7066 53.6319 87.7154 53.6466 87.7212 53.6626C87.7247 53.681 87.7239 53.6997 87.7173 53.7173C87.7103 53.736 87.6983 53.7524 87.6821 53.7642L87.6704 53.7729L87.6597 53.7837L85.7925 55.6499L85.7231 55.7192L85.7407 55.8149L86.1978 58.3823L86.1987 58.3862C86.2024 58.4044 86.201 58.4238 86.1938 58.4409C86.1867 58.458 86.1742 58.4728 86.1587 58.4829L86.1479 58.4897L86.1392 58.4976C86.1299 58.5055 86.1171 58.5091 86.105 58.5083L86.0718 58.5063L86.0386 58.5161C86.0309 58.5184 86.023 58.5172 86.0151 58.5161L83.7056 57.3159L83.6196 57.271L83.5327 57.3149L81.1899 58.5288L81.186 58.5308C81.1679 58.5407 81.1472 58.5455 81.1265 58.5444C81.1056 58.5433 81.0849 58.5369 81.0679 58.5249C81.0509 58.513 81.038 58.4961 81.0298 58.4771C81.0216 58.4578 81.0188 58.4361 81.022 58.4155L81.021 58.4146L81.4692 55.8237L81.4858 55.728L79.5464 53.7886C79.5312 53.7741 79.5203 53.7552 79.5151 53.7349C79.5101 53.7146 79.5106 53.6932 79.5171 53.6733C79.5237 53.6533 79.5359 53.635 79.5522 53.6216C79.5686 53.6081 79.5889 53.5998 79.6099 53.5972L79.6138 53.5962L82.2183 53.2134L82.3149 53.1997L82.3589 53.1118L83.5181 50.7622C83.5296 50.7441 83.5462 50.7298 83.5649 50.7192C83.5844 50.7084 83.6061 50.7026 83.6284 50.7026Z" fill="#899FB6" stroke="#5E6D8E" stroke-width="0.374109"/>
<path d="M97.4893 50.7026C97.5115 50.7027 97.5333 50.7083 97.5527 50.7192C97.5703 50.7291 97.5854 50.7427 97.5967 50.7593L98.7588 53.1118L98.8027 53.1997L98.8994 53.2134L101.503 53.5952V53.5962C101.522 53.5992 101.54 53.6078 101.555 53.6206C101.567 53.6319 101.576 53.6466 101.582 53.6626C101.585 53.681 101.585 53.6997 101.578 53.7173C101.571 53.736 101.559 53.7524 101.543 53.7642L101.531 53.7729L101.521 53.7837L99.6533 55.6499L99.584 55.7192L99.6016 55.8149L100.059 58.3823L100.06 58.3862C100.063 58.4044 100.062 58.4238 100.055 58.4409C100.047 58.458 100.035 58.4728 100.02 58.4829L100.009 58.4897L100 58.4976C99.9908 58.5055 99.978 58.5091 99.9658 58.5083L99.9326 58.5063L99.8994 58.5161C99.8917 58.5184 99.8839 58.5172 99.876 58.5161L97.5664 57.3159L97.4805 57.271L97.3936 57.3149L95.0508 58.5288L95.0469 58.5308C95.0287 58.5407 95.008 58.5455 94.9873 58.5444C94.9665 58.5433 94.9458 58.5369 94.9287 58.5249C94.9117 58.513 94.8988 58.4961 94.8906 58.4771C94.8825 58.4578 94.8796 58.4361 94.8828 58.4155L94.8818 58.4146L95.3301 55.8237L95.3467 55.728L93.4072 53.7886C93.392 53.7741 93.3811 53.7552 93.376 53.7349C93.3709 53.7146 93.3715 53.6932 93.3779 53.6733C93.3845 53.6533 93.3968 53.635 93.4131 53.6216C93.4294 53.6081 93.4497 53.5998 93.4707 53.5972L93.4746 53.5962L96.0791 53.2134L96.1758 53.1997L96.2197 53.1118L97.3789 50.7622C97.3905 50.7441 97.407 50.7298 97.4258 50.7192C97.4452 50.7084 97.467 50.7026 97.4893 50.7026Z" fill="#899FB6" stroke="#5E6D8E" stroke-width="0.374109"/>
<path d="M38.0556 72.2373H35.8482V76.2495H33.7589V66.0178H38.7776C39.4948 66.0317 40.0455 66.1196 40.4296 66.2816C40.8183 66.4435 41.1469 66.6818 41.4153 66.9965C41.6374 67.2557 41.8133 67.5426 41.9429 67.8573C42.0724 68.172 42.1372 68.5306 42.1372 68.9332C42.1372 69.4191 42.0146 69.8981 41.7693 70.3701C41.5241 70.8375 41.1191 71.1684 40.5546 71.3627C41.0266 71.5524 41.3598 71.8232 41.5541 72.1749C41.7531 72.5219 41.8526 73.0541 41.8526 73.7714V74.4586C41.8526 74.926 41.8711 75.243 41.9082 75.4096C41.9637 75.6734 42.0933 75.8677 42.2969 75.9927V76.2495H39.9437C39.8789 76.0228 39.8327 75.84 39.8049 75.7011C39.7494 75.4142 39.7193 75.1204 39.7146 74.8196L39.7008 73.8686C39.6915 73.2161 39.5712 72.7811 39.3398 72.5636C39.1131 72.3461 38.685 72.2373 38.0556 72.2373ZM39.3537 70.377C39.7794 70.1827 39.9923 69.7986 39.9923 69.2247C39.9923 68.6046 39.7864 68.1881 39.3745 67.9753C39.1431 67.855 38.7961 67.7948 38.3333 67.7948H35.8482V70.5436H38.2708C38.7521 70.5436 39.1131 70.4881 39.3537 70.377ZM45.8579 68.6833V76.2495H43.8518V68.6833H45.8579ZM45.8579 65.9553V67.7809H43.8518V65.9553H45.8579ZM49.9186 77.5753C50.1315 77.7558 50.4901 77.8461 50.9945 77.8461C51.7072 77.8461 52.1838 77.6077 52.4245 77.1311C52.5818 76.8257 52.6605 76.312 52.6605 75.5901V75.1042C52.4708 75.4281 52.2671 75.6711 52.0496 75.833C51.6563 76.1338 51.1449 76.2842 50.5156 76.2842C49.5438 76.2842 48.7663 75.9441 48.1832 75.2638C47.6048 74.5789 47.3156 73.6534 47.3156 72.4872C47.3156 71.3627 47.5955 70.4187 48.1555 69.6551C48.7154 68.8869 49.5091 68.5028 50.5364 68.5028C50.9159 68.5028 51.2467 68.5607 51.529 68.6764C52.0103 68.8754 52.399 69.2409 52.6952 69.7731V68.6833H54.618V75.8608C54.618 76.8372 54.4537 77.573 54.1251 78.0682C53.5606 78.9197 52.4777 79.3454 50.8765 79.3454C49.9094 79.3454 49.1203 79.1557 48.5095 78.7762C47.8986 78.3967 47.5608 77.8299 47.496 77.0755H49.6479C49.7034 77.3069 49.7937 77.4735 49.9186 77.5753ZM49.5854 73.6673C49.8538 74.3059 50.3351 74.6252 51.0292 74.6252C51.492 74.6252 51.883 74.4517 52.2024 74.1046C52.5217 73.7529 52.6813 73.1953 52.6813 72.4317C52.6813 71.7144 52.5286 71.1684 52.2232 70.7935C51.9224 70.4187 51.5175 70.2313 51.0084 70.2313C50.3143 70.2313 49.8353 70.5575 49.5715 71.21C49.4327 71.5571 49.3633 71.9851 49.3633 72.4942C49.3633 72.9338 49.4373 73.3248 49.5854 73.6673ZM63.3087 71.807V76.2495H61.2887V71.6473C61.2887 71.2401 61.2193 70.9115 61.0805 70.6616C60.9 70.3099 60.5576 70.1341 60.0532 70.1341C59.5302 70.1341 59.1323 70.3099 58.8592 70.6616C58.5908 71.0087 58.4566 71.5062 58.4566 72.154V76.2495H56.4852V66.0525H58.4566V69.669C58.7435 69.2294 59.0744 68.9239 59.4493 68.7527C59.8287 68.5769 60.2267 68.4889 60.6432 68.4889C61.1106 68.4889 61.534 68.5699 61.9135 68.7319C62.2976 68.8939 62.6123 69.1414 62.8575 69.4746C63.0658 69.7569 63.193 70.0485 63.2393 70.3493C63.2856 70.6454 63.3087 71.1313 63.3087 71.807ZM68.6259 74.8404V76.3189L67.6888 76.3536C66.754 76.386 66.1154 76.2241 65.7729 75.8677C65.5508 75.641 65.4397 75.2916 65.4397 74.8196V70.1618H64.3846V68.7527H65.4397V66.6425H67.3972V68.7527H68.6259V70.1618H67.3972V74.1601C67.3972 74.4702 67.4366 74.6645 67.5152 74.7432C67.5939 74.8173 67.8346 74.8543 68.2372 74.8543C68.2973 74.8543 68.3598 74.8543 68.4246 74.8543C68.494 74.8496 68.5611 74.845 68.6259 74.8404ZM77.3097 67.8295H72.1799V70.1827H76.671V71.9597H72.1799V76.2495H70.0558V66.0317H77.3097V67.8295ZM80.6207 68.6833V76.2495H78.6147V68.6833H80.6207ZM80.6207 65.9553V67.7809H78.6147V65.9553H80.6207ZM86.3475 70.5089C85.5515 70.5089 85.017 70.7681 84.744 71.2864C84.5913 71.5779 84.5149 72.0268 84.5149 72.633V76.2495H82.5227V68.6833H84.4108V70.0022C84.7162 69.4978 84.9823 69.153 85.2091 68.9679C85.5793 68.6579 86.0605 68.5028 86.6529 68.5028C86.6899 68.5028 86.72 68.5051 86.7431 68.5098C86.7709 68.5098 86.8287 68.5121 86.9167 68.5167V70.5436C86.7917 70.5297 86.6806 70.5205 86.5835 70.5159C86.4863 70.5112 86.4076 70.5089 86.3475 70.5089ZM92.331 70.7657C92.1644 70.4002 91.8382 70.2174 91.3523 70.2174C90.7877 70.2174 90.4082 70.4002 90.2139 70.7657C90.1074 70.974 90.0542 71.284 90.0542 71.6959V76.2495H88.0481V68.6972H89.9709V69.8009C90.2162 69.4075 90.4476 69.1276 90.6651 68.961C91.0491 68.6648 91.5466 68.5167 92.1575 68.5167C92.7359 68.5167 93.2033 68.644 93.5596 68.8985C93.8466 69.1345 94.0641 69.4376 94.2121 69.8078C94.4713 69.3636 94.7929 69.0373 95.177 68.8291C95.5842 68.6208 96.0377 68.5167 96.5375 68.5167C96.8707 68.5167 97.1993 68.5815 97.5232 68.7111C97.8472 68.8406 98.141 69.0674 98.4048 69.3913C98.6177 69.6551 98.7611 69.979 98.8352 70.3631C98.8814 70.6177 98.9046 70.9902 98.9046 71.4807L98.8907 76.2495H96.8638V71.4321C96.8638 71.1452 96.8175 70.9092 96.725 70.7241C96.5491 70.3724 96.2252 70.1965 95.7531 70.1965C95.2071 70.1965 94.8299 70.4233 94.6217 70.8768C94.5153 71.1175 94.462 71.4067 94.462 71.7445V76.2495H92.4698V71.7445C92.4698 71.2956 92.4236 70.9694 92.331 70.7657ZM105.943 69.0304C106.536 69.4098 106.876 70.0623 106.964 70.9879H104.985C104.958 70.7334 104.886 70.5321 104.77 70.384C104.553 70.1156 104.182 69.9814 103.659 69.9814C103.229 69.9814 102.921 70.0485 102.736 70.1827C102.556 70.3169 102.466 70.4742 102.466 70.6547C102.466 70.8814 102.563 71.0457 102.757 71.1475C102.951 71.254 103.639 71.4368 104.819 71.6959C105.605 71.881 106.195 72.161 106.589 72.5358C106.978 72.9153 107.172 73.3896 107.172 73.9588C107.172 74.7085 106.892 75.3217 106.332 75.7983C105.777 76.2703 104.916 76.5063 103.75 76.5063C102.56 76.5063 101.681 76.2565 101.112 75.7567C100.547 75.2523 100.265 74.6113 100.265 73.8339H102.271C102.313 74.1856 102.403 74.4355 102.542 74.5836C102.787 74.8473 103.241 74.9792 103.902 74.9792C104.291 74.9792 104.599 74.9214 104.826 74.8057C105.057 74.69 105.173 74.5165 105.173 74.2851C105.173 74.0629 105.08 73.894 104.895 73.7783C104.71 73.6627 104.023 73.4637 102.833 73.1814C101.977 72.9685 101.373 72.7024 101.022 72.3831C100.67 72.0684 100.494 71.6149 100.494 71.0226C100.494 70.3238 100.767 69.7245 101.313 69.2247C101.864 68.7203 102.637 68.4681 103.632 68.4681C104.576 68.4681 105.346 68.6555 105.943 69.0304Z" fill="#112244"/>
<path d="M30.7549 91.1845H32.156L34.0853 97.274H34.1068L36.0792 91.1845H37.448L34.8182 98.8799H33.3201L30.7549 91.1845ZM38.1819 91.1845H39.4106V92.3485H38.1819V91.1845ZM38.1819 93.3077H39.4106V98.8799H38.1819V93.3077ZM44.5755 95.6034C44.5611 95.4094 44.518 95.2226 44.4461 95.0429C44.3815 94.8633 44.2881 94.7088 44.1659 94.5795C44.051 94.443 43.9072 94.3352 43.7348 94.2562C43.5695 94.1699 43.3827 94.1268 43.1744 94.1268C42.9588 94.1268 42.7612 94.1663 42.5816 94.2454C42.4091 94.3172 42.2582 94.4214 42.1289 94.5579C42.0067 94.6873 41.9061 94.8418 41.8271 95.0214C41.7553 95.201 41.7157 95.395 41.7086 95.6034H44.5755ZM41.7086 96.4117C41.7086 96.6273 41.7373 96.8357 41.7948 97.0369C41.8594 97.238 41.9529 97.4141 42.075 97.565C42.1972 97.7159 42.3516 97.838 42.5385 97.9314C42.7253 98.0176 42.948 98.0608 43.2067 98.0608C43.5659 98.0608 43.8534 97.9853 44.0689 97.8344C44.2917 97.6763 44.4569 97.4428 44.5647 97.1339H45.7287C45.664 97.4356 45.5527 97.7051 45.3946 97.9422C45.2365 98.1793 45.0461 98.3805 44.8234 98.5458C44.6006 98.7038 44.3491 98.8224 44.0689 98.9014C43.7959 98.9877 43.5085 99.0308 43.2067 99.0308C42.7684 99.0308 42.3804 98.9589 42.0427 98.8152C41.705 98.6715 41.4176 98.4703 41.1804 98.2117C40.9505 97.953 40.7745 97.644 40.6523 97.2848C40.5374 96.9255 40.4799 96.5303 40.4799 96.0992C40.4799 95.704 40.5409 95.3304 40.6631 94.9783C40.7924 94.619 40.9721 94.3065 41.202 94.0406C41.4391 93.7676 41.7229 93.552 42.0534 93.3939C42.384 93.2358 42.7576 93.1568 43.1744 93.1568C43.6127 93.1568 44.0042 93.2502 44.3491 93.437C44.7012 93.6167 44.9922 93.8574 45.2222 94.1592C45.4521 94.4609 45.6173 94.8094 45.7179 95.2046C45.8257 95.5926 45.8545 95.995 45.8042 96.4117H41.7086ZM46.2317 93.3077H47.5358L48.6244 97.468H48.6459L49.6914 93.3077H50.9308L51.9332 97.468H51.9547L53.0864 93.3077H54.3366L52.5906 98.8799H51.3296L50.2949 94.7412H50.2734L49.2495 98.8799H47.9561L46.2317 93.3077ZM61.5755 92.1006C61.166 92.1006 60.8103 92.1832 60.5085 92.3485C60.2139 92.5137 59.9732 92.7365 59.7864 93.0167C59.5996 93.2897 59.4595 93.6023 59.3661 93.9544C59.2798 94.3065 59.2367 94.6657 59.2367 95.0322C59.2367 95.3986 59.2798 95.7579 59.3661 96.11C59.4595 96.462 59.5996 96.7782 59.7864 97.0584C59.9732 97.3315 60.2139 97.5506 60.5085 97.7159C60.8103 97.8811 61.166 97.9638 61.5755 97.9638C61.9851 97.9638 62.3372 97.8811 62.6318 97.7159C62.9335 97.5506 63.1778 97.3315 63.3647 97.0584C63.5515 96.7782 63.688 96.462 63.7742 96.11C63.8676 95.7579 63.9143 95.3986 63.9143 95.0322C63.9143 94.6657 63.8676 94.3065 63.7742 93.9544C63.688 93.6023 63.5515 93.2897 63.3647 93.0167C63.1778 92.7365 62.9335 92.5137 62.6318 92.3485C62.3372 92.1832 61.9851 92.1006 61.5755 92.1006ZM61.5755 91.0012C62.1504 91.0012 62.6641 91.109 63.1168 91.3246C63.5766 91.5401 63.9646 91.8311 64.2808 92.1976C64.5969 92.564 64.8376 92.9915 65.0029 93.4801C65.1754 93.9687 65.2616 94.4861 65.2616 95.0322C65.2616 95.5854 65.1754 96.1064 65.0029 96.595C64.8376 97.0836 64.5969 97.5111 64.2808 97.8775C63.9646 98.244 63.5766 98.535 63.1168 98.7505C62.6641 98.9589 62.1504 99.0631 61.5755 99.0631C61.0007 99.0631 60.4834 98.9589 60.0235 98.7505C59.5708 98.535 59.1864 98.244 58.8703 97.8775C58.5541 97.5111 58.3098 97.0836 58.1374 96.595C57.9721 96.1064 57.8895 95.5854 57.8895 95.0322C57.8895 94.4861 57.9721 93.9687 58.1374 93.4801C58.3098 92.9915 58.5541 92.564 58.8703 92.1976C59.1864 91.8311 59.5708 91.5401 60.0235 91.3246C60.4834 91.109 61.0007 91.0012 61.5755 91.0012ZM71.2085 98.8799H70.0013V98.1039H69.9798C69.8289 98.3841 69.6026 98.6104 69.3008 98.7829C69.0062 98.9481 68.7044 99.0308 68.3954 99.0308C67.6625 99.0308 67.1308 98.8511 66.8003 98.4919C66.477 98.1254 66.3153 97.5758 66.3153 96.8429V93.3077H67.544V96.7243C67.544 97.2129 67.6374 97.5578 67.8242 97.759C68.011 97.9602 68.2733 98.0608 68.611 98.0608C68.8697 98.0608 69.0852 98.0212 69.2577 97.9422C69.4301 97.8632 69.5702 97.759 69.678 97.6296C69.7858 97.4931 69.8612 97.3315 69.9043 97.1446C69.9546 96.9578 69.9798 96.7566 69.9798 96.5411V93.3077H71.2085V98.8799ZM72.5042 93.3077H73.6574V94.3855H73.679C73.7149 94.2346 73.7831 94.0873 73.8837 93.9436C73.9915 93.7999 74.1173 93.6706 74.261 93.5556C74.4119 93.4334 74.5771 93.3364 74.7568 93.2646C74.9364 93.1927 75.1196 93.1568 75.3064 93.1568C75.4501 93.1568 75.5471 93.1604 75.5974 93.1676C75.6549 93.1748 75.7124 93.182 75.7699 93.1891V94.3747C75.6837 94.3603 75.5938 94.3496 75.5004 94.3424C75.4142 94.328 75.328 94.3208 75.2418 94.3208C75.0334 94.3208 74.8358 94.3639 74.649 94.4502C74.4693 94.5292 74.3113 94.6513 74.1747 94.8166C74.0382 94.9747 73.9304 95.1723 73.8514 95.4094C73.7724 95.6465 73.7329 95.9195 73.7329 96.2285V98.8799H72.5042V93.3077ZM79.4654 91.1845H82.8605C83.4066 91.1845 83.852 91.2635 84.1969 91.4216C84.5418 91.5796 84.8077 91.7772 84.9945 92.0144C85.1813 92.2515 85.3071 92.5101 85.3717 92.7904C85.4436 93.0706 85.4795 93.3293 85.4795 93.5664C85.4795 93.8035 85.4436 94.0622 85.3717 94.3424C85.3071 94.6154 85.1813 94.8705 84.9945 95.1076C84.8077 95.3447 84.5418 95.5423 84.1969 95.7004C83.852 95.8513 83.4066 95.9267 82.8605 95.9267H80.8127V98.8799H79.4654V91.1845ZM80.8127 94.8274H82.785C82.9359 94.8274 83.0904 94.8058 83.2485 94.7627C83.4066 94.7196 83.5503 94.6513 83.6796 94.5579C83.8161 94.4573 83.9239 94.328 84.0029 94.1699C84.0892 94.0047 84.1323 93.7999 84.1323 93.5556C84.1323 93.3041 84.0963 93.0957 84.0245 92.9305C83.9526 92.7652 83.8556 92.6359 83.7335 92.5425C83.6113 92.4419 83.4712 92.3736 83.3132 92.3377C83.1551 92.3018 82.9862 92.2838 82.8066 92.2838H80.8127V94.8274ZM86.4818 93.3077H87.635V94.3855H87.6566C87.6925 94.2346 87.7608 94.0873 87.8613 93.9436C87.9691 93.7999 88.0949 93.6706 88.2386 93.5556C88.3895 93.4334 88.5547 93.3364 88.7344 93.2646C88.914 93.1927 89.0972 93.1568 89.284 93.1568C89.4277 93.1568 89.5247 93.1604 89.575 93.1676C89.6325 93.1748 89.69 93.182 89.7475 93.1891V94.3747C89.6613 94.3603 89.5714 94.3496 89.478 94.3424C89.3918 94.328 89.3056 94.3208 89.2194 94.3208C89.011 94.3208 88.8134 94.3639 88.6266 94.4502C88.4469 94.5292 88.2889 94.6513 88.1523 94.8166C88.0158 94.9747 87.9081 95.1723 87.829 95.4094C87.75 95.6465 87.7105 95.9195 87.7105 96.2285V98.8799H86.4818V93.3077ZM92.6358 99.0308C92.1903 99.0308 91.7915 98.9589 91.4394 98.8152C91.0946 98.6643 90.8 98.4595 90.5557 98.2009C90.3185 97.9422 90.1353 97.6332 90.006 97.274C89.8838 96.9147 89.8228 96.5195 89.8228 96.0884C89.8228 95.6645 89.8838 95.2729 90.006 94.9136C90.1353 94.5543 90.3185 94.2454 90.5557 93.9867C90.8 93.728 91.0946 93.5269 91.4394 93.3831C91.7915 93.2323 92.1903 93.1568 92.6358 93.1568C93.0813 93.1568 93.4765 93.2323 93.8214 93.3831C94.1734 93.5269 94.468 93.728 94.7052 93.9867C94.9495 94.2454 95.1327 94.5543 95.2548 94.9136C95.3842 95.2729 95.4488 95.6645 95.4488 96.0884C95.4488 96.5195 95.3842 96.9147 95.2548 97.274C95.1327 97.6332 94.9495 97.9422 94.7052 98.2009C94.468 98.4595 94.1734 98.6643 93.8214 98.8152C93.4765 98.9589 93.0813 99.0308 92.6358 99.0308ZM92.6358 98.0608C92.9088 98.0608 93.1459 98.0033 93.3471 97.8883C93.5483 97.7734 93.7136 97.6225 93.8429 97.4356C93.9723 97.2488 94.0657 97.0405 94.1231 96.8105C94.1878 96.5734 94.2201 96.3327 94.2201 96.0884C94.2201 95.8513 94.1878 95.6142 94.1231 95.3771C94.0657 95.1399 93.9723 94.9316 93.8429 94.7519C93.7136 94.5651 93.5483 94.4142 93.3471 94.2993C93.1459 94.1843 92.9088 94.1268 92.6358 94.1268C92.3628 94.1268 92.1256 94.1843 91.9245 94.2993C91.7233 94.4142 91.558 94.5651 91.4287 94.7519C91.2993 94.9316 91.2023 95.1399 91.1377 95.3771C91.0802 95.6142 91.0514 95.8513 91.0514 96.0884C91.0514 96.3327 91.0802 96.5734 91.1377 96.8105C91.2023 97.0405 91.2993 97.2488 91.4287 97.4356C91.558 97.6225 91.7233 97.7734 91.9245 97.8883C92.1256 98.0033 92.3628 98.0608 92.6358 98.0608ZM99.8977 91.1845H101.126V92.3485H99.8977V91.1845ZM95.9206 93.3077H96.8367V92.8443C96.8367 92.4922 96.8799 92.2084 96.9661 91.9928C97.0523 91.7701 97.1673 91.6012 97.311 91.4862C97.4547 91.3641 97.6163 91.285 97.796 91.2491C97.9828 91.206 98.1768 91.1845 98.378 91.1845C98.7732 91.1845 99.0606 91.2096 99.2402 91.2599V92.2191C99.1612 92.1976 99.075 92.1832 98.9815 92.176C98.8953 92.1617 98.7911 92.1545 98.669 92.1545C98.5037 92.1545 98.36 92.194 98.2379 92.273C98.1229 92.3521 98.0654 92.5065 98.0654 92.7365V93.3077H99.1109V94.2238H98.0654V98.8799H96.8367V94.2238H95.9206V93.3077ZM99.8977 93.3077H101.126V98.8799H99.8977V93.3077ZM102.492 91.1845H103.72V98.8799H102.492V91.1845ZM108.885 95.6034C108.871 95.4094 108.828 95.2226 108.756 95.0429C108.691 94.8633 108.598 94.7088 108.476 94.5795C108.361 94.443 108.217 94.3352 108.044 94.2562C107.879 94.1699 107.692 94.1268 107.484 94.1268C107.268 94.1268 107.071 94.1663 106.891 94.2454C106.719 94.3172 106.568 94.4214 106.439 94.5579C106.316 94.6873 106.216 94.8418 106.137 95.0214C106.065 95.201 106.025 95.395 106.018 95.6034H108.885ZM106.018 96.4117C106.018 96.6273 106.047 96.8357 106.104 97.0369C106.169 97.238 106.262 97.4141 106.385 97.565C106.507 97.7159 106.661 97.838 106.848 97.9314C107.035 98.0176 107.258 98.0608 107.516 98.0608C107.876 98.0608 108.163 97.9853 108.379 97.8344C108.601 97.6763 108.767 97.4428 108.874 97.1339H110.038C109.974 97.4356 109.862 97.7051 109.704 97.9422C109.546 98.1793 109.356 98.3805 109.133 98.5458C108.91 98.7038 108.659 98.8224 108.379 98.9014C108.105 98.9877 107.818 99.0308 107.516 99.0308C107.078 99.0308 106.69 98.9589 106.352 98.8152C106.015 98.6715 105.727 98.4703 105.49 98.2117C105.26 97.953 105.084 97.644 104.962 97.2848C104.847 96.9255 104.789 96.5303 104.789 96.0992C104.789 95.704 104.851 95.3304 104.973 94.9783C105.102 94.619 105.282 94.3065 105.512 94.0406C105.749 93.7676 106.033 93.552 106.363 93.3939C106.694 93.2358 107.067 93.1568 107.484 93.1568C107.922 93.1568 108.314 93.2502 108.659 93.437C109.011 93.6167 109.302 93.8574 109.532 94.1592C109.762 94.4609 109.927 94.8094 110.028 95.2046C110.135 95.5926 110.164 95.995 110.114 96.4117H106.018Z" fill="white"/>
<path d="M57.5212 120.13C57.7756 119.928 57.8916 119.834 57.8692 119.849C58.6024 119.243 59.1785 118.746 59.5975 118.357C60.024 117.968 60.3832 117.56 60.675 117.133C60.9668 116.707 61.1127 116.292 61.1127 115.887C61.1127 115.581 61.0416 115.341 60.8994 115.169C60.7573 114.997 60.544 114.911 60.2597 114.911C59.9754 114.911 59.7509 115.02 59.5863 115.237C59.4292 115.446 59.3506 115.745 59.3506 116.134H57.4988C57.5138 115.498 57.6484 114.967 57.9028 114.541C58.1647 114.114 58.5051 113.8 58.9241 113.598C59.3506 113.396 59.822 113.295 60.3383 113.295C61.2287 113.295 61.8983 113.523 62.3472 113.98C62.8037 114.436 63.0319 115.031 63.0319 115.764C63.0319 116.565 62.7588 117.309 62.2126 117.997C61.6664 118.678 60.9705 119.344 60.125 119.995H63.1553V121.555H57.5212V120.13ZM64.0003 117.459C64.0003 116.172 64.2472 115.158 64.741 114.417C65.2423 113.677 66.0467 113.306 67.154 113.306C68.2614 113.306 69.062 113.677 69.5558 114.417C70.0571 115.158 70.3078 116.172 70.3078 117.459C70.3078 118.761 70.0571 119.782 69.5558 120.523C69.062 121.263 68.2614 121.634 67.154 121.634C66.0467 121.634 65.2423 121.263 64.741 120.523C64.2472 119.782 64.0003 118.761 64.0003 117.459ZM68.4223 117.459C68.4223 116.703 68.34 116.123 68.1754 115.719C68.0108 115.308 67.6703 115.102 67.154 115.102C66.6378 115.102 66.2973 115.308 66.1327 115.719C65.9681 116.123 65.8858 116.703 65.8858 117.459C65.8858 117.968 65.9157 118.39 65.9756 118.727C66.0355 119.056 66.1552 119.326 66.3347 119.535C66.5218 119.737 66.7949 119.838 67.154 119.838C67.5132 119.838 67.7825 119.737 67.9621 119.535C68.1492 119.326 68.2726 119.056 68.3325 118.727C68.3923 118.39 68.4223 117.968 68.4223 117.459ZM71.2544 120.13C71.5088 119.928 71.6248 119.834 71.6023 119.849C72.3356 119.243 72.9117 118.746 73.3307 118.357C73.7572 117.968 74.1163 117.56 74.4081 117.133C74.6999 116.707 74.8458 116.292 74.8458 115.887C74.8458 115.581 74.7748 115.341 74.6326 115.169C74.4904 114.997 74.2772 114.911 73.9929 114.911C73.7085 114.911 73.4841 115.02 73.3195 115.237C73.1623 115.446 73.0838 115.745 73.0838 116.134H71.2319C71.2469 115.498 71.3816 114.967 71.636 114.541C71.8979 114.114 72.2383 113.8 72.6573 113.598C73.0838 113.396 73.5552 113.295 74.0714 113.295C74.9618 113.295 75.6315 113.523 76.0804 113.98C76.5368 114.436 76.765 115.031 76.765 115.764C76.765 116.565 76.4919 117.309 75.9457 117.997C75.3995 118.678 74.7037 119.344 73.8582 119.995H76.8885V121.555H71.2544V120.13ZM81.7851 115.685C81.7252 115.409 81.6205 115.203 81.4708 115.068C81.3212 114.926 81.1079 114.855 80.8311 114.855C80.4046 114.855 80.0978 115.042 79.9108 115.416C79.7237 115.783 79.6265 116.366 79.619 117.167C79.7836 116.905 80.0193 116.699 80.326 116.55C80.6403 116.4 80.9845 116.325 81.3586 116.325C82.0918 116.325 82.6792 116.557 83.1206 117.021C83.5696 117.485 83.794 118.132 83.794 118.963C83.794 119.509 83.6818 119.988 83.4573 120.399C83.2403 120.811 82.9186 121.133 82.4921 121.364C82.0731 121.596 81.5756 121.712 80.9994 121.712C79.8472 121.712 79.0466 121.353 78.5977 120.635C78.1487 119.909 77.9243 118.869 77.9243 117.515C77.9243 116.093 78.1599 115.038 78.6313 114.35C79.1102 113.654 79.8734 113.306 80.9209 113.306C81.482 113.306 81.9534 113.418 82.335 113.643C82.7241 113.86 83.0159 114.148 83.2104 114.507C83.4124 114.866 83.5321 115.259 83.5696 115.685H81.7851ZM80.8984 117.84C80.5767 117.84 80.3073 117.938 80.0903 118.132C79.8808 118.319 79.7761 118.589 79.7761 118.94C79.7761 119.299 79.8734 119.58 80.0679 119.782C80.2699 119.984 80.5542 120.085 80.9209 120.085C81.2501 120.085 81.5082 119.988 81.6953 119.793C81.8898 119.591 81.9871 119.318 81.9871 118.974C81.9871 118.622 81.8936 118.345 81.7065 118.143C81.5194 117.941 81.2501 117.84 80.8984 117.84Z" fill="#112244"/>
<defs>
<clipPath id="clip0_8_476">
<rect width="22.9509" height="13.9781" fill="white" transform="translate(59.0884 8.0415)"/>
</clipPath>
</defs>
</svg>
