<svg width="140" height="146" viewBox="0 0 140 146" fill="none" xmlns="http://www.w3.org/2000/svg">
<path d="M27.6998 116.58L2.5498 105.59V79.3901L27.6998 90.3701V116.58Z" fill="#32466E"/>
<path d="M112.3 116.58L137.45 105.59V79.3901L112.3 90.3701V116.58Z" fill="#32466E"/>
<path d="M70.1 140C69.6026 139.996 69.1105 139.898 68.65 139.71L17.3 121.3C16.4811 120.998 15.7741 120.453 15.2737 119.738C14.7732 119.023 14.5033 118.173 14.5 117.3V17.14C14.5137 16.0687 14.9258 15.041 15.6561 14.2571C16.3864 13.4732 17.3824 12.9894 18.45 12.9L69.71 5.47998H70.48L121.64 12.9C122.723 12.959 123.742 13.4319 124.487 14.221C125.231 15.0101 125.644 16.0551 125.64 17.14V117.35C125.639 118.222 125.371 119.072 124.872 119.787C124.373 120.503 123.668 121.048 122.85 121.35L71.54 139.7C71.0828 139.887 70.5941 139.986 70.1 139.99V140Z" fill="white"/>
<path d="M70.0501 143.07C69.198 143.086 68.3493 142.958 67.5401 142.69L16.1901 124.29C14.7753 123.762 13.5554 122.815 12.694 121.574C11.8326 120.334 11.3707 118.86 11.3701 117.35V17.14C11.3713 15.297 12.0647 13.5218 13.3131 12.166C14.5614 10.8103 16.2735 9.97293 18.1101 9.81998L69.2801 2.49998C69.8222 2.39975 70.378 2.39975 70.9201 2.49998L122 9.81998C123.838 9.97055 125.553 10.8068 126.803 12.1628C128.054 13.5189 128.749 15.2954 128.75 17.14V117.35C128.75 118.86 128.288 120.334 127.426 121.574C126.565 122.815 125.345 123.762 123.93 124.29L72.6701 142.69C71.8237 142.96 70.9384 143.088 70.0501 143.07ZM70.0501 8.56998L18.6901 16H18.6001C18.4543 16.0038 18.3108 16.0368 18.178 16.097C18.0452 16.1573 17.9258 16.2436 17.827 16.3509C17.7281 16.4581 17.6518 16.5841 17.6025 16.7213C17.5533 16.8586 17.532 17.0044 17.5401 17.15V117.35C17.5424 117.585 17.6178 117.813 17.7558 118.003C17.8938 118.193 18.0876 118.335 18.3101 118.41L69.6601 136.81C69.7821 136.861 69.9129 136.887 70.0451 136.887C70.1773 136.887 70.3081 136.861 70.4301 136.81L121.69 118.41C121.913 118.335 122.106 118.193 122.244 118.003C122.382 117.813 122.458 117.585 122.46 117.35V17.14C122.442 16.8569 122.327 16.5887 122.133 16.381C121.94 16.1732 121.681 16.0386 121.4 16H121.11L70.0501 8.56998Z" fill="#112244"/>
<path d="M70.0001 133.82C69.8637 133.834 69.7266 133.802 69.6101 133.73L20.6701 116.39C20.4689 116.294 20.2986 116.145 20.1784 115.957C20.0582 115.77 19.9929 115.552 19.9901 115.33V19.1699C19.9819 19.0336 20.0017 18.8971 20.0483 18.7687C20.0948 18.6404 20.1672 18.523 20.2609 18.4236C20.3546 18.3243 20.4676 18.2453 20.593 18.1913C20.7184 18.1373 20.8536 18.1096 20.9901 18.1099L69.9301 11.1099H70.2201L119.22 18.1099C119.487 18.1362 119.735 18.258 119.918 18.4528C120.102 18.6476 120.209 18.9023 120.22 19.1699V115.33C120.216 115.564 120.14 115.792 120.003 115.982C119.865 116.171 119.672 116.314 119.45 116.39L70.4501 133.73C70.3961 133.793 70.3224 133.837 70.2407 133.853C70.1591 133.869 70.0743 133.858 70.0001 133.82ZM70.0001 12.1299L21.0001 19.1299V115.19L69.9001 132.57L119 115.23V19.1699L70.0001 12.1299Z" fill="#112244"/>
<path d="M69.9999 146C68.8778 146.001 67.763 145.819 66.6999 145.46L15.2399 127.21C13.362 126.571 11.7322 125.359 10.5803 123.744C9.42841 122.129 8.81264 120.194 8.81989 118.21V17C8.82901 14.6422 9.68876 12.3669 11.2411 10.5922C12.7935 8.81751 14.9342 7.66271 17.2699 7.34L69.8799 0H69.9999L122.78 7.35C125.104 7.68541 127.23 8.84409 128.772 10.6152C130.313 12.3862 131.168 14.652 131.18 17V118.25C131.187 120.234 130.571 122.169 129.419 123.784C128.268 125.399 126.638 126.611 124.76 127.25L73.3099 145.46C72.2431 145.818 71.1252 146 69.9999 146ZM69.8799 1L17.3999 8.31C15.2964 8.60059 13.3678 9.63863 11.9668 11.2343C10.5658 12.83 9.78594 14.8766 9.76989 17V118.25C9.76993 120.029 10.3275 121.763 11.3643 123.209C12.4011 124.655 13.8649 125.739 15.5499 126.31L66.9999 144.56C68.9456 145.219 71.0542 145.219 72.9999 144.56L124.46 126.32C126.145 125.749 127.609 124.665 128.645 123.219C129.682 121.773 130.24 120.039 130.24 118.26V17C130.231 14.8714 129.454 12.8175 128.053 11.2156C126.651 9.61371 124.718 8.57134 122.61 8.28L69.8799 1Z" fill="#899FB6"/>
<path d="M137.44 77.1699H2.5498V105.69H137.44V77.1699Z" fill="#112244"/>
<path d="M47.4699 95.9101C46.7332 95.9169 46.0024 95.7776 45.3199 95.5001C44.6745 95.2344 44.0944 94.8318 43.6199 94.3201C43.1209 93.7679 42.7368 93.1221 42.4899 92.4201C42.2101 91.6065 42.0747 90.7503 42.0899 89.8901C42.0574 88.7779 42.2906 87.6741 42.7699 86.6701C43.1923 85.8126 43.8517 85.0943 44.6699 84.6001C45.5172 84.1012 46.4869 83.8484 47.4699 83.8701C48.6282 83.8085 49.7733 84.1397 50.7199 84.8101C51.5521 85.4761 52.1366 86.4023 52.3799 87.4401L50.6799 87.7301C50.466 87.0793 50.0705 86.5033 49.5399 86.0701C48.9631 85.6421 48.2576 85.4234 47.5399 85.4501C46.8321 85.4192 46.1324 85.6116 45.5399 86.0001C44.9806 86.3783 44.5511 86.9194 44.3099 87.5501C44.0292 88.2944 43.8901 89.0846 43.8999 89.8801C43.8771 90.6723 44.0131 91.4612 44.2999 92.2001C44.5412 92.828 44.9708 93.3659 45.5299 93.7401C46.1399 94.1328 46.8547 94.3316 47.5799 94.3101C48.1692 94.3381 48.7555 94.2105 49.2799 93.9401C49.7601 93.6882 50.1538 93.298 50.4099 92.8201C50.7062 92.2555 50.8832 91.636 50.9299 91.0001H48.6799V89.6501H52.6799C52.6799 89.7501 52.6799 89.8801 52.6799 90.0301C52.6799 90.1801 52.6799 90.3001 52.6799 90.3401C52.6948 91.3315 52.4828 92.3132 52.0599 93.2101C51.6633 94.035 51.0387 94.7291 50.2599 95.2101C49.4086 95.6872 48.4456 95.9288 47.4699 95.9101Z" fill="white"/>
<path d="M57.8002 95.91C57.0065 95.9282 56.2236 95.7238 55.5402 95.32C54.906 94.9308 54.3961 94.3688 54.0702 93.7C53.721 92.9533 53.54 92.1392 53.54 91.315C53.54 90.4907 53.721 89.6766 54.0702 88.93C54.4086 88.2686 54.9246 87.7146 55.5602 87.33C56.2341 86.9305 57.0071 86.7295 57.7902 86.75C58.5839 86.7306 59.3671 86.9351 60.0502 87.34C60.6905 87.7423 61.2037 88.3178 61.5302 89C61.8758 89.7458 62.0549 90.5579 62.0549 91.38C62.0549 92.202 61.8758 93.0141 61.5302 93.76C61.1799 94.4182 60.6491 94.9628 60.0002 95.33C59.3364 95.7275 58.5736 95.9286 57.8002 95.91ZM57.8002 94.33C58.1565 94.3548 58.5134 94.29 58.8383 94.1415C59.1632 93.993 59.4457 93.7656 59.6602 93.48C60.0953 92.8461 60.3129 92.0881 60.2802 91.32C60.3197 90.5464 60.0978 89.7821 59.6502 89.15C59.4316 88.8733 59.1489 88.654 58.8266 88.5111C58.5043 88.3682 58.1519 88.3061 57.8002 88.33C57.309 88.3125 56.8242 88.4451 56.4102 88.71C56.043 88.9772 55.7616 89.3455 55.6002 89.77C55.4154 90.2656 55.3238 90.7911 55.3302 91.32C55.3031 92.1042 55.539 92.8751 56.0002 93.51C56.2148 93.7783 56.4896 93.9923 56.8023 94.1347C57.115 94.2772 57.4568 94.3441 57.8002 94.33Z" fill="white"/>
<path d="M67.28 95.91C66.4795 95.9331 65.6888 95.7285 65 95.32C64.3629 94.9314 63.8495 94.3695 63.52 93.7C63.1599 92.9592 62.9817 92.1433 63 91.32C62.98 90.4921 63.1619 89.6718 63.53 88.93C63.863 88.2712 64.3718 87.7174 65 87.33C65.6739 86.9305 66.4469 86.7295 67.23 86.75C68.0237 86.7317 68.8066 86.9361 69.49 87.34C70.1447 87.7339 70.6697 88.311 71 89C71.3457 89.7458 71.5247 90.5579 71.5247 91.38C71.5247 92.202 71.3457 93.0141 71 93.76C70.6703 94.4268 70.1568 94.9854 69.52 95.37C68.8395 95.7583 68.0627 95.9456 67.28 95.91ZM67.28 94.33C67.6364 94.3548 67.9932 94.29 68.3181 94.1415C68.643 93.993 68.9256 93.7656 69.14 93.48C69.5677 92.8431 69.7814 92.0865 69.75 91.32C69.7871 90.5482 69.5693 89.7856 69.13 89.15C68.9109 88.8739 68.6281 88.6551 68.3059 88.5123C67.9837 88.3695 67.6317 88.3069 67.28 88.33C66.7886 88.3099 66.303 88.4427 65.89 88.71C65.5173 88.9714 65.2344 89.3416 65.08 89.77C64.8952 90.2656 64.8037 90.7911 64.81 91.32C64.7714 92.0996 64.993 92.87 65.44 93.51C65.6576 93.7852 65.9386 94.0036 66.2591 94.1464C66.5796 94.2892 66.9299 94.3522 67.28 94.33Z" fill="white"/>
<path d="M76.4198 95.9099C75.6782 95.9275 74.949 95.7181 74.3298 95.3098C73.7448 94.8951 73.2847 94.3279 72.9998 93.6698C72.6744 92.9299 72.5141 92.128 72.5298 91.3198C72.5112 90.5211 72.6718 89.7284 72.9998 88.9998C73.302 88.3378 73.7791 87.7708 74.3798 87.3598C75.0052 86.9488 75.7416 86.7394 76.4898 86.7598C77.2228 86.7351 77.9446 86.9453 78.5498 87.3598C79.1146 87.7758 79.5484 88.345 79.7998 88.9998C80.3802 90.5024 80.3802 92.1673 79.7998 93.6698C79.5405 94.3259 79.1 94.8946 78.5298 95.3098C77.9114 95.7361 77.1699 95.947 76.4198 95.9099ZM76.6598 94.3898C77.1374 94.4125 77.6089 94.2752 77.9998 93.9998C78.3581 93.7202 78.6259 93.341 78.7698 92.9099C79.0896 91.874 79.0896 90.7657 78.7698 89.7299C78.6231 89.3029 78.3556 88.9276 77.9998 88.6498C77.6244 88.3824 77.1702 88.2486 76.7098 88.2698C76.2201 88.2494 75.7377 88.3937 75.3398 88.6798C74.9713 88.9605 74.6932 89.3429 74.5398 89.7798C74.1931 90.7841 74.1931 91.8756 74.5398 92.8798C74.6903 93.3238 74.9686 93.7135 75.3398 93.9998C75.7241 94.273 76.1886 94.4103 76.6598 94.3898ZM78.9998 95.6599V89.4198H78.8098V84.0898H80.4998V95.6599H78.9998Z" fill="white"/>
<path d="M81.79 88.3401V87.0001H87.1V88.3501L81.79 88.3401ZM83.23 95.6601V86.6601C83.23 86.4501 83.23 86.2101 83.23 85.9601C83.2467 85.7087 83.2937 85.4602 83.37 85.2201C83.4625 84.9569 83.6091 84.7159 83.8002 84.5127C83.9914 84.3095 84.223 84.1485 84.48 84.0401C84.726 83.9316 84.9913 83.8738 85.26 83.8701H85.98H87.08V85.2501H86.08C85.9191 85.2377 85.7574 85.2579 85.6045 85.3094C85.4515 85.361 85.3106 85.4428 85.19 85.5501C85.0867 85.6607 85.0076 85.7917 84.9576 85.9346C84.9077 86.0775 84.8881 86.2292 84.9 86.3801V95.6801H83.23V95.6601ZM88.79 85.5601V83.9401H90.47V85.5601H88.79ZM88.79 95.6601V87.0001H90.47V95.6701L88.79 95.6601Z" fill="white"/>
<path d="M92.5601 95.6601V87.0001H94.0501V89.1001L93.8501 88.8301C93.9485 88.5548 94.0866 88.2954 94.2601 88.0601C94.4284 87.8428 94.6271 87.6509 94.8501 87.4901C95.0751 87.3276 95.325 87.2027 95.5901 87.1201C95.863 87.0328 96.1447 86.9758 96.4301 86.9501C96.6992 86.9196 96.9709 86.9196 97.2401 86.9501V88.5201C96.9337 88.4385 96.6143 88.4181 96.3001 88.4601C95.9439 88.4825 95.5996 88.5961 95.3001 88.7901C95.0406 88.9517 94.8217 89.1707 94.6601 89.4301C94.4984 89.688 94.3833 89.9724 94.3201 90.2701C94.2458 90.5982 94.2089 90.9337 94.2101 91.2701V95.6401L92.5601 95.6601Z" fill="white"/>
<path d="M98.4399 95.6598V86.9998H99.9399V89.4998H100.13V95.6598H98.4399ZM103.64 95.6598V90.2898C103.677 89.75 103.505 89.2166 103.16 88.7998C102.999 88.6222 102.801 88.4818 102.58 88.3886C102.358 88.2953 102.12 88.2514 101.88 88.2598C101.638 88.2532 101.397 88.2989 101.175 88.3938C100.952 88.4887 100.753 88.6306 100.59 88.8098C100.258 89.2106 100.087 89.7202 100.11 90.2398L99.3099 89.7298C99.302 89.203 99.4397 88.6842 99.7079 88.2307C99.9762 87.7772 100.364 87.4066 100.83 87.1598C101.315 86.8985 101.859 86.7675 102.41 86.7798C102.959 86.7636 103.502 86.8985 103.98 87.1698C104.416 87.4193 104.765 87.7962 104.98 88.2498C105.217 88.7597 105.334 89.3176 105.32 89.8798V95.6698H103.65L103.64 95.6598ZM108.84 95.6598V90.2498C108.87 89.717 108.698 89.1924 108.36 88.7798C108.197 88.6074 108 88.471 107.781 88.3797C107.563 88.2884 107.327 88.2442 107.09 88.2498C106.782 88.2441 106.479 88.32 106.21 88.4698C105.94 88.6269 105.719 88.8552 105.57 89.1298C105.4 89.4708 105.317 89.8489 105.33 90.2298L104.52 89.8198C104.496 89.2572 104.631 88.6993 104.91 88.2098C105.171 87.7587 105.552 87.3884 106.01 87.1398C106.493 86.8843 107.033 86.7536 107.58 86.7598C107.982 86.736 108.385 86.7986 108.761 86.9435C109.137 87.0884 109.478 87.3122 109.76 87.5998C110.292 88.2216 110.567 89.0225 110.53 89.8398V95.6498H108.84V95.6598Z" fill="white"/>
<path d="M115.61 95.8999C114.699 95.9352 113.799 95.6909 113.03 95.1999C112.7 94.9679 112.422 94.6707 112.212 94.3266C112.002 93.9826 111.865 93.5991 111.81 93.1999L113.53 92.9299C113.577 93.1495 113.667 93.3574 113.796 93.5413C113.925 93.7251 114.09 93.8811 114.28 93.9999C114.713 94.2736 115.218 94.4096 115.73 94.3899C116.174 94.4376 116.621 94.3356 117 94.0999C117.141 93.9993 117.255 93.8654 117.332 93.7102C117.409 93.5549 117.446 93.383 117.44 93.2099C117.448 93.0217 117.395 92.8359 117.29 92.6799C117.106 92.4944 116.88 92.357 116.63 92.2799C116.3 92.1599 115.79 92.0099 115.11 91.8199C114.5 91.6746 113.907 91.4669 113.34 91.1999C112.968 91.0246 112.647 90.7559 112.41 90.4199C112.223 90.0915 112.129 89.7178 112.14 89.3399C112.127 88.8511 112.271 88.3711 112.55 87.9699C112.849 87.5607 113.258 87.2451 113.73 87.0599C114.295 86.8302 114.9 86.7179 115.51 86.7299C116.118 86.7216 116.723 86.8302 117.29 87.0499C117.775 87.2372 118.207 87.5391 118.55 87.9299C118.867 88.3162 119.068 88.7842 119.13 89.2799L117.41 89.5899C117.387 89.3912 117.323 89.1995 117.221 89.0273C117.119 88.855 116.983 88.706 116.82 88.5899C116.435 88.3337 115.982 88.198 115.52 88.1999C115.094 88.1602 114.666 88.2472 114.29 88.4499C114.147 88.5242 114.027 88.636 113.942 88.7734C113.857 88.9108 113.812 89.0686 113.81 89.2299C113.804 89.4105 113.868 89.5864 113.99 89.7199C114.197 89.8963 114.439 90.026 114.7 90.0999C115.04 90.2199 115.56 90.3699 116.24 90.5499C116.842 90.6899 117.425 90.8979 117.98 91.1699C118.356 91.333 118.672 91.6074 118.887 91.9562C119.101 92.3049 119.204 92.7111 119.18 93.1199C119.197 93.5044 119.12 93.8872 118.956 94.2356C118.793 94.5839 118.547 94.8874 118.24 95.1199C117.483 95.6818 116.551 95.958 115.61 95.8999Z" fill="white"/>
<path d="M20.8599 86.52H37.0499V83.73C37.0512 83.5025 37.0074 83.2769 36.9209 83.0664C36.8344 82.8559 36.7071 82.6647 36.5461 82.5038C36.3852 82.3429 36.194 82.2155 35.9835 82.129C35.773 82.0425 35.5474 81.9987 35.3199 82C35.3199 82 30.5499 82.16 28.9599 82.16C27.3699 82.16 22.5899 82 22.5899 82C22.3623 81.9987 22.1368 82.0425 21.9263 82.129C21.7158 82.2155 21.5245 82.3429 21.3636 82.5038C21.2027 82.6647 21.0753 82.8559 20.9889 83.0664C20.9024 83.2769 20.8586 83.5025 20.8599 83.73V86.52Z" fill="#C6D0DB"/>
<path d="M22.9999 97.76L25.8699 99.86C26.7639 100.513 27.8425 100.866 28.9499 100.866C30.0572 100.866 31.1358 100.513 32.0299 99.86L34.8999 97.76C35.5656 97.2759 36.1074 96.6413 36.481 95.9079C36.8547 95.1745 37.0496 94.3631 37.0499 93.54V83.66C37.0514 83.4365 37.0075 83.215 36.9209 83.0089C36.8342 82.8028 36.7066 82.6165 36.5457 82.4613C36.3849 82.306 36.1942 82.1851 35.9852 82.1058C35.7761 82.0265 35.5532 81.9905 35.3299 82L33.9999 82.15C30.6272 82.53 27.2225 82.53 23.8499 82.15L22.5899 82C22.3661 81.9906 22.1426 82.0265 21.9331 82.1057C21.7235 82.1849 21.5322 82.3057 21.3705 82.4608C21.2089 82.6159 21.0803 82.8021 20.9926 83.0082C20.9048 83.2143 20.8597 83.436 20.8599 83.66V93.54C20.8598 94.3621 21.0535 95.1727 21.4253 95.9059C21.7972 96.6391 22.3366 97.2743 22.9999 97.76Z" fill="#899FB6"/>
<g opacity="0.2">
<path d="M32.3398 89.7698L30.8298 91.2298L31.1898 93.2998C31.1974 93.3339 31.1972 93.3693 31.1891 93.4033C31.181 93.4372 31.1652 93.4689 31.1431 93.4959C31.1209 93.5229 31.0929 93.5445 31.0611 93.559C31.0294 93.5735 30.9947 93.5807 30.9598 93.5798C30.9203 93.5888 30.8793 93.5888 30.8398 93.5798L28.9798 92.5798L27.1198 93.5798C27.0826 93.6039 27.0392 93.6168 26.9948 93.6168C26.9505 93.6168 26.9071 93.6039 26.8698 93.5798C26.8319 93.5537 26.8023 93.5171 26.7845 93.4745C26.7668 93.432 26.7617 93.3852 26.7698 93.3398L27.1298 91.2698L25.6198 89.8098C25.5876 89.7788 25.5647 89.7394 25.5538 89.696C25.5428 89.6527 25.5441 89.6071 25.5576 89.5645C25.5711 89.5219 25.5963 89.4839 25.6303 89.4548C25.6642 89.4257 25.7056 89.4066 25.7498 89.3998L27.8298 89.0898L28.7598 87.2098C28.782 87.1725 28.8134 87.1416 28.8511 87.1202C28.8888 87.0987 28.9315 87.0874 28.9748 87.0874C29.0182 87.0874 29.0608 87.0987 29.0985 87.1202C29.1362 87.1416 29.1677 87.1725 29.1898 87.2098L30.1198 89.0898L32.1998 89.3998C32.2431 89.4066 32.2837 89.4251 32.3171 89.4533C32.3506 89.4815 32.3758 89.5184 32.3898 89.5598C32.3977 89.5963 32.3973 89.6342 32.3887 89.6705C32.38 89.7069 32.3633 89.7408 32.3398 89.7698Z" fill="#112244"/>
</g>
<path d="M32.3398 89.42L30.8298 90.89L31.1898 93C31.1968 93.0444 31.1922 93.0898 31.1764 93.1318C31.1606 93.1739 31.1342 93.2112 31.0998 93.24C31.0539 93.2523 31.0056 93.2523 30.9598 93.24H30.8398L28.9798 92.24L27.1198 93.24C27.0818 93.2619 27.0387 93.2735 26.9948 93.2735C26.9509 93.2735 26.9078 93.2619 26.8698 93.24C26.8309 93.2147 26.8005 93.1783 26.7826 93.1355C26.7648 93.0926 26.7603 93.0454 26.7698 93L27.1298 90.94L25.6198 89.47C25.5889 89.4392 25.5671 89.4006 25.5565 89.3583C25.5459 89.316 25.5471 89.2717 25.5598 89.23C25.575 89.1882 25.6003 89.1508 25.6335 89.1211C25.6666 89.0915 25.7066 89.0705 25.7498 89.06L27.8298 88.76L28.7598 86.87C28.7819 86.8327 28.8134 86.8018 28.8511 86.7803C28.8888 86.7588 28.9314 86.7476 28.9748 86.7476C29.0182 86.7476 29.0608 86.7588 29.0985 86.7803C29.1362 86.8018 29.1677 86.8327 29.1898 86.87L30.1198 88.76L32.1998 89.06C32.2438 89.0687 32.2847 89.089 32.3181 89.1189C32.3515 89.1489 32.3763 89.1872 32.3898 89.23C32.396 89.2634 32.3947 89.2977 32.3861 89.3306C32.3774 89.3634 32.3616 89.394 32.3398 89.42Z" fill="white"/>
<path d="M74.5101 122.35L72.5101 124.35L73.0001 127.1C73.0118 127.159 73.0057 127.22 72.9826 127.275C72.9594 127.33 72.9202 127.377 72.8701 127.41C72.8203 127.453 72.7556 127.474 72.6901 127.47C72.6412 127.485 72.589 127.485 72.5401 127.47L70.0401 126.17L67.5301 127.47C67.4776 127.499 67.4182 127.512 67.3585 127.509C67.2988 127.506 67.2413 127.486 67.1923 127.451C67.1434 127.417 67.1051 127.37 67.0817 127.315C67.0583 127.26 67.0508 127.199 67.0601 127.14L67.5401 124.36L65.5401 122.36C65.496 122.318 65.4647 122.265 65.4498 122.206C65.4349 122.147 65.437 122.086 65.4558 122.028C65.4747 121.97 65.5095 121.919 65.5563 121.881C65.6031 121.842 65.6599 121.818 65.7201 121.81L68.5101 121.4L69.7601 118.87C69.7905 118.82 69.8331 118.779 69.8838 118.751C69.9346 118.722 69.9919 118.708 70.0501 118.708C70.1083 118.708 70.1655 118.722 70.2163 118.751C70.2671 118.779 70.3097 118.82 70.3401 118.87L71.5901 121.4L74.3801 121.81C74.4383 121.819 74.4928 121.845 74.5371 121.884C74.5814 121.923 74.6136 121.973 74.6301 122.03C74.6436 122.089 74.6395 122.151 74.6181 122.208C74.5968 122.265 74.5592 122.314 74.5101 122.35Z" fill="#899FB6"/>
<path d="M61.08 119.8L59.47 121.37L59.85 123.6C59.8567 123.647 59.851 123.695 59.8334 123.738C59.8159 123.782 59.7871 123.821 59.75 123.85C59.701 123.864 59.6491 123.864 59.6 123.85H59.48L57.48 122.8L55.48 123.85C55.4384 123.872 55.3921 123.883 55.345 123.883C55.298 123.883 55.2517 123.872 55.21 123.85C55.1712 123.822 55.1412 123.784 55.1235 123.74C55.1058 123.695 55.1011 123.647 55.11 123.6L55.49 121.37L53.88 119.8C53.8449 119.766 53.8198 119.722 53.8075 119.675C53.7951 119.627 53.796 119.577 53.81 119.53C53.8279 119.486 53.8565 119.448 53.8932 119.418C53.9299 119.388 53.9735 119.368 54.02 119.36L56.25 119.03L57.25 117.03C57.2736 116.989 57.3077 116.954 57.349 116.93C57.3903 116.906 57.4372 116.893 57.485 116.893C57.5328 116.893 57.5798 116.906 57.6211 116.93C57.6623 116.954 57.6965 116.989 57.72 117.03L58.72 119.03L60.96 119.36C61.0051 119.369 61.0471 119.389 61.0821 119.419C61.1171 119.449 61.1439 119.487 61.16 119.53C61.1754 119.578 61.1759 119.629 61.1617 119.677C61.1474 119.726 61.119 119.768 61.08 119.8Z" fill="#899FB6"/>
<path d="M86.1398 119.8L84.5198 121.37L84.8998 123.6C84.9087 123.647 84.9041 123.695 84.8863 123.74C84.8686 123.784 84.8386 123.822 84.7998 123.85C84.7507 123.864 84.6989 123.864 84.6498 123.85H84.5298L82.5298 122.8L80.5298 123.85C80.4884 123.873 80.442 123.885 80.3948 123.885C80.3476 123.885 80.3012 123.873 80.2598 123.85C80.2182 123.825 80.1854 123.787 80.1658 123.742C80.1461 123.698 80.1405 123.648 80.1498 123.6L80.5398 121.37L78.9198 119.8C78.8854 119.765 78.8615 119.722 78.8509 119.674C78.8403 119.626 78.8434 119.576 78.8598 119.53C78.8741 119.486 78.9004 119.447 78.9357 119.417C78.971 119.387 79.014 119.367 79.0598 119.36L81.2898 119.03L82.2898 117.03C82.3133 116.989 82.3475 116.954 82.3888 116.93C82.4301 116.906 82.477 116.893 82.5248 116.893C82.5726 116.893 82.6195 116.906 82.6608 116.93C82.7021 116.954 82.7363 116.989 82.7598 117.03L83.7598 119.03L85.9898 119.36C86.0348 119.369 86.0768 119.389 86.1118 119.419C86.1468 119.449 86.1737 119.487 86.1898 119.53C86.2075 119.575 86.2122 119.625 86.2034 119.672C86.1945 119.72 86.1725 119.764 86.1398 119.8Z" fill="#899FB6"/>
<path d="M95.9999 117.7L94.6699 119L94.9799 120.78C94.9839 120.817 94.9787 120.855 94.9648 120.89C94.9509 120.925 94.9286 120.956 94.8999 120.98C94.8608 120.992 94.8191 120.992 94.7799 120.98C94.7472 120.989 94.7127 120.989 94.6799 120.98L93.0799 120.15L91.4799 120.98C91.4465 120.999 91.4086 121.009 91.3699 121.009C91.3313 121.009 91.2934 120.999 91.2599 120.98C91.2279 120.959 91.2031 120.928 91.1889 120.892C91.1746 120.857 91.1715 120.817 91.1799 120.78L91.4799 119L90.1899 117.74C90.1705 117.708 90.1602 117.672 90.1602 117.635C90.1602 117.598 90.1705 117.561 90.1899 117.53C90.1996 117.493 90.22 117.46 90.2485 117.435C90.277 117.41 90.3123 117.395 90.3499 117.39L92.1399 117.13L92.9399 115.5C92.9599 115.469 92.9872 115.443 93.0196 115.426C93.0519 115.408 93.0881 115.399 93.1249 115.399C93.1618 115.399 93.198 115.408 93.2303 115.426C93.2626 115.443 93.29 115.469 93.3099 115.5L94.1099 117.13L95.8899 117.39C95.9293 117.393 95.9668 117.408 95.9973 117.433C96.0278 117.458 96.0496 117.492 96.0599 117.53C96.0648 117.561 96.0619 117.593 96.0514 117.622C96.0409 117.652 96.0232 117.679 95.9999 117.7Z" fill="#899FB6"/>
<path d="M49.81 117.7L48.52 119L48.83 120.78C48.832 120.818 48.8248 120.856 48.8092 120.891C48.7935 120.925 48.7698 120.956 48.74 120.98C48.7013 120.994 48.6587 120.994 48.62 120.98C48.5906 120.988 48.5594 120.988 48.53 120.98L46.93 120.15L45.32 120.98C45.2884 120.999 45.2521 121.01 45.215 121.01C45.1779 121.01 45.1416 120.999 45.11 120.98C45.078 120.959 45.0532 120.928 45.0389 120.892C45.0246 120.857 45.0215 120.817 45.03 120.78L45.33 119L44 117.7C43.9805 117.668 43.9702 117.632 43.9702 117.595C43.9702 117.558 43.9805 117.521 44 117.49C44.0097 117.453 44.0301 117.42 44.0586 117.395C44.0871 117.37 44.1224 117.355 44.16 117.35L45.95 117.09L46.75 115.46C46.7699 115.429 46.7973 115.403 46.8296 115.386C46.8619 115.368 46.8982 115.359 46.935 115.359C46.9718 115.359 47.008 115.368 47.0404 115.386C47.0727 115.403 47.1001 115.429 47.12 115.46L47.92 117.09L49.7 117.35C49.7375 117.356 49.7725 117.372 49.8015 117.397C49.8305 117.421 49.8523 117.453 49.8646 117.489C49.877 117.525 49.8793 117.563 49.8714 117.601C49.8636 117.638 49.8458 117.672 49.82 117.7H49.81Z" fill="#899FB6"/>
<path d="M46.3498 32H44.1698V37.9H42.6998V32H40.5498V30.79H46.3498V32Z" fill="#112244"/>
<path d="M45.8498 35.2099C45.8413 34.7264 45.944 34.2474 46.1498 33.8099C46.3355 33.3953 46.6422 33.0467 47.0298 32.8099C47.4298 32.5764 47.8868 32.4587 48.3498 32.4699C48.6683 32.4583 48.986 32.5097 49.2846 32.6213C49.5832 32.7328 49.8569 32.9023 50.0898 33.1199C50.3341 33.3677 50.5271 33.6613 50.6575 33.984C50.7879 34.3066 50.8533 34.6519 50.8498 34.9999V35.3599C50.8829 36.0732 50.6393 36.7718 50.1698 37.3099C49.9374 37.5567 49.6545 37.7506 49.3404 37.8783C49.0264 38.006 48.6885 38.0645 48.3498 38.0499C48.0106 38.0633 47.6724 38.0053 47.3571 37.8795C47.0418 37.7538 46.7566 37.5631 46.5198 37.3199C46.0453 36.7649 45.8019 36.049 45.8398 35.3199L45.8498 35.2099ZM47.2598 35.3099C47.2379 35.7137 47.3391 36.1147 47.5498 36.4599C47.639 36.5906 47.7604 36.6961 47.9023 36.7661C48.0442 36.8362 48.2018 36.8685 48.3598 36.8599C48.515 36.866 48.6693 36.8336 48.8089 36.7655C48.9485 36.6975 49.069 36.5959 49.1598 36.4699C49.3799 36.0882 49.4809 35.6494 49.4498 35.2099C49.4716 34.806 49.3705 34.4051 49.1598 34.0599C49.0699 33.9298 48.9483 33.8249 48.8066 33.7549C48.6649 33.6849 48.5077 33.6522 48.3498 33.6599C48.1931 33.651 48.0369 33.6833 47.8966 33.7534C47.7562 33.8236 47.6367 33.9292 47.5498 34.0599C47.331 34.4385 47.2301 34.8736 47.2598 35.3099Z" fill="#112244"/>
<path d="M56.48 35.31C56.5164 36.0029 56.3231 36.6883 55.93 37.26C55.7591 37.4962 55.5331 37.687 55.2717 37.816C55.0103 37.945 54.7214 38.0081 54.43 38C54.187 38.0075 53.9453 37.9611 53.7223 37.8643C53.4993 37.7675 53.3005 37.6226 53.14 37.44V39.93H51.73V32.62H53V33.13C53.1619 32.9327 53.3668 32.7751 53.5991 32.6694C53.8314 32.5636 54.0849 32.5125 54.34 32.52C54.6329 32.5063 54.9248 32.5648 55.1898 32.6904C55.4549 32.8159 55.685 33.0047 55.86 33.24C56.252 33.8305 56.4415 34.5324 56.4 35.24L56.48 35.31ZM55.07 35.2C55.0922 34.8063 55.002 34.4144 54.81 34.07C54.731 33.9411 54.6187 33.8359 54.485 33.7655C54.3512 33.6951 54.2009 33.6621 54.05 33.67C53.8656 33.652 53.6801 33.6902 53.5177 33.7794C53.3553 33.8686 53.2237 34.0047 53.14 34.17V36.34C53.2224 36.5098 53.3546 36.6505 53.5189 36.7434C53.6833 36.8363 53.872 36.877 54.06 36.86C54.73 36.86 55.07 36.31 55.07 35.2Z" fill="#112244"/>
<path d="M63.6302 36.0002C63.6358 35.8786 63.6114 35.7575 63.5591 35.6476C63.5068 35.5377 63.4281 35.4424 63.3302 35.3702C63.0237 35.1618 62.6862 35.0032 62.3302 34.9002C61.9143 34.7698 61.5096 34.6059 61.1202 34.4102C60.7728 34.2611 60.4747 34.0167 60.2606 33.7052C60.0464 33.3937 59.9249 33.0279 59.9102 32.6502C59.9122 32.2904 60.0277 31.9405 60.2402 31.6502C60.476 31.3319 60.7991 31.0887 61.1702 30.9502C61.6014 30.773 62.064 30.6846 62.5302 30.6902C62.9988 30.6802 63.4636 30.7759 63.8902 30.9702C64.2702 31.133 64.5937 31.4043 64.8202 31.7502C65.043 32.088 65.1581 32.4855 65.1502 32.8902H63.6302C63.6393 32.7483 63.6162 32.6062 63.5625 32.4745C63.5088 32.3429 63.426 32.2252 63.3202 32.1302C63.0771 31.9363 62.7704 31.8401 62.4602 31.8602C62.1627 31.8442 61.868 31.9248 61.6202 32.0902C61.5277 32.16 61.4531 32.2508 61.4027 32.3551C61.3523 32.4595 61.3274 32.5743 61.3302 32.6902C61.3327 32.809 61.3664 32.9251 61.4278 33.0269C61.4892 33.1286 61.5762 33.2125 61.6802 33.2702C61.993 33.4596 62.3291 33.6076 62.6802 33.7102C63.3516 33.8727 63.9751 34.1913 64.5002 34.6402C64.6883 34.8134 64.8387 35.0236 64.9419 35.2576C65.0452 35.4916 65.099 35.7444 65.1002 36.0002C65.1107 36.2806 65.0523 36.5594 64.9303 36.8121C64.8083 37.0649 64.6263 37.2839 64.4002 37.4502C63.8482 37.8275 63.1879 38.0136 62.5202 37.9802C62.0046 37.9872 61.4934 37.885 61.0202 37.6802C60.614 37.5054 60.2668 37.2172 60.0202 36.8502C59.7765 36.4944 59.6506 36.0712 59.6602 35.6402H61.1302C61.1302 36.4302 61.6002 36.8202 62.5402 36.8202C62.8256 36.8377 63.1092 36.7642 63.3502 36.6102C63.4449 36.5407 63.5203 36.4483 63.5693 36.3415C63.6183 36.2348 63.6393 36.1173 63.6302 36.0002Z" fill="#112244"/>
<path d="M65.7699 35.2099C65.7586 34.725 65.8649 34.2446 66.0799 33.8099C66.2585 33.3939 66.5627 33.0443 66.9499 32.8099C67.3499 32.5764 67.8069 32.4587 68.2699 32.4699C68.5885 32.4583 68.9062 32.5097 69.2048 32.6213C69.5034 32.7328 69.777 32.9023 70.0099 33.1199C70.2565 33.366 70.451 33.6594 70.5816 33.9824C70.7121 34.3054 70.7762 34.6515 70.7699 34.9999V35.3599C70.8031 36.0732 70.5595 36.7718 70.0899 37.3099C69.8575 37.5567 69.5746 37.7506 69.2606 37.8783C68.9465 38.006 68.6086 38.0645 68.2699 38.0499C67.9322 38.0638 67.5953 38.0059 67.2816 37.8801C66.9679 37.7543 66.6844 37.5633 66.4499 37.3199C65.9681 36.7685 65.7206 36.051 65.7599 35.3199L65.7699 35.2099ZM67.1899 35.3099C67.1651 35.7127 67.2627 36.1136 67.4699 36.4599C67.5598 36.5899 67.6814 36.6948 67.8231 36.7648C67.9648 36.8348 68.122 36.8675 68.2799 36.8599C68.4351 36.866 68.5894 36.8336 68.729 36.7655C68.8686 36.6975 68.9892 36.5959 69.0799 36.4699C69.3 36.0882 69.401 35.6494 69.3699 35.2099C69.3918 34.806 69.2906 34.4051 69.0799 34.0599C68.99 33.9298 68.8685 33.8249 68.7267 33.7549C68.585 33.6849 68.4278 33.6522 68.2699 33.6599C68.1134 33.652 67.9575 33.6847 67.8174 33.7548C67.6772 33.8249 67.5575 33.93 67.4699 34.0599C67.2547 34.4395 67.1572 34.8746 67.1899 35.3099Z" fill="#112244"/>
<path d="M72.0002 37.8998V33.6498H71.2202V32.6498H72.0002V32.1998C71.9851 31.947 72.0226 31.6938 72.1104 31.4563C72.1982 31.2187 72.3343 31.002 72.5102 30.8198C72.7103 30.6366 72.9456 30.496 73.2018 30.4066C73.4579 30.3172 73.7296 30.2809 74.0002 30.2998C74.2434 30.3038 74.4852 30.3374 74.7202 30.3998V31.4898C74.5774 31.4727 74.433 31.4727 74.2902 31.4898C73.7602 31.4898 73.4902 31.7398 73.4902 32.2398V32.6698H74.4902V33.6698H73.4902V37.8998H72.0002Z" fill="#112244"/>
<path d="M76.9202 31.3198V32.6198H77.8202V33.6198H76.9202V36.2598C76.91 36.4081 76.9486 36.5556 77.0302 36.6798C77.1508 36.7782 77.3053 36.8249 77.4602 36.8098C77.6 36.8216 77.7405 36.8216 77.8802 36.8098V37.8798C77.5953 37.9671 77.2981 38.0076 77.0002 37.9998C76.7966 38.0256 76.5899 38.0046 76.3956 37.9385C76.2014 37.8724 76.0248 37.7629 75.8792 37.6183C75.7336 37.4737 75.6229 37.2978 75.5555 37.104C75.4881 36.9102 75.4658 36.7036 75.4902 36.4998V33.6498H74.7202V32.6498H75.4902V31.3498L76.9202 31.3198Z" fill="#112244"/>
<path d="M83.21 36.0001L83.9 32.6401H85.26L83.91 37.9001H82.73L81.73 34.5701L80.73 37.9001H79.55L78.21 32.6201H79.57L80.26 36.0001L81.26 32.6401H82.26L83.21 36.0001Z" fill="#112244"/>
<path d="M89.0001 37.8998C88.9316 37.7505 88.8845 37.5923 88.8601 37.4298C88.6935 37.6162 88.4881 37.7639 88.2584 37.8624C88.0286 37.9609 87.78 38.0078 87.5301 37.9998C87.0589 38.0169 86.5984 37.8563 86.2401 37.5498C86.0768 37.4108 85.9464 37.2374 85.8582 37.042C85.77 36.8466 85.7263 36.6341 85.7301 36.4198C85.7187 36.1703 85.7693 35.9218 85.8775 35.6967C85.9857 35.4715 86.1481 35.2768 86.3501 35.1298C86.89 34.7984 87.5174 34.638 88.1501 34.6698H88.8001V34.3698C88.8113 34.1565 88.7437 33.9465 88.6101 33.7798C88.5336 33.7025 88.4412 33.6429 88.3393 33.6049C88.2374 33.5669 88.1285 33.5515 88.0201 33.5598C87.8194 33.5501 87.6215 33.6102 87.4601 33.7298C87.3942 33.7886 87.3421 33.8612 87.3076 33.9424C87.273 34.0237 87.2568 34.1116 87.2601 34.1998H85.8701C85.8694 33.8937 85.9676 33.5955 86.1501 33.3498C86.3578 33.079 86.6339 32.8684 86.9501 32.7398C87.3175 32.5874 87.7124 32.5125 88.1101 32.5198C88.6693 32.4881 89.2207 32.6624 89.6601 33.0098C89.8551 33.1808 90.0086 33.3939 90.1091 33.633C90.2096 33.872 90.2544 34.1308 90.2401 34.3898V36.6798C90.2183 37.0711 90.2903 37.4619 90.4501 37.8198V37.8998H89.0001ZM87.8301 36.8998C88.0318 36.8998 88.2306 36.8519 88.4101 36.7598C88.5755 36.6802 88.7119 36.5508 88.8001 36.3898V35.4998H88.2701C87.5701 35.4998 87.1901 35.7398 87.1501 36.2298V36.3098C87.1472 36.3926 87.1628 36.4751 87.1956 36.5511C87.2285 36.6272 87.2778 36.6951 87.3401 36.7498C87.4818 36.8702 87.6645 36.9311 87.8501 36.9198L87.8301 36.8998Z" fill="#112244"/>
<path d="M94.2898 33.9401C94.1201 33.9267 93.9496 33.9267 93.7798 33.9401C93.578 33.9179 93.3743 33.9577 93.1957 34.0542C93.017 34.1507 92.872 34.2992 92.7798 34.4801V37.9001H91.3198V32.6201H92.6498V33.2501C92.7584 33.0301 92.9266 32.8451 93.1352 32.716C93.3439 32.5869 93.5845 32.5191 93.8298 32.5201C93.9786 32.519 94.1268 32.5392 94.2698 32.5801L94.2898 33.9401Z" fill="#112244"/>
<path d="M97.3102 38.0002C96.9628 38.0149 96.616 37.9586 96.2911 37.8348C95.9661 37.711 95.6698 37.5223 95.4202 37.2802C95.1728 37.034 94.98 36.7384 94.8542 36.4128C94.7285 36.0872 94.6726 35.7388 94.6902 35.3902V35.2502C94.6808 34.7602 94.7834 34.2746 94.9902 33.8302C95.1753 33.4184 95.4779 33.0705 95.8602 32.8302C96.2502 32.5993 96.6969 32.4815 97.1502 32.4902C97.4672 32.4754 97.7837 32.5284 98.0786 32.6456C98.3735 32.7629 98.6399 32.9417 98.8602 33.1702C99.3022 33.7166 99.5234 34.4088 99.4802 35.1102V35.6902H96.1202C96.1504 36.0078 96.2963 36.3033 96.5302 36.5202C96.7694 36.7317 97.0811 36.8428 97.4002 36.8302C97.6437 36.8409 97.8861 36.7929 98.1072 36.6902C98.3282 36.5875 98.5213 36.4332 98.6702 36.2402L99.3702 37.0202C99.1473 37.3226 98.8514 37.5634 98.5102 37.7202C98.1345 37.8976 97.7255 37.993 97.3102 38.0002ZM97.1502 33.6602C97.0218 33.655 96.8939 33.6772 96.7749 33.7255C96.6558 33.7738 96.5485 33.847 96.4602 33.9402C96.2708 34.1745 96.1559 34.4601 96.1302 34.7602H98.1302V34.6402C98.1415 34.3741 98.0523 34.1135 97.8802 33.9102C97.7846 33.817 97.6696 33.7463 97.5433 33.703C97.4171 33.6598 97.2828 33.6452 97.1502 33.6602Z" fill="#112244"/>
<path d="M41.0801 50.9V43.79H43.2701C43.854 43.7802 44.4302 43.9251 44.9401 44.21C45.4325 44.4922 45.8347 44.9083 46.1001 45.41C46.3782 45.958 46.5189 46.5655 46.5101 47.18V47.51C46.5237 48.1207 46.3863 48.7252 46.1101 49.27C45.8619 49.7675 45.4768 50.1839 45.0001 50.47C44.491 50.7579 43.9149 50.9063 43.3301 50.9H41.0801ZM42.5401 45V49.74H43.2501C43.4971 49.7566 43.7446 49.7145 43.9723 49.6172C44.1999 49.5198 44.4013 49.37 44.5601 49.18C44.8952 48.7162 45.0611 48.1514 45.0301 47.58V47.2C45.0713 46.618 44.9126 46.0394 44.5801 45.56C44.4213 45.37 44.2199 45.2202 43.9923 45.1229C43.7646 45.0255 43.5171 44.9834 43.2701 45H42.5401Z" fill="#112244"/>
<path d="M49.92 51.0002C49.5711 51.0145 49.2229 50.9581 48.8964 50.8343C48.5699 50.7106 48.2718 50.5221 48.02 50.2802C47.7746 50.0325 47.5831 49.7367 47.4575 49.4115C47.3319 49.0863 47.2749 48.7386 47.29 48.3902V48.2502C47.2837 47.7595 47.3898 47.2738 47.6 46.8302C47.7851 46.4184 48.0877 46.0705 48.47 45.8302C48.86 45.5993 49.3067 45.4815 49.76 45.4902C50.077 45.4754 50.3935 45.5284 50.6884 45.6456C50.9833 45.7629 51.2497 45.9417 51.47 46.1702C51.912 46.7166 52.1332 47.4088 52.09 48.1102V48.6902H48.72C48.7581 49.0077 48.9068 49.3015 49.14 49.5202C49.3792 49.7317 49.6909 49.8428 50.01 49.8302C50.2535 49.8409 50.4959 49.7929 50.717 49.6902C50.938 49.5875 51.1311 49.4332 51.28 49.2402L51.98 50.0202C51.755 50.3205 51.4597 50.5609 51.12 50.7202C50.7443 50.8976 50.3353 50.993 49.92 51.0002ZM49.75 46.6602C49.6231 46.6551 49.4967 46.6775 49.3793 46.7258C49.2619 46.7741 49.1564 46.8473 49.07 46.9402C48.8806 47.1745 48.7657 47.4601 48.74 47.7602H50.74V47.6402C50.7466 47.3748 50.6579 47.1158 50.49 46.9102C50.3918 46.818 50.2749 46.7479 50.1472 46.7047C50.0195 46.6616 49.884 46.6464 49.75 46.6602Z" fill="#112244"/>
<path d="M54.8001 49.1801L55.8001 45.6201H57.2801L55.4801 50.9001H54.1301L52.3501 45.6201H53.8201L54.8001 49.1801Z" fill="#112244"/>
<path d="M60.2501 51.0002C59.9027 51.0149 59.5559 50.9586 59.231 50.8348C58.9061 50.711 58.6097 50.5223 58.3601 50.2802C58.1128 50.034 57.92 49.7384 57.7942 49.4128C57.6684 49.0872 57.6125 48.7388 57.6301 48.3902V48.2502C57.6208 47.7602 57.7234 47.2746 57.9301 46.8302C58.1153 46.4154 58.4222 46.0666 58.8101 45.8302C59.196 45.5981 59.6399 45.4802 60.0901 45.4902C60.4071 45.4754 60.7236 45.5284 61.0185 45.6456C61.3134 45.7629 61.5799 45.9417 61.8001 46.1702C62.2421 46.7166 62.4633 47.4088 62.4201 48.1102V48.6902H59.0601C59.0903 49.0078 59.2362 49.3033 59.4701 49.5202C59.7094 49.7317 60.021 49.8428 60.3401 49.8302C60.5836 49.8409 60.8261 49.7929 61.0471 49.6902C61.2681 49.5875 61.4612 49.4332 61.6101 49.2402L62.3101 50.0202C62.0873 50.3226 61.7914 50.5634 61.4501 50.7202C61.0745 50.8976 60.6654 50.993 60.2501 51.0002ZM60.0901 46.6602C59.9618 46.655 59.8338 46.6772 59.7148 46.7255C59.5958 46.7738 59.4885 46.847 59.4001 46.9402C59.2108 47.1745 59.0959 47.4601 59.0701 47.7602H61.0701V47.6402C61.0815 47.3741 60.9922 47.1135 60.8201 46.9102C60.7246 46.817 60.6095 46.7463 60.4833 46.703C60.357 46.6598 60.2227 46.6452 60.0901 46.6602Z" fill="#112244"/>
<path d="M64.71 50.8999H63.29V43.3999H64.71V50.8999Z" fill="#112244"/>
<path d="M65.6502 48.2099C65.6389 47.725 65.7453 47.2446 65.9602 46.8099C66.1388 46.3939 66.443 46.0443 66.8302 45.8099C67.2302 45.5764 67.6872 45.4587 68.1502 45.4699C68.4688 45.4583 68.7865 45.5097 69.0851 45.6213C69.3837 45.7328 69.6573 45.9023 69.8902 46.1199C70.1346 46.3677 70.3275 46.6613 70.4579 46.984C70.5884 47.3066 70.6537 47.6519 70.6502 47.9999V48.3599C70.6788 49.0522 70.4469 49.7301 70.0002 50.2599C69.7678 50.5067 69.485 50.7006 69.1709 50.8283C68.8568 50.956 68.5189 51.0145 68.1802 50.9999C67.8411 51.0133 67.5029 50.9553 67.1876 50.8295C66.8723 50.7038 66.587 50.5131 66.3502 50.2699C65.8757 49.7149 65.6323 48.999 65.6702 48.2699L65.6502 48.2099ZM67.0602 48.3099C67.0384 48.7137 67.1395 49.1147 67.3502 49.4599C67.4401 49.5899 67.5617 49.6948 67.7034 49.7648C67.8451 49.8348 68.0024 49.8675 68.1602 49.8599C68.3154 49.866 68.4697 49.8336 68.6093 49.7655C68.7489 49.6975 68.8695 49.5959 68.9602 49.4699C69.1803 49.0882 69.2813 48.6494 69.2502 48.2099C69.2841 47.8101 69.197 47.4094 69.0002 47.0599C68.9103 46.9298 68.7888 46.8249 68.6471 46.7549C68.5053 46.6849 68.3481 46.6522 68.1902 46.6599C68.0337 46.652 67.8779 46.6847 67.7377 46.7548C67.5975 46.8249 67.4779 46.93 67.3902 47.0599C67.1575 47.4341 67.0426 47.8695 67.0602 48.3099Z" fill="#112244"/>
<path d="M76.2798 48.31C76.3162 49.0029 76.1229 49.6883 75.7298 50.26C75.5589 50.4962 75.3329 50.687 75.0715 50.816C74.8101 50.945 74.5212 51.0081 74.2298 51C73.9868 51.0075 73.7451 50.9611 73.5221 50.8643C73.2991 50.7675 73.1003 50.6226 72.9398 50.44V52.93H71.5298V45.62H72.8398V46.13C73.0017 45.9327 73.2066 45.7751 73.4389 45.6694C73.6712 45.5636 73.9247 45.5125 74.1798 45.52C74.4727 45.5063 74.7646 45.5648 75.0296 45.6904C75.2947 45.8159 75.5248 46.0047 75.6998 46.24C76.0918 46.8305 76.2813 47.5324 76.2398 48.24L76.2798 48.31ZM74.8698 48.2C74.892 47.8063 74.8018 47.4144 74.6098 47.07C74.5308 46.9411 74.4185 46.8359 74.2848 46.7655C74.151 46.6951 74.0007 46.6621 73.8498 46.67C73.6654 46.652 73.4799 46.6902 73.3175 46.7794C73.1551 46.8686 73.0235 47.0047 72.9398 47.17V49.34C73.0222 49.5098 73.1544 49.6505 73.3187 49.7434C73.4831 49.8363 73.6718 49.877 73.8598 49.86C74.5298 49.86 74.8698 49.31 74.8698 48.2Z" fill="#112244"/>
<path d="M78.4802 45.6198V46.2098C78.6622 45.9843 78.8945 45.8045 79.1584 45.6847C79.4223 45.5649 79.7106 45.5084 80.0002 45.5198C80.2873 45.494 80.5755 45.5569 80.8258 45.6999C81.0761 45.843 81.2766 46.0593 81.4002 46.3198C81.5759 46.0629 81.8139 45.8547 82.092 45.7148C82.3701 45.5748 82.6791 45.5078 82.9902 45.5198C83.2273 45.5021 83.4654 45.5379 83.687 45.6244C83.9085 45.7109 84.1078 45.846 84.2701 46.0198C84.5818 46.4588 84.7304 46.9929 84.6902 47.5298V50.8998H83.3102V47.5298C83.3325 47.2967 83.2724 47.0631 83.1402 46.8698C83.056 46.7959 82.9575 46.74 82.8509 46.7056C82.7442 46.6712 82.6317 46.659 82.5201 46.6698C82.3281 46.6599 82.138 46.7132 81.9791 46.8216C81.8201 46.9299 81.7011 47.0874 81.6402 47.2698V50.8998H80.2302V47.5398C80.252 47.3022 80.1882 47.0645 80.0502 46.8698C79.9692 46.794 79.8727 46.7368 79.7673 46.7022C79.6619 46.6677 79.5503 46.6566 79.4402 46.6698C79.2632 46.6578 79.0865 46.6978 78.9319 46.7848C78.7774 46.8719 78.6516 47.0022 78.5702 47.1598V50.8998H77.1602V45.6198H78.4802Z" fill="#112244"/>
<path d="M88.2501 51.0002C87.9012 51.0145 87.553 50.9581 87.2265 50.8343C86.9 50.7106 86.6019 50.5221 86.3501 50.2802C86.1047 50.0325 85.9132 49.7367 85.7876 49.4115C85.662 49.0863 85.6049 48.7386 85.6201 48.3902V48.2502C85.6138 47.7595 85.7198 47.2738 85.9301 46.8302C86.1151 46.4184 86.4178 46.0705 86.8001 45.8302C87.1901 45.5993 87.6368 45.4815 88.09 45.4902C88.4071 45.4754 88.7236 45.5284 89.0185 45.6456C89.3134 45.7629 89.5798 45.9417 89.8001 46.1702C90.242 46.7166 90.4633 47.4088 90.4201 48.1102V48.6902H87.0501C87.0881 49.0077 87.2368 49.3015 87.4701 49.5202C87.7093 49.7317 88.021 49.8428 88.34 49.8302C88.5835 49.8409 88.826 49.7929 89.047 49.6902C89.2681 49.5875 89.4612 49.4332 89.6101 49.2402L90.3101 50.0202C90.0851 50.3205 89.7897 50.5609 89.45 50.7202C89.0744 50.8976 88.6654 50.993 88.2501 51.0002ZM88.0801 46.6602C87.9532 46.6551 87.8268 46.6775 87.7094 46.7258C87.592 46.7741 87.4865 46.8473 87.4001 46.9402C87.2107 47.1745 87.0958 47.4601 87.0701 47.7602H89.0701V47.6402C89.0814 47.3741 88.9921 47.1135 88.8201 46.9102C88.7218 46.818 88.6049 46.7479 88.4772 46.7047C88.3496 46.6616 88.2141 46.6464 88.0801 46.6602Z" fill="#112244"/>
<path d="M92.5199 45.62V46.23C92.6989 45.9996 92.93 45.8151 93.1943 45.6917C93.4586 45.5682 93.7484 45.5094 94.0399 45.52C94.2719 45.5005 94.5052 45.5345 94.722 45.6195C94.9387 45.7045 95.133 45.838 95.2899 46.01C95.592 46.4422 95.74 46.9635 95.7099 47.49V50.9H94.3399V47.52C94.3608 47.2855 94.2891 47.0522 94.1399 46.87C94.0515 46.7932 93.948 46.7357 93.8361 46.7013C93.7241 46.6668 93.6062 46.6562 93.4899 46.67C93.3104 46.6657 93.1329 46.7099 92.9763 46.7979C92.8197 46.8858 92.6897 47.0144 92.5999 47.17V50.9H91.1899V45.62H92.5199Z" fill="#112244"/>
<path d="M98.5101 44.3198V45.6198H99.4101V46.6198H98.5101V49.2598C98.4999 49.4081 98.5385 49.5556 98.6201 49.6798C98.7407 49.7782 98.8952 49.8249 99.0501 49.8098C99.1898 49.8216 99.3303 49.8216 99.4701 49.8098V50.8798C99.1919 50.9677 98.9018 51.0115 98.6101 51.0098C98.4065 51.0356 98.1997 51.0146 98.0055 50.9485C97.8113 50.8824 97.6346 50.7729 97.4891 50.6283C97.3435 50.4837 97.2328 50.3078 97.1654 50.114C97.098 49.9202 97.0757 49.7136 97.1001 49.5098V46.6498H96.3301V45.6498H97.1001V44.3498L98.5101 44.3198Z" fill="#112244"/>
<path d="M54.9998 61.5299C54.9904 61.8729 54.911 62.2103 54.7666 62.5216C54.6221 62.8328 54.4157 63.1113 54.1598 63.3399C53.5948 63.7943 52.8843 64.0288 52.1598 63.9999C51.7535 64.0205 51.3479 63.9484 50.9737 63.789C50.5995 63.6296 50.2664 63.3871 49.9998 63.0799C49.4457 62.3569 49.169 61.4593 49.2198 60.5499V60.1199C49.2064 59.4975 49.3293 58.8798 49.5798 58.3099C49.7876 57.8201 50.1355 57.4026 50.5798 57.1099C51.1281 56.7975 51.7564 56.6536 52.386 56.6963C53.0156 56.739 53.6187 56.9663 54.1198 57.3499C54.6422 57.8289 54.9577 58.4924 54.9998 59.1999H53.5798C53.5767 58.83 53.4379 58.4742 53.1898 58.1999C52.9072 57.9747 52.5502 57.8641 52.1898 57.8899C51.9766 57.8777 51.7637 57.92 51.5713 58.0127C51.3789 58.1054 51.2132 58.2455 51.0898 58.4199C50.8145 58.9172 50.6862 59.4825 50.7198 60.0499V60.5799C50.6795 61.1646 50.8006 61.7492 51.0698 62.2699C51.1911 62.4463 51.3565 62.588 51.5494 62.681C51.7423 62.774 51.9562 62.8149 52.1698 62.7999C52.3487 62.8268 52.5314 62.8136 52.7046 62.7613C52.8778 62.7089 53.0371 62.6186 53.1712 62.4971C53.3052 62.3755 53.4105 62.2257 53.4794 62.0584C53.5484 61.8911 53.5792 61.7106 53.5698 61.5299H54.9998Z" fill="#112244"/>
<path d="M55.6799 61.2099C55.6714 60.7264 55.7741 60.2474 55.9799 59.8099C56.1655 59.3953 56.4723 59.0467 56.8599 58.8099C57.2593 58.575 57.7167 58.4571 58.1799 58.4699C58.4984 58.4583 58.8161 58.5097 59.1147 58.6213C59.4133 58.7328 59.6869 58.9023 59.9199 59.1199C60.4096 59.6228 60.6825 60.2978 60.6799 60.9999V61.3599C60.7002 62.0562 60.4574 62.7346 59.9999 63.2599C59.7675 63.5067 59.4846 63.7006 59.1705 63.8283C58.8565 63.956 58.5186 64.0145 58.1799 63.9999C57.8406 64.014 57.5022 63.9562 57.1869 63.8304C56.8715 63.7046 56.5863 63.5136 56.3499 63.2699C55.8754 62.7149 55.632 61.999 55.6699 61.2699L55.6799 61.2099ZM57.0899 61.3099C57.068 61.7137 57.1691 62.1147 57.3799 62.4599C57.4676 62.592 57.5888 62.6986 57.731 62.7688C57.8733 62.8391 58.0316 62.8705 58.1899 62.8599C58.3443 62.861 58.4968 62.8264 58.6356 62.7588C58.7744 62.6911 58.8957 62.5922 58.9899 62.4699C59.21 62.0882 59.311 61.6494 59.2799 61.2099C59.3047 60.8071 59.2071 60.4062 58.9999 60.0599C58.9093 59.9305 58.7876 59.8261 58.6461 59.7562C58.5045 59.6863 58.3476 59.6531 58.1899 59.6599C58.0332 59.651 57.877 59.6833 57.7367 59.7534C57.5963 59.8236 57.4768 59.9292 57.3899 60.0599C57.1676 60.4374 57.0632 60.8726 57.0899 61.3099Z" fill="#112244"/>
<path d="M62.8801 58.6198V59.2098C63.0621 58.9843 63.2944 58.8045 63.5583 58.6847C63.8222 58.5649 64.1105 58.5084 64.4001 58.5198C64.6872 58.494 64.9754 58.5569 65.2257 58.6999C65.476 58.843 65.6765 59.0593 65.8001 59.3198C65.9751 59.0622 66.213 58.8535 66.4912 58.7135C66.7695 58.5735 67.0789 58.5068 67.3901 58.5198C67.6272 58.5021 67.8653 58.5379 68.0869 58.6244C68.3084 58.7109 68.5077 58.846 68.6701 59.0198C68.9817 59.4588 69.1303 59.9929 69.0901 60.5298V63.8998H67.7101V60.5298C67.7268 60.2972 67.6671 60.0654 67.5401 59.8698C67.4559 59.7959 67.3574 59.74 67.2508 59.7056C67.1441 59.6712 67.0316 59.659 66.9201 59.6698C66.7276 59.6582 66.5368 59.7108 66.3775 59.8194C66.2182 59.928 66.0995 60.0864 66.0401 60.2698V63.8998H64.6301V60.5398C64.6519 60.3022 64.5881 60.0645 64.4501 59.8698C64.3691 59.794 64.2726 59.7368 64.1672 59.7022C64.0618 59.6677 63.9502 59.6566 63.8401 59.6698C63.6631 59.6578 63.4864 59.6978 63.3319 59.7848C63.1773 59.8719 63.0515 60.0022 62.9701 60.1598V63.8998H61.5601V58.6198H62.8801Z" fill="#112244"/>
<path d="M75 61.31C75.0327 62.0039 74.8359 62.6892 74.44 63.26C74.2713 63.496 74.0471 63.6869 73.7873 63.816C73.5275 63.945 73.2399 64.0082 72.95 64C72.7054 64.0083 72.462 63.9623 72.2373 63.8655C72.0125 63.7687 71.812 63.6234 71.65 63.44V65.93H70.21V58.62H71.52V59.13C71.6813 58.9321 71.8862 58.7741 72.1186 58.6683C72.351 58.5625 72.6047 58.5118 72.86 58.52C73.1529 58.5063 73.4447 58.5648 73.7098 58.6904C73.9748 58.8159 74.205 59.0047 74.38 59.24C74.772 59.8305 74.9615 60.5324 74.92 61.24L75 61.31ZM73.59 61.2C73.6122 60.8063 73.522 60.4144 73.33 60.07C73.2502 59.9419 73.1378 59.8373 73.0042 59.767C72.8706 59.6967 72.7207 59.6632 72.57 59.67C72.3843 59.6527 72.1977 59.691 72.0339 59.7801C71.8701 59.8691 71.7364 60.0048 71.65 60.17V62.34C71.7402 62.5055 71.8754 62.6422 72.0399 62.7342C72.2045 62.8262 72.3917 62.8698 72.58 62.86C73.22 62.86 73.56 62.31 73.56 61.2H73.59Z" fill="#112244"/>
<path d="M78.9002 63.8999C78.8317 63.7506 78.7845 63.5924 78.7602 63.4299C78.5941 63.6169 78.3887 63.7649 78.1588 63.8635C77.9289 63.962 77.6801 64.0086 77.4302 63.9999C76.9589 64.017 76.4985 63.8564 76.1402 63.5499C75.9769 63.411 75.8465 63.2375 75.7583 63.0421C75.6701 62.8468 75.6263 62.6342 75.6302 62.4199C75.618 62.1692 75.6694 61.9195 75.7796 61.694C75.8897 61.4685 76.055 61.2745 76.2602 61.1299C76.7957 60.7969 77.4205 60.6364 78.0502 60.6699H78.7002V60.3699C78.7098 60.1584 78.6463 59.95 78.5202 59.7799C78.4414 59.7029 78.3471 59.6435 78.2437 59.6056C78.1403 59.5677 78.03 59.5521 77.9202 59.5599C77.7197 59.5518 77.5223 59.6117 77.3602 59.7299C77.2943 59.7887 77.2422 59.8613 77.2077 59.9425C77.1731 60.0238 77.1569 60.1117 77.1602 60.1999H75.7502C75.7494 59.8938 75.8477 59.5956 76.0302 59.3499C76.2379 59.0791 76.514 58.8685 76.8302 58.7399C77.2011 58.5875 77.5992 58.5127 78.0002 58.5199C78.5591 58.49 79.1099 58.6642 79.5502 59.0099C79.7422 59.1828 79.8931 59.3964 79.9917 59.6352C80.0903 59.874 80.1342 60.1319 80.1202 60.3899V62.6799C80.0984 63.0712 80.1704 63.462 80.3302 63.8199V63.8999H78.9002ZM77.7402 62.8999C77.9387 62.8999 78.1342 62.8519 78.3102 62.7599C78.4756 62.6803 78.6119 62.5509 78.7002 62.3899V61.4999H78.1802C77.4702 61.4999 77.0902 61.7399 77.0502 62.2299V62.3099C77.0499 62.3924 77.0666 62.474 77.0993 62.5497C77.132 62.6254 77.18 62.6935 77.2402 62.7499C77.3798 62.867 77.5581 62.9276 77.7402 62.9199V62.8999Z" fill="#112244"/>
<path d="M82.4999 58.6199V59.2299C82.6772 58.9977 82.908 58.8118 83.1727 58.6882C83.4374 58.5645 83.7281 58.5068 84.0199 58.5199C84.2517 58.5026 84.4844 58.5377 84.7007 58.6225C84.9171 58.7074 85.1116 58.8397 85.2699 59.0099C85.5729 59.4413 85.7177 59.9641 85.6799 60.4899V63.8999H84.3199V60.5199C84.3436 60.2868 84.2755 60.0536 84.1299 59.8699C84.0409 59.7941 83.9373 59.7373 83.8255 59.7029C83.7138 59.6685 83.5962 59.6573 83.4799 59.6699C83.3003 59.6656 83.1229 59.7098 82.9663 59.7978C82.8097 59.8858 82.6797 60.0143 82.5899 60.1699V63.8999H81.1699V58.6199H82.4999Z" fill="#112244"/>
<path d="M88.78 61.8999L89.78 58.6199H91.3L89.17 64.7199L89 64.9999C88.8729 65.3077 88.6539 65.5689 88.373 65.7479C88.092 65.9268 87.7628 66.0148 87.43 65.9999C87.2202 65.9987 87.0115 65.9684 86.81 65.9099V64.8699H87.02C87.2284 64.8861 87.437 64.8409 87.62 64.7399C87.766 64.6459 87.8754 64.5047 87.93 64.3399L88.1 63.8999L86.25 58.6099H87.8L88.78 61.8999Z" fill="#112244"/>
</svg>
