<svg width="321" height="52" viewBox="0 0 321 52" fill="none" xmlns="http://www.w3.org/2000/svg">
<g clip-path="url(#clip0_10867_44916)">
<path d="M69.1412 40.1711C64.6995 40.1711 61.1811 38.801 58.5859 36.0609L61.468 31.8732C63.614 34.1997 66.2591 35.363 69.4032 35.363C70.7756 35.363 71.8361 35.0915 72.5847 34.5487C73.3583 33.98 73.7451 33.2949 73.7451 32.4936C73.7451 31.7956 73.3832 31.214 72.6596 30.7487C71.9609 30.2834 71.0751 29.9473 70.0021 29.7405C68.954 29.5337 67.8062 29.2364 66.5585 28.8487C65.3109 28.4609 64.1505 28.0215 63.0775 27.5303C62.0295 27.0391 61.1437 26.2636 60.42 25.2038C59.7213 24.1439 59.372 22.8514 59.372 21.3262C59.372 19.1031 60.2329 17.2419 61.9546 15.7425C63.6764 14.2174 65.9721 13.4548 68.8417 13.4548C72.8093 13.4548 76.0532 14.6568 78.5735 17.0609L75.6166 21.0936C73.6453 19.2065 71.2248 18.263 68.3552 18.263C67.2323 18.263 66.3589 18.4956 65.7351 18.9609C65.1112 19.4262 64.7993 20.0596 64.7993 20.8609C64.7993 21.4813 65.1487 22.0113 65.8473 22.4507C66.571 22.8643 67.4568 23.1745 68.5049 23.3813C69.5779 23.5881 70.7257 23.8983 71.9484 24.3119C73.1961 24.6997 74.344 25.1521 75.392 25.6691C76.465 26.1602 77.3508 26.9487 78.0495 28.0344C78.7732 29.0942 79.135 30.3738 79.135 31.8732C79.135 34.3548 78.2741 36.3582 76.5523 37.8834C74.8555 39.4085 72.3851 40.1711 69.1412 40.1711Z" fill="#112244"/>
<path d="M103.938 37.2629C102.042 39.2017 99.247 40.1711 95.5539 40.1711C91.8608 40.1711 89.0535 39.2017 87.1321 37.2629C85.2357 35.2983 84.2875 32.6745 84.2875 29.3915V13.8425H89.6774V29.1976C89.6774 31.0589 90.1889 32.5453 91.212 33.6568C92.2351 34.7425 93.6824 35.2854 95.5539 35.2854C97.4254 35.2854 98.8602 34.7425 99.8583 33.6568C100.881 32.5453 101.393 31.0589 101.393 29.1976V13.8425H106.82V29.3527C106.82 32.6874 105.86 35.3242 103.938 37.2629Z" fill="#112244"/>
<path d="M140.374 39.7058H135.022V21.5976L127.985 39.7058H125.664L118.627 21.5976V39.7058H113.312V13.8425H120.761L126.825 29.4691L132.888 13.8425H140.374V39.7058Z" fill="#112244"/>
<path d="M170.188 39.7058H164.124L162.59 35.3242H151.885L150.312 39.7058H144.249L153.906 13.8425H160.568L170.188 39.7058ZM161.13 30.4772L157.237 19.3487L153.344 30.4772H161.13Z" fill="#112244"/>
<path d="M182.771 39.7058H177.419V18.6895H170.12V13.8425H190.033V18.6895H182.771V39.7058Z" fill="#112244"/>
<path d="M205.928 40.1711C202.16 40.1711 199.041 38.9174 196.57 36.4099C194.125 33.8766 192.902 30.6711 192.902 26.7936C192.902 22.916 194.125 19.7235 196.57 17.216C199.041 14.6827 202.16 13.416 205.928 13.416C209.721 13.416 212.84 14.6698 215.285 17.1772C217.756 19.6847 218.991 22.8902 218.991 26.7936C218.991 30.697 217.756 33.9024 215.285 36.4099C212.84 38.9174 209.721 40.1711 205.928 40.1711ZM200.426 32.8813C201.823 34.484 203.657 35.2854 205.928 35.2854C208.199 35.2854 210.033 34.484 211.43 32.8813C212.827 31.2786 213.526 29.2493 213.526 26.7936C213.526 24.3378 212.827 22.3085 211.43 20.7058C210.033 19.1031 208.199 18.3017 205.928 18.3017C203.657 18.3017 201.823 19.1031 200.426 20.7058C199.053 22.3085 198.367 24.3378 198.367 26.7936C198.367 29.2493 199.053 31.2786 200.426 32.8813Z" fill="#112244"/>
<path d="M233.165 40.1711C228.724 40.1711 225.205 38.801 222.61 36.0609L225.492 31.8732C227.638 34.1997 230.283 35.363 233.428 35.363C234.8 35.363 235.86 35.0915 236.609 34.5487C237.383 33.98 237.769 33.2949 237.769 32.4936C237.769 31.7956 237.408 31.214 236.684 30.7487C235.985 30.2834 235.099 29.9473 234.026 29.7405C232.978 29.5337 231.83 29.2364 230.583 28.8487C229.335 28.4609 228.175 28.0215 227.102 27.5303C226.054 27.0391 225.168 26.2636 224.444 25.2038C223.746 24.1439 223.396 22.8514 223.396 21.3262C223.396 19.1031 224.257 17.2419 225.979 15.7425C227.701 14.2174 229.996 13.4548 232.866 13.4548C236.834 13.4548 240.078 14.6568 242.598 17.0609L239.641 21.0936C237.67 19.2065 235.249 18.263 232.379 18.263C231.257 18.263 230.383 18.4956 229.759 18.9609C229.136 19.4262 228.824 20.0596 228.824 20.8609C228.824 21.4813 229.173 22.0113 229.872 22.4507C230.595 22.8643 231.481 23.1745 232.529 23.3813C233.602 23.5881 234.75 23.8983 235.973 24.3119C237.22 24.6997 238.368 25.1521 239.416 25.6691C240.489 26.1602 241.375 26.9487 242.074 28.0344C242.797 29.0942 243.159 30.3738 243.159 31.8732C243.159 34.3548 242.298 36.3582 240.577 37.8834C238.88 39.4085 236.409 40.1711 233.165 40.1711Z" fill="#112244"/>
<path d="M260.14 40.1711C256.372 40.1711 253.253 38.9174 250.782 36.4099C248.337 33.8766 247.114 30.6711 247.114 26.7936C247.114 22.916 248.337 19.7235 250.782 17.216C253.253 14.6827 256.372 13.416 260.14 13.416C263.933 13.416 267.052 14.6698 269.497 17.1772C271.968 19.6847 273.203 22.8902 273.203 26.7936C273.203 30.697 271.968 33.9024 269.497 36.4099C267.052 38.9174 263.933 40.1711 260.14 40.1711ZM254.637 32.8813C256.035 34.484 257.869 35.2854 260.14 35.2854C262.41 35.2854 264.244 34.484 265.642 32.8813C267.039 31.2786 267.738 29.2493 267.738 26.7936C267.738 24.3378 267.039 22.3085 265.642 20.7058C264.244 19.1031 262.41 18.3017 260.14 18.3017C257.869 18.3017 256.035 19.1031 254.637 20.7058C253.265 22.3085 252.579 24.3378 252.579 26.7936C252.579 29.2493 253.265 31.2786 254.637 32.8813Z" fill="#112244"/>
<path d="M283.821 39.7058H278.506V13.8425H296.173V18.6895H283.821V24.1568H295.911V29.0038H283.821V39.7058Z" fill="#112244"/>
<path d="M312.58 39.7058H307.228V18.6895H299.929V13.8425H319.842V18.6895H312.58V39.7058Z" fill="#112244"/>
<path fill-rule="evenodd" clip-rule="evenodd" d="M7.43817 11.8004L8.66474 26.0244L23.3302 29.8641L23.3302 37.6115L3.54518 30.0388L0.71875 7.30605L23.3302 0V8.28065L7.43817 11.8004ZM12.5597 21.2407L23.3321 23.2138V14.9332L12.0797 16.9597L12.5597 21.2407ZM4.09483 35.6274L4.89476 40.815L23.3465 51.4808V44.2134L4.09483 35.6274Z" fill="#112244"/>
<path fill-rule="evenodd" clip-rule="evenodd" d="M23.3438 8.28065L45.2085 12.3336L46.0085 7.30605L23.3438 0V8.28065ZM33.4762 28.1048L23.3438 29.8646L23.3438 37.612L32.8363 34.039L33.4762 28.1048ZM23.3438 14.9332L44.7286 18.0796L41.8488 40.8123L23.3438 51.4781V44.2107L36.4626 38.1312L37.8492 22.2539L23.3438 23.2138V14.9332Z" fill="#112244"/>
</g>
<defs>
<clipPath id="clip0_10867_44916">
<rect width="320.965" height="52" fill="white"/>
</clipPath>
</defs>
</svg>
