<svg width="81" height="84" viewBox="0 0 81 84" fill="none" xmlns="http://www.w3.org/2000/svg">
<g clip-path="url(#clip0_13890_829)">
<mask id="mask0_13890_829" style="mask-type:luminance" maskUnits="userSpaceOnUse" x="4" y="6" width="73" height="72">
<path d="M72 6H9C6.51472 6 4.5 8.01472 4.5 10.5V73.5C4.5 75.9852 6.51472 78 9 78H72C74.4852 78 76.5 75.9852 76.5 73.5V10.5C76.5 8.01472 74.4852 6 72 6Z" fill="white"/>
</mask>
<g mask="url(#mask0_13890_829)">
<path fill-rule="evenodd" clip-rule="evenodd" d="M4.61353 6H76.3861V78H4.61353V6ZM39.337 16.3774C39.0988 16.3774 38.5648 16.4119 38.1457 16.4521C37.7265 16.4894 37.1523 16.5554 36.8681 16.5927C36.5838 16.6329 36.1389 16.7047 35.8777 16.7535C35.6163 16.8023 35.2173 16.8798 34.9877 16.9286C34.758 16.9774 34.3388 17.075 34.0546 17.1468C33.7704 17.2186 33.3311 17.3392 33.0786 17.4138C32.8259 17.4913 32.3551 17.6435 32.0306 17.7525C31.7062 17.8646 31.2296 18.0368 30.9684 18.1401C30.7072 18.2435 30.2995 18.4129 30.064 18.5191C29.8257 18.6253 29.3607 18.8436 29.0306 19.0071C28.7004 19.1736 28.2324 19.4148 27.997 19.5469C27.7588 19.679 27.4171 19.8799 27.2362 19.989C27.0553 20.0981 26.8285 20.2388 26.7338 20.2991C26.6391 20.3594 26.4267 20.5 26.2602 20.6091C26.0935 20.7211 25.7778 20.9421 25.5567 21.1001C25.3356 21.2579 25.0113 21.4962 24.8391 21.6312C24.6667 21.7661 24.374 21.9986 24.1931 22.1479C24.0122 22.3001 23.6907 22.5786 23.4783 22.768C23.2657 22.9576 22.9098 23.2877 22.6915 23.5002C22.4705 23.7126 22.0887 24.1059 21.8418 24.3757C21.5949 24.6456 21.3078 24.9614 21.2044 25.0791C21.1011 25.1968 20.9001 25.438 20.7595 25.6102C20.6187 25.7824 20.3776 26.0868 20.2284 26.2849C20.0761 26.483 19.8321 26.8189 19.6828 27.0313C19.5336 27.2438 19.3556 27.4993 19.2895 27.5998C19.2235 27.6974 19.1776 27.7864 19.1862 27.8007C19.1948 27.8122 19.3671 27.8266 19.5652 27.8323C19.7661 27.838 19.9757 27.8352 20.0302 27.8266C20.1192 27.8122 20.1651 27.7635 20.4609 27.3701C20.6418 27.129 20.9661 26.7127 21.1815 26.4428C21.3968 26.1729 21.7643 25.7365 21.9997 25.4667C22.2322 25.1968 22.6571 24.7461 22.9442 24.4619C23.2284 24.1776 23.6361 23.7873 23.8486 23.5977C24.061 23.4082 24.3711 23.1441 24.5376 23.012C24.7041 22.8829 24.9338 22.7106 25.0486 22.6359C25.1606 22.5584 25.2696 22.4953 25.284 22.4953C25.2984 22.4953 25.3989 22.5527 25.5051 22.6217C25.6142 22.6905 26.062 22.9518 26.5042 23.1987C26.9463 23.4456 27.4286 23.724 27.5749 23.813C27.7214 23.902 27.8391 23.9825 27.8391 23.9967C27.8391 24.0083 27.5836 24.3356 27.2736 24.7289C26.9606 25.1193 26.5645 25.6246 26.395 25.8542C26.2228 26.0839 25.9443 26.4772 25.772 26.7299C25.6027 26.9825 25.3816 27.3271 25.2812 27.4993C25.1806 27.6686 25.1031 27.8151 25.1118 27.8208C25.1203 27.8295 25.2037 27.8467 25.2984 27.8639C25.4161 27.8811 25.5567 27.8811 25.7433 27.861C25.8926 27.8438 26.0247 27.8238 26.0391 27.8179C26.0506 27.8122 26.1855 27.6227 26.3377 27.3988C26.4898 27.1721 26.7252 26.8389 26.8601 26.6581C26.9922 26.4773 27.219 26.1787 27.3625 25.9978C27.5032 25.817 27.7444 25.5184 27.8994 25.3375C28.0516 25.1566 28.3042 24.8724 28.4592 24.7059C28.6142 24.5394 28.752 24.4074 28.7692 24.4074C28.7865 24.4102 29.1683 24.5509 29.6191 24.7202C30.0697 24.8897 30.7617 25.1423 31.155 25.2801C31.5511 25.4178 32.1053 25.5987 32.3895 25.682C32.7025 25.7739 32.9321 25.8571 32.9722 25.8945C33.0068 25.9289 33.0355 25.9634 33.0355 25.9777C33.0355 25.9892 32.8603 26.3997 32.6479 26.8878C32.4354 27.3759 32.2603 27.7864 32.2603 27.8007C32.2603 27.8122 32.3349 27.8323 32.4239 27.8438C32.5158 27.8553 32.7053 27.8582 32.8488 27.8495C32.9924 27.8381 33.1215 27.8208 33.1417 27.8122C33.1618 27.8007 33.3139 27.5021 33.4804 27.1462C33.6469 26.7902 33.8307 26.4199 33.8824 26.3222C33.9455 26.2074 34 26.1413 34.0345 26.1413C34.0603 26.1413 34.2441 26.1729 34.4422 26.2131C34.6403 26.2534 35.0595 26.3309 35.3752 26.3853C35.691 26.4399 36.136 26.5117 36.3657 26.5404C36.5953 26.572 37.0346 26.6237 37.3417 26.6552C37.649 26.6868 38.1916 26.7327 38.5476 26.7586C38.9036 26.7816 39.3428 26.8102 39.5237 26.8217L39.8509 26.8447C39.9571 27.0285 39.9686 27.1003 39.9715 27.3471C39.9745 27.5136 39.9773 27.683 39.9802 27.7289L39.983 27.8064C40.7696 27.8064 40.8471 27.7979 40.8586 27.7635C40.8673 27.7404 40.873 27.5911 40.873 27.4333C40.873 27.2753 40.8874 27.0859 40.9017 27.0113L40.9304 26.8735C41.4098 26.8389 41.8577 26.8017 42.2367 26.7701C42.6156 26.7414 43.1066 26.6955 43.3276 26.6696C43.5487 26.6467 43.9248 26.6007 44.1601 26.5692C44.3985 26.5376 44.7458 26.4887 44.9354 26.4543C45.1248 26.4227 45.4234 26.371 45.5956 26.3394C45.7679 26.305 46.0464 26.2475 46.2129 26.2074C46.3794 26.1672 46.5602 26.1356 46.6148 26.1385C46.6693 26.1413 46.7296 26.1557 46.744 26.17C46.7583 26.1844 46.9594 26.5577 47.189 26.9998L47.6052 27.8036C47.8952 27.8352 48.0703 27.8352 48.1794 27.8266C48.2885 27.8179 48.4034 27.8036 48.4321 27.795C48.458 27.7864 48.4809 27.7605 48.4809 27.7433C48.4809 27.7232 48.3029 27.3012 48.0876 26.8074C47.7402 26.0237 47.6971 25.906 47.7345 25.8714C47.7574 25.8514 47.9269 25.7939 48.1076 25.7452C48.2885 25.6964 48.7421 25.5528 49.1125 25.4265C49.4828 25.3031 50.0398 25.1021 50.347 24.9844C50.6542 24.8667 51.1652 24.6628 51.481 24.5337L52.0552 24.3012C52.3365 24.6026 52.5805 24.8867 52.7844 25.1222C52.9853 25.3605 53.2896 25.7337 53.4619 25.9548C53.6342 26.1759 53.9557 26.6007 54.1739 26.9022C54.3921 27.2036 54.6247 27.528 54.6907 27.6227L54.8112 27.7979C55.1443 27.8237 55.3452 27.8208 55.4716 27.8094C55.5979 27.7979 55.7185 27.7807 55.7385 27.7692C55.7615 27.7548 55.7241 27.6686 55.6064 27.4706C55.5146 27.3156 55.3539 27.06 55.2533 26.9022C55.15 26.7442 54.9577 26.4715 54.8256 26.2993C54.6935 26.127 54.4438 25.7969 54.2715 25.5671C54.0964 25.3375 53.8782 25.0533 53.7806 24.9356C53.6829 24.8179 53.4676 24.5652 53.2983 24.3757C53.0513 24.1001 52.9882 24.0141 52.9882 23.9451C52.9882 23.8618 53.0256 23.836 54.128 23.1929C54.7567 22.8283 55.3395 22.501 55.4227 22.4694L55.572 22.4091C56.2496 22.9604 56.6141 23.2647 56.8209 23.4456C57.0275 23.6236 57.5127 24.0886 57.9003 24.4762C58.2879 24.8638 58.7415 25.3346 58.908 25.5241C59.0717 25.7136 59.4018 26.1098 59.6372 26.4027C59.8727 26.6954 60.1942 27.1175 60.352 27.3386L60.6391 27.7433C61.311 27.8094 61.4114 27.8094 61.5148 27.7807C61.5866 27.7605 61.6469 27.7404 61.6526 27.7318C61.6554 27.7261 61.5004 27.4964 61.3081 27.2266C61.1158 26.9538 60.8344 26.5692 60.6851 26.371C60.5359 26.1729 60.3033 25.8773 60.1683 25.7107C60.0334 25.5442 59.7349 25.1968 59.5051 24.9356C59.2755 24.6743 58.8621 24.2322 58.5865 23.948C58.3108 23.6667 57.8774 23.2475 57.6247 23.0178C57.372 22.791 56.9443 22.4178 56.6773 22.1938C56.4104 21.9699 55.9682 21.6197 55.7012 21.4187C55.4342 21.2178 54.8974 20.8417 54.5098 20.5862C54.1222 20.3278 53.6141 20.0033 53.3758 19.8655C53.1403 19.7278 52.7528 19.5096 52.5145 19.3804C52.2791 19.2511 51.8111 19.0158 51.481 18.8579C51.1509 18.7 50.7288 18.5047 50.548 18.4244C50.3671 18.3439 50.0513 18.2119 49.8445 18.1315C49.6379 18.0483 49.2446 17.9018 48.9689 17.8014C48.6933 17.7009 48.234 17.5488 47.9498 17.4597C47.6655 17.3736 47.2062 17.2444 46.9306 17.1727C46.655 17.1009 46.2157 16.9947 45.9545 16.9401C45.6933 16.8827 45.3143 16.8052 45.1076 16.765C44.9008 16.7248 44.4243 16.6502 44.0454 16.5956C43.6664 16.5439 43.1956 16.4836 42.9974 16.4664C42.7993 16.4463 42.6071 16.4406 42.5668 16.4492C42.5266 16.4578 42.4807 16.4521 42.4663 16.4406C42.452 16.4262 42.2567 16.4004 42.0357 16.3832C41.8146 16.3659 41.361 16.3487 41.0309 16.3401C40.7008 16.3344 40.2788 16.3401 40.0979 16.3516C39.917 16.3631 39.5753 16.3745 39.337 16.3774ZM33.3226 30.1032C33.1561 30.1205 32.8344 30.1663 32.6048 30.2065C32.3751 30.2468 32.0278 30.3156 31.8297 30.3645C31.6316 30.4104 31.3215 30.4965 31.1406 30.5511C30.9597 30.6085 30.6354 30.7262 30.4229 30.8123C30.2105 30.8985 29.8545 31.0621 29.6335 31.1769C29.4124 31.2889 29.0822 31.4813 28.9013 31.5989C28.7204 31.7166 28.4564 31.9119 28.3128 32.0325C28.1693 32.1502 27.9682 32.3396 27.862 32.4545C27.753 32.5664 27.5692 32.7904 27.4487 32.9512C27.3281 33.1147 27.1816 33.3301 27.1213 33.4335C27.061 33.5368 26.9663 33.7176 26.906 33.8354C26.8457 33.9531 26.7395 34.2 26.6707 34.3808C26.5989 34.5617 26.4984 34.8804 26.4467 35.0842C26.395 35.288 26.329 35.6125 26.3003 35.8019C26.2602 36.0603 26.2458 36.3158 26.2458 36.8355C26.2458 37.2604 26.2602 37.6307 26.2831 37.7972C26.3061 37.9465 26.3606 38.2508 26.4037 38.4719C26.4496 38.6929 26.5357 39.0087 26.5902 39.1752C26.6477 39.3417 26.7798 39.6375 26.8803 39.8356C26.9835 40.0336 27.1472 40.3064 27.2449 40.4442C27.3424 40.5821 27.5004 40.7858 27.5951 40.9007C27.6898 41.0126 27.9166 41.251 28.0975 41.426C28.2784 41.6012 28.5913 41.8681 28.7922 42.0174C28.9903 42.1667 29.2889 42.3735 29.4526 42.4768C29.6133 42.5772 29.9176 42.7467 30.1215 42.8529C30.3253 42.9591 30.6554 43.1141 30.8535 43.1945C31.0516 43.2778 31.6717 43.4959 32.2315 43.6826C32.7915 43.8692 33.6384 44.1391 34.112 44.2797C34.5857 44.4233 35.625 44.7362 36.4231 44.9745C37.2212 45.2128 38.3179 45.5487 38.8634 45.7238C39.4088 45.8989 39.9112 46.0741 39.983 46.1113C40.0548 46.1487 40.1811 46.2491 40.2644 46.3296C40.3706 46.4358 40.4309 46.5219 40.4567 46.6109C40.4797 46.6912 40.4854 46.7832 40.474 46.8549C40.4625 46.918 40.4395 46.9956 40.4223 47.0272C40.405 47.0588 40.3476 47.1248 40.2931 47.1735C40.2414 47.2253 40.1467 47.2971 40.0835 47.3344C40.0174 47.3746 39.8078 47.4434 39.5954 47.4952C39.3888 47.5439 39.0557 47.6099 38.849 47.6415C38.6423 47.6732 38.3007 47.7133 38.0882 47.7305C37.8758 47.7449 37.5657 47.7592 37.3992 47.7592C37.2327 47.7592 36.9227 47.7449 36.7102 47.7277C36.4978 47.7105 36.136 47.6674 35.9063 47.6273C35.6766 47.5899 35.3465 47.5209 35.1743 47.4721C35.002 47.4262 34.7034 47.3372 34.5139 47.2712C34.3245 47.2052 33.9369 47.0358 33.6526 46.898C33.3655 46.7545 32.9694 46.5334 32.7627 46.3927C32.5589 46.2549 32.2804 46.0511 32.1455 45.9391C32.0134 45.8271 31.7923 45.629 31.6575 45.4999C31.5052 45.3563 31.3589 45.1784 31.2698 45.0348C31.1923 44.9085 31.0516 44.6845 30.9569 44.5381L30.7904 44.2711C27.4228 44.3027 26.4439 44.3171 26.4409 44.3199C26.4409 44.3256 26.4209 45.3047 26.4037 46.4961C26.3836 47.6874 26.3749 49.2177 26.3864 49.8981C26.395 50.5785 26.4152 51.4226 26.4267 51.7757L26.4467 52.4187C30.1617 52.3843 31.244 52.3728 31.2468 52.3728C31.2498 52.3699 31.267 52.0312 31.2842 51.6207C31.3043 51.21 31.3215 50.8713 31.3243 50.8656C31.3243 50.8598 31.3531 50.8628 31.3846 50.8713C31.4163 50.88 31.7894 51.0751 32.2173 51.3049C32.645 51.5345 33.1531 51.7842 33.3513 51.8617C33.5494 51.9393 33.9111 52.0685 34.1551 52.1488C34.3991 52.2264 34.8068 52.344 35.0595 52.4073C35.312 52.4704 35.6853 52.5536 35.892 52.5939C36.0987 52.6341 36.3801 52.6857 36.5236 52.7086C36.6671 52.7345 36.9484 52.7719 37.1552 52.7976C37.3619 52.8207 37.8069 52.8522 38.1457 52.8695C38.5504 52.8867 38.9495 52.8867 39.3083 52.8695C39.6098 52.8522 39.9974 52.8264 40.1697 52.8092C40.3419 52.7919 40.6721 52.746 40.9017 52.7086C41.1314 52.6685 41.473 52.5996 41.6625 52.5536C41.852 52.5077 42.1735 52.4158 42.3803 52.3499C42.5869 52.2839 42.9114 52.169 43.1066 52.0915C43.2989 52.014 43.5889 51.8847 43.7525 51.8044C43.9133 51.7211 44.1745 51.5718 44.3325 51.4685C44.4903 51.368 44.743 51.1843 44.8923 51.0665C45.0416 50.946 45.2941 50.7163 45.4521 50.5584C45.61 50.4005 45.8569 50.1163 46.0004 49.9268C46.1411 49.7373 46.3363 49.4531 46.4282 49.2952C46.52 49.1373 46.655 48.8847 46.7239 48.7354C46.7957 48.5861 46.9133 48.276 46.9909 48.0463C47.0656 47.8167 47.1603 47.4693 47.2004 47.2712C47.2406 47.0731 47.2866 46.786 47.3009 46.631C47.3182 46.4789 47.3325 46.1544 47.3325 45.9133C47.3325 45.675 47.3181 45.3621 47.3038 45.2185C47.2866 45.075 47.2465 44.8252 47.2148 44.6587C47.1804 44.4922 47.1 44.1964 47.0369 43.9983C46.9736 43.8003 46.8186 43.4385 46.698 43.1945C46.5746 42.9505 46.3852 42.6146 46.2731 42.4481C46.1641 42.2816 45.9861 42.0376 45.877 41.9026C45.7708 41.7677 45.5383 41.5122 45.3659 41.3313C45.1937 41.1533 44.9354 40.9064 44.7918 40.783C44.6483 40.6624 44.4358 40.4901 44.3181 40.404C44.2004 40.3179 43.9679 40.1629 43.8014 40.0595C43.6348 39.959 43.365 39.8011 43.1985 39.715C43.0319 39.626 42.7477 39.4968 42.5668 39.425C42.386 39.3532 40.3907 38.759 38.1313 38.1015C34.2699 36.979 34.0058 36.8987 33.6814 36.7407C33.3771 36.5914 33.3226 36.5513 33.2192 36.4163C33.1531 36.3302 33.0786 36.201 33.0527 36.1234C33.0268 36.0489 33.0068 35.934 33.0068 35.8652C33.0068 35.7762 33.0268 35.7129 33.0928 35.621C33.1387 35.5551 33.2336 35.446 33.3024 35.3827C33.3685 35.3167 33.512 35.2192 33.624 35.1617C33.7388 35.1043 33.9369 35.0383 34.0833 35.0096C34.267 34.9722 34.468 34.955 34.7809 34.955C35.0192 34.955 35.4154 34.9694 35.6566 34.9837C35.8949 35.0009 36.2279 35.0325 36.3944 35.0584C36.5609 35.0842 36.8767 35.1417 37.0977 35.1876C37.3188 35.2306 37.6863 35.3225 37.9159 35.3857C38.1457 35.4517 38.5073 35.5694 38.7199 35.6498C38.9323 35.7302 39.2682 35.8737 39.4663 35.9742C39.6643 36.0718 39.9486 36.2268 40.0979 36.3188C40.2472 36.4077 40.4682 36.5541 40.5859 36.6431C40.7036 36.7293 40.9879 36.9905 41.2175 37.2202C41.45 37.4528 41.7171 37.7571 41.8204 37.9034L42.007 38.1676C43.23 38.1992 44.2376 38.1992 45.0358 38.1877C45.8339 38.1762 46.5172 38.1589 46.5545 38.1474L46.6234 38.1274C46.5918 33.8985 46.5746 32.2105 46.5631 31.6478C46.5517 31.085 46.5315 30.6142 46.52 30.5999C46.5058 30.5883 45.5755 30.5798 44.453 30.5826C43.3276 30.5855 42.2941 30.597 42.1505 30.6114L41.8921 30.6343C41.8664 31.5932 41.8492 31.7798 41.8175 31.8459L41.7774 31.9348C40.5572 31.2687 40.1782 31.0822 39.9112 30.9817C39.6902 30.8956 39.3485 30.775 39.1505 30.7119C38.9524 30.6486 38.5849 30.5424 38.3323 30.4793C38.0796 30.4161 37.7063 30.3328 37.4997 30.2927C37.293 30.2525 36.9399 30.195 36.7102 30.1635C36.4806 30.1319 36.113 30.0946 35.892 30.0774C35.6709 30.063 35.2633 30.0429 34.9877 30.0372C34.7121 30.0285 34.2929 30.0343 34.0546 30.0457C33.8191 30.0602 33.4891 30.086 33.3226 30.1032ZM58.2133 30.0744C58.0324 30.0918 57.6563 30.1377 57.3807 30.1778C57.1051 30.218 56.6975 30.2869 56.4764 30.3358C56.2553 30.3817 55.8534 30.4793 55.5864 30.5511C55.3193 30.6229 54.8974 30.7549 54.6533 30.841C54.4093 30.93 54.059 31.065 53.8782 31.1425C53.6973 31.22 53.3098 31.4066 53.0169 31.5588C52.7241 31.7081 52.3624 31.9119 52.2131 32.0037C52.0638 32.0985 51.791 32.288 51.6102 32.4258C51.4293 32.5607 51.0848 32.865 50.8466 33.1033C50.6082 33.3387 50.3039 33.6688 50.1747 33.8354C50.0426 34.0019 49.8245 34.3033 49.6895 34.5101C49.5546 34.7138 49.3249 35.1158 49.1813 35.4001C49.0378 35.6842 48.8627 36.0775 48.791 36.2757C48.7163 36.4738 48.6101 36.7953 48.5527 36.9934C48.4924 37.1914 48.389 37.6479 48.3172 38.0126C48.2484 38.3772 48.1679 38.8393 48.1363 39.0461C48.1048 39.2528 48.0617 39.5944 48.0388 39.8068C48.0129 40.0193 47.9785 40.3954 47.9613 40.6394C47.9411 40.9208 47.9326 41.4432 47.9441 42.0605C47.9526 42.672 47.9756 43.1801 48.0044 43.4242C48.0301 43.6367 48.0847 44.0127 48.1249 44.2568C48.1651 44.5008 48.2484 44.9027 48.3087 45.1467C48.3689 45.3908 48.4837 45.784 48.5612 46.0223C48.6388 46.2578 48.7565 46.5822 48.8254 46.7401C48.8914 46.898 49.0407 47.2138 49.1556 47.4434C49.2733 47.6731 49.4943 48.0521 49.6523 48.2903C49.8101 48.5258 50.0284 48.8301 50.1346 48.965C50.2437 49.1 50.4474 49.3296 50.591 49.4789C50.7317 49.6254 51.0044 49.8723 51.1939 50.0244C51.3834 50.1794 51.7049 50.4206 51.9116 50.5642C52.1183 50.7077 52.4599 50.9259 52.6724 51.0522C52.8848 51.1785 53.1748 51.3421 53.3183 51.4111C53.4619 51.4828 53.7203 51.6063 53.8925 51.6838C54.0647 51.7642 54.4151 51.9048 54.6676 52.0025C54.9203 52.0972 55.3711 52.2465 55.6725 52.3326C55.974 52.4217 56.4391 52.5364 56.706 52.591C56.973 52.6485 57.3376 52.7116 57.5098 52.7374C57.6822 52.7632 58.0065 52.8035 58.2276 52.8293C58.4486 52.8522 59.0171 52.881 59.4908 52.8895C60.0334 52.901 60.5444 52.8925 60.8689 52.8723C61.153 52.8522 61.5923 52.812 61.8449 52.7804C62.0976 52.7489 62.4535 52.6972 62.6344 52.6657C62.8153 52.6341 63.1139 52.5767 63.2947 52.5364C63.4756 52.4963 63.9092 52.3929 64.2565 52.3039C64.6038 52.2178 65.0058 52.1029 65.1464 52.0512C65.2872 51.9996 65.58 51.879 65.7924 51.7785C66.0049 51.681 66.3322 51.523 66.5188 51.4311C66.7025 51.3364 66.9924 51.1756 67.1647 51.0723C67.3341 50.966 67.6068 50.7852 67.7733 50.6646C67.9398 50.5469 68.1723 50.3718 68.2901 50.2742C68.4078 50.1794 68.6949 49.9125 68.9246 49.6827C69.1542 49.4531 69.4356 49.1516 69.5475 49.0081C69.6624 48.8645 69.8691 48.5545 70.0098 48.3191C70.1504 48.0809 70.3169 47.7851 70.3802 47.6587C70.4433 47.5324 70.5753 47.2425 70.673 47.0128C70.7705 46.7832 70.9256 46.3697 71.0175 46.0941C71.1094 45.8185 71.2385 45.3793 71.3016 45.118C71.3649 44.8568 71.4509 44.4634 71.4883 44.2423C71.5284 44.0213 71.5802 43.6912 71.6031 43.5103C71.6261 43.3294 71.6634 43.0136 71.6835 42.807C71.7036 42.583 71.718 42.0461 71.718 41.4576C71.718 40.7486 71.7036 40.3437 71.6663 39.9792C71.6405 39.7035 71.5859 39.2642 71.5457 39.003C71.5055 38.7418 71.4481 38.4001 71.4165 38.2422C71.3849 38.0843 71.3247 37.8202 71.2874 37.6537C71.2472 37.4872 71.1638 37.1714 71.1007 36.9503C71.0347 36.7293 70.9342 36.4135 70.8739 36.247C70.8136 36.0805 70.7161 35.8306 70.6529 35.6871C70.5897 35.5435 70.4462 35.268 70.3341 35.0699C70.2251 34.8718 70.0213 34.556 69.8835 34.3665C69.7457 34.177 69.5303 33.9072 69.4097 33.7637C69.2863 33.6201 69.0538 33.3761 68.8901 33.2181C68.7265 33.0574 68.4738 32.8334 68.3332 32.7129C68.1925 32.5951 67.9457 32.4086 67.7877 32.2937C67.6298 32.1818 67.3254 31.9894 67.113 31.8659C66.9006 31.7454 66.5446 31.5558 66.3235 31.4496C66.1025 31.3434 65.8039 31.2086 65.6633 31.1511C65.5225 31.0937 65.2556 30.9903 65.0747 30.9214C64.8939 30.8554 64.5435 30.7405 64.2995 30.6688C64.0555 30.5941 63.6335 30.4851 63.3665 30.4218C63.0995 30.3587 62.7234 30.2812 62.534 30.2496C62.3445 30.218 62.0402 30.1721 61.8593 30.1491C61.6784 30.1233 61.288 30.086 60.9923 30.0602C60.6449 30.0343 60.1655 30.02 59.6573 30.0228C59.218 30.0257 58.7874 30.0315 58.7013 30.0372C58.6151 30.04 58.3941 30.0602 58.2133 30.0744ZM10.9209 30.2783C10.8979 32.1789 10.9008 33.3818 10.9123 34.1799C10.9238 34.978 10.941 35.6354 10.9467 35.6441C10.9553 35.6526 11.4635 35.667 12.0721 35.6785C12.6836 35.6871 13.3698 35.7044 13.5994 35.7159C13.8291 35.7244 14.0387 35.7388 14.0645 35.7474C14.1133 35.7588 14.1162 36.0459 14.1133 41.2911C14.1133 44.3372 14.1018 46.8836 14.0932 46.9554L14.0731 47.0845C12.7812 47.1162 12.0693 47.1334 11.6558 47.1478L10.9065 47.1707C10.8721 47.9057 10.8606 48.8789 10.8606 49.812C10.8606 50.745 10.8721 51.7097 10.8807 51.9565L10.9008 52.4101H25.0831C25.0831 48.3391 25.0801 47.1563 25.0744 47.1535C25.0716 47.1535 24.4084 47.1391 23.6045 47.1248C22.8007 47.1104 22.0629 47.0875 21.9681 47.076L21.7958 47.0559C21.7987 45.5859 21.8016 43.0625 21.8045 40.4959C21.8102 36.3848 21.816 35.8249 21.8561 35.7732C21.8963 35.7187 21.9423 35.7159 23.4868 35.7015L25.0773 35.6871C25.1118 33.1177 25.106 32.1933 25.0859 31.4382C25.0659 30.8066 25.0486 30.2869 25.0457 30.2812C25.0428 30.2783 21.9911 30.2697 18.2647 30.264C14.5382 30.2583 11.363 30.2583 11.2051 30.2668L10.9209 30.2783ZM25.1491 54.8275C25.1491 54.8332 25.2553 55.0169 25.3874 55.238C25.5223 55.4591 25.7348 55.7949 25.8639 55.9844C25.9903 56.1739 26.3175 56.6247 26.5902 56.9892C26.863 57.351 27.2821 57.8878 27.5204 58.1807C27.7558 58.4735 27.9425 58.7203 27.931 58.7319C27.9195 58.7434 27.7042 58.8755 27.4515 59.0305C27.1989 59.1826 26.7711 59.4381 26.5042 59.596C26.2343 59.7538 25.8639 59.9577 25.6773 60.0496C25.4936 60.1443 25.3271 60.2189 25.3127 60.2189C25.2955 60.2189 25.1577 60.1185 25.0026 59.9979C24.8505 59.8774 24.6065 59.6793 24.4658 59.5616C24.3222 59.4438 23.995 59.1481 23.7337 58.9099C23.4725 58.6716 23.0791 58.2898 22.858 58.063C22.637 57.8362 22.3384 57.5203 22.1978 57.3624C22.0542 57.2045 21.813 56.926 21.6609 56.7452C21.5116 56.5644 21.2447 56.2342 21.0724 56.0131C20.903 55.792 20.6389 55.4332 20.4896 55.2178L20.2169 54.8246C19.9269 54.7959 19.703 54.7959 19.5336 54.8044C19.3642 54.8131 19.2264 54.8303 19.2264 54.8418C19.2264 54.8562 19.3528 55.0513 19.5049 55.2811C19.6599 55.5107 19.9614 55.9299 20.1738 56.214C20.3862 56.4983 20.7221 56.926 20.9202 57.1615C21.1154 57.3998 21.4456 57.7787 21.6552 58.0084C21.8619 58.238 22.3155 58.7031 22.66 59.042C23.0045 59.3807 23.438 59.7912 23.6189 59.9492C23.7998 60.107 24.1098 60.374 24.3079 60.5376C24.5059 60.7041 24.9453 61.0458 25.284 61.3013C25.6227 61.554 26.1137 61.9042 26.3749 62.0764C26.6362 62.2516 27.1071 62.5472 27.4228 62.7368C27.7386 62.9262 28.1836 63.1817 28.4133 63.3023C28.6429 63.42 28.8525 63.5205 28.8784 63.5205C28.9071 63.5205 28.9357 63.5406 28.9444 63.5635C28.9531 63.5865 29.1368 63.6928 29.3521 63.7961C29.5702 63.8995 29.9865 64.0889 30.2793 64.2153C30.5722 64.3416 30.9597 64.5024 31.1406 64.5741C31.3215 64.6459 31.6832 64.7808 31.9444 64.8756C32.2058 64.9674 32.6881 65.1311 33.0211 65.2316C33.3513 65.335 33.9197 65.4957 34.2843 65.5875C34.646 65.6795 35.2402 65.8143 35.6049 65.8861C35.9667 65.9579 36.492 66.0469 36.7677 66.0872C37.0432 66.1273 37.5141 66.1876 37.8155 66.2163C38.114 66.2479 38.5734 66.2909 38.8346 66.311C39.1246 66.334 39.7906 66.3484 40.5572 66.3484C41.3007 66.3484 42.0099 66.334 42.3085 66.311C42.584 66.2909 43.0433 66.2479 43.3276 66.2163C43.6118 66.1876 44.031 66.1359 44.2607 66.1014C44.4903 66.0699 44.987 65.9838 45.3659 65.9148C45.7449 65.843 46.345 65.7139 46.7009 65.6249C47.0569 65.5387 47.6167 65.3866 47.9498 65.2861C48.2799 65.1857 48.8053 65.0163 49.1125 64.9043C49.4196 64.7952 49.8388 64.6372 50.0456 64.554C50.2494 64.4707 50.5795 64.3329 50.7776 64.2469C50.9757 64.1607 51.369 63.977 51.6532 63.8392C51.9375 63.7014 52.3882 63.4688 52.658 63.3225C52.925 63.1732 53.3327 62.9434 53.5624 62.8086C53.792 62.6736 54.2227 62.4009 54.5242 62.2028C54.8228 62.0046 55.2764 61.686 55.5289 61.4994C55.7816 61.3128 56.1031 61.0659 56.2467 60.9539C56.3873 60.8419 56.7232 60.5635 56.9902 60.3338C57.2601 60.1042 57.6907 59.7166 57.952 59.4697C58.2133 59.2227 58.6181 58.8237 58.8477 58.5797C59.0774 58.3357 59.4076 57.9768 59.5798 57.7787C59.7521 57.5806 60.0105 57.2763 60.1511 57.104C60.2947 56.929 60.5329 56.6275 60.6851 56.4294C60.8344 56.2313 61.0555 55.9356 61.1732 55.7691C61.2938 55.6026 61.4889 55.3212 61.6095 55.1433L61.8306 54.8216L60.8114 54.8246C60.6363 55.0772 60.4008 55.3958 60.177 55.6973C59.953 55.9959 59.6028 56.4438 59.3989 56.6878C59.1951 56.9318 58.888 57.2877 58.7156 57.4773C58.5463 57.6667 58.1271 58.1002 57.7854 58.4391C57.4439 58.7806 56.9702 59.2257 56.7347 59.4295C56.4964 59.6362 56.2065 59.8802 56.0887 59.9721L55.8735 60.1443C55.6036 60.107 55.4744 60.0467 55.1328 59.8487C54.8916 59.708 54.527 59.5013 54.3232 59.3864C54.1165 59.2716 53.8409 59.1137 53.706 59.0333C53.571 58.9558 53.3815 58.8409 53.2811 58.7806L53.1031 58.6687C54.0074 57.5462 54.4179 57.018 54.6017 56.7739C54.7825 56.5298 55.0581 56.1423 55.2103 55.9126C55.3654 55.6829 55.5807 55.3471 55.6897 55.1662C55.796 54.9853 55.885 54.8275 55.8878 54.8131C55.8878 54.8016 55.6697 54.7929 55.4055 54.7929L54.926 54.7959C54.4351 55.5136 54.1394 55.9356 53.95 56.1998C53.7604 56.461 53.4763 56.8341 53.3212 57.0322C53.1633 57.2304 52.9107 57.5319 52.7557 57.7069C52.6007 57.8792 52.4168 58.0802 52.3451 58.152L52.2131 58.2811C52.0235 58.2065 51.6704 58.0658 51.3087 57.9222C50.9441 57.7787 50.3441 57.5519 49.9738 57.417C49.6034 57.282 49.0148 57.0897 48.6674 56.9864C48.2426 56.86 48.0129 56.7797 47.9698 56.7366C47.921 56.6906 47.9067 56.6562 47.9211 56.6016C47.9326 56.5614 48.0646 56.2658 48.2138 55.9413C48.3661 55.6169 48.5268 55.2437 48.5699 55.1087C48.6158 54.9738 48.6532 54.8475 48.6532 54.8275C48.6532 54.8016 48.5498 54.7929 48.2369 54.7929H47.8205C47.1545 56.0934 46.9564 56.4839 46.9536 56.4983C46.9479 56.5126 46.744 56.4839 46.4999 56.4351C46.2559 56.3835 45.8683 56.3117 45.6387 56.2743C45.409 56.2342 44.9439 56.1624 44.6052 56.1165C44.2664 56.0677 43.7554 56.0016 43.4712 55.97C43.1869 55.9384 42.65 55.8868 42.2797 55.8552C41.9093 55.8237 41.4701 55.7863 41.3036 55.7748L41.0021 55.7547C40.9735 55.6198 40.9649 55.4304 40.962 55.2437C40.9592 55.06 40.9448 54.8819 40.9304 54.8504C40.9046 54.7959 40.873 54.7929 40.4998 54.7929C40.141 54.7929 40.0949 54.7987 40.0835 54.8418C40.0777 54.8705 40.072 55.0543 40.0777 55.2523C40.0807 55.5394 40.0749 55.6284 40.0346 55.6973L39.9888 55.7834C38.7715 55.8609 38.1657 55.9097 37.8586 55.9413C37.5513 55.9729 37.092 56.0246 36.8394 56.0562C36.5868 56.0877 36.159 56.148 35.892 56.1883C35.6222 56.2284 35.1312 56.3117 34.801 56.372C34.468 56.4351 34.1895 56.4754 34.178 56.4638C34.1695 56.4523 33.9684 56.0705 33.7331 55.6169L33.3082 54.7901C32.7082 54.7959 32.5101 54.8044 32.4842 54.8159C32.4411 54.8332 32.49 54.9652 32.8344 55.7691L33.2364 56.7022C33.1359 56.7969 32.9637 56.8629 32.7771 56.9174C32.5962 56.9691 32.0536 57.1442 31.5713 57.3051C31.089 57.4686 30.443 57.6984 30.1358 57.816C29.8287 57.9366 29.421 58.0974 29.2315 58.1749C28.91 58.307 28.8813 58.3155 28.8066 58.2783C28.7635 58.2552 28.5683 58.0543 28.3759 57.8275C28.1808 57.6036 27.8937 57.2648 27.7357 57.0753C27.5807 56.8859 27.3137 56.55 27.1472 56.3289C26.9807 56.1078 26.7195 55.7462 26.5702 55.5251C26.4209 55.304 26.2659 55.0658 26.2285 54.9968C26.1855 54.9193 26.1194 54.8532 26.0506 54.8188C25.9731 54.7787 25.8898 54.7642 25.7491 54.7672C25.6429 54.77 25.4649 54.7815 25.3558 54.7959C25.2438 54.8102 25.1519 54.8245 25.1491 54.8275ZM40.385 17.2186C40.7409 17.2157 41.2835 17.2272 41.5907 17.2416C41.8979 17.2588 42.4204 17.2961 42.7534 17.3277C43.0836 17.3592 43.6405 17.4282 43.9879 17.4828C44.3353 17.5372 44.832 17.6291 45.0932 17.6837C45.3544 17.7411 45.6158 17.7986 45.6731 17.8158C45.7392 17.833 45.7823 17.8617 45.7823 17.8875C45.7823 17.9105 45.6415 18.0224 45.4722 18.1344C45.3028 18.2435 44.9783 18.4301 44.7487 18.5478C44.519 18.6627 44.2492 18.7918 44.1458 18.8349C44.0425 18.8751 43.8157 18.9612 43.6434 19.0244C43.4683 19.0876 43.1324 19.188 42.897 19.2512C42.6587 19.3115 42.2654 19.3947 42.0214 19.435C41.7774 19.478 41.4271 19.524 41.2463 19.5412C41.0654 19.5584 40.6375 19.5699 40.2988 19.5699C39.9601 19.5699 39.5323 19.5555 39.3514 19.5382C39.1705 19.521 38.8605 19.4809 38.6624 19.4493C38.4643 19.4177 38.1227 19.3459 37.9016 19.2914C37.6806 19.2369 37.3561 19.1421 37.1839 19.0818C37.0087 19.0215 36.7246 18.9124 36.5523 18.8406C36.3772 18.7661 36.0786 18.6196 35.8834 18.5134C35.6881 18.4043 35.4039 18.2148 35.246 18.0885C35.0881 17.9621 34.9647 17.8559 34.9675 17.8502C34.9705 17.8473 35.1083 17.8128 35.2748 17.7756C35.4413 17.7383 35.7513 17.6722 35.9637 17.632C36.1762 17.5918 36.4748 17.5401 36.6241 17.5172C36.7734 17.4942 37.1035 17.4482 37.3561 17.4167C37.6088 17.3851 38.0595 17.3392 38.361 17.3133C38.6596 17.2875 39.093 17.256 39.3228 17.2444C39.5524 17.2329 40.0289 17.2186 40.385 17.2186ZM47.0656 18.1602C47.0713 18.1602 47.3153 18.2292 47.611 18.3153C47.9067 18.4014 48.3947 18.5565 48.6962 18.6627C48.9948 18.7689 49.4599 18.944 49.7298 19.0502C49.9967 19.1593 50.4102 19.3316 50.6485 19.4378C50.8838 19.544 51.2083 19.6962 51.3661 19.7737C51.524 19.854 51.8197 20.0091 52.0265 20.1211C52.2303 20.2301 52.5863 20.4312 52.816 20.5661C53.0456 20.7011 53.5452 21.0168 53.9299 21.2723C54.3117 21.525 54.6275 21.7459 54.6275 21.7633C54.6275 21.7776 54.6045 21.8207 54.5758 21.8551C54.5471 21.8867 54.039 22.1881 53.4476 22.5212C52.6638 22.9604 52.3451 23.1269 52.2762 23.1269C52.1958 23.1269 52.1327 23.0781 51.8025 22.7623C51.5929 22.5642 51.2542 22.2484 51.0503 22.0676C50.8436 21.8838 50.5221 21.6025 50.3327 21.4446C50.1431 21.2866 49.8388 21.0398 49.658 20.899C49.4771 20.7555 49.1153 20.4857 48.8541 20.2962C48.5929 20.1039 48.1479 19.7937 47.8636 19.6072C47.5795 19.4176 47.1488 19.1449 46.9076 18.9986C46.6665 18.8521 46.4741 18.72 46.477 18.7028C46.4827 18.6856 46.6148 18.5593 46.7727 18.4187C46.9306 18.2779 47.0626 18.1632 47.0656 18.1602ZM33.5953 18.1919C33.6269 18.1889 33.7044 18.2205 33.7675 18.2636C33.8307 18.3067 33.9915 18.4244 34.3704 18.7143L34.0977 18.8865C33.9484 18.9814 33.6441 19.1794 33.423 19.3229C33.202 19.4694 32.7627 19.7737 32.4469 19.9976C32.1311 20.2244 31.6717 20.5632 31.4277 20.7527C31.1837 20.9421 30.7244 21.3125 30.4086 21.5766C30.0928 21.8408 29.642 22.2369 29.4095 22.4551C29.1741 22.6762 28.8928 22.9374 28.5798 23.2274L28.4305 23.1728C28.3502 23.1413 28.1491 23.0551 27.9826 22.9776C27.8161 22.9001 27.5377 22.7565 27.3654 22.6618C27.1903 22.5642 26.8457 22.3518 26.596 22.1881C26.3462 22.0245 26.1453 21.8723 26.1453 21.8493C26.1453 21.8264 26.2774 21.7115 26.4381 21.5939C26.6017 21.4762 26.9606 21.235 27.2362 21.0513C27.5118 20.8704 27.9568 20.5947 28.2267 20.4397C28.4936 20.2876 29.0248 20.0033 29.4037 19.8111C29.7828 19.6215 30.3253 19.366 30.6095 19.2454C30.8937 19.1248 31.3129 18.9555 31.5426 18.8693C31.7722 18.7803 32.1512 18.6425 32.3895 18.5593C32.625 18.476 32.8747 18.3726 32.9407 18.3267C33.0469 18.2579 33.0727 18.2521 33.1215 18.2808C33.1675 18.3124 33.2077 18.3067 33.357 18.255C33.4575 18.2234 33.5637 18.1919 33.5953 18.1919ZM45.4147 19.2512C45.4262 19.2512 45.6215 19.3488 45.8454 19.4722C46.0722 19.5928 46.4311 19.7937 46.6436 19.9201C46.856 20.0464 47.1976 20.2589 47.4043 20.3938C47.6081 20.5259 47.9441 20.7555 48.1507 20.902C48.3546 21.0483 48.6991 21.301 48.9116 21.4675C49.124 21.6312 49.4857 21.9269 49.7154 22.1192C49.9451 22.3144 50.3871 22.7134 50.6973 23.0063C51.2083 23.4887 51.2628 23.549 51.2284 23.5977C51.2083 23.6265 50.9671 23.747 50.6914 23.8648C50.4159 23.9795 49.9681 24.1576 49.701 24.2581C49.4312 24.3585 48.9919 24.5136 48.7249 24.5997C48.455 24.6887 48.056 24.8064 47.8349 24.861C47.6139 24.9155 47.3899 24.9672 47.3383 24.9758C47.2493 24.993 47.2435 24.9873 47.1259 24.7834C47.0598 24.6714 46.7927 24.2265 46.5315 23.8015C46.2703 23.3738 45.7851 22.6187 45.4521 22.122C45.1191 21.6255 44.6453 20.9364 44.3956 20.5919C44.1487 20.2503 43.9477 19.9661 43.9507 19.9604C43.9564 19.9546 43.9908 19.9316 44.031 19.9058C44.0711 19.8828 44.3353 19.7565 44.6195 19.6244C44.9038 19.4952 45.1937 19.3575 45.2654 19.3201C45.3372 19.2828 45.4033 19.2541 45.4147 19.2512ZM35.3092 19.3144L35.5417 19.4004C35.6709 19.4465 35.9265 19.544 36.1073 19.613C36.2882 19.6847 36.5121 19.7765 36.604 19.8196C36.6959 19.8627 36.7705 19.9029 36.7677 19.9115C36.7677 19.9201 36.7475 19.9776 36.7216 20.0407C36.6959 20.1039 36.5092 20.3737 36.3083 20.6436C36.1073 20.9105 35.8087 21.324 35.6479 21.5622C35.4872 21.7977 35.203 22.2312 35.0164 22.524C34.8327 22.8168 34.5714 23.236 34.4364 23.4571C34.3015 23.6781 34.0402 24.1145 33.8565 24.4246C33.6154 24.838 33.5063 24.9988 33.4575 25.0103C33.4201 25.0188 33.1962 24.97 32.9206 24.8925C32.6594 24.8179 32.2201 24.6887 31.9444 24.5997C31.6689 24.5136 31.1895 24.3528 30.8822 24.2409C30.5751 24.1288 30.1531 23.9681 29.9493 23.8791C29.7425 23.793 29.5702 23.7212 29.5674 23.7183C29.5617 23.7155 29.5645 23.6752 29.5732 23.6293C29.5846 23.5719 29.6592 23.4714 29.8114 23.325C29.9349 23.2044 30.1903 22.9661 30.3799 22.7967C30.5694 22.6245 30.9253 22.3202 31.1693 22.1135C31.4133 21.9096 31.8584 21.5594 32.1598 21.3326C32.4583 21.1058 32.9637 20.747 33.2795 20.5374C33.5953 20.3249 34.0402 20.0436 34.2699 19.9058C34.4997 19.7708 34.8269 19.5813 34.9962 19.4866L35.3092 19.3144ZM37.8184 20.2101L39.8911 20.5L39.9084 20.6867C39.9199 20.79 39.9342 21.3526 39.9457 21.9355C39.9543 22.5212 39.9514 23.6408 39.9112 25.8542L39.7821 25.8744C39.7131 25.8858 39.4347 25.8945 39.1648 25.8945C38.8834 25.8945 38.4069 25.8657 38.0308 25.8285C37.6777 25.7939 37.049 25.7193 36.6384 25.6648C36.2279 25.6074 35.7255 25.5327 35.5188 25.4953C35.3149 25.4581 35.0422 25.4035 34.9159 25.3691C34.7896 25.3375 34.6374 25.2944 34.4738 25.237L34.6747 24.8638C34.7866 24.6599 35.048 24.2063 35.2546 23.859C35.4585 23.5116 35.8059 22.9633 36.0212 22.6389C36.2365 22.3144 36.5437 21.8695 36.7044 21.6484C36.8652 21.4274 37.181 21.0139 37.4078 20.7268L37.8184 20.2101ZM42.9056 20.233C42.9085 20.2301 43.1036 20.4771 43.3391 20.7814C43.5716 21.0857 43.8789 21.4905 44.0166 21.68C44.1573 21.8695 44.3784 22.1709 44.5075 22.3547C44.6368 22.5355 44.8636 22.8714 45.0157 23.1011C45.165 23.3279 45.389 23.6839 45.5124 23.8905C45.6358 24.0944 45.8511 24.4849 45.9889 24.7576C46.1297 25.0303 46.2359 25.2543 46.2272 25.2543C46.2215 25.2543 46.0636 25.2859 45.877 25.326C45.6904 25.3691 45.2741 25.4524 44.9497 25.5127C44.6281 25.5729 44.1631 25.6476 43.9161 25.6792C43.6721 25.7107 43.3362 25.7509 43.1697 25.7682C43.0061 25.7854 42.7133 25.8112 42.5238 25.8255C42.3343 25.8428 41.8951 25.8629 40.9161 25.8945L40.896 25.3662C40.8845 25.0763 40.8758 24.1834 40.8787 23.3881C40.8817 22.59 40.8902 21.6197 40.9161 20.5316L41.9065 20.3852C42.452 20.3019 42.9027 20.2359 42.9056 20.233ZM60.8545 35.5464C61.2105 35.5522 61.4947 35.5751 61.7158 35.6153C61.8995 35.6469 62.1607 35.7044 62.2985 35.7446C62.4363 35.7847 62.6574 35.8709 62.7866 35.9369C62.9158 36.003 63.0995 36.1092 63.1942 36.1723C63.2889 36.2355 63.4641 36.3848 63.5818 36.5053C63.7311 36.6546 63.8374 36.7953 63.9177 36.9531C63.9837 37.0795 64.0699 37.292 64.1101 37.4269C64.1474 37.5589 64.1991 37.8001 64.2249 37.958C64.2507 38.1159 64.291 38.4776 64.3139 38.7618C64.3484 39.1552 64.3598 39.7465 64.3628 41.2451C64.3685 42.5543 64.357 43.3697 64.334 43.6855C64.3139 43.9438 64.2738 44.3716 64.2422 44.6328C64.2105 44.8913 64.156 45.2013 64.1245 45.3219C64.0929 45.4396 64.0239 45.6262 63.9751 45.7382C63.9234 45.8473 63.823 46.0281 63.7512 46.1401C63.6794 46.2491 63.5445 46.4156 63.4498 46.5105C63.3579 46.6023 63.2029 46.7315 63.1082 46.7946C63.0134 46.8578 62.8067 46.9669 62.6488 47.0329C62.4909 47.1019 62.2325 47.1879 62.0746 47.2281C61.9167 47.2655 61.6985 47.3114 61.5866 47.3258C61.4775 47.343 61.265 47.3659 61.1129 47.3746C60.9636 47.3861 60.6678 47.3803 60.4526 47.3602C60.2401 47.343 59.93 47.2999 59.7635 47.2684C59.5998 47.2368 59.3271 47.165 59.1606 47.1104C58.997 47.053 58.7444 46.9526 58.6008 46.8866C58.4601 46.8205 58.2736 46.7027 58.1845 46.6281C58.0984 46.5534 57.9606 46.4128 57.8774 46.3152C57.7969 46.2176 57.6706 46.0281 57.6017 45.896C57.53 45.7611 57.4352 45.5343 57.3864 45.3937C57.3405 45.2501 57.2745 44.9975 57.2429 44.8338C57.2113 44.6673 57.1654 44.3773 57.1395 44.1879C57.1137 43.9983 57.0821 43.6222 57.0677 43.3553C57.0505 43.0854 57.0247 42.4079 57.0075 41.848C56.9816 41.0816 56.9816 40.6538 57.0046 40.1255C57.0247 39.738 57.0562 39.2528 57.0793 39.0489C57.1022 38.8422 57.1481 38.5207 57.1798 38.3313C57.2142 38.1417 57.2716 37.8575 57.3118 37.6996C57.3491 37.5417 57.4036 37.3407 57.4323 37.2546C57.4611 37.1657 57.53 37.0106 57.5873 36.9102C57.6448 36.8068 57.774 36.6316 57.8774 36.5225C57.9778 36.4105 58.1501 36.2613 58.2592 36.1895C58.3683 36.1149 58.5089 36.0287 58.572 35.9971C58.6353 35.9656 58.7846 35.8996 58.9022 35.8537C59.0228 35.8048 59.2554 35.7331 59.4191 35.6928C59.5856 35.6526 59.8583 35.5981 60.022 35.5751C60.2315 35.5464 60.487 35.5378 60.8545 35.5464ZM39.9974 56.7309C40.0548 56.7337 40.0548 56.7595 40.0749 59.4323C40.0835 60.9166 40.0835 62.1396 40.0749 62.1482C40.0634 62.1597 39.9256 62.1885 39.7677 62.2142C39.6098 62.2401 39.2308 62.2917 38.9208 62.3291C38.6135 62.3693 38.3035 62.4123 38.2317 62.4296C38.1629 62.4468 38.0824 62.4582 38.0537 62.4582C38.0251 62.4612 37.9045 62.3406 37.7638 62.1654C37.6346 62.0046 37.4164 61.7291 37.2844 61.5568C37.1495 61.3817 36.9714 61.1435 36.8853 61.0257C36.7992 60.9052 36.6126 60.641 36.4719 60.4372C36.3313 60.2305 36.0987 59.8744 35.9522 59.6476C35.8087 59.418 35.6106 59.1022 35.5159 58.9443C35.4183 58.7864 35.2891 58.5653 35.226 58.4563C35.1627 58.3442 35.0106 58.0745 34.6719 57.4514L34.7379 57.3854C34.7724 57.348 34.8584 57.3079 34.9245 57.2907C34.9905 57.2763 35.3465 57.2132 35.714 57.15C36.0815 57.0868 36.5609 57.0093 36.7819 56.9777C37.003 56.9462 37.4308 56.8944 37.7294 56.8629C38.0308 56.8341 38.5016 56.794 38.7772 56.7768C39.0557 56.7595 39.4289 56.7423 39.6098 56.7366C39.7936 56.7337 39.9658 56.7309 39.9974 56.7309ZM41.051 56.7194L41.1716 56.7337C41.2376 56.7394 41.5218 56.7538 41.8061 56.7624C42.0902 56.771 42.4922 56.7912 42.6961 56.8055C42.9027 56.8227 43.3104 56.86 43.6003 56.8916C43.8932 56.9231 44.3582 56.9834 44.6339 57.0237C44.9123 57.0639 45.3832 57.1471 45.6818 57.2102C45.9832 57.2734 46.2731 57.3338 46.3249 57.3452C46.3852 57.3567 46.4311 57.3854 46.4425 57.4227C46.4569 57.4629 46.4282 57.5462 46.3478 57.6954C46.2847 57.8131 46.1238 58.1031 45.9889 58.3414C45.8569 58.5769 45.6301 58.9587 45.4865 59.1883C45.3459 59.4151 45.0847 59.8171 44.9123 60.0783C44.7401 60.3367 44.4731 60.7243 44.3238 60.9396C44.1745 61.152 43.8673 61.5712 43.6434 61.8726C43.3334 62.286 43.2157 62.4238 43.1525 62.441C43.1066 62.4525 42.9745 62.4554 42.8539 62.4468C42.7362 62.4353 42.4463 62.3894 42.2079 62.3435C41.9726 62.3004 41.6137 62.2458 41.051 62.1885L41.028 61.8583C41.0136 61.6746 41.0051 60.5721 41.0051 59.4036C41.0051 58.2352 41.0136 57.1529 41.028 57.0007L41.051 56.7194ZM33.6097 57.6438C33.7072 57.6495 33.7159 57.6581 33.9512 58.0802C34.0833 58.3155 34.3474 58.7691 34.5369 59.0849C34.7264 59.4008 35.091 59.9749 35.3466 60.3625C35.5991 60.7502 36.0155 61.3616 36.2652 61.7262C36.515 62.0879 36.7762 62.4669 36.9686 62.7453L36.8767 62.8028C36.825 62.8343 36.5494 62.9579 36.2652 63.0784C35.9809 63.1989 35.6968 63.3282 35.5188 63.4315L35.0881 63.2076C34.8527 63.0842 34.4651 62.8717 34.2268 62.7311C33.9915 62.5932 33.5379 62.3089 33.222 62.0995C32.9062 61.8899 32.4411 61.5625 32.1886 61.3731C31.9359 61.1836 31.5569 60.8821 31.3416 60.7041C31.1292 60.5262 30.8191 60.2592 30.6526 60.107C30.4889 59.9577 30.1933 59.6793 30.0009 59.4898C29.8057 59.2974 29.6478 59.1195 29.6478 59.0907C29.6478 59.0582 29.7176 59.0074 29.8573 58.9386C29.9722 58.8812 30.2851 58.7434 30.5521 58.6313C30.8219 58.5223 31.2871 58.3442 31.5857 58.2352C31.8871 58.129 32.4154 57.9596 32.7627 57.8562C33.1101 57.7529 33.4201 57.6638 33.4517 57.6553C33.4833 57.6466 33.5551 57.6409 33.6097 57.6438ZM47.5048 57.6351C47.5277 57.6351 47.7488 57.6869 47.9928 57.7529C48.2397 57.816 48.6273 57.9252 48.8541 57.994C49.0838 58.063 49.4455 58.1835 49.658 58.261C49.8732 58.3414 50.1834 58.4591 50.347 58.5251C50.5135 58.5912 50.8207 58.7262 51.0303 58.8209C51.2399 58.9184 51.4092 59.0103 51.4092 59.0275C51.4092 59.042 51.1336 59.329 50.8006 59.6591C50.4646 59.9921 49.9823 60.4372 49.7298 60.6468C49.4771 60.8592 48.9948 61.2382 48.6532 61.4937C48.3144 61.7492 47.901 62.042 47.7345 62.1454C47.5708 62.2487 47.2665 62.4382 47.0598 62.5645C46.856 62.6908 46.4425 62.932 45.5956 63.4028L44.9066 63.1014C44.5277 62.9349 44.2119 62.7942 44.2032 62.7856C44.1975 62.7799 44.209 62.731 44.2319 62.6793C44.255 62.6306 44.4674 62.3147 44.7028 61.9846C44.9411 61.6516 45.3315 61.0832 45.5698 60.7214C45.808 60.3567 46.1612 59.8056 46.3535 59.4926C46.5459 59.1826 46.8502 58.6601 47.0311 58.3299C47.2119 58.0027 47.3813 57.7127 47.41 57.684C47.4359 57.6581 47.479 57.6351 47.5048 57.6351ZM52.3652 59.4495L52.5117 59.507C52.592 59.5385 52.8532 59.6563 53.0887 59.774C53.327 59.8888 53.7002 60.0927 53.9213 60.2247C54.1424 60.3567 54.4438 60.5463 54.5901 60.6438C54.7366 60.7415 54.8515 60.8305 54.8457 60.842C54.84 60.8563 54.6878 60.977 54.5069 61.1118C54.3289 61.2467 54.0074 61.4735 53.792 61.6171C53.5796 61.7578 53.2236 61.9817 53.0025 62.1138C52.7815 62.2458 52.2533 62.53 51.8255 62.7453C51.4006 62.9579 50.7288 63.2736 50.3327 63.4401C49.9393 63.6096 49.4542 63.8076 49.256 63.8823C49.0609 63.9569 48.544 64.132 47.3182 64.5225L47.1718 64.4306C47.0885 64.379 46.9306 64.2669 46.8186 64.1808C46.7095 64.0947 46.6177 64.0086 46.6148 63.9942C46.6148 63.977 46.6436 63.9396 46.6808 63.9052C46.7152 63.8736 46.9335 63.733 47.1603 63.5922C47.3899 63.4516 47.8091 63.1817 48.0934 62.9923C48.3775 62.8028 48.8627 62.4554 49.1699 62.2257C49.4799 61.9932 49.8991 61.6659 50.1029 61.4965C50.3096 61.33 50.703 60.9942 50.9785 60.7502C51.2571 60.509 51.682 60.1157 51.9231 59.8802L52.3652 59.4495ZM28.6429 59.5013C28.666 59.5013 28.8353 59.6476 29.0162 59.8228C29.1999 60.0008 29.5214 60.3023 29.7339 60.4917C29.9493 60.6812 30.3167 60.997 30.5521 61.1951C30.7904 61.3932 31.178 61.7033 31.4133 61.8842C31.6517 62.0649 32.0565 62.3693 32.3177 62.5559C32.5789 62.7453 33.1589 63.1416 33.6097 63.4401C34.0603 63.7387 34.4279 63.9942 34.4279 64.0057C34.4279 64.0172 34.2901 64.1407 33.8106 64.5253L33.4891 64.4363C33.3111 64.3875 32.8603 64.2469 32.49 64.1233C32.1196 63.9999 31.5713 63.8018 31.2698 63.6842C30.9712 63.5635 30.5579 63.3913 30.3511 63.2966C30.1474 63.2047 29.6622 62.9664 29.2746 62.7712C28.887 62.5731 28.3358 62.2717 28.0459 62.0965C27.753 61.9243 27.2362 61.5941 26.8975 61.3645C26.4094 61.0371 26.2744 60.9339 26.2744 60.885C26.2744 60.8391 26.3377 60.7846 26.5329 60.6582C26.6764 60.5692 27.0181 60.3597 27.2936 60.196C27.5692 60.0324 27.9769 59.8084 28.198 59.6993C28.419 59.5873 28.62 59.4984 28.6429 59.5013ZM40.7438 63.1329C41.2864 63.1386 41.6108 63.1588 41.9208 63.2019C42.1592 63.2335 42.5065 63.2909 42.6961 63.3282C42.8855 63.3684 43.2013 63.4459 43.3994 63.5033C43.5975 63.5578 43.9018 63.6583 44.0741 63.7215C44.2492 63.7846 44.6109 63.9454 44.8779 64.0774C45.1478 64.2125 45.5095 64.4104 45.9976 64.7263L45.8827 64.8268C45.8196 64.8785 45.7478 64.9301 45.7248 64.9388C45.7018 64.9445 45.4808 64.9904 45.2368 65.0364C44.9927 65.0851 44.5334 65.1626 44.2176 65.2086C43.9018 65.2575 43.4625 65.3148 43.2415 65.3407C43.0204 65.3637 42.5438 65.4038 42.1792 65.4297C41.7745 65.4584 41.1314 65.4756 40.5141 65.4756C39.9629 65.4756 39.2767 65.4641 38.9926 65.444C38.7084 65.4268 38.2949 65.3923 38.0739 65.3694C37.8528 65.3435 37.4795 65.3004 37.2413 65.266C37.0059 65.2344 36.5982 65.1713 36.337 65.1254C36.0758 65.0766 35.714 65.0048 35.5331 64.9646C35.3523 64.9243 35.1829 64.8814 35.1599 64.867C35.1255 64.8526 35.1484 64.8153 35.2661 64.6918C35.3523 64.6 35.5417 64.4622 35.7255 64.3531C35.8949 64.2497 36.1963 64.0947 36.3944 64.0057C36.5925 63.9139 36.914 63.7846 37.1121 63.7128C37.3102 63.6411 37.6403 63.5378 37.8442 63.4803C38.0509 63.4257 38.3867 63.3454 38.5906 63.3081C38.7974 63.2679 39.1389 63.2161 39.3514 63.1904C39.5638 63.1674 39.7964 63.1416 39.8681 63.1358C39.9399 63.1272 40.3332 63.1272 40.7438 63.1329Z" fill="white"/>
</g>
</g>
<defs>
<clipPath id="clip0_13890_829">
<rect width="72" height="72" fill="white" transform="translate(4.5 6)"/>
</clipPath>
</defs>
</svg>
