<svg width="81" height="84" viewBox="0 0 81 84" fill="none" xmlns="http://www.w3.org/2000/svg">
<path d="M80.5467 7.89453V77.5555H0.452714V7.89453H80.5467ZM80.9996 7.45032H0V78H80.9996V7.45032Z" fill="white"/>
<path d="M19.5955 20.0327C19.5909 20.256 19.6184 20.4789 19.677 20.6945C19.7403 20.8667 19.8218 21.048 19.9214 21.2565C19.9593 21.3057 19.9785 21.3667 19.9758 21.4288C19.9716 21.4766 19.9564 21.5229 19.9312 21.5638C19.906 21.6048 19.8717 21.6392 19.8309 21.6645L19.351 21.9909C19.289 22.0314 19.2168 22.0534 19.1428 22.0543C19.056 22.0488 18.9749 22.0098 18.9164 21.9455C18.8102 21.8349 18.7162 21.7134 18.6357 21.5829C18.5497 21.4359 18.4711 21.2846 18.4003 21.1296C18.1272 21.4687 17.7808 21.7412 17.3871 21.9265C16.9933 22.1119 16.5627 22.2051 16.1277 22.1993C15.8465 22.2142 15.5653 22.1721 15.3008 22.0755C15.0363 21.9789 14.794 21.8299 14.5885 21.6373C14.2007 21.2118 13.9964 20.6501 14.0202 20.0745C14.0439 19.4989 14.2937 18.956 14.7152 18.564C15.2542 18.1452 15.9264 17.9359 16.6076 17.9747C16.8803 17.9785 17.1524 17.9997 17.4224 18.0382C17.7122 18.0835 18.0019 18.1379 18.3279 18.2104V17.6483C18.3739 17.2029 18.2439 16.7571 17.9657 16.4063C17.6048 16.1357 17.156 16.0096 16.7072 16.0528C16.4267 16.0557 16.1474 16.0891 15.8742 16.1525C15.5912 16.2223 15.3129 16.3101 15.0411 16.4154C14.9546 16.4587 14.8635 16.4921 14.7695 16.5151H14.6519C14.5432 16.5151 14.4889 16.4335 14.4889 16.2794V15.8987C14.4814 15.8047 14.5002 15.7106 14.5432 15.6267C14.6012 15.5553 14.6758 15.4993 14.7605 15.4635C15.0685 15.3102 15.3937 15.1946 15.7293 15.119C16.1328 15.0258 16.5468 14.9862 16.9607 15.0011C17.6911 14.9369 18.4171 15.165 18.9798 15.6358C19.2095 15.8915 19.385 16.1913 19.4955 16.517C19.6061 16.8428 19.6493 17.1875 19.6226 17.5305V20.0327H19.5955ZM16.4627 21.2112C16.7338 21.208 17.0027 21.1621 17.2594 21.0752C17.5405 20.9707 17.7922 20.7997 17.9929 20.5766C18.1142 20.4319 18.2008 20.2613 18.2464 20.078C18.3052 19.8593 18.3327 19.6335 18.3279 19.4071V19.0898C18.0955 19.0297 17.8597 18.9843 17.6216 18.9538C17.3773 18.9406 17.1325 18.9406 16.8882 18.9538C16.4812 18.9239 16.076 19.0325 15.7383 19.2621C15.5462 19.4037 15.405 19.6039 15.336 19.8325C15.2669 20.0612 15.2736 20.3062 15.3552 20.5307C15.4367 20.7552 15.5887 20.9472 15.7883 21.0781C15.988 21.2089 16.2246 21.2715 16.4627 21.2565V21.2112ZM22.6558 22.0452C22.5616 22.0479 22.4694 22.0191 22.3932 21.9636C22.3111 21.8818 22.2545 21.7779 22.2302 21.6645L20.4194 15.6902C20.3797 15.5917 20.3553 15.4878 20.347 15.3819C20.3443 15.357 20.347 15.3319 20.3551 15.3082C20.3631 15.2845 20.3762 15.2628 20.3934 15.2447C20.4107 15.2266 20.4316 15.2124 20.4549 15.2033C20.4782 15.1941 20.5031 15.1901 20.528 15.1916H21.2886C21.3938 15.1776 21.5003 15.2035 21.5874 15.264C21.664 15.3521 21.7169 15.4582 21.7413 15.5723L23.0089 20.6945L24.2041 15.5723C24.2265 15.4574 24.2797 15.3509 24.358 15.264C24.4503 15.2077 24.5581 15.1823 24.6658 15.1916H25.2815C25.3894 15.1795 25.4982 15.2051 25.5894 15.264C25.6694 15.3486 25.7202 15.4567 25.7343 15.5723L26.9566 20.7488L28.2876 15.5723C28.3137 15.4588 28.3665 15.3531 28.4415 15.264C28.5342 15.2088 28.6417 15.1835 28.7494 15.1916H29.4646C29.4903 15.1886 29.5163 15.1916 29.5406 15.2001C29.565 15.2087 29.5872 15.2226 29.6055 15.2409C29.6237 15.2592 29.6376 15.2814 29.6462 15.3058C29.6547 15.3302 29.6577 15.3562 29.6548 15.3819C29.6591 15.4241 29.6591 15.4666 29.6548 15.5088C29.6491 15.5752 29.6306 15.6399 29.6004 15.6992L27.7353 21.6735C27.7131 21.7877 27.6562 21.8923 27.5723 21.9727C27.4864 22.0292 27.3852 22.0576 27.2825 22.0543H26.6125C26.5035 22.0645 26.3944 22.0356 26.3047 21.9727C26.2296 21.8849 26.1796 21.7784 26.1598 21.6645L24.9646 16.6783L23.7786 21.6554C23.7606 21.7699 23.7103 21.8768 23.6337 21.9636C23.5433 22.0251 23.4347 22.0539 23.3258 22.0452H22.6558ZM32.6155 22.2537C32.2132 22.2543 31.8122 22.2087 31.4203 22.1177C31.108 22.0493 30.8042 21.9459 30.5149 21.8095C30.4186 21.759 30.3374 21.684 30.2795 21.5919C30.2626 21.5204 30.2626 21.4459 30.2795 21.3744V20.9755C30.2795 20.8123 30.3339 20.7398 30.4515 20.7398H30.5964L30.7865 20.8214C31.0595 20.943 31.3448 21.0342 31.6376 21.0934C31.9356 21.1543 32.239 21.1847 32.5431 21.184C32.9368 21.2089 33.3294 21.1208 33.6748 20.9301C33.7999 20.8537 33.9026 20.7455 33.9725 20.6166C34.0425 20.4876 34.0772 20.3425 34.0733 20.1958C34.0767 19.9944 34.002 19.7994 33.865 19.6519C33.6387 19.462 33.3725 19.3257 33.0863 19.253L31.9636 18.9085C31.481 18.7808 31.0503 18.505 30.7322 18.1198C30.4841 17.7973 30.3475 17.4027 30.3429 16.9957C30.3417 16.7057 30.4101 16.4197 30.5421 16.1616C30.6818 15.9148 30.8733 15.7014 31.1034 15.536C31.3396 15.3489 31.6104 15.2103 31.9002 15.1281C32.2184 15.0391 32.5477 14.9964 32.8781 15.0011H33.3942L33.8921 15.0918L34.3358 15.2097C34.4502 15.2439 34.5597 15.2926 34.6618 15.3547C34.7518 15.3985 34.8295 15.464 34.8881 15.5451C34.9385 15.6199 34.9639 15.7088 34.9606 15.7989V16.1616C34.9606 16.3247 34.8972 16.4063 34.7795 16.4063C34.6776 16.3972 34.5787 16.3663 34.4898 16.3157C34.0219 16.1107 33.5155 16.0087 33.0048 16.0165C32.6505 15.9969 32.2975 16.072 31.9817 16.2341C31.8629 16.3034 31.7659 16.4048 31.7019 16.5266C31.6379 16.6484 31.6093 16.7858 31.6195 16.9231C31.6172 17.0246 31.636 17.1254 31.6751 17.2192C31.7141 17.3128 31.7722 17.3973 31.8459 17.467C32.0989 17.6637 32.3881 17.8085 32.697 17.8931L33.7925 18.2376C34.2571 18.3582 34.674 18.6175 34.9877 18.981C35.2244 19.29 35.349 19.6705 35.3409 20.0599C35.3494 20.3738 35.2811 20.685 35.1417 20.9664C35.0063 21.2313 34.8147 21.4634 34.5803 21.6463C34.3269 21.8497 34.034 21.9979 33.7201 22.0815C33.3515 22.1996 32.9663 22.2577 32.5793 22.2537H32.6155Z" fill="white"/>
<path d="M34.0344 26.0074C31.2553 27.8807 27.9772 28.8727 24.627 28.854C20.395 28.8859 16.3038 27.3339 13.1553 24.5024C12.9108 24.2849 13.1553 23.9948 13.4178 24.167C16.9157 26.1631 20.8725 27.2129 24.8986 27.2131C27.9106 27.1902 30.8887 26.5741 33.6632 25.3999C34.0887 25.2277 34.4509 25.6992 34.0344 26.0074ZM35.0666 24.8016C34.7497 24.3846 32.9207 24.6022 32.0968 24.7019C31.8524 24.7019 31.8161 24.5206 32.0334 24.3574C33.4912 23.333 35.8724 23.6322 36.1531 23.9676C36.4338 24.303 36.0717 26.6873 34.7135 27.8477C34.5052 28.029 34.306 27.9384 34.3966 27.7027C34.7225 26.9411 35.4106 25.2277 35.0666 24.8016Z" fill="white"/>
<path d="M40.9023 20.6405V16.0623H41.2283V16.4249C41.4006 16.2828 41.5928 16.1667 41.7987 16.0805C41.9836 16.0086 42.18 15.9717 42.3782 15.9717C42.5659 15.9635 42.7529 15.9994 42.9243 16.0765C43.0957 16.1537 43.2467 16.2699 43.3652 16.4159C43.6264 16.7717 43.7545 17.208 43.7273 17.6488C43.756 18.087 43.6346 18.5219 43.3832 18.8818C43.2624 19.0367 43.1068 19.161 42.9291 19.2445C42.7512 19.3279 42.5564 19.3683 42.3601 19.3623C41.9551 19.3562 41.5672 19.1976 41.2736 18.918V20.6133L40.9023 20.6405ZM42.3148 16.3071C41.9233 16.32 41.5471 16.4635 41.2465 16.7151V18.6098C41.3981 18.7503 41.5727 18.8637 41.7625 18.9452C41.9289 19.0139 42.1077 19.0478 42.2877 19.0449C42.4387 19.0589 42.5907 19.0347 42.73 18.9745C42.8692 18.9143 42.9911 18.8201 43.0845 18.7005C43.287 18.3991 43.3826 18.0383 43.3561 17.676C43.3832 16.7604 43.0392 16.3071 42.3148 16.3071Z" fill="white"/>
<path d="M46.5563 19.3176V18.9369C46.2356 19.2203 45.825 19.3809 45.3974 19.3902C45.268 19.3963 45.1388 19.3762 45.0174 19.331C44.896 19.2858 44.7851 19.2166 44.6911 19.1273C44.6028 19.0383 44.5338 18.932 44.4886 18.8149C44.4434 18.6979 44.423 18.5727 44.4285 18.4474C44.4204 18.3074 44.4447 18.1673 44.4997 18.0383C44.5547 17.9093 44.6388 17.7949 44.7454 17.704C45.0035 17.5047 45.3259 17.4079 45.6509 17.432C45.9586 17.4392 46.2635 17.4911 46.5563 17.5861V17.0694C46.5653 16.9669 46.5538 16.8637 46.5228 16.7657C46.4917 16.6677 46.4416 16.5767 46.3752 16.4982C46.1921 16.3733 45.9713 16.3156 45.7505 16.3351C45.3738 16.3399 45.0005 16.4073 44.6459 16.5345V16.2353C44.8253 16.1552 45.0138 16.0973 45.2072 16.0631C45.4065 16.0196 45.61 15.9983 45.8139 15.9996C46.1137 15.9749 46.4124 16.0585 46.6559 16.2353C46.7519 16.3286 46.826 16.442 46.873 16.5674C46.92 16.6928 46.9386 16.8271 46.9276 16.9606V19.3449L46.5563 19.3176ZM45.4065 19.0457C45.5891 19.0454 45.7702 19.0116 45.9407 18.946C46.1425 18.8783 46.3343 18.7837 46.5111 18.665V17.8581C46.239 17.7875 45.9592 17.7509 45.6781 17.7493C45.0714 17.7493 44.7727 17.9759 44.7727 18.4383C44.7664 18.5211 44.7777 18.6043 44.8057 18.6824C44.8339 18.7605 44.8781 18.8318 44.9356 18.8916C44.9998 18.9476 45.0745 18.9902 45.1554 19.0166C45.2363 19.0431 45.3217 19.053 45.4065 19.0457Z" fill="white"/>
<path d="M47.8809 19.3175V16.063H48.1978V16.5343C48.3294 16.3752 48.4929 16.2455 48.6776 16.1536C48.842 16.0763 49.0212 16.0361 49.2028 16.0357H49.4744V16.3621H49.1666C48.9844 16.3571 48.804 16.3976 48.6414 16.48C48.4712 16.5666 48.3203 16.6869 48.1978 16.8335V19.3084L47.8809 19.3175Z" fill="white"/>
<path d="M51.874 19.245C51.6659 19.3238 51.4444 19.3608 51.2221 19.3538C51.1164 19.3603 51.0105 19.3452 50.9109 19.3093C50.8113 19.2735 50.72 19.2177 50.6426 19.1453C50.5721 19.0652 50.5182 18.9718 50.484 18.8707C50.4498 18.7695 50.436 18.6626 50.4434 18.556V16.3893H49.8368V16.1627L50.4615 16.072V15.1201H50.7693V16.0267H51.8016V16.353H50.8146V18.5017C50.8004 18.635 50.8394 18.7687 50.9233 18.8733C50.9758 18.9172 51.0364 18.9502 51.1016 18.9704C51.1669 18.9907 51.2356 18.9977 51.3036 18.9912C51.4965 18.9896 51.6884 18.9621 51.874 18.9096V19.245Z" fill="white"/>
<path d="M54.8627 19.317V17.0687C54.8793 16.8548 54.8253 16.6414 54.7088 16.4614C54.6423 16.3934 54.5614 16.341 54.4722 16.3081C54.3829 16.2752 54.2875 16.2625 54.1928 16.271C53.7417 16.2768 53.303 16.419 52.9342 16.6789V19.2808H52.563V16.0625H52.889V16.4432C53.0911 16.294 53.3137 16.1749 53.5499 16.0897C53.7681 16.0126 53.9976 15.9727 54.2289 15.9718C54.3595 15.9622 54.4905 15.981 54.613 16.0269C54.7354 16.0729 54.8466 16.1448 54.9386 16.2379C55.0308 16.3309 55.1016 16.4428 55.1463 16.5659C55.191 16.689 55.2086 16.8204 55.1978 16.9509V19.317H54.8627Z" fill="white"/>
<path d="M56.4269 17.7489C56.4066 18.1089 56.5123 18.4647 56.7257 18.7551C56.8463 18.8682 56.9891 18.9549 57.145 19.0095C57.3009 19.0642 57.4665 19.0856 57.6311 19.0724C57.9938 19.0845 58.3547 19.0196 58.6905 18.882V19.1903C58.3534 19.3685 57.9759 19.4559 57.5949 19.4442C57.3832 19.4598 57.1705 19.429 56.9719 19.3538C56.7733 19.2787 56.5935 19.161 56.4451 19.009C56.1579 18.6408 56.019 18.1783 56.0557 17.7125C56.0313 17.2595 56.1694 16.8126 56.4451 16.4524C56.5833 16.3016 56.7533 16.1834 56.9428 16.1066C57.1323 16.0297 57.3365 15.9961 57.5406 16.0082C57.7067 15.9957 57.8736 16.0191 58.0299 16.077C58.1861 16.1349 58.3281 16.2258 58.4461 16.3436C58.6721 16.6107 58.7856 16.9553 58.763 17.3046C58.7789 17.4644 58.7789 17.6253 58.763 17.7851L56.4269 17.7489ZM57.5044 16.2983C56.8253 16.2983 56.4722 16.6791 56.4269 17.4497H58.3917C58.3969 17.3802 58.3969 17.3106 58.3917 17.2412C58.4064 16.9855 58.3257 16.7335 58.1653 16.5341C58.0764 16.4527 57.9721 16.3899 57.8586 16.3495C57.7451 16.309 57.6247 16.2916 57.5044 16.2983Z" fill="white"/>
<path d="M59.5651 19.3167V16.0621H59.882V16.5336C60.0302 16.3714 60.213 16.2445 60.4162 16.1619C60.5831 16.0836 60.7658 16.0433 60.9502 16.044H61.2127V16.3704H60.9049C60.7228 16.3654 60.5426 16.4059 60.3799 16.4883C60.21 16.5749 60.0588 16.6952 59.9363 16.8418V19.3167H59.5651Z" fill="white"/>
<path d="M43.2208 25.7724V23.5694C43.2428 23.3509 43.185 23.1319 43.0578 22.9529C42.9912 22.8849 42.9104 22.8326 42.8211 22.7996C42.7319 22.7667 42.6365 22.7541 42.5417 22.7625C42.0892 22.7675 41.6494 22.9132 41.2832 23.1795V25.7724H40.912V22.5087H41.2379V22.8804C41.4456 22.7372 41.6707 22.6214 41.9079 22.5359C42.1223 22.4554 42.349 22.4124 42.5779 22.409C42.7097 22.3986 42.8421 22.4158 42.9669 22.4594C43.0916 22.5032 43.2058 22.5724 43.3023 22.6628C43.3892 22.7613 43.4555 22.8763 43.4975 23.0007C43.5395 23.1253 43.5562 23.257 43.5468 23.3881V25.7724H43.2208Z" fill="white"/>
<path d="M44.7742 24.2131C44.7444 24.5713 44.8512 24.9276 45.073 25.2103C45.1907 25.328 45.3329 25.4183 45.4893 25.4746C45.6458 25.5311 45.8128 25.5522 45.9784 25.5367C46.3438 25.5393 46.7053 25.4619 47.0378 25.31V25.6092C46.7047 25.7902 46.3301 25.8808 45.9512 25.8721C45.7381 25.8879 45.5241 25.8572 45.324 25.7821C45.1239 25.707 44.9425 25.5892 44.7923 25.4369C44.5098 25.0664 44.3714 24.6056 44.403 24.1405C44.3727 23.6853 44.5149 23.2353 44.8013 22.8804C44.9369 22.7281 45.1049 22.6083 45.293 22.5298C45.4811 22.4513 45.6844 22.4162 45.8879 22.4271C46.054 22.4146 46.2209 22.4381 46.3771 22.496C46.5334 22.5538 46.6753 22.6448 46.7933 22.7626C47.0152 23.0315 47.1254 23.3755 47.1012 23.7235C47.1175 23.8863 47.1175 24.0503 47.1012 24.2131H44.7742ZM45.8516 22.7535C45.1726 22.7535 44.8104 23.1433 44.7742 23.9139H46.73C46.7349 23.8415 46.7349 23.7688 46.73 23.6963C46.7402 23.5707 46.7255 23.4444 46.6867 23.3246C46.6478 23.2048 46.5855 23.0938 46.5036 22.9983C46.4183 22.9138 46.3161 22.8483 46.2037 22.8061C46.0914 22.7639 45.9714 22.746 45.8516 22.7535Z" fill="white"/>
<path d="M49.5537 25.6992C49.3459 25.7797 49.1247 25.8197 48.9018 25.8171C48.7948 25.8232 48.6876 25.808 48.5866 25.7722C48.4855 25.7364 48.3926 25.6807 48.3133 25.6085C48.1743 25.4448 48.103 25.234 48.1141 25.0193V22.8435H47.5074V22.5896L48.1322 22.5262L48.1865 21.6196H48.4853V22.5262H49.5537V22.8435H48.4944V25.0012C48.4869 25.0679 48.4936 25.1354 48.5139 25.1995C48.5342 25.2635 48.5676 25.3226 48.6121 25.3728C48.717 25.4559 48.8502 25.4949 48.9833 25.4816C49.1755 25.4777 49.3667 25.4534 49.5537 25.4091V25.6992Z" fill="white"/>
<path d="M52.9326 25.7718L52.1177 22.9342L51.3662 25.7718H50.9678L49.8179 22.5081H50.2163L51.1217 25.3276L51.9185 22.5081H52.3531L53.177 25.3638L54.0825 22.5081H54.4627L53.331 25.7718H52.9326Z" fill="white"/>
<path d="M56.3659 25.8722C56.161 25.8838 55.9562 25.8491 55.7666 25.7707C55.5769 25.6921 55.4073 25.572 55.2703 25.4189C54.9894 25.0576 54.848 24.607 54.872 24.1497C54.8446 23.692 54.9865 23.2402 55.2703 22.8805C55.4073 22.7275 55.5769 22.6073 55.7666 22.5288C55.9562 22.4503 56.161 22.4156 56.3659 22.4272C56.5722 22.4155 56.7784 22.4502 56.9695 22.5286C57.1606 22.607 57.3318 22.7273 57.4706 22.8805C57.7544 23.2402 57.8963 23.692 57.8689 24.1497C57.8929 24.607 57.7515 25.0576 57.4706 25.4189C57.3318 25.5722 57.1606 25.6924 56.9695 25.7708C56.7784 25.8492 56.5722 25.8839 56.3659 25.8722ZM56.3659 25.5368C57.1174 25.5368 57.4886 25.0744 57.4886 24.1497C57.4886 23.225 57.1174 22.7627 56.3659 22.7627C55.6144 22.7627 55.2523 23.225 55.2523 24.1497C55.2523 25.0744 55.6235 25.5368 56.3659 25.5368Z" fill="white"/>
<path d="M58.6958 25.7718V22.5082H59.0218V22.9796C59.1582 22.8231 59.3205 22.6912 59.5017 22.5898C59.6698 22.5155 59.8521 22.4783 60.0358 22.481H60.2984V22.8074H59.9996C59.8187 22.804 59.6392 22.8411 59.4745 22.9162C59.3043 23.0028 59.1533 23.123 59.0308 23.2697V25.7718H58.6958Z" fill="white"/>
<path d="M60.9164 25.7726V20.9949H61.324V23.9685L62.8904 22.5089H63.3971L61.6772 24.041L63.4879 25.7544H62.9629L61.324 24.1861V25.7726H60.9164Z" fill="white"/>
<path d="M19.4943 58.119C18.8551 58.3604 18.1764 58.4803 17.4933 58.4726C16.9671 58.5095 16.4391 58.4341 15.9443 58.2513C15.4495 58.0684 14.9991 57.7822 14.6231 57.4119C13.9112 56.5148 13.5651 55.3811 13.6543 54.2389C13.5799 53.098 13.9389 51.9711 14.6593 51.084C15.0374 50.7071 15.4914 50.4152 15.9909 50.2276C16.4905 50.04 17.0243 49.9611 17.5567 49.9961C18.1757 49.987 18.7906 50.0978 19.3675 50.3225V50.939C18.801 50.7803 18.2171 50.692 17.6291 50.6761C17.1876 50.6404 16.7436 50.6978 16.3256 50.8446C15.9076 50.9914 15.5251 51.2243 15.2025 51.5282C14.6209 52.2474 14.3358 53.162 14.4058 54.0848V54.3749C14.4058 56.6413 15.447 57.7745 17.5476 57.7745C18.2035 57.7569 18.8545 57.6564 19.4852 57.4754L19.4943 58.119Z" fill="white"/>
<path d="M23.1684 58.5263C22.7889 58.5463 22.4098 58.481 22.0589 58.3351C21.7079 58.1892 21.394 57.9665 21.1403 57.6832C20.6684 56.9998 20.4155 56.1886 20.4155 55.3578C20.4155 54.527 20.6684 53.7158 21.1403 53.0324C21.3945 52.7503 21.7086 52.5289 22.0597 52.3846C22.4107 52.2402 22.7896 52.1766 23.1684 52.1984C23.5475 52.1752 23.9268 52.2383 24.278 52.3827C24.6292 52.5272 24.9433 52.7493 25.1966 53.0324C25.6686 53.7158 25.9214 54.527 25.9214 55.3578C25.9214 56.1886 25.6686 56.9998 25.1966 57.6832C24.9437 57.9675 24.63 58.1909 24.2788 58.337C23.9276 58.4829 23.5481 58.5476 23.1684 58.5263ZM23.1684 57.9007C24.5356 57.9007 25.2238 57.0576 25.2238 55.3533C25.2238 53.6489 24.5356 52.8149 23.1684 52.8149C21.8012 52.8149 21.1222 53.658 21.1222 55.3533C21.1222 57.0486 21.8012 57.8645 23.1684 57.8645V57.9007Z" fill="white"/>
<path d="M31.6933 58.3455V54.284C31.7386 53.8954 31.6525 53.5028 31.4488 53.1689C31.3267 53.0428 31.178 52.9455 31.0135 52.8844C30.849 52.8232 30.6729 52.7997 30.4981 52.8154C29.6692 52.8287 28.8639 53.0942 28.1893 53.5769V58.3455H27.465V52.3711H28.0535L28.1259 53.0601C28.5016 52.7922 28.9131 52.5786 29.3482 52.4256C29.7482 52.2769 30.1711 52.2002 30.5977 52.1989C30.8371 52.183 31.0772 52.2149 31.3041 52.2928C31.5311 52.3705 31.7403 52.4927 31.9196 52.6522C32.0823 52.835 32.2063 53.0491 32.2841 53.2812C32.3619 53.5134 32.3919 53.7589 32.3724 54.003V58.3455H31.6933Z" fill="white"/>
<path d="M37.2326 56.7773C37.2322 56.6754 37.2111 56.5746 37.1706 56.4811C37.1302 56.3876 37.0711 56.3033 36.9972 56.2333C36.77 56.0388 36.5048 55.8937 36.2185 55.8073L35.141 55.3993C34.7884 55.3173 34.4728 55.1208 34.2435 54.8404C34.0142 54.5599 33.8841 54.2113 33.8734 53.8491C33.8667 53.6204 33.9131 53.3933 34.0089 53.1856C34.1048 52.978 34.2475 52.7954 34.4258 52.6524C34.8383 52.3382 35.3474 52.1779 35.8654 52.1991C36.1695 52.1967 36.4731 52.2271 36.7708 52.2898C37.0534 52.35 37.3294 52.4381 37.5947 52.5527V53.1147C37.0381 52.9213 36.4545 52.8173 35.8654 52.8065C35.5233 52.7813 35.1825 52.8706 34.8966 53.0604C34.7853 53.1504 34.697 53.2655 34.6388 53.3963C34.5806 53.5271 34.5541 53.6698 34.5616 53.8128C34.5556 53.9277 34.5734 54.0426 34.614 54.1502C34.6545 54.2579 34.7168 54.356 34.797 54.4384C35.0703 54.6473 35.3762 54.8097 35.7024 54.9188L36.6531 55.2724C37.0197 55.3892 37.3502 55.5984 37.6128 55.8798C37.8241 56.1334 37.9338 56.4564 37.9207 56.7863C37.9288 57.0306 37.8799 57.2734 37.7777 57.4953C37.6755 57.7172 37.523 57.9122 37.3322 58.0646C36.8699 58.3985 36.3079 58.5648 35.7386 58.5361C35.0674 58.5477 34.403 58.3986 33.801 58.1009V57.5479C34.4351 57.7882 35.1059 57.917 35.7839 57.9286C36.1717 57.9491 36.5558 57.8442 36.8795 57.6295C37.0013 57.5254 37.0969 57.394 37.1583 57.2459C37.2197 57.0977 37.2451 56.9372 37.2326 56.7773Z" fill="white"/>
<path d="M43.3047 58.3451L43.2142 57.6923C42.5475 58.2185 41.727 58.5114 40.8782 58.5264C40.643 58.5401 40.4077 58.5053 40.1865 58.4243C39.9653 58.3432 39.7631 58.2175 39.5925 58.055C39.4282 57.8728 39.3026 57.6592 39.2232 57.427C39.1439 57.1948 39.1124 56.9489 39.1307 56.7041V52.3707H39.8098V56.4231C39.7763 56.824 39.8818 57.2242 40.1086 57.5564C40.2254 57.6763 40.3669 57.7692 40.5233 57.8287C40.6797 57.8882 40.8471 57.9128 41.014 57.9008C41.3862 57.9048 41.7565 57.8466 42.1095 57.7286C42.4945 57.5814 42.8595 57.3864 43.1961 57.1484V52.3707H43.8752V58.3451H43.3047Z" fill="white"/>
<path d="M47.3637 58.2998C47.1658 58.353 46.962 58.3805 46.7571 58.3814C46.6205 58.3897 46.4837 58.369 46.3557 58.3205C46.2278 58.2721 46.1115 58.197 46.0146 58.1003C45.8293 57.8844 45.7352 57.6049 45.7521 57.3207V49.5604H46.4311V57.3116C46.4162 57.4437 46.4518 57.5765 46.5307 57.6833C46.5796 57.7232 46.6362 57.7527 46.6969 57.7698C46.7577 57.787 46.8213 57.7915 46.8838 57.7831H47.3637V58.2998Z" fill="white"/>
<path d="M51.7478 58.2178C51.3652 58.3576 50.96 58.4252 50.5527 58.4172C50.3589 58.4297 50.1645 58.4032 49.981 58.3394C49.7976 58.2755 49.6287 58.1756 49.4843 58.0455C49.2249 57.7449 49.0947 57.3539 49.1221 56.9576V52.9687H48.0084V52.4973L49.1403 52.4247L49.2399 50.6116H49.7921V52.3432H51.6935V52.9415H49.7921V56.9576C49.778 57.0806 49.7892 57.2052 49.825 57.3237C49.8608 57.4422 49.9205 57.5521 50.0004 57.6466C50.1982 57.801 50.4481 57.8725 50.6976 57.8461C51.0525 57.8433 51.4055 57.7946 51.7478 57.701V58.2178Z" fill="white"/>
<path d="M53.3922 51.0924C53.3236 51.0962 53.2549 51.0853 53.1909 51.0602C53.1268 51.0353 53.0689 50.9968 53.021 50.9473C52.9747 50.8976 52.9387 50.8391 52.9154 50.7753C52.8921 50.7114 52.8818 50.6435 52.8852 50.5757C52.8811 50.5063 52.891 50.4368 52.9144 50.3714C52.9377 50.306 52.9739 50.2459 53.021 50.1949C53.0689 50.1455 53.1268 50.107 53.1909 50.082C53.2549 50.0569 53.3236 50.046 53.3922 50.0499C53.461 50.0447 53.53 50.0551 53.5943 50.0802C53.6585 50.1053 53.7163 50.1445 53.7635 50.1949C53.8105 50.2459 53.8467 50.306 53.8701 50.3714C53.8934 50.4368 53.9034 50.5063 53.8992 50.5757C53.9026 50.6435 53.8923 50.7114 53.869 50.7753C53.8457 50.8391 53.8098 50.8976 53.7635 50.9473C53.7163 50.9977 53.6585 51.0369 53.5943 51.062C53.53 51.0871 53.461 51.0975 53.3922 51.0924ZM53.0481 58.345V52.3706H53.7272V58.345H53.0481Z" fill="white"/>
<path d="M59.862 58.3455V54.284C59.8958 53.8888 59.7901 53.4942 59.5633 53.1689C59.4462 53.0489 59.3048 52.9552 59.1487 52.8942C58.9925 52.8333 58.8252 52.8064 58.6578 52.8154C57.8288 52.8287 57.0235 53.0942 56.349 53.5769V58.3455H55.6246V52.3711H56.2222L56.2947 53.0601C56.666 52.7906 57.0748 52.5768 57.5079 52.4256C57.9082 52.2783 58.331 52.2016 58.7574 52.1989C58.9968 52.183 59.2369 52.2149 59.4638 52.2928C59.6907 52.3705 59.8999 52.4927 60.0793 52.6522C60.2421 52.835 60.366 53.0491 60.444 53.2812C60.5215 53.5134 60.5517 53.7589 60.5323 54.003V58.3455H59.862Z" fill="white"/>
<path d="M66.5469 57.4653C66.2566 57.7082 65.9294 57.904 65.578 58.0455C65.2545 58.1837 64.9067 58.2576 64.5548 58.263C64.2113 58.2738 63.8696 58.2059 63.5557 58.0645C63.2418 57.9231 62.9642 57.712 62.7441 57.4471C62.2621 56.8384 62.0171 56.0746 62.0559 55.2986C62.0099 54.4867 62.25 53.6843 62.735 53.0321C62.9527 52.7634 63.2297 52.5484 63.5436 52.4038C63.8575 52.2592 64.2004 52.1888 64.5457 52.1981C65.2853 52.1957 65.9965 52.4819 66.5287 52.9959L66.5922 52.3703H67.1897V58.0727C67.2176 58.4575 67.1686 58.8441 67.0458 59.2098C66.923 59.5756 66.7289 59.9132 66.4743 60.2031C66.2003 60.4595 65.8762 60.6564 65.523 60.7812C65.1692 60.906 64.793 60.9561 64.4193 60.9283C63.7462 60.9478 63.0791 60.7949 62.4816 60.4841V59.9221C63.0852 60.1719 63.7305 60.3042 64.383 60.3119C64.6745 60.3371 64.9684 60.3018 65.2454 60.2082C65.523 60.1146 65.7776 59.9647 65.9947 59.768C66.3806 59.281 66.565 58.6646 66.5106 58.0455L66.5469 57.4653ZM64.7362 57.6466C65.4087 57.6057 66.0473 57.3372 66.5469 56.8851V53.5852C66.2753 53.3461 65.9699 53.1476 65.6415 52.9959C65.3361 52.8757 65.0102 52.8141 64.6818 52.8146C64.4114 52.7959 64.1405 52.8421 63.8919 52.9493C63.6434 53.0565 63.4232 53.2217 63.2515 53.431C62.8995 53.9674 62.7314 54.6037 62.7713 55.2441C62.7302 55.8745 62.9092 56.4996 63.2787 57.012C63.4541 57.2181 63.6742 57.3821 63.9216 57.492C64.1695 57.6018 64.438 57.6546 64.709 57.6466H64.7362Z" fill="white"/>
<path d="M14.5653 66.8665V70.212H13.8862V61.9892H16.7202C17.0512 61.9693 17.3828 62.0178 17.6943 62.1316C18.0059 62.2455 18.2907 62.4222 18.531 62.651C18.9567 63.1449 19.1909 63.7753 19.1909 64.4278C19.1909 65.0804 18.9567 65.711 18.531 66.2049C18.2895 66.4317 18.0045 66.6075 17.6933 66.7212C17.382 66.8349 17.0511 66.8842 16.7202 66.8665H14.5653ZM14.5653 66.2322H16.693C16.9363 66.2651 17.184 66.2407 17.416 66.1605C17.6481 66.0802 17.8581 65.9464 18.029 65.77C18.2 65.5937 18.3271 65.3796 18.4002 65.1448C18.4732 64.9101 18.4902 64.6614 18.4496 64.4187C18.4496 63.204 17.8701 62.6057 16.693 62.6057H14.5653V66.2322Z" fill="white"/>
<path d="M24.2059 70.2113L24.1425 69.5223C23.5498 70.0344 22.7973 70.3232 22.0147 70.3384C21.5362 70.3634 21.0673 70.1967 20.711 69.8762C20.3828 69.5114 20.2112 69.0321 20.2332 68.542C20.2552 68.0518 20.4691 67.5896 20.8287 67.2563C21.2759 66.9103 21.8306 66.7339 22.395 66.7576C22.9697 66.7649 23.5402 66.8561 24.0882 67.0295V66.023C24.1057 65.8363 24.0841 65.6483 24.0248 65.4702C23.9656 65.292 23.87 65.1284 23.7441 64.9897C23.4155 64.7477 23.0095 64.6345 22.6033 64.6723C21.9136 64.6838 21.2308 64.8127 20.5842 65.053V64.491C20.9113 64.3615 21.2512 64.2672 21.5983 64.2101C21.9643 64.1316 22.3376 64.0921 22.7119 64.0921C23.2633 64.0483 23.8122 64.2028 24.2602 64.5275C24.4368 64.699 24.5738 64.907 24.6614 65.1375C24.749 65.3674 24.7851 65.6143 24.7673 65.86V70.2387L24.2059 70.2113ZM22.1053 69.7218C22.4393 69.7187 22.7702 69.6573 23.0832 69.5405C23.4526 69.411 23.8053 69.2377 24.1335 69.0242V67.5373C23.6312 67.4029 23.114 67.3329 22.5942 67.3287C21.4896 67.3287 20.9373 67.755 20.9373 68.607C20.9252 68.7585 20.9448 68.9111 20.9947 69.0546C21.0445 69.1982 21.1237 69.3295 21.227 69.4408C21.4603 69.6348 21.7572 69.7352 22.06 69.7218H22.1053Z" fill="white"/>
<path d="M26.5862 70.2126V64.2107H27.1838L27.2471 65.0718C27.5051 64.7848 27.8116 64.5458 28.1525 64.3651C28.4577 64.2453 28.7851 64.1924 29.1123 64.2107C29.2481 64.2107 29.4111 64.2107 29.6013 64.2107V64.8182H29.0399C28.7054 64.8134 28.3741 64.8845 28.0711 65.0268C27.7596 65.1849 27.4849 65.4075 27.2652 65.6794V70.2126H26.5862Z" fill="white"/>
<path d="M33.935 70.0855C33.5519 70.2236 33.147 70.2911 32.7398 70.285C32.546 70.2977 32.3514 70.2716 32.1679 70.2077C31.9843 70.1439 31.8155 70.0435 31.6714 69.9128C31.4088 69.6142 31.2753 69.2225 31.3002 68.8254V64.8365H30.1865V64.3646L31.3274 64.2557L31.4179 62.5063H31.9792V64.2107H33.8716V64.8H31.9792V68.7524C31.9652 68.8759 31.9763 68.9999 32.0121 69.1185C32.048 69.2371 32.1076 69.3472 32.1875 69.4415C32.3826 69.5947 32.6291 69.6659 32.8756 69.6409C33.2335 69.6385 33.5895 69.5892 33.935 69.4962V70.0855Z" fill="white"/>
<path d="M39.425 70.2113V66.1501C39.4588 65.7548 39.353 65.3601 39.1262 65.0347C39.0091 64.9149 38.8678 64.8213 38.7116 64.7604C38.5555 64.699 38.3881 64.6723 38.2208 64.6814C37.3918 64.6948 36.5865 64.9605 35.912 65.4428V70.2113H35.2419V64.2101H35.8304L35.9029 64.89C36.2786 64.6218 36.6901 64.4083 37.1252 64.2551C37.5223 64.1079 37.9421 64.0313 38.3656 64.0288C38.6119 63.9917 38.8634 64.0136 39.0998 64.0915C39.3362 64.1699 39.5511 64.3025 39.7272 64.4783C39.9032 64.6546 40.0355 64.8699 40.1136 65.1065C40.1916 65.3437 40.2132 65.5954 40.1765 65.8417V70.184L39.425 70.2113Z" fill="white"/>
<path d="M42.3121 67.3384C42.2705 67.988 42.4633 68.6314 42.8553 69.1514C43.0707 69.3642 43.3295 69.5278 43.6139 69.6306C43.8984 69.734 44.2017 69.7747 44.5032 69.7498C45.1769 69.748 45.8429 69.6057 46.459 69.3326V69.8854C45.845 70.2175 45.1553 70.3829 44.458 70.3665C44.0652 70.3999 43.6698 70.3476 43.2992 70.2132C42.9287 70.0782 42.5918 69.8647 42.3121 69.5868C41.8457 68.8923 41.5967 68.0749 41.5967 67.2387C41.5967 66.4019 41.8457 65.5845 42.3121 64.8906C42.5643 64.6115 42.8758 64.3925 43.2236 64.2496C43.5715 64.1067 43.9468 64.0441 44.3221 64.0653C44.626 64.0465 44.9306 64.0915 45.216 64.1973C45.5015 64.3037 45.7614 64.4685 45.9791 64.682C46.4 65.1874 46.605 65.8393 46.5495 66.4949C46.5588 66.799 46.5345 67.1031 46.4771 67.4017L42.3121 67.3384ZM44.295 64.6729C43.0455 64.6729 42.3845 65.3802 42.3121 66.7941H45.9338C45.9338 66.6853 45.9338 66.5497 45.9338 66.4043C45.9611 65.9354 45.8053 65.4738 45.4992 65.1168C45.3391 64.9624 45.1485 64.8432 44.9395 64.7665C44.7305 64.6899 44.5079 64.6583 44.2859 64.6729H44.295Z" fill="white"/>
<path d="M48.0603 70.2114V64.2101H48.6488L48.7122 65.0713C48.9702 64.7842 49.2767 64.5446 49.6176 64.364C49.9256 64.243 50.2562 64.1907 50.5864 64.2101C50.7223 64.2101 50.8852 64.2101 51.0754 64.2101V64.8177H50.514C50.1795 64.8128 49.8482 64.884 49.5452 65.0263C49.2337 65.1844 48.959 65.407 48.7393 65.6788V70.2114H48.0603Z" fill="white"/>
<path d="M14.0442 44.3379C13.7723 44.2531 13.5284 44.0965 13.3379 43.8847C13.1845 43.6955 13.1042 43.4573 13.1116 43.2138C13.1077 43.0541 13.1408 42.8957 13.2083 42.751C13.2759 42.6062 13.376 42.4792 13.5009 42.3797C13.801 42.157 14.1689 42.0449 14.5421 42.0625C14.9071 42.0663 15.2686 42.1337 15.6105 42.2619V42.9055C15.2867 42.7955 14.9475 42.7374 14.6055 42.7333C14.1709 42.7333 13.9536 42.8784 13.9536 43.1594C13.9521 43.2071 13.961 43.2545 13.9798 43.2984C13.9986 43.3423 14.0267 43.3814 14.0622 43.4132C14.1903 43.508 14.3345 43.5787 14.4878 43.6218L14.9043 43.7759C15.1821 43.86 15.4344 44.0128 15.6377 44.2201C15.7173 44.3099 15.7783 44.4146 15.8172 44.5282C15.8561 44.6418 15.872 44.7621 15.864 44.8819C15.869 45.0549 15.834 45.2267 15.7618 45.384C15.6895 45.5412 15.582 45.6797 15.4475 45.7885C15.1172 46.0205 14.7188 46.1353 14.3158 46.1149C14.1063 46.1148 13.8973 46.0966 13.691 46.0604C13.5067 46.0292 13.3272 45.9743 13.1568 45.8973V45.2626C13.3535 45.3185 13.553 45.3639 13.7544 45.3986C13.9427 45.4322 14.1336 45.4504 14.3248 45.453C14.5026 45.4616 14.679 45.4174 14.8319 45.3261C14.8909 45.291 14.9391 45.2403 14.971 45.1795C15.003 45.1187 15.0175 45.0501 15.0129 44.9816C15.0142 44.9313 15.0052 44.8812 14.9865 44.8344C14.9678 44.7877 14.9399 44.7452 14.9043 44.7096C14.7717 44.6148 14.625 44.5414 14.4697 44.492L14.0442 44.3379Z" fill="white"/>
<path d="M18.1827 45.9522C17.9681 46.0311 17.7412 46.071 17.5126 46.07C17.3871 46.083 17.2602 46.0695 17.1402 46.0305C17.02 45.9915 16.9095 45.9277 16.8155 45.8434C16.7324 45.7503 16.6695 45.6411 16.6305 45.5226C16.5915 45.404 16.5775 45.2786 16.5892 45.1544V43.7764H16.1636V43.2778L16.6163 43.1871L16.734 42.4075H17.404V43.1781H18.1736V43.7764H17.404V45.1181C17.3982 45.1632 17.4034 45.2091 17.4192 45.2517C17.4349 45.2943 17.4608 45.3325 17.4946 45.3629C17.5816 45.4235 17.6882 45.4494 17.7934 45.4354H18.1827V45.9522Z" fill="white"/>
<path d="M20.3189 46.0248L20.2555 45.771C20.1378 45.8773 20.0031 45.9631 19.8571 46.0248C19.7154 46.0801 19.5654 46.1107 19.4135 46.1155C19.2946 46.1211 19.1759 46.1031 19.0641 46.0626C18.9522 46.0222 18.8494 45.96 18.7615 45.8798C18.6762 45.8004 18.6092 45.7033 18.5655 45.5952C18.5217 45.4871 18.502 45.3708 18.508 45.2542C18.5045 45.087 18.5519 44.9226 18.6438 44.7829C18.7387 44.6438 18.8704 44.5339 19.0241 44.4655C19.2121 44.3824 19.4163 44.3421 19.6217 44.3477C19.8198 44.3522 20.017 44.3764 20.2103 44.4202V44.1392C20.218 44.0759 20.2123 44.0117 20.1936 43.9508C20.1749 43.8899 20.1435 43.8336 20.1016 43.7856C19.9861 43.7115 19.8486 43.6795 19.7122 43.695C19.3703 43.6991 19.0311 43.7572 18.7072 43.8672V43.3595C18.8712 43.2824 19.0448 43.2275 19.2233 43.1964C19.4317 43.1523 19.6442 43.1311 19.8571 43.1329C20.1556 43.1079 20.4534 43.1881 20.6992 43.3595C20.7935 43.4536 20.8659 43.5675 20.9114 43.6928C20.9567 43.8181 20.974 43.952 20.9617 44.0848V46.0612L20.3189 46.0248ZM19.6761 45.5625C19.7721 45.5612 19.8672 45.5429 19.9567 45.5081C20.0572 45.4628 20.1515 45.405 20.2374 45.3359V44.8554C20.0898 44.8433 19.9414 44.8433 19.7938 44.8554C19.4769 44.8554 19.3139 44.9913 19.3139 45.2542C19.3104 45.3019 19.3166 45.3499 19.3323 45.395C19.3478 45.4402 19.3723 45.4818 19.4044 45.5172C19.4854 45.5675 19.583 45.5838 19.6761 45.5625Z" fill="white"/>
<path d="M23.5538 46.0244V44.1569C23.5602 44.0972 23.5547 44.0367 23.5377 43.9791C23.5206 43.9216 23.4922 43.868 23.4542 43.8214C23.4135 43.7826 23.365 43.7528 23.3119 43.7341C23.2589 43.7153 23.2025 43.708 23.1464 43.7127C22.9301 43.7168 22.7197 43.7829 22.5397 43.9031V46.0244H21.7339V43.1778H22.3949L22.4764 43.486C22.7769 43.2366 23.1544 43.099 23.5448 43.0962C23.6547 43.0881 23.7652 43.1024 23.8695 43.1382C23.9737 43.1741 24.0696 43.2307 24.1514 43.3047C24.2277 43.3872 24.2863 43.4845 24.3236 43.5905C24.361 43.6965 24.3764 43.809 24.3687 43.9212V46.0244H23.5538Z" fill="white"/>
<path d="M27.0556 46.0252L26.9831 45.7714C26.7628 45.9787 26.4707 46.0925 26.1683 46.0886C25.9494 46.0922 25.7347 46.029 25.5526 45.9074C25.3659 45.7838 25.2208 45.6069 25.1361 45.3997C25.0334 45.1497 24.9841 44.8811 24.9912 44.6109C24.9726 44.2161 25.0874 43.8264 25.3171 43.5049C25.4233 43.3681 25.5613 43.2593 25.7192 43.1882C25.877 43.1171 26.0499 43.0857 26.2226 43.0969C26.4765 43.1104 26.7201 43.2023 26.9198 43.3598V41.9003H27.7346V46.0252H27.0556ZM26.4399 45.4722C26.6199 45.469 26.7955 45.4156 26.9469 45.318V43.8494C26.7803 43.7495 26.5887 43.6993 26.3946 43.7044C26.3094 43.6986 26.2242 43.7157 26.1478 43.754C26.0714 43.7922 26.0066 43.8503 25.96 43.922C25.8493 44.1273 25.799 44.36 25.8152 44.5928C25.7952 44.8242 25.8491 45.0559 25.9691 45.2546C26.022 45.3286 26.0932 45.3875 26.1758 45.4256C26.2583 45.4638 26.3493 45.4798 26.4399 45.4722Z" fill="white"/>
<path d="M30.1746 46.0254L30.1112 45.7716C29.9935 45.8779 29.8588 45.9637 29.7128 46.0254C29.5711 46.0806 29.4211 46.1113 29.2692 46.1161C29.1503 46.1216 29.0316 46.1036 28.9198 46.0632C28.8079 46.0227 28.7051 45.9606 28.6172 45.8804C28.5319 45.801 28.465 45.7039 28.4212 45.5958C28.3773 45.4877 28.3577 45.3713 28.3637 45.2549C28.3602 45.0876 28.4076 44.9231 28.4996 44.7834C28.5944 44.6443 28.7261 44.5345 28.8798 44.4662C29.0678 44.383 29.272 44.3427 29.4774 44.3483C29.6755 44.3527 29.8727 44.377 30.0659 44.4208V44.1398C30.0737 44.0765 30.068 44.0123 30.0493 43.9514C30.0305 43.8905 29.9992 43.8342 29.9573 43.7862C29.8417 43.7122 29.7043 43.6801 29.5679 43.6956C29.226 43.6997 28.8868 43.7578 28.5629 43.8678V43.3601C28.7269 43.283 28.9005 43.2281 29.079 43.1969C29.2874 43.153 29.4999 43.1317 29.7128 43.1334C30.0086 43.1067 30.3042 43.1871 30.5458 43.3601C30.6418 43.4534 30.7159 43.5668 30.7629 43.6922C30.8098 43.8176 30.8285 43.9519 30.8175 44.0854V46.0617L30.1746 46.0254ZM29.5046 45.5631C29.6006 45.5619 29.6957 45.5434 29.7852 45.5087C29.8857 45.4633 29.98 45.4055 30.0659 45.3364V44.856C29.9183 44.8438 29.7699 44.8438 29.6223 44.856C29.3054 44.856 29.1424 44.992 29.1424 45.2549C29.139 45.3026 29.1452 45.3504 29.1608 45.3956C29.1764 45.4408 29.2009 45.4823 29.233 45.5178C29.314 45.5681 29.4116 45.5844 29.5046 45.5631Z" fill="white"/>
<path d="M31.5851 46.0242V43.1775H32.246L32.3456 43.5945C32.4678 43.4573 32.6116 43.3409 32.7712 43.2501C32.8989 43.181 33.0426 43.1467 33.1877 43.1503C33.2629 43.1417 33.3389 43.1417 33.414 43.1503V43.9028C33.2998 43.8885 33.1842 43.8885 33.07 43.9028C32.8376 43.901 32.607 43.9442 32.3909 44.0297V46.0423L31.5851 46.0242Z" fill="white"/>
<path d="M35.7587 46.0252L35.6863 45.7714C35.4659 45.9787 35.1738 46.0925 34.8714 46.0886C34.6525 46.0922 34.4378 46.029 34.2557 45.9074C34.0691 45.7838 33.924 45.6069 33.8392 45.3997C33.7365 45.1497 33.6873 44.8811 33.6943 44.6109C33.6758 44.2161 33.7905 43.8264 34.0203 43.5049C34.1264 43.3681 34.2644 43.2593 34.4223 43.1882C34.5801 43.1171 34.753 43.0857 34.9257 43.0969C35.1994 43.0916 35.467 43.1778 35.6863 43.3417V41.9003H36.5011V46.0252H35.7587ZM35.1339 45.4722C35.317 45.4702 35.4958 45.4168 35.65 45.318V43.8494C35.4834 43.7495 35.2918 43.6993 35.0978 43.7044C35.0124 43.6977 34.9268 43.7143 34.8502 43.7527C34.7737 43.791 34.709 43.8495 34.6631 43.922C34.5524 44.1273 34.5022 44.36 34.5183 44.5928C34.5008 44.8228 34.5512 45.0529 34.6631 45.2546C34.7178 45.3267 34.7894 45.3842 34.8715 45.4222C34.9535 45.4601 35.0437 45.4773 35.1339 45.4722Z" fill="white"/>
<path d="M81 6H0.000366211V8.06698H81V6Z" fill="white"/>
</svg>
