<svg width="134" height="122" viewBox="0 0 134 122" fill="none" xmlns="http://www.w3.org/2000/svg">
<g clip-path="url(#clip0_13815_965)">
<mask id="mask0_13815_965" style="mask-type:luminance" maskUnits="userSpaceOnUse" x="-1" y="1" width="135" height="121">
<path d="M133.409 1.09766H-0.179443V121.185H133.409V1.09766Z" fill="white"/>
</mask>
<g mask="url(#mask0_13815_965)">
<mask id="mask1_13815_965" style="mask-type:luminance" maskUnits="userSpaceOnUse" x="-1" y="1" width="135" height="121">
<path d="M133.409 1.09766H-0.179443V121.185H133.409V1.09766Z" fill="white"/>
</mask>
<g mask="url(#mask1_13815_965)">
<path d="M66.8233 6.60453C79.5262 6.6179 91.8319 10.9969 101.643 18.9958C111.455 26.9946 118.167 38.1187 120.635 50.4729C123.104 62.8272 121.176 75.648 115.18 86.7512C109.184 97.8545 99.4919 106.553 87.753 111.367C76.0144 116.18 62.9557 116.809 50.8013 113.149C38.6469 109.488 28.1486 101.763 21.0942 91.2886C14.0399 80.8147 10.8661 68.2401 12.1133 55.7065C13.3605 43.173 18.9515 31.4557 27.9342 22.5504C33.0405 17.4881 39.1038 13.4739 45.777 10.7376C52.4501 8.00144 59.602 6.59693 66.8233 6.60453ZM66.8233 4.15342C55.4839 4.16159 44.4016 7.50246 34.9769 13.7537C25.5522 20.0052 18.2083 28.8863 13.8734 39.2747C9.53846 49.6632 8.40713 61.0926 10.6223 72.1185C12.8375 83.1441 18.2999 93.2714 26.3189 101.22C34.3381 109.169 44.5539 114.581 55.6752 116.775C66.7967 118.969 78.3243 117.844 88.8012 113.545C99.2785 109.244 108.235 101.96 114.537 92.6149C120.84 83.2694 124.207 72.2808 124.212 61.0385C124.209 45.949 118.161 31.4788 107.4 20.8089C96.6374 10.1392 82.0426 4.14329 66.8233 4.13965V4.15342Z" fill="white"/>
<path d="M66.6868 113.683C77.1873 113.677 87.4505 110.584 96.1791 104.797C104.907 99.0089 111.708 90.7851 115.723 81.1651C119.737 71.5453 120.784 60.9612 118.733 50.7512C116.681 40.5411 111.622 31.1635 104.194 23.8039C96.7682 16.4442 87.3068 11.4331 77.0076 9.40408C66.7085 7.37503 56.0338 8.41917 46.3331 12.4045C36.6325 16.3897 28.3413 23.1373 22.5082 31.7939C16.675 40.4505 13.5615 50.6276 13.5615 61.0384C13.5726 75.0018 19.1741 88.3898 29.1354 98.2604C39.0968 108.132 52.6031 113.679 66.6868 113.683Z" stroke="white" stroke-width="1.81832" stroke-miterlimit="10" stroke-dasharray="2.73 2.73"/>
<path d="M70.9976 61.5354H64.4836L65.5947 59.1532L66.5532 56.9912H68.942L69.8865 59.1532L70.9976 61.5354Z" fill="white"/>
<path d="M75.1599 61.5333H60.3543C60.1537 61.5311 59.9549 61.5697 59.77 61.6464C59.585 61.7233 59.4179 61.8366 59.2788 61.9798C59.1396 62.1229 59.0314 62.2926 58.9608 62.4787C58.8902 62.6647 58.8586 62.8632 58.8681 63.0617V67.7436H76.5626V63.0617C76.5857 62.7008 76.4645 62.3454 76.2254 62.0722C75.9864 61.7992 75.6485 61.6302 75.2848 61.6021H75.1599" fill="white"/>
<path d="M69.884 59.1521C69.3007 59.4412 68.7312 59.7305 68.1063 59.9783L67.7451 60.0609L67.3701 59.8957C66.7451 59.6478 66.1756 59.3587 65.5923 59.0694L66.5507 56.8662H68.8562L69.884 59.1521Z" fill="white"/>
<path d="M71.9507 54.8682H63.5339V62.0976H71.9507V54.8682Z" fill="white"/>
<path d="M79.1994 34.4336H56.1992V35.5353H79.1994V34.4336Z" fill="white"/>
<path d="M81.2592 32.3818H54.134V37.5732H81.2592V32.3818Z" fill="white"/>
<path d="M79.2956 36.5959V34.434C79.5207 34.4083 79.7293 34.3042 79.8845 34.1404C80.0396 33.9764 80.1311 33.7634 80.1427 33.5389C80.1544 33.4201 80.1408 33.3002 80.1027 33.1868C80.0647 33.0735 80.0031 32.9694 79.922 32.8811C79.8409 32.7929 79.7419 32.7224 79.6316 32.6745C79.5213 32.6265 79.4021 32.602 79.2816 32.6025H56.1982C55.9596 32.6093 55.7324 32.7054 55.5623 32.8715C55.3923 33.0375 55.2919 33.2612 55.2814 33.4977C55.274 33.6175 55.2909 33.7376 55.3312 33.8507C55.3714 33.964 55.4342 34.068 55.5159 34.1566C55.5975 34.2453 55.6963 34.3168 55.8063 34.3668C55.9164 34.4168 56.0355 34.4443 56.1564 34.4478V36.6097H50.0176V39.653C50.044 43.1483 51.1132 46.5578 53.0905 49.4517C55.0677 52.3457 57.8646 54.5948 61.1287 55.9157C61.9556 56.2418 62.805 56.5088 63.6704 56.7144C64.9505 57.6641 66.3516 58.442 67.8371 59.0278C69.3218 58.44 70.7226 57.6623 72.0038 56.7144C72.8623 56.5004 73.7065 56.2336 74.5316 55.9157C77.7787 54.5815 80.556 52.3263 82.5154 49.4333C84.4748 46.5401 85.5289 43.1378 85.5456 39.653V36.5959H79.2956ZM56.3509 48.9892C54.1696 46.3556 52.9638 43.0608 52.9343 39.653V39.5703H56.212V42.2556C56.2102 45.3812 57.0338 48.4529 58.6009 51.1649C57.7722 50.5037 57.0178 49.7559 56.3509 48.9341V48.9892ZM65.1843 42.6549V50.4213H61.8788V41.8838C61.945 41.0583 62.2914 40.2795 62.8615 39.6742C63.4314 39.0691 64.1915 38.6732 65.0176 38.5513H73.5038V41.7874H65.7954C65.6194 41.8404 65.4651 41.9478 65.3551 42.0939C65.2452 42.2402 65.1853 42.4174 65.1843 42.5998V42.6549ZM73.7955 47.1164C73.7665 47.9186 73.4568 48.6859 72.9196 49.2864C72.3823 49.887 71.651 50.2834 70.851 50.4076H66.0871V47.0614H70.0871C70.188 47.0457 70.2803 46.9961 70.3486 46.9208C70.4169 46.8456 70.457 46.7494 70.4621 46.6483V45.8772H66.0871V43.3021C66.0871 42.6825 66.7399 42.765 66.7399 42.765H73.7955V47.1164ZM79.1844 48.9341C78.5476 49.6827 77.8407 50.3697 77.0733 50.9859C78.5764 48.3375 79.3657 45.3496 79.3649 42.3106V39.5566H82.5177V39.653H82.601C82.5979 43.0488 81.3882 46.3348 79.1844 48.9341Z" fill="white"/>
<path d="M133.357 71.7539H118.413V94.4753H133.357L128.537 83.8029L133.357 71.7539ZM0.0231934 71.7539H15.0233V94.4753H0.0231934L4.84267 83.8029L0.0231934 71.7539Z" fill="white"/>
<path d="M67.41 11.0938L69.8405 15.9546L75.285 16.7257L71.3684 20.5263L72.3129 25.883L67.4517 23.3492L62.5906 25.883L63.535 20.5263L59.5767 16.7257L65.0211 15.9546L67.41 11.0938Z" fill="white"/>
<path d="M52.3702 20.5676L50.8841 17.6621L49.4396 20.5676L46.1758 21.0634L48.5229 23.3492L47.9952 26.5439L50.8841 25.0293L53.8008 26.5439L53.273 23.3492L55.6202 21.0634L52.3702 20.5676Z" fill="white"/>
<path d="M88.6914 21.0634L85.4274 20.5676L83.9413 17.6621L82.4968 20.5676L79.2468 21.0634L81.5941 23.3492L81.0524 26.5439L83.9413 25.0293L86.8719 26.5439L86.3441 23.3492L88.6914 21.0634Z" fill="white"/>
<path d="M44.2449 28.2098L43.3699 26.4609L42.5088 28.2098L40.5227 28.4989L41.9255 29.8485L41.6061 31.8038L43.3699 30.8675L45.1061 31.8038L44.7728 29.8485L46.1755 28.4989L44.2449 28.2098Z" fill="white"/>
<path d="M94.3275 28.4989L92.3552 28.2098L91.4945 26.4609L90.6195 28.2098L88.6472 28.4989L90.0916 29.8485L89.7583 31.8038L91.4945 30.8675L93.2171 31.8038L92.8831 29.8485L94.3275 28.4989Z" fill="white"/>
</g>
<path fill-rule="evenodd" clip-rule="evenodd" d="M125.06 69.3994H8.16968V90.6285H125.06V69.3994ZM28.5349 76.4242V76.145C28.5349 75.8132 28.4925 75.5167 28.4076 75.2558C28.3247 74.9927 28.2045 74.7692 28.0469 74.585C27.8913 74.3989 27.7044 74.2573 27.4861 74.1601C27.2699 74.063 27.0274 74.0144 26.7587 74.0144C26.498 74.0144 26.2586 74.063 26.0404 74.1601C25.8241 74.2573 25.6373 74.3989 25.4797 74.585C25.3221 74.7692 25.1998 74.9927 25.1129 75.2558C25.028 75.5167 24.9856 75.8132 24.9856 76.145V76.4242C24.9856 76.756 25.029 77.0534 25.1159 77.3165C25.2028 77.5795 25.325 77.8031 25.4826 77.9872C25.6423 78.1714 25.8302 78.3119 26.0464 78.409C26.2647 78.5062 26.5041 78.5548 26.7648 78.5548C27.0335 78.5548 27.276 78.5062 27.4922 78.409C27.7104 78.3119 27.8973 78.1714 28.0529 77.9872C28.2085 77.8031 28.3277 77.5795 28.4105 77.3165C28.4934 77.0534 28.5349 76.756 28.5349 76.4242ZM27.956 76.1389V76.4242C27.956 76.6892 27.9296 76.9239 27.8771 77.1283C27.8246 77.3306 27.7468 77.5016 27.6437 77.6412C27.5427 77.7788 27.4185 77.883 27.271 77.9538C27.1235 78.0246 26.9547 78.0601 26.7648 78.0601C26.5829 78.0601 26.4182 78.0246 26.2707 77.9538C26.1253 77.883 25.9989 77.7788 25.8918 77.6412C25.7867 77.5016 25.7059 77.3306 25.6493 77.1283C25.5928 76.9239 25.5645 76.6892 25.5645 76.4242V76.1389C25.5645 75.8759 25.5928 75.6432 25.6493 75.4409C25.7059 75.2385 25.7857 75.0686 25.8888 74.931C25.9939 74.7935 26.1191 74.6892 26.2647 74.6184C26.4122 74.5476 26.5769 74.5122 26.7587 74.5122C26.9466 74.5122 27.1144 74.5476 27.2619 74.6184C27.4114 74.6892 27.5377 74.7935 27.6407 74.931C27.7438 75.0686 27.8216 75.2385 27.8741 75.4409C27.9287 75.6432 27.956 75.8759 27.956 76.1389ZM23.1488 78.4941V74.5547H24.5673V74.0752H23.1488H22.5729H21.1574V74.5547H22.5729V78.4941H23.1488ZM31.0384 76.7611H29.9958V78.4941H29.4108V74.0752H31.0384C31.3719 74.0752 31.6538 74.1328 31.8841 74.2481C32.1145 74.3634 32.2893 74.5233 32.4085 74.7276C32.5277 74.93 32.5873 75.1616 32.5873 75.4227C32.5873 75.7059 32.5277 75.9477 32.4085 76.1481C32.2893 76.3483 32.1145 76.5011 31.8841 76.6063C31.6538 76.7095 31.3719 76.7611 31.0384 76.7611ZM29.9958 74.5547V76.2846H31.0384C31.2667 76.2846 31.4516 76.2482 31.5931 76.1754C31.7346 76.1025 31.8376 76.0013 31.9023 75.8718C31.9689 75.7423 32.0023 75.5946 32.0023 75.4288C32.0023 75.277 31.9689 75.1343 31.9023 75.0008C31.8376 74.8673 31.7346 74.76 31.5931 74.6791C31.4516 74.5961 31.2667 74.5547 31.0384 74.5547H29.9958ZM37.1702 77.104C37.2024 77.1829 37.2186 77.274 37.2186 77.3772C37.2186 77.5208 37.1812 77.6453 37.1065 77.7505C37.0337 77.8557 36.9266 77.9367 36.7852 77.9933C36.6438 78.0499 36.4709 78.0782 36.2669 78.0782C36.1255 78.0782 35.989 78.0621 35.8577 78.0297C35.7284 77.9953 35.6122 77.9427 35.5091 77.8719C35.4081 77.8011 35.3283 77.7121 35.2697 77.6048C35.2111 77.4956 35.1818 77.365 35.1818 77.2133H34.5999C34.5999 77.4338 34.6474 77.6281 34.7423 77.796C34.8393 77.9619 34.9676 78.1015 35.1273 78.2148C35.2889 78.3281 35.4677 78.4131 35.6638 78.4698C35.8617 78.5265 36.0628 78.5548 36.2669 78.5548C36.4992 78.5548 36.7094 78.5275 36.8973 78.4728C37.0873 78.4162 37.2499 78.3362 37.3853 78.233C37.5207 78.1298 37.6247 78.0054 37.6975 77.8598C37.7703 77.714 37.8066 77.5512 37.8066 77.3711C37.8066 77.1992 37.7773 77.0454 37.7187 76.9098C37.6621 76.7722 37.5743 76.6498 37.455 76.5425C37.3378 76.4333 37.1883 76.3351 37.0064 76.2482C36.8246 76.1612 36.6083 76.0822 36.3579 76.0114C36.1759 75.9609 36.0193 75.9083 35.888 75.8536C35.7587 75.799 35.6516 75.7393 35.5667 75.6746C35.4839 75.6099 35.4223 75.54 35.3818 75.4651C35.3434 75.3882 35.3242 75.3033 35.3242 75.2102C35.3242 75.0727 35.3566 74.9502 35.4213 74.843C35.488 74.7358 35.589 74.6508 35.7243 74.5881C35.8597 74.5253 36.0315 74.4939 36.2396 74.4939C36.4598 74.4939 36.6417 74.5314 36.7852 74.6063C36.9287 74.6791 37.0357 74.7803 37.1065 74.9098C37.1772 75.0372 37.2125 75.1839 37.2125 75.3498H37.7945C37.7945 75.1192 37.7339 74.9026 37.6127 74.7003C37.4914 74.496 37.3146 74.3311 37.0822 74.2057C36.8519 74.0782 36.5709 74.0144 36.2396 74.0144C36.0133 74.0144 35.8082 74.0448 35.6243 74.1054C35.4405 74.1662 35.2818 74.2512 35.1484 74.3604C35.0171 74.4676 34.9161 74.5941 34.8453 74.7398C34.7746 74.8855 34.7393 75.0443 34.7393 75.2163C34.7393 75.3882 34.7726 75.541 34.8393 75.6746C34.906 75.8081 35.0019 75.9264 35.1273 76.0296C35.2525 76.1328 35.4031 76.2249 35.5789 76.3058C35.7547 76.3847 35.9516 76.4566 36.1699 76.5213C36.378 76.5821 36.5498 76.6417 36.6852 76.7004C36.8225 76.7591 36.9297 76.8207 37.0064 76.8855C37.0853 76.9502 37.1398 77.0231 37.1702 77.104ZM41.9499 76.4242C41.9499 76.756 41.9086 77.0534 41.8257 77.3165C41.7429 77.5795 41.6237 77.8031 41.4681 77.9872C41.3124 78.1714 41.1256 78.3119 40.9073 78.409C40.6911 78.5062 40.4486 78.5548 40.1799 78.5548C39.9192 78.5548 39.6798 78.5062 39.4616 78.409C39.2453 78.3119 39.0574 78.1714 38.8978 77.9872C38.7402 77.8031 38.6179 77.5795 38.531 77.3165C38.4442 77.0534 38.4007 76.756 38.4007 76.4242V76.145C38.4007 75.8132 38.4431 75.5167 38.528 75.2558C38.6149 74.9927 38.7371 74.7692 38.8947 74.585C39.0524 74.3989 39.2393 74.2573 39.4554 74.1601C39.6737 74.063 39.9132 74.0144 40.1739 74.0144C40.4426 74.0144 40.685 74.063 40.9013 74.1601C41.1195 74.2573 41.3064 74.3989 41.462 74.585C41.6196 74.7692 41.7398 74.9927 41.8227 75.2558C41.9075 75.5167 41.9499 75.8132 41.9499 76.145V76.4242ZM41.371 76.4242V76.1389C41.371 75.8759 41.3438 75.6432 41.2892 75.4409C41.2367 75.2385 41.1589 75.0686 41.0558 74.931C40.9527 74.7935 40.8265 74.6892 40.6769 74.6184C40.5294 74.5476 40.3617 74.5122 40.1739 74.5122C39.9919 74.5122 39.8273 74.5476 39.6798 74.6184C39.5343 74.6892 39.409 74.7935 39.3039 74.931C39.2009 75.0686 39.1211 75.2385 39.0645 75.4409C39.0079 75.6432 38.9796 75.8759 38.9796 76.1389V76.4242C38.9796 76.6892 39.0079 76.9239 39.0645 77.1283C39.1211 77.3306 39.2019 77.5016 39.3069 77.6412C39.4141 77.7788 39.5403 77.883 39.6858 77.9538C39.8333 78.0246 39.9981 78.0601 40.1799 78.0601C40.3698 78.0601 40.5385 78.0246 40.686 77.9538C40.8335 77.883 40.9579 77.7788 41.0589 77.6412C41.1619 77.5016 41.2397 77.3306 41.2923 77.1283C41.3448 76.9239 41.371 76.6892 41.371 76.4242ZM43.4109 76.063V74.5547H45.5599V74.0752H43.4109H43.2836H42.826V78.4941H43.4109V76.5425H45.2598V76.063H43.4109ZM47.9482 74.5547V78.4941H47.3724V74.5547H45.9569V74.0752H47.3724H47.9482H49.3668V74.5547H47.9482ZM52.1067 74.0752L51.2308 77.1587L51.1094 77.6833L51.0217 77.098L50.3245 74.0752H49.7426L50.8125 78.4941H50.9217H51.2308H51.343L52.2856 75.274L52.3549 74.9356L52.425 75.274L53.3344 78.4941H53.4464H53.7556H53.8647L54.9317 74.0752H54.3467L53.6647 77.095L53.5709 77.6962L53.4464 77.1587L52.5948 74.0752H52.5311H52.1765H52.1067ZM57.217 74.0752H57.0897H56.8321H56.7048L55.0226 78.4941H55.6197L56.0392 77.3377H57.8848L58.3052 78.4941H58.9053L57.217 74.0752ZM57.7105 76.8582H56.2131L56.961 74.7963L57.7105 76.8582ZM60.9573 74.0752H59.4963V78.4941H60.0813V76.7034H61.1165L62.0757 78.4941H62.7V78.4576L61.6634 76.5811C61.7996 76.5291 61.9209 76.4626 62.0272 76.3818C62.1807 76.2644 62.298 76.1228 62.3788 75.9568C62.4616 75.7889 62.503 75.6038 62.503 75.4014C62.503 75.1141 62.4424 74.8723 62.3212 74.676C62.202 74.4778 62.0272 74.3281 61.7968 74.2269C61.5685 74.1258 61.2886 74.0752 60.9573 74.0752ZM60.0813 76.227H60.9754C61.1856 76.227 61.3604 76.1905 61.4998 76.1177C61.6392 76.0428 61.7443 75.9427 61.815 75.8173C61.8857 75.6917 61.9211 75.5532 61.9211 75.4014C61.9211 75.2314 61.8877 75.0827 61.821 74.9553C61.7543 74.8278 61.6493 74.7297 61.5058 74.6609C61.3644 74.5901 61.1815 74.5547 60.9573 74.5547H60.0813V76.227ZM66.1251 78.0176V78.4941H63.9064H63.7881H63.3214V74.0752H63.7881H63.9064H66.0948V74.5547H63.9064V75.975H65.8159V76.4515H63.9064V78.0176H66.1251ZM68.9742 78.4941H69.5834C69.8905 78.4941 70.1663 78.4465 70.4109 78.3515C70.6574 78.2543 70.8675 78.1157 71.0414 77.9356C71.2172 77.7556 71.3515 77.538 71.4444 77.2831C71.5374 77.0261 71.5839 76.7379 71.5839 76.4181V76.1541C71.5839 75.8344 71.5374 75.5471 71.4444 75.2922C71.3515 75.0352 71.2181 74.8167 71.0443 74.6366C70.8726 74.4545 70.6675 74.3159 70.4291 74.2208C70.1907 74.1237 69.9269 74.0752 69.6379 74.0752H68.9742H68.6438H68.3892V78.4941H68.662H68.9742ZM68.9742 78.0176H69.5834C69.8986 78.0176 70.1613 77.9518 70.3715 77.8203C70.5816 77.6868 70.7392 77.5006 70.8443 77.2618C70.9514 77.0211 71.0049 76.7399 71.0049 76.4181V76.1481C71.0049 75.8952 70.9746 75.6705 70.914 75.4743C70.8534 75.276 70.7645 75.109 70.6473 74.9735C70.5301 74.8359 70.3866 74.7317 70.2169 74.6609C70.0492 74.5901 69.8562 74.5547 69.6379 74.5547H68.9742V78.0176ZM75.2665 78.0176V78.4941H73.0478H72.9296H72.4629V74.0752H72.9296H73.0478H75.2362V74.5547H73.0478V75.975H74.9574V76.4515H73.0478V78.0176H75.2665ZM77.2639 78.4941H77.1972L75.5666 74.0752H76.2L77.452 77.718L78.7157 74.0752H79.3493L77.7155 78.4941H77.6489H77.2639ZM82.747 78.0176V78.4941H80.5283H80.4101H79.9433V74.0752H80.4101H80.5283H82.7166V74.5547H80.5283V75.975H82.4378V76.4515H80.5283V78.0176H82.747ZM86.1477 78.4941V78.0176H84.0563V74.0752H83.4714V78.4941H83.9412H84.0563H86.1477ZM90.0153 76.4242C90.0153 76.756 89.9738 77.0534 89.891 77.3165C89.8081 77.5795 89.6889 77.8031 89.5333 77.9872C89.3778 78.1714 89.1908 78.3119 88.9726 78.409C88.7564 78.5062 88.5139 78.5548 88.2451 78.5548C87.9845 78.5548 87.745 78.5062 87.5268 78.409C87.3106 78.3119 87.1227 78.1714 86.9631 77.9872C86.8055 77.8031 86.6832 77.5795 86.5963 77.3165C86.5094 77.0534 86.466 76.756 86.466 76.4242V76.145C86.466 75.8132 86.5084 75.5167 86.5933 75.2558C86.6801 74.9927 86.8024 74.7692 86.96 74.585C87.1176 74.3989 87.3046 74.2573 87.5207 74.1601C87.739 74.063 87.9784 74.0144 88.2391 74.0144C88.5079 74.0144 88.7503 74.063 88.9665 74.1601C89.1847 74.2573 89.3717 74.3989 89.5272 74.585C89.6848 74.7692 89.8051 74.9927 89.8879 75.2558C89.9728 75.5167 90.0153 75.8132 90.0153 76.145V76.4242ZM89.4363 76.4242V76.1389C89.4363 75.8759 89.409 75.6432 89.3545 75.4409C89.302 75.2385 89.2242 75.0686 89.1211 74.931C89.018 74.7935 88.8918 74.6892 88.7422 74.6184C88.5947 74.5476 88.427 74.5122 88.2391 74.5122C88.0572 74.5122 87.8925 74.5476 87.745 74.6184C87.5996 74.6892 87.4742 74.7935 87.3692 74.931C87.2661 75.0686 87.1864 75.2385 87.1298 75.4409C87.0732 75.6432 87.0449 75.8759 87.0449 76.1389V76.4242C87.0449 76.6892 87.0732 76.9239 87.1298 77.1283C87.1864 77.3306 87.2672 77.5016 87.3722 77.6412C87.4793 77.7788 87.6056 77.883 87.7511 77.9538C87.8987 78.0246 88.0633 78.0601 88.2451 78.0601C88.435 78.0601 88.6038 78.0246 88.7513 77.9538C88.8988 77.883 89.0231 77.7788 89.1241 77.6412C89.2272 77.5016 89.305 77.3306 89.3576 77.1283C89.4101 76.9239 89.4363 76.6892 89.4363 76.4242ZM91.4761 76.7611H92.5188C92.8518 76.7611 93.1338 76.7095 93.3648 76.6063C93.5949 76.5011 93.7693 76.3483 93.889 76.1481C94.0077 75.9477 94.068 75.7059 94.068 75.4227C94.068 75.1616 94.0077 74.93 93.889 74.7276C93.7693 74.5233 93.5949 74.3634 93.3648 74.2481C93.1338 74.1328 92.8518 74.0752 92.5188 74.0752H90.8912V78.4941H91.4761V76.7611ZM91.4761 76.2846V74.5547H92.5188C92.747 74.5547 92.9316 74.5961 93.0735 74.6791C93.2146 74.76 93.3185 74.8673 93.3825 75.0008C93.4493 75.1343 93.4827 75.277 93.4827 75.4288C93.4827 75.5946 93.4493 75.7423 93.3825 75.8718C93.3185 76.0013 93.2146 76.1025 93.0735 76.1754C92.9316 76.2482 92.747 76.2846 92.5188 76.2846H91.4761ZM95.3074 74.0752H95.5588L97.0051 77.6777L98.4477 74.0752H98.6991H99.0173H99.1991V78.4941H98.6175V76.7702L98.6731 74.9222L97.2231 78.4941H96.7806L95.3325 74.9172L95.3891 76.7702V78.4941H94.8074V74.0752H94.992H95.3074ZM103.031 78.4941V78.0176H100.811V76.4515H102.721V75.975H100.811V74.5547H103V74.0752H100.811H100.694H100.227V78.4941H100.694H100.811H103.031ZM107.15 74.0752V78.4941H106.561L104.34 75.0858V78.4941H103.755V74.0752H104.34L106.571 77.4925V74.0752H107.15ZM109.726 78.4941V74.5547H111.144V74.0752H109.726H109.15H107.734V74.5547H109.15V78.4941H109.726ZM24.1551 84.5476H24.737C24.7067 84.8268 24.6269 85.0767 24.4976 85.2972C24.3683 85.5178 24.1854 85.6929 23.949 85.8223C23.7126 85.9497 23.4176 86.0135 23.0639 86.0135C22.8053 86.0135 22.5698 85.965 22.3577 85.8679C22.1476 85.7707 21.9668 85.6331 21.8152 85.4551C21.6637 85.275 21.5464 85.0595 21.4636 84.8086C21.3828 84.5557 21.3423 84.2745 21.3423 83.9649V83.5248C21.3423 83.2152 21.3828 82.935 21.4636 82.6841C21.5464 82.4312 21.6646 82.2147 21.8182 82.0346C21.9738 81.8545 22.1607 81.716 22.3789 81.6189C22.5971 81.5217 22.8427 81.4731 23.1154 81.4731C23.4488 81.4731 23.7308 81.5359 23.9611 81.6613C24.1915 81.7868 24.3703 81.9608 24.4976 82.1834C24.6269 82.4039 24.7067 82.6599 24.737 82.9512H24.1551C24.1268 82.7449 24.0743 82.5678 23.9975 82.4201C23.9207 82.2703 23.8116 82.1551 23.6701 82.0741C23.5287 81.9932 23.3438 81.9527 23.1154 81.9527C22.9195 81.9527 22.7467 81.9901 22.5971 82.065C22.4496 82.1398 22.3254 82.2461 22.2244 82.3837C22.1254 82.5212 22.0506 82.6862 22.0001 82.8783C21.9496 83.0706 21.9243 83.2841 21.9243 83.5187V83.9649C21.9243 84.1814 21.9465 84.3848 21.991 84.5749C22.0374 84.7651 22.1072 84.932 22.2001 85.0757C22.293 85.2193 22.4113 85.3327 22.5547 85.4156C22.6982 85.4965 22.8679 85.537 23.0639 85.537C23.3125 85.537 23.5105 85.4975 23.658 85.4186C23.8055 85.3397 23.9167 85.2265 23.9915 85.0788C24.0682 84.931 24.1227 84.754 24.1551 84.5476ZM28.9319 83.8829V83.6037C28.9319 83.2719 28.8895 82.9755 28.8046 82.7145C28.7218 82.4514 28.6016 82.2279 28.4439 82.0437C28.2884 81.8576 28.1014 81.716 27.8832 81.6189C27.667 81.5217 27.4245 81.4731 27.1557 81.4731C26.8951 81.4731 26.6556 81.5217 26.4374 81.6189C26.2212 81.716 26.0343 81.8576 25.8767 82.0437C25.7191 82.2279 25.5968 82.4514 25.5099 82.7145C25.425 82.9755 25.3826 83.2719 25.3826 83.6037V83.8829C25.3826 84.2148 25.426 84.5122 25.513 84.7752C25.5999 85.0383 25.7221 85.2618 25.8797 85.4459C26.0393 85.6301 26.2273 85.7707 26.4435 85.8679C26.6617 85.965 26.9012 86.0135 27.1619 86.0135C27.4305 86.0135 27.673 85.965 27.8893 85.8679C28.1075 85.7707 28.2944 85.6301 28.45 85.4459C28.6055 85.2618 28.7248 85.0383 28.8076 84.7752C28.8905 84.5122 28.9319 84.2148 28.9319 83.8829ZM28.353 83.5976V83.8829C28.353 84.148 28.3268 84.3827 28.2742 84.5871C28.2217 84.7894 28.1438 84.9604 28.0408 85.1C27.9397 85.2375 27.8155 85.3417 27.668 85.4125C27.5205 85.4834 27.3518 85.5188 27.1619 85.5188C26.9799 85.5188 26.8153 85.4834 26.6678 85.4125C26.5223 85.3417 26.396 85.2375 26.2889 85.1C26.1838 84.9604 26.103 84.7894 26.0464 84.5871C25.9898 84.3827 25.9615 84.148 25.9615 83.8829V83.5976C25.9615 83.3347 25.9898 83.102 26.0464 82.8997C26.103 82.6973 26.1829 82.5273 26.2858 82.3898C26.3909 82.2522 26.5162 82.148 26.6617 82.0772C26.8092 82.0064 26.9739 81.9709 27.1557 81.9709C27.3437 81.9709 27.5114 82.0064 27.6589 82.0772C27.8085 82.148 27.9347 82.2522 28.0378 82.3898C28.1409 82.5273 28.2186 82.6973 28.2712 82.8997C28.3258 83.102 28.353 83.3347 28.353 83.5976ZM30.308 81.5339H30.5596L32.0053 85.1364L33.448 81.5339H33.6996H34.0179H34.1998V85.9528H33.6178V84.229L33.6739 82.381L32.2236 85.9528H31.7811L30.3336 82.376L30.3898 84.229V85.9528H29.8078V81.5339H29.9927H30.308ZM35.8123 84.2198H36.8549C37.1883 84.2198 37.4702 84.1682 37.7005 84.065C37.9309 83.9598 38.1056 83.8071 38.2248 83.6068C38.3442 83.4065 38.4037 83.1646 38.4037 82.8814C38.4037 82.6204 38.3442 82.3888 38.2248 82.1864C38.1056 81.9821 37.9309 81.8222 37.7005 81.7069C37.4702 81.5916 37.1883 81.5339 36.8549 81.5339H35.2273V85.9528H35.8123V84.2198ZM35.8123 83.7434V82.0134H36.8549C37.0832 82.0134 37.2681 82.0549 37.4096 82.1378C37.551 82.2188 37.654 82.326 37.7187 82.4596C37.7854 82.5931 37.8187 82.7357 37.8187 82.8875C37.8187 83.0534 37.7854 83.2011 37.7187 83.3306C37.654 83.4601 37.551 83.5613 37.4096 83.6341C37.2681 83.7069 37.0832 83.7434 36.8549 83.7434H35.8123ZM40.4951 81.5339H40.3678H40.1101H39.9828L38.3006 85.9528H38.8978L39.3172 84.7965H41.1629L41.5832 85.9528H42.1833L40.4951 81.5339ZM40.9886 84.3169H39.4912L40.2391 82.2551L40.9886 84.3169ZM45.5811 85.9528H46.1691V81.5339H45.5902V84.9512L43.3594 81.5339H42.7744V85.9528H43.3594V82.5446L45.5811 85.9528ZM47.3239 81.5339L48.4696 83.7524L49.6184 81.5339H50.2822L48.7605 84.3018V85.9528H48.1756V84.3018L46.654 81.5339H47.3239ZM52.4311 85.9528H53.0161V81.5339H52.4311V85.9528ZM57.4747 85.9528H56.8866L54.665 82.5446V85.9528H54.08V81.5339H54.665L56.8957 84.9512V81.5339H57.4747V85.9528ZM60.8026 81.5339H60.5511H60.2359H60.051V85.9528H60.6329V84.229L60.5766 82.376L62.0241 85.9528H62.4666L63.917 82.381L63.861 84.229V85.9528H64.4429V81.5339H64.261H63.9428H63.6912L62.2484 85.1364L60.8026 81.5339ZM67.295 81.5339H67.1677H66.9101H66.7828L65.1006 85.9528H65.6977L66.1171 84.7965H67.9628L68.3831 85.9528H68.9832L67.295 81.5339ZM67.7885 84.3169H66.2911L67.0391 82.2551L67.7885 84.3169ZM71.8779 84.5628C71.9102 84.6417 71.9264 84.7327 71.9264 84.8359C71.9264 84.9795 71.889 85.1041 71.8142 85.2092C71.7415 85.3144 71.6343 85.3954 71.493 85.452C71.3515 85.5087 71.1787 85.537 70.9747 85.537C70.8332 85.537 70.6968 85.5208 70.5654 85.4885C70.4361 85.4541 70.32 85.4015 70.2169 85.3307C70.1159 85.2598 70.036 85.1708 69.9775 85.0635C69.9188 84.9543 69.8895 84.8237 69.8895 84.672H69.3076C69.3076 84.8926 69.3551 85.0868 69.4501 85.2548C69.547 85.4207 69.6753 85.5603 69.835 85.6736C69.9967 85.7869 70.1754 85.8719 70.3715 85.9285C70.5695 85.9852 70.7706 86.0135 70.9747 86.0135C71.207 86.0135 71.4172 85.9862 71.6051 85.9315C71.795 85.8749 71.9576 85.795 72.0931 85.6918C72.2284 85.5886 72.3325 85.4641 72.4053 85.3185C72.478 85.1728 72.5144 85.0099 72.5144 84.8298C72.5144 84.6579 72.485 84.5041 72.4265 84.3685C72.3699 84.231 72.282 84.1085 72.1628 84.0013C72.0456 83.8921 71.896 83.794 71.7142 83.7069C71.5323 83.62 71.3161 83.541 71.0656 83.4702C70.8837 83.4196 70.7271 83.367 70.5958 83.3124C70.4665 83.2578 70.3593 83.1981 70.2745 83.1334C70.1917 83.0686 70.13 82.9988 70.0896 82.9239C70.0512 82.847 70.032 82.762 70.032 82.669C70.032 82.5314 70.0643 82.409 70.129 82.3017C70.1957 82.1945 70.2967 82.1096 70.432 82.0468C70.5675 81.984 70.7392 81.9527 70.9474 81.9527C71.1676 81.9527 71.3494 81.9901 71.493 82.065C71.6364 82.1378 71.7435 82.239 71.8142 82.3685C71.8849 82.4959 71.9203 82.6427 71.9203 82.8086H72.5022C72.5022 82.5779 72.4416 82.3614 72.3204 82.1591C72.1991 81.9548 72.0223 81.7898 71.79 81.6644C71.5596 81.5369 71.2788 81.4731 70.9474 81.4731C70.721 81.4731 70.5159 81.5035 70.332 81.5643C70.1482 81.6249 69.9895 81.7099 69.8562 81.8192C69.7249 81.9264 69.6238 82.0529 69.5531 82.1985C69.4824 82.3442 69.447 82.503 69.447 82.675C69.447 82.847 69.4803 82.9998 69.547 83.1334C69.6137 83.2668 69.7097 83.3852 69.835 83.4884C69.9603 83.5916 70.1108 83.6837 70.2866 83.7646C70.4624 83.8435 70.6594 83.9153 70.8776 83.98C71.0858 84.0408 71.2575 84.1005 71.393 84.1591C71.5303 84.2178 71.6374 84.2795 71.7142 84.3442C71.793 84.409 71.8475 84.4819 71.8779 84.5628ZM75.612 84.8359C75.612 84.7327 75.5959 84.6417 75.5635 84.5628C75.5333 84.4819 75.4786 84.409 75.3999 84.3442C75.3231 84.2795 75.216 84.2178 75.0786 84.1591C74.9432 84.1005 74.7714 84.0408 74.5634 83.98C74.3451 83.9153 74.148 83.8435 73.9722 83.7646C73.7964 83.6837 73.646 83.5916 73.5206 83.4884C73.3954 83.3852 73.2994 83.2668 73.2327 83.1334C73.1661 82.9998 73.1327 82.847 73.1327 82.675C73.1327 82.503 73.168 82.3442 73.2388 82.1985C73.3095 82.0529 73.4105 81.9264 73.5419 81.8192C73.6753 81.7099 73.8338 81.6249 74.0178 81.5643C74.2017 81.5035 74.4067 81.4731 74.633 81.4731C74.9644 81.4731 75.2453 81.5369 75.4757 81.6644C75.708 81.7898 75.8848 81.9548 76.006 82.1591C76.1273 82.3614 76.1879 82.5779 76.1879 82.8086H75.606C75.606 82.6427 75.5707 82.4959 75.4999 82.3685C75.4292 82.239 75.322 82.1378 75.1786 82.065C75.0351 81.9901 74.8533 81.9527 74.633 81.9527C74.4249 81.9527 74.2531 81.984 74.1178 82.0468C73.9823 82.1096 73.8813 82.1945 73.8147 82.3017C73.75 82.409 73.7177 82.5314 73.7177 82.669C73.7177 82.762 73.7369 82.847 73.7753 82.9239C73.8156 82.9988 73.8773 83.0686 73.9602 83.1334C74.0451 83.1981 74.1521 83.2578 74.2814 83.3124C74.4128 83.367 74.5694 83.4196 74.7512 83.4702C75.0018 83.541 75.218 83.62 75.3999 83.7069C75.5817 83.794 75.7312 83.8921 75.8484 84.0013C75.9677 84.1085 76.0556 84.231 76.1122 84.3685C76.1708 84.5041 76.2 84.6579 76.2 84.8298C76.2 85.0099 76.1636 85.1728 76.0909 85.3185C76.0182 85.4641 75.9141 85.5886 75.7787 85.6918C75.6434 85.795 75.4807 85.8749 75.2908 85.9315C75.1028 85.9862 74.8927 86.0135 74.6603 86.0135C74.4562 86.0135 74.2552 85.9852 74.0571 85.9285C73.8611 85.8719 73.6823 85.7869 73.5206 85.6736C73.3611 85.5603 73.2327 85.4207 73.1357 85.2548C73.0407 85.0868 72.9932 84.8926 72.9932 84.672H73.5752C73.5752 84.8237 73.6045 84.9543 73.6631 85.0635C73.7217 85.1708 73.8015 85.2598 73.9026 85.3307C74.0056 85.4015 74.1218 85.4541 74.2511 85.4885C74.3825 85.5208 74.5188 85.537 74.6603 85.537C74.8644 85.537 75.0371 85.5087 75.1786 85.452C75.3201 85.3954 75.4271 85.3144 75.4999 85.2092C75.5746 85.1041 75.612 84.9795 75.612 84.8359ZM78.5885 81.5339H78.7157L80.404 85.9528H79.8038L79.3836 84.7965H77.5378L77.1184 85.9528H76.5214L78.2036 81.5339H78.3308H78.5885ZM77.7118 84.3169H79.2093L78.4598 82.2551L77.7118 84.3169ZM83.6229 84.5476H84.2048C84.1745 84.8268 84.0947 85.0767 83.9654 85.2972C83.8361 85.5178 83.6532 85.6929 83.4168 85.8223C83.1804 85.9497 82.8854 86.0135 82.5317 86.0135C82.2731 86.0135 82.0377 85.965 81.8256 85.8679C81.6153 85.7707 81.4345 85.6331 81.283 85.4551C81.1315 85.275 81.0142 85.0595 80.9314 84.8086C80.8506 84.5557 80.8102 84.2745 80.8102 83.9649V83.5248C80.8102 83.2152 80.8506 82.935 80.9314 82.6841C81.0142 82.4312 81.1325 82.2147 81.286 82.0346C81.4416 81.8545 81.6285 81.716 81.8467 81.6189C82.065 81.5217 82.3105 81.4731 82.5833 81.4731C82.9167 81.4731 83.1986 81.5359 83.4289 81.6613C83.6593 81.7868 83.8381 81.9608 83.9654 82.1834C84.0947 82.4039 84.1745 82.6599 84.2048 82.9512H83.6229C83.5946 82.7449 83.5421 82.5678 83.4653 82.4201C83.3886 82.2703 83.2794 82.1551 83.138 82.0741C82.9965 81.9932 82.8116 81.9527 82.5833 81.9527C82.3873 81.9527 82.2146 81.9901 82.065 82.065C81.9175 82.1398 81.7932 82.2461 81.6922 82.3837C81.5932 82.5212 81.5184 82.6862 81.4678 82.8783C81.4174 83.0706 81.3922 83.2841 81.3922 83.5187V83.9649C81.3922 84.1814 81.4143 84.3848 81.4588 84.5749C81.5052 84.7651 81.575 84.932 81.668 85.0757C81.7609 85.2193 81.8791 85.3327 82.0225 85.4156C82.166 85.4965 82.3357 85.537 82.5317 85.537C82.7803 85.537 82.9783 85.4975 83.1258 85.4186C83.2733 85.3397 83.3845 85.2265 83.4592 85.0788C83.5361 84.931 83.5906 84.754 83.6229 84.5476ZM87.8117 83.9102H85.587V85.9528H85.002V81.5339H85.587V83.4338H87.8117V81.5339H88.3937V85.9528H87.8117V83.9102ZM91.9584 81.5339H92.5401V84.5233C92.5401 84.8551 92.4659 85.1313 92.3184 85.3519C92.1709 85.5724 91.9751 85.7384 91.7308 85.8496C91.4883 85.9589 91.2246 86.0135 90.9397 86.0135C90.6406 86.0135 90.3699 85.9589 90.1273 85.8496C89.8869 85.7384 89.696 85.5724 89.5545 85.3519C89.4151 85.1313 89.3454 84.8551 89.3454 84.5233V81.5339H89.9243V84.5233C89.9243 84.754 89.9668 84.9442 90.0517 85.0939C90.1364 85.2436 90.2547 85.3549 90.4062 85.4278C90.5599 85.5006 90.7376 85.537 90.9397 85.537C91.1437 85.537 91.3216 85.5006 91.4732 85.4278C91.6267 85.3549 91.7459 85.2436 91.8304 85.0939C91.9158 84.9442 91.9584 84.754 91.9584 84.5233V81.5339ZM95.762 84.5628C95.7945 84.6417 95.8102 84.7327 95.8102 84.8359C95.8102 84.9795 95.7731 85.1041 95.698 85.2092C95.6256 85.3144 95.519 85.3954 95.377 85.452C95.236 85.5087 95.0625 85.537 94.8584 85.537C94.7174 85.537 94.5811 85.5208 94.4493 85.4885C94.3204 85.4541 94.2044 85.4015 94.1014 85.3307C94.0003 85.2598 93.9205 85.1708 93.8612 85.0635C93.8027 84.9543 93.7739 84.8237 93.7739 84.672H93.1914C93.1914 84.8926 93.2396 85.0868 93.3342 85.2548C93.4307 85.4207 93.5597 85.5603 93.7192 85.6736C93.8806 85.7869 94.0597 85.8719 94.2554 85.9285C94.454 85.9852 94.6543 86.0135 94.8584 86.0135C95.0913 86.0135 95.3009 85.9862 95.4893 85.9315C95.6794 85.8749 95.8418 85.795 95.9772 85.6918C96.1127 85.5886 96.2166 85.4641 96.2889 85.3185C96.3622 85.1728 96.3984 85.0099 96.3984 84.8298C96.3984 84.6579 96.3687 84.5041 96.3103 84.3685C96.2537 84.231 96.1665 84.1085 96.0468 84.0013C95.9299 83.8921 95.7806 83.794 95.5987 83.7069C95.4169 83.62 95.1998 83.541 94.9493 83.4702C94.7675 83.4196 94.6117 83.367 94.4799 83.3124C94.351 83.2578 94.2434 83.1981 94.1589 83.1334C94.0755 83.0686 94.0142 82.9988 93.9734 82.9239C93.9354 82.847 93.9159 82.762 93.9159 82.669C93.9159 82.5314 93.9484 82.409 94.0133 82.3017C94.0801 82.1945 94.1812 82.1096 94.3167 82.0468C94.4512 81.984 94.6237 81.9527 94.8315 81.9527C95.0514 81.9527 95.2332 81.9901 95.377 82.065C95.5208 82.1378 95.6275 82.239 95.698 82.3685C95.7694 82.4959 95.8047 82.6427 95.8047 82.8086H96.3864C96.3864 82.5779 96.326 82.3614 96.2045 82.1591C96.083 81.9548 95.9067 81.7898 95.6739 81.6644C95.4438 81.5369 95.1627 81.4731 94.8315 81.4731C94.6052 81.4731 94.4002 81.5035 94.2165 81.5643C94.0319 81.6249 93.8741 81.7099 93.7406 81.8192C93.6088 81.9264 93.5077 82.0529 93.4372 82.1985C93.3667 82.3442 93.3314 82.503 93.3314 82.675C93.3314 82.847 93.3648 82.9998 93.4307 83.1334C93.4975 83.2668 93.594 83.3852 93.7192 83.4884C93.8445 83.5916 93.9947 83.6837 94.171 83.7646C94.3463 83.8435 94.5439 83.9153 94.762 83.98C94.9698 84.0408 95.1414 84.1005 95.2768 84.1591C95.4141 84.2178 95.5217 84.2795 95.5987 84.3442C95.6767 84.409 95.7314 84.4819 95.762 84.5628ZM99.9478 85.4763V85.9528H97.7287H97.6109H97.1443V81.5339H97.6109H97.7287H99.9172V82.0134H97.7287V83.4338H99.6389V83.9102H97.7287V85.4763H99.9478ZM102.364 85.9528V82.0134H103.782V81.5339H102.364H101.787H100.372V82.0134H101.787V85.9528H102.364ZM106.116 82.0134V85.9528H105.54V82.0134H104.124V81.5339H105.54H106.116H107.535V82.0134H106.116ZM110.444 84.5628C110.476 84.6417 110.493 84.7327 110.493 84.8359C110.493 84.9795 110.455 85.1041 110.381 85.2092C110.307 85.3144 110.201 85.3954 110.059 85.452C109.918 85.5087 109.745 85.537 109.541 85.537C109.399 85.537 109.263 85.5208 109.132 85.4885C109.002 85.4541 108.886 85.4015 108.783 85.3307C108.682 85.2598 108.602 85.1708 108.544 85.0635C108.485 84.9543 108.456 84.8237 108.456 84.672H107.874C107.874 84.8926 107.921 85.0868 108.016 85.2548C108.113 85.4207 108.241 85.5603 108.401 85.6736C108.562 85.7869 108.741 85.8719 108.938 85.9285C109.136 85.9852 109.337 86.0135 109.541 86.0135C109.773 86.0135 109.984 85.9862 110.171 85.9315C110.361 85.8749 110.524 85.795 110.659 85.6918C110.794 85.5886 110.898 85.4641 110.972 85.3185C111.044 85.1728 111.08 85.0099 111.08 84.8298C111.08 84.6579 111.051 84.5041 110.993 84.3685C110.936 84.231 110.848 84.1085 110.729 84.0013C110.612 83.8921 110.462 83.794 110.28 83.7069C110.099 83.62 109.883 83.541 109.632 83.4702C109.45 83.4196 109.293 83.367 109.162 83.3124C109.033 83.2578 108.925 83.1981 108.841 83.1334C108.758 83.0686 108.696 82.9988 108.656 82.9239C108.617 82.847 108.599 82.762 108.599 82.669C108.599 82.5314 108.63 82.409 108.695 82.3017C108.762 82.1945 108.863 82.1096 108.998 82.0468C109.134 81.984 109.305 81.9527 109.513 81.9527C109.734 81.9527 109.916 81.9901 110.059 82.065C110.203 82.1378 110.309 82.239 110.381 82.3685C110.451 82.4959 110.486 82.6427 110.486 82.8086H111.068C111.068 82.5779 111.008 82.3614 110.886 82.1591C110.766 81.9548 110.588 81.7898 110.357 81.6644C110.126 81.5369 109.844 81.4731 109.513 81.4731C109.287 81.4731 109.082 81.5035 108.898 81.5643C108.715 81.6249 108.556 81.7099 108.422 81.8192C108.291 81.9264 108.19 82.0529 108.119 82.1985C108.048 82.3442 108.013 82.503 108.013 82.675C108.013 82.847 108.047 82.9998 108.113 83.1334C108.18 83.2668 108.276 83.3852 108.401 83.4884C108.526 83.5916 108.677 83.6837 108.853 83.7646C109.029 83.8435 109.226 83.9153 109.444 83.98C109.652 84.0408 109.824 84.1005 109.96 84.1591C110.097 84.2178 110.203 84.2795 110.28 84.3442C110.359 84.409 110.414 84.4819 110.444 84.5628Z" fill="white"/>
<mask id="mask2_13815_965" style="mask-type:alpha" maskUnits="userSpaceOnUse" x="4" y="1" width="125" height="117">
<path d="M128.77 1.09766H4.45874V69.4H128.77V1.09766Z" fill="#D9D9D9"/>
<path d="M128.77 90.6299H4.45874V117.397H128.77V90.6299Z" fill="#D9D9D9"/>
</mask>
<g mask="url(#mask2_13815_965)">
<path d="M33.8344 83.9089C34.0968 85.82 33.6874 87.303 33.404 88.5666C33.1101 89.8406 32.7743 91.0102 33.2991 92.2529C33.5195 92.8065 33.9079 93.5375 34.4222 94.2999C34.3068 94.1642 34.1913 94.0285 34.0863 93.8929C34.3382 94.2584 34.5901 94.5399 34.8211 94.874C33.9813 94.0073 33.2886 93.1616 32.6903 92.6916C31.6092 91.8353 30.5071 91.595 29.1321 91.2713C27.7465 90.9475 26.2666 90.415 24.5242 88.859C23.695 88.0548 24.8601 90.1539 26.6655 92.5663C28.4498 94.9894 31.0633 97.5369 32.2705 98.3307C33.341 99.0931 34.9365 99.5213 36.28 99.7825C37.655 100.033 38.8831 100.033 39.3765 100.033C43.239 103.876 47.8154 107.134 53.053 109.035L53.3889 108.022C48.2668 106.414 43.5854 103.396 39.5758 99.7299C39.5653 99.1457 39.4709 97.9965 39.3659 96.7126C39.2714 95.4066 39.0405 94.0802 38.6732 93.0154C38.2114 91.8457 36.6999 89.2036 35.6503 86.9479C34.5691 84.713 33.7504 82.9586 33.8344 83.9193V83.9089Z" fill="white"/>
<path d="M31.5567 91.1365L30.9374 90.134C30.5385 89.5283 30.0557 88.6615 29.5205 87.7321C28.9641 86.8131 28.4183 85.8001 27.904 84.8916C27.3582 83.9935 26.8859 83.1684 26.487 82.6358C25.6788 81.5706 24.5871 81.1634 23.4116 80.5367C22.2255 79.9206 20.8085 79.1583 19.57 77.2785C19.2551 76.8085 19.2761 77.1323 19.507 77.926C19.6225 78.3124 19.7799 78.8345 20.0108 79.4089C20.2522 79.9833 20.5356 80.6203 20.84 81.2887C21.4173 82.6463 22.2675 84.0352 22.9813 85.2675C23.7475 86.4684 24.4927 87.4501 24.9651 87.9723C26.0042 89.0584 27.6835 89.9042 29.0585 90.4369C30.4755 90.9486 31.5777 91.1679 31.5777 91.1679L31.5567 91.1365Z" fill="white"/>
<path d="M30.2137 74.2702C29.9723 76.1396 29.4055 77.4032 28.8282 78.552C28.2404 79.7112 27.7786 80.7032 27.9674 81.9878C28.0514 82.6352 28.3243 83.5229 28.7442 84.4732C29.1325 85.434 29.6259 86.4574 30.1612 87.3659C30.6755 88.2954 31.1793 89.1308 31.5992 89.7156C32.0085 90.3004 32.2605 90.6765 32.2605 90.6765C32.2605 90.6765 32.5018 89.5694 32.6802 88.1805C32.9007 86.7707 33.0896 85.0997 32.9007 83.8257C32.8272 83.22 32.5333 82.2279 32.2184 81.0896C31.9561 79.9305 31.5362 78.6668 31.2948 77.4971C31.1584 76.9123 31.0114 76.3693 30.8854 75.8889C30.7594 75.4086 30.686 74.9908 30.5915 74.6671C30.4131 74.0405 30.2767 73.8108 30.2242 74.2702H30.2137Z" fill="white"/>
<path d="M26.2667 81.1223C26.2667 81.1223 26.0883 80.7045 25.8679 80.0152C25.637 79.326 25.3116 78.3965 24.9653 77.3835C24.6714 76.3497 24.3145 75.2532 23.9786 74.2611C23.6952 73.2585 23.3908 72.3605 23.0864 71.7547C22.4986 70.5433 21.6169 69.8959 20.5463 69.0395C19.4547 68.1936 18.3841 67.1075 17.5024 64.998C17.093 63.9328 17.2505 66.3034 17.8593 69.2066C18.1951 70.6477 18.5835 72.2351 19.1083 73.5718C19.3497 74.2402 19.5911 74.8668 19.8115 75.3994C20.053 75.9215 20.2839 76.3497 20.4728 76.6525C20.8717 77.2896 21.428 77.9162 22.0263 78.4801C22.656 79.0336 23.3489 79.514 23.9681 79.9108C24.5979 80.3076 25.1646 80.621 25.574 80.8299C25.9939 81.0386 26.2667 81.1431 26.2667 81.1431V81.1223Z" fill="white"/>
<path d="M28.5549 64.424C27.9987 66.168 27.012 67.2854 26.2668 68.2775C25.5006 69.2697 24.7343 70.1469 24.6713 71.4418C24.6399 72.0893 24.7343 73.0083 24.8917 74.0317C25.0912 75.0447 25.3956 76.1413 25.6685 77.1542C25.9938 78.1567 26.3507 79.0758 26.6027 79.7441C26.8441 80.4125 27.054 80.8198 27.054 80.8198L27.3268 80.1409C27.5053 79.7127 27.7572 79.1175 27.9987 78.4596C28.2506 77.8017 28.4919 77.0706 28.6914 76.3501C28.9223 75.619 29.0902 74.8985 29.1218 74.2615C29.1427 73.9586 29.1218 73.5513 29.0902 73.0814C29.0902 72.601 29.0692 72.0476 29.0378 71.4627C28.9328 70.2931 28.9433 68.9668 28.8908 67.7867C28.8593 65.4161 28.8488 63.5782 28.5444 64.4344L28.5549 64.424Z" fill="white"/>
<path d="M23.2648 70.5737C23.2648 70.5737 23.2124 70.1247 23.1284 69.4041C23.0444 68.6835 22.8765 67.7019 22.8135 66.6366C22.5617 64.5062 22.5091 62.0416 22.1732 60.7362C21.9318 59.4308 21.1552 58.5954 20.3049 57.5197C19.4547 56.4441 18.6571 55.1596 18.2477 52.8934C18.0798 51.7655 17.7438 54.1153 17.6389 57.0811C17.6913 58.5745 17.6599 60.2036 17.8908 61.6343C18.1007 63.065 18.2791 64.2765 18.5416 64.9448C19.0979 66.3755 20.1475 67.8585 21.2706 68.8923C22.3412 69.9366 23.2544 70.5841 23.2544 70.5841L23.2648 70.5737Z" fill="white"/>
<path d="M29.1534 54.8142C28.2402 56.3912 27.0332 57.2579 26.0569 58.0516C25.0808 58.8453 24.1991 59.5346 23.7898 60.7877C23.4644 62.0305 23.3279 64.4741 23.5484 66.5732C23.5904 67.6279 23.7793 68.5887 23.8948 69.2988C24.0207 69.9986 24.0942 70.4372 24.0942 70.4372C24.0942 70.4372 24.7764 69.5181 25.5217 68.3277C26.225 67.1372 27.2116 65.696 27.5055 64.4845C27.6419 63.9102 27.8833 62.8973 28.0513 61.7485C28.1983 60.5997 28.555 59.3047 28.7231 58.1456C29.2688 55.8481 29.6257 54.0414 29.1428 54.8142H29.1534Z" fill="white"/>
<path d="M22.656 59.2745C22.656 59.2745 22.698 58.8151 22.7715 58.0945C22.803 57.3739 22.9814 56.3922 23.1178 55.327C23.1808 54.7945 23.2543 54.2409 23.3173 53.6979C23.4117 53.1548 23.5063 52.6118 23.5902 52.0897C23.7686 51.0557 23.8106 50.095 23.8736 49.4371C23.9365 48.1108 23.3698 47.1188 22.782 45.876C22.2257 44.6542 21.7113 43.213 21.8373 40.9259C21.9108 39.7876 21.0921 42.0016 20.2944 44.8421C20.0005 46.2937 19.6541 47.8915 19.4862 49.3118C19.3602 50.7425 19.3077 51.9852 19.3497 52.6849C19.5176 54.1991 20.3153 55.9014 21.071 57.1546C21.9003 58.4182 22.6455 59.2641 22.6455 59.2641L22.656 59.2745Z" fill="white"/>
<path d="M25.4374 49.8663C25.07 50.4198 24.8181 51.3074 24.5137 52.2891C24.3667 52.7799 24.2303 53.3126 24.1044 53.8347C24.0204 54.3777 23.9364 54.9104 23.8524 55.4325C23.695 56.4768 23.548 57.448 23.548 58.1582L23.5061 59.3174C23.5061 59.3174 24.3667 58.5759 25.3429 57.5942C26.403 56.6126 27.5786 55.4221 28.1874 54.315C28.5023 53.7929 28.9221 52.853 29.3525 51.7774C29.8143 50.7018 30.4021 49.5113 30.8429 48.4147C31.9345 46.2843 32.6588 44.582 32.0291 45.24C30.7694 46.5872 29.4154 47.172 28.2608 47.715C27.1378 48.2685 26.1196 48.7489 25.4479 49.8663H25.4374Z" fill="white"/>
<path d="M24.6817 48.1C24.6817 48.1 24.818 47.6927 25.028 47.0453C25.2065 46.3874 25.5948 45.5415 25.9412 44.5911C26.592 42.6801 27.5891 40.5914 27.82 39.3382C28.0824 38.1059 27.82 37.1243 27.4946 35.892C27.2008 34.6701 26.8964 33.1977 27.4631 31.2135C27.5996 30.7122 27.3791 30.9211 26.9698 31.5477C26.7599 31.861 26.5079 32.2787 26.2141 32.7695C25.9517 33.2812 25.6788 33.866 25.3954 34.4926C24.1778 36.9363 23.2227 40.1319 23.0232 41.4059C22.8973 42.8263 23.2541 44.5285 23.674 45.8339C24.1568 47.1601 24.6711 48.0896 24.6711 48.0896L24.6817 48.1Z" fill="white"/>
<path d="M36.2071 36.937C34.6957 37.9396 33.4256 38.3051 32.2606 38.6079C31.1059 38.9107 30.0248 39.1405 29.2271 40.0595C28.4714 40.9994 27.3063 42.994 26.645 44.8633C26.2881 45.7928 25.9312 46.6387 25.7843 47.2966C25.6059 47.9441 25.501 48.3513 25.501 48.3513C25.501 48.3513 26.4351 47.85 27.5477 47.1608C28.7232 46.4821 30.0773 45.6361 30.854 44.7171C31.6622 43.8817 33.1212 41.5424 34.5277 39.7253C34.8531 39.2554 35.1575 38.8168 35.4304 38.4303C35.7243 38.0544 35.9762 37.7203 36.1547 37.4591C36.5115 36.937 36.5955 36.6968 36.2281 36.9474L36.2071 36.937Z" fill="white"/>
<path d="M29.6051 37.7101C29.8045 37.7101 30.7492 37.637 31.9457 37.1043C33.1529 36.5717 34.7273 35.6841 36.1653 33.8147C36.8475 33.0628 38.0756 31.1413 39.2931 29.2928C40.5527 27.4967 41.7073 25.7108 41.9067 25.0947C41.2874 25.1991 39.3561 26.1077 37.3409 27.1938C35.3676 28.3216 33.3838 29.7106 32.5546 30.4103C30.7597 32.1856 29.92 33.8878 29.6471 35.235C29.3847 36.5926 29.5631 37.5012 29.6051 37.6996V37.7101Z" fill="white"/>
<path d="M108.82 88.8498C107.077 90.4059 105.598 90.9385 104.212 91.2622C102.837 91.5964 101.735 91.8261 100.654 92.6825C100.182 93.0584 99.6251 93.6745 99.0054 94.3538C99.1214 94.2172 99.2262 94.0713 99.3208 93.9255C99.0583 94.2799 98.7957 94.5624 98.523 94.855C99.2577 93.9043 99.7615 92.9227 100.045 92.2439C100.559 91.0012 100.234 89.8315 99.9396 88.5574C99.6566 87.2938 99.2475 85.8109 99.5101 83.8998C99.6038 82.939 98.7753 84.6934 97.6936 86.9283C96.6444 89.184 95.122 91.8261 94.6712 92.9958C94.2927 94.0926 94.0617 95.4808 93.968 96.8182C93.852 98.1335 93.7787 99.2928 93.7685 99.8152C89.7691 103.46 85.0983 106.467 79.9761 108.076L80.312 109.089C82.957 108.149 85.4131 106.823 87.7119 105.277C90.021 103.752 92.12 101.946 94.0728 100.014C94.6396 100.004 95.867 99.9924 97.1899 99.7312C98.5017 99.4599 100.034 99.0427 101.073 98.3006C102.28 97.5068 104.894 94.9593 106.678 92.5363C108.495 90.1344 109.659 88.0353 108.82 88.829V88.8498Z" fill="white"/>
<path d="M101.084 90.6677C101.084 90.6677 101.336 90.3022 101.745 89.7068C102.165 89.122 102.669 88.2866 103.184 87.3571C103.729 86.4486 104.212 85.4148 104.6 84.4644C105.02 83.5245 105.293 82.6369 105.377 81.979C105.566 80.6944 105.114 79.7024 104.516 78.5432C103.939 77.3944 103.362 76.1204 103.131 74.2614C103.078 73.802 102.942 74.0317 102.763 74.6583C102.669 74.9716 102.595 75.3998 102.469 75.8801C102.333 76.3605 102.197 76.9035 102.06 77.4884C101.819 78.6685 101.399 79.9217 101.136 81.0809C100.822 82.2191 100.528 83.2113 100.454 83.8169C100.265 85.091 100.454 86.7619 100.674 88.1718C100.863 89.5502 101.094 90.6677 101.094 90.6677H101.084Z" fill="white"/>
<path d="M113.774 77.2679C112.536 79.1477 111.118 79.91 109.933 80.5262C108.756 81.1423 107.665 81.5601 106.857 82.6252C106.459 83.1578 105.985 83.9829 105.44 84.8809C104.926 85.7896 104.38 86.813 103.824 87.7215C103.289 88.651 102.805 89.5177 102.406 90.1234C102.029 90.7395 101.788 91.1259 101.788 91.1259C101.788 91.1259 102.89 90.9067 104.306 90.395C105.681 89.8727 107.361 89.0165 108.4 87.9304C108.872 87.4082 109.617 86.4369 110.384 85.2256C111.097 84.0037 111.948 82.6044 112.525 81.2467C112.829 80.5784 113.113 79.9414 113.354 79.367C113.585 78.7926 113.732 78.2809 113.858 77.884C114.089 77.1008 114.11 76.7771 113.795 77.2366L113.774 77.2679Z" fill="white"/>
<path d="M106.291 80.8085C106.291 80.8085 106.5 80.4117 106.742 79.7329C106.994 79.0645 107.35 78.1559 107.676 77.1429C107.96 76.1195 108.253 75.023 108.452 74.0205C108.61 72.9971 108.694 72.078 108.673 71.4305C108.61 70.1356 107.844 69.2479 107.077 68.2663C106.333 67.2846 105.345 66.1672 104.79 64.4128C104.485 63.546 104.474 65.3945 104.443 67.765C104.391 68.9451 104.401 70.2713 104.296 71.441C104.265 72.0258 104.243 72.5793 104.243 73.0596C104.212 73.5401 104.202 73.9369 104.212 74.2398C104.243 74.8768 104.411 75.5974 104.642 76.3284C104.832 77.049 105.083 77.78 105.335 78.4379C105.587 79.0958 105.829 79.6911 106.007 80.1192C106.175 80.537 106.28 80.798 106.28 80.798L106.291 80.8085Z" fill="white"/>
<path d="M115.842 64.9769C114.96 67.0864 113.889 68.1725 112.798 69.0184C111.717 69.8747 110.846 70.5222 110.258 71.7336C109.964 72.3393 109.659 73.2374 109.366 74.24C109.03 75.232 108.673 76.3286 108.379 77.3624C108.033 78.3754 107.707 79.3153 107.476 79.9941C107.256 80.6834 107.077 81.1011 107.077 81.1011C107.077 81.1011 107.34 80.9967 107.77 80.7878C108.179 80.5789 108.746 80.2656 109.376 79.8688C109.995 79.4719 110.688 78.9812 111.318 78.4381C111.916 77.8741 112.473 77.2476 112.872 76.6105C113.06 76.3077 113.291 75.8795 113.532 75.3574C113.753 74.8248 113.994 74.2086 114.236 73.5298C114.761 72.1931 115.149 70.6057 115.485 69.1646C116.094 66.2614 116.251 63.8908 115.842 64.956V64.9769Z" fill="white"/>
<path d="M109.25 70.4372L109.449 69.2988C109.565 68.5992 109.753 67.6384 109.796 66.5732C110.016 64.4741 109.88 62.0305 109.554 60.7877C109.145 59.545 108.264 58.8453 107.287 58.0516C106.311 57.2579 105.104 56.3912 104.191 54.8142C103.708 54.0414 104.065 55.8481 104.61 58.1456C104.778 59.3047 105.135 60.5893 105.282 61.7485C105.45 62.8973 105.702 63.9102 105.828 64.4845C106.122 65.7064 107.119 67.1476 107.812 68.3277C108.557 69.5077 109.24 70.4372 109.24 70.4372H109.25Z" fill="white"/>
<path d="M115.086 52.8833C114.687 55.1495 113.89 56.4445 113.029 57.5097C112.179 58.5853 111.402 59.4208 111.16 60.7261C110.824 62.0419 110.773 64.4961 110.52 66.6265C110.457 67.7022 110.3 68.6734 110.206 69.394L110.069 70.5636C110.069 70.5636 110.982 69.9161 112.053 68.8718C113.176 67.838 114.225 66.3551 114.782 64.9243C115.045 64.256 115.223 63.0445 115.432 61.6139C115.663 60.1831 115.632 58.554 115.685 57.0606C115.59 54.0948 115.244 51.7451 115.076 52.8729L115.086 52.8833Z" fill="white"/>
<path d="M109.848 59.3261L109.807 58.167C109.807 57.4568 109.659 56.4856 109.502 55.4412C109.418 54.9191 109.334 54.3761 109.25 53.8434C109.124 53.3108 108.977 52.7887 108.841 52.2978C108.537 51.3162 108.295 50.4181 107.917 49.875C107.235 48.7577 106.228 48.2772 105.104 47.7238C103.949 47.1807 102.596 46.5959 101.336 45.2488C100.706 44.5908 101.43 46.293 102.522 48.4234C102.963 49.52 103.551 50.7105 104.012 51.7861C104.443 52.8722 104.863 53.8121 105.177 54.3238C105.786 55.4308 106.962 56.6213 108.022 57.603C108.999 58.5846 109.859 59.3261 109.859 59.3261H109.848Z" fill="white"/>
<path d="M109.471 49.4482C109.534 50.1061 109.575 51.0669 109.754 52.1008C109.848 52.623 109.933 53.1555 110.026 53.7091C110.101 54.2625 110.164 54.816 110.226 55.3382C110.362 56.4033 110.541 57.3746 110.573 58.1056C110.636 58.8262 110.688 59.2857 110.688 59.2857C110.688 59.2857 111.444 58.4502 112.262 57.1762C113.008 55.923 113.816 54.2207 113.984 52.7065C114.036 52.0068 113.984 50.7745 113.848 49.3334C113.69 47.9131 113.344 46.3153 113.039 44.8637C112.242 42.0232 111.434 39.8196 111.507 40.9475C111.622 43.2241 111.118 44.6653 110.562 45.8976C109.974 47.1299 109.408 48.1219 109.471 49.4586V49.4482Z" fill="white"/>
<path d="M107.854 48.3403C107.854 48.3403 107.738 47.933 107.571 47.2856C107.423 46.6276 107.056 45.7817 106.71 44.8523C106.048 42.9725 104.894 40.9884 104.128 40.0485C103.33 39.1294 102.249 38.8997 101.094 38.5969C99.9291 38.294 98.6591 37.9389 97.1479 36.9259C96.7805 36.6753 96.864 36.9155 97.2212 37.4377C97.3993 37.6988 97.6414 38.0329 97.9457 38.4088C98.2184 38.7953 98.5227 39.2443 98.8483 39.7038C100.255 41.5209 101.714 43.8602 102.522 44.6956C103.288 45.6146 104.642 46.4606 105.828 47.1394C106.941 47.8286 107.875 48.3298 107.875 48.3298L107.854 48.3403Z" fill="white"/>
<path d="M105.86 31.2255C106.437 33.2097 106.133 34.6717 105.829 35.904C105.513 37.1363 105.24 38.118 105.503 39.3503C105.734 40.6034 106.731 42.6816 107.381 44.6032C107.728 45.5535 108.116 46.3993 108.295 47.0573L108.641 48.1121C108.641 48.1121 109.155 47.1826 109.639 45.8563C110.058 44.5614 110.415 42.8487 110.289 41.4284C110.089 40.1544 109.145 36.9588 107.917 34.5151C107.634 33.8989 107.35 33.3037 107.099 32.7919C106.815 32.3011 106.552 31.8834 106.353 31.5701C105.933 30.9435 105.724 30.7347 105.86 31.2359V31.2255Z" fill="white"/>
<path d="M103.899 37.9813C103.961 37.7883 104.244 36.9042 104.114 35.5257C103.984 34.1576 103.327 32.3778 101.727 30.4265C100.975 29.6449 99.1485 28.048 97.3024 26.7326C95.4117 25.444 93.5851 24.3407 92.9802 24.1729C93.1147 24.8063 94.0758 26.7018 95.1418 28.6185C96.1604 30.5724 97.1808 32.6105 97.7801 33.4393C99.0047 35.4461 100.478 36.4916 101.633 37.1473C102.767 37.8007 103.701 37.9607 103.898 37.9917L103.899 37.9813Z" fill="white"/>
<path d="M50.3807 98.6368H50.9038V102.085C50.9038 102.396 50.8436 102.661 50.7232 102.88C50.6028 103.1 50.4346 103.266 50.2188 103.378C50.005 103.494 49.758 103.551 49.4777 103.551C49.3615 103.551 49.2246 103.532 49.0668 103.492C48.9111 103.456 48.7575 103.391 48.606 103.3C48.4565 103.211 48.3309 103.09 48.2292 102.939L48.5312 102.581C48.6724 102.758 48.8197 102.883 48.9733 102.952C49.129 103.021 49.2826 103.056 49.4341 103.056C49.6168 103.056 49.7746 103.02 49.9074 102.948C50.0403 102.877 50.1431 102.77 50.2157 102.63C50.2904 102.49 50.3278 102.319 50.3278 102.115V99.4121L50.3807 98.6368ZM48.061 100.438V100.369C48.061 100.1 48.0912 99.8561 48.1514 99.6364C48.2136 99.4149 48.3019 99.2248 48.416 99.0669C48.5322 98.9082 48.6724 98.7863 48.8363 98.7014C49.0003 98.6147 49.185 98.5713 49.3906 98.5713C49.6023 98.5713 49.787 98.611 49.9448 98.6885C50.1047 98.7651 50.2395 98.8768 50.3496 99.0245C50.4616 99.1694 50.5499 99.3457 50.6142 99.5515C50.6785 99.7583 50.7232 99.9918 50.7481 100.252V100.552C50.7253 100.81 50.6807 101.042 50.6142 101.249C50.5499 101.455 50.4616 101.631 50.3496 101.776C50.2395 101.922 50.1047 102.033 49.9448 102.112C49.785 102.188 49.5981 102.225 49.3843 102.225C49.183 102.225 49.0003 102.181 48.8363 102.092C48.6744 102.003 48.5354 101.878 48.4191 101.718C48.3029 101.557 48.2136 101.368 48.1514 101.151C48.0912 100.931 48.061 100.694 48.061 100.438ZM48.637 100.369V100.438C48.637 100.614 48.6536 100.778 48.6869 100.932C48.7222 101.086 48.7751 101.222 48.8457 101.339C48.9183 101.457 49.0107 101.549 49.1228 101.616C49.2349 101.682 49.3688 101.714 49.5245 101.714C49.7154 101.714 49.8732 101.672 49.9977 101.587C50.1223 101.503 50.2209 101.391 50.2935 101.252C50.3682 101.113 50.4264 100.962 50.4679 100.799V100.014C50.445 99.8949 50.4098 99.7795 50.362 99.6687C50.3164 99.5561 50.2562 99.4564 50.1814 99.3697C50.1087 99.2802 50.0185 99.21 49.9106 99.1574C49.8026 99.1057 49.676 99.0799 49.5307 99.0799C49.3729 99.0799 49.237 99.114 49.1228 99.1842C49.0107 99.2515 48.9183 99.3448 48.8457 99.4638C48.7751 99.5811 48.7222 99.7177 48.6869 99.8746C48.6536 100.029 48.637 100.193 48.637 100.369Z" fill="white"/>
<path d="M51.6257 100.438V100.363C51.6257 100.109 51.661 99.8727 51.7316 99.6558C51.8021 99.4371 51.9039 99.2469 52.0367 99.0863C52.1695 98.923 52.3304 98.7974 52.5193 98.7088C52.7082 98.6174 52.9199 98.5713 53.1545 98.5713C53.3911 98.5713 53.6039 98.6174 53.7927 98.7088C53.9838 98.7974 54.1456 98.923 54.2785 99.0863C54.4134 99.2469 54.5162 99.4371 54.5868 99.6558C54.6573 99.8727 54.6926 100.109 54.6926 100.363V100.438C54.6926 100.691 54.6573 100.927 54.5868 101.145C54.5162 101.362 54.4134 101.552 54.2785 101.714C54.1456 101.875 53.9848 102.001 53.7959 102.092C53.6091 102.181 53.3974 102.225 53.1607 102.225C52.924 102.225 52.7113 102.181 52.5224 102.092C52.3335 102.001 52.1716 101.875 52.0367 101.714C51.9039 101.552 51.8021 101.362 51.7316 101.145C51.661 100.927 51.6257 100.691 51.6257 100.438ZM52.2017 100.363V100.438C52.2017 100.614 52.2214 100.779 52.2608 100.936C52.3003 101.09 52.3594 101.227 52.4383 101.346C52.5193 101.466 52.6199 101.56 52.7404 101.629C52.8608 101.697 53.0009 101.731 53.1607 101.731C53.3184 101.731 53.4565 101.697 53.5748 101.629C53.6952 101.56 53.7949 101.466 53.8737 101.346C53.9526 101.227 54.0118 101.09 54.0512 100.936C54.0927 100.779 54.1135 100.614 54.1135 100.438V100.363C54.1135 100.189 54.0927 100.025 54.0512 99.8709C54.0118 99.7149 53.9516 99.5764 53.8706 99.4574C53.7917 99.3355 53.6921 99.2405 53.5717 99.1712C53.4534 99.1011 53.3143 99.0669 53.1545 99.0669C52.9967 99.0669 52.8576 99.1011 52.7372 99.1712C52.6189 99.2405 52.5193 99.3355 52.4383 99.4574C52.3594 99.5764 52.3003 99.7149 52.2608 99.8709C52.2214 100.025 52.2017 100.189 52.2017 100.363Z" fill="white"/>
<path d="M55.2627 100.438V100.363C55.2627 100.109 55.2979 99.8727 55.3685 99.6558C55.4391 99.4371 55.5408 99.2469 55.6737 99.0863C55.8065 98.923 55.9674 98.7974 56.1563 98.7088C56.3451 98.6174 56.5569 98.5713 56.7914 98.5713C57.0281 98.5713 57.2408 98.6174 57.4297 98.7088C57.6207 98.7974 57.7826 98.923 57.9154 99.0863C58.0504 99.2469 58.1531 99.4371 58.2237 99.6558C58.2943 99.8727 58.3296 100.109 58.3296 100.363V100.438C58.3296 100.691 58.2943 100.927 58.2237 101.145C58.1531 101.362 58.0504 101.552 57.9154 101.714C57.7826 101.875 57.6217 102.001 57.4329 102.092C57.246 102.181 57.0343 102.225 56.7977 102.225C56.561 102.225 56.3483 102.181 56.1594 102.092C55.9705 102.001 55.8086 101.875 55.6737 101.714C55.5408 101.552 55.4391 101.362 55.3685 101.145C55.2979 100.927 55.2627 100.691 55.2627 100.438ZM55.8387 100.363V100.438C55.8387 100.614 55.8584 100.779 55.8979 100.936C55.9373 101.09 55.9964 101.227 56.0754 101.346C56.1563 101.466 56.2569 101.56 56.3773 101.629C56.4977 101.697 56.6378 101.731 56.7977 101.731C56.9555 101.731 57.0935 101.697 57.2118 101.629C57.3322 101.56 57.4318 101.466 57.5107 101.346C57.5895 101.227 57.6487 101.09 57.6882 100.936C57.7297 100.779 57.7504 100.614 57.7504 100.438V100.363C57.7504 100.189 57.7297 100.025 57.6882 99.8709C57.6487 99.7149 57.5885 99.5764 57.5075 99.4574C57.4287 99.3355 57.329 99.2405 57.2086 99.1712C57.0904 99.1011 56.9513 99.0669 56.7914 99.0669C56.6337 99.0669 56.4946 99.1011 56.3743 99.1712C56.2559 99.2405 56.1563 99.3355 56.0754 99.4574C55.9964 99.5764 55.9373 99.7149 55.8979 99.8709C55.8584 100.025 55.8387 100.189 55.8387 100.363Z" fill="white"/>
<path d="M61.1753 101.476V97.1572H61.7545V102.159H61.2251L61.1753 101.476ZM58.9087 100.437V100.368C58.9087 100.099 58.9398 99.8552 59.0021 99.6355C59.0664 99.414 59.1567 99.2238 59.2729 99.066C59.3913 98.9072 59.5314 98.7854 59.6932 98.7005C59.8573 98.6137 60.0399 98.5704 60.2412 98.5704C60.453 98.5704 60.6377 98.61 60.7955 98.6876C60.9554 98.7642 61.0903 98.8759 61.2003 99.0235C61.3124 99.1685 61.4006 99.3448 61.465 99.5506C61.5293 99.7573 61.5739 99.9909 61.5988 100.251V100.551C61.576 100.809 61.5314 101.041 61.465 101.248C61.4006 101.454 61.3124 101.63 61.2003 101.775C61.0903 101.921 60.9554 102.033 60.7955 102.111C60.6357 102.187 60.4489 102.225 60.235 102.225C60.0379 102.225 59.8573 102.18 59.6932 102.091C59.5314 102.002 59.3913 101.877 59.2729 101.717C59.1567 101.556 59.0664 101.367 59.0021 101.15C58.9398 100.93 58.9087 100.693 58.9087 100.437ZM59.4878 100.368V100.437C59.4878 100.613 59.5044 100.777 59.5376 100.931C59.5729 101.086 59.6268 101.221 59.6996 101.338C59.7722 101.456 59.8645 101.548 59.9767 101.615C60.0887 101.681 60.2226 101.713 60.3783 101.713C60.5693 101.713 60.726 101.671 60.8484 101.586C60.973 101.502 61.0726 101.39 61.1473 101.251C61.2221 101.112 61.2802 100.961 61.3217 100.798V100.013C61.2968 99.8939 61.2605 99.7786 61.2127 99.6678C61.1671 99.5552 61.1069 99.4555 61.0321 99.3687C60.9595 99.2792 60.8692 99.2091 60.7612 99.1565C60.6554 99.1048 60.5298 99.0789 60.3845 99.0789C60.2268 99.0789 60.0908 99.1131 59.9767 99.1832C59.8645 99.2506 59.7722 99.3438 59.6996 99.4629C59.6268 99.5801 59.5729 99.7167 59.5376 99.8736C59.5044 100.028 59.4878 100.192 59.4878 100.368Z" fill="white"/>
<path d="M63.4204 102.16H62.8444V98.3304C62.8444 98.0636 62.8942 97.8375 62.9939 97.6529C63.0935 97.4683 63.2357 97.3289 63.4204 97.2329C63.6051 97.1378 63.8242 97.0898 64.0774 97.0898C64.2269 97.0898 64.3732 97.1092 64.5164 97.1489C64.6596 97.1849 64.8071 97.232 64.9585 97.2883L64.862 97.7969C64.7665 97.7572 64.6555 97.7203 64.5288 97.6861C64.4043 97.6492 64.2673 97.6307 64.1179 97.6307C63.8708 97.6307 63.6923 97.6889 63.5823 97.8061C63.4744 97.9215 63.4204 98.0959 63.4204 98.3304V102.16ZM64.1085 98.6368V99.0992H62.312V98.6368H64.1085ZM65.2419 98.6368V102.16H64.6659V98.6368H65.2419Z" fill="white"/>
<path d="M66.7642 99.1906V102.16H66.1882V98.6368H66.7487L66.7642 99.1906ZM67.8166 98.6174L67.8136 99.1777C67.7658 99.1666 67.7201 99.1602 67.6765 99.1574C67.6351 99.1537 67.5873 99.1509 67.5333 99.1509C67.4005 99.1509 67.2832 99.1731 67.1815 99.2165C67.0797 99.2598 66.9937 99.3208 66.9231 99.3992C66.8525 99.4768 66.7964 99.57 66.755 99.6789C66.7154 99.785 66.6896 99.9023 66.6771 100.031L66.5151 100.128C66.5151 99.9152 66.5349 99.7158 66.5743 99.5294C66.6158 99.342 66.6792 99.1777 66.7642 99.0337C66.8494 98.8888 66.9573 98.7753 67.0881 98.695C67.2209 98.6128 67.3787 98.5713 67.5613 98.5713C67.6029 98.5713 67.6506 98.5768 67.7046 98.5879C67.7585 98.5962 67.7959 98.6064 67.8166 98.6174Z" fill="white"/>
<path d="M68.9223 99.3365V102.16H68.3433V98.6368H68.8913L68.9223 99.3365ZM68.8041 100.265L68.5362 100.255C68.5384 100.014 68.5684 99.7915 68.6266 99.5875C68.6847 99.3817 68.7708 99.2026 68.8849 99.0503C68.9991 98.898 69.1414 98.7808 69.3116 98.6987C69.4817 98.6137 69.679 98.5713 69.9031 98.5713C70.0609 98.5713 70.2062 98.5953 70.339 98.6433C70.4719 98.6885 70.5871 98.7614 70.6847 98.8611C70.7822 98.9617 70.858 99.0891 70.912 99.246C70.966 99.402 70.9929 99.5912 70.9929 99.8127V102.16H70.4169V99.8413C70.4169 99.6567 70.3868 99.5091 70.3266 99.3992C70.2684 99.2885 70.1854 99.2082 70.0775 99.1574C69.9695 99.1057 69.843 99.0799 69.6976 99.0799C69.5275 99.0799 69.3853 99.1112 69.2711 99.174C69.1569 99.2368 69.0656 99.3235 68.9971 99.4343C68.9285 99.5451 68.8787 99.6724 68.8477 99.8155C68.8185 99.9567 68.8041 100.106 68.8041 100.265ZM70.9866 99.9327L70.6005 100.056C70.6027 99.8635 70.6327 99.678 70.6909 99.4998C70.7511 99.3217 70.8372 99.1629 70.9494 99.0245C71.0635 98.8851 71.2035 98.7753 71.3696 98.695C71.5357 98.6128 71.7257 98.5713 71.9394 98.5713C72.12 98.5713 72.2799 98.5962 72.4189 98.646C72.5601 98.6968 72.6784 98.7734 72.7739 98.8777C72.8715 98.9802 72.9451 99.1112 72.9949 99.2718C73.0447 99.4324 73.0697 99.6235 73.0697 99.845V102.16H72.4905V99.8386C72.4905 99.641 72.4605 99.4878 72.4003 99.3789C72.3421 99.2682 72.2591 99.1915 72.1512 99.1482C72.0453 99.102 71.9187 99.0799 71.7713 99.0799C71.6447 99.0799 71.5326 99.102 71.435 99.1482C71.3375 99.1934 71.2555 99.2562 71.1891 99.3365C71.1226 99.4149 71.0718 99.5054 71.0365 99.6069C71.0033 99.7093 70.9866 99.8173 70.9866 99.9327Z" fill="white"/>
<path d="M75.9029 101.226C75.9029 101.139 75.8842 101.059 75.8469 100.985C75.8116 100.908 75.7379 100.84 75.6258 100.779C75.5158 100.716 75.3498 100.662 75.1277 100.617C74.9408 100.575 74.7716 100.526 74.6201 100.47C74.4707 100.414 74.343 100.345 74.2372 100.265C74.1334 100.185 74.0535 100.091 73.9974 99.9816C73.9413 99.8727 73.9133 99.7463 73.9133 99.6004C73.9133 99.462 73.9424 99.33 74.0005 99.2063C74.0607 99.0826 74.1448 98.9728 74.2528 98.8777C74.3627 98.7827 74.4945 98.707 74.6481 98.6534C74.8018 98.599 74.973 98.5713 75.1619 98.5713C75.4318 98.5713 75.6621 98.6211 75.8531 98.7217C76.044 98.8214 76.1904 98.9543 76.2921 99.1223C76.3938 99.2866 76.4447 99.4703 76.4447 99.6724H75.8687C75.8687 99.5746 75.8406 99.4804 75.7846 99.3891C75.7307 99.2958 75.6507 99.2183 75.5449 99.1574C75.441 99.0974 75.3134 99.0669 75.1619 99.0669C75.0021 99.0669 74.8723 99.0928 74.7726 99.1445C74.6751 99.1943 74.6035 99.2589 74.5579 99.3365C74.5143 99.4149 74.4925 99.498 74.4925 99.5847C74.4925 99.6494 74.5029 99.7084 74.5236 99.7601C74.5465 99.81 74.5859 99.857 74.6419 99.9004C74.698 99.9419 74.7768 99.9807 74.8786 100.018C74.9803 100.055 75.11 100.091 75.2678 100.128C75.5438 100.193 75.7711 100.271 75.9496 100.363C76.1281 100.454 76.261 100.566 76.3482 100.698C76.4354 100.831 76.479 100.991 76.479 101.18C76.479 101.334 76.4478 101.475 76.3855 101.603C76.3253 101.732 76.2371 101.842 76.1209 101.936C76.0067 102.027 75.8697 102.098 75.7099 102.151C75.5521 102.201 75.3746 102.225 75.1775 102.225C74.8806 102.225 74.6295 102.17 74.4239 102.059C74.2184 101.949 74.0628 101.805 73.9569 101.629C73.8511 101.454 73.7981 101.268 73.7981 101.073H74.3773C74.3856 101.238 74.4312 101.369 74.5143 101.467C74.5973 101.562 74.699 101.631 74.8194 101.672C74.9398 101.711 75.0591 101.731 75.1775 101.731C75.3352 101.731 75.467 101.709 75.5729 101.665C75.6809 101.622 75.7628 101.562 75.8189 101.486C75.8749 101.41 75.9029 101.324 75.9029 101.226Z" fill="white"/>
<path d="M77.2449 101.841C77.2449 101.739 77.275 101.653 77.3353 101.584C77.3976 101.512 77.4869 101.477 77.6033 101.477C77.7196 101.477 77.8079 101.512 77.8682 101.584C77.9305 101.653 77.9617 101.739 77.9617 101.841C77.9617 101.941 77.9305 102.026 77.8682 102.095C77.8079 102.165 77.7196 102.2 77.6033 102.2C77.4869 102.2 77.3976 102.165 77.3353 102.095C77.275 102.026 77.2449 101.941 77.2449 101.841Z" fill="white"/>
<path d="M80.2648 101.731C80.4018 101.731 80.5284 101.701 80.6447 101.642C80.7609 101.584 80.8564 101.504 80.931 101.401C81.0058 101.297 81.0484 101.179 81.0588 101.047H81.6068C81.5964 101.255 81.5289 101.449 81.4044 101.629C81.2819 101.807 81.121 101.952 80.9218 102.063C80.7225 102.171 80.5035 102.225 80.2648 102.225C80.0115 102.225 79.7904 102.178 79.6016 102.085C79.4147 101.992 79.2591 101.864 79.1346 101.701C79.0121 101.539 78.9197 101.351 78.8574 101.141C78.7972 100.929 78.7671 100.703 78.7671 100.467V100.331C78.7671 100.093 78.7972 99.87 78.8574 99.6595C78.9197 99.4463 79.0121 99.2589 79.1346 99.0955C79.2591 98.9331 79.4147 98.8048 79.6016 98.7116C79.7904 98.6184 80.0115 98.5713 80.2648 98.5713C80.5284 98.5713 80.7588 98.6276 80.956 98.7411C81.1532 98.8519 81.3079 99.0032 81.4199 99.1971C81.534 99.3881 81.5964 99.6051 81.6068 99.8478H81.0588C81.0484 99.7029 81.009 99.5718 80.9404 99.4537C80.874 99.3365 80.7827 99.2432 80.6665 99.174C80.5523 99.102 80.4184 99.0669 80.2648 99.0669C80.0883 99.0669 79.9399 99.1039 79.8196 99.1777C79.7012 99.2488 79.6068 99.3466 79.5362 99.4703C79.4677 99.5921 79.4179 99.7278 79.3867 99.8773C79.3577 100.025 79.3431 100.176 79.3431 100.331V100.467C79.3431 100.621 79.3577 100.773 79.3867 100.923C79.4158 101.073 79.4645 101.208 79.5331 101.33C79.6037 101.451 79.6981 101.549 79.8164 101.623C79.9368 101.695 80.0863 101.731 80.2648 101.731Z" fill="white"/>
<path d="M82.1023 100.438V100.363C82.1023 100.109 82.1376 99.8727 82.2082 99.6558C82.2787 99.4371 82.3804 99.2469 82.5133 99.0863C82.6461 98.923 82.807 98.7974 82.9959 98.7088C83.1848 98.6174 83.3965 98.5713 83.6311 98.5713C83.8677 98.5713 84.0805 98.6174 84.2694 98.7088C84.4603 98.7974 84.6222 98.923 84.7551 99.0863C84.89 99.2469 84.9927 99.4371 85.0633 99.6558C85.1339 99.8727 85.1692 100.109 85.1692 100.363V100.438C85.1692 100.691 85.1339 100.927 85.0633 101.145C84.9927 101.362 84.89 101.552 84.7551 101.714C84.6222 101.875 84.4613 102.001 84.2725 102.092C84.0856 102.181 83.8739 102.225 83.6373 102.225C83.4007 102.225 83.1879 102.181 82.999 102.092C82.8101 102.001 82.6482 101.875 82.5133 101.714C82.3804 101.552 82.2787 101.362 82.2082 101.145C82.1376 100.927 82.1023 100.691 82.1023 100.438ZM82.6783 100.363V100.438C82.6783 100.614 82.6981 100.779 82.7375 100.936C82.7769 101.09 82.8361 101.227 82.915 101.346C82.9959 101.466 83.0966 101.56 83.2169 101.629C83.3373 101.697 83.4775 101.731 83.6373 101.731C83.7951 101.731 83.9331 101.697 84.0514 101.629C84.1718 101.56 84.2714 101.466 84.3503 101.346C84.4292 101.227 84.4883 101.09 84.5278 100.936C84.5693 100.779 84.5901 100.614 84.5901 100.438V100.363C84.5901 100.189 84.5693 100.025 84.5278 99.8709C84.4883 99.7149 84.4281 99.5764 84.3472 99.4574C84.2683 99.3355 84.1687 99.2405 84.0483 99.1712C83.93 99.1011 83.7909 99.0669 83.6311 99.0669C83.4733 99.0669 83.3343 99.1011 83.2139 99.1712C83.0956 99.2405 82.9959 99.3355 82.915 99.4574C82.8361 99.5764 82.7769 99.7149 82.7375 99.8709C82.6981 100.025 82.6783 100.189 82.6783 100.363Z" fill="white"/>
</g>
</g>
</g>
<defs>
<clipPath id="clip0_13815_965">
<rect width="134" height="122" fill="white"/>
</clipPath>
</defs>
</svg>
