<svg width="107" height="122" viewBox="0 0 107 122" fill="none" xmlns="http://www.w3.org/2000/svg">
<g clip-path="url(#clip0_13815_1066)">
<g clip-path="url(#clip1_13815_1066)">
<mask id="mask0_13815_1066" style="mask-type:luminance" maskUnits="userSpaceOnUse" x="0" y="-2" width="108" height="125">
<path d="M107.58 -1.90723H0.999756V122.917H107.58V-1.90723Z" fill="white"/>
</mask>
<g mask="url(#mask0_13815_1066)">
<path d="M10.6913 86.8215L10.8916 86.9414C11.026 87.0218 11.1382 87.0551 11.2282 87.0412C11.3181 87.0274 11.3924 86.9712 11.4507 86.8728C11.5101 86.7728 11.5201 86.6815 11.4807 86.5989C11.4413 86.5163 11.3562 86.4359 11.225 86.3573L11.0343 86.2432L10.6913 86.8215ZM10.5493 87.061L10.1302 87.7675L9.8418 87.5948L10.8908 85.8262L11.3892 86.1245C11.6169 86.2608 11.7601 86.4045 11.8188 86.5555C11.8775 86.7065 11.8557 86.8683 11.7533 87.0409C11.6227 87.2611 11.4155 87.3495 11.1315 87.3063L11.1657 88.3874L10.8374 88.1908L10.8341 87.2315L10.5493 87.061ZM12.4207 89.1387L11.4227 88.5412L12.4717 86.7726L13.4697 87.3701L13.3248 87.6144L12.6152 87.1896L12.3296 87.6711L12.9946 88.0692L12.8511 88.3111L12.1861 87.913L11.8568 88.4683L12.5664 88.8931L12.4207 89.1387ZM14.4709 88.2711C14.3052 88.1718 14.1399 88.1527 13.9752 88.2136C13.8104 88.2745 13.6665 88.4086 13.5436 88.6159C13.4149 88.8328 13.363 89.0242 13.3879 89.1899C13.4136 89.3561 13.5129 89.4909 13.6859 89.5945C13.7607 89.6393 13.8375 89.6754 13.9161 89.7027C13.9951 89.7293 14.0794 89.7536 14.1689 89.7755L14.0218 90.0234C13.8523 89.9931 13.6799 89.9253 13.5046 89.8204C13.2463 89.6658 13.0944 89.4688 13.0488 89.2295C13.0037 88.9894 13.0677 88.7233 13.2409 88.4313C13.35 88.2475 13.4787 88.1066 13.6274 88.0087C13.7767 87.9112 13.9367 87.8639 14.1074 87.8666C14.278 87.8693 14.449 87.9219 14.6204 88.0245C14.8006 88.1323 14.9447 88.27 15.0526 88.4373L14.806 88.6159C14.7632 88.552 14.7146 88.4896 14.6603 88.4287C14.6072 88.3674 14.5441 88.3149 14.4709 88.2711ZM16.462 90.3565C16.2913 90.6444 16.0865 90.8251 15.8478 90.8985C15.6099 90.9726 15.3594 90.9308 15.0963 90.7732C14.83 90.6139 14.6722 90.4122 14.6227 90.1684C14.5745 89.9243 14.637 89.6563 14.8101 89.3643C14.9834 89.0724 15.188 88.891 15.4239 88.8203C15.6608 88.75 15.9123 88.7946 16.1786 88.9541C16.4409 89.1111 16.5965 89.3118 16.6454 89.5565C16.6944 89.8011 16.6333 90.0678 16.462 90.3565ZM15.1153 89.5502C14.9861 89.768 14.9319 89.9596 14.9526 90.125C14.9738 90.2896 15.0705 90.4234 15.2427 90.5265C15.4141 90.6291 15.5762 90.6507 15.7291 90.5915C15.8828 90.5326 16.025 90.3932 16.1555 90.173C16.2842 89.956 16.3384 89.7655 16.3179 89.6014C16.2983 89.4377 16.2029 89.3046 16.0315 89.2021C15.8586 89.0985 15.6946 89.0763 15.5396 89.1354C15.3854 89.195 15.2439 89.3332 15.1153 89.5502ZM17.6057 90.9428L18.255 91.3315L17.7283 92.2195C17.6015 92.1906 17.4847 92.154 17.3781 92.1097C17.2721 92.0659 17.1624 92.0102 17.0489 91.9422C16.7818 91.7823 16.6228 91.58 16.5717 91.3352C16.5211 91.0896 16.5814 90.8225 16.7527 90.5338C16.9215 90.2491 17.1352 90.0754 17.3937 90.0127C17.6527 89.9491 17.9254 90.0031 18.2118 90.1746C18.396 90.2848 18.5496 90.4249 18.6724 90.5945L18.4283 90.7746C18.3243 90.6228 18.2006 90.5039 18.0575 90.4182C17.8692 90.3055 17.6852 90.2757 17.5055 90.3288C17.3257 90.3818 17.1749 90.5111 17.0529 90.7168C16.9248 90.9329 16.8763 91.1269 16.9074 91.2985C16.9399 91.4699 17.0486 91.6109 17.2336 91.7217C17.327 91.7776 17.4337 91.8256 17.5538 91.8657L17.8243 91.4096L17.4586 91.1908L17.6057 90.9428ZM19.5806 93.4251L19.2271 93.2134L19.1953 91.2846L19.1856 91.2788L19.145 91.3611C19.0673 91.5178 18.9916 91.6582 18.9179 91.7825L18.3726 92.7019L18.1108 92.5451L19.1598 90.7765L19.5098 90.986L19.5434 92.9061L19.5507 92.9104C19.5601 92.8909 19.5968 92.8216 19.6608 92.7026C19.7253 92.5828 19.777 92.4902 19.8158 92.4249L20.3654 91.4982L20.6296 91.6564L19.5806 93.4251ZM20.0465 93.7039L21.0955 91.9353L21.3839 92.108L20.3349 93.8766L20.0465 93.7039ZM21.911 94.8204L20.6486 94.0645L20.7678 93.8636L22.44 93.0762L21.5747 92.5582L21.7218 92.3102L22.9358 93.0371L22.8153 93.2402L21.1409 94.0231L22.0581 94.5717L21.911 94.8204ZM23.2216 95.6049L22.2235 95.0077L23.2725 93.2386L24.2706 93.836L24.1256 94.0804L23.416 93.6556L23.1304 94.1368L23.7954 94.5352L23.6519 94.7772L22.987 94.3787L22.6576 94.9347L23.3672 95.3591L23.2216 95.6049ZM25.5735 95.7912C25.4004 96.0831 25.1871 96.2588 24.9335 96.3164C24.6804 96.374 24.4018 96.3116 24.0976 96.1292L23.6041 95.8334L24.6531 94.0651L25.1986 94.3912C25.4793 94.5602 25.6528 94.7667 25.719 95.0115C25.7852 95.2564 25.7367 95.5166 25.5735 95.7912ZM25.2637 95.6193C25.5148 95.1959 25.4429 94.8656 25.0478 94.6293L24.798 94.4796L24.0368 95.7633L24.2419 95.8862C24.6667 96.1407 25.0073 96.0514 25.2637 95.6193ZM27.1101 95.5358L27.6339 95.8497C27.8768 95.9947 28.0312 96.1359 28.0969 96.2713C28.1634 96.4067 28.1512 96.5516 28.0603 96.7053C27.9992 96.808 27.9217 96.8781 27.8279 96.9146C27.7341 96.952 27.6321 96.9492 27.5218 96.9069L27.5146 96.9194C27.6247 97.0164 27.6881 97.1172 27.7049 97.2218C27.7229 97.3255 27.6971 97.436 27.6272 97.5541C27.533 97.7125 27.4036 97.8037 27.239 97.8277C27.0756 97.8517 26.8954 97.8037 26.6983 97.6866L26.0611 97.3044L27.1101 95.5358ZM26.9652 96.4393L27.2427 96.6054C27.3634 96.6774 27.4628 96.712 27.5408 96.7072C27.6192 96.7014 27.6858 96.6525 27.7403 96.5612C27.7895 96.4777 27.795 96.3999 27.7567 96.326C27.7192 96.254 27.6352 96.1781 27.5049 96.1004L27.2551 95.9506L26.9652 96.4393ZM26.826 96.6745L26.4938 97.2343L26.8003 97.4177C26.921 97.4897 27.0255 97.5214 27.114 97.5118C27.2036 97.5022 27.2782 97.4475 27.3375 97.3476C27.392 97.2555 27.4011 97.169 27.3646 97.0865C27.3282 97.0048 27.246 96.9251 27.118 96.8493L26.826 96.6745ZM28.7615 97.6184L29.6577 97.0615L29.9715 97.2487L28.7416 97.9794L28.3347 98.666L28.0451 98.4922L28.4462 97.8162L28.5088 96.373L28.8226 96.5612L28.7615 97.6184Z" fill="white"/>
<path d="M54.3393 27.2621C60.8541 27.2621 67.2225 29.2029 72.6393 32.8392C78.0561 36.4755 82.2781 41.6438 84.7711 47.6906C87.2642 53.7375 87.9165 60.3914 86.6456 66.8107C85.3746 73.2301 82.2375 79.1266 77.6309 83.7547C73.0242 88.3828 67.155 91.5345 60.7655 92.8114C54.3759 94.0883 47.7529 93.433 41.7341 90.9282C35.7153 88.4236 30.5709 84.1819 26.9516 78.7399C23.3322 73.2979 21.4003 66.8997 21.4003 60.3546C21.4078 51.5803 24.8806 43.1675 31.0563 36.9631C37.2319 30.7586 45.6057 27.2697 54.3393 27.2621ZM54.3393 23.8555C47.154 23.8555 40.13 25.9961 34.1556 30.0067C28.1812 34.0173 23.5247 39.7176 20.775 46.387C18.0252 53.0564 17.3058 60.3952 18.7076 67.4753C20.1094 74.5554 23.5695 81.0589 28.6502 86.1635C33.7311 91.2679 40.2044 94.7441 47.2517 96.1527C54.2991 97.5613 61.6038 96.8383 68.2422 94.0755C74.8806 91.313 80.5545 86.6347 84.5465 80.6325C88.5386 74.6303 90.6692 67.5735 90.6692 60.3546C90.6692 50.6745 86.8416 41.3908 80.0284 34.5459C73.2153 27.7009 63.9746 23.8555 54.3393 23.8555Z" fill="white"/>
<path d="M55.7642 55.16C55.0871 54.7434 54.3196 54.4978 53.5273 54.4443H50.678V66.2528H53.5273C54.3251 66.1952 55.0949 65.9341 55.7642 65.4943C57.1888 64.5638 57.9582 62.8176 57.9582 60.3557C57.9582 57.8938 57.2601 56.0903 55.7642 55.16Z" fill="white"/>
<path d="M54.3396 29.8252C48.3292 29.8252 42.4538 31.6158 37.4564 34.9705C32.4589 38.3252 28.5639 43.0934 26.2639 48.6722C23.9639 54.2509 23.362 60.3895 24.5346 66.3119C25.7072 72.2342 28.6014 77.6742 32.8514 81.944C37.1013 86.2137 42.5161 89.1215 48.411 90.2995C54.3059 91.4776 60.416 90.873 65.9689 88.5622C71.5217 86.2514 76.2678 82.3382 79.6069 77.3175C82.9461 72.2968 84.7284 66.3941 84.7284 60.3557C84.7284 52.2585 81.5267 44.493 75.8277 38.7674C70.1287 33.0418 62.3992 29.8252 54.3396 29.8252ZM44.3667 54.4443H40.5769V67.7557C40.5769 68.1354 40.4268 68.4994 40.1596 68.7678C39.8925 69.0362 39.5301 69.1871 39.1522 69.1871C38.7744 69.1871 38.412 69.0362 38.1449 68.7678C37.8776 68.4994 37.7276 68.1354 37.7276 67.7557V54.4443H33.8238C33.4328 54.4443 33.0577 54.2881 32.7812 54.0104C32.5046 53.7326 32.3493 53.3557 32.3493 52.9628C32.3493 52.5699 32.5046 52.1931 32.7812 51.9153C33.0577 51.6375 33.4328 51.4814 33.8238 51.4814H44.3667C44.7578 51.4814 45.1328 51.6375 45.4093 51.9153C45.6859 52.1931 45.8412 52.5699 45.8412 52.9628C45.8412 53.3557 45.6859 53.7326 45.4093 54.0104C45.1328 54.2881 44.7578 54.4443 44.3667 54.4443ZM53.4847 69.23H49.2106C48.8328 69.23 48.4704 69.0792 48.2032 68.8108C47.9361 68.5423 47.7859 68.1783 47.7859 67.7986V52.9414C47.7859 52.5617 47.9361 52.1976 48.2032 51.9293C48.4704 51.6608 48.8328 51.51 49.2106 51.51H53.4847C53.6699 51.51 60.9787 51.51 60.9787 60.3844C60.9787 69.2586 53.6557 69.23 53.4705 69.23H53.4847ZM75.0547 69.23C74.7475 69.2482 74.4428 69.166 74.1859 68.9958C73.9291 68.8255 73.7341 68.5762 73.63 68.2854L72.5188 65.5228L71.3362 62.6602L69.128 56.9348L66.8769 62.6602L65.6944 65.5228L64.6259 68.228C64.5218 68.519 64.3267 68.7682 64.07 68.9385C63.8131 69.1088 63.5084 69.191 63.2012 69.1728C62.8234 69.1728 62.4609 69.0219 62.1938 68.7535C61.9266 68.4851 61.7765 68.1211 61.7765 67.7414C61.77 67.5489 61.809 67.3575 61.8905 67.1832L67.7745 52.4833C67.8877 52.1987 68.0849 51.9557 68.3395 51.7868C68.5942 51.618 68.8942 51.5314 69.1992 51.5387C69.5064 51.5204 69.8111 51.6026 70.068 51.7728C70.3247 51.9432 70.5197 52.1924 70.6238 52.4833L76.5079 67.2548C76.5779 67.4323 76.6117 67.6221 76.6076 67.8129C76.6067 68.0124 76.5641 68.2094 76.483 68.3915C76.4018 68.5734 76.2836 68.7364 76.136 68.8697C75.9885 69.0032 75.8148 69.1041 75.6261 69.1661C75.4374 69.2282 75.238 69.25 75.0404 69.23H75.0547Z" fill="white"/>
<path d="M54.3453 2.38627C55.562 2.38946 56.7563 2.71533 57.8074 3.33096L101.746 28.8374C102.831 29.4789 103.73 30.3957 104.352 31.4959C104.976 32.5961 105.299 33.8411 105.292 35.1067V85.6044C105.299 86.8699 104.976 88.115 104.352 89.2152C103.73 90.3154 102.831 91.2321 101.746 91.8736L57.8074 117.452C56.7577 118.071 55.5626 118.398 54.3453 118.398C53.1281 118.398 51.933 118.071 50.8833 117.452L6.94556 91.8736C5.85972 91.2321 4.96056 90.3154 4.33801 89.2152C3.71546 88.115 3.39133 86.8699 3.39805 85.6044V35.1067C3.39133 33.8411 3.71546 32.5961 4.33801 31.4959C4.96056 30.3957 5.85972 29.4789 6.94556 28.8374L50.8833 3.25939C51.9413 2.66875 53.1351 2.36766 54.3453 2.38627ZM54.3453 0.239265C52.7639 0.237287 51.2103 0.657138 49.8433 1.4559L5.90552 27.0339C4.50175 27.8566 3.33775 29.0353 2.53012 30.4521C1.72249 31.8689 1.29958 33.4741 1.30374 35.1067V85.6044C1.29958 87.2371 1.72249 88.8421 2.53012 90.259C3.33775 91.6757 4.50175 92.8544 5.90552 93.6771L49.8433 119.255C51.2111 120.052 52.7642 120.472 54.3453 120.472C55.9265 120.472 57.4796 120.052 58.8474 119.255L102.785 93.6771C104.189 92.8544 105.353 91.6757 106.16 90.259C106.968 88.8421 107.391 87.2371 107.387 85.6044V35.1067C107.391 33.4741 106.968 31.8689 106.16 30.4521C105.353 29.0353 104.189 27.8566 102.785 27.0339L58.8474 1.4559C57.4804 0.657138 55.9268 0.237287 54.3453 0.239265Z" fill="white"/>
</g>
</g>
</g>
<defs>
<clipPath id="clip0_13815_1066">
<rect width="107" height="122" fill="white"/>
</clipPath>
<clipPath id="clip1_13815_1066">
<rect width="106.581" height="124.824" fill="white" transform="translate(0.999756 -1.90723)"/>
</clipPath>
</defs>
</svg>
