<svg width="44" height="44" viewBox="0 0 44 44" fill="none" xmlns="http://www.w3.org/2000/svg">
<path d="M29.6996 12.0991C30.2831 12.0991 30.8427 12.3309 31.2552 12.7435C31.6678 13.1561 31.8996 13.7156 31.8996 14.2991V29.6991C31.8996 30.2826 31.6678 30.8422 31.2552 31.2548C30.8427 31.6673 30.2831 31.8991 29.6996 31.8991H14.2996C13.7161 31.8991 13.1566 31.6673 12.744 31.2548C12.3314 30.8422 12.0996 30.2826 12.0996 29.6991V14.2991C12.0996 13.7156 12.3314 13.1561 12.744 12.7435C13.1566 12.3309 13.7161 12.0991 14.2996 12.0991H29.6996ZM29.1496 29.1491V23.3191C29.1496 22.3681 28.7718 21.4559 28.0993 20.7834C27.4268 20.1109 26.5147 19.7331 25.5636 19.7331C24.6286 19.7331 23.5396 20.3051 23.0116 21.1631V19.9421H19.9426V29.1491H23.0116V23.7261C23.0116 22.8791 23.6936 22.1861 24.5406 22.1861C24.949 22.1861 25.3407 22.3484 25.6296 22.6372C25.9184 22.926 26.0806 23.3177 26.0806 23.7261V29.1491H29.1496ZM16.3676 18.2151C16.8577 18.2151 17.3278 18.0204 17.6743 17.6739C18.0209 17.3273 18.2156 16.8572 18.2156 16.3671C18.2156 15.3441 17.3906 14.5081 16.3676 14.5081C15.8746 14.5081 15.4017 14.704 15.0531 15.0526C14.7045 15.4012 14.5086 15.8741 14.5086 16.3671C14.5086 17.3901 15.3446 18.2151 16.3676 18.2151ZM17.8966 29.1491V19.9421H14.8496V29.1491H17.8966Z" fill="white"/>
</svg>
