<svg width="56" height="56" viewBox="0 0 56 56" fill="none" xmlns="http://www.w3.org/2000/svg">
<g clip-path="url(#clip0_7931_31432)">
<path d="M33.4357 48.4789C33.8776 48.4789 34.2357 48.1207 34.2357 47.6789C34.2357 47.2371 33.8776 46.8789 33.4357 46.8789C32.9939 46.8789 32.6357 47.2371 32.6357 47.6789C32.6357 48.1207 32.9939 48.4789 33.4357 48.4789Z" fill="#127AFF"/>
<path d="M54.8754 54.0803H50.6354V12.8803H54.8754C55.1954 12.8803 55.5154 12.7203 55.5954 12.4003C55.7554 12.0803 55.6754 11.7603 55.4354 11.5203L44.9554 0.560313C44.6354 0.240313 44.0754 0.240313 43.7554 0.560313L33.3554 11.4403C33.1154 11.6803 33.0354 12.0003 33.1954 12.3203C33.3554 12.6403 33.5954 12.8003 33.9154 12.8003H38.1554V24.9603H27.9954C27.5154 24.9603 27.1954 25.3603 27.1954 25.7603V35.9203H17.0354C16.5554 35.9203 16.2354 36.3203 16.2354 36.7203V44.6403H6.15543C5.67543 44.6403 5.35543 45.0403 5.35543 45.4403V54.0003H1.11543C0.63543 54.0003 0.31543 54.4003 0.31543 54.8003C0.31543 55.2003 0.71543 55.6003 1.11543 55.6003H54.9554C55.4354 55.6003 55.7554 55.2003 55.7554 54.8003C55.7554 54.4003 55.3554 54.0803 54.8754 54.0803ZM16.2354 54.0803H6.95543V46.3203H16.2354V54.0803ZM27.1954 54.0803H17.8354V37.5203H27.1954V54.0803ZM38.1554 54.0803H28.7954V26.6403H38.0754V54.0803H38.1554ZM49.0354 12.0003V54.0803H39.7554V12.0003C39.7554 11.5203 39.3554 11.2003 38.9554 11.2003H35.8354L44.3954 2.24031L53.0354 11.2003H49.9154C49.4354 11.2003 49.0354 11.6003 49.0354 12.0003Z" fill="#127AFF"/>
<path d="M33.4357 31.5996C32.9557 31.5996 32.6357 31.9996 32.6357 32.3996V43.3596C32.6357 43.8396 33.0357 44.1596 33.4357 44.1596C33.8357 44.1596 34.2357 43.7596 34.2357 43.3596V32.3996C34.2357 31.9196 33.9157 31.5996 33.4357 31.5996Z" fill="#127AFF"/>
</g>
<defs>
<clipPath id="clip0_7931_31432">
<rect width="56" height="56" fill="white"/>
</clipPath>
</defs>
</svg>
