<svg width="56" height="56" viewBox="0 0 56 56" fill="none" xmlns="http://www.w3.org/2000/svg">
<g clip-path="url(#clip0_7931_33198)">
<path d="M1.11332 55.6806H27.9933C28.4733 55.6806 28.7933 55.2806 28.7933 54.8806V50.2406C28.7933 45.2006 24.8733 40.8806 19.8333 40.4006H19.7533C19.6733 40.4006 19.6733 40.4006 19.5933 40.4006H18.9533L19.3533 39.9206C20.5533 38.6406 21.1933 37.0406 21.1933 35.2806V29.5206V29.4406C21.1933 29.2806 21.1933 29.2006 21.1933 29.1206V25.4406C21.1933 24.9606 20.7933 24.6406 20.3933 24.6406H13.0333C10.0733 24.6406 7.75332 27.0406 7.75332 29.9206V35.2806C7.75332 37.0406 8.39332 38.6406 9.59332 39.9206L9.99332 40.4006H9.35332C9.27332 40.4006 9.19332 40.4006 9.19332 40.4006C4.07332 40.8806 0.15332 45.2006 0.15332 50.2406V54.8806C0.31332 55.3606 0.63332 55.6806 1.11332 55.6806ZM9.43332 29.9206C9.43332 27.8406 11.1133 26.2406 13.1133 26.2406H19.6733V29.0406C19.6733 30.4806 18.4733 31.6806 17.0333 31.6806H9.43332V29.9206ZM9.43332 35.2806V33.2806H17.0333C17.8333 33.2806 18.5533 33.0406 19.1933 32.6406L19.5933 32.4006V35.2806C19.5933 38.0806 17.2733 40.4006 14.4733 40.4006C11.6733 40.4006 9.43332 38.0806 9.43332 35.2806ZM17.5933 42.0006L14.5533 45.0406L11.5133 42.0006H17.5933ZM1.91332 51.3606H6.71332C7.19332 51.3606 7.51332 50.9606 7.51332 50.5606C7.51332 50.1606 7.11332 49.7606 6.71332 49.7606H1.91332V49.4406C2.31332 45.6806 5.27332 42.5606 9.11332 42.0806H9.27332L13.9933 46.8006C14.3133 47.1206 14.7933 47.1206 15.1133 46.8006L19.8333 42.0806H19.9933C24.0733 42.6406 27.1933 46.1606 27.1933 50.2406V54.0806H1.91332V51.3606Z" fill="white"/>
<path d="M45.764 31.4403H54.884C55.364 31.4403 55.684 31.0403 55.684 30.6403V26.0003C55.684 20.9603 51.764 16.6403 46.724 16.1603H46.644C46.564 16.1603 46.564 16.1603 46.484 16.1603H45.844L46.244 15.6803C47.444 14.4003 48.084 12.8003 48.084 11.0403V5.20031V5.12031C48.084 4.96031 48.084 4.88031 48.084 4.80031V1.12031C48.084 0.640312 47.684 0.320312 47.284 0.320312H40.004C37.044 0.320312 34.724 2.72031 34.724 5.60031V10.9603C34.724 12.7203 35.364 14.3203 36.564 15.6003L36.964 16.0803H36.324C36.244 16.0803 36.164 16.0803 36.164 16.0803C31.044 16.5603 27.124 20.8803 27.124 25.9203V30.5603C27.124 31.0403 27.524 31.3603 27.924 31.3603H36.724C37.204 31.3603 37.524 30.9603 37.524 30.5603C37.524 30.1603 37.124 29.7603 36.724 29.7603H28.804V25.9203C28.804 21.7603 31.924 18.2403 36.004 17.7603H36.164L40.884 22.4803C41.204 22.8003 41.684 22.8003 42.004 22.4803L46.724 17.7603H46.884C50.964 18.3203 54.084 21.8403 54.084 25.9203V29.7603H45.764C45.284 29.7603 44.964 30.1603 44.964 30.5603C44.964 30.9603 45.284 31.4403 45.764 31.4403ZM36.324 5.60031C36.324 3.52031 38.004 1.92031 40.004 1.92031H46.564V4.72031C46.564 6.16031 45.364 7.36031 43.924 7.36031H36.324V5.60031ZM41.444 20.8003L38.404 17.6803H44.564L41.444 20.8003ZM41.444 16.0803C38.644 16.0803 36.324 13.7603 36.324 10.9603V8.96031H43.924C44.724 8.96031 45.444 8.72031 46.084 8.32031L46.484 8.08031V10.9603C46.564 13.7603 44.244 16.0803 41.444 16.0803Z" fill="white"/>
<path d="M41.9948 30.0798C41.8348 29.9198 41.6748 29.8398 41.4348 29.8398C41.1948 29.8398 41.0348 29.9198 40.8748 30.0798C40.7148 30.2398 40.6348 30.3998 40.6348 30.6398C40.6348 30.8798 40.7148 31.0398 40.8748 31.1998C41.1948 31.5198 41.7548 31.5198 41.9948 31.1998C42.1548 31.0398 42.2348 30.8798 42.2348 30.6398C42.2348 30.3998 42.1548 30.1598 41.9948 30.0798Z" fill="white"/>
<path d="M0.323164 15.1202C0.323164 18.0002 2.64316 20.3202 5.52316 20.3202H19.2032C21.2832 20.3202 23.2032 19.0402 24.0032 17.1202L24.0832 16.9602H28.4832C28.8032 16.9602 29.1232 16.8002 29.2032 16.4802C29.3632 16.1602 29.2832 15.8402 29.0432 15.6002L24.4032 10.9602V5.44023C24.4032 2.56023 22.0832 0.240234 19.2032 0.240234H5.44316C2.56316 0.240234 0.243164 2.56023 0.243164 5.44023V15.1202H0.323164ZM1.92316 5.44023C1.92316 3.44023 3.52316 1.84023 5.52316 1.84023H19.2032C21.2032 1.84023 22.8032 3.44023 22.8032 5.44023V11.2002C22.8032 11.4402 22.8832 11.6002 23.0432 11.7602L26.5632 15.2802H23.5232C23.1232 15.2802 22.8032 15.5202 22.7232 15.9202C22.3232 17.5202 20.8832 18.7202 19.2832 18.7202H5.44316C3.44316 18.7202 1.84316 17.1202 1.84316 15.1202V5.44023H1.92316Z" fill="white"/>
<path d="M36.7952 55.6797H50.5552C53.4352 55.6797 55.7552 53.3597 55.7552 50.4797V40.8797C55.7552 37.9997 53.4352 35.6797 50.5552 35.6797H36.7952C34.7152 35.6797 32.7952 36.9597 31.9952 38.8797L31.9152 39.0397H27.5152C27.1952 39.0397 26.8752 39.1997 26.7952 39.5197C26.6352 39.8397 26.7152 40.1597 26.9552 40.3997L31.5952 45.0397V50.3997C31.5952 53.3597 33.9152 55.6797 36.7952 55.6797ZM29.4352 40.7197H32.4752C32.8752 40.7197 33.1952 40.4797 33.2752 40.0797C33.6752 38.4797 35.1152 37.2797 36.7152 37.2797H50.4752C52.4752 37.2797 54.0752 38.8797 54.0752 40.8797V50.4797C54.0752 52.4797 52.4752 54.0797 50.4752 54.0797H36.7952C34.7952 54.0797 33.1952 52.4797 33.1952 50.4797V44.7997C33.1952 44.5597 33.1152 44.3997 32.9552 44.2397L29.4352 40.7197Z" fill="white"/>
<path d="M48.3983 43.0388C48.0783 42.7188 47.5983 42.7188 47.2783 43.0388L44.1583 46.1588L42.6383 44.6388C42.4783 44.4788 42.3183 44.3988 42.0783 44.3988C41.8383 44.3988 41.6783 44.4788 41.5183 44.6388C41.1983 44.9588 41.1983 45.4388 41.5183 45.7588L43.6783 47.9188C43.9983 48.2388 44.4783 48.2388 44.7983 47.9188L48.4783 44.2388C48.7183 43.8388 48.7183 43.3588 48.3983 43.0388Z" fill="white"/>
<path d="M13.5171 12.2402C13.9971 12.2402 14.3171 11.8402 14.3171 11.4402V10.8802L14.5571 10.8002C16.1571 10.3202 17.1171 8.8802 17.0371 7.2002C16.9571 5.4402 15.5171 4.0802 13.7571 3.9202C12.7971 3.8402 11.8371 4.1602 11.1171 4.8802C10.3971 5.5202 9.99707 6.4802 9.99707 7.4402C9.99707 7.9202 10.3971 8.2402 10.7971 8.2402C11.1971 8.2402 11.5971 7.8402 11.5971 7.4402C11.5971 6.8802 11.8371 6.4002 12.2371 6.0802C12.5571 5.7602 13.0371 5.6002 13.5171 5.6002C13.5971 5.6002 13.5971 5.6002 13.6771 5.6002C14.6371 5.6802 15.3571 6.4002 15.4371 7.3602C15.5171 8.3202 14.8771 9.1202 13.9971 9.3602C13.2771 9.5202 12.7971 10.1602 12.7971 10.8802V11.4402C12.7171 11.9202 13.1171 12.2402 13.5171 12.2402Z" fill="white"/>
<path d="M14.0856 15.1189C13.9256 14.9589 13.7656 14.8789 13.5256 14.8789C13.2856 14.8789 13.1256 14.9589 12.9656 15.1189C12.8056 15.2789 12.7256 15.4389 12.7256 15.6789C12.7256 15.9189 12.8056 16.0789 12.9656 16.2389C13.2856 16.5589 13.7656 16.5589 14.0856 16.2389C14.2456 16.0789 14.3256 15.9189 14.3256 15.6789C14.3256 15.4389 14.2456 15.1989 14.0856 15.1189Z" fill="white"/>
<path d="M10.5593 51.1217C10.8793 51.4417 11.3593 51.4417 11.6793 51.1217C11.8393 50.9617 11.9193 50.8017 11.9193 50.5617C11.9193 50.3217 11.8393 50.1617 11.6793 50.0017C11.5193 49.8417 11.3593 49.7617 11.1193 49.7617C10.8793 49.7617 10.7193 49.8417 10.5593 50.0017C10.3993 50.1617 10.3193 50.3217 10.3193 50.5617C10.3193 50.8017 10.3993 50.9617 10.5593 51.1217Z" fill="white"/>
</g>
<defs>
<clipPath id="clip0_7931_33198">
<rect width="56" height="56" fill="white"/>
</clipPath>
</defs>
</svg>
