<svg width="56" height="56" viewBox="0 0 56 56" fill="none" xmlns="http://www.w3.org/2000/svg">
<g clip-path="url(#clip0_5839_35679)">
<path d="M31.7302 27.8872C31.7302 26.1522 30.5355 24.7036 28.9302 24.2864V14.8206C28.9302 14.3044 28.5121 13.8872 27.9969 13.8872C27.4817 13.8872 27.0635 14.3044 27.0635 14.8206V24.2864C25.7578 24.6262 24.7358 25.6482 24.3961 26.9539H17.7302C17.215 26.9539 16.7969 27.3711 16.7969 27.8872C16.7969 28.4034 17.215 28.8206 17.7302 28.8206H24.3961C24.8133 30.4268 26.2627 31.6206 27.9969 31.6206C30.0558 31.6206 31.7302 29.9462 31.7302 27.8872ZM27.9969 29.7539C26.9674 29.7539 26.1302 28.9167 26.1302 27.8872C26.1302 26.8578 26.9674 26.0206 27.9969 26.0206C29.0263 26.0206 29.8635 26.8578 29.8635 27.8872C29.8635 28.9167 29.0263 29.7539 27.9969 29.7539Z" fill="#127AFF"/>
<path d="M28.0037 9.2204C28.5188 9.2204 28.937 8.8032 28.937 8.28704V7.35375C28.937 6.83761 28.5188 6.42041 28.0037 6.42041C27.4885 6.42041 27.0703 6.83761 27.0703 7.35375V8.28704C27.0703 8.8032 27.4885 9.2204 28.0037 9.2204Z" fill="#127AFF"/>
<path d="M27.0703 47.4868V48.4201C27.0703 48.9363 27.4885 49.3535 28.0037 49.3535C28.5188 49.3535 28.937 48.9363 28.937 48.4201V47.4868C28.937 46.9707 28.5188 46.5535 28.0037 46.5535C27.4885 46.5535 27.0703 46.9707 27.0703 47.4868Z" fill="#127AFF"/>
<path d="M48.5307 28.8201C49.0459 28.8201 49.4641 28.4029 49.4641 27.8867C49.4641 27.3706 49.0459 26.9534 48.5307 26.9534H47.5974C47.0822 26.9534 46.6641 27.3706 46.6641 27.8867C46.6641 28.4029 47.0822 28.8201 47.5974 28.8201H48.5307Z" fill="#127AFF"/>
<path d="M7.46458 26.9534C6.94938 26.9534 6.53125 27.3706 6.53125 27.8867C6.53125 28.4029 6.94938 28.8201 7.46458 28.8201H8.39787C8.91307 28.8201 9.33123 28.4029 9.33123 27.8867C9.33123 27.3706 8.91307 26.9534 8.39787 26.9534H7.46458Z" fill="#127AFF"/>
<path d="M41.8554 14.9601C42.0944 14.9601 42.3333 14.8687 42.5153 14.6867L43.1752 14.0267C43.5401 13.6619 43.5401 13.0719 43.1752 12.7071C42.8102 12.3421 42.2204 12.3421 41.8554 12.7071L41.1956 13.3669C40.8306 13.7319 40.8306 14.3217 41.1956 14.6867C41.3776 14.8695 41.6165 14.9601 41.8554 14.9601Z" fill="#127AFF"/>
<path d="M13.4805 41.0867L12.8205 41.7465C12.4557 42.1115 12.4557 42.7013 12.8205 43.0663C13.0025 43.2483 13.2415 43.3397 13.4805 43.3397C13.7193 43.3397 13.9583 43.2483 14.1403 43.0663L14.8001 42.4065C15.1651 42.0415 15.1651 41.4517 14.8001 41.0867C14.4353 40.7217 13.8445 40.7217 13.4805 41.0867Z" fill="#127AFF"/>
<path d="M14.8001 13.3669L14.1403 12.7071C13.7753 12.3421 13.1855 12.3421 12.8205 12.7071C12.4557 13.0719 12.4557 13.6619 12.8205 14.0267L13.4805 14.6867C13.6625 14.8687 13.9013 14.9601 14.1403 14.9601C14.3793 14.9601 14.6181 14.8687 14.8001 14.6867C15.1651 14.3227 15.1651 13.7319 14.8001 13.3669Z" fill="#127AFF"/>
<path d="M28 0C12.5608 0 0 12.5608 0 28C0 43.4392 12.5608 56 28 56C31.3376 56 34.607 55.4166 37.7198 54.265C38.2032 54.0866 38.4496 53.549 38.2714 53.0666C38.0922 52.5812 37.5564 52.3348 37.072 52.515C34.1674 53.5882 31.1154 54.1334 28 54.1334C13.5902 54.1334 1.86666 42.4098 1.86666 28C1.86666 13.5902 13.5902 1.86666 28 1.86666C42.4098 1.86666 54.1334 13.5902 54.1334 28C54.1334 31.1174 53.5882 34.1684 52.514 37.071C52.3358 37.5554 52.5822 38.0922 53.0656 38.2704C53.549 38.4524 54.0858 38.2032 54.265 37.7198C55.4166 34.609 56 31.3394 56 28C56 12.5608 43.4392 0 28 0Z" fill="#127AFF"/>
<path d="M46.6703 38.3609V37.3333C46.6703 36.8171 46.2522 36.3999 45.737 36.3999C45.2218 36.3999 44.8036 36.8171 44.8036 37.3333V38.3645C43.7854 38.5717 42.8576 39.1121 42.1735 39.9213C41.6032 40.5953 41.3391 41.4577 41.4325 42.3509C41.5277 43.2645 41.9981 44.1121 42.7233 44.6757L44.8036 46.2933V51.3687C43.7201 50.9823 42.937 49.9557 42.937 48.7405C42.937 48.2243 42.5189 47.8071 42.0037 47.8071C41.4885 47.8071 41.0703 48.2243 41.0703 48.7405C41.0703 50.9935 42.6766 52.8789 44.8036 53.3129V54.1333C44.8036 54.6493 45.2218 55.0665 45.737 55.0665C46.2522 55.0665 46.6703 54.6493 46.6703 54.1333V53.3101C47.6886 53.1029 48.6163 52.5625 49.3014 51.7533C49.8716 51.0775 50.1348 50.2151 50.0415 49.3219C49.9454 48.4091 49.4759 47.5625 48.7507 46.9997L46.6703 45.3805V40.3049C47.7539 40.6913 48.537 41.7181 48.537 42.9333C48.537 43.4493 48.9551 43.8665 49.4703 43.8665C49.9855 43.8665 50.4036 43.4493 50.4036 42.9333C50.4036 40.6801 48.7974 38.7949 46.6703 38.3609ZM47.6046 48.4725C47.9303 48.7255 48.1422 49.1073 48.1851 49.5161C48.2253 49.8987 48.1151 50.2655 47.8762 50.5473C47.5514 50.9309 47.1314 51.1997 46.6703 51.3641V47.7445L47.6046 48.4725ZM43.8694 43.2021C43.5427 42.9481 43.3318 42.5665 43.2888 42.1567C43.2496 41.7749 43.3589 41.4091 43.5978 41.1263C43.9226 40.7427 44.3426 40.4739 44.8036 40.3097V43.9281L43.8694 43.2021Z" fill="#127AFF"/>
</g>
<defs>
<clipPath id="clip0_5839_35679">
<rect width="56" height="56" fill="white"/>
</clipPath>
</defs>
</svg>
