<svg width="56" height="56" viewBox="0 0 56 56" fill="none" xmlns="http://www.w3.org/2000/svg">
<path d="M43.3566 17.3601V8.72008C43.3566 7.28008 42.1566 6.08008 40.7166 6.08008H3.11656C1.67656 6.08008 0.476562 7.28008 0.476562 8.72008V31.2801C0.476562 32.7201 1.67656 33.9201 3.11656 33.9201H6.07656V42.8001C6.07656 43.1201 6.23656 43.4401 6.55656 43.5201C6.87656 43.6001 7.19656 43.6001 7.43656 43.3601L16.8766 33.9201H18.9566C19.4366 33.9201 19.7566 33.6001 19.7566 33.1201C19.7566 32.6401 19.4366 32.3201 18.9566 32.3201C18.9566 32.3201 16.6366 32.3201 16.4766 32.3201C16.3166 32.3201 16.1566 32.4001 15.9966 32.5601L7.67656 40.8801V39.6001C7.67656 37.8401 7.67656 33.1201 7.67656 32.9601C7.67656 32.5601 7.27656 32.2401 6.87656 32.2401H3.11656C2.55656 32.2401 2.07656 31.7601 2.07656 31.2001V8.72008C2.07656 8.16008 2.55656 7.68008 3.11656 7.68008H40.7166C41.2766 7.68008 41.7566 8.16008 41.7566 8.72008V17.3601C41.7566 17.8401 42.0766 18.1601 42.5566 18.1601C43.0366 18.1601 43.3566 17.7601 43.3566 17.3601Z" fill="white"/>
<path d="M52.8819 22.2402H26.5619C25.1219 22.2402 23.9219 23.4402 23.9219 24.8802V40.2402C23.9219 41.6802 25.1219 42.8802 26.5619 42.8802H43.2019L50.0019 49.6802C50.2419 49.9202 50.5619 50.0002 50.8819 49.8402C51.2019 49.6802 51.3619 49.4402 51.3619 49.1202V42.8802H52.8019C54.2419 42.8802 55.4419 41.6802 55.4419 40.2402V24.8802C55.4419 23.4402 54.3219 22.2402 52.8819 22.2402ZM53.8419 40.2402C53.8419 40.8002 53.3619 41.2802 52.8019 41.2802H50.5619C50.1619 41.2802 49.7619 41.6002 49.7619 42.0002C49.7619 42.1602 49.7619 45.9202 49.7619 45.9202V47.2002L44.0819 41.5202C43.9219 41.3602 43.6819 41.2802 43.5219 41.2802H26.5619C26.0019 41.2802 25.5219 40.8002 25.5219 40.2402V24.8802C25.5219 24.3202 26.0019 23.8402 26.5619 23.8402H52.8819C53.4419 23.8402 53.9219 24.3202 53.9219 24.8802V40.2402H53.8419Z" fill="white"/>
<path d="M40.4867 32.5598C40.4867 32.0798 40.1667 31.7598 39.6867 31.7598C39.2067 31.7598 38.8867 32.0798 38.8867 32.5598C38.8867 33.0398 39.2067 33.3598 39.6867 33.3598C40.1667 33.3598 40.4867 32.9598 40.4867 32.5598Z" fill="white"/>
<path d="M33.924 14.7988H9.92402C9.44402 14.7988 9.12402 15.1188 9.12402 15.5988C9.12402 16.0788 9.44402 16.3988 9.92402 16.3988H34.004C34.484 16.3988 34.804 16.0788 34.804 15.5988C34.804 15.1188 34.404 14.7988 33.924 14.7988Z" fill="white"/>
<path d="M19.044 25.1195C19.524 25.1195 19.844 24.7995 19.844 24.3195C19.844 23.8395 19.524 23.5195 19.044 23.5195H9.92402C9.44402 23.5195 9.12402 23.8395 9.12402 24.3195C9.12402 24.7995 9.44402 25.1195 9.92402 25.1195H19.044Z" fill="white"/>
<path d="M34.4008 32.5598C34.4008 32.0798 34.0808 31.7598 33.6008 31.7598C33.1208 31.7598 32.8008 32.0798 32.8008 32.5598C32.8008 33.0398 33.1208 33.3598 33.6008 33.3598C34.0808 33.3598 34.4008 32.9598 34.4008 32.5598Z" fill="white"/>
<path d="M46.6381 32.5598C46.6381 32.0798 46.3181 31.7598 45.8381 31.7598C45.3581 31.7598 45.0381 32.0798 45.0381 32.5598C45.0381 33.0398 45.3581 33.3598 45.8381 33.3598C46.3181 33.3598 46.6381 32.9598 46.6381 32.5598Z" fill="white"/>
</svg>
