<svg width="57" height="56" viewBox="0 0 57 56" fill="none" xmlns="http://www.w3.org/2000/svg">
<g clip-path="url(#clip0_5839_35682)">
<path d="M16.4522 47.7887L13.1302 46.1279C13.1109 46.1183 13.0989 46.0989 13.0989 46.0774L13.0992 44.4078C14.4628 43.4687 15.428 41.9843 15.6696 40.2422C16.2829 39.1823 16.6061 37.9851 16.6061 36.7677C16.6061 34.4976 15.513 32.4783 13.826 31.2076C13.9248 30.8783 13.9759 30.5384 13.9759 30.1919C13.9759 28.0475 12.0346 26.303 9.6486 26.303C7.26255 26.303 5.32125 28.0475 5.32125 30.1919C5.32125 30.539 5.37178 30.8789 5.47065 31.208C3.78388 32.4789 2.691 34.4979 2.691 36.7677C2.691 37.9851 3.01442 39.1825 3.62758 40.2422C3.86908 41.9843 4.83431 43.4687 6.198 44.4078V46.0772C6.198 46.0988 6.18608 46.1182 6.16683 46.1278L2.84489 47.7887C1.66834 48.377 0.9375 49.5596 0.9375 50.8751V55.1796C0.9375 55.6327 1.30478 55.9999 1.75781 55.9999C2.21085 55.9999 2.57813 55.6327 2.57813 55.1796V50.8751C2.57813 50.1851 2.96149 49.5648 3.57858 49.2563L6.31864 47.8862L8.82836 50.2712V55.1796C8.82836 55.6327 9.19564 55.9999 9.64868 55.9999C10.1017 55.9999 10.469 55.6327 10.469 55.1796V50.2711L12.9786 47.8862L15.7187 49.2561C16.3359 49.5647 16.7192 50.1851 16.7192 50.8751V55.1796C16.7192 55.6327 17.0865 55.9999 17.5396 55.9999C17.9926 55.9999 18.3599 55.6327 18.3599 55.1796V50.8751C18.3597 49.5596 17.6289 48.377 16.4522 47.7887ZM9.6486 27.9435C11.13 27.9435 12.3352 28.9522 12.3352 30.1919C12.3352 30.2438 12.3311 30.2953 12.3269 30.3468C11.502 30.0015 10.5973 29.81 9.6486 29.81C8.69996 29.81 7.79531 30.0015 6.97062 30.3467C6.96647 30.2952 6.96188 30.2439 6.96188 30.1919C6.96188 28.9521 8.16719 27.9435 9.6486 27.9435ZM9.6486 48.7874L7.63924 46.8779C7.76786 46.6368 7.83852 46.3635 7.83852 46.0771V45.2042C8.41153 45.3821 9.01924 45.4787 9.6486 45.4787C10.2778 45.4787 10.8856 45.3821 11.4584 45.2043L11.4583 46.0771C11.4583 46.3635 11.5289 46.6369 11.6576 46.8781L9.6486 48.7874ZM9.6486 43.838C7.37739 43.8381 5.48039 42.1374 5.23605 39.8819C5.22293 39.7611 5.18322 39.6447 5.11957 39.5411C4.60408 38.7015 4.33152 37.7424 4.33152 36.7675C4.33152 33.8358 6.71677 31.4505 9.6486 31.4505C12.5804 31.4505 14.9656 33.8358 14.9656 36.7675C14.9656 37.3328 14.8734 37.8925 14.6959 38.427C12.3667 36.0606 8.26913 35.1333 8.07159 35.0898C7.82277 35.0349 7.5618 35.0805 7.36645 35.2447C7.17352 35.4071 7.06567 35.631 7.07442 35.8823C7.06819 35.9619 7.00617 36.4963 6.43829 37.0643C6.11793 37.3847 6.11793 37.904 6.43829 38.2243C6.75865 38.5447 7.27808 38.5447 7.59833 38.2243C8.05967 37.763 8.33059 37.2947 8.48973 36.8994C9.87004 37.3095 12.7349 38.345 14.0206 40.1626C13.6557 42.2767 11.8244 43.838 9.6486 43.838Z" fill="#127AFF"/>
<path d="M5.26562 51.9363C4.81259 51.9363 4.44531 52.3036 4.44531 52.7566V55.1797C4.44531 55.6328 4.81259 56 5.26562 56C5.71866 56 6.08594 55.6328 6.08594 55.1797V52.7566C6.08594 52.3036 5.71866 51.9363 5.26562 51.9363Z" fill="#127AFF"/>
<path d="M14.0391 51.9363C13.586 51.9363 13.2188 52.3036 13.2188 52.7566V55.1797C13.2188 55.6328 13.586 56 14.0391 56C14.4921 56 14.8594 55.6328 14.8594 55.1797V52.7566C14.8594 52.3036 14.4921 51.9363 14.0391 51.9363Z" fill="#127AFF"/>
<path d="M38.1434 43.9664L28.8789 38.0709V28.8766C28.8789 28.4237 28.5116 28.0564 28.0586 28.0564C27.6056 28.0564 27.2383 28.4237 27.2383 28.8766V38.0709L17.9737 43.9664C17.5915 44.2096 17.4789 44.7166 17.7221 45.0989C17.8785 45.3445 18.1438 45.4788 18.415 45.4788C18.5656 45.4788 18.7181 45.4374 18.8545 45.3504L28.0586 39.4934L37.2626 45.3504C37.6449 45.5938 38.1518 45.481 38.3951 45.0989C38.6383 44.7166 38.5256 44.2096 38.1434 43.9664Z" fill="#127AFF"/>
<path d="M34.8663 17.9789L32.7479 16.9198C33.99 16.6344 34.9214 16.279 35.5423 15.993C36.3564 15.6181 36.7325 14.6953 36.4173 13.8466C35.6964 11.9056 35.1324 8.50672 35.0182 6.89959C34.7387 2.96614 31.7484 0 28.0627 0C24.377 0 21.3867 2.96614 21.1071 6.89949C20.9929 8.50672 20.4288 11.9054 19.708 13.8466C19.3928 14.6952 19.7689 15.618 20.583 15.9928C21.2044 16.279 22.1356 16.6344 23.3772 16.9197L21.2589 17.9789C20.0824 18.5672 19.3516 19.7498 19.3516 21.0652V25.3698C19.3516 25.8228 19.7188 26.1901 20.1718 26.1901C20.6248 26.1901 20.9921 25.8228 20.9921 25.3698V21.0652C20.9921 20.3753 21.3755 19.7549 21.9926 19.4463L24.7327 18.0763L25.6856 18.9819C26.352 19.6152 27.2074 19.9319 28.0626 19.9319C28.9179 19.9319 29.7732 19.6153 30.4396 18.9819L31.3925 18.0763L34.1326 19.4462C34.7498 19.7548 35.1332 20.3751 35.1332 21.0652V25.3698C35.1332 25.8228 35.5004 26.1901 35.9534 26.1901C36.4064 26.1901 36.7737 25.8228 36.7737 25.3698V21.0652C36.7737 19.7498 36.0428 18.567 34.8663 17.9789ZM24.612 15.4959C23.0566 15.2249 21.95 14.8161 21.2692 14.5025C21.2247 14.4822 21.242 14.4284 21.2459 14.4178C21.5956 13.4763 21.9064 12.2497 22.1547 11.0245C22.512 12.4934 23.4036 13.7551 24.612 14.591V15.4959ZM29.3095 17.7926C28.6104 18.457 27.5151 18.457 26.8158 17.7926L26.0534 17.068C26.182 16.8269 26.2527 16.5536 26.2527 16.2672V15.3937C26.8246 15.5724 27.4326 15.6687 28.0626 15.6687C28.692 15.6687 29.2996 15.5719 29.8725 15.3942L29.8724 16.2671C29.8724 16.5536 29.9431 16.827 30.0717 17.0682L29.3095 17.7926ZM28.0626 14.0281C25.6142 14.0281 23.6223 12.0362 23.6223 9.58784C23.6223 9.1348 23.255 8.76752 22.802 8.76752C22.7099 8.76752 22.6216 8.78336 22.539 8.81136C22.639 8.12088 22.7091 7.4993 22.7435 7.01564C22.8482 5.54258 23.437 4.1848 24.4012 3.19287C25.3743 2.19187 26.6745 1.64062 28.0627 1.64062C29.4508 1.64062 30.7512 2.19187 31.7241 3.19287C32.6884 4.1849 33.2772 5.54258 33.3818 7.01586C33.4187 7.53441 33.4968 8.21184 33.6085 8.96248C32.725 7.46156 31.291 6.36092 29.4055 5.7551C27.7606 5.22659 26.3456 5.25908 26.2864 5.26094C26.0715 5.26685 25.8676 5.35686 25.7186 5.51152L24.2391 7.04583C23.9246 7.37198 23.934 7.8913 24.2602 8.20576C24.5863 8.52024 25.1056 8.51072 25.4201 8.18464L26.6505 6.90856C27.1046 6.93121 27.9876 7.01652 28.9488 7.33162C30.6369 7.88506 31.8132 8.87544 32.4482 10.2771C32.1146 12.4296 30.2644 14.0281 28.0626 14.0281ZM31.5132 14.5987C32.7199 13.768 33.6132 12.5095 33.9704 11.024C34.2188 12.2494 34.5296 13.4763 34.8794 14.418C34.8834 14.4284 34.9007 14.4822 34.856 14.5027C34.176 14.8159 33.0692 15.2248 31.5132 15.496L31.5132 14.5987Z" fill="#127AFF"/>
<path d="M23.6797 22.1265C23.2267 22.1265 22.8594 22.4937 22.8594 22.9468V25.37C22.8594 25.823 23.2267 26.1903 23.6797 26.1903C24.1327 26.1903 24.4999 25.823 24.4999 25.37V22.9468C24.4999 22.4937 24.1327 22.1265 23.6797 22.1265Z" fill="#127AFF"/>
<path d="M32.4453 22.1265C31.9924 22.1265 31.625 22.4937 31.625 22.9468V25.37C31.625 25.823 31.9924 26.1903 32.4453 26.1903C32.8984 26.1903 33.2656 25.823 33.2656 25.37V22.9468C33.2656 22.4937 32.8984 22.1265 32.4453 22.1265Z" fill="#127AFF"/>
<path d="M49.4711 35.1575C47.5662 34.2051 43.9948 34.1941 43.8437 34.1941C43.3907 34.1941 43.0235 34.5611 43.0234 35.0142C43.0234 35.4671 43.3904 35.8345 43.8434 35.8347C44.7662 35.8353 47.4444 35.9783 48.7374 36.625C48.8552 36.6838 48.9803 36.7117 49.1036 36.7117C49.4045 36.7117 49.6942 36.5455 49.8379 36.258C50.0406 35.8527 49.8763 35.36 49.4711 35.1575Z" fill="#127AFF"/>
<path d="M53.5562 46.8317L50.5981 45.9865C50.1995 45.8727 49.9213 45.5037 49.9213 45.0891L49.9215 44.4049C50.197 44.2141 50.4597 44.0004 50.7053 43.762C51.8959 42.6065 52.5517 41.0566 52.5517 39.3978V37.8379L52.8791 37.1832C53.2386 36.4644 53.4284 35.6596 53.4284 34.8558V30.6301C53.4284 30.1771 53.0611 29.8098 52.6081 29.8098H44.7172C41.8477 29.8098 39.5131 32.1444 39.5131 35.014V35.0629C39.5131 35.7311 39.6711 36.4003 39.9699 36.9981L40.3899 37.8379V39.1772C40.3899 41.2997 41.4358 43.2043 43.0201 44.3504V45.0893C43.0201 45.5037 42.7419 45.8727 42.3433 45.9865L39.3855 46.8317C37.9119 47.2527 36.8828 48.6171 36.8828 50.1496V55.1795C36.8828 55.6325 37.2501 55.9998 37.7031 55.9998C38.1562 55.9998 38.5235 55.6325 38.5235 55.1795V50.1495C38.5235 49.3456 39.0633 48.6299 39.8362 48.4091L42.7939 47.564C43.0506 47.4905 43.2883 47.3776 43.5033 47.2349L44.0307 47.7624C44.7034 48.435 45.587 48.7713 46.4707 48.7713C47.3543 48.7713 48.2379 48.435 48.9106 47.7624L49.4379 47.2351C49.6528 47.3778 49.8905 47.4908 50.1471 47.5642L53.1052 48.4093C53.8781 48.6301 54.4179 49.3458 54.4179 50.1497V55.1795C54.4179 55.6325 54.7852 55.9998 55.2382 55.9998C55.6913 55.9998 56.0586 55.6325 56.0586 55.1795V50.1495C56.0589 48.6169 55.0298 47.2525 53.5562 46.8317ZM47.7509 46.6022C47.0451 47.3079 45.8969 47.3079 45.1911 46.6022L44.5179 45.9291C44.6 45.6937 44.6469 45.4443 44.6569 45.1877C45.1743 45.3579 45.7199 45.4589 46.2846 45.4757C46.3477 45.4777 46.4105 45.4786 46.4734 45.4786C47.0972 45.4786 47.7063 45.3841 48.2856 45.2039C48.297 45.4548 48.3435 45.6988 48.4239 45.9293L47.7509 46.6022ZM46.3339 43.8359C43.9611 43.7647 42.0307 41.6749 42.0307 39.1772V37.6442C42.0307 37.5169 42.0011 37.3912 41.944 37.2773L41.4376 36.2643C41.252 35.8931 41.1539 35.4777 41.1539 35.0627V35.0138C41.1539 33.0489 42.7526 31.4503 44.7175 31.4503H51.788V34.8557C51.788 35.406 51.6579 35.9571 51.4119 36.4494L50.9979 37.2773C50.9409 37.3913 50.9113 37.5169 50.9113 37.6442V39.3977C50.9113 40.609 50.4324 41.7407 49.5629 42.5845C48.6939 43.428 47.5458 43.8722 46.3339 43.8359Z" fill="#127AFF"/>
<path d="M41.2109 50.8525C40.7579 50.8525 40.3906 51.2198 40.3906 51.6729V55.1799C40.3906 55.6329 40.7579 56.0002 41.2109 56.0002C41.664 56.0002 42.0313 55.6329 42.0313 55.1799V51.6729C42.0313 51.2197 41.664 50.8525 41.2109 50.8525Z" fill="#127AFF"/>
<path d="M51.7344 50.8525C51.2813 50.8525 50.9141 51.2198 50.9141 51.6729V55.1799C50.9141 55.6329 51.2813 56.0002 51.7344 56.0002C52.1874 56.0002 52.5547 55.6329 52.5547 55.1799V51.6729C52.5547 51.2197 52.1874 50.8525 51.7344 50.8525Z" fill="#127AFF"/>
</g>
<defs>
<clipPath id="clip0_5839_35682">
<rect width="56" height="56" fill="white" transform="translate(0.5)"/>
</clipPath>
</defs>
</svg>
