<svg width="56" height="56" viewBox="0 0 56 56" fill="none" xmlns="http://www.w3.org/2000/svg">
<g clip-path="url(#clip0_7931_24802)">
<path d="M16.8834 40.319C17.0434 40.159 17.1234 39.999 17.1234 39.759C17.1234 39.519 17.0434 39.359 16.8834 39.199C16.7234 39.039 16.4834 38.959 16.3234 38.959C16.0834 38.959 15.9234 39.039 15.7634 39.199C15.6034 39.359 15.5234 39.519 15.5234 39.759C15.5234 39.999 15.6034 40.159 15.7634 40.319C16.0834 40.719 16.5634 40.639 16.8834 40.319Z" fill="#127AFF"/>
<path d="M19.1974 43.0401C21.8374 44.5601 24.8774 45.4401 27.9974 45.4401C32.6374 45.4401 37.0374 43.6001 40.3174 40.3201C47.1174 33.5201 47.1174 22.4801 40.3174 15.6801C33.5174 8.88008 22.4774 8.88008 15.6774 15.6801C10.0774 21.2801 8.95736 29.9201 12.8774 36.7201C13.1174 37.1201 13.5974 37.2001 13.9974 37.0401C14.3974 36.8001 14.4774 36.3201 14.3174 35.9201C10.7174 29.6801 11.7574 21.8401 16.7974 16.8001C22.9574 10.6401 33.0374 10.6401 39.1974 16.8001C45.3574 22.9601 45.3574 33.0401 39.1974 39.2001C34.1574 44.3201 26.2374 45.2801 20.0774 41.6801C19.9174 41.6001 19.7574 41.6001 19.5974 41.6001C19.3574 41.6001 19.0374 41.7601 18.8774 42.0001C18.7974 42.1601 18.7174 42.4001 18.7974 42.6401C18.8774 42.8001 19.0374 42.9601 19.1974 43.0401Z" fill="#127AFF"/>
<path d="M55.6784 32.8003V23.2003C55.6784 22.8003 55.3584 22.4803 55.0384 22.4003L50.8784 21.7603L48.6384 16.3203L51.1184 12.8803C51.3584 12.5603 51.2784 12.1603 51.0384 11.8403L44.2384 5.04031C43.9984 4.80031 43.5184 4.72031 43.1984 4.96031L39.7584 7.44031L34.3184 5.20031L33.5984 0.960313C33.5184 0.560313 33.1984 0.320312 32.7984 0.320312H23.1984C22.7984 0.320312 22.4784 0.640313 22.3984 0.960313L21.7584 5.12031L16.3184 7.36031L12.7984 4.96031C12.4784 4.72031 12.0784 4.80031 11.7584 5.04031L4.95836 11.8403C4.63836 12.1603 4.63836 12.5603 4.87836 12.8803L7.35836 16.3203L5.11836 21.7603L0.958359 22.4003C0.558359 22.4803 0.318359 22.8003 0.318359 23.2003V32.8003C0.318359 33.2003 0.638359 33.5203 0.958359 33.6003L5.11836 34.2403L7.35836 39.6803L4.95836 43.2003C4.71836 43.5203 4.79836 43.9203 5.03836 44.2403L11.8384 51.0403C12.1584 51.2803 12.5584 51.3603 12.8784 51.1203L16.3184 48.6403L21.7584 50.8803L22.3984 55.0403C22.4784 55.4403 22.7984 55.6803 23.1984 55.6803H32.7984C33.1984 55.6803 33.5184 55.3603 33.5984 55.0403L34.2384 50.8803L39.6784 48.6403L43.1184 51.1203C43.4384 51.3603 43.8384 51.2803 44.1584 51.0403L50.9584 44.2403C51.1984 43.9203 51.2784 43.5203 51.0384 43.2003L48.5584 39.7603L50.7984 34.3203L54.9584 33.6803C55.4384 33.5203 55.6784 33.2003 55.6784 32.8003ZM50.1584 32.7203C49.9184 32.8003 49.6784 32.9603 49.5184 33.2003L46.8784 39.5203C46.7984 39.7603 46.7984 40.0803 46.9584 40.3203L49.2784 43.6003L43.4384 49.4403L40.1584 47.1203C39.9184 46.9603 39.5984 46.9603 39.3584 47.0403L33.0384 49.6803C32.7984 49.7603 32.5584 50.0003 32.5584 50.3203L31.9184 54.3203H23.6784L23.0384 50.3203C22.9584 50.0803 22.7984 49.8403 22.5584 49.6803L16.2384 47.0403C15.9984 46.9603 15.6784 46.9603 15.4384 47.1203L12.1584 49.4403L6.31836 43.6003L8.63836 40.3203C8.79836 40.0803 8.79836 39.8403 8.71836 39.5203L6.07836 33.2003C6.39836 32.9603 6.15836 32.8003 5.83836 32.7203L1.83836 32.0803V23.8403L5.83836 23.2003C6.15836 23.2003 6.39836 23.0403 6.47836 22.8003L9.11836 16.4803C9.19836 16.2403 9.19836 15.9203 9.03836 15.6803L6.71836 12.4003L12.5584 6.56031L15.8384 8.88031C16.0784 9.04031 16.3184 9.12031 16.6384 8.96031L22.9584 6.32031C23.0384 6.40031 23.1984 6.16031 23.2784 5.84031L23.9184 1.84031H32.1584L32.7984 5.84031C32.7984 6.16031 32.9584 6.40031 33.1984 6.48031L39.5184 9.12031C39.7584 9.20031 40.0784 9.20031 40.3184 9.04031L43.5984 6.72031L49.4384 12.5603L47.1184 15.8403C46.9584 16.0803 46.9584 16.3203 47.0384 16.6403L49.6784 22.9603C49.7584 23.2003 49.9984 23.4403 50.3184 23.4403L54.3184 24.0803V32.3203L50.1584 32.7203Z" fill="#127AFF"/>
<path d="M39.2841 35.9998C40.1641 33.7598 39.6041 31.1998 37.7641 29.5198C36.4841 28.3198 34.7241 27.8398 32.9641 28.0798H32.8041L27.8441 23.1998V23.0398C28.1641 21.1998 27.5241 19.3598 26.2441 18.0798C24.5641 16.3998 22.1641 15.9198 20.0041 16.7998C19.7641 16.8798 19.6041 17.1198 19.5241 17.3598C19.4441 17.5998 19.5241 17.9198 19.7641 18.0798L21.3641 19.6798C21.8441 20.1598 21.8441 20.8798 21.3641 21.2798C20.9641 21.6798 20.1641 21.6798 19.7641 21.2798L18.1641 19.6798C18.0041 19.5198 17.6841 19.4398 17.4441 19.4398C17.2041 19.5198 16.9641 19.6798 16.8841 19.9198C16.0041 22.1598 16.5641 24.7998 18.3241 26.3998C19.6041 27.5998 21.3641 28.0798 23.1241 27.8398H23.2841L28.3241 32.8798V33.0398C28.0041 34.8798 28.6441 36.7198 29.9241 37.9998C31.0441 39.1198 32.4841 39.6798 34.0041 39.6798C34.7241 39.6798 35.4441 39.5198 36.1641 39.2798C36.4041 39.1998 36.5641 38.9598 36.6441 38.7198C36.7241 38.4798 36.6441 38.1598 36.4041 37.9998L34.8041 36.3998C34.3241 35.9198 34.3241 35.1998 34.8041 34.7998C35.2841 34.3198 36.0041 34.3198 36.4041 34.7998L38.0041 36.3998C38.1641 36.5598 38.4841 36.6398 38.7241 36.6398C38.9641 36.4798 39.1241 36.3198 39.2841 35.9998ZM37.5241 33.5998C36.4041 32.4798 34.6441 32.4798 33.6041 33.5998C32.5641 34.6398 32.5641 36.3998 33.6041 37.5198L34.2441 38.1598L33.4441 38.0798C32.4841 37.9998 31.6041 37.5198 30.9641 36.8798C29.9241 35.8398 29.5241 34.2398 29.8441 32.7998C29.9241 32.5598 29.8441 32.2398 29.6041 31.9998L24.0041 26.3998C23.8441 26.2398 23.5241 26.1598 23.2041 26.1598C21.8441 26.5598 20.3241 26.1598 19.2841 25.1998C18.5641 24.4798 18.0841 23.5998 17.9241 22.5598L17.8441 21.7598L18.4841 22.3998C19.5241 23.4398 21.2841 23.4398 22.4041 22.3998C23.4441 21.3598 23.4441 19.5998 22.4041 18.4798L21.7641 17.8398L22.5641 17.9198C23.5241 17.9998 24.4041 18.4798 25.0441 19.1198C26.0841 20.1598 26.4841 21.7598 26.1641 23.1998C26.0841 23.4398 26.1641 23.7598 26.4041 23.9998L32.0041 29.5998C32.2441 29.8398 32.4841 29.8398 32.8041 29.8398C34.1641 29.4398 35.6841 29.8398 36.7241 30.7998C37.4441 31.4398 37.9241 32.3998 38.0841 33.4398L38.1641 34.3198L37.5241 33.5998Z" fill="#127AFF"/>
<path d="M37.9233 20.9599C37.9233 20.7199 37.9233 20.5599 37.7633 20.3999C36.0033 18.1599 33.5233 16.5599 30.7233 15.9199C30.6433 15.9199 30.6433 15.9199 30.5633 15.9199C30.4033 15.9199 30.2433 15.9999 30.1633 16.0799C30.0033 16.1599 29.8433 16.3999 29.8433 16.5599C29.7633 16.9599 30.0033 17.4399 30.4833 17.5199C32.8833 18.0799 35.0433 19.4399 36.5633 21.4399C36.8033 21.7599 37.3633 21.8399 37.6833 21.5999C37.7633 21.3599 37.9233 21.1999 37.9233 20.9599Z" fill="#127AFF"/>
<path d="M38.3193 24.0796C38.2393 24.2396 38.2393 24.4796 38.2393 24.7196C38.3993 25.1996 38.8793 25.4396 39.2793 25.2796C39.6793 25.1196 39.9193 24.7196 39.8393 24.2396V24.1596C39.7593 23.8396 39.4393 23.5996 39.0393 23.5996C38.9593 23.5996 38.8793 23.5996 38.7993 23.5996C38.5593 23.7596 38.3993 23.8396 38.3193 24.0796Z" fill="#127AFF"/>
</g>
<defs>
<clipPath id="clip0_7931_24802">
<rect width="56" height="56" fill="white"/>
</clipPath>
</defs>
</svg>
