<svg width="57" height="56" viewBox="0 0 57 56" fill="none" xmlns="http://www.w3.org/2000/svg">
<g clip-path="url(#clip0_5839_35676)">
<path d="M55.6002 0.899768C54.4821 -0.218765 52.5787 -0.296951 50.24 0.679306C48.475 1.4163 46.5648 2.70061 44.779 4.34081C44.6828 4.24467 44.5884 4.14726 44.491 4.05284C44.2756 3.84306 43.9902 3.72557 43.6886 3.72899L27.4225 4.07206C27.1397 4.07805 26.8696 4.19341 26.6693 4.39336L21.0416 10.021C20.613 10.45 20.613 11.1455 21.0416 11.5741C21.4706 12.003 22.1657 12.003 22.5946 11.5741L27.9104 6.25871L43.1878 5.93614C41.8489 7.40074 40.7513 8.94648 39.9972 10.427C38.4326 10.4235 36.8668 11.017 35.6756 12.2081C34.525 13.3587 33.891 14.8891 33.891 16.5165C33.891 18.1438 34.5246 19.6738 35.6756 20.8244C36.8262 21.9754 38.3566 22.609 39.9839 22.609C41.6114 22.609 43.1413 21.9754 44.2923 20.8244C45.4429 19.6738 46.0765 18.1438 46.0765 16.5165C46.0765 16.2452 46.0573 15.9769 46.0226 15.7128C46.0222 15.709 46.0218 15.7051 46.0214 15.7013C45.8462 14.3828 45.2485 13.1643 44.2923 12.2081C43.6916 11.6078 42.996 11.1597 42.2539 10.8627C42.893 9.73776 43.7553 8.57264 44.7806 7.44859L50.5655 13.2335L50.2417 28.59L25.4824 53.3489L3.15106 31.0176L16.344 17.8247C16.773 17.3958 16.773 16.7006 16.344 16.2717C15.915 15.8427 15.2203 15.8427 14.791 16.2717L0.821716 30.2413C0.615784 30.4473 0.5 30.7262 0.5 31.0176C0.5 31.309 0.615784 31.588 0.821716 31.7939L24.7061 55.6782C24.9206 55.8927 25.2012 56 25.4824 56C25.7635 56 26.0446 55.8927 26.2591 55.6782L52.1066 29.8307C52.3066 29.6303 52.4219 29.3603 52.4279 29.077L52.7714 12.811C52.7774 12.5119 52.6612 12.223 52.4497 12.0116L52.1592 11.721C53.7994 9.9352 55.0837 8.02496 55.8206 6.25999C56.797 3.92168 56.7187 2.01787 55.6002 0.899768ZM39.9835 20.413C38.9427 20.413 37.9643 20.0075 37.2282 19.2714C36.4925 18.5356 36.087 17.5568 36.087 16.516C36.087 15.4753 36.4921 14.4969 37.2282 13.7607C37.7627 13.2262 38.4151 12.881 39.1021 12.7225C38.665 14.4332 38.8936 15.8239 39.7849 16.7151C40.3851 17.3154 41.2076 17.6162 42.2018 17.6162C42.6884 17.6162 43.2169 17.5418 43.7796 17.3978C43.6177 18.1015 43.2622 18.748 42.7393 19.2714C42.0031 20.0075 41.0247 20.413 39.9835 20.413ZM43.6365 15.1553C42.3722 15.5671 41.6173 15.4419 41.3379 15.1621C40.9867 14.8109 40.9986 13.9436 41.3451 12.8665C41.854 13.0554 42.3308 13.3527 42.7393 13.7607C43.1413 14.1628 43.4438 14.6378 43.6365 15.1553ZM53.7938 5.41405C53.1615 6.92821 52.0438 8.58808 50.6044 10.1663L46.3337 5.89513C47.9119 4.45574 49.5714 3.33806 51.0859 2.70574C52.4638 2.13066 53.6263 2.03111 54.0472 2.45238C54.4689 2.87364 54.3694 4.03618 53.7938 5.41405Z" fill="#127AFF"/>
<path d="M18.2687 30.1314C17.1343 31.2657 16.5096 32.7735 16.5096 34.3778C16.5096 35.5117 16.8232 36.5965 17.4069 37.5365L16.3217 38.6217C15.8928 39.0506 15.8928 39.7457 16.3217 40.1747C16.5361 40.3892 16.8173 40.4964 17.098 40.4964C17.3791 40.4964 17.6603 40.3892 17.8748 40.1747L18.8877 39.1617C19.9276 39.9491 21.2043 40.3828 22.518 40.3828C22.6124 40.3828 22.7077 40.3806 22.8026 40.3759C24.4868 40.2956 25.9988 39.4655 26.9507 38.0991C27.8676 36.7832 28.1162 35.152 27.633 33.6237C27.4061 32.9064 27.0284 32.2096 26.5072 31.5422L30.9724 27.0766C31.1834 27.5547 31.2954 28.0755 31.2954 28.6138C31.2954 29.6311 30.8993 30.5877 30.1798 31.3072C29.7509 31.7357 29.7509 32.4313 30.1798 32.8602C30.6084 33.2888 31.3035 33.2892 31.7328 32.8602C32.8668 31.7259 33.4914 30.2177 33.4914 28.6138C33.4914 27.4799 33.1783 26.3947 32.5946 25.4548L33.6798 24.3696C34.1084 23.941 34.1084 23.2455 33.6798 22.8165C33.2509 22.388 32.5557 22.388 32.1268 22.8165L31.1134 23.83C29.9978 22.9857 28.6106 22.5469 27.1985 22.6153C25.5143 22.6957 24.0023 23.5257 23.0504 24.8921C22.1335 26.2085 21.8852 27.8397 22.368 29.3675C22.5949 30.0849 22.9731 30.7817 23.4943 31.449L19.0287 35.9146C18.8176 35.4365 18.7057 34.9157 18.7057 34.3774C18.7057 33.3601 19.1022 32.4035 19.8217 31.6845C20.2502 31.2555 20.2502 30.5604 19.8217 30.1314C19.3928 29.7025 18.6976 29.7025 18.2687 30.1314ZM25.5391 34.286C25.8151 35.1593 25.6732 36.0915 25.149 36.8439C24.5893 37.6471 23.6964 38.1346 22.6979 38.1825C21.904 38.2209 21.1231 38.0073 20.4634 37.586L24.9371 33.1123C25.2118 33.5007 25.4148 33.8933 25.5391 34.286ZM24.462 28.7053C24.186 27.8324 24.3283 26.9001 24.8525 26.1473C25.4118 25.3445 26.3052 24.8566 27.3032 24.8092C28.0961 24.7712 28.8776 24.9844 29.5377 25.4057L25.064 29.8793C24.7892 29.4905 24.5864 29.0984 24.462 28.7053Z" fill="#127AFF"/>
<path d="M17.6829 14.3419C17.8598 14.7695 18.3036 15.0482 18.7655 15.0182C19.2051 14.99 19.5943 14.6918 19.7362 14.2748C19.8823 13.8462 19.7426 13.3614 19.3931 13.0738C19.0291 12.7743 18.498 12.7435 18.102 12.999C17.6628 13.2827 17.4829 13.8582 17.6829 14.3419Z" fill="#127AFF"/>
</g>
<defs>
<clipPath id="clip0_5839_35676">
<rect width="56" height="56" fill="white" transform="translate(0.5)"/>
</clipPath>
</defs>
</svg>
