<svg width="56" height="56" viewBox="0 0 56 56" fill="none" xmlns="http://www.w3.org/2000/svg">
<path d="M17.2179 29.3172L15.9422 28.0918L10.3027 33.9666L13.6426 37.3065L14.8937 36.0555L12.7801 33.9409L17.2179 29.3172Z" fill="white"/>
<path d="M55.6058 26.0329L40.5747 11.0018H34.0152V0.384766H9.76057L0.394531 9.7508V42.853H14.1843L26.9469 55.6155L55.6058 26.0329ZM24.0475 14.5409H5.70306V11.0018H11.0116V5.69329H28.7066V11.0018H27.445L24.0475 14.5409ZM3.41508 9.23229L9.24206 3.40531V9.23229H3.41508ZM38.0727 12.7713L34.0152 16.8288L29.9577 12.7713H38.0727ZM32.2457 11.0018H30.4762V3.92378H11.0116V2.15427H32.2457V11.0018ZM2.16404 41.0834V11.0018H3.93354V16.3103H22.3488L20.65 18.0798H7.47256V19.8493H18.9514L5.34915 34.0178L12.4148 41.0834H2.16404ZM7.82646 33.993L27.8352 13.1509L34.0152 19.3309L40.2084 13.1376L53.1232 26.0523L26.9274 53.0939L7.82646 33.993Z" fill="white"/>
<path d="M33.6091 30.4835L35.8245 27.6638L35.1291 27.1171C32.7642 25.2573 29.9312 24.2734 26.9354 24.2734C23.9396 24.2734 21.1066 25.2573 18.7417 27.1171L18.0463 27.6638L20.2617 30.4835C18.3126 32.3202 17.2031 34.8436 17.2031 37.5447C17.2031 42.9108 21.5694 47.2771 26.9354 47.2771C32.3014 47.2771 36.6677 42.9108 36.6677 37.5447C36.6677 34.8436 35.5582 32.3202 33.6091 30.4835ZM34.8478 36.66H28.7554L32.5146 31.8752C33.8276 33.1617 34.6469 34.841 34.8478 36.66ZM26.9354 26.043C29.2348 26.043 31.4247 26.7128 33.3198 27.9877L26.9354 36.1123L20.5511 27.9868C22.4461 26.7127 24.6359 26.043 26.9354 26.043ZM21.3552 31.8752L25.7542 37.474L20.72 42.5082C19.6291 41.1466 18.9726 39.4222 18.9726 37.5447C18.9726 35.3895 19.8326 33.3678 21.3552 31.8752ZM26.9354 45.5075C25.058 45.5075 23.3335 44.8511 21.9711 43.7602L27.3017 38.4295H34.846C34.4036 42.4047 31.0265 45.5075 26.9354 45.5075Z" fill="white"/>
<path d="M38.6914 17.8234L39.9424 16.5723L49.673 26.3029L48.422 27.5539L38.6914 17.8234Z" fill="white"/>
<path d="M36.0371 20.4776L37.2882 19.2266L47.0188 28.9572L45.7677 30.2082L36.0371 20.4776Z" fill="white"/>
<path d="M27.1914 16.9385L28.4425 15.6875L44.3657 31.6107L43.1146 32.8618L27.1914 16.9385Z" fill="white"/>
<path d="M3.93555 18.0801H5.70505V19.8496H3.93555V18.0801Z" fill="white"/>
<path d="M3.93555 21.6191H13.6678V23.3887H3.93555V21.6191Z" fill="white"/>
<path d="M3.93555 25.1582H10.1288V26.9277H3.93555V25.1582Z" fill="white"/>
</svg>
