<svg width="56" height="56" viewBox="0 0 56 56" fill="none" xmlns="http://www.w3.org/2000/svg">
<path d="M28.0783 6.87891C27.5983 6.87891 27.2783 7.27891 27.2783 7.67891C27.2783 8.15891 27.6783 8.47891 28.0783 8.47891C28.5583 8.47891 28.8783 8.07891 28.8783 7.67891C28.8783 7.27891 28.5583 6.87891 28.0783 6.87891Z" fill="#127AFF"/>
<path d="M32.9609 15.8396L26.9609 21.8396L24.2409 19.1196C23.9209 18.7996 23.4409 18.7996 23.1209 19.1196C22.8009 19.4396 22.8009 19.9196 23.1209 20.2396L26.4009 23.5196C26.7209 23.8396 27.2809 23.8396 27.5209 23.5196L34.0809 16.9596C34.4009 16.6396 34.4009 16.1596 34.0809 15.8396C33.8409 15.5196 33.2809 15.5196 32.9609 15.8396Z" fill="#127AFF"/>
<path d="M24.0784 7.75969C23.9984 7.75969 23.9184 7.67969 23.7584 7.67969C23.6784 7.67969 23.5184 7.67969 23.4384 7.75969C19.1184 9.59969 16.3184 13.8397 16.3184 18.5597C16.3184 25.0397 21.5984 30.3197 28.0784 30.3197C34.5584 30.3197 39.8384 25.0397 39.8384 18.5597C39.8384 13.8397 37.0384 9.59969 32.7184 7.75969C32.4784 7.67969 32.3184 7.67969 32.0784 7.75969C31.8384 7.83969 31.6784 7.99969 31.5984 8.15969C31.5184 8.31969 31.5184 8.55969 31.5984 8.79969C31.6784 9.03969 31.8384 9.19969 31.9984 9.27969C35.7584 10.8797 38.1584 14.5597 38.1584 18.5597C38.1584 24.1597 33.5984 28.7197 27.9984 28.7197C22.3984 28.7197 17.8384 24.1597 17.8384 18.5597C17.8384 14.4797 20.2384 10.8797 23.9984 9.27969C24.1584 9.19969 24.3184 9.03969 24.3984 8.79969C24.4784 8.55969 24.4784 8.39969 24.3984 8.15969C24.4784 7.99969 24.3184 7.83969 24.0784 7.75969Z" fill="#127AFF"/>
<path d="M37.1252 39.8402C37.9252 37.0402 39.6052 33.6802 41.3652 31.2002C41.6052 30.8002 41.9252 30.3202 42.3252 29.7602C43.9252 27.6002 46.3252 24.4002 46.4052 19.3602C46.4852 14.2402 44.5652 9.36023 40.9652 5.68023C37.5252 2.16023 33.0452 0.240234 28.3252 0.240234H28.1652C18.0852 0.240234 10.0052 8.16024 9.84522 18.1602C9.76522 24.1602 12.9652 28.4802 14.3252 30.3202C14.6452 30.7202 14.8052 30.9602 14.8852 31.2002C16.6452 33.6002 18.2452 37.0402 19.0452 39.7602C19.2852 40.5602 19.7652 41.2002 20.4852 41.5202L20.6452 41.6002V48.2402C20.6452 49.2002 21.0452 50.0002 21.7652 50.6402L21.8452 50.7202V50.8002C22.4852 53.6802 25.0452 55.6802 27.9252 55.6802C30.8852 55.6802 33.3652 53.6802 34.0052 50.8002V50.7202L34.0852 50.6402C34.8052 50.0802 35.2052 49.2002 35.2052 48.2402V41.6002L35.3652 41.5202C36.3252 41.2002 36.8852 40.6402 37.1252 39.8402ZM32.1652 51.7602C31.3652 53.2002 29.7652 54.0802 28.1652 54.0802C26.4852 54.0802 24.9652 53.2002 24.1652 51.7602L23.9252 51.3602H32.4852L32.1652 51.7602ZM33.8452 48.3202C33.8452 49.0402 33.2052 49.6802 32.4852 49.6802H23.7652C23.0452 49.6802 22.4052 49.0402 22.4052 48.3202V46.6402H33.9252V48.3202H33.8452ZM33.8452 45.0402H22.3252V42.0002H33.8452V45.0402ZM35.5252 39.3602C35.3652 39.9202 34.8052 40.3202 34.2452 40.3202H21.9252C21.2852 40.3202 20.8052 39.9202 20.6452 39.3602C19.7652 36.4002 18.0052 32.8802 16.1652 30.2402C16.0852 30.0802 15.8452 29.7602 15.6052 29.4402C14.2452 27.6002 11.2852 23.6802 11.4452 18.2402C11.6052 9.04023 18.8852 1.92023 28.0852 1.92023H28.2452C32.5652 2.00023 36.6452 3.76023 39.7652 6.88023C43.0452 10.2402 44.8052 14.6402 44.7252 19.3602C44.6452 23.8402 42.4052 26.8002 40.9652 28.8002C40.5652 29.3602 40.1652 29.8402 39.9252 30.2402C38.1652 32.8802 36.4052 36.4802 35.5252 39.3602Z" fill="#127AFF"/>
</svg>
