<svg width="81" height="80" viewBox="0 0 81 80" fill="none" xmlns="http://www.w3.org/2000/svg">
<mask id="mask0_13890_831" style="mask-type:luminance" maskUnits="userSpaceOnUse" x="11" y="0" width="59" height="80">
<path d="M69.5 0H11.5V80H69.5V0Z" fill="white"/>
</mask>
<g mask="url(#mask0_13890_831)">
<path d="M40.5 80L11.5 68.2511V0H69.5V68.2511L40.5 80ZM13.0183 67.1521L40.5 78.2863L67.9817 67.1521V1.5989H13.0183V67.1521Z" fill="white"/>
<path d="M15.9147 61.6882V65.2989V65.3567L40.3597 74.8249L64.8047 65.3567V65.2989V61.6882L40.3597 71.1562L15.9147 61.6882Z" fill="#394663"/>
<path d="M15.9147 56.5665V60.177V60.2351L40.3597 69.7034L64.8047 60.2351V60.177V56.5665L40.3597 66.0348L15.9147 56.5665Z" fill="#5E6D8E"/>
<path d="M15.9147 51.4473V55.0578V55.1159L40.3597 64.5839L64.8047 55.1159V55.0578V51.4473L40.3597 60.9153L15.9147 51.4473Z" fill="#899FB6"/>
<path d="M23.7382 20.2182V20.7579H23.4117C23.1842 20.7729 22.9593 20.7014 22.7816 20.5576C22.6297 20.4231 22.563 20.1999 22.563 19.8896V18.8196H22.2213V18.2907H22.5614V17.6793H23.1854V18.2907H23.7335V18.8196H23.1854V19.8896C23.1767 19.9786 23.2016 20.0676 23.2553 20.1387C23.3227 20.1937 23.4089 20.2195 23.4952 20.2106L23.7382 20.2182Z" fill="white"/>
<path d="M26.4667 19.6454H24.6705C24.6635 19.8244 24.7268 19.999 24.8467 20.1315C24.9569 20.2345 25.1032 20.2895 25.2536 20.2843C25.3824 20.2894 25.5094 20.2518 25.6149 20.1773C25.7094 20.107 25.7747 20.0042 25.7987 19.8884H26.4576C26.4257 20.0597 26.3527 20.2204 26.245 20.3569C26.1373 20.4933 25.9981 20.6011 25.8397 20.671C25.6657 20.7505 25.4764 20.7902 25.2855 20.7872C25.0634 20.7916 24.844 20.739 24.6477 20.6343C24.4644 20.5341 24.314 20.3821 24.215 20.1972C24.1127 19.9874 24.0594 19.7568 24.0594 19.5231C24.0594 19.2894 24.1127 19.0587 24.215 18.849C24.3132 18.6631 24.4638 18.5104 24.6477 18.4103C24.8442 18.3062 25.0635 18.2536 25.2855 18.2574C25.5065 18.253 25.725 18.3056 25.9201 18.4103C26.0963 18.507 26.2421 18.6516 26.3407 18.8276C26.4428 19.0115 26.4951 19.2191 26.4925 19.4298C26.49 19.5022 26.4814 19.5744 26.4667 19.6454ZM25.7075 18.9116C25.5926 18.8094 25.4434 18.7548 25.29 18.7588C25.1341 18.7528 24.9818 18.8076 24.8649 18.9116C24.8041 18.9712 24.7559 19.0425 24.7233 19.1214C24.6907 19.2001 24.6743 19.2848 24.6751 19.3702H25.8639C25.8737 19.2865 25.8643 19.2016 25.8364 19.1221C25.8084 19.0426 25.7628 18.9706 25.703 18.9116H25.7075Z" fill="white"/>
<path d="M28.8217 18.5178C29.0355 18.6949 29.1766 18.9454 29.218 19.2209H28.5591C28.5363 19.1005 28.4717 18.9921 28.3768 18.9152C28.2739 18.8372 28.1473 18.7973 28.0186 18.8021C27.9404 18.8005 27.8629 18.8161 27.7915 18.8481C27.7202 18.8801 27.6567 18.9275 27.6055 18.987C27.4977 19.1466 27.44 19.3351 27.44 19.5282C27.44 19.7212 27.4977 19.9097 27.6055 20.0693C27.6569 20.1285 27.7204 20.1758 27.7917 20.2077C27.8631 20.2397 27.9405 20.2555 28.0186 20.2542C28.1476 20.2592 28.2744 20.2187 28.3768 20.1396C28.4717 20.0627 28.5363 19.9543 28.5591 19.8339H29.218C29.1766 20.1095 29.0355 20.3599 28.8217 20.537C28.5969 20.7138 28.3174 20.8053 28.0322 20.7954C27.8102 20.7996 27.5908 20.7469 27.3945 20.6425C27.2111 20.5422 27.0608 20.3903 26.9618 20.2053C26.8594 19.9955 26.8062 19.7649 26.8062 19.5312C26.8062 19.2975 26.8594 19.0669 26.9618 18.8571C27.06 18.6712 27.2105 18.5186 27.3945 18.4184C27.591 18.3145 27.8103 18.262 28.0322 18.2655C28.3166 18.2539 28.5961 18.3432 28.8217 18.5178Z" fill="white"/>
<path d="M31.7945 18.5365C31.9744 18.7573 32.0645 19.0387 32.0465 19.3237V20.7591H31.4331V19.3955C31.4433 19.2287 31.3889 19.0644 31.2813 18.937C31.2281 18.8819 31.1639 18.839 31.093 18.8108C31.0221 18.7826 30.946 18.7698 30.8698 18.7734C30.7907 18.7699 30.7117 18.7837 30.6383 18.8138C30.565 18.8439 30.4989 18.8895 30.4447 18.9477C30.3329 19.0883 30.2786 19.2665 30.2929 19.446V20.756H29.6688V17.4634H30.2929V18.7857C30.3541 18.6237 30.4667 18.4867 30.6132 18.3959C30.7685 18.3005 30.9476 18.2516 31.1295 18.2553C31.2539 18.251 31.3778 18.2739 31.4925 18.3225C31.6074 18.3711 31.7104 18.4441 31.7945 18.5365Z" fill="white"/>
<path d="M33.5859 18.3907C33.7383 18.2997 33.9127 18.2526 34.0899 18.2546V18.9272H33.9093C33.4528 18.9272 33.224 19.1412 33.223 19.5692V20.7584H32.6005V18.2913H33.223V18.7621C33.3106 18.6093 33.4355 18.4814 33.5859 18.3907Z" fill="white"/>
<path d="M36.7173 19.644H34.9288C34.9221 19.8232 34.986 19.9979 35.1064 20.1301C35.1609 20.1813 35.2249 20.2211 35.2947 20.2474C35.3645 20.2736 35.4388 20.2856 35.5133 20.2829C35.6417 20.2881 35.7681 20.2505 35.8731 20.1759C35.968 20.1062 36.0336 20.003 36.0568 19.887H36.7158C36.6837 20.0544 36.6124 20.2116 36.5078 20.3456C36.3991 20.4836 36.259 20.5932 36.0993 20.6651C35.9102 20.7478 35.7052 20.7872 35.4991 20.7806C35.2931 20.774 35.091 20.7215 34.9075 20.6269C34.7232 20.5274 34.5721 20.3753 34.4732 20.1897C34.3709 19.9799 34.3176 19.7493 34.3176 19.5156C34.3176 19.2819 34.3709 19.0513 34.4732 18.8415C34.5714 18.655 34.7226 18.5023 34.9075 18.4028C35.1034 18.2987 35.3222 18.2462 35.5437 18.2499C35.7647 18.2453 35.9832 18.2979 36.1783 18.4028C36.3552 18.4986 36.5012 18.6434 36.5989 18.8201C36.7009 19.004 36.7532 19.2117 36.7507 19.4223C36.7468 19.4972 36.7356 19.5714 36.7173 19.644ZM35.9581 18.9103C35.8438 18.807 35.6942 18.7522 35.5406 18.7574C35.3847 18.7515 35.2324 18.8062 35.1155 18.9103C35.0553 18.9703 35.0075 19.0417 34.9749 19.1204C34.9423 19.1991 34.9256 19.2836 34.9257 19.3689H36.1161C36.1256 19.285 36.1159 19.2 36.0878 19.1205C36.0596 19.041 36.0137 18.9691 35.9536 18.9103H35.9581Z" fill="white"/>
<path d="M38.2467 20.1311L38.8662 18.2968H39.5297L38.6188 20.7639H37.8596L36.9486 18.2968H37.6166L38.2467 20.1311Z" fill="white"/>
<path d="M39.9085 17.3365C39.9884 17.2741 40.0867 17.2401 40.1879 17.2401C40.289 17.2401 40.3873 17.2741 40.4672 17.3365C40.5003 17.368 40.5267 17.4059 40.5447 17.4479C40.5627 17.49 40.572 17.5353 40.572 17.5811C40.572 17.6269 40.5627 17.6722 40.5447 17.7143C40.5267 17.7563 40.5003 17.7942 40.4672 17.8256C40.3873 17.8881 40.289 17.922 40.1879 17.922C40.0867 17.922 39.9884 17.8881 39.9085 17.8256C39.8754 17.7942 39.8491 17.7563 39.831 17.7143C39.813 17.6722 39.8037 17.6269 39.8037 17.5811C39.8037 17.5353 39.813 17.49 39.831 17.4479C39.8491 17.4059 39.8754 17.368 39.9085 17.3365ZM40.4976 18.2919V20.759H39.8736V18.2919H40.4976Z" fill="white"/>
<path d="M43.347 19.644H41.5508C41.5442 19.8232 41.608 19.9979 41.7284 20.13C41.8387 20.2332 41.985 20.2881 42.1353 20.2829C42.2637 20.288 42.3902 20.2504 42.4952 20.176C42.5906 20.1066 42.6562 20.0032 42.6789 19.8871H43.3394C43.3063 20.0544 43.2345 20.2114 43.1298 20.3456C43.0219 20.4843 42.8816 20.5941 42.7214 20.665C42.5323 20.7478 42.3273 20.7872 42.1212 20.7806C41.9152 20.774 41.7131 20.7215 41.5296 20.6269C41.3457 20.5267 41.1948 20.3748 41.0953 20.1897C40.9929 19.9799 40.9397 19.7493 40.9397 19.5156C40.9397 19.2818 40.9929 19.0512 41.0953 18.8415C41.1939 18.6553 41.345 18.5027 41.5296 18.4028C41.7255 18.2988 41.9442 18.2462 42.1657 18.2499C42.3868 18.2451 42.6054 18.2977 42.8004 18.4028C42.9773 18.4986 43.1232 18.6434 43.221 18.82C43.323 19.0041 43.3753 19.2117 43.3728 19.4223C43.3713 19.4969 43.3627 19.5711 43.347 19.644ZM42.5878 18.9103C42.4724 18.8077 42.3226 18.7531 42.1688 18.7574C42.0133 18.7519 41.8617 18.8066 41.7451 18.9103C41.6844 18.97 41.6362 19.0413 41.6034 19.1201C41.5705 19.1988 41.5537 19.2834 41.5538 19.3688H42.7442C42.7538 19.2853 42.7444 19.2006 42.7168 19.1211C42.6893 19.0417 42.6441 18.9696 42.5848 18.9103H42.5878Z" fill="white"/>
<path d="M47.3179 18.2917L46.6589 20.7589H45.9696L45.4427 18.9643L44.9037 20.7589H44.2129L43.5585 18.2917H44.1886L44.5864 20.1979L45.1299 18.2917H45.7904L46.3386 20.1979L46.7409 18.2917H47.3179Z" fill="white"/>
<path d="M49.9125 19.6454H48.1163C48.1099 19.8243 48.1731 19.9986 48.2924 20.1315C48.4027 20.2344 48.549 20.2893 48.6993 20.2843C48.8282 20.2896 48.9552 20.252 49.0607 20.1773C49.155 20.107 49.2204 20.0042 49.2444 19.8884H49.9033C49.8714 20.0597 49.7985 20.2204 49.6907 20.3569C49.583 20.4933 49.4439 20.6011 49.2854 20.671C49.1115 20.7505 48.9222 20.7902 48.7312 20.7872C48.5092 20.7916 48.2897 20.739 48.0935 20.6343C47.9101 20.5341 47.7597 20.3821 47.6608 20.1972C47.5584 19.9874 47.5051 19.7568 47.5051 19.5231C47.5051 19.2894 47.5584 19.0587 47.6608 18.849C47.759 18.6631 47.9095 18.5104 48.0935 18.4103C48.2899 18.3062 48.5092 18.2536 48.7312 18.2574C48.9522 18.253 49.1707 18.3056 49.3659 18.4103C49.5421 18.507 49.6878 18.6516 49.7864 18.8276C49.8885 19.0115 49.9409 19.2191 49.9383 19.4298C49.9357 19.5022 49.9271 19.5744 49.9125 19.6454ZM49.1533 18.9116C49.0389 18.8085 48.8893 18.7537 48.7358 18.7588C48.5798 18.7528 48.4276 18.8076 48.3106 18.9116C48.2501 18.9714 48.2021 19.0427 48.1695 19.1215C48.1369 19.2003 48.1204 19.2848 48.1209 19.3702H49.3097C49.3195 19.2865 49.31 19.2016 49.2821 19.1221C49.2542 19.0426 49.2086 18.9706 49.1487 18.9116H49.1533Z" fill="white"/>
<path d="M51.3607 18.3907C51.5131 18.2997 51.6875 18.2526 51.8647 18.2546V18.9272H51.6841C51.2275 18.9272 50.9988 19.1412 50.9978 19.5692V20.7584H50.3752V18.2913H50.9978V18.7621C51.0849 18.6089 51.2099 18.481 51.3607 18.3907Z" fill="white"/>
<path d="M52.7288 20.1024V20.7581H52.0577V20.1024H52.7288Z" fill="white"/>
<path d="M55.0366 18.5178C55.2503 18.6949 55.3915 18.9454 55.4329 19.2209H54.7739C54.7511 19.1005 54.6865 18.9921 54.5917 18.9152C54.4887 18.8372 54.3622 18.7973 54.2334 18.8021C54.1553 18.8005 54.0778 18.8161 54.0064 18.8481C53.935 18.8801 53.8715 18.9275 53.8204 18.987C53.7117 19.1463 53.6535 19.335 53.6535 19.5282C53.6535 19.7214 53.7117 19.91 53.8204 20.0693C53.8717 20.1285 53.9352 20.1758 54.0066 20.2077C54.0779 20.2397 54.1553 20.2555 54.2334 20.2542C54.3624 20.2592 54.4892 20.2187 54.5917 20.1396C54.6865 20.0627 54.7511 19.9543 54.7739 19.8339H55.4329C55.3915 20.1095 55.2503 20.3599 55.0366 20.537C54.8117 20.7138 54.5322 20.8053 54.247 20.7954C54.0251 20.7996 53.8057 20.7469 53.6094 20.6425C53.426 20.5422 53.2756 20.3903 53.1766 20.2053C53.0743 19.9955 53.021 19.7649 53.021 19.5312C53.021 19.2975 53.0743 19.0669 53.1766 18.8571C53.2748 18.6712 53.4254 18.5186 53.6094 18.4184C53.8059 18.3145 54.0252 18.262 54.247 18.2655C54.5315 18.2539 54.8109 18.3432 55.0366 18.5178Z" fill="white"/>
<path d="M57.6505 18.411C57.839 18.5103 57.9946 18.6627 58.0984 18.8496C58.2062 19.0578 58.2625 19.289 58.2625 19.5237C58.2625 19.7585 58.2062 19.9897 58.0984 20.1979C57.9937 20.3837 57.8383 20.5354 57.6505 20.635C57.4509 20.7366 57.2304 20.7895 57.0068 20.7895C56.7831 20.7895 56.5626 20.7366 56.363 20.635C56.1729 20.536 56.0149 20.3843 55.9075 20.1979C55.7997 19.9897 55.7434 19.7585 55.7434 19.5237C55.7434 19.289 55.7997 19.0578 55.9075 18.8496C56.014 18.6621 56.1722 18.5097 56.363 18.411C56.5632 18.3113 56.7835 18.2595 57.0068 18.2595C57.23 18.2595 57.4503 18.3113 57.6505 18.411ZM56.5634 18.9872C56.4474 19.1411 56.3846 19.329 56.3846 19.5222C56.3846 19.7154 56.4474 19.9033 56.5634 20.0572C56.6215 20.1158 56.6905 20.1622 56.7664 20.1939C56.8424 20.2256 56.9238 20.2419 57.006 20.2419C57.0882 20.2419 57.1696 20.2256 57.2456 20.1939C57.3215 20.1622 57.3905 20.1158 57.4486 20.0572C57.5656 19.9038 57.6289 19.7157 57.6289 19.5222C57.6289 19.3288 57.5656 19.1407 57.4486 18.9872C57.3309 18.8697 57.1718 18.8037 57.006 18.8037C56.8402 18.8037 56.6812 18.8697 56.5634 18.9872Z" fill="white"/>
<path d="M35.4657 5.14661H38.6724C38.6724 5.57056 38.5894 5.99037 38.4283 6.38202C38.2672 6.77371 38.031 7.12959 37.7332 7.42941C37.4354 7.72916 37.0819 7.96701 36.6929 8.12924C36.3038 8.29146 35.8868 8.37496 35.4657 8.37496V5.14661Z" fill="white"/>
<path d="M41.88 5.14661V8.37343H38.6732C38.6737 7.51748 39.0116 6.69676 39.613 6.09163C40.2143 5.48653 41.0297 5.14661 41.88 5.14661Z" fill="#5E6D8E"/>
<path d="M41.88 8.37341H38.6732V14.8301H41.88V8.37341Z" fill="#394663"/>
<path d="M45.0848 5.14661H41.8782V8.37496H45.0848V5.14661Z" fill="#899FB6"/>
<path d="M35.311 54.6704C35.4045 54.5956 35.4472 54.561 35.439 54.5665C35.7086 54.3422 35.9204 54.158 36.0744 54.014C36.2313 53.87 36.3633 53.719 36.4706 53.5611C36.5779 53.4032 36.6316 53.2495 36.6316 53.1C36.6316 52.9864 36.6055 52.8977 36.5532 52.8341C36.5009 52.7704 36.4225 52.7385 36.3179 52.7385C36.2134 52.7385 36.1309 52.7787 36.0703 52.859C36.0126 52.9365 35.9837 53.0473 35.9837 53.1913H35.3027C35.3083 52.9559 35.3578 52.7593 35.4513 52.6014C35.5476 52.4435 35.6728 52.3272 35.8268 52.2524C35.9837 52.1777 36.157 52.1403 36.3468 52.1403C36.6742 52.1403 36.9204 52.2247 37.0855 52.3937C37.2534 52.5626 37.3372 52.7828 37.3372 53.0542C37.3372 53.3506 37.2368 53.6262 37.036 53.881C36.8352 54.1331 36.5793 54.3796 36.2684 54.6205H37.3826V55.198H35.311V54.6704ZM37.6933 53.6816C37.6933 53.2052 37.7841 52.8299 37.9657 52.5557C38.15 52.2815 38.4458 52.1444 38.8529 52.1444C39.2601 52.1444 39.5545 52.2815 39.7361 52.5557C39.9204 52.8299 40.0126 53.2052 40.0126 53.6816C40.0126 54.1635 39.9204 54.5416 39.7361 54.8158C39.5545 55.09 39.2601 55.2271 38.8529 55.2271C38.4458 55.2271 38.15 55.09 37.9657 54.8158C37.7841 54.5416 37.6933 54.1635 37.6933 53.6816ZM39.3193 53.6816C39.3193 53.4019 39.289 53.1872 39.2285 53.0376C39.168 52.8853 39.0428 52.8091 38.8529 52.8091C38.6631 52.8091 38.5379 52.8853 38.4774 53.0376C38.4169 53.1872 38.3866 53.4019 38.3866 53.6816C38.3866 53.87 38.3976 54.0264 38.4197 54.151C38.4417 54.2729 38.4857 54.3726 38.5517 54.4502C38.6205 54.525 38.7209 54.5624 38.8529 54.5624C38.985 54.5624 39.084 54.525 39.15 54.4502C39.2189 54.3726 39.2643 54.2729 39.2863 54.151C39.3083 54.0264 39.3193 53.87 39.3193 53.6816ZM40.3606 54.6704C40.4542 54.5956 40.4968 54.561 40.4885 54.5665C40.7581 54.3422 40.97 54.158 41.1241 54.014C41.2808 53.87 41.4129 53.719 41.5202 53.5611C41.6275 53.4032 41.6812 53.2495 41.6812 53.1C41.6812 52.9864 41.655 52.8977 41.6027 52.8341C41.5505 52.7704 41.4721 52.7385 41.3676 52.7385C41.263 52.7385 41.1804 52.7787 41.12 52.859C41.0621 52.9365 41.0332 53.0473 41.0332 53.1913H40.3524C40.3579 52.9559 40.4074 52.7593 40.501 52.6014C40.5972 52.4435 40.7224 52.3272 40.8765 52.2524C41.0332 52.1777 41.2066 52.1403 41.3964 52.1403C41.7238 52.1403 41.97 52.2247 42.1351 52.3937C42.3029 52.5626 42.3869 52.7828 42.3869 53.0542C42.3869 53.3506 42.2864 53.6262 42.0856 53.881C41.8848 54.1331 41.6289 54.3796 41.318 54.6205H42.4322V55.198H40.3606V54.6704ZM44.8641 52.8257H43.5765V53.3991C43.6316 53.3381 43.7086 53.2883 43.8076 53.2495C43.9067 53.2108 44.0139 53.1913 44.1295 53.1913C44.3358 53.1913 44.5064 53.2384 44.6412 53.3326C44.7788 53.4268 44.8792 53.5487 44.9425 53.6982C45.0057 53.8478 45.0374 54.0098 45.0374 54.1843C45.0374 54.5084 44.9466 54.766 44.765 54.9571C44.5834 55.1454 44.3276 55.2396 43.9975 55.2396C43.7774 55.2396 43.5862 55.2022 43.4238 55.1274C43.2615 55.0499 43.1364 54.9432 43.0483 54.8075C42.9603 54.6718 42.9122 54.5153 42.9039 54.338H43.593C43.6096 54.4239 43.6494 54.4959 43.7127 54.554C43.776 54.6095 43.8626 54.6371 43.9727 54.6371C44.102 54.6371 44.1983 54.5956 44.2615 54.5125C44.3249 54.4294 44.3565 54.3187 44.3565 54.1801C44.3565 54.0444 44.3235 53.9406 44.2574 53.8686C44.1914 53.7966 44.0951 53.7606 43.9686 53.7606C43.875 53.7606 43.798 53.784 43.7375 53.8312C43.677 53.8755 43.637 53.935 43.6178 54.0098H42.9369V52.2025H44.8641V52.8257Z" fill="white"/>
<path d="M36.928 25.4844V26.6568H35.3474V31.4932H33.8929V26.6568H32.3123V25.4844H36.928Z" fill="white"/>
<path d="M38.9453 31.1573C38.4815 30.8998 38.0962 30.5198 37.8309 30.0583C37.561 29.5739 37.4193 29.0278 37.4193 28.4724C37.4193 27.917 37.561 27.3709 37.8309 26.8865C38.0977 26.4269 38.4827 26.0483 38.9453 25.7905C39.4194 25.5327 39.9498 25.3977 40.4887 25.3977C41.0275 25.3977 41.5579 25.5327 42.0321 25.7905C42.493 26.0474 42.8753 26.4264 43.1374 26.8865C43.4038 27.372 43.5435 27.9177 43.5435 28.4724C43.5435 29.0271 43.4038 29.5727 43.1374 30.0583C42.8757 30.5195 42.4934 30.8997 42.0321 31.1573C41.5591 31.4161 41.0293 31.5516 40.491 31.5516C39.9527 31.5516 39.4228 31.4161 38.9498 31.1573H38.9453ZM41.6312 29.7373C41.9097 29.3738 42.0608 28.9276 42.0608 28.4686C42.0608 28.0095 41.9097 27.5633 41.6312 27.1998C41.4866 27.0415 41.3093 26.9169 41.1119 26.8348C40.9143 26.7526 40.7014 26.715 40.4879 26.7245C40.2734 26.7145 40.0594 26.7514 39.8605 26.8327C39.6616 26.914 39.4824 27.0377 39.3355 27.1953C39.0577 27.5608 38.9073 28.0083 38.9073 28.4686C38.9073 28.9288 39.0577 29.3763 39.3355 29.7419C39.4821 29.9002 39.661 30.0245 39.86 30.1064C40.0589 30.1882 40.2732 30.2255 40.4879 30.2157C40.7009 30.2244 40.9132 30.186 41.1099 30.1034C41.3066 30.0207 41.4829 29.8958 41.6267 29.7373H41.6312Z" fill="white"/>
<path d="M48.6625 28.3724C48.4913 28.6716 48.2369 28.9139 47.9306 29.0694C47.5508 29.2585 47.1304 29.3499 46.7069 29.3354H45.805V31.4922H44.3519V25.4834H46.7069C47.1254 25.4696 47.5413 25.5544 47.9216 25.731C48.231 25.8789 48.4888 26.1177 48.661 26.4158C48.8296 26.7218 48.9149 27.0672 48.9084 27.417C48.9093 27.7514 48.8246 28.0805 48.6625 28.3724ZM47.217 27.9734C47.3485 27.8182 47.4207 27.621 47.4207 27.417C47.4207 27.2131 47.3485 27.0158 47.217 26.8606C47.043 26.7169 46.8204 26.6467 46.5961 26.665H45.805V28.1706H46.5961C46.8181 28.1864 47.0376 28.1159 47.2095 27.9734H47.217Z" fill="white"/>
<path d="M29.2708 38.6386C28.9887 38.6386 28.7358 38.5924 28.5123 38.5002C28.2888 38.408 28.1092 38.2715 27.9737 38.0908C27.8418 37.91 27.7721 37.6923 27.7648 37.4379H28.7651C28.7798 37.5817 28.8293 37.6923 28.9135 37.7699C28.9978 37.8436 29.1077 37.8805 29.2433 37.8805C29.3825 37.8805 29.4924 37.8492 29.5731 37.7864C29.6537 37.72 29.694 37.6297 29.694 37.5153C29.694 37.4194 29.661 37.3401 29.5951 37.2773C29.5327 37.2147 29.454 37.163 29.3587 37.1224C29.2671 37.0818 29.1352 37.0358 28.963 36.9841C28.7138 36.9066 28.5105 36.8291 28.3529 36.7517C28.1954 36.6742 28.0598 36.5599 27.9462 36.4086C27.8326 36.2574 27.7758 36.06 27.7758 35.8165C27.7758 35.4551 27.9059 35.1729 28.1661 34.97C28.4262 34.7634 28.7651 34.6601 29.1828 34.6601C29.6079 34.6601 29.9505 34.7634 30.2107 34.97C30.4708 35.1729 30.61 35.4569 30.6284 35.8221H29.6116C29.6042 35.6967 29.5584 35.599 29.4742 35.5289C29.3899 35.4551 29.2818 35.4182 29.1499 35.4182C29.0363 35.4182 28.9447 35.4496 28.8751 35.5122C28.8054 35.5713 28.7706 35.6579 28.7706 35.7723C28.7706 35.8978 28.8293 35.9955 28.9465 36.0656C29.0638 36.1357 29.247 36.2113 29.4962 36.2924C29.7453 36.3773 29.9468 36.4585 30.1007 36.5359C30.2583 36.6134 30.3939 36.7259 30.5075 36.8735C30.621 37.021 30.6778 37.211 30.6778 37.4434C30.6778 37.6647 30.621 37.8657 30.5075 38.0465C30.3975 38.2273 30.2363 38.3711 30.0238 38.4781C29.8112 38.5851 29.5602 38.6386 29.2708 38.6386ZM32.6523 38.6441C32.3518 38.6441 32.0806 38.5795 31.8388 38.4505C31.6006 38.3213 31.4119 38.1369 31.2727 37.8971C31.1371 37.6574 31.0693 37.377 31.0693 37.056C31.0693 36.7388 31.1389 36.4603 31.2782 36.2205C31.4175 35.9771 31.608 35.7908 31.8498 35.6616C32.0916 35.5325 32.3628 35.468 32.6632 35.468C32.9637 35.468 33.2348 35.5325 33.4767 35.6616C33.7185 35.7908 33.9091 35.9771 34.0483 36.2205C34.1875 36.4603 34.2571 36.7388 34.2571 37.056C34.2571 37.3733 34.1857 37.6536 34.0428 37.8971C33.9035 38.1369 33.7112 38.3213 33.4657 38.4505C33.2238 38.5795 32.9527 38.6441 32.6523 38.6441ZM32.6523 37.8252C32.8318 37.8252 32.9839 37.7588 33.1084 37.626C33.2366 37.4932 33.3008 37.3032 33.3008 37.056C33.3008 36.8089 33.2385 36.6189 33.1139 36.4861C32.993 36.3533 32.8428 36.2869 32.6632 36.2869C32.48 36.2869 32.328 36.3533 32.2071 36.4861C32.0862 36.6152 32.0257 36.8052 32.0257 37.056C32.0257 37.3032 32.0843 37.4932 32.2016 37.626C32.3225 37.7588 32.4727 37.8252 32.6523 37.8252ZM36.2947 36.298H35.789V38.5999H34.8491V36.298H34.5084V35.5122H34.8491V35.4237C34.8491 35.0438 34.9572 34.756 35.1734 34.5605C35.3896 34.3613 35.7065 34.2617 36.1243 34.2617C36.1939 34.2617 36.2452 34.2636 36.2782 34.2672V35.0695C36.0986 35.0585 35.9723 35.0843 35.899 35.147C35.8257 35.2097 35.789 35.3223 35.789 35.4845V35.5122H36.2947V36.298ZM38.4456 37.7975V38.5999H37.9675C37.6267 38.5999 37.361 38.5168 37.1705 38.3508C36.9799 38.1812 36.8847 37.9063 36.8847 37.5264V36.298H36.511V35.5122H36.8847V34.7597H37.8245V35.5122H38.4401V36.298H37.8245V37.5374C37.8245 37.6297 37.8466 37.6961 37.8905 37.7367C37.9345 37.7772 38.0078 37.7975 38.1104 37.7975H38.4456ZM43.3716 35.5122L42.5416 38.5999H41.5029L41.0192 36.5968L40.519 38.5999H39.4857L38.6504 35.5122H39.5902L40.0244 37.72L40.5411 35.5122H41.5358L42.058 37.709L42.4867 35.5122H43.3716ZM43.5431 37.0505C43.5431 36.7333 43.6017 36.4547 43.719 36.215C43.8399 35.9752 44.003 35.7908 44.2082 35.6616C44.4133 35.5325 44.6423 35.468 44.8952 35.468C45.1114 35.468 45.3001 35.5122 45.4613 35.6008C45.6262 35.6893 45.7526 35.8055 45.8406 35.9494V35.5122H46.7804V38.5999H45.8406V38.1627C45.7489 38.3066 45.6207 38.4228 45.4558 38.5113C45.2946 38.5999 45.1059 38.6441 44.8897 38.6441C44.6405 38.6441 44.4133 38.5795 44.2082 38.4505C44.003 38.3176 43.8399 38.1313 43.719 37.8916C43.6017 37.6481 43.5431 37.3678 43.5431 37.0505ZM45.8406 37.056C45.8406 36.8199 45.7746 36.6336 45.6426 36.4972C45.5144 36.3607 45.3569 36.2924 45.17 36.2924C44.9831 36.2924 44.8237 36.3607 44.6918 36.4972C44.5636 36.63 44.4994 36.8144 44.4994 37.0505C44.4994 37.2866 44.5636 37.4747 44.6918 37.6149C44.8237 37.7514 44.9831 37.8196 45.17 37.8196C45.3569 37.8196 45.5144 37.7514 45.6426 37.6149C45.7746 37.4784 45.8406 37.2921 45.8406 37.056ZM48.4002 36.0268C48.5101 35.8571 48.6475 35.7244 48.8124 35.6284C48.9773 35.5289 49.1605 35.479 49.362 35.479V36.4806H49.1037C48.8692 36.4806 48.6933 36.5322 48.576 36.6355C48.4588 36.7351 48.4002 36.9122 48.4002 37.1667V38.5999H47.4603V35.5122H48.4002V36.0268ZM52.7022 37.0062C52.7022 37.0947 52.6968 37.187 52.6857 37.2829H50.5587C50.5733 37.4747 50.6338 37.6223 50.7401 37.7255C50.85 37.8252 50.9838 37.8749 51.1413 37.8749C51.3758 37.8749 51.5388 37.7754 51.6305 37.5761H52.6308C52.5795 37.7791 52.486 37.9617 52.3505 38.124C52.2186 38.2863 52.0518 38.4136 51.8503 38.5058C51.6488 38.598 51.4234 38.6441 51.1743 38.6441C50.8739 38.6441 50.6063 38.5795 50.3718 38.4505C50.1373 38.3213 49.9541 38.1369 49.8222 37.8971C49.6903 37.6574 49.6244 37.377 49.6244 37.056C49.6244 36.7351 49.6885 36.4547 49.8167 36.215C49.9486 35.9752 50.1319 35.7908 50.3663 35.6616C50.6008 35.5325 50.8701 35.468 51.1743 35.468C51.4711 35.468 51.7349 35.5307 51.9657 35.6561C52.1966 35.7815 52.3761 35.9604 52.5043 36.1928C52.6363 36.4253 52.7022 36.6964 52.7022 37.0062ZM51.7404 36.7572C51.7404 36.5949 51.6854 36.4658 51.5755 36.3699C51.4656 36.274 51.3282 36.226 51.1633 36.226C51.0057 36.226 50.872 36.2722 50.7621 36.3644C50.6558 36.4566 50.5899 36.5876 50.5642 36.7572H51.7404ZM24.5507 44.0348C24.5507 43.7176 24.6092 43.439 24.7266 43.1993C24.8475 42.9595 25.0105 42.7751 25.2157 42.6459C25.4209 42.5168 25.6499 42.4523 25.9027 42.4523C26.1043 42.4523 26.2875 42.4947 26.4523 42.5795C26.6209 42.6644 26.7528 42.7787 26.8481 42.9226V41.4894H27.7879V45.5841H26.8481V45.1415C26.7601 45.289 26.6337 45.4071 26.4688 45.4956C26.3076 45.5841 26.1189 45.6284 25.9027 45.6284C25.6499 45.6284 25.4209 45.5638 25.2157 45.4347C25.0105 45.3019 24.8475 45.1156 24.7266 44.8759C24.6092 44.6324 24.5507 44.3521 24.5507 44.0348ZM26.8481 44.0403C26.8481 43.8042 26.7821 43.6179 26.6502 43.4815C26.522 43.345 26.3644 43.2767 26.1775 43.2767C25.9907 43.2767 25.8312 43.345 25.6994 43.4815C25.5711 43.6143 25.507 43.7987 25.507 44.0348C25.507 44.2709 25.5711 44.459 25.6994 44.5992C25.8312 44.7357 25.9907 44.8039 26.1775 44.8039C26.3644 44.8039 26.522 44.7357 26.6502 44.5992C26.7821 44.4627 26.8481 44.2764 26.8481 44.0403ZM31.3589 43.9905C31.3589 44.079 31.3534 44.1713 31.3423 44.2672H29.2153C29.23 44.459 29.2904 44.6066 29.3967 44.7098C29.5066 44.8095 29.6404 44.8592 29.7979 44.8592C30.0324 44.8592 30.1955 44.7597 30.2871 44.5604H31.2874C31.2361 44.7634 31.1427 44.946 31.0071 45.1083C30.8752 45.2706 30.7084 45.3979 30.5069 45.49C30.3054 45.5823 30.08 45.6284 29.8309 45.6284C29.5305 45.6284 29.2629 45.5638 29.0285 45.4347C28.794 45.3056 28.6108 45.1212 28.4788 44.8814C28.3469 44.6416 28.281 44.3613 28.281 44.0403C28.281 43.7194 28.3451 43.439 28.4733 43.1993C28.6053 42.9595 28.7885 42.7751 29.023 42.6459C29.2575 42.5168 29.5268 42.4523 29.8309 42.4523C30.1277 42.4523 30.3915 42.515 30.6224 42.6404C30.8532 42.7658 31.0327 42.9447 31.161 43.1771C31.2929 43.4096 31.3589 43.6807 31.3589 43.9905ZM30.397 43.7415C30.397 43.5792 30.342 43.4501 30.2321 43.3542C30.1222 43.2583 29.9848 43.2103 29.8199 43.2103C29.6623 43.2103 29.5286 43.2565 29.4187 43.3487C29.3124 43.4409 29.2465 43.5718 29.2208 43.7415H30.397ZM33.2342 44.6988L33.8992 42.4965H34.8995L33.8113 45.5841H32.6516L31.5634 42.4965H32.5692L33.2342 44.6988ZM38.1862 43.9905C38.1862 44.079 38.1806 44.1713 38.1697 44.2672H36.0426C36.0573 44.459 36.1177 44.6066 36.224 44.7098C36.3339 44.8095 36.4676 44.8592 36.6253 44.8592C36.8597 44.8592 37.0228 44.7597 37.1144 44.5604H38.1147C38.0634 44.7634 37.97 44.946 37.8344 45.1083C37.7025 45.2706 37.5358 45.3979 37.3343 45.49C37.1327 45.5823 36.9074 45.6284 36.6582 45.6284C36.3577 45.6284 36.0903 45.5638 35.8558 45.4347C35.6213 45.3056 35.4381 45.1212 35.3061 44.8814C35.1743 44.6416 35.1083 44.3613 35.1083 44.0403C35.1083 43.7194 35.1724 43.439 35.3006 43.1993C35.4326 42.9595 35.6158 42.7751 35.8503 42.6459C36.0848 42.5168 36.3541 42.4523 36.6582 42.4523C36.955 42.4523 37.2188 42.515 37.4497 42.6404C37.6805 42.7658 37.8601 42.9447 37.9883 43.1771C38.1202 43.4096 38.1862 43.6807 38.1862 43.9905ZM37.2243 43.7415C37.2243 43.5792 37.1693 43.4501 37.0594 43.3542C36.9495 43.2583 36.8121 43.2103 36.6472 43.2103C36.4897 43.2103 36.3559 43.2565 36.246 43.3487C36.1398 43.4409 36.0738 43.5718 36.0481 43.7415H37.2243ZM39.6218 41.4894V45.5841H38.6819V41.4894H39.6218ZM41.699 45.6284C41.3985 45.6284 41.1273 45.5638 40.8855 45.4347C40.6473 45.3056 40.4586 45.1212 40.3194 44.8814C40.1838 44.6416 40.116 44.3613 40.116 44.0403C40.116 43.7231 40.1857 43.4446 40.3249 43.2048C40.4641 42.9614 40.6547 42.7751 40.8965 42.6459C41.1384 42.5168 41.4095 42.4523 41.7099 42.4523C42.0104 42.4523 42.2815 42.5168 42.5234 42.6459C42.7652 42.7751 42.9557 42.9614 43.095 43.2048C43.2342 43.4446 43.3039 43.7231 43.3039 44.0403C43.3039 44.3576 43.2324 44.6379 43.0895 44.8814C42.9502 45.1212 42.7579 45.3056 42.5124 45.4347C42.2706 45.5638 41.9994 45.6284 41.699 45.6284ZM41.699 44.8095C41.8785 44.8095 42.0306 44.743 42.1551 44.6103C42.2834 44.4775 42.3475 44.2875 42.3475 44.0403C42.3475 43.7932 42.2852 43.6032 42.1606 43.4704C42.0397 43.3376 41.8895 43.2712 41.7099 43.2712C41.5267 43.2712 41.3747 43.3376 41.2538 43.4704C41.1328 43.5995 41.0724 43.7895 41.0724 44.0403C41.0724 44.2875 41.131 44.4775 41.2482 44.6103C41.3692 44.743 41.5194 44.8095 41.699 44.8095ZM44.7423 42.9337C44.8339 42.7898 44.9603 42.6736 45.1215 42.5851C45.2827 42.4965 45.4715 42.4523 45.6876 42.4523C45.9405 42.4523 46.1695 42.5168 46.3747 42.6459C46.5798 42.7751 46.7411 42.9595 46.8583 43.1993C46.9792 43.439 47.0397 43.7176 47.0397 44.0348C47.0397 44.3521 46.9792 44.6324 46.8583 44.8759C46.7411 45.1156 46.5798 45.3019 46.3747 45.4347C46.1695 45.5638 45.9405 45.6284 45.6876 45.6284C45.4751 45.6284 45.2864 45.5841 45.1215 45.4956C44.9603 45.4071 44.8339 45.2927 44.7423 45.1525V47.056H43.8025V42.4965H44.7423V42.9337ZM46.0834 44.0348C46.0834 43.7987 46.0174 43.6143 45.8855 43.4815C45.7572 43.345 45.5979 43.2767 45.4073 43.2767C45.2205 43.2767 45.0611 43.345 44.9292 43.4815C44.801 43.6179 44.7368 43.8042 44.7368 44.0403C44.7368 44.2764 44.801 44.4627 44.9292 44.5992C45.0611 44.7357 45.2205 44.8039 45.4073 44.8039C45.5942 44.8039 45.7536 44.7357 45.8855 44.5992C46.0174 44.459 46.0834 44.2709 46.0834 44.0348ZM50.4238 43.9905C50.4238 44.079 50.4183 44.1713 50.4073 44.2672H48.2803C48.2949 44.459 48.3554 44.6066 48.4616 44.7098C48.5716 44.8095 48.7053 44.8592 48.8629 44.8592C49.0974 44.8592 49.2604 44.7597 49.352 44.5604H50.3523C50.301 44.7634 50.2076 44.946 50.072 45.1083C49.9401 45.2706 49.7734 45.3979 49.5719 45.49C49.3703 45.5823 49.145 45.6284 48.8958 45.6284C48.5953 45.6284 48.3279 45.5638 48.0934 45.4347C47.8589 45.3056 47.6757 45.1212 47.5438 44.8814C47.4119 44.6416 47.3459 44.3613 47.3459 44.0403C47.3459 43.7194 47.4101 43.439 47.5383 43.1993C47.6702 42.9595 47.8534 42.7751 48.0879 42.6459C48.3224 42.5168 48.5917 42.4523 48.8958 42.4523C49.1926 42.4523 49.4565 42.515 49.6873 42.6404C49.9181 42.7658 50.0977 42.9447 50.2259 43.1771C50.3578 43.4096 50.4238 43.6807 50.4238 43.9905ZM49.462 43.7415C49.462 43.5792 49.407 43.4501 49.297 43.3542C49.1871 43.2583 49.0497 43.2103 48.8848 43.2103C48.7273 43.2103 48.5935 43.2565 48.4836 43.3487C48.3774 43.4409 48.3114 43.5718 48.2857 43.7415H49.462ZM51.8595 43.0111C51.9693 42.8414 52.1068 42.7086 52.2717 42.6127C52.4365 42.5132 52.6198 42.4633 52.8213 42.4633V43.4649H52.5629C52.3284 43.4649 52.1525 43.5165 52.0353 43.6198C51.9181 43.7194 51.8595 43.8965 51.8595 44.151V45.5841H50.9196V42.4965H51.8595V43.0111ZM54.5181 45.6284C54.2507 45.6284 54.0125 45.5823 53.8037 45.49C53.5948 45.3979 53.4299 45.2724 53.309 45.1138C53.1881 44.9515 53.1203 44.7707 53.1056 44.5715H54.0345C54.0455 44.6785 54.0949 44.7652 54.1829 44.8316C54.2708 44.898 54.3789 44.9312 54.5072 44.9312C54.6244 44.9312 54.7142 44.9091 54.7765 44.8648C54.8424 44.8168 54.8754 44.756 54.8754 44.6822C54.8754 44.5936 54.8296 44.5291 54.738 44.4885C54.6464 44.4442 54.498 44.3963 54.2928 44.3447C54.073 44.293 53.8897 44.2395 53.7432 44.1842C53.5966 44.1252 53.4702 44.0348 53.3639 43.9131C53.2577 43.7877 53.2046 43.6198 53.2046 43.4096C53.2046 43.2325 53.2522 43.072 53.3474 42.9281C53.4464 42.7806 53.5893 42.6644 53.7762 42.5795C53.9667 42.4947 54.192 42.4523 54.4522 42.4523C54.8369 42.4523 55.1392 42.5482 55.359 42.74C55.5825 42.9318 55.7108 43.1864 55.7438 43.5036H54.8754C54.8607 43.3966 54.8131 43.3118 54.7325 43.249C54.6556 43.1864 54.553 43.155 54.4247 43.155C54.3148 43.155 54.2305 43.1771 54.1719 43.2214C54.1133 43.262 54.0839 43.3191 54.0839 43.3929C54.0839 43.4815 54.1297 43.5478 54.2213 43.5921C54.3166 43.6364 54.4632 43.6807 54.6611 43.7249C54.8882 43.784 55.0733 43.843 55.2162 43.902C55.359 43.9573 55.4837 44.0496 55.5899 44.1787C55.6998 44.3041 55.7566 44.4738 55.7603 44.6877C55.7603 44.8685 55.709 45.0308 55.6064 45.1747C55.5074 45.3148 55.3627 45.4255 55.1722 45.5067C54.9853 45.5878 54.7673 45.6284 54.5181 45.6284Z" fill="white"/>
</g>
</svg>
