<svg width="128" height="122" viewBox="0 0 128 122" fill="none" xmlns="http://www.w3.org/2000/svg">
<path d="M127.284 7.47402V116.802H0.715403V7.47402H127.284ZM128 6.77686H0V117.5H128V6.77686Z" fill="white"/>
<path d="M30.9659 26.5227C30.9587 26.8732 31.0021 27.223 31.0947 27.5614C31.1948 27.8317 31.3236 28.1162 31.481 28.4435C31.5408 28.5207 31.5712 28.6165 31.5669 28.7138C31.5603 28.7889 31.5362 28.8616 31.4965 28.9258C31.4567 28.99 31.4024 29.0441 31.3379 29.0838L30.5796 29.596C30.4816 29.6596 30.3675 29.6941 30.2505 29.6956C30.1135 29.6869 29.9852 29.6257 29.8928 29.5248C29.725 29.3513 29.5764 29.1606 29.4493 28.9557C29.3133 28.725 29.1891 28.4875 29.0772 28.2443C28.6457 28.7765 28.0982 29.2042 27.4761 29.495C26.8539 29.786 26.1734 29.9323 25.4859 29.9232C25.0416 29.9465 24.5972 29.8804 24.1793 29.7289C23.7613 29.5772 23.3784 29.3434 23.0536 29.0411C22.4408 28.3733 22.118 27.4917 22.1555 26.5884C22.1931 25.6851 22.5878 24.8331 23.2539 24.2177C24.1056 23.5605 25.1679 23.2321 26.2443 23.2929C26.6752 23.2989 27.1052 23.3322 27.532 23.3925C27.9898 23.4637 28.4477 23.549 28.9628 23.6629V22.7807C29.0355 22.0815 28.8301 21.3819 28.3905 20.8315C27.8201 20.4068 27.1109 20.2089 26.4017 20.2766C25.9584 20.2811 25.5171 20.3336 25.0853 20.4331C24.6381 20.5426 24.1984 20.6804 23.7689 20.8457C23.6322 20.9136 23.4881 20.9661 23.3397 21.0022H23.1538C22.982 21.0022 22.8962 20.8742 22.8962 20.6323V20.0347C22.8843 19.8872 22.9141 19.7395 22.982 19.6079C23.0737 19.4958 23.1916 19.4079 23.3254 19.3518C23.8121 19.1112 24.3261 18.9297 24.8564 18.8111C25.494 18.6648 26.1483 18.6026 26.8023 18.6261C27.9565 18.5252 29.1038 18.8833 29.993 19.6221C30.356 20.0234 30.6334 20.494 30.808 21.0052C30.9827 21.5164 31.0509 22.0575 31.0089 22.5958V26.5227H30.9659ZM26.0153 28.3724C26.4437 28.3674 26.8686 28.2954 27.2744 28.159C27.7186 27.995 28.1163 27.7265 28.4334 27.3764C28.6251 27.1493 28.762 26.8816 28.834 26.5939C28.927 26.2507 28.9704 25.8962 28.9628 25.541V25.043C28.5956 24.9487 28.2229 24.8774 27.8468 24.8295C27.4607 24.8088 27.0738 24.8088 26.6878 24.8295C26.0446 24.7826 25.4042 24.953 24.8706 25.3134C24.567 25.5356 24.344 25.8498 24.2348 26.2086C24.1257 26.5675 24.1363 26.952 24.2652 27.3044C24.394 27.6566 24.6342 27.9581 24.9497 28.1635C25.2652 28.3688 25.639 28.4671 26.0153 28.4435V28.3724ZM35.802 29.6813C35.6532 29.6854 35.5074 29.6404 35.3871 29.5533C35.2573 29.4249 35.1678 29.2618 35.1295 29.0838L32.268 19.7075C32.2052 19.553 32.1667 19.3899 32.1535 19.2237C32.1493 19.1847 32.1536 19.1451 32.1663 19.108C32.179 19.0708 32.1996 19.0368 32.2269 19.0084C32.2541 18.9799 32.2873 18.9577 32.324 18.9434C32.3608 18.929 32.4002 18.9227 32.4396 18.925H33.6415C33.8077 18.903 33.9761 18.9437 34.1137 19.0387C34.2347 19.1769 34.3183 19.3434 34.3569 19.5225L36.3601 27.5614L38.2487 19.5225C38.2841 19.3422 38.3682 19.175 38.4919 19.0387C38.6378 18.9502 38.8082 18.9104 38.9784 18.925H39.9513C40.1218 18.906 40.2937 18.9461 40.4378 19.0387C40.5642 19.1715 40.6445 19.341 40.6668 19.5225L42.5983 27.6467L44.7016 19.5225C44.743 19.3443 44.8263 19.1786 44.9448 19.0387C45.0914 18.9521 45.2613 18.9123 45.4314 18.925H46.5617C46.6023 18.9204 46.6433 18.925 46.6818 18.9384C46.7203 18.9519 46.7554 18.9737 46.7842 19.0025C46.8131 19.0311 46.8351 19.0659 46.8486 19.1042C46.862 19.1426 46.8667 19.1834 46.8621 19.2237C46.869 19.2899 46.869 19.3567 46.8621 19.4229C46.8532 19.5271 46.824 19.6286 46.7763 19.7217L43.8289 29.098C43.7939 29.2772 43.704 29.4413 43.5713 29.5675C43.4356 29.6561 43.2757 29.7008 43.1134 29.6956H42.0546C41.8823 29.7116 41.7099 29.6662 41.5682 29.5675C41.4496 29.4297 41.3705 29.2625 41.3392 29.0838L39.4506 21.2583L37.5763 29.0695C37.5479 29.2492 37.4685 29.4171 37.3473 29.5533C37.2045 29.6498 37.0329 29.695 36.8608 29.6813H35.802ZM51.5409 30.0085C50.9052 30.0095 50.2715 29.9379 49.6522 29.7951C49.1586 29.6877 48.6786 29.5255 48.2214 29.3114C48.0693 29.2322 47.9409 29.1144 47.8494 28.9699C47.8226 28.8576 47.8226 28.7407 47.8494 28.6285V28.0024C47.8494 27.7464 47.9353 27.6325 48.1213 27.6325H48.3501L48.6506 27.7606C49.0819 27.9514 49.5329 28.0946 49.9956 28.1874C50.4664 28.2831 50.9459 28.3308 51.4264 28.3296C52.0486 28.3688 52.669 28.2306 53.2149 27.9312C53.4125 27.8113 53.5748 27.6415 53.6853 27.4391C53.7959 27.2368 53.8507 27.009 53.8445 26.7788C53.8499 26.4626 53.7319 26.1567 53.5154 25.9252C53.1577 25.6272 52.7371 25.4132 52.2849 25.2991L50.5107 24.7584C49.748 24.558 49.0675 24.1251 48.5648 23.5206C48.1727 23.0144 47.9568 22.3952 47.9495 21.7564C47.9477 21.3013 48.0557 20.8524 48.2643 20.4473C48.4851 20.0601 48.7878 19.7251 49.1514 19.4656C49.5247 19.172 49.9526 18.9544 50.4105 18.8253C50.9134 18.6857 51.4338 18.6187 51.9558 18.6261H52.7714L53.5583 18.7684L54.2594 18.9534C54.4402 19.007 54.6133 19.0836 54.7745 19.181C54.9167 19.2498 55.0396 19.3525 55.1322 19.4798C55.2118 19.5972 55.2519 19.7367 55.2467 19.8782V20.4473C55.2467 20.7034 55.1465 20.8315 54.9605 20.8315C54.7994 20.8172 54.6433 20.7687 54.5027 20.6892C53.7633 20.3675 52.9631 20.2074 52.1561 20.2197C51.5962 20.1889 51.0383 20.3068 50.5393 20.5612C50.3516 20.6699 50.1984 20.829 50.0971 21.0202C49.9959 21.2114 49.9508 21.427 49.967 21.6425C49.9633 21.8018 49.9931 21.96 50.0547 22.1071C50.1164 22.2541 50.2083 22.3867 50.3247 22.4962C50.7245 22.8048 51.1815 23.0321 51.6696 23.1649L53.4009 23.7056C54.135 23.8947 54.7938 24.3017 55.2896 24.8723C55.6637 25.3572 55.8604 25.9544 55.8476 26.5654C55.8611 27.0581 55.7531 27.5466 55.5328 27.9882C55.3189 28.404 55.0162 28.7682 54.6458 29.0553C54.2453 29.3744 53.7824 29.607 53.2865 29.7382C52.7039 29.9236 52.0952 30.0148 51.4837 30.0085H51.5409Z" fill="white"/>
<path d="M53.7829 35.8993C49.3912 38.8394 44.2109 40.3962 38.9168 40.3668C32.2292 40.4169 25.764 37.9812 20.7885 33.5374C20.4021 33.1959 20.7885 32.7407 21.2034 33.011C26.731 36.1437 32.9837 37.7913 39.346 37.7916C44.1057 37.7556 48.8118 36.7886 53.1963 34.946C53.8687 34.6756 54.441 35.4155 53.7829 35.8993ZM55.4139 34.007C54.9132 33.3525 52.0229 33.6939 50.7209 33.8504C50.3346 33.8504 50.2774 33.5659 50.6208 33.3097C52.9244 31.702 56.6874 32.1715 57.1309 32.6979C57.5745 33.2244 57.0022 36.9664 54.8559 38.7876C54.5269 39.0721 54.2121 38.9299 54.3551 38.5599C54.8702 37.3647 55.9576 34.6757 55.4139 34.007Z" fill="white"/>
<path d="M64.636 27.4762V20.2911H65.1511V20.8601C65.4234 20.6371 65.7271 20.4549 66.0525 20.3195C66.3446 20.2068 66.655 20.1489 66.9683 20.1488C67.2649 20.1359 67.5604 20.1923 67.8312 20.3133C68.102 20.4344 68.3406 20.6168 68.5278 20.8459C68.9406 21.4044 69.1431 22.0892 69.1001 22.781C69.1454 23.4687 68.9537 24.1512 68.5564 24.716C68.3655 24.9592 68.1196 25.1542 67.8387 25.2852C67.5577 25.4162 67.2498 25.4795 66.9396 25.4701C66.2996 25.4605 65.6866 25.2116 65.2227 24.7729V27.4335L64.636 27.4762ZM66.8681 20.6753C66.2493 20.6954 65.6549 20.9207 65.1798 21.3155V24.2891C65.4194 24.5096 65.6953 24.6876 65.9953 24.8156C66.2583 24.9234 66.5407 24.9766 66.8252 24.972C67.0638 24.994 67.3041 24.956 67.5241 24.8615C67.7441 24.767 67.9368 24.6192 68.0843 24.4314C68.4043 23.9584 68.5555 23.3922 68.5135 22.8236C68.5564 21.3866 68.0127 20.6753 66.8681 20.6753Z" fill="white"/>
<path d="M73.5707 25.3992V24.8017C73.0639 25.2465 72.415 25.4984 71.7393 25.513C71.5348 25.5227 71.3306 25.4911 71.1388 25.4202C70.947 25.3492 70.7716 25.2405 70.6232 25.1004C70.4836 24.9608 70.3745 24.7938 70.3031 24.6102C70.2318 24.4265 70.1995 24.23 70.2082 24.0333C70.1953 23.8136 70.2338 23.5938 70.3207 23.3914C70.4076 23.1889 70.5405 23.0093 70.709 22.8666C71.1168 22.5538 71.6263 22.4019 72.1399 22.4398C72.6261 22.4511 73.108 22.5325 73.5707 22.6816V21.8706C73.5848 21.7099 73.5667 21.5479 73.5177 21.3941C73.4686 21.2402 73.3894 21.0975 73.2845 20.9743C72.995 20.7781 72.6462 20.6877 72.2973 20.7182C71.702 20.7257 71.1121 20.8315 70.5517 21.0312V20.5617C70.8352 20.436 71.1331 20.3451 71.4388 20.2914C71.7537 20.223 72.0752 20.1896 72.3975 20.1917C72.8712 20.153 73.3432 20.2842 73.7281 20.5617C73.8797 20.7081 73.9969 20.8861 74.0711 21.0829C74.1453 21.2797 74.1747 21.4905 74.1574 21.7V25.4419L73.5707 25.3992ZM71.7536 24.9723C72.0422 24.9719 72.3284 24.9189 72.5978 24.8159C72.9167 24.7096 73.2198 24.5612 73.4992 24.3748V23.1085C73.0692 22.9976 72.627 22.9403 72.1828 22.9378C71.2241 22.9378 70.752 23.2934 70.752 24.0191C70.7421 24.149 70.76 24.2796 70.8043 24.4021C70.8488 24.5248 70.9186 24.6366 71.0096 24.7305C71.1109 24.8184 71.229 24.8852 71.3568 24.9267C71.4847 24.9682 71.6196 24.9838 71.7536 24.9723Z" fill="white"/>
<path d="M75.6641 25.401V20.2932H76.1648V21.0331C76.3728 20.7834 76.6312 20.5798 76.9232 20.4355C77.1829 20.3142 77.4661 20.2511 77.753 20.2505H78.1823V20.7627H77.6959C77.408 20.7548 77.1228 20.8184 76.8659 20.9477C76.5969 21.0836 76.3585 21.2724 76.1648 21.5026V25.3868L75.6641 25.401Z" fill="white"/>
<path d="M81.9742 25.2862C81.6454 25.4099 81.2953 25.468 80.944 25.457C80.777 25.4672 80.6097 25.4434 80.4522 25.3872C80.2948 25.3309 80.1506 25.2434 80.0282 25.1297C79.9169 25.004 79.8317 24.8575 79.7777 24.6988C79.7237 24.5399 79.7018 24.3721 79.7135 24.2049V20.8044H78.7549V20.4487L79.7421 20.3064V18.8125H80.2286V20.2353H81.8597V20.7475H80.3001V24.1196C80.2776 24.3289 80.3393 24.5387 80.4719 24.7029C80.5547 24.7718 80.6505 24.8236 80.7536 24.8553C80.8568 24.8871 80.9653 24.8981 81.0728 24.8878C81.3777 24.8854 81.6808 24.8423 81.9742 24.7598V25.2862Z" fill="white"/>
<path d="M86.6967 25.3999V21.8714C86.7229 21.5357 86.6375 21.2008 86.4535 20.9182C86.3483 20.8115 86.2205 20.7293 86.0795 20.6776C85.9385 20.626 85.7877 20.6061 85.638 20.6193C84.9252 20.6285 84.232 20.8516 83.6491 21.2596V25.3431H83.0625V20.2921H83.5776V20.8897C83.897 20.6555 84.2488 20.4686 84.6221 20.3348C84.9668 20.2138 85.3296 20.1513 85.6951 20.1498C85.9014 20.1348 86.1084 20.1642 86.302 20.2363C86.4955 20.3085 86.6712 20.4214 86.8166 20.5674C86.9622 20.7134 87.0741 20.8891 87.1448 21.0822C87.2155 21.2754 87.2433 21.4816 87.2262 21.6864V25.3999H86.6967Z" fill="white"/>
<path d="M89.1687 22.9396C89.1366 23.5046 89.3036 24.0631 89.641 24.5188C89.8314 24.6964 90.0571 24.8324 90.3034 24.9181C90.5498 25.0039 90.8115 25.0375 91.0717 25.0169C91.6448 25.0358 92.2152 24.9339 92.7458 24.718V25.2018C92.2131 25.4815 91.6166 25.6188 91.0145 25.6002C90.6799 25.6249 90.3439 25.5765 90.03 25.4585C89.7162 25.3405 89.4319 25.1558 89.1974 24.9172C88.7437 24.3394 88.5241 23.6135 88.5821 22.8826C88.5436 22.1715 88.7618 21.4702 89.1974 20.905C89.4158 20.6682 89.6844 20.4827 89.9839 20.3622C90.2834 20.2415 90.6061 20.1888 90.9286 20.2078C91.1912 20.1881 91.4549 20.2249 91.7018 20.3158C91.9488 20.4066 92.1731 20.5493 92.3595 20.7342C92.7167 21.1534 92.8961 21.6941 92.8603 22.2424C92.8855 22.4931 92.8855 22.7457 92.8603 22.9965L89.1687 22.9396ZM90.8714 20.6631C89.7984 20.6631 89.2403 21.2607 89.1687 22.4701H92.2736C92.2818 22.3611 92.2818 22.2517 92.2736 22.1428C92.2968 21.7415 92.1693 21.3461 91.9159 21.033C91.7753 20.9053 91.6105 20.8068 91.4312 20.7434C91.2519 20.6798 91.0615 20.6525 90.8714 20.6631Z" fill="white"/>
<path d="M94.1277 25.3995V20.2916H94.6285V21.0315C94.8628 20.7771 95.1516 20.5778 95.4727 20.4482C95.7365 20.3253 96.0251 20.2621 96.3166 20.2632H96.7314V20.7755H96.2449C95.9573 20.7675 95.6725 20.8311 95.4154 20.9604C95.1468 21.0963 94.9079 21.2851 94.7144 21.5153V25.3995H94.1277Z" fill="white"/>
<path d="M68.2989 35.5323V32.0749C68.3337 31.732 68.2423 31.3882 68.0414 31.1073C67.9362 31.0006 67.8084 30.9185 67.6673 30.8668C67.5264 30.8152 67.3755 30.7953 67.2258 30.8086C66.5106 30.8163 65.8157 31.0451 65.237 31.463V35.5323H64.6504V30.4102H65.1654V30.9935C65.4936 30.7688 65.8494 30.587 66.2242 30.4528C66.563 30.3265 66.9212 30.2591 67.283 30.2536C67.4912 30.2373 67.7005 30.2643 67.8976 30.3329C68.0947 30.4015 68.2752 30.5102 68.4277 30.652C68.565 30.8067 68.6698 30.9871 68.7362 31.1824C68.8025 31.3779 68.829 31.5845 68.8141 31.7903V35.5323H68.2989Z" fill="white"/>
<path d="M70.7542 33.084C70.7072 33.6463 70.8759 34.2054 71.2264 34.6491C71.4124 34.8338 71.6371 34.9754 71.8843 35.0639C72.1317 35.1525 72.3955 35.1857 72.6572 35.1613C73.2346 35.1654 73.8059 35.044 74.3313 34.8056V35.2751C73.8049 35.5592 73.213 35.7014 72.6143 35.6878C72.2775 35.7126 71.9393 35.6643 71.6231 35.5464C71.3069 35.4285 71.0202 35.2436 70.7829 35.0047C70.3364 34.4232 70.1177 33.7001 70.1676 32.9701C70.1197 32.2556 70.3445 31.5494 70.7971 30.9925C71.0114 30.7534 71.2769 30.5654 71.5741 30.4422C71.8713 30.319 72.1926 30.2639 72.5141 30.281C72.7767 30.2614 73.0403 30.2982 73.2873 30.3891C73.5342 30.4799 73.7585 30.6226 73.945 30.8075C74.2956 31.2296 74.4698 31.7695 74.4314 32.3156C74.4572 32.5712 74.4572 32.8286 74.4314 33.084H70.7542ZM72.4569 30.7933C71.3838 30.7933 70.8115 31.4051 70.7542 32.6145H73.8448C73.8526 32.5008 73.8526 32.3867 73.8448 32.273C73.8611 32.0759 73.8378 31.8776 73.7764 31.6895C73.715 31.5015 73.6166 31.3274 73.4871 31.1775C73.3523 31.0448 73.1909 30.942 73.0133 30.8758C72.8357 30.8096 72.6461 30.7814 72.4569 30.7933Z" fill="white"/>
<path d="M78.3072 35.4173C77.9787 35.5436 77.6291 35.6064 77.2769 35.6022C77.1079 35.6119 76.9384 35.588 76.7788 35.5318C76.6191 35.4756 76.4722 35.3883 76.3469 35.275C76.1273 35.0179 76.0146 34.6871 76.0321 34.3502V30.9354H75.0735V30.537L76.0608 30.4375L76.1466 29.0146H76.6187V30.4375H78.3072V30.9354H76.6331V34.3217C76.6213 34.4264 76.6318 34.5325 76.6639 34.633C76.696 34.7335 76.7488 34.8262 76.8191 34.905C76.985 35.0354 77.1953 35.0967 77.4058 35.0758C77.7094 35.0697 78.0116 35.0315 78.3072 34.962V35.4173Z" fill="white"/>
<path d="M83.6469 35.5298L82.3592 31.0764L81.1716 35.5298H80.542L78.7249 30.4077H79.3545L80.7852 34.8327L82.0444 30.4077H82.7311L84.0331 34.8896L85.464 30.4077H86.0649L84.2765 35.5298H83.6469Z" fill="white"/>
<path d="M89.0724 35.688C88.7486 35.7063 88.4249 35.6518 88.1252 35.5286C87.8255 35.4054 87.5574 35.2168 87.3411 34.9766C86.8972 34.4095 86.6737 33.7024 86.7116 32.9847C86.6684 32.2664 86.8925 31.5573 87.3411 30.9928C87.5574 30.7526 87.8255 30.5639 88.1252 30.4408C88.4249 30.3176 88.7486 30.2632 89.0724 30.2813C89.3983 30.263 89.7242 30.3174 90.0262 30.4405C90.3282 30.5635 90.5987 30.7522 90.818 30.9928C91.2666 31.5573 91.4907 32.2664 91.4475 32.9847C91.4854 33.7024 91.2619 34.4095 90.818 34.9766C90.5987 35.2171 90.3282 35.4058 90.0262 35.5288C89.7242 35.652 89.3983 35.7064 89.0724 35.688ZM89.0724 35.1616C90.2599 35.1616 90.8465 34.436 90.8465 32.9847C90.8465 31.5335 90.2599 30.8078 89.0724 30.8078C87.8848 30.8078 87.3125 31.5335 87.3125 32.9847C87.3125 34.436 87.8991 35.1616 89.0724 35.1616Z" fill="white"/>
<path d="M92.7539 35.5317V30.4096H93.269V31.1495C93.4846 30.9038 93.7411 30.6969 94.0274 30.5377C94.293 30.421 94.5811 30.3627 94.8715 30.3669H95.2864V30.8792H94.8143C94.5283 30.8738 94.2448 30.9321 93.9845 31.0499C93.7154 31.1858 93.4769 31.3745 93.2834 31.6048V35.5317H92.7539Z" fill="white"/>
<path d="M96.2634 35.5324V28.0342H96.9076V32.701L99.3828 30.4103H100.184L97.4657 32.8149L100.327 35.504H99.4975L96.9076 33.0425V35.5324H96.2634Z" fill="white"/>
<path d="M30.8054 86.2962C29.7952 86.675 28.7229 86.8632 27.6433 86.8511C26.8119 86.9091 25.9775 86.7907 25.1955 86.5037C24.4136 86.2167 23.7019 85.7676 23.1076 85.1864C21.9828 83.7785 21.4358 81.9992 21.5767 80.2066C21.4592 78.416 22.0264 76.6475 23.1649 75.2552C23.7624 74.6637 24.4798 74.2055 25.2692 73.9111C26.0587 73.6167 26.9022 73.4929 27.7435 73.5479C28.7216 73.5335 29.6934 73.7074 30.6051 74.06V75.0276C29.7098 74.7785 28.7872 74.64 27.858 74.615C27.1603 74.559 26.4585 74.6491 25.7981 74.8795C25.1376 75.1098 24.533 75.4754 24.0234 75.9523C23.1042 77.0811 22.6538 78.5165 22.7642 79.9647V80.42C22.7642 83.977 24.4096 85.7555 27.7291 85.7555C28.7656 85.7279 29.7944 85.5702 30.7911 85.286L30.8054 86.2962Z" fill="white"/>
<path d="M36.6123 86.9371C36.0126 86.9685 35.4134 86.866 34.8589 86.6371C34.3042 86.4081 33.8082 86.0585 33.4073 85.6139C32.6615 84.5413 32.262 83.2683 32.262 81.9644C32.262 80.6604 32.6615 79.3874 33.4073 78.3148C33.8089 77.8721 34.3054 77.5245 34.8601 77.298C35.4148 77.0715 36.0136 76.9716 36.6123 77.0059C37.2112 76.9695 37.8106 77.0685 38.3657 77.2952C38.9206 77.5219 39.4169 77.8704 39.8173 78.3148C40.5631 79.3874 40.9626 80.6604 40.9626 81.9644C40.9626 83.2683 40.5631 84.5413 39.8173 85.6139C39.4176 86.0601 38.9219 86.4108 38.3669 86.6399C37.8119 86.869 37.2122 86.9706 36.6123 86.9371ZM36.6123 85.9553C38.7728 85.9553 39.8602 84.6321 39.8602 81.9572C39.8602 79.2824 38.7728 77.9734 36.6123 77.9734C34.4517 77.9734 33.3787 79.2966 33.3787 81.9572C33.3787 84.6179 34.4517 85.8984 36.6123 85.8984V85.9553Z" fill="white"/>
<path d="M50.0834 86.6534V80.2792C50.1551 79.6693 50.019 79.0531 49.6971 78.5291C49.5042 78.3311 49.2691 78.1785 49.0091 78.0825C48.7492 77.9865 48.471 77.9495 48.1948 77.9743C46.8848 77.9951 45.6122 78.4119 44.5462 79.1693V86.6534H43.4016V77.277H44.3316L44.4461 78.3583C45.0398 77.9379 45.69 77.6027 46.3776 77.3624C47.0096 77.1292 47.678 77.0087 48.3522 77.0067C48.7304 76.9818 49.1099 77.0318 49.4684 77.154C49.8271 77.2761 50.1577 77.4678 50.4411 77.7181C50.6982 78.0051 50.8941 78.341 51.017 78.7053C51.14 79.0697 51.1874 79.455 51.1566 79.8381V86.6534H50.0834Z" fill="white"/>
<path d="M58.8367 84.1915C58.8362 84.0316 58.8028 83.8734 58.7389 83.7266C58.675 83.5799 58.5817 83.4476 58.4648 83.3378C58.1057 83.0324 57.6867 82.8047 57.2342 82.6691L55.5316 82.0288C54.9744 81.9002 54.4756 81.5918 54.1133 81.1516C53.7509 80.7115 53.5453 80.1644 53.5285 79.5958C53.5178 79.2369 53.5912 78.8805 53.7426 78.5546C53.8941 78.2287 54.1196 77.9422 54.4013 77.7177C55.0533 77.2246 55.8578 76.973 56.6763 77.0064C57.1569 77.0025 57.6367 77.0503 58.1071 77.1486C58.5537 77.2432 58.9898 77.3814 59.4091 77.5612V78.4433C58.5295 78.1398 57.6072 77.9766 56.6763 77.9596C56.1357 77.9201 55.5971 78.0602 55.1453 78.358C54.9695 78.4992 54.8299 78.6799 54.7379 78.8852C54.6459 79.0904 54.6041 79.3144 54.6159 79.5389C54.6065 79.7192 54.6347 79.8995 54.6987 80.0685C54.7627 80.2374 54.8612 80.3914 54.9879 80.5207C55.4199 80.8486 55.9033 81.1034 56.4188 81.2747L57.9211 81.8296C58.5004 82.0129 59.0226 82.3412 59.4377 82.783C59.7715 83.1809 59.9449 83.6879 59.9242 84.2057C59.937 84.5891 59.8597 84.97 59.6982 85.3184C59.5368 85.6667 59.2957 85.9727 58.9941 86.2119C58.2637 86.7359 57.3755 86.9968 56.476 86.9517C55.4152 86.9701 54.3654 86.7359 53.4141 86.2687V85.4008C54.4161 85.778 55.4762 85.9802 56.5475 85.9984C57.1603 86.0306 57.7672 85.866 58.2788 85.5289C58.4714 85.3656 58.6224 85.1594 58.7194 84.9269C58.8164 84.6944 58.8566 84.4424 58.8367 84.1915Z" fill="white"/>
<path d="M68.4322 86.6527L68.2892 85.6283C67.2355 86.454 65.9389 86.9138 64.5976 86.9372C64.226 86.9588 63.8541 86.9042 63.5046 86.777C63.1551 86.6497 62.8356 86.4525 62.5659 86.1974C62.3063 85.9116 62.1077 85.5763 61.9824 85.2119C61.857 84.8474 61.8072 84.4615 61.8361 84.0774V77.2764H62.9093V83.6363C62.8563 84.2655 63.0231 84.8936 63.3815 85.4149C63.566 85.6031 63.7897 85.7489 64.0368 85.8423C64.2839 85.9357 64.5486 85.9743 64.8123 85.9555C65.4005 85.9617 65.9856 85.8703 66.5435 85.6852C67.1519 85.4541 67.7286 85.1482 68.2605 84.7746V77.2764H69.3336V86.6527H68.4322Z" fill="white"/>
<path d="M74.8463 86.5816C74.5336 86.6651 74.2114 86.7082 73.8876 86.7097C73.6718 86.7227 73.4556 86.6901 73.2534 86.6141C73.0512 86.5381 72.8675 86.4203 72.7143 86.2686C72.4216 85.9297 72.2728 85.4909 72.2994 85.0449V72.8657H73.3725V85.0307C73.349 85.238 73.4052 85.4464 73.5299 85.6141C73.6072 85.6767 73.6967 85.7229 73.7926 85.7498C73.8886 85.7767 73.9891 85.7838 74.0879 85.7706H74.8463V86.5816Z" fill="white"/>
<path d="M81.7745 86.452C81.1698 86.6714 80.5295 86.7776 79.8858 86.765C79.5795 86.7845 79.2724 86.7429 78.9824 86.6428C78.6926 86.5426 78.4256 86.3858 78.1975 86.1816C77.7876 85.7099 77.5819 85.0962 77.6251 84.4743V78.2139H75.8652V77.4741L77.6538 77.3602L77.8112 74.5146H78.684V77.2322H81.6886V78.1712H78.684V84.4743C78.6617 84.6672 78.6794 84.8628 78.7359 85.0488C78.7925 85.2348 78.8868 85.4072 79.0131 85.5556C79.3257 85.7978 79.7206 85.9101 80.1148 85.8686C80.6756 85.8642 81.2334 85.7878 81.7745 85.641V86.452Z" fill="white"/>
<path d="M84.3734 75.2681C84.265 75.2741 84.1565 75.2569 84.0553 75.2176C83.9541 75.1784 83.8625 75.118 83.7868 75.0404C83.7136 74.9624 83.6569 74.8706 83.62 74.7704C83.5832 74.6701 83.5669 74.5636 83.5722 74.4571C83.5658 74.3482 83.5815 74.2392 83.6184 74.1365C83.6552 74.0339 83.7125 73.9396 83.7868 73.8595C83.8625 73.782 83.9541 73.7215 84.0553 73.6823C84.1565 73.643 84.265 73.6258 84.3734 73.6319C84.4821 73.6239 84.5912 73.6401 84.6927 73.6795C84.7942 73.7189 84.8856 73.7804 84.9601 73.8595C85.0344 73.9396 85.0917 74.0339 85.1286 74.1365C85.1655 74.2392 85.1812 74.3482 85.1747 74.4571C85.1801 74.5636 85.1638 74.6701 85.1269 74.7704C85.09 74.8706 85.0334 74.9624 84.9601 75.0404C84.8856 75.1195 84.7942 75.181 84.6927 75.2204C84.5912 75.2598 84.4821 75.2761 84.3734 75.2681ZM83.8298 86.6505V77.2742H84.9029V86.6505H83.8298Z" fill="white"/>
<path d="M94.5965 86.6534V80.2792C94.65 79.6589 94.4828 79.0395 94.1244 78.5291C93.9394 78.3407 93.7161 78.1937 93.4693 78.098C93.2225 78.0023 92.9581 77.9601 92.6936 77.9743C91.3836 77.9951 90.111 78.4119 89.045 79.1693V86.6534H87.9004V77.277H88.8447L88.9592 78.3583C89.5461 77.9353 90.192 77.5997 90.8765 77.3624C91.5091 77.1314 92.1771 77.011 92.851 77.0067C93.2292 76.9818 93.6086 77.0318 93.9672 77.154C94.3259 77.2761 94.6565 77.4678 94.9399 77.7181C95.1971 78.0051 95.393 78.341 95.5163 78.7053C95.6386 79.0697 95.6864 79.455 95.6558 79.8381V86.6534H94.5965Z" fill="white"/>
<path d="M105.16 85.2712C104.701 85.6524 104.184 85.9597 103.629 86.1818C103.118 86.3987 102.568 86.5146 102.012 86.5232C101.469 86.5401 100.929 86.4336 100.433 86.2117C99.9373 85.9898 99.4987 85.6584 99.1508 85.2427C98.3891 84.2873 98.0021 83.0887 98.0632 81.8707C97.9906 80.5965 98.37 79.3373 99.1365 78.3136C99.4805 77.8919 99.9182 77.5546 100.414 77.3276C100.91 77.1006 101.452 76.9902 101.998 77.0047C103.167 77.001 104.291 77.4501 105.132 78.2567L105.232 77.275H106.176V86.2245C106.22 86.8285 106.143 87.4351 105.949 88.0091C105.755 88.5831 105.448 89.1131 105.046 89.5681C104.613 89.9705 104.1 90.2794 103.542 90.4753C102.983 90.6712 102.389 90.7499 101.798 90.7063C100.734 90.7368 99.6803 90.4968 98.736 90.0091V89.127C99.6898 89.5191 100.71 89.7267 101.741 89.7388C102.201 89.7783 102.666 89.7229 103.104 89.576C103.542 89.4291 103.945 89.1939 104.288 88.8851C104.897 88.1209 105.189 87.1535 105.103 86.1818L105.16 85.2712ZM102.299 85.5558C103.362 85.4917 104.371 85.0702 105.16 84.3606V79.1816C104.731 78.8064 104.248 78.4949 103.73 78.2567C103.247 78.0681 102.732 77.9716 102.213 77.9722C101.786 77.9429 101.357 78.0155 100.965 78.1837C100.572 78.352 100.224 78.6112 99.9526 78.9397C99.3964 79.7816 99.1307 80.7801 99.1938 81.7853C99.1288 82.7746 99.4117 83.7556 99.9956 84.5598C100.273 84.8833 100.621 85.1407 101.012 85.3131C101.403 85.4854 101.828 85.5684 102.256 85.5558H102.299Z" fill="white"/>
<path d="M23.0164 100.026V105.276H21.9434V92.3711H26.4217C26.9449 92.3398 27.4689 92.4159 27.9612 92.5946C28.4534 92.7732 28.9036 93.0507 29.2834 93.4098C29.9561 94.1849 30.3261 95.1742 30.3261 96.1983C30.3261 97.2224 29.9561 98.2122 29.2834 98.9873C28.9016 99.3433 28.4512 99.6191 27.9594 99.7976C27.4676 99.9761 26.9446 100.053 26.4217 100.026H23.0164ZM23.0164 99.0302H26.3788C26.7633 99.0817 27.1546 99.0436 27.5213 98.9176C27.8881 98.7916 28.22 98.5816 28.49 98.3048C28.7602 98.028 28.9611 97.692 29.0765 97.3236C29.192 96.9552 29.2187 96.5648 29.1546 96.184C29.1546 94.2777 28.2389 93.3387 26.3788 93.3387H23.0164V99.0302Z" fill="white"/>
<path d="M38.2513 105.276L38.1511 104.194C37.2145 104.998 36.0254 105.451 34.7887 105.475C34.0325 105.514 33.2915 105.253 32.7284 104.75C32.2098 104.177 31.9386 103.425 31.9734 102.656C32.0082 101.887 32.3463 101.161 32.9144 100.638C33.6211 100.095 34.4977 99.8183 35.3896 99.8555C36.2977 99.8669 37.1993 100.01 38.0653 100.282V98.7025C38.0929 98.4095 38.0588 98.1146 37.9651 97.8349C37.8716 97.5552 37.7205 97.2985 37.5216 97.0809C37.0023 96.701 36.3607 96.5235 35.7188 96.5826C34.6288 96.6008 33.5499 96.8031 32.5281 97.1801V96.2982C33.045 96.0949 33.5822 95.947 34.1306 95.8573C34.709 95.7341 35.299 95.6721 35.8904 95.6721C36.7617 95.6034 37.6291 95.8458 38.3371 96.3555C38.6163 96.6246 38.8326 96.9511 38.9711 97.3128C39.1095 97.6736 39.1666 98.0611 39.1384 98.4467V105.319L38.2513 105.276ZM34.9319 104.508C35.4596 104.503 35.9825 104.406 36.4771 104.223C37.061 104.02 37.6182 103.748 38.1369 103.413V101.079C37.3432 100.868 36.5259 100.758 35.7045 100.752C33.9589 100.752 33.0861 101.421 33.0861 102.758C33.067 102.996 33.0979 103.235 33.1767 103.46C33.2555 103.686 33.3806 103.892 33.5439 104.067C33.9125 104.371 34.3817 104.529 34.8603 104.508H34.9319Z" fill="white"/>
<path d="M42.0127 105.276V95.8566H42.957L43.0572 97.2081C43.4649 96.7576 43.9492 96.3825 44.4879 96.099C44.9702 95.911 45.4875 95.828 46.0046 95.8566C46.2193 95.8566 46.4768 95.8566 46.7773 95.8566V96.8101H45.8901C45.3615 96.8025 44.838 96.9141 44.3592 97.1375C43.8669 97.3856 43.4329 97.735 43.0857 98.1616V105.276H42.0127Z" fill="white"/>
<path d="M53.626 105.078C53.0206 105.294 52.3807 105.4 51.7372 105.391C51.4309 105.411 51.1235 105.37 50.8334 105.269C50.5434 105.169 50.2766 105.012 50.0489 104.807C49.6338 104.338 49.4229 103.723 49.4623 103.1V96.8396H47.7024V96.099L49.5052 95.9281L49.6483 93.1826H50.5353V95.8575H53.5258V96.7824H50.5353V102.985C50.5131 103.179 50.5308 103.374 50.5873 103.56C50.644 103.746 50.7382 103.919 50.8645 104.067C51.1727 104.307 51.5623 104.419 51.9519 104.38C52.5174 104.376 53.08 104.299 53.626 104.153V105.078Z" fill="white"/>
<path d="M62.3015 105.275V98.9012C62.3548 98.2808 62.1878 97.6614 61.8293 97.1507C61.6442 96.9627 61.4209 96.8157 61.1742 96.7203C60.9274 96.6239 60.6629 96.5819 60.3985 96.5962C59.0884 96.6172 57.8159 97.0343 56.75 97.7912V105.275H55.6912V95.8565H56.6211L56.7356 96.9236C57.3293 96.5026 57.9796 96.1676 58.6672 95.9271C59.2947 95.6961 59.9581 95.5759 60.6274 95.572C61.0166 95.5138 61.4139 95.5482 61.7875 95.6704C62.1612 95.7935 62.5007 96.0016 62.7789 96.2774C63.0571 96.5542 63.2663 96.8921 63.3896 97.2633C63.5129 97.6356 63.5469 98.0307 63.489 98.4173V105.232L62.3015 105.275Z" fill="white"/>
<path d="M66.8639 100.766C66.7981 101.785 67.1028 102.795 67.7224 103.611C68.0628 103.945 68.4717 104.202 68.9212 104.363C69.3707 104.526 69.85 104.59 70.3264 104.55C71.3911 104.548 72.4436 104.324 73.4171 103.896V104.763C72.4468 105.284 71.357 105.544 70.255 105.518C69.6342 105.571 69.0094 105.489 68.4239 105.278C67.8383 105.066 67.306 104.731 66.8639 104.295C66.127 103.205 65.7334 101.922 65.7334 100.61C65.7334 99.2962 66.127 98.0134 66.8639 96.9243C67.2625 96.4862 67.7548 96.1426 68.3044 95.9183C68.8541 95.694 69.4472 95.5957 70.0403 95.6291C70.5205 95.5995 71.0018 95.6702 71.4529 95.8362C71.904 96.0033 72.3148 96.2619 72.6587 96.5969C73.3239 97.3901 73.6478 98.4133 73.5601 99.4422C73.5748 99.9194 73.5364 100.397 73.4456 100.865L66.8639 100.766ZM69.9974 96.5826C68.0229 96.5826 66.9784 97.6927 66.8639 99.9118H72.5871C72.5871 99.7409 72.5871 99.5281 72.5871 99.3C72.6302 98.5641 72.384 97.8397 71.9004 97.2794C71.6474 97.037 71.3462 96.8499 71.016 96.7296C70.6857 96.6094 70.3339 96.5597 69.9831 96.5826H69.9974Z" fill="white"/>
<path d="M75.9475 105.273V95.8544H76.8775L76.9776 97.2059C77.3854 96.7554 77.8698 96.3793 78.4085 96.0959C78.8951 95.9059 79.4175 95.8238 79.9394 95.8544C80.1541 95.8544 80.4116 95.8544 80.7121 95.8544V96.8079H79.8249C79.2963 96.8002 78.7728 96.9119 78.294 97.1353C77.8017 97.3834 77.3678 97.7327 77.0206 98.1594V105.273H75.9475Z" fill="white"/>
<path d="M22.1933 64.6688C21.7637 64.5356 21.3781 64.2898 21.0772 63.9574C20.8347 63.6605 20.7078 63.2867 20.7195 62.9044C20.7134 62.6539 20.7656 62.4052 20.8724 62.1781C20.9791 61.9509 21.1374 61.7515 21.3348 61.5955C21.8091 61.2459 22.3903 61.07 22.9802 61.0975C23.5569 61.1036 24.1282 61.2094 24.6685 61.4105V62.4207C24.1567 62.248 23.6207 62.1568 23.0803 62.1504C22.3936 62.1504 22.0501 62.378 22.0501 62.8191C22.0477 62.8939 22.0619 62.9684 22.0915 63.0372C22.1212 63.1061 22.1656 63.1676 22.2218 63.2175C22.4242 63.3662 22.6521 63.4771 22.8944 63.5448L23.5524 63.7866C23.9915 63.9186 24.3901 64.1584 24.7114 64.4838C24.8373 64.6247 24.9337 64.7891 24.9951 64.9674C25.0565 65.1457 25.0816 65.3344 25.0691 65.5224C25.077 65.794 25.0217 66.0636 24.9075 66.3104C24.7933 66.5572 24.6234 66.7745 24.4109 66.9452C23.8888 67.3094 23.2593 67.4897 22.6225 67.4575C22.2915 67.4574 21.9612 67.4289 21.6352 67.3721C21.3439 67.323 21.0602 67.2369 20.7911 67.116V66.12C21.1018 66.2077 21.417 66.2789 21.7354 66.3334C22.033 66.3861 22.3345 66.4146 22.6368 66.4188C22.9178 66.4322 23.1964 66.3629 23.438 66.2196C23.5313 66.1646 23.6075 66.085 23.658 65.9895C23.7085 65.8941 23.7314 65.7865 23.7242 65.6789C23.7261 65.5999 23.7119 65.5214 23.6824 65.448C23.6529 65.3746 23.6087 65.308 23.5524 65.2521C23.343 65.1032 23.1112 64.988 22.8657 64.9106L22.1933 64.6688Z" fill="white"/>
<path d="M28.7329 67.2023C28.3939 67.3262 28.0353 67.3888 27.6741 67.3873C27.4757 67.4076 27.2752 67.3865 27.0855 67.3253C26.8957 67.264 26.721 67.164 26.5724 67.0316C26.4412 66.8855 26.3417 66.7141 26.28 66.5281C26.2185 66.342 26.1963 66.1453 26.2148 65.9503V63.7877H25.5422V63.0051L26.2577 62.8628L26.4436 61.6392H27.5025V62.8486H28.7187V63.7877H27.5025V65.8934C27.4933 65.9641 27.5015 66.0361 27.5264 66.103C27.5513 66.1699 27.5922 66.2297 27.6455 66.2775C27.7831 66.3726 27.9515 66.4133 28.1177 66.3913H28.7329V67.2023Z" fill="white"/>
<path d="M32.1086 67.3167L32.0085 66.9184C31.8225 67.0852 31.6097 67.2198 31.379 67.3167C31.1551 67.4034 30.918 67.4515 30.6779 67.4591C30.4901 67.4677 30.3025 67.4395 30.1258 67.376C29.949 67.3125 29.7865 67.215 29.6476 67.0891C29.5128 66.9645 29.407 66.8121 29.3378 66.6425C29.2686 66.4728 29.2376 66.2902 29.247 66.1073C29.2415 65.8449 29.3163 65.5868 29.4617 65.3675C29.6116 65.1493 29.8197 64.9768 30.0626 64.8695C30.3597 64.739 30.6823 64.6758 31.0069 64.6846C31.32 64.6916 31.6316 64.7297 31.937 64.7984V64.3573C31.9492 64.2581 31.9403 64.1573 31.9106 64.0616C31.8811 63.9661 31.8315 63.8777 31.7653 63.8024C31.5827 63.6862 31.3655 63.636 31.15 63.6602C30.6096 63.6666 30.0736 63.7578 29.5618 63.9305V63.1337C29.821 63.0127 30.0953 62.9265 30.3774 62.8776C30.7067 62.8085 31.0425 62.7752 31.379 62.778C31.8506 62.7389 32.3213 62.8647 32.7096 63.1337C32.8587 63.2814 32.9732 63.4601 33.0449 63.6568C33.1166 63.8535 33.1438 64.0636 33.1245 64.2719V67.3737L32.1086 67.3167ZM31.0928 66.5912C31.2446 66.5892 31.3948 66.5603 31.5364 66.5057C31.6951 66.4346 31.8441 66.3439 31.9799 66.2354V65.4813C31.7466 65.4623 31.5121 65.4623 31.2788 65.4813C30.778 65.4813 30.5205 65.6947 30.5205 66.1073C30.515 66.1822 30.5249 66.2574 30.5495 66.3283C30.5741 66.3992 30.6129 66.4644 30.6635 66.52C30.7916 66.599 30.9459 66.6246 31.0928 66.5912Z" fill="white"/>
<path d="M37.2209 67.3164V64.3855C37.2311 64.2917 37.2224 64.1968 37.1954 64.1065C37.1684 64.0162 37.1235 63.932 37.0635 63.859C36.9992 63.798 36.9226 63.7512 36.8387 63.7218C36.7548 63.6924 36.6657 63.681 36.5771 63.6883C36.2353 63.6947 35.9027 63.7985 35.6184 63.9871V67.3164H34.345V62.8488H35.3895L35.5183 63.3326C35.9932 62.9412 36.5897 62.7251 37.2066 62.7208C37.3803 62.708 37.5549 62.7304 37.7197 62.7866C37.8845 62.8429 38.036 62.9318 38.1653 63.048C38.2858 63.1775 38.3784 63.3301 38.4374 63.4965C38.4965 63.6628 38.5208 63.8395 38.5086 64.0155V67.3164H37.2209Z" fill="white"/>
<path d="M42.7541 67.3171L42.6396 66.9187C42.2914 67.2442 41.8298 67.4227 41.3519 67.4166C41.0061 67.4223 40.6667 67.323 40.3789 67.1321C40.084 66.9383 39.8547 66.6606 39.7207 66.3353C39.5586 65.943 39.4806 65.5215 39.4919 65.0975C39.4624 64.4778 39.6439 63.8662 40.0069 63.3617C40.1747 63.1468 40.3928 62.9761 40.6422 62.8645C40.8917 62.7529 41.1648 62.7038 41.4377 62.7214C41.839 62.7425 42.2239 62.8867 42.5395 63.134V60.8433H43.8272V67.3171H42.7541ZM41.7811 66.4492C42.0656 66.4441 42.3431 66.3603 42.5824 66.2072V63.9023C42.3191 63.7456 42.0163 63.6667 41.7095 63.6747C41.5749 63.6657 41.4402 63.6925 41.3195 63.7526C41.1988 63.8126 41.0964 63.9036 41.0228 64.0162C40.8478 64.3385 40.7684 64.7036 40.7939 65.069C40.7624 65.4321 40.8475 65.7958 41.0371 66.1077C41.1208 66.2237 41.2333 66.3162 41.3638 66.3761C41.4942 66.4359 41.638 66.4611 41.7811 66.4492Z" fill="white"/>
<path d="M47.6843 67.3176L47.5842 66.9193C47.3981 67.0861 47.1854 67.2207 46.9547 67.3176C46.7307 67.4043 46.4936 67.4524 46.2536 67.4599C46.0658 67.4686 45.8782 67.4404 45.7015 67.3769C45.5247 67.3134 45.3622 67.216 45.2233 67.09C45.0885 66.9654 44.9827 66.813 44.9135 66.6434C44.8442 66.4738 44.8132 66.2911 44.8227 66.1083C44.8172 65.8458 44.892 65.5877 45.0374 65.3684C45.1872 65.1501 45.3954 64.9777 45.6383 64.8705C45.9353 64.7399 46.258 64.6767 46.5826 64.6855C46.8957 64.6925 47.2073 64.7306 47.5126 64.7993V64.3582C47.5248 64.259 47.5158 64.1582 47.4863 64.0626C47.4567 63.967 47.4072 63.8786 47.341 63.8033C47.1583 63.6871 46.9411 63.6368 46.7257 63.6611C46.1853 63.6676 45.6493 63.7587 45.1375 63.9314V63.1346C45.3967 63.0136 45.671 62.9275 45.9531 62.8785C46.2823 62.8095 46.6182 62.7761 46.9547 62.7789C47.4221 62.737 47.8891 62.8632 48.2709 63.1346C48.4226 63.281 48.5398 63.459 48.614 63.6558C48.6882 63.8526 48.7176 64.0634 48.7002 64.2729V67.3746L47.6843 67.3176ZM46.6255 66.592C46.7773 66.5901 46.9275 66.5612 47.0691 66.5067C47.2278 66.4355 47.3769 66.3447 47.5126 66.2363V65.4823C47.2793 65.4632 47.0449 65.4632 46.8115 65.4823C46.3107 65.4823 46.0533 65.6957 46.0533 66.1083C46.0478 66.1832 46.0577 66.2583 46.0822 66.3292C46.1069 66.4001 46.1457 66.4653 46.1963 66.5209C46.3244 66.5999 46.4786 66.6254 46.6255 66.592Z" fill="white"/>
<path d="M49.9121 67.3149V62.8473H50.9566L51.114 63.5017C51.307 63.2863 51.5342 63.1036 51.7865 62.9611C51.9883 62.8528 52.2153 62.7989 52.4446 62.8046C52.5635 62.791 52.6835 62.791 52.8023 62.8046V63.9856C52.6218 63.963 52.4391 63.963 52.2586 63.9856C51.8914 63.9828 51.527 64.0505 51.1856 64.1847V67.3433L49.9121 67.3149Z" fill="white"/>
<path d="M56.508 67.3171L56.3935 66.9187C56.0453 67.2442 55.5837 67.4227 55.1058 67.4166C54.7599 67.4223 54.4206 67.323 54.1328 67.1321C53.838 66.9383 53.6086 66.6606 53.4746 66.3353C53.3125 65.943 53.2346 65.5215 53.2457 65.0975C53.2164 64.4778 53.3978 63.8662 53.7609 63.3617C53.9286 63.1468 54.1467 62.9761 54.3961 62.8645C54.6456 62.7529 54.9187 62.7038 55.1916 62.7214C55.6241 62.713 56.047 62.8482 56.3935 63.1055V60.8433H57.6812V67.3171H56.508ZM55.5207 66.4492C55.81 66.446 56.0926 66.3622 56.3363 66.2072V63.9023C56.073 63.7456 55.7702 63.6667 55.4635 63.6747C55.3286 63.6642 55.1934 63.6903 55.0724 63.7505C54.9514 63.8107 54.8491 63.9025 54.7767 64.0162C54.6017 64.3385 54.5224 64.7036 54.5478 65.069C54.5202 65.43 54.5998 65.7912 54.7767 66.1077C54.8632 66.2208 54.9762 66.3111 55.1059 66.3706C55.2356 66.4302 55.3781 66.4571 55.5207 66.4492Z" fill="white"/>
<path d="M128 4.5H0V7.74399H128V4.5Z" fill="white"/>
</svg>
