<svg width="124" height="122" viewBox="0 0 124 122" fill="none" xmlns="http://www.w3.org/2000/svg">
<g clip-path="url(#clip0_13815_1112)">
<mask id="mask0_13815_1112" style="mask-type:luminance" maskUnits="userSpaceOnUse" x="0" y="7" width="124" height="108">
<path d="M123.627 7.97363H0.226685V114.62H123.627V7.97363Z" fill="white"/>
</mask>
<g mask="url(#mask0_13815_1112)">
<path d="M93.0078 7.97363H31.0767L0.226685 61.3545L31.0767 114.62H93.0078L123.627 61.3545L93.0078 7.97363Z" fill="url(#paint0_linear_13815_1112)"/>
<path opacity="0.35" d="M31.0767 7.97363L0.226685 61.3545L35.6673 47.2552L31.0767 7.97363Z" fill="url(#paint1_linear_13815_1112)"/>
<path opacity="0.35" d="M0.226685 61.3555L31.0767 114.621L36.5474 77.3188L0.226685 61.3555Z" fill="url(#paint2_linear_13815_1112)"/>
<path opacity="0.35" d="M93.0063 7.97363L123.625 61.3545L88.4205 47.2552L93.0063 7.97363Z" fill="url(#paint3_linear_13815_1112)"/>
<path opacity="0.35" d="M123.627 61.3555L93.0079 114.621L87.173 77.4737L123.627 61.3555Z" fill="url(#paint4_linear_13815_1112)"/>
<path d="M31.0753 7.97363L35.6659 47.2552L55.2289 21.8793V7.97363H31.0753Z" fill="url(#paint5_linear_13815_1112)"/>
<path d="M93.0082 7.97363L88.432 47.2552L68.8643 21.8793V7.97363H93.0082Z" fill="url(#paint6_linear_13815_1112)"/>
<path d="M31.0753 114.62L36.4687 77.2314L55.9171 100.293V114.62H31.0753Z" fill="url(#paint7_linear_13815_1112)"/>
<path d="M93.0083 114.622L87.1311 77.0742L70.3618 100.642V114.622H93.0083Z" fill="url(#paint8_linear_13815_1112)"/>
<path d="M55.229 21.8799H68.8625L87.9371 47.2559L87.1245 77.0722L70.3764 100.786L55.9447 100.274L36.4688 77.2316L35.666 47.2559L55.229 21.8799Z" fill="url(#paint9_linear_13815_1112)"/>
<path d="M84.8033 21.9551H39.2793L16.2863 61.3553L39.2793 100.64H84.8033L107.565 61.3553L84.8033 21.9551Z" fill="url(#paint10_linear_13815_1112)"/>
<path d="M59.8215 31.4412L58.622 34.6203H59.4927L61.4416 29.4746L58.2013 31.4412H59.8215Z" fill="white"/>
<path d="M55.7827 32.1575L57.3449 33.7279L58.2009 31.4425L59.1682 28.7607L55.7827 32.1575ZM62.1184 31.5196L61.5864 33.0319L63.192 34.6216L62.1184 31.5196Z" fill="white"/>
<path d="M63.1924 34.6205L61.5869 33.0309L61.0257 34.6205H63.1924ZM58.2013 31.4414L61.4416 29.4749L59.1686 28.7598L58.2013 31.4414ZM59.1686 28.7598L61.4416 29.4749L62.1189 25.8076L59.1686 28.7598Z" fill="white"/>
<path d="M61.4399 29.4749H62.8231L62.117 25.8076L61.4399 29.4749ZM62.117 25.8076L62.8231 29.4749L66.1555 29.8566L62.117 25.8076Z" fill="white"/>
<path d="M62.8256 29.4746L63.4446 31.1512L66.1577 29.8563L62.8256 29.4746ZM66.9028 33.7265L68.4504 32.1562L66.395 32.3543L66.9028 33.7265ZM66.395 32.3543L68.4504 32.1562L66.1577 29.8563L66.395 32.3543Z" fill="white"/>
<path d="M66.157 29.8584L64.7934 32.3563H66.394L66.157 29.8584ZM63.444 31.1533L64.7401 34.6224H65.6107L64.7934 32.3563L63.444 31.1533Z" fill="white"/>
<path d="M66.1566 29.8584L63.4434 31.1533L64.7928 32.3563L66.1566 29.8584ZM62.1181 34.5837C60.3143 34.5837 57.3304 34.3469 57.3304 33.7285V34.6031C57.3304 35.0234 59.2987 35.4582 62.1181 35.4582C64.9377 35.4582 66.9061 35.0186 66.9061 34.6031V33.7285C66.9061 34.3469 63.9222 34.5837 62.1181 34.5837ZM54.4429 41.2418L54.0608 39.9276H52.1698L51.7877 41.2418H50.6028L52.3874 35.7143H53.8092L55.6132 41.2418H54.4429ZM53.8045 38.9419L53.4562 37.7389C53.4368 37.7002 53.4175 37.6132 53.3837 37.5215C53.345 37.4102 53.3306 37.304 53.2919 37.1736C53.2532 37.048 53.2192 36.9175 53.1998 36.7918C53.1612 36.6662 53.1467 36.555 53.1274 36.4633C53.108 36.5164 53.108 36.5888 53.0887 36.6662C53.0692 36.7447 53.0514 36.8237 53.0355 36.9029C53.018 36.9901 52.9938 37.0758 52.9629 37.1591C52.9436 37.2508 52.9243 37.3233 52.8905 37.3958C52.871 37.4683 52.8517 37.5408 52.8371 37.5988C52.8179 37.6519 52.7984 37.6905 52.7984 37.7243L52.4503 38.9275L53.7996 38.9468L53.8045 38.9419ZM57.9733 41.3143C57.6638 41.3143 57.3931 41.2756 57.1561 41.1887C56.9191 41.1018 56.7014 40.9713 56.537 40.807C56.3726 40.6234 56.2274 40.4059 56.1356 40.1306C56.0437 39.8552 55.9904 39.5265 55.9904 39.1449C55.9904 38.7245 56.0437 38.3767 56.1356 38.0868C56.2274 37.8113 56.3531 37.5746 56.537 37.4103C56.7014 37.246 56.9191 37.1204 57.1561 37.0431C57.3931 36.9658 57.6638 36.9319 57.9588 36.9319C58.1764 36.9319 58.3941 36.9513 58.5972 37.0046C58.8149 37.0577 59.018 37.1301 59.1969 37.2218L58.8681 38.0964C58.7036 38.024 58.5392 37.9708 58.3941 37.9128C58.249 37.8596 58.104 37.8403 57.9588 37.8403C57.688 37.8403 57.4849 37.9515 57.3591 38.1495C57.2334 38.367 57.1754 38.681 57.1754 39.0965C57.1754 39.5121 57.2285 39.8262 57.3591 40.029C57.4898 40.232 57.688 40.3383 57.9394 40.3383C58.1572 40.3383 58.3602 40.2997 58.5392 40.2465C58.7274 40.1901 58.9102 40.1172 59.0857 40.029V40.9955C58.9938 41.0341 58.9019 41.0872 58.8149 41.1211C58.7278 41.1549 58.6311 41.1742 58.5441 41.2128C58.4522 41.2322 58.3602 41.2515 58.2732 41.2659C58.2007 41.3046 58.0895 41.3046 57.983 41.3046L57.9733 41.3143ZM61.2136 41.2418H60.0674V37.0285H61.2136V41.2418ZM64.2752 41.3142C63.9656 41.3142 63.6948 41.2755 63.4385 41.1887C63.1821 41.0968 62.9645 40.9713 62.7807 40.7876C62.597 40.604 62.4518 40.3865 62.36 40.1112C62.2488 39.8358 62.2149 39.5265 62.2149 39.1641C62.2149 38.8018 62.2681 38.4732 62.36 38.1978C62.4518 37.9224 62.5776 37.6856 62.742 37.5069C62.9066 37.3233 63.1048 37.1783 63.3418 37.0866C63.5916 36.9894 63.8573 36.9402 64.1253 36.9415C64.3961 36.9415 64.6524 36.9802 64.87 37.0673C65.0876 37.159 65.2907 37.2701 65.4359 37.4344C65.6003 37.5986 65.7067 37.8016 65.7986 38.0384C65.8905 38.2751 65.9244 38.5505 65.9244 38.8598V39.425H63.3562C63.3562 39.5893 63.3949 39.7343 63.4288 39.8648C63.482 39.9903 63.54 40.1016 63.6271 40.1933C63.7142 40.2851 63.8109 40.3575 63.9366 40.3962C64.0624 40.4494 64.1929 40.4687 64.338 40.4687C64.4638 40.4687 64.5943 40.4687 64.7008 40.4494C64.81 40.4289 64.9196 40.4112 65.0297 40.3962C65.1409 40.3575 65.2473 40.3431 65.3585 40.2851C65.4697 40.2464 65.5761 40.1933 65.6874 40.1401V41.034C65.5761 41.0871 65.489 41.1258 65.3779 41.1597C65.2666 41.1982 65.1796 41.2321 65.0489 41.2514C64.9377 41.2708 64.8119 41.2901 64.6863 41.3045C64.5605 41.3239 64.43 41.3239 64.2654 41.3239L64.2752 41.3142ZM64.1253 37.7581C63.9269 37.7581 63.7625 37.8306 63.6175 37.9756C63.4916 38.1205 63.3998 38.3428 63.3805 38.652H64.8362C64.8362 38.5263 64.8168 38.3959 64.7829 38.3041C64.7443 38.193 64.7104 38.1011 64.6573 38.0287C64.6041 37.9563 64.5315 37.8837 64.4396 37.845C64.3477 37.7919 64.2559 37.7533 64.13 37.7533L64.1253 37.7581ZM68.6035 40.4058C68.7147 40.4058 68.8212 40.3865 68.9324 40.3672C69.0436 40.348 69.1308 40.3141 69.2419 40.2754V41.1307C69.1308 41.1838 69.0049 41.2418 68.8405 41.2756C68.676 41.3094 68.5117 41.3288 68.3133 41.3288C68.1296 41.3288 67.9651 41.3094 67.8056 41.2756C67.6411 41.2369 67.5153 41.1645 67.3847 41.0582C67.2735 40.9471 67.1865 40.802 67.1139 40.6185C67.0413 40.4348 67.022 40.2175 67.022 39.942V37.8789H66.4756V37.3861L67.1139 37.0043L67.4428 36.1105H68.1731V37.0043H69.1936V37.8596H68.1731V39.8841C68.1731 40.0483 68.2118 40.174 68.2988 40.2513C68.3713 40.3624 68.4827 40.3962 68.6083 40.3962L68.6035 40.4058ZM69.4984 37.0287H70.7558L71.428 39.401C71.4667 39.5265 71.5007 39.6764 71.52 39.8213C71.5394 39.9662 71.5587 40.0967 71.5587 40.2224H71.5781C71.5781 40.1692 71.5974 40.0967 71.5974 40.0193C71.5974 39.942 71.6168 39.8745 71.636 39.802C71.6553 39.7295 71.6553 39.6571 71.6747 39.5845C71.694 39.5121 71.7134 39.459 71.7279 39.3817L72.3857 37.0092H73.6432L71.9843 41.7733C71.8198 42.2129 71.6215 42.556 71.3459 42.759C71.075 42.9764 70.7461 43.0876 70.3447 43.0876C70.219 43.0876 70.1077 43.0876 69.9965 43.0682C69.9046 43.0489 69.8128 43.0296 69.7596 43.0296V42.1163C69.8128 42.1356 69.8708 42.1356 69.9579 42.155C70.0303 42.1743 70.1224 42.1743 70.2142 42.1743C70.3399 42.1743 70.4318 42.155 70.5237 42.1212C70.6156 42.0873 70.6881 42.0488 70.7412 41.9762C70.8052 41.9111 70.8606 41.8381 70.9058 41.7588C70.9444 41.667 70.9783 41.5753 71.0169 41.4834L71.0895 41.2659L69.5081 37.0333L69.4984 37.0287Z" fill="white"/>
<path d="M27.121 55.9859H28.3981C28.3725 56.4045 28.2571 56.7761 28.0521 57.1008C27.8499 57.4253 27.5666 57.6788 27.2021 57.861C26.8405 58.0432 26.4047 58.1344 25.8951 58.1344C25.4964 58.1344 25.1391 58.066 24.823 57.9293C24.5069 57.7898 24.2364 57.5905 24.0115 57.3313C23.7894 57.0723 23.6199 56.759 23.5031 56.3917C23.3864 56.0244 23.328 55.6128 23.328 55.1572V54.7258C23.328 54.2703 23.3878 53.8588 23.5075 53.4915C23.6299 53.1212 23.8035 52.8066 24.0286 52.5475C24.2564 52.2883 24.5283 52.089 24.8443 51.9495C25.1604 51.81 25.5135 51.7403 25.9036 51.7403C26.4219 51.7403 26.859 51.8342 27.2149 52.0222C27.5737 52.2101 27.8513 52.4692 28.0478 52.7995C28.2472 53.1299 28.3667 53.5057 28.4066 53.9272H27.1253C27.111 53.6766 27.0612 53.4644 26.9757 53.2907C26.8903 53.1142 26.7607 52.9818 26.587 52.8935C26.4162 52.8024 26.1884 52.7568 25.9036 52.7568C25.6901 52.7568 25.5036 52.7967 25.344 52.8764C25.1846 52.9562 25.0508 53.0772 24.9426 53.2394C24.8344 53.4017 24.7532 53.6068 24.6992 53.8545C24.6479 54.0994 24.6223 54.387 24.6223 54.7173V55.1572C24.6223 55.4791 24.6465 55.7623 24.6949 56.0073C24.7433 56.2493 24.8173 56.4544 24.9169 56.6223C25.0195 56.7874 25.1505 56.9127 25.3099 56.9982C25.4722 57.0808 25.6673 57.1221 25.8951 57.1221C26.1628 57.1221 26.3834 57.0793 26.5571 56.9939C26.7309 56.9085 26.8632 56.7818 26.9544 56.6138C27.0484 56.4457 27.1038 56.2365 27.121 55.9859ZM31.8963 56.9427V53.4274H33.1263V58.0489H31.9688L31.8963 56.9427ZM32.0329 55.9944L32.396 55.9859C32.396 56.2934 32.3604 56.5796 32.2892 56.8445C32.218 57.1064 32.1113 57.3342 31.9688 57.5279C31.8264 57.7187 31.6471 57.8681 31.4307 57.9763C31.2143 58.0817 30.9594 58.1344 30.6661 58.1344C30.4412 58.1344 30.2332 58.103 30.0426 58.0404C29.8545 57.9749 29.6922 57.8738 29.5556 57.7371C29.4218 57.5976 29.3164 57.4196 29.2395 57.2032C29.1655 56.984 29.1285 56.7206 29.1285 56.413V53.4274H30.3586V56.4215C30.3586 56.5582 30.3742 56.6735 30.4056 56.7676C30.4397 56.8615 30.4867 56.9384 30.5466 56.9982C30.6063 57.058 30.676 57.1008 30.7558 57.1264C30.8384 57.1519 30.9295 57.1647 31.0291 57.1647C31.2826 57.1647 31.482 57.1136 31.6271 57.011C31.7752 56.9085 31.8791 56.769 31.9389 56.5924C32.0017 56.413 32.0329 56.2137 32.0329 55.9944ZM36.5647 56.7719C36.5647 56.6836 36.5391 56.6038 36.4878 56.5326C36.4366 56.4614 36.3412 56.3959 36.2017 56.3361C36.065 56.2735 35.8672 56.2165 35.608 56.1653C35.3744 56.1141 35.1567 56.05 34.9545 55.9731C34.7552 55.8933 34.5814 55.798 34.4334 55.6869C34.2881 55.5758 34.1742 55.4449 34.0917 55.294C34.0091 55.1402 33.9678 54.9651 33.9678 54.7686C33.9678 54.5749 34.0091 54.3927 34.0917 54.2218C34.1771 54.051 34.2982 53.9001 34.4547 53.7691C34.6142 53.6353 34.8078 53.5313 35.0356 53.4573C35.2663 53.3804 35.5255 53.342 35.813 53.342C36.2145 53.342 36.5591 53.406 36.8467 53.5342C37.1371 53.6624 37.3592 53.8389 37.513 54.0638C37.6696 54.2859 37.7479 54.5393 37.7479 54.8241H36.5178C36.5178 54.7045 36.4921 54.5978 36.4409 54.5038C36.3925 54.407 36.3156 54.3315 36.2102 54.2774C36.1077 54.2205 35.9739 54.192 35.8087 54.192C35.6721 54.192 35.5539 54.2162 35.4542 54.2646C35.3546 54.3101 35.2777 54.3727 35.2235 54.4525C35.1724 54.5294 35.1466 54.6148 35.1466 54.7088C35.1466 54.78 35.1609 54.844 35.1894 54.901C35.2208 54.9551 35.2706 55.0049 35.3389 55.0505C35.4073 55.096 35.4955 55.1388 35.6037 55.1787C35.7148 55.2157 35.8515 55.2498 36.0138 55.2812C36.347 55.3495 36.6445 55.4392 36.9064 55.5502C37.1685 55.6585 37.3763 55.8065 37.5301 55.9944C37.6839 56.1795 37.7608 56.423 37.7608 56.7248C37.7608 56.9299 37.7151 57.1178 37.624 57.2887C37.533 57.4595 37.4019 57.609 37.2311 57.7371C37.0602 57.8624 36.8552 57.9606 36.616 58.0319C36.3797 58.1001 36.1134 58.1344 35.8172 58.1344C35.3874 58.1344 35.0228 58.0575 34.7238 57.9037C34.4276 57.7499 34.2027 57.5549 34.0489 57.3185C33.898 57.0793 33.8226 56.8345 33.8226 56.5838H34.9887C34.9944 56.7519 35.037 56.8871 35.1168 56.9896C35.1993 57.0921 35.3033 57.1662 35.4286 57.2118C35.5567 57.2573 35.6948 57.2801 35.8429 57.2801C36.0024 57.2801 36.1348 57.2587 36.2401 57.216C36.3455 57.1705 36.4252 57.1107 36.4793 57.0367C36.5363 56.9598 36.5647 56.8715 36.5647 56.7719ZM40.8232 53.4274V54.2987H38.1323V53.4274H40.8232ZM38.7986 52.287H40.0288V56.6565C40.0288 56.7903 40.0459 56.8928 40.08 56.964C40.117 57.0352 40.1712 57.0851 40.2423 57.1136C40.3136 57.1391 40.4032 57.1519 40.5114 57.1519C40.5883 57.1519 40.6566 57.1491 40.7165 57.1434C40.7791 57.1349 40.8317 57.1263 40.8745 57.1178L40.8788 58.0234C40.7734 58.0575 40.6595 58.0846 40.5371 58.1045C40.4147 58.1243 40.2793 58.1344 40.1313 58.1344C39.8607 58.1344 39.6244 58.0902 39.4222 58.0019C39.2229 57.9108 39.0692 57.7656 38.961 57.5663C38.8527 57.3669 38.7986 57.105 38.7986 56.7804V52.287ZM41.2162 55.7852V55.6955C41.2162 55.3566 41.2646 55.0448 41.3615 54.7601C41.4582 54.4725 41.5992 54.2233 41.7843 54.0126C41.9693 53.8019 42.1971 53.6382 42.4677 53.5214C42.7382 53.4017 43.0486 53.342 43.3988 53.342C43.7491 53.342 44.0609 53.4017 44.3342 53.5214C44.6076 53.6382 44.8369 53.8019 45.0219 54.0126C45.2098 54.2233 45.3522 54.4725 45.449 54.7601C45.5458 55.0448 45.5943 55.3566 45.5943 55.6955V55.7852C45.5943 56.1212 45.5458 56.4329 45.449 56.7206C45.3522 57.0053 45.2098 57.2544 45.0219 57.468C44.8369 57.6788 44.6091 57.8425 44.3385 57.9593C44.0679 58.076 43.7576 58.1344 43.4074 58.1344C43.0571 58.1344 42.7453 58.076 42.472 57.9593C42.2014 57.8425 41.9722 57.6788 41.7843 57.468C41.5992 57.2544 41.4582 57.0053 41.3615 56.7206C41.2646 56.4329 41.2162 56.1212 41.2162 55.7852ZM42.4463 55.6955V55.7852C42.4463 55.9788 42.4634 56.1596 42.4976 56.3276C42.5318 56.4956 42.5859 56.6437 42.6599 56.7719C42.7368 56.8971 42.8364 56.9954 42.9589 57.0665C43.0813 57.1378 43.2309 57.1733 43.4074 57.1733C43.5782 57.1733 43.7249 57.1378 43.8473 57.0665C43.9697 56.9954 44.0679 56.8971 44.142 56.7719C44.2161 56.6437 44.2701 56.4956 44.3044 56.3276C44.3414 56.1596 44.3598 55.9788 44.3598 55.7852V55.6955C44.3598 55.5076 44.3414 55.331 44.3044 55.1658C44.2701 54.9978 44.2147 54.8498 44.1378 54.7216C44.0637 54.5906 43.9654 54.4881 43.843 54.4141C43.7206 54.34 43.5726 54.303 43.3988 54.303C43.2251 54.303 43.0771 54.34 42.9546 54.4141C42.835 54.4881 42.7368 54.5906 42.6599 54.7216C42.5859 54.8498 42.5318 54.9978 42.4976 55.1658C42.4634 55.331 42.4463 55.5076 42.4463 55.6955ZM47.5804 54.3842V58.0489H46.346V53.4274H47.5035L47.5804 54.3842ZM47.4096 55.5758H47.0679C47.0679 55.2541 47.1063 54.9579 47.1832 54.6875C47.2629 54.4141 47.3782 54.1777 47.5291 53.9784C47.6829 53.7763 47.8723 53.6196 48.0972 53.5086C48.3222 53.3975 48.5827 53.342 48.8789 53.342C49.0839 53.342 49.2718 53.3733 49.4427 53.436C49.6135 53.4958 49.7602 53.5911 49.8826 53.7221C50.0079 53.8503 50.1047 54.0183 50.1731 54.2261C50.2414 54.4312 50.2756 54.6774 50.2756 54.9651V58.0489H49.0454V55.1018C49.0454 54.891 49.017 54.7287 48.96 54.6148C48.9031 54.5009 48.8219 54.4212 48.7165 54.3756C48.614 54.3301 48.4902 54.3073 48.345 54.3073C48.1855 54.3073 48.0459 54.34 47.9264 54.4055C47.8096 54.4711 47.7128 54.5621 47.6359 54.6789C47.559 54.7928 47.502 54.9267 47.465 55.0803C47.428 55.2341 47.4096 55.3993 47.4096 55.5758ZM50.1603 55.4349L49.7203 55.4904C49.7203 55.1886 49.7573 54.9081 49.8314 54.649C49.9083 54.3899 50.0207 54.1621 50.1688 53.9656C50.3197 53.7691 50.5063 53.6167 50.7283 53.5086C50.9505 53.3975 51.2067 53.342 51.4971 53.342C51.7193 53.342 51.9215 53.3747 52.1037 53.4402C52.286 53.5028 52.4412 53.6039 52.5692 53.7435C52.7002 53.8801 52.7999 54.0595 52.8683 54.2817C52.9394 54.5038 52.975 54.7757 52.975 55.0975V58.0489H51.7406V55.0975C51.7406 54.8839 51.7121 54.7216 51.6552 54.6106C51.6011 54.4967 51.5213 54.4184 51.416 54.3756C51.3135 54.3301 51.191 54.3073 51.0487 54.3073C50.9007 54.3073 50.7711 54.3372 50.66 54.3969C50.5489 54.4539 50.4564 54.5337 50.3824 54.6362C50.3083 54.7386 50.2528 54.8583 50.2158 54.9949C50.1788 55.1288 50.1603 55.2754 50.1603 55.4349ZM57.682 57.0623L58.9207 51.83H59.6126L59.7706 52.7013L58.4508 58.0489H57.7077L57.682 57.0623ZM57.0456 51.83L58.0707 57.0623L57.9853 58.0489H57.1566L55.7771 51.83H57.0456ZM60.8598 57.0409L61.8721 51.83H63.1407L61.7653 58.0489H60.9367L60.8598 57.0409ZM60.0013 51.83L61.2485 57.0836L61.2143 58.0489H60.4712L59.1428 52.697L59.3137 51.83H60.0013ZM65.7505 58.1344C65.3916 58.1344 65.0699 58.0774 64.7851 57.9635C64.5004 57.8467 64.2583 57.6859 64.059 57.4808C63.8625 57.2759 63.7116 57.038 63.6063 56.7676C63.5009 56.4941 63.4482 56.2038 63.4482 55.8962V55.7253C63.4482 55.3751 63.498 55.0547 63.5977 54.7643C63.6974 54.4738 63.8397 54.2218 64.0249 54.0083C64.2128 53.7947 64.4406 53.631 64.7083 53.5171C64.9759 53.4003 65.2777 53.342 65.6138 53.342C65.9412 53.342 66.2317 53.3961 66.4851 53.5043C66.7386 53.6125 66.9507 53.7662 67.1216 53.9656C67.2953 54.1649 67.4262 54.4041 67.5145 54.6832C67.6027 54.9594 67.6469 55.2669 67.6469 55.6058V56.1183H63.9736V55.2982H66.4382V55.2043C66.4382 55.0334 66.4068 54.881 66.3442 54.7472C66.2844 54.6106 66.1932 54.5023 66.0708 54.4227C65.9483 54.3429 65.7918 54.303 65.601 54.303C65.4387 54.303 65.2991 54.3386 65.1824 54.4097C65.0656 54.481 64.9703 54.5806 64.8962 54.7088C64.825 54.837 64.771 54.9879 64.7338 55.1615C64.6997 55.3323 64.6827 55.5204 64.6827 55.7253V55.8962C64.6827 56.0813 64.7082 56.2522 64.7595 56.4087C64.8136 56.5654 64.8891 56.7006 64.9859 56.8145C65.0856 56.9284 65.2051 57.0167 65.3447 57.0793C65.4871 57.142 65.6479 57.1733 65.8273 57.1733C66.0494 57.1733 66.2559 57.1306 66.4467 57.0452C66.6403 56.9569 66.8068 56.8245 66.9464 56.6479L67.5444 57.2972C67.4476 57.4367 67.3152 57.5705 67.1471 57.6987C66.9821 57.8268 66.7827 57.9322 66.5492 58.0147C66.3157 58.0945 66.0494 58.1344 65.7505 58.1344ZM68.3473 51.4883H69.5775V56.9896L69.4537 58.0489H68.3473V51.4883ZM72.5033 55.6912V55.7809C72.5033 56.1255 72.4663 56.4415 72.3923 56.7291C72.3211 57.0167 72.2101 57.2658 72.0592 57.4766C71.9083 57.6844 71.7202 57.8467 71.4953 57.9635C71.2732 58.0774 71.0113 58.1344 70.7094 58.1344C70.4275 58.1344 70.1826 58.0774 69.9748 57.9635C69.7697 57.8496 69.5975 57.6887 69.458 57.4808C69.3184 57.273 69.2059 57.0295 69.1205 56.7504C69.0351 56.4714 68.971 56.1667 68.9282 55.8364V55.6399C68.971 55.3096 69.0351 55.0049 69.1205 54.7258C69.2059 54.4469 69.3184 54.2034 69.458 53.9955C69.5975 53.7876 69.7697 53.6268 69.9748 53.5129C70.1797 53.399 70.4218 53.342 70.7009 53.342C71.0056 53.342 71.2704 53.4003 71.4953 53.5171C71.7231 53.631 71.911 53.7933 72.0592 54.0041C72.2101 54.2119 72.3211 54.4597 72.3923 54.7472C72.4663 55.032 72.5033 55.3466 72.5033 55.6912ZM71.2732 55.7809V55.6912C71.2732 55.5033 71.259 55.3267 71.2305 55.1615C71.2049 54.9935 71.1593 54.8469 71.0938 54.7216C71.0283 54.5935 70.9386 54.4924 70.8247 54.4184C70.7137 54.3443 70.5699 54.3073 70.3934 54.3073C70.2254 54.3073 70.083 54.3357 69.9662 54.3927C69.8495 54.4496 69.7526 54.5294 69.6757 54.6319C69.6017 54.7344 69.5462 54.8568 69.5091 54.9992C69.4721 55.1388 69.4494 55.2926 69.4409 55.4605V56.0201C69.4494 56.245 69.4864 56.4443 69.5519 56.6181C69.6203 56.7889 69.7228 56.9241 69.8595 57.0239C69.999 57.1206 70.1797 57.169 70.4019 57.169C70.5756 57.169 70.7194 57.1349 70.8333 57.0665C70.9472 56.9982 71.0355 56.9014 71.0981 56.7761C71.1635 56.6508 71.2092 56.5042 71.2348 56.3361C71.2604 56.1653 71.2732 55.9802 71.2732 55.7809ZM77.4324 58.0489H76.0784L76.087 57.0495H77.4324C77.7685 57.0495 78.0517 56.974 78.2824 56.823C78.5131 56.6693 78.6868 56.4457 78.8035 56.1525C78.9231 55.8592 78.9829 55.5047 78.9829 55.089V54.7857C78.9829 54.4667 78.9487 54.1862 78.8804 53.9442C78.8149 53.7021 78.7167 53.4986 78.5857 53.3335C78.4546 53.1683 78.2938 53.0445 78.103 52.9618C77.9122 52.8764 77.693 52.8337 77.4452 52.8337H76.0528V51.83H77.4452C77.8609 51.83 78.2411 51.9011 78.5857 52.0435C78.9331 52.1831 79.2335 52.3838 79.4869 52.6457C79.7404 52.9077 79.9354 53.221 80.072 53.5855C80.2116 53.9471 80.2814 54.35 80.2814 54.7942V55.089C80.2814 55.5303 80.2116 55.9332 80.072 56.2977C79.9354 56.6622 79.7404 56.9754 79.4869 57.2374C79.2364 57.4965 78.9359 57.6972 78.5857 57.8396C78.2383 57.9792 77.8539 58.0489 77.4324 58.0489ZM76.8045 51.83V58.0489H75.5231V51.83H76.8045ZM83.2627 58.1344C82.9039 58.1344 82.5822 58.0774 82.2974 57.9635C82.0127 57.8467 81.7706 57.6859 81.5713 57.4808C81.3748 57.2759 81.2239 57.038 81.1186 56.7676C81.0132 56.4941 80.9605 56.2038 80.9605 55.8962V55.7253C80.9605 55.3751 81.0103 55.0547 81.11 54.7643C81.2096 54.4738 81.352 54.2218 81.5371 54.0083C81.725 53.7947 81.9528 53.631 82.2205 53.5171C82.4882 53.4003 82.79 53.342 83.1261 53.342C83.4535 53.342 83.744 53.3961 83.9974 53.5043C84.2509 53.6125 84.463 53.7662 84.6338 53.9656C84.8076 54.1649 84.9385 54.4041 85.0268 54.6832C85.115 54.9594 85.1592 55.2669 85.1592 55.6058V56.1183H81.4858V55.2982H83.9504V55.2043C83.9504 55.0334 83.9191 54.881 83.8565 54.7472C83.7967 54.6106 83.7055 54.5023 83.583 54.4227C83.4606 54.3429 83.3041 54.303 83.1133 54.303C82.951 54.303 82.8114 54.3386 82.6947 54.4097C82.5779 54.481 82.4825 54.5806 82.4084 54.7088C82.3373 54.837 82.2831 54.9879 82.2461 55.1615C82.212 55.3323 82.1949 55.5204 82.1949 55.7253V55.8962C82.1949 56.0813 82.2205 56.2522 82.2718 56.4087C82.3259 56.5654 82.4014 56.7006 82.4981 56.8145C82.5978 56.9284 82.7174 57.0167 82.857 57.0793C82.9994 57.142 83.1602 57.1733 83.3396 57.1733C83.5617 57.1733 83.7682 57.1306 83.959 57.0452C84.1525 56.9569 84.3191 56.8245 84.4587 56.6479L85.0567 57.2972C84.9598 57.4367 84.8274 57.5705 84.6594 57.6987C84.4943 57.8268 84.2949 57.9322 84.0615 58.0147C83.828 58.0945 83.5617 58.1344 83.2627 58.1344ZM88.3583 56.7719C88.3583 56.6836 88.3327 56.6038 88.2815 56.5326C88.2303 56.4614 88.1348 56.3959 87.9953 56.3361C87.8586 56.2735 87.6608 56.2165 87.4016 56.1653C87.1681 56.1141 86.9503 56.05 86.7481 55.9731C86.5488 55.8933 86.375 55.798 86.227 55.6869C86.0818 55.5758 85.9679 55.4449 85.8853 55.294C85.8027 55.1402 85.7614 54.9651 85.7614 54.7686C85.7614 54.5749 85.8027 54.3927 85.8853 54.2218C85.9707 54.051 86.0918 53.9001 86.2483 53.7691C86.4078 53.6353 86.6015 53.5313 86.8292 53.4573C87.0599 53.3804 87.3191 53.342 87.6066 53.342C88.0081 53.342 88.3527 53.406 88.6403 53.5342C88.9307 53.6624 89.1529 53.8389 89.3066 54.0638C89.4632 54.2859 89.5415 54.5393 89.5415 54.8241H88.3114C88.3114 54.7045 88.2857 54.5978 88.2345 54.5038C88.1861 54.407 88.1092 54.3315 88.0039 54.2774C87.9014 54.2205 87.7675 54.192 87.6023 54.192C87.4657 54.192 87.3475 54.2162 87.2478 54.2646C87.1481 54.3101 87.0713 54.3727 87.0172 54.4525C86.966 54.5294 86.9403 54.6148 86.9403 54.7088C86.9403 54.78 86.9546 54.844 86.983 54.901C87.0144 54.9551 87.0642 55.0049 87.1326 55.0505C87.2008 55.096 87.2891 55.1388 87.3974 55.1787C87.5084 55.2157 87.6451 55.2498 87.8074 55.2812C88.1406 55.3495 88.4381 55.4392 88.7 55.5502C88.9621 55.6585 89.1699 55.8065 89.3237 55.9944C89.4775 56.1795 89.5544 56.423 89.5544 56.7248C89.5544 56.9299 89.5087 57.1178 89.4177 57.2887C89.3265 57.4595 89.1955 57.609 89.0247 57.7371C88.8538 57.8624 88.6488 57.9606 88.4096 58.0319C88.1733 58.1001 87.907 58.1344 87.6109 58.1344C87.181 58.1344 86.8165 58.0575 86.5174 57.9037C86.2213 57.7499 85.9963 57.5549 85.8426 57.3185C85.6917 57.0793 85.6163 56.8345 85.6163 56.5838H86.7822C86.788 56.7519 86.8306 56.8871 86.9104 56.9896C86.993 57.0921 87.0969 57.1662 87.2222 57.2118C87.3503 57.2573 87.4884 57.2801 87.6366 57.2801C87.796 57.2801 87.9283 57.2587 88.0337 57.216C88.1391 57.1705 88.2188 57.1107 88.2729 57.0367C88.3299 56.9598 88.3583 56.8715 88.3583 56.7719ZM91.6516 53.4274V58.0489H90.4172V53.4274H91.6516ZM90.3403 52.2229C90.3403 52.0435 90.4029 51.8955 90.5282 51.7787C90.6535 51.6619 90.8214 51.6036 91.0322 51.6036C91.24 51.6036 91.4066 51.6619 91.5319 51.7787C91.6601 51.8955 91.7241 52.0435 91.7241 52.2229C91.7241 52.4023 91.6601 52.5504 91.5319 52.6671C91.4066 52.7838 91.24 52.8423 91.0322 52.8423C90.8214 52.8423 90.6535 52.7838 90.5282 52.6671C90.4029 52.5504 90.3403 52.4023 90.3403 52.2229ZM95.594 53.4274H96.7087V57.8952C96.7087 58.3166 96.6148 58.674 96.4269 58.9673C96.2417 59.2634 95.9826 59.487 95.6494 59.6379C95.3163 59.7917 94.929 59.8685 94.4876 59.8685C94.2941 59.8685 94.089 59.8428 93.8726 59.7917C93.6591 59.7404 93.454 59.6606 93.2576 59.5524C93.0639 59.4442 92.9016 59.3076 92.7706 59.1424L93.313 58.4162C93.4554 58.5814 93.6206 58.7095 93.8085 58.8007C93.9965 58.8947 94.2044 58.9417 94.4322 58.9417C94.6542 58.9417 94.8422 58.9003 94.9959 58.8178C95.1497 58.738 95.2678 58.6198 95.3505 58.4633C95.433 58.3095 95.4743 58.123 95.4743 57.9037V54.4952L95.594 53.4274ZM92.4844 55.7937V55.704C92.4844 55.3509 92.5271 55.0305 92.6126 54.7429C92.7009 54.4525 92.8247 54.2034 92.9841 53.9955C93.1464 53.7876 93.343 53.6268 93.5736 53.5129C93.8042 53.399 94.0648 53.342 94.3553 53.342C94.6627 53.342 94.9205 53.399 95.1284 53.5129C95.3362 53.6268 95.507 53.7891 95.6409 53.9998C95.7747 54.2077 95.8787 54.4539 95.9527 54.7386C96.0296 55.0206 96.0894 55.3296 96.1321 55.6655V55.8621C96.0894 56.1838 96.0254 56.4828 95.9399 56.759C95.8545 57.0352 95.742 57.2773 95.6025 57.4851C95.4629 57.6902 95.2893 57.8496 95.0813 57.9635C94.8764 58.0774 94.6315 58.1344 94.3467 58.1344C94.062 58.1344 93.8042 58.076 93.5736 57.9593C93.3458 57.8425 93.1507 57.6788 92.9885 57.468C92.8262 57.2573 92.7009 57.0096 92.6126 56.7248C92.5271 56.4401 92.4844 56.1297 92.4844 55.7937ZM93.7145 55.704V55.7937C93.7145 55.9845 93.7331 56.1625 93.7701 56.3276C93.8071 56.4928 93.8641 56.6394 93.941 56.7676C94.0206 56.8928 94.1189 56.9911 94.2356 57.0623C94.3553 57.1306 94.4962 57.1647 94.6585 57.1647C94.8835 57.1647 95.0671 57.1178 95.2095 57.0239C95.3519 56.927 95.4586 56.7946 95.5299 56.6266C95.601 56.4586 95.6424 56.265 95.6537 56.0457V55.4861C95.648 55.3068 95.6238 55.1459 95.5811 55.0036C95.5384 54.8583 95.4786 54.7344 95.4017 54.6319C95.3248 54.5294 95.2252 54.4496 95.1028 54.3927C94.9803 54.3357 94.8351 54.3073 94.6671 54.3073C94.5048 54.3073 94.3638 54.3443 94.2441 54.4184C94.1275 54.4895 94.0293 54.5877 93.9495 54.7131C93.8726 54.8384 93.8143 54.9864 93.7744 55.1572C93.7345 55.3253 93.7145 55.5076 93.7145 55.704ZM98.87 54.4141V58.0489H97.6399V53.4274H98.7931L98.87 54.4141ZM98.6907 55.5758H98.3575C98.3575 55.2341 98.4015 54.9267 98.4898 54.6532C98.5781 54.377 98.702 54.1422 98.8615 53.9485C99.0209 53.7521 99.2102 53.6025 99.4295 53.5001C99.6516 53.3947 99.8994 53.342 100.173 53.342C100.389 53.342 100.587 53.3733 100.766 53.436C100.946 53.4986 101.1 53.5983 101.228 53.7349C101.359 53.8716 101.458 54.0525 101.527 54.2774C101.598 54.5023 101.634 54.7771 101.634 55.1018V58.0489H100.395V55.0975C100.395 54.8924 100.366 54.733 100.309 54.6191C100.252 54.5052 100.168 54.4254 100.057 54.3799C99.9492 54.3315 99.8154 54.3073 99.6559 54.3073C99.4907 54.3073 99.347 54.34 99.2245 54.4055C99.1049 54.4711 99.0053 54.5621 98.9255 54.6789C98.8486 54.7928 98.7903 54.9267 98.7504 55.0803C98.7105 55.2341 98.6907 55.3993 98.6907 55.5758ZM39.0934 68.7136H37.7393L37.7479 67.7141H39.0934C39.4294 67.7141 39.7127 67.6386 39.9434 67.4877C40.174 67.3339 40.3477 67.1104 40.4645 66.8171C40.584 66.5238 40.6438 66.1693 40.6438 65.7536V65.4503C40.6438 65.1313 40.6097 64.8508 40.5414 64.6089C40.4759 64.3668 40.3775 64.1632 40.2466 63.9981C40.1156 63.8329 39.9547 63.7091 39.764 63.6264C39.5732 63.541 39.354 63.4984 39.1062 63.4984H37.7137V62.4946H39.1062C39.5219 62.4946 39.902 62.5657 40.2466 62.7081C40.594 62.8477 40.8945 63.0484 41.1479 63.3103C41.4012 63.5724 41.5963 63.8856 41.733 64.2501C41.8725 64.6117 41.9423 65.0147 41.9423 65.4588V65.7536C41.9423 66.1949 41.8725 66.5978 41.733 66.9623C41.5963 67.3269 41.4012 67.6401 41.1479 67.902C40.8972 68.1611 40.5968 68.3619 40.2466 68.5042C39.8992 68.6438 39.5148 68.7136 39.0934 68.7136ZM38.4655 62.4946V68.7136H37.1841V62.4946H38.4655ZM44.9237 68.799C44.5649 68.799 44.2432 68.7421 43.9584 68.6282C43.6736 68.5114 43.4316 68.3505 43.2323 68.1455C43.0358 67.9405 42.8848 67.7027 42.7794 67.4322C42.6742 67.1588 42.6215 66.8684 42.6215 66.5608V66.39C42.6215 66.0397 42.6713 65.7194 42.7709 65.429C42.8706 65.1385 43.013 64.8865 43.198 64.673C43.386 64.4593 43.6138 64.2956 43.8815 64.1817C44.1491 64.065 44.451 64.0066 44.7869 64.0066C45.1145 64.0066 45.4049 64.0607 45.6583 64.169C45.9117 64.2771 46.1239 64.4309 46.2947 64.6302C46.4684 64.8295 46.5994 65.0687 46.6877 65.3478C46.776 65.624 46.8202 65.9315 46.8202 66.2704V66.783H43.1468V65.9628H45.6113V65.8689C45.6113 65.698 45.5801 65.5456 45.5174 65.4118C45.4575 65.2752 45.3665 65.1669 45.244 65.0873C45.1216 65.0075 44.9649 64.9676 44.7741 64.9676C44.6118 64.9676 44.4723 65.0032 44.3556 65.0744C44.2389 65.1456 44.1434 65.2452 44.0694 65.3734C43.9982 65.5016 43.9441 65.6525 43.9071 65.8261C43.873 65.997 43.8558 66.185 43.8558 66.39V66.5608C43.8558 66.7459 43.8815 66.9168 43.9327 67.0734C43.9869 67.23 44.0623 67.3652 44.1591 67.4791C44.2587 67.593 44.3784 67.6813 44.5179 67.7439C44.6602 67.8067 44.8212 67.8379 45.0006 67.8379C45.2227 67.8379 45.4291 67.7952 45.6198 67.7098C45.8135 67.6215 45.9801 67.4892 46.1196 67.3126L46.7176 67.9618C46.6208 68.1013 46.4884 68.2352 46.3204 68.3633C46.1552 68.4914 45.9559 68.5968 45.7224 68.6793C45.4889 68.7591 45.2227 68.799 44.9237 68.799ZM49.0326 67.8166L50.0577 64.0921H51.3434L49.7844 68.7136H49.007L49.0326 67.8166ZM48.3279 64.0921L49.3573 67.8208L49.3786 68.7136H48.597L47.0379 64.0921H48.3279ZM53.9617 68.799C53.603 68.799 53.2811 68.7421 52.9964 68.6282C52.7116 68.5114 52.4696 68.3505 52.2703 68.1455C52.0738 67.9405 51.9229 67.7027 51.8175 67.4322C51.7121 67.1588 51.6594 66.8684 51.6594 66.5608V66.39C51.6594 66.0397 51.7094 65.7194 51.809 65.429C51.9087 65.1385 52.051 64.8865 52.2361 64.673C52.4241 64.4593 52.6519 64.2956 52.9195 64.1817C53.1871 64.065 53.4891 64.0066 53.825 64.0066C54.1525 64.0066 54.4429 64.0607 54.6964 64.169C54.9498 64.2771 55.1619 64.4309 55.3328 64.6302C55.5065 64.8295 55.6375 65.0687 55.7258 65.3478C55.8141 65.624 55.8582 65.9315 55.8582 66.2704V66.783H52.1849V65.9628H54.6494V65.8689C54.6494 65.698 54.618 65.5456 54.5554 65.4118C54.4956 65.2752 54.4045 65.1669 54.2821 65.0873C54.1597 65.0075 54.003 64.9676 53.8122 64.9676C53.6499 64.9676 53.5104 65.0032 53.3936 65.0744C53.2768 65.1456 53.1815 65.2452 53.1075 65.3734C53.0362 65.5016 52.9822 65.6525 52.9452 65.8261C52.9109 65.997 52.8939 66.185 52.8939 66.39V66.5608C52.8939 66.7459 52.9195 66.9168 52.9708 67.0734C53.0248 67.23 53.1003 67.3652 53.1972 67.4791C53.2968 67.593 53.4164 67.6813 53.5559 67.7439C53.6983 67.8067 53.8592 67.8379 54.0386 67.8379C54.2606 67.8379 54.4671 67.7952 54.6579 67.7098C54.8516 67.6215 55.0182 67.4892 55.1577 67.3126L55.7556 67.9618C55.6588 68.1013 55.5264 68.2352 55.3585 68.3633C55.1933 68.4914 54.9939 68.5968 54.7604 68.6793C54.5269 68.7591 54.2607 68.799 53.9617 68.799ZM57.8571 62.1529V68.7136H56.6228V62.1529H57.8571ZM58.6772 66.4498V66.3601C58.6772 66.0212 58.7256 65.7095 58.8224 65.4247C58.9193 65.1371 59.0602 64.888 59.2453 64.6772C59.4303 64.4665 59.6582 64.3028 59.9287 64.186C60.1992 64.0664 60.5096 64.0066 60.8598 64.0066C61.21 64.0066 61.5219 64.0664 61.7952 64.186C62.0686 64.3028 62.2978 64.4665 62.483 64.6772C62.6709 64.888 62.8133 65.1371 62.9101 65.4247C63.0069 65.7095 63.0552 66.0212 63.0552 66.3601V66.4498C63.0552 66.7858 63.0069 67.0976 62.9101 67.3852C62.8133 67.6699 62.6709 67.9191 62.483 68.1327C62.2978 68.3434 62.07 68.5071 61.7995 68.6239C61.529 68.7407 61.2186 68.799 60.8683 68.799C60.5181 68.799 60.2063 68.7407 59.9329 68.6239C59.6625 68.5071 59.4332 68.3434 59.2453 68.1327C59.0602 67.9191 58.9193 67.6699 58.8224 67.3852C58.7256 67.0976 58.6772 66.7858 58.6772 66.4498ZM59.9074 66.3601V66.4498C59.9074 66.6435 59.9244 66.8242 59.9585 66.9922C59.9928 67.1603 60.0468 67.3083 60.1209 67.4365C60.1978 67.5617 60.2975 67.66 60.4199 67.7311C60.5423 67.8024 60.6918 67.8379 60.8683 67.8379C61.0392 67.8379 61.1858 67.8024 61.3084 67.7311C61.4308 67.66 61.529 67.5617 61.603 67.4365C61.677 67.3083 61.7312 67.1603 61.7653 66.9922C61.8024 66.8242 61.8209 66.6435 61.8209 66.4498V66.3601C61.8209 66.1722 61.8024 65.9956 61.7653 65.8304C61.7312 65.6624 61.6757 65.5144 61.5988 65.3862C61.5248 65.2552 61.4265 65.1528 61.3041 65.0787C61.1816 65.0046 61.0335 64.9676 60.8598 64.9676C60.6861 64.9676 60.5381 65.0046 60.4156 65.0787C60.296 65.1528 60.1978 65.2552 60.1209 65.3862C60.0468 65.5144 59.9928 65.6624 59.9585 65.8304C59.9244 65.9956 59.9074 66.1722 59.9074 66.3601ZM65.0414 64.9804V70.4904H63.8112V64.0921H64.9517L65.0414 64.9804ZM67.9673 66.3516V66.4413C67.9673 66.7772 67.9274 67.089 67.8477 67.3767C67.7708 67.6643 67.6569 67.9148 67.506 68.1284C67.355 68.3391 67.1671 68.5042 66.9422 68.6239C66.72 68.7407 66.4638 68.799 66.1734 68.799C65.8914 68.799 65.6465 68.7421 65.4387 68.6282C65.2308 68.5143 65.0557 68.3548 64.9133 68.1497C64.7737 67.9419 64.6613 67.7013 64.5759 67.428C64.4905 67.1545 64.4249 66.8612 64.3794 66.548V66.3131C64.4249 65.9771 64.4905 65.6696 64.5759 65.3905C64.6613 65.1086 64.7737 64.8651 64.9133 64.6602C65.0557 64.4522 65.2293 64.2914 65.4344 64.1775C65.6423 64.0636 65.8857 64.0066 66.1648 64.0066C66.4581 64.0066 66.7158 64.0621 66.9379 64.1732C67.1628 64.2842 67.3507 64.4437 67.5016 64.6515C67.6554 64.8595 67.7708 65.1072 67.8477 65.3947C67.9274 65.6824 67.9673 66.0013 67.9673 66.3516ZM66.7328 66.4413V66.3516C66.7328 66.155 66.7158 65.9743 66.6816 65.8091C66.6503 65.6411 66.599 65.4945 66.5278 65.3691C66.4595 65.2438 66.3684 65.147 66.2545 65.0787C66.1434 65.0075 66.0082 64.9719 65.8487 64.9719C65.6807 64.9719 65.5369 64.999 65.4173 65.053C65.3006 65.1072 65.2051 65.1855 65.1311 65.288C65.0571 65.3905 65.0015 65.5129 64.9645 65.6553C64.9275 65.7977 64.9047 65.9586 64.8962 66.138V66.7317C64.9105 66.9424 64.9503 67.1318 65.0158 67.2998C65.0813 67.465 65.1824 67.5959 65.319 67.6928C65.4557 67.7896 65.6351 67.8379 65.8573 67.8379C66.0196 67.8379 66.1562 67.8024 66.2673 67.7311C66.3783 67.6571 66.468 67.556 66.5364 67.428C66.6075 67.2998 66.6574 67.1517 66.6859 66.9837C66.7171 66.8157 66.7328 66.6348 66.7328 66.4413ZM69.962 65.0488V68.7136H68.7275V64.0921H69.8851L69.962 65.0488ZM69.7911 66.2404H69.4494C69.4494 65.9187 69.4878 65.6225 69.5647 65.3521C69.6445 65.0787 69.7598 64.8423 69.9107 64.643C70.0645 64.4409 70.2539 64.2842 70.4788 64.1732C70.7037 64.0621 70.9642 64.0066 71.2604 64.0066C71.4655 64.0066 71.6534 64.0379 71.8242 64.1006C71.9951 64.1604 72.1417 64.2558 72.2641 64.3867C72.3894 64.5149 72.4863 64.6829 72.5546 64.8907C72.623 65.0958 72.6571 65.3421 72.6571 65.6297V68.7136H71.427V65.7664C71.427 65.5557 71.3985 65.3934 71.3415 65.2795C71.2846 65.1656 71.2034 65.0858 71.0981 65.0402C70.9956 64.9947 70.8718 64.9719 70.7265 64.9719C70.5671 64.9719 70.4275 65.0046 70.3079 65.0701C70.1912 65.1357 70.0943 65.2268 70.0174 65.3436C69.9406 65.4574 69.8837 65.5913 69.8466 65.745C69.8096 65.8988 69.7911 66.0639 69.7911 66.2404ZM72.5418 66.0996L72.1018 66.155C72.1018 65.8532 72.1388 65.5727 72.213 65.3136C72.2898 65.0545 72.4022 64.8267 72.5504 64.6302C72.7013 64.4338 72.8878 64.2814 73.1098 64.1732C73.332 64.0621 73.5883 64.0066 73.8788 64.0066C74.1008 64.0066 74.303 64.0394 74.4853 64.1049C74.6675 64.1675 74.8227 64.2686 74.9508 64.4082C75.0818 64.5448 75.1814 64.7242 75.2498 64.9463C75.3209 65.1684 75.3566 65.4403 75.3566 65.7621V68.7136H74.1221V65.7621C74.1221 65.5485 74.0937 65.3862 74.0367 65.2752C73.9826 65.1613 73.9029 65.083 73.7976 65.0402C73.695 64.9947 73.5726 64.9719 73.4302 64.9719C73.2822 64.9719 73.1526 65.0019 73.0416 65.0616C72.9305 65.1185 72.8379 65.1983 72.7639 65.3008C72.6899 65.4033 72.6343 65.5229 72.5973 65.6595C72.5603 65.7934 72.5418 65.94 72.5418 66.0996ZM78.4362 68.799C78.0774 68.799 77.7556 68.7421 77.4708 68.6282C77.1861 68.5114 76.9441 68.3505 76.7448 68.1455C76.5482 67.9405 76.3973 67.7027 76.292 67.4322C76.1866 67.1588 76.1339 66.8684 76.1339 66.5608V66.39C76.1339 66.0397 76.1838 65.7194 76.2834 65.429C76.3831 65.1385 76.5255 64.8865 76.7105 64.673C76.8986 64.4593 77.1264 64.2956 77.3939 64.1817C77.6616 64.065 77.9635 64.0066 78.2995 64.0066C78.627 64.0066 78.9174 64.0607 79.1709 64.169C79.4243 64.2771 79.6364 64.4309 79.8072 64.6302C79.981 64.8295 80.1119 65.0687 80.2002 65.3478C80.2885 65.624 80.3327 65.9315 80.3327 66.2704V66.783H76.6594V65.9628H79.1238V65.8689C79.1238 65.698 79.0925 65.5456 79.0299 65.4118C78.9701 65.2752 78.879 65.1669 78.7565 65.0873C78.6341 65.0075 78.4775 64.9676 78.2867 64.9676C78.1244 64.9676 77.9849 65.0032 77.8681 65.0744C77.7513 65.1456 77.656 65.2452 77.582 65.3734C77.5107 65.5016 77.4566 65.6525 77.4196 65.8261C77.3854 65.997 77.3683 66.185 77.3683 66.39V66.5608C77.3683 66.7459 77.3939 66.9168 77.4452 67.0734C77.4993 67.23 77.5748 67.3652 77.6716 67.4791C77.7712 67.593 77.8909 67.6813 78.0304 67.7439C78.1728 67.8067 78.3337 67.8379 78.5131 67.8379C78.7351 67.8379 78.9416 67.7952 79.1324 67.7098C79.326 67.6215 79.4926 67.4892 79.6321 67.3126L80.2301 67.9618C80.1333 68.1013 80.0009 68.2352 79.8329 68.3633C79.6677 68.4914 79.4684 68.5968 79.2349 68.6793C79.0014 68.7591 78.7351 68.799 78.4362 68.799ZM82.2376 65.0787V68.7136H81.0075V64.0921H82.1607L82.2376 65.0787ZM82.0582 66.2404H81.725C81.725 65.8988 81.7692 65.5913 81.8575 65.3179C81.9457 65.0416 82.0696 64.8068 82.2291 64.6131C82.3885 64.4167 82.5779 64.2672 82.7972 64.1647C83.0193 64.0593 83.267 64.0066 83.5404 64.0066C83.7568 64.0066 83.9547 64.0379 84.1341 64.1006C84.3135 64.1632 84.4672 64.2629 84.5953 64.3995C84.7264 64.5362 84.826 64.7171 84.8944 64.942C84.9655 65.1669 85.0011 65.4418 85.0011 65.7664V68.7136H83.7624V65.7621C83.7624 65.5571 83.7339 65.3976 83.677 65.2837C83.62 65.1698 83.5361 65.0901 83.425 65.0445C83.3169 64.9961 83.183 64.9719 83.0236 64.9719C82.8584 64.9719 82.7146 65.0046 82.5921 65.0701C82.4725 65.1357 82.3729 65.2268 82.2932 65.3436C82.2163 65.4574 82.1579 65.5913 82.118 65.745C82.0782 65.8988 82.0582 66.0639 82.0582 66.2404ZM88.2003 64.0921V64.9634H85.5094V64.0921H88.2003ZM86.1757 62.9516H87.4059V67.3211C87.4059 67.4549 87.423 67.5574 87.4571 67.6287C87.4942 67.6998 87.5483 67.7497 87.6194 67.7782C87.6906 67.8038 87.7803 67.8166 87.8886 67.8166C87.9655 67.8166 88.0337 67.8137 88.0935 67.808C88.1561 67.7995 88.2088 67.791 88.2516 67.7824L88.2559 68.688C88.1505 68.7221 88.0366 68.7492 87.9142 68.7691C87.7917 68.789 87.6565 68.799 87.5084 68.799C87.2379 68.799 87.0015 68.7548 86.7994 68.6665C86.6001 68.5755 86.4463 68.4302 86.338 68.2309C86.2299 68.0316 86.1757 67.7696 86.1757 67.445V62.9516Z" fill="#112244"/>
<path d="M50.1643 80.3522V85.6093H49.0848V80.3522H50.1643ZM51.782 80.3522V81.2007H47.4924V80.3522H51.782ZM56.6168 82.858V83.1071C56.6168 83.5067 56.5626 83.8653 56.4542 84.1831C56.346 84.5008 56.1931 84.7717 55.9957 84.9956C55.7984 85.217 55.5625 85.3868 55.288 85.5047C55.016 85.6227 54.7139 85.6816 54.3817 85.6816C54.0519 85.6816 53.7498 85.6227 53.4754 85.5047C53.2034 85.3868 52.9675 85.217 52.7677 84.9956C52.5679 84.7717 52.4127 84.5008 52.302 84.1831C52.1936 83.8653 52.1394 83.5067 52.1394 83.1071V82.858C52.1394 82.456 52.1936 82.0974 52.302 81.782C52.4102 81.4643 52.5631 81.1934 52.7605 80.9696C52.9603 80.7457 53.1962 80.5748 53.4683 80.4568C53.7427 80.3389 54.0447 80.2799 54.3745 80.2799C54.7066 80.2799 55.0088 80.3389 55.2808 80.4568C55.5552 80.5748 55.7911 80.7457 55.9885 80.9696C56.1883 81.1934 56.3424 81.4643 56.4506 81.782C56.5614 82.0974 56.6168 82.456 56.6168 82.858ZM55.5227 83.1071V82.8508C55.5227 82.5715 55.4974 82.326 55.4469 82.1142C55.3963 81.9024 55.3217 81.7242 55.223 81.5798C55.1244 81.4354 55.004 81.327 54.8619 81.2549C54.72 81.1802 54.5574 81.1429 54.3745 81.1429C54.1915 81.1429 54.0291 81.1802 53.8871 81.2549C53.7475 81.327 53.6282 81.4354 53.5296 81.5798C53.4333 81.7242 53.3599 81.9024 53.3094 82.1142C53.2588 82.326 53.2335 82.5715 53.2335 82.8508V83.1071C53.2335 83.3839 53.2588 83.6294 53.3094 83.8437C53.3599 84.0556 53.4346 84.2349 53.5332 84.3817C53.6318 84.5261 53.7523 84.6356 53.8943 84.7103C54.0363 84.7849 54.1988 84.8223 54.3817 84.8223C54.5647 84.8223 54.7271 84.7849 54.8692 84.7103C55.0112 84.6356 55.1303 84.5261 55.2266 84.3817C55.3229 84.2349 55.3963 84.0556 55.4469 83.8437C55.4974 83.6294 55.5227 83.3839 55.5227 83.1071ZM59.444 83.7354H58.1044V82.8905H59.444C59.651 82.8905 59.8195 82.8568 59.9495 82.7894C60.0795 82.7196 60.1745 82.6233 60.2346 82.5006C60.2949 82.3777 60.325 82.2394 60.325 82.0853C60.325 81.9289 60.2949 81.7832 60.2346 81.6484C60.1745 81.5136 60.0795 81.4053 59.9495 81.3234C59.8195 81.2416 59.651 81.2007 59.444 81.2007H58.4799V85.6093H57.3967V80.3522H59.444C59.8556 80.3522 60.2082 80.4267 60.5019 80.576C60.7979 80.7229 61.0242 80.9263 61.1807 81.1863C61.3371 81.4462 61.4154 81.7435 61.4154 82.078C61.4154 82.4175 61.3371 82.7112 61.1807 82.9591C61.0242 83.207 60.7979 83.3984 60.5019 83.5332C60.2082 83.668 59.8556 83.7354 59.444 83.7354ZM66.4307 80.3413V85.6093H65.3908V81.5401L64.1415 81.9373V81.1176L66.3188 80.3413H66.4307ZM71.6807 82.5186V83.4285C71.6807 83.8232 71.6385 84.1638 71.5543 84.4503C71.47 84.7344 71.3485 84.9678 71.1897 85.1509C71.0331 85.3313 70.8466 85.4649 70.63 85.5516C70.4133 85.6382 70.1726 85.6816 69.9078 85.6816C69.696 85.6816 69.4986 85.6551 69.3157 85.6022C69.1327 85.5468 68.9678 85.4613 68.8209 85.3458C68.6765 85.2302 68.5513 85.0846 68.4454 84.9089C68.342 84.7308 68.2625 84.519 68.2072 84.2734C68.1518 84.0279 68.1241 83.7462 68.1241 83.4285V82.5186C68.1241 82.1238 68.1662 81.7856 68.2505 81.504C68.3372 81.22 68.4587 80.9876 68.6152 80.8071C68.774 80.6266 68.9618 80.4941 69.1784 80.4099C69.3951 80.3233 69.6358 80.2799 69.9006 80.2799C70.1124 80.2799 70.3086 80.3076 70.4891 80.363C70.6721 80.416 70.837 80.4989 70.9838 80.6121C71.1307 80.7252 71.2558 80.8709 71.3593 81.049C71.4628 81.2248 71.5422 81.4354 71.5976 81.6809C71.653 81.9241 71.6807 82.2033 71.6807 82.5186ZM70.6371 83.5657V82.3777C70.6371 82.1876 70.6264 82.0215 70.6047 81.8795C70.5854 81.7374 70.5553 81.6171 70.5144 81.5184C70.4735 81.4173 70.423 81.3355 70.3627 81.2729C70.3026 81.2103 70.234 81.1645 70.1569 81.1357C70.0799 81.1068 69.9945 81.0923 69.9006 81.0923C69.7827 81.0923 69.678 81.1153 69.5865 81.161C69.4974 81.2066 69.4216 81.2801 69.359 81.3812C69.2964 81.4799 69.2483 81.6123 69.2146 81.7784C69.1832 81.9421 69.1677 82.1418 69.1677 82.3777V83.5657C69.1677 83.7558 69.1772 83.9231 69.1966 84.0675C69.2182 84.212 69.2494 84.336 69.2904 84.4395C69.3337 84.5406 69.3843 84.6236 69.4421 84.6887C69.5022 84.7513 69.5708 84.797 69.6479 84.8258C69.7273 84.8547 69.8139 84.8692 69.9078 84.8692C70.0234 84.8692 70.1257 84.8463 70.2147 84.8005C70.3062 84.7524 70.3832 84.6778 70.4458 84.5767C70.5108 84.4732 70.559 84.3384 70.5902 84.1723C70.6216 84.0062 70.6371 83.804 70.6371 83.5657ZM72.374 81.6412V81.3632C72.374 81.1633 72.4173 80.9816 72.504 80.8179C72.5906 80.6542 72.7181 80.523 72.8866 80.4244C73.0551 80.3256 73.2621 80.2764 73.5077 80.2764C73.7605 80.2764 73.9711 80.3256 74.1396 80.4244C74.3105 80.523 74.4381 80.6542 74.5224 80.8179C74.609 80.9816 74.6523 81.1633 74.6523 81.3632V81.6412C74.6523 81.8362 74.609 82.0155 74.5224 82.1792C74.4381 82.3429 74.3117 82.474 74.1432 82.5728C73.9747 82.6714 73.7653 82.7208 73.5149 82.7208C73.267 82.7208 73.0576 82.6714 72.8866 82.5728C72.7181 82.474 72.5906 82.3429 72.504 82.1792C72.4173 82.0155 72.374 81.8362 72.374 81.6412ZM73.0635 81.3632V81.6412C73.0635 81.7255 73.0792 81.8061 73.1105 81.8831C73.1442 81.9578 73.1947 82.0191 73.2621 82.0673C73.332 82.113 73.4162 82.1359 73.5149 82.1359C73.6184 82.1359 73.7027 82.113 73.7676 82.0673C73.8327 82.0191 73.8808 81.9578 73.9121 81.8831C73.9434 81.8061 73.9591 81.7255 73.9591 81.6412V81.3632C73.9591 81.274 73.9422 81.1922 73.9085 81.1176C73.8771 81.0406 73.8279 80.9792 73.7605 80.9335C73.6954 80.8853 73.6112 80.8612 73.5077 80.8612C73.4114 80.8612 73.3295 80.8853 73.2621 80.9335C73.1947 80.9792 73.1442 81.0406 73.1105 81.1176C73.0792 81.1922 73.0635 81.274 73.0635 81.3632ZM74.887 84.5983V84.3203C74.887 84.123 74.9303 83.9424 75.017 83.7787C75.106 83.615 75.2349 83.4839 75.4034 83.3851C75.5742 83.2865 75.7837 83.2371 76.0316 83.2371C76.2819 83.2371 76.4914 83.2865 76.6599 83.3851C76.8284 83.4839 76.9559 83.615 77.0426 83.7787C77.1292 83.9424 77.1726 84.123 77.1726 84.3203V84.5983C77.1726 84.7957 77.1292 84.9763 77.0426 85.14C76.9584 85.3037 76.832 85.4349 76.6635 85.5335C76.495 85.6323 76.2867 85.6816 76.0389 85.6816C75.7885 85.6816 75.5778 85.6323 75.407 85.5335C75.236 85.4349 75.106 85.3037 75.017 85.14C74.9303 84.9763 74.887 84.7957 74.887 84.5983ZM75.5803 84.3203V84.5983C75.5803 84.685 75.5995 84.7668 75.638 84.8439C75.6766 84.9209 75.7295 84.9824 75.7969 85.028C75.8667 85.0737 75.9474 85.0967 76.0389 85.0967C76.1544 85.0967 76.2446 85.0737 76.3096 85.028C76.3746 84.9824 76.4192 84.9209 76.4432 84.8439C76.4697 84.7668 76.4829 84.685 76.4829 84.5983V84.3203C76.4829 84.2337 76.4661 84.1531 76.4324 84.0784C76.3987 84.0014 76.3481 83.94 76.2807 83.8942C76.2157 83.8461 76.1327 83.822 76.0316 83.822C75.9305 83.822 75.8463 83.8461 75.7789 83.8942C75.7138 83.94 75.6645 84.0014 75.6308 84.0784C75.5971 84.1531 75.5803 84.2337 75.5803 84.3203ZM76.288 81.1032L73.7207 85.2122L73.2152 84.945L75.7825 80.8359L76.288 81.1032Z" fill="#112244"/>
<path d="M59.6659 109.125V109.734H56.9687V109.214L58.2442 107.847C58.3724 107.704 58.4735 107.579 58.5475 107.47C58.6215 107.36 58.6748 107.262 58.7073 107.175C58.7416 107.087 58.7587 107.003 58.7587 106.923C58.7587 106.804 58.7389 106.702 58.6992 106.617C58.6594 106.531 58.6007 106.464 58.5231 106.417C58.4473 106.37 58.3534 106.346 58.2414 106.346C58.1223 106.346 58.0194 106.375 57.9328 106.433C57.8479 106.491 57.7829 106.571 57.7378 106.674C57.6945 106.777 57.6728 106.893 57.6728 107.023H56.8901C56.8901 106.789 56.9461 106.574 57.0581 106.379C57.17 106.182 57.328 106.026 57.5319 105.91C57.7359 105.793 57.9779 105.734 58.2578 105.734C58.534 105.734 58.7669 105.779 58.9564 105.87C59.1477 105.958 59.2922 106.086 59.3897 106.254C59.489 106.42 59.5386 106.619 59.5386 106.85C59.5386 106.98 59.5179 107.107 59.4763 107.232C59.4348 107.355 59.3752 107.478 59.2976 107.6C59.2217 107.721 59.1297 107.844 59.0214 107.969C58.9131 108.093 58.793 108.222 58.6612 108.356L57.9761 109.125H59.6659ZM62.8072 107.416V108.099C62.8072 108.395 62.7756 108.65 62.7125 108.865C62.6492 109.078 62.5581 109.253 62.4389 109.39C62.3216 109.526 62.1817 109.626 62.0192 109.691C61.8568 109.756 61.6762 109.788 61.4776 109.788C61.3187 109.788 61.1707 109.768 61.0334 109.729C60.8963 109.687 60.7726 109.623 60.6624 109.537C60.5542 109.45 60.4602 109.341 60.3809 109.209C60.3032 109.075 60.2436 108.916 60.2021 108.732C60.1606 108.548 60.1399 108.337 60.1399 108.099V107.416C60.1399 107.12 60.1714 106.866 60.2346 106.655C60.2996 106.442 60.3908 106.268 60.5081 106.132C60.6272 105.997 60.7681 105.898 60.9305 105.835C61.0931 105.77 61.2736 105.737 61.4722 105.737C61.6311 105.737 61.7782 105.758 61.9136 105.799C62.0508 105.839 62.1745 105.901 62.2846 105.986C62.3947 106.071 62.4886 106.18 62.5663 106.314C62.6438 106.446 62.7034 106.604 62.7449 106.788C62.7865 106.97 62.8072 107.18 62.8072 107.416ZM62.0246 108.201V107.311C62.0246 107.168 62.0165 107.043 62.0002 106.937C61.9858 106.83 61.9632 106.74 61.9326 106.666C61.9019 106.59 61.8639 106.529 61.8188 106.482C61.7737 106.435 61.7222 106.401 61.6645 106.379C61.6067 106.357 61.5426 106.346 61.4722 106.346C61.3837 106.346 61.3052 106.364 61.2366 106.398C61.1697 106.432 61.1129 106.487 61.066 106.563C61.0191 106.637 60.9829 106.736 60.9576 106.861C60.9342 106.984 60.9224 107.134 60.9224 107.311V108.201C60.9224 108.344 60.9297 108.47 60.9441 108.578C60.9604 108.686 60.9839 108.779 61.0145 108.857C61.047 108.933 61.085 108.995 61.1283 109.044C61.1734 109.091 61.2249 109.125 61.2826 109.147C61.3422 109.168 61.4071 109.179 61.4776 109.179C61.5642 109.179 61.641 109.162 61.7078 109.128C61.7763 109.091 61.8342 109.036 61.8811 108.96C61.9298 108.882 61.966 108.781 61.9894 108.656C62.0129 108.532 62.0246 108.38 62.0246 108.201ZM66.0353 109.125V109.734H63.338V109.214L64.6135 107.847C64.7417 107.704 64.8427 107.579 64.9168 107.47C64.9908 107.36 65.0441 107.262 65.0766 107.175C65.1109 107.087 65.128 107.003 65.128 106.923C65.128 106.804 65.1082 106.702 65.0684 106.617C65.0287 106.531 64.9701 106.464 64.8924 106.417C64.8166 106.37 64.7228 106.346 64.6108 106.346C64.4917 106.346 64.3888 106.375 64.3021 106.433C64.2173 106.491 64.1522 106.571 64.1071 106.674C64.0638 106.777 64.0422 106.893 64.0422 107.023H63.2595C63.2595 106.789 63.3155 106.574 63.4273 106.379C63.5393 106.182 63.6973 106.026 63.9013 105.91C64.1053 105.793 64.3472 105.734 64.627 105.734C64.9032 105.734 65.1361 105.779 65.3258 105.87C65.5171 105.958 65.6615 106.086 65.7591 106.254C65.8583 106.42 65.9079 106.619 65.9079 106.85C65.9079 106.98 65.8871 107.107 65.8457 107.232C65.8042 107.355 65.7446 107.478 65.6669 107.6C65.5911 107.721 65.4991 107.844 65.3907 107.969C65.2823 108.093 65.1624 108.222 65.0306 108.356L64.3455 109.125H66.0353ZM67.2566 107.939L66.6337 107.79L66.8585 105.791H69.0736V106.422H67.5003L67.4028 107.297C67.4552 107.266 67.5346 107.234 67.6411 107.199C67.7476 107.163 67.8668 107.145 67.9985 107.145C68.1899 107.145 68.3596 107.175 68.5076 107.235C68.6557 107.294 68.7812 107.381 68.8841 107.495C68.9888 107.608 69.0682 107.747 69.1224 107.912C69.1765 108.076 69.2036 108.262 69.2036 108.47C69.2036 108.645 69.1765 108.812 69.1224 108.971C69.0682 109.128 68.9861 109.268 68.876 109.393C68.7658 109.516 68.6277 109.612 68.4617 109.683C68.2955 109.753 68.0988 109.788 67.8713 109.788C67.7016 109.788 67.5373 109.763 67.3784 109.712C67.2214 109.662 67.0797 109.587 66.9533 109.488C66.8287 109.389 66.7285 109.268 66.6526 109.128C66.5786 108.985 66.5398 108.822 66.5362 108.64H67.3108C67.3215 108.752 67.3504 108.849 67.3974 108.93C67.4461 109.009 67.5102 109.071 67.5896 109.114C67.6691 109.157 67.7621 109.179 67.8686 109.179C67.9679 109.179 68.0527 109.16 68.1231 109.122C68.1936 109.084 68.2504 109.032 68.2937 108.965C68.337 108.896 68.3687 108.817 68.3885 108.727C68.4102 108.635 68.4211 108.535 68.4211 108.429C68.4211 108.322 68.4084 108.226 68.3831 108.139C68.3578 108.052 68.319 107.978 68.2666 107.914C68.2143 107.851 68.1475 107.802 68.0662 107.768C67.9868 107.734 67.8939 107.717 67.7874 107.717C67.6429 107.717 67.531 107.739 67.4515 107.784C67.3739 107.83 67.3089 107.881 67.2566 107.939Z" fill="#112244"/>
</g>
</g>
<defs>
<linearGradient id="paint0_linear_13815_1112" x1="61.9267" y1="7.97363" x2="61.9267" y2="114.62" gradientUnits="userSpaceOnUse">
<stop stop-color="#899FB6"/>
<stop offset="1" stop-color="#E6EFF7"/>
</linearGradient>
<linearGradient id="paint1_linear_13815_1112" x1="17.9469" y1="7.97363" x2="17.9469" y2="61.3545" gradientUnits="userSpaceOnUse">
<stop stop-color="#899FB6"/>
<stop offset="1" stop-color="#E6EFF7"/>
</linearGradient>
<linearGradient id="paint2_linear_13815_1112" x1="18.3871" y1="61.3555" x2="18.3871" y2="114.621" gradientUnits="userSpaceOnUse">
<stop stop-color="#899FB6"/>
<stop offset="1" stop-color="#E6EFF7"/>
</linearGradient>
<linearGradient id="paint3_linear_13815_1112" x1="106.023" y1="7.97363" x2="106.023" y2="61.3545" gradientUnits="userSpaceOnUse">
<stop stop-color="#899FB6"/>
<stop offset="1" stop-color="#E6EFF7"/>
</linearGradient>
<linearGradient id="paint4_linear_13815_1112" x1="105.4" y1="61.3555" x2="105.4" y2="114.621" gradientUnits="userSpaceOnUse">
<stop stop-color="#899FB6"/>
<stop offset="1" stop-color="#E6EFF7"/>
</linearGradient>
<linearGradient id="paint5_linear_13815_1112" x1="43.152" y1="7.97363" x2="43.152" y2="47.2552" gradientUnits="userSpaceOnUse">
<stop stop-color="#899FB6"/>
<stop offset="1" stop-color="#E6EFF7"/>
</linearGradient>
<linearGradient id="paint6_linear_13815_1112" x1="80.9363" y1="7.97363" x2="80.9363" y2="47.2552" gradientUnits="userSpaceOnUse">
<stop stop-color="#899FB6"/>
<stop offset="1" stop-color="#E6EFF7"/>
</linearGradient>
<linearGradient id="paint7_linear_13815_1112" x1="43.4962" y1="77.2314" x2="43.4962" y2="114.62" gradientUnits="userSpaceOnUse">
<stop stop-color="#899FB6"/>
<stop offset="1" stop-color="#E6EFF7"/>
</linearGradient>
<linearGradient id="paint8_linear_13815_1112" x1="43.498" y1="77.2339" x2="43.498" y2="114.622" gradientUnits="userSpaceOnUse">
<stop stop-color="#899FB6"/>
<stop offset="1" stop-color="#E6EFF7"/>
</linearGradient>
<linearGradient id="paint9_linear_13815_1112" x1="61.8016" y1="21.8799" x2="61.8016" y2="100.786" gradientUnits="userSpaceOnUse">
<stop stop-color="#02A9F9"/>
<stop offset="1" stop-color="#CFE0A9"/>
</linearGradient>
<linearGradient id="paint10_linear_13815_1112" x1="61.9257" y1="21.9551" x2="61.9257" y2="100.64" gradientUnits="userSpaceOnUse">
<stop stop-color="#899FB6"/>
<stop offset="1" stop-color="#E6EFF7"/>
</linearGradient>
<clipPath id="clip0_13815_1112">
<rect width="123.71" height="107.713" fill="white" transform="translate(0 6.99805)"/>
</clipPath>
</defs>
</svg>
