<svg width="87" height="122" viewBox="0 0 87 122" fill="none" xmlns="http://www.w3.org/2000/svg">
<g clip-path="url(#clip0_13815_1030)">
<g clip-path="url(#clip1_13815_1030)">
<g clip-path="url(#clip2_13815_1030)">
<mask id="mask0_13815_1030" style="mask-type:luminance" maskUnits="userSpaceOnUse" x="0" y="0" width="88" height="122">
<path d="M87.8293 0.999023H0.000244141V121.33H87.8293V0.999023Z" fill="white"/>
</mask>
<g mask="url(#mask0_13815_1030)">
<path d="M43.9147 121.33L0.000244141 103.658V0.999023H87.8293V103.658L43.9147 121.33ZM2.29944 102.005L43.9147 118.752L85.5301 102.005V3.40397H2.29944V102.005Z" fill="white"/>
<path d="M6.68542 93.7871V99.2182V99.3051L43.7024 113.546L80.7193 99.3051V99.2182V93.7871L43.7024 108.028L6.68542 93.7871Z" fill="#394663"/>
<path d="M6.68542 86.082V91.5128V91.6001L43.7024 105.842L80.7193 91.6001V91.5128V86.082L43.7024 100.324L6.68542 86.082Z" fill="#5E6D8E"/>
<path d="M6.68542 78.3818V83.8126V83.8999L43.7024 98.1411L80.7193 83.8999V83.8126V78.3818L43.7024 92.623L6.68542 78.3818Z" fill="#899FB6"/>
<path d="M18.5327 31.4097V32.2214H18.0382C17.6938 32.2439 17.3533 32.1364 17.0842 31.9202C16.8542 31.7178 16.7531 31.3821 16.7531 30.9154V29.306H16.2357V28.5104H16.7508V27.5908H17.6957V28.5104H18.5257V29.306H17.6957V30.9154C17.6825 31.0492 17.7202 31.1831 17.8015 31.2901C17.9035 31.3728 18.0341 31.4116 18.1648 31.3982L18.5327 31.4097Z" fill="white"/>
<path d="M22.6645 30.548H19.9445C19.9339 30.8174 20.0297 31.08 20.2112 31.2792C20.3782 31.4342 20.5997 31.5169 20.8274 31.5091C21.0225 31.5167 21.2148 31.4602 21.3746 31.3482C21.5176 31.2423 21.6166 31.0877 21.6528 30.9136H22.6507C22.6023 31.1712 22.4918 31.413 22.3287 31.6182C22.1657 31.8234 21.9549 31.9855 21.7149 32.0908C21.4515 32.2103 21.1649 32.2699 20.8757 32.2656C20.5395 32.2721 20.2072 32.193 19.91 32.0356C19.6324 31.8848 19.4046 31.6562 19.2548 31.378C19.0998 31.0625 19.0192 30.7156 19.0192 30.3641C19.0192 30.0125 19.0998 29.6657 19.2548 29.3501C19.4035 29.0705 19.6314 28.8409 19.91 28.6903C20.2075 28.5338 20.5397 28.4547 20.8757 28.4603C21.2105 28.4538 21.5413 28.5328 21.8368 28.6903C22.1036 28.8358 22.3243 29.0532 22.4736 29.318C22.6282 29.5946 22.7075 29.9069 22.7036 30.2238C22.6997 30.3328 22.6867 30.4413 22.6645 30.548ZM21.5148 29.4444C21.3407 29.2906 21.1149 29.2085 20.8826 29.2145C20.6464 29.2056 20.4159 29.2879 20.2388 29.4444C20.1468 29.534 20.0738 29.6412 20.0244 29.7598C19.9751 29.8784 19.9502 30.0058 19.9515 30.1341H21.7517C21.7665 30.0083 21.7522 29.8806 21.71 29.761C21.6676 29.6414 21.5986 29.5331 21.508 29.4444H21.5148Z" fill="white"/>
<path d="M26.2305 28.8526C26.5542 29.119 26.7679 29.4957 26.8307 29.9102H25.8327C25.7983 29.7291 25.7005 29.566 25.5568 29.4504C25.4009 29.3331 25.2093 29.273 25.0143 29.2802C24.896 29.2778 24.7786 29.3014 24.6705 29.3495C24.5625 29.3976 24.4663 29.4689 24.3888 29.5584C24.2255 29.7984 24.1381 30.082 24.1381 30.3724C24.1381 30.6627 24.2255 30.9462 24.3888 31.1862C24.4666 31.2753 24.5628 31.3465 24.6708 31.3945C24.7789 31.4426 24.8961 31.4664 25.0143 31.4644C25.2097 31.472 25.4016 31.411 25.5568 31.2921C25.7005 31.1763 25.7983 31.0134 25.8327 30.8322H26.8307C26.7679 31.2467 26.5542 31.6234 26.2305 31.8898C25.8901 32.1557 25.4668 32.2933 25.0349 32.2784C24.6987 32.2847 24.3665 32.2055 24.0693 32.0484C23.7916 31.8976 23.5639 31.6691 23.414 31.3909C23.2589 31.0754 23.1783 30.7285 23.1783 30.3769C23.1783 30.0254 23.2589 29.6785 23.414 29.363C23.5627 29.0834 23.7907 28.8538 24.0693 28.7032C24.3669 28.5469 24.6989 28.4678 25.0349 28.4732C25.4656 28.4557 25.8888 28.59 26.2305 28.8526Z" fill="white"/>
<path d="M30.7324 28.8806C31.0049 29.2128 31.1413 29.6359 31.1141 30.0647V32.2237H30.1852V30.1728C30.2006 29.9218 30.1182 29.6746 29.9553 29.483C29.8748 29.4002 29.7775 29.3356 29.6701 29.2932C29.5628 29.2508 29.4476 29.2316 29.3322 29.237C29.2124 29.2318 29.0928 29.2524 28.9816 29.2977C28.8705 29.3429 28.7705 29.4116 28.6884 29.4991C28.5192 29.7106 28.437 29.9787 28.4585 30.2487V32.2191H27.5135V27.2666H28.4585V29.2554C28.5512 29.0118 28.7218 28.8057 28.9436 28.6692C29.1787 28.5256 29.45 28.4522 29.7254 28.4576C29.9138 28.4512 30.1014 28.4857 30.2752 28.5588C30.4491 28.6318 30.6051 28.7416 30.7324 28.8806Z" fill="white"/>
<path d="M33.445 28.6608C33.6758 28.524 33.9399 28.4531 34.2082 28.4561V29.4678H33.9347C33.2434 29.4678 32.897 29.7897 32.8955 30.4334V32.2222H31.9528V28.5114H32.8955V29.2195C33.0281 28.9895 33.2173 28.7973 33.445 28.6608Z" fill="white"/>
<path d="M38.1869 30.5465H35.4784C35.4684 30.8161 35.565 31.0788 35.7473 31.2777C35.8299 31.3546 35.9268 31.4146 36.0325 31.4541C36.1383 31.4935 36.2508 31.5117 36.3635 31.5075C36.558 31.5153 36.7494 31.4587 36.9085 31.3466C37.0522 31.2417 37.1514 31.0866 37.1867 30.9121H38.1846C38.136 31.1638 38.0279 31.4003 37.8695 31.6019C37.705 31.8094 37.4928 31.9743 37.251 32.0824C36.9646 32.2067 36.6542 32.2661 36.3421 32.2562C36.0301 32.2463 35.7241 32.1673 35.4462 32.0249C35.1671 31.8752 34.9383 31.6465 34.7886 31.3673C34.6336 31.0518 34.553 30.7049 34.553 30.3534C34.553 30.0018 34.6336 29.655 34.7886 29.3394C34.9373 29.059 35.1662 28.8293 35.4462 28.6796C35.7429 28.5231 36.0742 28.444 36.4096 28.4496C36.7443 28.4427 37.0752 28.5218 37.3706 28.6796C37.6385 28.8237 37.8595 29.0416 38.0075 29.3073C38.1619 29.5839 38.2412 29.8963 38.2374 30.2131C38.2315 30.3257 38.2145 30.4373 38.1869 30.5465ZM37.0372 29.443C36.8641 29.2876 36.6375 29.2052 36.405 29.213C36.1688 29.2041 35.9382 29.2864 35.7612 29.443C35.67 29.5331 35.5976 29.6406 35.5482 29.759C35.4989 29.8773 35.4736 30.0044 35.4738 30.1327H37.2763C37.2909 30.0065 37.2761 29.8787 37.2336 29.7592C37.1909 29.6396 37.1213 29.5314 37.0303 29.443H37.0372Z" fill="white"/>
<path d="M40.5027 31.2786L41.4408 28.5195H42.4455L41.0661 32.2304H39.9164L38.537 28.5195H39.5486L40.5027 31.2786Z" fill="white"/>
<path d="M43.0191 27.0756C43.1401 26.9818 43.289 26.9307 43.4422 26.9307C43.5954 26.9307 43.7443 26.9818 43.8653 27.0756C43.9153 27.123 43.9552 27.18 43.9825 27.2432C44.0098 27.3065 44.0239 27.3747 44.0239 27.4435C44.0239 27.5125 44.0098 27.5806 43.9825 27.6439C43.9552 27.7071 43.9153 27.7641 43.8653 27.8114C43.7443 27.9054 43.5954 27.9564 43.4422 27.9564C43.289 27.9564 43.1401 27.9054 43.0191 27.8114C42.9691 27.7641 42.9291 27.7071 42.9018 27.6439C42.8745 27.5806 42.8605 27.5125 42.8605 27.4435C42.8605 27.3747 42.8745 27.3065 42.9018 27.2432C42.9291 27.18 42.9691 27.123 43.0191 27.0756ZM43.9112 28.5127V32.2235H42.9663V28.5127H43.9112Z" fill="white"/>
<path d="M48.2259 30.5465H45.506C45.496 30.8161 45.5926 31.0788 45.7749 31.2776C45.942 31.4327 46.1634 31.5153 46.3911 31.5076C46.5856 31.5152 46.777 31.4587 46.936 31.3467C47.0804 31.2423 47.1799 31.0869 47.2142 30.9121H48.2144C48.1643 31.1638 48.0556 31.4 47.8971 31.6018C47.7337 31.8105 47.5212 31.9755 47.2786 32.0823C46.9922 32.2068 46.6818 32.2661 46.3697 32.2561C46.0577 32.2462 45.7517 32.1672 45.4738 32.0249C45.1954 31.8742 44.9669 31.6457 44.8162 31.3673C44.6612 31.0518 44.5806 30.7049 44.5806 30.3533C44.5806 30.0018 44.6612 29.6549 44.8162 29.3395C44.9655 29.0595 45.1944 28.8299 45.4738 28.6796C45.7704 28.5231 46.1017 28.444 46.4371 28.4497C46.7719 28.4424 47.1029 28.5216 47.3982 28.6796C47.6661 28.8237 47.8871 29.0415 48.0351 29.3072C48.1895 29.584 48.2688 29.8963 48.265 30.2131C48.2628 30.3253 48.2497 30.4369 48.2259 30.5465ZM47.0763 29.4429C46.9016 29.2886 46.6748 29.2064 46.4417 29.2129C46.2063 29.2046 45.9767 29.2869 45.8002 29.4429C45.7083 29.5327 45.6353 29.6399 45.5855 29.7584C45.5358 29.8769 45.5103 30.0042 45.5106 30.1326H47.3131C47.3277 30.0069 47.3135 29.8795 47.2716 29.7601C47.2299 29.6406 47.1615 29.5321 47.0717 29.4429H47.0763Z" fill="white"/>
<path d="M54.239 28.5117L53.2412 32.2226H52.1973L51.3995 29.5234L50.5832 32.2226H49.5371L48.5461 28.5117H49.5003L50.1027 31.3788L50.9258 28.5117H51.926L52.756 31.3788L53.3653 28.5117H54.239Z" fill="white"/>
<path d="M58.1683 30.548H55.4482C55.4386 30.8172 55.5343 31.0794 55.715 31.2792C55.882 31.434 56.1035 31.5166 56.3312 31.5091C56.5263 31.5171 56.7186 31.4606 56.8784 31.3482C57.0213 31.2423 57.1203 31.0877 57.1566 30.9136H58.1544C58.1061 31.1712 57.9956 31.413 57.8325 31.6182C57.6694 31.8234 57.4587 31.9855 57.2187 32.0908C56.9553 32.2103 56.6687 32.2699 56.3795 32.2656C56.0432 32.2721 55.7109 32.193 55.4138 32.0356C55.1361 31.8848 54.9084 31.6562 54.7585 31.378C54.6035 31.0625 54.5228 30.7156 54.5228 30.3641C54.5228 30.0125 54.6035 29.6657 54.7585 29.3501C54.9072 29.0705 55.1352 28.8409 55.4138 28.6903C55.7113 28.5338 56.0433 28.4547 56.3795 28.4603C56.7141 28.4538 57.0451 28.5328 57.3405 28.6903C57.6074 28.8358 57.8281 29.0532 57.9774 29.318C58.132 29.5946 58.2112 29.9069 58.2073 30.2238C58.2035 30.3328 58.1904 30.4413 58.1683 30.548ZM57.0186 29.4444C56.8454 29.2892 56.6188 29.2069 56.3864 29.2145C56.1502 29.2056 55.9196 29.2879 55.7426 29.4444C55.6509 29.5343 55.5783 29.6416 55.5289 29.7601C55.4796 29.8787 55.4545 30.0058 55.4552 30.1341H57.2554C57.2702 30.0083 57.2559 29.8806 57.2137 29.761C57.1714 29.6414 57.1024 29.5331 57.0117 29.4444H57.0186Z" fill="white"/>
<path d="M60.361 28.6608C60.5918 28.524 60.8559 28.4531 61.1243 28.4561V29.4678H60.8507C60.1594 29.4678 59.813 29.7897 59.8115 30.4334V32.2222H58.8688V28.5114H59.8115V29.2195C59.9435 28.9891 60.1328 28.7966 60.361 28.6608Z" fill="white"/>
<path d="M62.4337 31.2344V32.2216H61.4166V31.2344H62.4337Z" fill="white"/>
<path d="M65.9271 28.8526C66.2507 29.119 66.4644 29.4957 66.5272 29.9102H65.5293C65.4948 29.7291 65.397 29.566 65.2534 29.4504C65.0974 29.3331 64.9058 29.273 64.7108 29.2802C64.5925 29.2778 64.4751 29.3014 64.367 29.3495C64.259 29.3976 64.1628 29.4689 64.0854 29.5584C63.9208 29.7979 63.8327 30.0817 63.8327 30.3724C63.8327 30.663 63.9208 30.9467 64.0854 31.1862C64.1631 31.2753 64.2593 31.3465 64.3674 31.3945C64.4754 31.4426 64.5926 31.4664 64.7108 31.4644C64.9062 31.472 65.0982 31.411 65.2534 31.2921C65.397 31.1763 65.4948 31.0134 65.5293 30.8322H66.5272C66.4644 31.2467 66.2507 31.6234 65.9271 31.8898C65.5866 32.1557 65.1633 32.2933 64.7315 32.2784C64.3954 32.2847 64.0631 32.2055 63.7658 32.0484C63.4881 31.8976 63.2604 31.6691 63.1106 31.3909C62.9556 31.0754 62.8749 30.7285 62.8749 30.3769C62.8749 30.0254 62.9556 29.6785 63.1106 29.363C63.2593 29.0834 63.4872 28.8538 63.7658 28.7032C64.0634 28.5469 64.3955 28.4678 64.7315 28.4732C65.1622 28.4557 65.5853 28.59 65.9271 28.8526Z" fill="white"/>
<path d="M69.8861 28.6916C70.1715 28.841 70.4071 29.0703 70.5643 29.3515C70.7276 29.6645 70.8127 30.0123 70.8127 30.3654C70.8127 30.7185 70.7276 31.0663 70.5643 31.3794C70.4058 31.6589 70.1704 31.8871 69.8861 32.0369C69.5838 32.1897 69.2499 32.2693 68.9113 32.2693C68.5726 32.2693 68.2387 32.1897 67.9364 32.0369C67.6485 31.8879 67.4092 31.6598 67.2467 31.3794C67.0835 31.0663 66.9982 30.7185 66.9982 30.3654C66.9982 30.0123 67.0835 29.6645 67.2467 29.3515C67.4079 29.0695 67.6475 28.8401 67.9364 28.6916C68.2395 28.5418 68.5731 28.4639 68.9113 28.4639C69.2494 28.4639 69.583 28.5418 69.8861 28.6916ZM68.2399 29.5584C68.0642 29.7899 67.9691 30.0725 67.9691 30.3631C67.9691 30.6537 68.0642 30.9363 68.2399 31.1678C68.3279 31.2559 68.4323 31.3258 68.5473 31.3735C68.6623 31.4211 68.7856 31.4457 68.9101 31.4457C69.0346 31.4457 69.1579 31.4211 69.2729 31.3735C69.3878 31.3258 69.4923 31.2559 69.5803 31.1678C69.7574 30.937 69.8534 30.6541 69.8534 30.3631C69.8534 30.0721 69.7574 29.7893 69.5803 29.5584C69.4021 29.3816 69.1611 29.2824 68.9101 29.2824C68.6591 29.2824 68.4182 29.3816 68.2399 29.5584Z" fill="white"/>
<path d="M36.2911 8.73926H41.147C41.147 9.37694 41.0214 10.0084 40.7774 10.5975C40.5334 11.1866 40.1757 11.7219 39.7247 12.1729C39.2739 12.6238 38.7386 12.9815 38.1494 13.2255C37.5603 13.4695 36.9288 13.5951 36.2911 13.5951V8.73926Z" fill="white"/>
<path d="M46.0043 8.73926V13.5928H41.1483C41.149 12.3054 41.6608 11.0709 42.5714 10.1607C43.482 9.25054 44.7168 8.73926 46.0043 8.73926Z" fill="#5E6D8E"/>
<path d="M46.0044 13.5928H41.1484V23.3045H46.0044V13.5928Z" fill="#394663"/>
<path d="M50.8579 8.73926H46.0021V13.5951H50.8579V8.73926Z" fill="#899FB6"/>
<path d="M36.0576 83.2305C36.1992 83.118 36.2638 83.0659 36.2513 83.0743C36.6596 82.7368 36.9804 82.4597 37.2136 82.2431C37.4511 82.0265 37.6511 81.7994 37.8136 81.562C37.976 81.3245 38.0573 81.0932 38.0573 80.8683C38.0573 80.6975 38.0178 80.5642 37.9386 80.4684C37.8594 80.3726 37.7407 80.3246 37.5824 80.3246C37.424 80.3246 37.2991 80.3851 37.2074 80.5059C37.1199 80.6225 37.0762 80.7892 37.0762 81.0058H36.045C36.0534 80.6516 36.1284 80.3559 36.2701 80.1184C36.4159 79.8809 36.6055 79.706 36.8387 79.5935C37.0762 79.4811 37.3386 79.4248 37.6261 79.4248C38.1219 79.4248 38.4947 79.5518 38.7447 79.806C38.9989 80.0601 39.1259 80.3913 39.1259 80.7996C39.1259 81.2454 38.9738 81.6599 38.6697 82.0431C38.3656 82.4223 37.9781 82.793 37.5074 83.1554H39.1946V84.0241H36.0576V83.2305ZM39.6651 81.7431C39.6651 81.0266 39.8026 80.4622 40.0776 80.0497C40.3567 79.6372 40.8045 79.431 41.4211 79.431C42.0377 79.431 42.4835 79.6372 42.7584 80.0497C43.0376 80.4622 43.1771 81.0266 43.1771 81.7431C43.1771 82.4681 43.0376 83.0367 42.7584 83.4492C42.4835 83.8616 42.0377 84.0679 41.4211 84.0679C40.8045 84.0679 40.3567 83.8616 40.0776 83.4492C39.8026 83.0367 39.6651 82.4681 39.6651 81.7431ZM42.1272 81.7431C42.1272 81.3225 42.0814 80.9995 41.9898 80.7745C41.8981 80.5454 41.7086 80.4308 41.4211 80.4308C41.1336 80.4308 40.9441 80.5454 40.8525 80.7745C40.7608 80.9995 40.7149 81.3225 40.7149 81.7431C40.7149 82.0265 40.7317 82.2618 40.765 82.4493C40.7983 82.6326 40.865 82.7826 40.9649 82.8993C41.0691 83.0117 41.2211 83.068 41.4211 83.068C41.6211 83.068 41.771 83.0117 41.871 82.8993C41.9752 82.7826 42.044 82.6326 42.0773 82.4493C42.1106 82.2618 42.1272 82.0265 42.1272 81.7431ZM43.7042 83.2305C43.8458 83.118 43.9104 83.0659 43.8979 83.0743C44.3061 82.7368 44.6269 82.4597 44.8602 82.2431C45.0977 82.0265 45.2976 81.7994 45.4602 81.562C45.6226 81.3245 45.7039 81.0932 45.7039 80.8683C45.7039 80.6975 45.6643 80.5642 45.5851 80.4684C45.5059 80.3726 45.3872 80.3246 45.229 80.3246C45.0706 80.3246 44.9456 80.3851 44.854 80.5059C44.7665 80.6225 44.7227 80.7892 44.7227 81.0058H43.6917C43.7 80.6516 43.7749 80.3559 43.9167 80.1184C44.0624 79.8809 44.252 79.706 44.4853 79.5935C44.7227 79.4811 44.9853 79.4248 45.2727 79.4248C45.7685 79.4248 46.1413 79.5518 46.3912 79.806C46.6454 80.0601 46.7725 80.3913 46.7725 80.7996C46.7725 81.2454 46.6204 81.6599 46.3163 82.0431C46.0122 82.4223 45.6247 82.793 45.1539 83.1554H46.8412V84.0241H43.7042V83.2305ZM50.5237 80.4559H48.574V81.3182C48.6573 81.2266 48.7739 81.1516 48.924 81.0932C49.0739 81.035 49.2364 81.0058 49.4113 81.0058C49.7238 81.0058 49.9822 81.0766 50.1862 81.2183C50.3945 81.3599 50.5467 81.5433 50.6425 81.7682C50.7382 81.9932 50.7862 82.2369 50.7862 82.4993C50.7862 82.9868 50.6487 83.3742 50.3737 83.6617C50.0988 83.945 49.7113 84.0866 49.2114 84.0866C48.8781 84.0866 48.5886 84.0303 48.3427 83.9178C48.097 83.8012 47.9074 83.6408 47.7741 83.4367C47.6408 83.2325 47.5679 82.9972 47.5554 82.7305H48.599C48.624 82.8597 48.6844 82.968 48.7802 83.0554C48.876 83.1388 49.0073 83.1805 49.1739 83.1805C49.3697 83.1805 49.5155 83.118 49.6113 82.993C49.7072 82.868 49.755 82.7014 49.755 82.493C49.755 82.2889 49.7051 82.1327 49.6051 82.0244C49.5051 81.9161 49.3593 81.8619 49.1677 81.8619C49.026 81.8619 48.9094 81.8973 48.8177 81.9681C48.7261 82.0348 48.6656 82.1244 48.6365 82.2369H47.6054V79.5185H50.5237V80.4559Z" fill="white"/>
<path d="M38.5059 39.3311V41.0945H36.1124V48.3692H33.9098V41.0945H31.5164V39.3311H38.5059Z" fill="white"/>
<path d="M41.5607 47.8634C40.8583 47.4761 40.2749 46.9045 39.8731 46.2104C39.4645 45.4817 39.2499 44.6604 39.2499 43.8249C39.2499 42.9896 39.4645 42.1681 39.8731 41.4395C40.2771 40.7482 40.8602 40.1787 41.5607 39.791C42.2787 39.4032 43.0818 39.2002 43.8978 39.2002C44.7138 39.2002 45.517 39.4032 46.235 39.791C46.933 40.1774 47.5118 40.7475 47.9087 41.4395C48.3121 42.1699 48.5237 42.9906 48.5237 43.8249C48.5237 44.6592 48.3121 45.48 47.9087 46.2104C47.5125 46.9041 46.9336 47.4759 46.235 47.8634C45.5187 48.2526 44.7165 48.4565 43.9012 48.4565C43.0861 48.4565 42.2838 48.2526 41.5675 47.8634H41.5607ZM45.6279 45.7275C46.0497 45.1808 46.2784 44.5097 46.2784 43.8192C46.2784 43.1287 46.0497 42.4576 45.6279 41.9109C45.409 41.6727 45.1405 41.4852 44.8415 41.3617C44.5424 41.2381 44.2199 41.1816 43.8967 41.1958C43.5719 41.1808 43.2477 41.2363 42.9465 41.3587C42.6453 41.4809 42.3741 41.6669 42.1515 41.904C41.7309 42.4538 41.5031 43.1269 41.5031 43.8192C41.5031 44.5115 41.7309 45.1845 42.1515 45.7344C42.3735 45.9726 42.6444 46.1596 42.9457 46.2827C43.2471 46.4058 43.5715 46.4618 43.8967 46.4471C44.2192 46.4601 44.5406 46.4024 44.8385 46.2782C45.1364 46.1539 45.4034 45.9659 45.6211 45.7275H45.6279Z" fill="white"/>
<path d="M56.2751 43.6748C56.0159 44.1249 55.6307 44.4893 55.1669 44.7232C54.5918 45.0076 53.9551 45.1451 53.3138 45.1233H51.9481V48.3674H49.7477V39.3293H53.3138C53.9475 39.3086 54.5774 39.4361 55.1531 39.7018C55.6218 39.9243 56.0121 40.2834 56.2728 40.7318C56.5282 41.1921 56.6574 41.7115 56.6476 42.2378C56.6488 42.7408 56.5205 43.2357 56.2751 43.6748ZM54.0863 43.0747C54.2853 42.8412 54.3947 42.5445 54.3947 42.2378C54.3947 41.931 54.2853 41.6343 54.0863 41.4009C53.8228 41.1847 53.4857 41.0791 53.146 41.1066H51.9481V43.3713H53.146C53.4821 43.3951 53.8146 43.289 54.0748 43.0747H54.0863Z" fill="white"/>
<path d="M26.9107 59.1156C26.4835 59.1156 26.1006 59.0462 25.7622 58.9075C25.4237 58.7688 25.1518 58.5635 24.9466 58.2916C24.7468 58.0197 24.6413 57.6923 24.6303 57.3096H26.145C26.1672 57.5259 26.2422 57.6923 26.3698 57.8089C26.4973 57.9198 26.6638 57.9753 26.8691 57.9753C27.0799 57.9753 27.2464 57.9282 27.3685 57.8339C27.4906 57.734 27.5516 57.5981 27.5516 57.4261C27.5516 57.2818 27.5017 57.1625 27.4018 57.0681C27.3074 56.9739 27.1881 56.8961 27.0439 56.8351C26.9051 56.7741 26.7054 56.7047 26.4446 56.6271C26.0673 56.5105 25.7594 56.394 25.5208 56.2775C25.2823 56.1609 25.0769 55.9889 24.9049 55.7615C24.7329 55.534 24.6469 55.2372 24.6469 54.8709C24.6469 54.3272 24.8439 53.9027 25.2379 53.5976C25.6318 53.2868 26.145 53.1314 26.7776 53.1314C27.4212 53.1314 27.94 53.2868 28.334 53.5976C28.7279 53.9027 28.9387 54.33 28.9665 54.8793H27.4268C27.4156 54.6906 27.3463 54.5436 27.2187 54.4382C27.0911 54.3272 26.9274 54.2717 26.7276 54.2717C26.5556 54.2717 26.4169 54.3189 26.3115 54.4132C26.2061 54.502 26.1533 54.6323 26.1533 54.8043C26.1533 54.993 26.2422 55.14 26.4197 55.2455C26.5972 55.3509 26.8747 55.4646 27.252 55.5867C27.6292 55.7143 27.9345 55.8364 28.1675 55.9529C28.4061 56.0695 28.6114 56.2387 28.7834 56.4606C28.9554 56.6826 29.0414 56.9683 29.0414 57.3179C29.0414 57.6508 28.9554 57.9532 28.7834 58.2251C28.6169 58.4969 28.3727 58.7134 28.051 58.8742C27.7291 59.0351 27.349 59.1156 26.9107 59.1156ZM32.0313 59.1239C31.5763 59.1239 31.1656 59.0268 30.7995 58.8326C30.4387 58.6384 30.153 58.361 29.9422 58.0003C29.7369 57.6397 29.6342 57.218 29.6342 56.7352C29.6342 56.2581 29.7397 55.8392 29.9505 55.4785C30.1614 55.1123 30.4499 54.8321 30.8161 54.6379C31.1823 54.4437 31.5929 54.3466 32.0479 54.3466C32.5028 54.3466 32.9134 54.4437 33.2797 54.6379C33.6458 54.8321 33.9344 55.1123 34.1452 55.4785C34.3561 55.8392 34.4615 56.2581 34.4615 56.7352C34.4615 57.2124 34.3533 57.6341 34.1369 58.0003C33.926 58.361 33.6347 58.6384 33.2631 58.8326C32.8968 59.0268 32.4862 59.1239 32.0313 59.1239ZM32.0313 57.8921C32.3032 57.8921 32.5334 57.7922 32.722 57.5925C32.9162 57.3927 33.0133 57.107 33.0133 56.7352C33.0133 56.3635 32.919 56.0778 32.7303 55.878C32.5473 55.6783 32.3198 55.5784 32.0479 55.5784C31.7704 55.5784 31.5402 55.6783 31.3571 55.878C31.174 56.0722 31.0824 56.358 31.0824 56.7352C31.0824 57.107 31.1712 57.3927 31.3488 57.5925C31.5319 57.7922 31.7594 57.8921 32.0313 57.8921ZM37.5469 55.595H36.7813V59.0574H35.358V55.595H34.842V54.4132H35.358V54.28C35.358 53.7085 35.5217 53.2757 35.8491 52.9817C36.1765 52.6821 36.6564 52.5322 37.289 52.5322C37.3944 52.5322 37.4721 52.535 37.522 52.5405V53.7473C37.2501 53.7307 37.0587 53.7696 36.9477 53.8638C36.8368 53.9582 36.7813 54.1274 36.7813 54.3715V54.4132H37.5469V55.595ZM40.8041 57.8505V59.0574H40.08C39.564 59.0574 39.1617 58.9324 38.8732 58.6828C38.5847 58.4276 38.4404 58.0142 38.4404 57.4427V55.595H37.8745V54.4132H38.4404V53.2813H39.8636V54.4132H40.7957V55.595H39.8636V57.4593C39.8636 57.5981 39.897 57.698 39.9635 57.759C40.0301 57.82 40.1411 57.8505 40.2965 57.8505H40.8041ZM48.2635 54.4132L47.0067 59.0574H45.4337L44.7013 56.0444L43.9439 59.0574H42.3792L41.1141 54.4132H42.5373L43.1949 57.734L43.9772 54.4132H45.4836L46.2743 57.7174L46.9235 54.4132H48.2635ZM48.5233 56.7269C48.5233 56.2498 48.612 55.8308 48.7895 55.4702C48.9727 55.1096 49.2196 54.8321 49.5303 54.6379C49.841 54.4437 50.1878 54.3466 50.5706 54.3466C50.898 54.3466 51.1838 54.4132 51.4279 54.5464C51.6776 54.6795 51.869 54.8543 52.0022 55.0707V54.4132H53.4254V59.0574H52.0022V58.3998C51.8635 58.6162 51.6693 58.791 51.4196 58.9241C51.1755 59.0574 50.8897 59.1239 50.5623 59.1239C50.185 59.1239 49.841 59.0268 49.5303 58.8326C49.2196 58.6328 48.9727 58.3526 48.7895 57.992C48.612 57.6258 48.5233 57.2041 48.5233 56.7269ZM52.0022 56.7352C52.0022 56.3801 51.9023 56.0999 51.7025 55.8947C51.5084 55.6894 51.2698 55.5867 50.9868 55.5867C50.7038 55.5867 50.4624 55.6894 50.2627 55.8947C50.0685 56.0944 49.9714 56.3718 49.9714 56.7269C49.9714 57.0821 50.0685 57.365 50.2627 57.5758C50.4624 57.7812 50.7038 57.8838 50.9868 57.8838C51.2698 57.8838 51.5084 57.7812 51.7025 57.5758C51.9023 57.3706 52.0022 57.0904 52.0022 56.7352ZM55.8782 55.1872C56.0447 54.9319 56.2528 54.7322 56.5024 54.5879C56.7522 54.4382 57.0296 54.3632 57.3347 54.3632V55.8697H56.9435C56.5885 55.8697 56.3221 55.9473 56.1446 56.1027C55.967 56.2525 55.8782 56.5189 55.8782 56.9017V59.0574H54.455V54.4132H55.8782V55.1872ZM62.3928 56.6603C62.3928 56.7935 62.3845 56.9322 62.3678 57.0765H59.1469C59.1691 57.365 59.2606 57.587 59.4216 57.7423C59.588 57.8921 59.7906 57.967 60.0291 57.967C60.3842 57.967 60.6311 57.8173 60.7699 57.5176H62.2846C62.2069 57.8228 62.0655 58.0975 61.8601 58.3416C61.6604 58.5857 61.4079 58.7772 61.1028 58.9158C60.7976 59.0546 60.4563 59.1239 60.0791 59.1239C59.6241 59.1239 59.219 59.0268 58.8639 58.8326C58.5088 58.6384 58.2314 58.361 58.0316 58.0003C57.8319 57.6397 57.732 57.218 57.732 56.7352C57.732 56.2525 57.8291 55.8308 58.0233 55.4702C58.2231 55.1096 58.5005 54.8321 58.8556 54.6379C59.2107 54.4437 59.6185 54.3466 60.0791 54.3466C60.5285 54.3466 60.928 54.4409 61.2776 54.6296C61.6271 54.8182 61.899 55.0873 62.0932 55.4368C62.2929 55.7865 62.3928 56.1943 62.3928 56.6603ZM60.9363 56.2858C60.9363 56.0417 60.8531 55.8475 60.6866 55.7032C60.5201 55.559 60.3121 55.4868 60.0624 55.4868C59.8238 55.4868 59.6213 55.5562 59.4549 55.6949C59.294 55.8336 59.1941 56.0306 59.1552 56.2858H60.9363ZM19.7631 67.2322C19.7631 66.7551 19.8518 66.3361 20.0294 65.9755C20.2125 65.6149 20.4594 65.3374 20.7701 65.1432C21.0808 64.949 21.4276 64.8519 21.8104 64.8519C22.1157 64.8519 22.3931 64.9157 22.6428 65.0433C22.898 65.171 23.0977 65.343 23.242 65.5594V63.4037H24.6652V69.5627H23.242V68.8968C23.1088 69.1188 22.9174 69.2963 22.6677 69.4294C22.4236 69.5627 22.1378 69.6292 21.8104 69.6292C21.4276 69.6292 21.0808 69.5321 20.7701 69.3379C20.4594 69.1382 20.2125 68.8579 20.0294 68.4973C19.8518 68.1311 19.7631 67.7094 19.7631 67.2322ZM23.242 67.2405C23.242 66.8854 23.1421 66.6052 22.9424 66.4C22.7482 66.1947 22.5096 66.092 22.2267 66.092C21.9437 66.092 21.7022 66.1947 21.5025 66.4C21.3083 66.5997 21.2113 66.8771 21.2113 67.2322C21.2113 67.5874 21.3083 67.8704 21.5025 68.0811C21.7022 68.2865 21.9437 68.3891 22.2267 68.3891C22.5096 68.3891 22.7482 68.2865 22.9424 68.0811C23.1421 67.8759 23.242 67.5957 23.242 67.2405ZM30.0727 67.1656C30.0727 67.2988 30.0644 67.4375 30.0477 67.5818H26.8267C26.849 67.8704 26.9405 68.0923 27.1014 68.2476C27.2679 68.3974 27.4704 68.4723 27.709 68.4723C28.0641 68.4723 28.3109 68.3226 28.4497 68.0229H29.9645C29.8867 68.3281 29.7453 68.6028 29.54 68.8469C29.3403 69.091 29.0878 69.2825 28.7826 69.4211C28.4774 69.5599 28.1362 69.6292 27.7589 69.6292C27.304 69.6292 26.8988 69.5321 26.5438 69.3379C26.1887 69.1437 25.9112 68.8663 25.7115 68.5056C25.5118 68.145 25.4119 67.7233 25.4119 67.2405C25.4119 66.7578 25.509 66.3361 25.7031 65.9755C25.9029 65.6149 26.1804 65.3374 26.5355 65.1432C26.8905 64.949 27.2984 64.8519 27.7589 64.8519C28.2084 64.8519 28.6079 64.9463 28.9574 65.1349C29.3069 65.3235 29.5788 65.5926 29.773 65.9422C29.9728 66.2918 30.0727 66.6996 30.0727 67.1656ZM28.6162 66.7911C28.6162 66.547 28.5329 66.3528 28.3664 66.2085C28.2001 66.0643 27.992 65.9921 27.7422 65.9921C27.5037 65.9921 27.3012 66.0615 27.1347 66.2002C26.9738 66.3389 26.8739 66.5359 26.835 66.7911H28.6162ZM32.9126 68.231L33.9195 64.9185H35.4343L33.7864 69.5627H32.0303L30.3824 64.9185H31.9055L32.9126 68.231ZM40.4112 67.1656C40.4112 67.2988 40.4028 67.4375 40.3862 67.5818H37.1653C37.1875 67.8704 37.279 68.0923 37.44 68.2476C37.6064 68.3974 37.8089 68.4723 38.0476 68.4723C38.4026 68.4723 38.6495 68.3226 38.7883 68.0229H40.303C40.2253 68.3281 40.0839 68.6028 39.8785 68.8469C39.6788 69.091 39.4263 69.2825 39.1212 69.4211C38.816 69.5599 38.4747 69.6292 38.0975 69.6292C37.6424 69.6292 37.2374 69.5321 36.8823 69.3379C36.5272 69.1437 36.2498 68.8663 36.05 68.5056C35.8503 68.145 35.7504 67.7233 35.7504 67.2405C35.7504 66.7578 35.8475 66.3361 36.0417 65.9755C36.2415 65.6149 36.5189 65.3374 36.874 65.1432C37.2291 64.949 37.6369 64.8519 38.0975 64.8519C38.5469 64.8519 38.9464 64.9463 39.296 65.1349C39.6455 65.3235 39.9174 65.5926 40.1116 65.9422C40.3113 66.2918 40.4112 66.6996 40.4112 67.1656ZM38.9547 66.7911C38.9547 66.547 38.8715 66.3528 38.705 66.2085C38.5385 66.0643 38.3305 65.9921 38.0808 65.9921C37.8422 65.9921 37.6397 66.0615 37.4732 66.2002C37.3124 66.3389 37.2125 66.5359 37.1736 66.7911H38.9547ZM42.5853 63.4037V69.5627H41.162V63.4037H42.5853ZM45.7307 69.6292C45.2757 69.6292 44.865 69.5321 44.4989 69.3379C44.1381 69.1437 43.8524 68.8663 43.6416 68.5056C43.4363 68.145 43.3336 67.7233 43.3336 67.2405C43.3336 66.7634 43.4391 66.3445 43.6499 65.9838C43.8607 65.6176 44.1493 65.3374 44.5155 65.1432C44.8817 64.949 45.2923 64.8519 45.7473 64.8519C46.2022 64.8519 46.6128 64.949 46.9791 65.1432C47.3452 65.3374 47.6337 65.6176 47.8446 65.9838C48.0555 66.3445 48.1609 66.7634 48.1609 67.2405C48.1609 67.7177 48.0527 68.1394 47.8363 68.5056C47.6254 68.8663 47.3341 69.1437 46.9624 69.3379C46.5962 69.5321 46.1856 69.6292 45.7307 69.6292ZM45.7307 68.3974C46.0025 68.3974 46.2328 68.2975 46.4214 68.0978C46.6156 67.8981 46.7127 67.6123 46.7127 67.2405C46.7127 66.8688 46.6184 66.5831 46.4297 66.3833C46.2467 66.1836 46.0192 66.0837 45.7473 66.0837C45.4698 66.0837 45.2396 66.1836 45.0565 66.3833C44.8733 66.5775 44.7818 66.8633 44.7818 67.2405C44.7818 67.6123 44.8706 67.8981 45.0481 68.0978C45.2313 68.2975 45.4588 68.3974 45.7307 68.3974ZM50.3391 65.576C50.4778 65.3596 50.6693 65.1848 50.9134 65.0517C51.1575 64.9185 51.4433 64.8519 51.7706 64.8519C52.1535 64.8519 52.5003 64.949 52.811 65.1432C53.1217 65.3374 53.3659 65.6149 53.5435 65.9755C53.7265 66.3361 53.8181 66.7551 53.8181 67.2322C53.8181 67.7094 53.7265 68.1311 53.5435 68.4973C53.3659 68.8579 53.1217 69.1382 52.811 69.3379C52.5003 69.5321 52.1535 69.6292 51.7706 69.6292C51.4489 69.6292 51.1631 69.5627 50.9134 69.4294C50.6693 69.2963 50.4778 69.1243 50.3391 68.9134V71.7765H48.916V64.9185H50.3391V65.576ZM52.3699 67.2322C52.3699 66.8771 52.27 66.5997 52.0703 66.4C51.8761 66.1947 51.6347 66.092 51.3462 66.092C51.0632 66.092 50.8219 66.1947 50.6221 66.4C50.428 66.6052 50.3308 66.8854 50.3308 67.2405C50.3308 67.5957 50.428 67.8759 50.6221 68.0811C50.8219 68.2865 51.0632 68.3891 51.3462 68.3891C51.6292 68.3891 51.8705 68.2865 52.0703 68.0811C52.27 67.8704 52.3699 67.5874 52.3699 67.2322ZM58.9426 67.1656C58.9426 67.2988 58.9342 67.4375 58.9176 67.5818H55.6967C55.7188 67.8704 55.8104 68.0923 55.9713 68.2476C56.1378 68.3974 56.3403 68.4723 56.5789 68.4723C56.934 68.4723 57.1809 68.3226 57.3196 68.0229H58.8344C58.7567 68.3281 58.6152 68.6028 58.4099 68.8469C58.2102 69.091 57.9577 69.2825 57.6526 69.4211C57.3473 69.5599 57.0061 69.6292 56.6288 69.6292C56.1738 69.6292 55.7688 69.5321 55.4137 69.3379C55.0586 69.1437 54.7812 68.8663 54.5814 68.5056C54.3817 68.145 54.2818 67.7233 54.2818 67.2405C54.2818 66.7578 54.3789 66.3361 54.5731 65.9755C54.7729 65.6149 55.0502 65.3374 55.4054 65.1432C55.7605 64.949 56.1683 64.8519 56.6288 64.8519C57.0782 64.8519 57.4778 64.9463 57.8273 65.1349C58.1769 65.3235 58.4488 65.5926 58.6429 65.9422C58.8427 66.2918 58.9426 66.6996 58.9426 67.1656ZM57.4861 66.7911C57.4861 66.547 57.4028 66.3528 57.2364 66.2085C57.0699 66.0643 56.8619 65.9921 56.6121 65.9921C56.3736 65.9921 56.171 66.0615 56.0046 66.2002C55.8437 66.3389 55.7438 66.5359 55.705 66.7911H57.4861ZM61.1166 65.6925C61.283 65.4372 61.4911 65.2375 61.7408 65.0932C61.9905 64.9435 62.2679 64.8685 62.5731 64.8685V66.375H62.1819C61.8268 66.375 61.5604 66.4526 61.3829 66.608C61.2054 66.7578 61.1166 67.0242 61.1166 67.407V69.5627H59.6934V64.9185H61.1166V65.6925ZM65.1427 69.6292C64.7376 69.6292 64.3769 69.5599 64.0607 69.4211C63.7444 69.2825 63.4948 69.0937 63.3116 68.8552C63.1285 68.6111 63.0258 68.3392 63.0037 68.0396H64.4102C64.4269 68.2005 64.5017 68.3309 64.635 68.4308C64.7681 68.5306 64.9318 68.5805 65.126 68.5805C65.3036 68.5805 65.4395 68.5473 65.5338 68.4806C65.6337 68.4085 65.6836 68.317 65.6836 68.206C65.6836 68.0728 65.6143 67.9758 65.4756 67.9147C65.3368 67.8481 65.1121 67.776 64.8014 67.6984C64.4685 67.6206 64.1911 67.5402 63.9691 67.4569C63.7472 67.3682 63.5558 67.2322 63.3949 67.0491C63.2339 66.8605 63.1535 66.608 63.1535 66.2918C63.1535 66.0254 63.2256 65.7841 63.3698 65.5677C63.5197 65.3457 63.7361 65.171 64.0191 65.0433C64.3076 64.9157 64.6488 64.8519 65.0428 64.8519C65.6253 64.8519 66.0832 64.9962 66.416 65.2847C66.7545 65.5732 66.9487 65.9561 66.9987 66.4332H65.6836C65.6614 66.2723 65.5893 66.1447 65.4673 66.0504C65.3508 65.9561 65.1954 65.9089 65.0011 65.9089C64.8347 65.9089 64.7071 65.9422 64.6183 66.0088C64.5295 66.0698 64.4851 66.1558 64.4851 66.2668C64.4851 66.4 64.5544 66.4998 64.6932 66.5664C64.8374 66.633 65.0594 66.6996 65.3591 66.7662C65.7031 66.855 65.9833 66.9437 66.1997 67.0325C66.416 67.1157 66.6047 67.2545 66.7656 67.4486C66.9321 67.6373 67.018 67.8925 67.0236 68.2144C67.0236 68.4863 66.9459 68.7304 66.7906 68.9468C66.6407 69.1575 66.4216 69.324 66.133 69.4461C65.85 69.5682 65.52 69.6292 65.1427 69.6292Z" fill="white"/>
</g>
</g>
</g>
</g>
<defs>
<clipPath id="clip0_13815_1030">
<rect width="87" height="122" fill="white"/>
</clipPath>
<clipPath id="clip1_13815_1030">
<rect width="87.8626" height="120.329" fill="white" transform="translate(-0.000244141 1)"/>
</clipPath>
<clipPath id="clip2_13815_1030">
<rect width="87.8626" height="120.334" fill="white" transform="translate(-0.00012207 0.999023)"/>
</clipPath>
</defs>
</svg>
