<svg width="135" height="130" viewBox="0 0 135 130" fill="none" xmlns="http://www.w3.org/2000/svg">
<g clip-path="url(#clip0_4810_2650)">
<path d="M133.834 8.76559V123.31H1.39701V8.76559H133.834ZM134.583 8.03516H0.648438V124.041H134.583V8.03516Z" fill="#112244"/>
<path d="M33.0501 28.7245C33.0425 29.0917 33.0879 29.4582 33.1848 29.8127C33.2896 30.0959 33.4243 30.394 33.589 30.7369C33.6516 30.8178 33.6834 30.9181 33.6789 31.0201C33.672 31.0988 33.6468 31.1749 33.6052 31.2422C33.5636 31.3095 33.5068 31.3662 33.4393 31.4077L32.6458 31.9444C32.5433 32.011 32.4239 32.0472 32.3015 32.0487C32.1581 32.0396 32.0239 31.9755 31.9272 31.8698C31.7516 31.688 31.5961 31.4882 31.4631 31.2735C31.3208 31.0318 31.1909 30.783 31.0738 30.5282C30.6223 31.0858 30.0494 31.5339 29.3984 31.8386C28.7474 32.1434 28.0353 32.2967 27.316 32.2872C26.8511 32.3116 26.3861 32.2424 25.9488 32.0836C25.5114 31.9247 25.1108 31.6797 24.7709 31.363C24.1297 30.6633 23.7919 29.7397 23.8312 28.7933C23.8705 27.8469 24.2835 26.9542 24.9805 26.3095C25.8717 25.6209 26.9832 25.2768 28.1095 25.3406C28.5604 25.3468 29.0104 25.3817 29.4569 25.4449C29.936 25.5195 30.4151 25.6089 30.9541 25.7282V24.8039C31.0302 24.0714 30.8152 23.3384 30.3552 22.7617C29.7584 22.3167 29.0163 22.1094 28.2742 22.1803C27.8104 22.1851 27.3486 22.2401 26.8968 22.3443C26.4289 22.459 25.9688 22.6034 25.5194 22.7766C25.3763 22.8477 25.2256 22.9027 25.0703 22.9406H24.8757C24.696 22.9406 24.6062 22.8064 24.6062 22.553V21.9269C24.5938 21.7724 24.6249 21.6176 24.696 21.4797C24.7919 21.3623 24.9153 21.2702 25.0553 21.2114C25.5646 20.9593 26.1024 20.7692 26.6573 20.6449C27.3245 20.4916 28.0091 20.4265 28.6934 20.4511C29.9011 20.3454 31.1016 20.7206 32.032 21.4946C32.4119 21.9151 32.7021 22.4081 32.8848 22.9437C33.0676 23.4793 33.139 24.0462 33.095 24.6102V28.7245H33.0501ZM27.8699 30.6624C28.3182 30.6572 28.7628 30.5817 29.1874 30.4388C29.6522 30.267 30.0683 29.9857 30.4001 29.6189C30.6007 29.3809 30.744 29.1005 30.8193 28.799C30.9166 28.4395 30.962 28.0681 30.9541 27.6959V27.1741C30.5699 27.0753 30.1799 27.0007 29.7863 26.9505C29.3823 26.9288 28.9775 26.9288 28.5736 26.9505C27.9006 26.9013 27.2305 27.0799 26.6722 27.4574C26.3545 27.6903 26.1211 28.0194 26.0069 28.3954C25.8927 28.7714 25.9038 29.1742 26.0387 29.5434C26.1735 29.9125 26.4248 30.2283 26.7549 30.4435C27.085 30.6586 27.4762 30.7616 27.8699 30.7369V30.6624ZM38.1104 32.0338C37.9547 32.0381 37.8021 31.9909 37.6762 31.8996C37.5404 31.7651 37.4468 31.5942 37.4067 31.4077L34.4125 21.5841C34.3468 21.4222 34.3065 21.2513 34.2927 21.0772C34.2883 21.0363 34.2928 20.9949 34.3061 20.956C34.3194 20.917 34.341 20.8814 34.3695 20.8516C34.398 20.8218 34.4327 20.7985 34.4711 20.7835C34.5096 20.7684 34.5509 20.7618 34.5921 20.7642H35.8497C36.0236 20.7412 36.1998 20.7838 36.3438 20.8834C36.4704 21.0282 36.5579 21.2026 36.5983 21.3903L38.6943 29.8127L40.6705 21.3903C40.7075 21.2014 40.7955 21.0262 40.925 20.8834C41.0776 20.7907 41.2559 20.7489 41.434 20.7642H42.4521C42.6305 20.7443 42.8103 20.7864 42.9611 20.8834C43.0934 21.0225 43.1774 21.2001 43.2007 21.3903L45.2218 29.9021L47.4226 21.3903C47.4659 21.2036 47.5531 21.0299 47.6771 20.8834C47.8305 20.7926 48.0082 20.7509 48.1862 20.7642H49.3689C49.4114 20.7594 49.4543 20.7643 49.4946 20.7783C49.5349 20.7924 49.5716 20.8153 49.6018 20.8454C49.632 20.8754 49.655 20.9119 49.6691 20.952C49.6832 20.9922 49.6881 21.035 49.6833 21.0772C49.6905 21.1466 49.6905 21.2165 49.6833 21.2859C49.6739 21.3951 49.6434 21.5014 49.5935 21.599L46.5094 31.4226C46.4728 31.6104 46.3787 31.7823 46.2399 31.9145C46.0979 32.0074 45.9306 32.0542 45.7608 32.0487H44.6529C44.4726 32.0655 44.2922 32.0179 44.1439 31.9145C44.0198 31.7701 43.937 31.595 43.9043 31.4077L41.9281 23.2089L39.9669 31.3928C39.9372 31.581 39.8541 31.7569 39.7273 31.8996C39.5779 32.0007 39.3983 32.0481 39.2183 32.0338H38.1104ZM54.579 32.3766C53.9138 32.3776 53.2507 32.3026 52.6027 32.153C52.0862 32.0405 51.584 31.8705 51.1056 31.6462C50.9464 31.5632 50.8121 31.4398 50.7163 31.2884C50.6883 31.1708 50.6883 31.0483 50.7163 30.9307V30.2748C50.7163 30.0065 50.8062 29.8872 51.0008 29.8872H51.2403L51.5547 30.0214C52.006 30.2213 52.4779 30.3713 52.962 30.4686C53.4547 30.5688 53.9564 30.6188 54.4592 30.6176C55.1102 30.6586 55.7594 30.5138 56.3306 30.2002C56.5374 30.0745 56.7072 29.8966 56.8228 29.6846C56.9385 29.4726 56.9959 29.234 56.9894 28.9928C56.995 28.6615 56.8716 28.341 56.645 28.0984C56.2708 27.7862 55.8307 27.562 55.3575 27.4425L53.501 26.876C52.703 26.666 51.9909 26.2125 51.4649 25.5791C51.0546 25.0488 50.8287 24.4 50.8211 23.7307C50.8192 23.2539 50.9322 22.7836 51.1505 22.3592C51.3815 21.9535 51.6982 21.6025 52.0787 21.3306C52.4693 21.023 52.917 20.795 53.3962 20.6598C53.9224 20.5135 54.4669 20.4433 55.0131 20.4511H55.8665L56.6899 20.6002L57.4235 20.794C57.6127 20.8502 57.7938 20.9304 57.9625 21.0325C58.1113 21.1045 58.2399 21.2121 58.3368 21.3455C58.4201 21.4685 58.462 21.6147 58.4566 21.7629V22.3592C58.4566 22.6275 58.3518 22.7617 58.1571 22.7617C57.9886 22.7467 57.8252 22.6959 57.6781 22.6126C56.9044 22.2756 56.0671 22.1078 55.2227 22.1207C54.6369 22.0885 54.0531 22.212 53.531 22.4785C53.3345 22.5924 53.1742 22.7591 53.0683 22.9594C52.9624 23.1597 52.9152 23.3856 52.9321 23.6114C52.9282 23.7783 52.9594 23.9441 53.0239 24.0982C53.0884 24.2522 53.1846 24.3911 53.3064 24.5058C53.7247 24.8292 54.2029 25.0673 54.7137 25.2064L56.5252 25.7729C57.2934 25.9711 57.9827 26.3975 58.5015 26.9953C58.8929 27.5033 59.0988 28.129 59.0854 28.7692C59.0995 29.2854 58.9865 29.7972 58.756 30.2599C58.5322 30.6955 58.2154 31.0771 57.8278 31.3779C57.4088 31.7122 56.9244 31.9559 56.4055 32.0934C55.7959 32.2876 55.159 32.3832 54.5191 32.3766H54.579Z" fill="#112244"/>
<path d="M56.9252 38.5488C52.3299 41.6292 46.9095 43.2603 41.3699 43.2295C34.3722 43.282 27.6073 40.7301 22.4011 36.0742C21.9968 35.7165 22.4011 35.2395 22.8352 35.5227C28.6191 38.8049 35.1617 40.5311 41.819 40.5314C46.7994 40.4937 51.7237 39.4806 56.3114 37.55C57.015 37.2668 57.6139 38.042 56.9252 38.5488ZM58.6319 36.5662C58.1079 35.8805 55.0837 36.2382 53.7213 36.4022C53.3171 36.4022 53.2572 36.1041 53.6165 35.8357C56.0269 34.1513 59.9644 34.6432 60.4285 35.1947C60.8926 35.7463 60.2938 39.6668 58.048 41.5749C57.7037 41.873 57.3743 41.724 57.524 41.3364C58.063 40.0842 59.2008 37.2668 58.6319 36.5662Z" fill="#112244"/>
<path d="M68.2812 29.7238V22.1959H68.8202V22.7921C69.1051 22.5584 69.4229 22.3675 69.7634 22.2257C70.069 22.1076 70.3938 22.0469 70.7216 22.0468C71.032 22.0333 71.3412 22.0924 71.6246 22.2192C71.9079 22.3461 72.1576 22.5372 72.3535 22.7772C72.7854 23.3623 72.9973 24.0798 72.9523 24.8046C72.9997 25.5251 72.7991 26.2402 72.3834 26.8319C72.1836 27.0867 71.9263 27.291 71.6324 27.4283C71.3384 27.5655 71.0162 27.6319 70.6916 27.622C70.0219 27.612 69.3805 27.3512 68.8951 26.8915V29.6791L68.2812 29.7238ZM70.6168 22.5984C69.9693 22.6195 69.3474 22.8556 68.8502 23.2692V26.3847C69.1009 26.6157 69.3896 26.8022 69.7035 26.9363C69.9787 27.0492 70.2742 27.105 70.5719 27.1002C70.8216 27.1232 71.073 27.0834 71.3032 26.9844C71.5334 26.8854 71.735 26.7305 71.8894 26.5338C72.2242 26.0382 72.3824 25.445 72.3385 24.8493C72.3834 23.3437 71.8145 22.5984 70.6168 22.5984Z" fill="#112244"/>
<path d="M77.6302 27.5488V26.9228C77.0999 27.3888 76.421 27.6528 75.7139 27.6681C75.5 27.6782 75.2863 27.6451 75.0856 27.5708C74.8849 27.4965 74.7014 27.3826 74.5461 27.2358C74.4 27.0895 74.2859 26.9146 74.2112 26.7222C74.1365 26.5297 74.1027 26.3239 74.1119 26.1178C74.0984 25.8876 74.1386 25.6573 74.2296 25.4452C74.3205 25.2331 74.4596 25.0449 74.6359 24.8954C75.0626 24.5677 75.5957 24.4085 76.1331 24.4482C76.6418 24.4601 77.1461 24.5454 77.6302 24.7016V23.8519C77.645 23.6835 77.6261 23.5138 77.5748 23.3526C77.5234 23.1914 77.4405 23.0419 77.3308 22.9128C77.0279 22.7073 76.6629 22.6125 76.2978 22.6445C75.6749 22.6524 75.0577 22.7632 74.4713 22.9724V22.4805C74.7679 22.3488 75.0796 22.2536 75.3995 22.1973C75.729 22.1257 76.0654 22.0907 76.4026 22.0929C76.8983 22.0523 77.3922 22.1898 77.7949 22.4805C77.9536 22.6339 78.0762 22.8204 78.1539 23.0266C78.2315 23.2328 78.2623 23.4536 78.2441 23.6731V27.5936L77.6302 27.5488ZM75.7289 27.1016C76.0309 27.1012 76.3303 27.0456 76.6122 26.9377C76.9459 26.8263 77.2631 26.6709 77.5554 26.4756V25.1488C77.1055 25.0327 76.6428 24.9726 76.178 24.97C75.1749 24.97 74.6809 25.3426 74.6809 26.1029C74.6705 26.239 74.6892 26.3758 74.7356 26.5042C74.7821 26.6327 74.8552 26.7499 74.9504 26.8482C75.0564 26.9403 75.18 27.0103 75.3137 27.0538C75.4475 27.0973 75.5887 27.1136 75.7289 27.1016Z" fill="#112244"/>
<path d="M79.8203 27.5486V22.1971H80.3443V22.9722C80.5619 22.7106 80.8323 22.4973 81.1378 22.3461C81.4095 22.219 81.7059 22.1529 82.0061 22.1523H82.4553V22.689H81.9463C81.6451 22.6807 81.3467 22.7473 81.0779 22.8828C80.7964 23.0252 80.5469 23.223 80.3443 23.4642V27.5337L79.8203 27.5486Z" fill="#112244"/>
<path d="M86.4233 27.4291C86.0792 27.5587 85.7129 27.6195 85.3453 27.608C85.1706 27.6187 84.9955 27.5938 84.8307 27.5349C84.666 27.4759 84.5151 27.3842 84.3871 27.2651C84.2706 27.1334 84.1814 26.9799 84.1249 26.8136C84.0684 26.6472 84.0455 26.4714 84.0578 26.2962V22.7334H83.0547V22.3608L84.0877 22.2117V20.6465H84.5967V22.1372H86.3035V22.6738H84.6716V26.2068C84.648 26.4261 84.7126 26.6459 84.8513 26.8179C84.938 26.8901 85.0382 26.9444 85.1461 26.9776C85.2541 27.0109 85.3676 27.0225 85.4801 27.0117C85.7991 27.0091 86.1163 26.964 86.4233 26.8776V27.4291Z" fill="#112244"/>
<path d="M91.3652 27.5476V23.8507C91.3926 23.499 91.3032 23.1481 91.1107 22.852C91.0006 22.7402 90.8669 22.6541 90.7194 22.6C90.5718 22.5459 90.414 22.525 90.2574 22.5389C89.5116 22.5485 88.7862 22.7823 88.1763 23.2097V27.488H87.5625V22.1961H88.1015V22.8222C88.4357 22.5768 88.8038 22.381 89.1944 22.2408C89.5551 22.114 89.9347 22.0485 90.3172 22.047C90.533 22.0312 90.7496 22.0621 90.9522 22.1376C91.1547 22.2132 91.3385 22.3315 91.4907 22.4845C91.643 22.6375 91.7601 22.8215 91.8341 23.0239C91.908 23.2263 91.9371 23.4423 91.9192 23.6569V27.5476H91.3652Z" fill="#112244"/>
<path d="M93.9515 24.9691C93.9179 25.5611 94.0926 26.1462 94.4456 26.6237C94.6449 26.8097 94.881 26.9522 95.1388 27.042C95.3966 27.1319 95.6704 27.1671 95.9427 27.1455C96.5423 27.1653 97.1392 27.0586 97.6944 26.8324V27.3393C97.137 27.6323 96.5128 27.7761 95.8828 27.7567C95.5327 27.7825 95.1811 27.7318 94.8527 27.6082C94.5243 27.4846 94.2269 27.2911 93.9815 27.0411C93.5067 26.4357 93.277 25.6752 93.3377 24.9094C93.2974 24.1644 93.5257 23.4296 93.9815 22.8374C94.21 22.5893 94.4911 22.395 94.8045 22.2687C95.1178 22.1423 95.4555 22.0871 95.793 22.107C96.0677 22.0863 96.3436 22.1249 96.602 22.2201C96.8604 22.3153 97.0951 22.4648 97.2902 22.6585C97.6639 23.0977 97.8517 23.6642 97.8142 24.2386C97.8406 24.5013 97.8406 24.766 97.8142 25.0287L93.9515 24.9691ZM95.7331 22.584C94.6103 22.584 94.0264 23.2101 93.9515 24.4772H97.2003C97.2089 24.363 97.2089 24.2484 97.2003 24.1343C97.2246 23.7139 97.0912 23.2996 96.826 22.9716C96.6789 22.8378 96.5065 22.7346 96.3188 22.6681C96.1312 22.6015 95.932 22.5729 95.7331 22.584Z" fill="#112244"/>
<path d="M99.1406 27.5474V22.1958H99.6646V22.971C99.9098 22.7044 100.212 22.4956 100.548 22.3598C100.824 22.2311 101.126 22.1649 101.431 22.166H101.865V22.7027H101.356C101.055 22.6944 100.757 22.761 100.488 22.8965C100.207 23.0389 99.957 23.2367 99.7545 23.4778V27.5474H99.1406Z" fill="#112244"/>
<path d="M72.1146 38.1623V34.5399C72.151 34.1807 72.0553 33.8205 71.8451 33.5262C71.735 33.4144 71.6013 33.3284 71.4537 33.2742C71.3062 33.2201 71.1484 33.1993 70.9917 33.2132C70.2434 33.2213 69.5162 33.461 68.9107 33.8989V38.1623H68.2969V32.7958H68.8358V33.407C69.1792 33.1715 69.5515 32.9811 69.9437 32.8405C70.2982 32.7081 70.673 32.6375 71.0516 32.6318C71.2694 32.6147 71.4884 32.643 71.6947 32.7148C71.9009 32.7867 72.0898 32.9006 72.2493 33.0492C72.393 33.2112 72.5027 33.4002 72.5721 33.6049C72.6415 33.8097 72.6692 34.0262 72.6536 34.2418V38.1623H72.1146Z" fill="#112244"/>
<path d="M74.6836 35.5983C74.6344 36.1874 74.8109 36.7732 75.1777 37.2381C75.3723 37.4316 75.6074 37.58 75.8661 37.6727C76.1249 37.7655 76.401 37.8003 76.6748 37.7747C77.279 37.779 77.8768 37.6518 78.4265 37.402V37.894C77.8757 38.1916 77.2564 38.3406 76.6299 38.3263C76.2775 38.3523 75.9236 38.3017 75.5928 38.1782C75.2619 38.0547 74.9619 37.861 74.7136 37.6107C74.2464 37.0014 74.0176 36.2438 74.0698 35.479C74.0197 34.7304 74.2549 33.9905 74.7285 33.407C74.9527 33.1565 75.2305 32.9595 75.5415 32.8305C75.8525 32.7014 76.1887 32.6437 76.5251 32.6616C76.7998 32.641 77.0757 32.6796 77.3341 32.7748C77.5925 32.87 77.8272 33.0195 78.0223 33.2132C78.3892 33.6554 78.5714 34.2211 78.5313 34.7933C78.5583 35.061 78.5583 35.3307 78.5313 35.5983H74.6836ZM76.4652 33.1983C75.3424 33.1983 74.7435 33.8393 74.6836 35.1064H77.9175C77.9256 34.9873 77.9256 34.8677 77.9175 34.7486C77.9345 34.5421 77.9101 34.3344 77.8459 34.1373C77.7816 33.9403 77.6787 33.7579 77.5432 33.6008C77.4021 33.4618 77.2332 33.3541 77.0474 33.2848C76.8616 33.2154 76.6632 33.1859 76.4652 33.1983Z" fill="#112244"/>
<path d="M82.5867 38.0421C82.243 38.1745 81.8772 38.2403 81.5087 38.2359C81.3318 38.246 81.1545 38.221 80.9875 38.1621C80.8204 38.1032 80.6667 38.0117 80.5356 37.893C80.3058 37.6237 80.1879 37.2771 80.2062 36.9241V33.3464H79.2031V32.929L80.2362 32.8247L80.326 31.334H80.82V32.8247H82.5867V33.3464H80.835V36.8943C80.8227 37.004 80.8337 37.1151 80.8673 37.2204C80.9008 37.3257 80.9561 37.4228 81.0296 37.5054C81.2032 37.642 81.4233 37.7062 81.6435 37.6843C81.9612 37.6779 82.2774 37.6379 82.5867 37.5651V38.0421Z" fill="#112244"/>
<path d="M88.1736 38.1614L86.8262 33.4955L85.5836 38.1614H84.9248L83.0234 32.7949H83.6822L85.1793 37.431L86.4968 32.7949H87.2154L88.5778 37.4906L90.075 32.7949H90.7038L88.8324 38.1614H88.1736Z" fill="#112244"/>
<path d="M93.8508 38.3265C93.512 38.3456 93.1733 38.2885 92.8597 38.1595C92.5461 38.0304 92.2656 37.8328 92.0392 37.5811C91.5747 36.987 91.3409 36.2461 91.3805 35.4942C91.3353 34.7416 91.5698 33.9987 92.0392 33.4072C92.2656 33.1556 92.5461 32.9579 92.8597 32.8289C93.1733 32.6998 93.512 32.6428 93.8508 32.6618C94.1918 32.6426 94.5328 32.6996 94.8488 32.8286C95.1648 32.9575 95.4479 33.1552 95.6773 33.4072C96.1467 33.9987 96.3812 34.7416 96.336 35.4942C96.3757 36.2461 96.1418 36.987 95.6773 37.5811C95.4479 37.8331 95.1648 38.0308 94.8488 38.1597C94.5328 38.2887 94.1918 38.3457 93.8508 38.3265ZM93.8508 37.7749C95.0934 37.7749 95.7072 37.0147 95.7072 35.4942C95.7072 33.9737 95.0934 33.2134 93.8508 33.2134C92.6081 33.2134 92.0093 33.9737 92.0093 35.4942C92.0093 37.0147 92.6231 37.7749 93.8508 37.7749Z" fill="#112244"/>
<path d="M97.7031 38.1614V32.7949H98.2421V33.5701C98.4677 33.3127 98.7361 33.0959 99.0356 32.9291C99.3136 32.8069 99.615 32.7458 99.9189 32.7502H100.353V33.2869H99.859C99.5598 33.2813 99.2631 33.3424 98.9907 33.4658C98.7092 33.6082 98.4596 33.8059 98.2571 34.0471V38.1614H97.7031Z" fill="#112244"/>
<path d="M101.375 38.1626V30.3066H102.049V35.1961L104.639 32.7961H105.477L102.633 35.3154L105.627 38.1328H104.759L102.049 35.5539V38.1626H101.375Z" fill="#112244"/>
<path d="M32.8825 91.3504C31.8255 91.7472 30.7034 91.9444 29.5738 91.9317C28.7038 91.9925 27.8307 91.8685 27.0125 91.5678C26.1943 91.2671 25.4496 90.7966 24.8278 90.1876C23.6508 88.7126 23.0785 86.8484 23.2259 84.9702C23.103 83.0942 23.6965 81.2413 24.8877 79.7826C25.513 79.1629 26.2636 78.6828 27.0896 78.3744C27.9157 78.0659 28.7983 77.9362 29.6786 77.9938C30.7021 77.9787 31.7189 78.1609 32.6729 78.5304V79.5441C31.7361 79.2832 30.7707 79.138 29.7984 79.1118C29.0684 79.0532 28.3341 79.1476 27.643 79.389C26.9519 79.6303 26.3193 80.0133 25.786 80.513C24.8242 81.6956 24.3529 83.1995 24.4685 84.7168V85.1938C24.4685 88.9205 26.1902 90.7839 29.6636 90.7839C30.7481 90.755 31.8246 90.5897 32.8675 90.292L32.8825 91.3504Z" fill="#112244"/>
<path d="M38.9582 92.0201C38.3307 92.0531 37.7038 91.9457 37.1235 91.7058C36.5431 91.4659 36.0241 91.0996 35.6046 90.6338C34.8243 89.5101 34.4062 88.1763 34.4062 86.8102C34.4062 85.444 34.8243 84.1102 35.6046 82.9865C36.0249 82.5226 36.5444 82.1585 37.1248 81.9212C37.7052 81.6838 38.3318 81.5792 38.9582 81.6151C39.5849 81.577 40.2121 81.6807 40.7929 81.9182C41.3736 82.1557 41.8929 82.5209 42.3118 82.9865C43.0922 84.1102 43.5102 85.444 43.5102 86.8102C43.5102 88.1763 43.0922 89.5101 42.3118 90.6338C41.8936 91.1013 41.3749 91.4687 40.7942 91.7088C40.2135 91.9488 39.5859 92.0552 38.9582 92.0201ZM38.9582 90.9915C41.2189 90.9915 42.3567 89.6052 42.3567 86.8027C42.3567 84.0002 41.2189 82.6288 38.9582 82.6288C36.6975 82.6288 35.5747 84.0151 35.5747 86.8027C35.5747 89.5903 36.6975 90.9319 38.9582 90.9319V90.9915Z" fill="#112244"/>
<path d="M53.0541 91.7228V85.0445C53.1291 84.4055 52.9867 83.7599 52.6499 83.2109C52.448 83.0035 52.202 82.8436 51.93 82.743C51.658 82.6424 51.3669 82.6037 51.0779 82.6296C49.7072 82.6514 48.3756 83.0881 47.2602 83.8817V91.7228H46.0625V81.8991H47.0356L47.1554 83.032C47.7766 82.5915 48.457 82.2403 49.1765 81.9886C49.8378 81.7442 50.5372 81.618 51.2426 81.6159C51.6384 81.5898 52.0354 81.6422 52.4106 81.7702C52.7859 81.8981 53.1318 82.099 53.4284 82.3612C53.6974 82.6619 53.9024 83.0138 54.031 83.3955C54.1597 83.7773 54.2093 84.181 54.177 84.5824V91.7228H53.0541Z" fill="#112244"/>
<path d="M62.2132 89.1443C62.2126 88.9768 62.1777 88.8111 62.1108 88.6573C62.0439 88.5036 61.9463 88.365 61.824 88.2499C61.4483 87.93 61.0098 87.6914 60.5364 87.5493L58.7548 86.8785C58.1718 86.7437 57.6499 86.4206 57.2708 85.9594C56.8916 85.4983 56.6764 84.9251 56.6588 84.3294C56.6477 83.9534 56.7244 83.58 56.8829 83.2385C57.0414 82.8971 57.2773 82.5969 57.5721 82.3617C58.2543 81.845 59.0961 81.5814 59.9526 81.6164C60.4555 81.6124 60.9575 81.6624 61.4497 81.7654C61.917 81.8645 62.3734 82.0093 62.8121 82.1977V83.1219C61.8917 82.8039 60.9266 82.6329 59.9526 82.6151C59.3869 82.5737 58.8234 82.7205 58.3506 83.0325C58.1667 83.1805 58.0206 83.3698 57.9243 83.5849C57.8281 83.7999 57.7843 84.0346 57.7967 84.2698C57.7868 84.4587 57.8163 84.6476 57.8833 84.8246C57.9503 85.0016 58.0533 85.1629 58.1859 85.2984C58.6379 85.642 59.1437 85.9089 59.6831 86.0884L61.2551 86.6698C61.8613 86.8618 62.4077 87.2058 62.842 87.6686C63.1913 88.0855 63.3727 88.6167 63.3511 89.1592C63.3645 89.5609 63.2836 89.96 63.1146 90.325C62.9457 90.6899 62.6934 91.0105 62.3779 91.2611C61.6136 91.8101 60.6842 92.0835 59.743 92.0363C58.633 92.0555 57.5345 91.8102 56.5391 91.3207V90.4114C57.5876 90.8066 58.6968 91.0184 59.8178 91.0375C60.459 91.0712 61.0941 90.8987 61.6294 90.5456C61.8309 90.3745 61.9889 90.1584 62.0904 89.9148C62.1919 89.6712 62.234 89.4072 62.2132 89.1443Z" fill="#112244"/>
<path d="M72.254 91.7221L72.1043 90.6488C71.0018 91.5139 69.6451 91.9956 68.2416 92.0202C67.8528 92.0428 67.4636 91.9856 67.0979 91.8523C66.7322 91.719 66.3979 91.5123 66.1157 91.2451C65.8441 90.9456 65.6363 90.5943 65.5051 90.2125C65.3739 89.8307 65.3218 89.4263 65.3521 89.0239V81.8984H66.475V88.5618C66.4196 89.221 66.5941 89.8791 66.9691 90.4252C67.1622 90.6224 67.3962 90.7752 67.6548 90.873C67.9134 90.9709 68.1903 91.0113 68.4662 90.9916C69.0817 90.9981 69.6939 90.9024 70.2777 90.7084C70.9143 90.4663 71.5178 90.1458 72.0743 89.7544V81.8984H73.1972V91.7221H72.254Z" fill="#112244"/>
<path d="M78.965 91.6476C78.6378 91.7351 78.3007 91.7802 77.9619 91.7818C77.7361 91.7954 77.5099 91.7613 77.2983 91.6816C77.0867 91.602 76.8945 91.4786 76.7342 91.3196C76.4279 90.9646 76.2722 90.5049 76.3001 90.0376V77.2773H77.4229V90.0227C77.3983 90.2399 77.4571 90.4582 77.5876 90.6339C77.6685 90.6995 77.7621 90.7479 77.8625 90.7761C77.9629 90.8043 78.0681 90.8117 78.1715 90.7979H78.965V91.6476Z" fill="#112244"/>
<path d="M86.2144 91.5128C85.5817 91.7427 84.9117 91.8539 84.2382 91.8407C83.9177 91.8612 83.5963 91.8176 83.2929 91.7127C82.9896 91.6077 82.7103 91.4434 82.4716 91.2295C82.0427 90.7353 81.8274 90.0923 81.8727 89.4407V82.8817H80.0312V82.1065L81.9027 81.9872L82.0674 79.0059H82.9806V81.8531H86.1246V82.8369H82.9806V89.4407C82.9573 89.6429 82.9758 89.8478 83.035 90.0426C83.0942 90.2375 83.1929 90.4182 83.325 90.5736C83.6521 90.8274 84.0653 90.945 84.4778 90.9016C85.0646 90.897 85.6483 90.8169 86.2144 90.6631V91.5128Z" fill="#112244"/>
<path d="M88.9336 79.7965C88.8201 79.8028 88.7066 79.7848 88.6007 79.7436C88.4948 79.7025 88.399 79.6392 88.3198 79.5579C88.2432 79.4762 88.1838 79.38 88.1452 79.275C88.1067 79.17 88.0897 79.0584 88.0952 78.9468C88.0885 78.8327 88.1049 78.7185 88.1435 78.6109C88.1821 78.5034 88.242 78.4046 88.3198 78.3207C88.399 78.2395 88.4948 78.1761 88.6007 78.135C88.7066 78.0938 88.8201 78.0758 88.9336 78.0822C89.0473 78.0738 89.1615 78.0908 89.2677 78.1321C89.3739 78.1734 89.4695 78.2378 89.5475 78.3207C89.6252 78.4046 89.6852 78.5034 89.7238 78.6109C89.7624 78.7185 89.7788 78.8327 89.772 78.9468C89.7776 79.0584 89.7606 79.17 89.722 79.275C89.6834 79.38 89.6241 79.4762 89.5475 79.5579C89.4695 79.6408 89.3739 79.7052 89.2677 79.7465C89.1615 79.7878 89.0473 79.8049 88.9336 79.7965ZM88.3647 91.722V81.8983H89.4876V91.722H88.3647Z" fill="#112244"/>
<path d="M99.6316 91.7228V85.0445C99.6875 84.3946 99.5126 83.7457 99.1376 83.2109C98.944 83.0135 98.7103 82.8595 98.4521 82.7592C98.1939 82.659 97.9172 82.6148 97.6404 82.6296C96.2697 82.6514 94.9381 83.0881 93.8227 83.8817V91.7228H92.625V81.8991H93.6131L93.7329 83.032C94.347 82.5888 95.0229 82.2372 95.7391 81.9886C96.401 81.7465 97.1 81.6204 97.8051 81.6159C98.2009 81.5898 98.5979 81.6422 98.9731 81.7702C99.3484 81.8981 99.6943 82.099 99.9909 82.3612C100.26 82.6619 100.465 83.0138 100.594 83.3955C100.722 83.7773 100.772 84.181 100.74 84.5824V91.7228H99.6316Z" fill="#112244"/>
<path d="M110.685 90.2755C110.205 90.6749 109.664 90.9969 109.083 91.2296C108.548 91.4568 107.973 91.5783 107.391 91.5873C106.823 91.605 106.258 91.4934 105.739 91.2609C105.22 91.0284 104.761 90.6812 104.397 90.2457C103.6 89.2447 103.195 87.9889 103.259 86.7128C103.183 85.3778 103.58 84.0585 104.382 82.986C104.742 82.5442 105.2 82.1907 105.719 81.9529C106.238 81.7151 106.805 81.5994 107.376 81.6146C108.599 81.6107 109.775 82.0813 110.655 82.9264L110.76 81.8978H111.748V91.2743C111.794 91.9071 111.713 92.5427 111.51 93.1441C111.307 93.7455 110.986 94.3007 110.565 94.7774C110.112 95.199 109.576 95.5227 108.992 95.7279C108.407 95.9332 107.785 96.0156 107.167 95.9699C106.054 96.0019 104.951 95.7505 103.963 95.2395V94.3153C104.961 94.7261 106.028 94.9436 107.107 94.9563C107.589 94.9977 108.075 94.9396 108.533 94.7857C108.992 94.6318 109.413 94.3854 109.772 94.0619C110.41 93.2612 110.715 92.2476 110.625 91.2296L110.685 90.2755ZM107.691 90.5737C108.803 90.5065 109.859 90.0649 110.685 89.3215V83.8954C110.236 83.5023 109.731 83.1759 109.188 82.9264C108.683 82.7288 108.144 82.6276 107.601 82.6283C107.154 82.5976 106.706 82.6736 106.295 82.8499C105.884 83.0262 105.52 83.2978 105.236 83.6419C104.654 84.524 104.376 85.5702 104.442 86.6233C104.374 87.6598 104.67 88.6876 105.281 89.5302C105.571 89.8691 105.935 90.1388 106.344 90.3194C106.754 90.5 107.198 90.5869 107.646 90.5737H107.691Z" fill="#112244"/>
<path d="M24.7322 105.734V111.235H23.6094V97.7142H28.2954C28.8428 97.6814 29.3911 97.7611 29.9062 97.9483C30.4213 98.1355 30.8923 98.4262 31.2897 98.8024C31.9936 99.6145 32.3808 100.651 32.3808 101.724C32.3808 102.797 31.9936 103.834 31.2897 104.646C30.8903 105.019 30.419 105.308 29.9044 105.495C29.3898 105.682 28.8425 105.763 28.2954 105.734H24.7322ZM24.7322 104.691H28.2505C28.6528 104.745 29.0623 104.705 29.446 104.573C29.8298 104.441 30.177 104.221 30.4596 103.931C30.7423 103.641 30.9525 103.289 31.0733 102.903C31.1941 102.517 31.2221 102.108 31.155 101.709C31.155 99.7117 30.1968 98.7279 28.2505 98.7279H24.7322V104.691Z" fill="#112244"/>
<path d="M40.6736 111.234L40.5688 110.101C39.5888 110.943 38.3445 111.418 37.0505 111.443C36.2592 111.484 35.4839 111.21 34.8947 110.683C34.352 110.083 34.0683 109.295 34.1047 108.489C34.1411 107.683 34.4948 106.923 35.0893 106.375C35.8288 105.806 36.746 105.516 37.6793 105.555C38.6295 105.567 39.5728 105.717 40.479 106.002V104.347C40.5079 104.04 40.4722 103.731 40.3742 103.438C40.2763 103.145 40.1182 102.876 39.9101 102.648C39.3667 102.25 38.6954 102.064 38.0237 102.126C36.8832 102.145 35.7542 102.357 34.6851 102.752V101.828C35.2259 101.615 35.788 101.46 36.3619 101.366C36.9671 101.237 37.5844 101.172 38.2033 101.172C39.115 101.1 40.0226 101.354 40.7634 101.888C41.0555 102.17 41.2819 102.512 41.4268 102.891C41.5716 103.269 41.6314 103.675 41.6019 104.079V111.279L40.6736 111.234ZM37.2003 110.429C37.7525 110.424 38.2996 110.323 38.8172 110.131C39.4281 109.918 40.0112 109.633 40.5539 109.282V106.837C39.7234 106.616 38.8682 106.501 38.0087 106.494C36.1822 106.494 35.2689 107.195 35.2689 108.596C35.249 108.845 35.2813 109.096 35.3638 109.332C35.4462 109.568 35.5771 109.784 35.748 109.967C36.1337 110.286 36.6246 110.451 37.1254 110.429H37.2003Z" fill="#112244"/>
<path d="M44.6094 111.236V101.367H45.5975L45.7023 102.783C46.1289 102.311 46.6357 101.918 47.1994 101.621C47.704 101.424 48.2453 101.337 48.7864 101.367C49.011 101.367 49.2805 101.367 49.5949 101.367V102.366H48.6666C48.1135 102.358 47.5657 102.475 47.0647 102.709C46.5496 102.969 46.0955 103.335 45.7322 103.782V111.236H44.6094Z" fill="#112244"/>
<path d="M56.7607 111.027C56.1273 111.254 55.4577 111.365 54.7844 111.355C54.4639 111.376 54.1422 111.333 53.8387 111.228C53.5352 111.123 53.2561 110.958 53.0178 110.743C52.5835 110.252 52.3628 109.608 52.404 108.955V102.396H50.5625V101.62L52.4489 101.441L52.5986 98.5645H53.5268V101.367H56.6559V102.336H53.5268V108.835C53.5035 109.038 53.522 109.242 53.5812 109.437C53.6405 109.632 53.7391 109.813 53.8712 109.968C54.1937 110.22 54.6014 110.337 55.009 110.296C55.6007 110.292 56.1894 110.211 56.7607 110.058V111.027Z" fill="#112244"/>
<path d="M65.8387 111.234V104.556C65.8945 103.906 65.7197 103.257 65.3446 102.722C65.151 102.525 64.9173 102.371 64.6591 102.271C64.4009 102.17 64.1242 102.126 63.8475 102.141C62.4767 102.163 61.1452 102.6 60.0298 103.393V111.234H58.9219V101.366H59.895L60.0148 102.484C60.636 102.043 61.3164 101.692 62.0359 101.44C62.6925 101.198 63.3867 101.072 64.087 101.068C64.4942 101.007 64.91 101.043 65.3009 101.171C65.6919 101.3 66.0472 101.518 66.3383 101.807C66.6294 102.097 66.8482 102.451 66.9773 102.84C67.1063 103.23 67.1419 103.644 67.0813 104.049V111.189L65.8387 111.234Z" fill="#112244"/>
<path d="M70.6126 106.51C70.5438 107.578 70.8626 108.636 71.5109 109.491C71.8671 109.841 72.295 110.11 72.7653 110.279C73.2356 110.449 73.7372 110.516 74.2357 110.475C75.3497 110.472 76.451 110.238 77.4696 109.789V110.698C76.4544 111.244 75.314 111.516 74.1609 111.489C73.5114 111.544 72.8576 111.458 72.2449 111.237C71.6322 111.015 71.0752 110.664 70.6126 110.207C69.8415 109.065 69.4297 107.721 69.4297 106.346C69.4297 104.97 69.8415 103.626 70.6126 102.485C71.0297 102.026 71.5448 101.666 72.1199 101.431C72.6951 101.196 73.3157 101.093 73.9363 101.128C74.4388 101.097 74.9424 101.171 75.4144 101.345C75.8864 101.52 76.3162 101.791 76.6761 102.142C77.3721 102.973 77.711 104.045 77.6193 105.123C77.6347 105.623 77.5945 106.123 77.4995 106.614L70.6126 106.51ZM73.8914 102.127C71.8253 102.127 70.7324 103.29 70.6126 105.615H76.6012C76.6012 105.436 76.6012 105.213 76.6012 104.974C76.6463 104.203 76.3887 103.444 75.8826 102.857C75.6179 102.603 75.3027 102.407 74.9572 102.281C74.6116 102.155 74.2435 102.103 73.8764 102.127H73.8914Z" fill="#112244"/>
<path d="M80.1172 111.234V101.366H81.0903L81.1951 102.782C81.6218 102.31 82.1286 101.916 82.6923 101.619C83.2015 101.42 83.7481 101.334 84.2942 101.366C84.5188 101.366 84.7883 101.366 85.1027 101.366V102.365H84.1744C83.6213 102.357 83.0735 102.474 82.5725 102.708C82.0574 102.968 81.6033 103.334 81.24 103.781V111.234H80.1172Z" fill="#112244"/>
<path d="M23.871 68.6899C23.4215 68.5504 23.0181 68.2929 22.7032 67.9446C22.4495 67.6335 22.3167 67.2419 22.3289 66.8414C22.3225 66.5789 22.3772 66.3184 22.4889 66.0804C22.6006 65.8424 22.7662 65.6335 22.9727 65.47C23.469 65.1037 24.0772 64.9194 24.6944 64.9483C25.2979 64.9546 25.8957 65.0655 26.461 65.2762V66.3346C25.9255 66.1537 25.3646 66.0581 24.7992 66.0514C24.0806 66.0514 23.7212 66.2899 23.7212 66.752C23.7187 66.8304 23.7335 66.9084 23.7645 66.9805C23.7956 67.0527 23.8421 67.1171 23.9009 67.1694C24.1126 67.3252 24.3511 67.4414 24.6046 67.5123L25.2932 67.7657C25.7526 67.904 26.1697 68.1552 26.5059 68.4961C26.6376 68.6438 26.7385 68.816 26.8027 69.0028C26.867 69.1896 26.8933 69.3873 26.8802 69.5843C26.8884 69.8688 26.8306 70.1513 26.7111 70.4099C26.5916 70.6685 26.4138 70.8961 26.1915 71.075C25.6452 71.4565 24.9865 71.6454 24.3201 71.6117C23.9738 71.6116 23.6282 71.5817 23.2871 71.5222C22.9823 71.4708 22.6854 71.3806 22.4038 71.2539V70.2104C22.7289 70.3023 23.0588 70.3769 23.3919 70.434C23.7033 70.4892 24.0188 70.5191 24.3351 70.5234C24.6291 70.5375 24.9207 70.4649 25.1735 70.3147C25.2711 70.2571 25.3508 70.1737 25.4036 70.0737C25.4565 69.9737 25.4805 69.861 25.4729 69.7483C25.4749 69.6655 25.4601 69.5832 25.4292 69.5063C25.3983 69.4294 25.3521 69.3596 25.2932 69.3011C25.074 69.1451 24.8315 69.0244 24.5746 68.9433L23.871 68.6899Z" fill="#112244"/>
<path d="M30.7136 71.3442C30.3589 71.474 29.9837 71.5396 29.6057 71.538C29.3981 71.5593 29.1883 71.5372 28.9898 71.473C28.7912 71.4088 28.6084 71.304 28.4529 71.1653C28.3156 71.0123 28.2115 70.8327 28.147 70.6378C28.0826 70.4428 28.0594 70.2367 28.0787 70.0324V67.7666H27.375V66.9467L28.1236 66.7976L28.3182 65.5156H29.4261V66.7827H30.6987V67.7666H29.4261V69.9728C29.4165 70.0469 29.4251 70.1223 29.4512 70.1924C29.4772 70.2625 29.52 70.3252 29.5758 70.3753C29.7198 70.4749 29.896 70.5175 30.0699 70.4945H30.7136V71.3442Z" fill="#112244"/>
<path d="M34.246 71.4638L34.1412 71.0464C33.9466 71.2212 33.7239 71.3622 33.4825 71.4638C33.2482 71.5546 33.0001 71.605 32.7489 71.6129C32.5524 71.622 32.3561 71.5924 32.1712 71.5259C31.9862 71.4594 31.8162 71.3572 31.6709 71.2253C31.5298 71.0948 31.4191 70.9351 31.3467 70.7574C31.2743 70.5796 31.2418 70.3883 31.2517 70.1967C31.2459 69.9217 31.3242 69.6513 31.4763 69.4216C31.6332 69.1929 31.8509 69.0122 32.1051 68.8998C32.416 68.7631 32.7535 68.6969 33.0932 68.7061C33.4208 68.7134 33.7468 68.7533 34.0664 68.8253V68.3632C34.0792 68.2592 34.0698 68.1536 34.0388 68.0534C34.0079 67.9533 33.956 67.8607 33.8867 67.7818C33.6957 67.66 33.4684 67.6074 33.2429 67.6328C32.6775 67.6395 32.1166 67.7351 31.5811 67.916V67.0812C31.8523 66.9544 32.1393 66.8641 32.4345 66.8129C32.779 66.7405 33.1304 66.7056 33.4825 66.7085C33.976 66.6675 34.4685 66.7993 34.8748 67.0812C35.0308 67.2359 35.1506 67.4231 35.2257 67.6292C35.3007 67.8353 35.3292 68.0554 35.309 68.2737V71.5235L34.246 71.4638ZM33.1831 70.7036C33.3419 70.7015 33.4991 70.6713 33.6472 70.6141C33.8133 70.5396 33.9692 70.4445 34.1113 70.3309V69.5408C33.8672 69.5209 33.6218 69.5209 33.3777 69.5408C32.8537 69.5408 32.5842 69.7644 32.5842 70.1967C32.5785 70.2751 32.5888 70.3539 32.6146 70.4282C32.6403 70.5025 32.6809 70.5708 32.7339 70.629C32.8679 70.7118 33.0293 70.7386 33.1831 70.7036Z" fill="#112244"/>
<path d="M39.5952 71.4631V68.3923C39.6058 68.2941 39.5967 68.1947 39.5685 68.1C39.5402 68.0054 39.4933 67.9172 39.4305 67.8407C39.3632 67.7768 39.283 67.7278 39.1952 67.697C39.1075 67.6662 39.0142 67.6542 38.9215 67.6619C38.5639 67.6686 38.2159 67.7773 37.9184 67.9749V71.4631H36.5859V66.7823H37.6789L37.8136 67.2892C38.3106 66.8791 38.9347 66.6527 39.5802 66.6482C39.762 66.6348 39.9447 66.6583 40.1171 66.7172C40.2895 66.7762 40.4481 66.8693 40.5833 66.991C40.7094 67.1267 40.8063 67.2866 40.8681 67.4609C40.9299 67.6352 40.9553 67.8203 40.9426 68.0047V71.4631H39.5952Z" fill="#112244"/>
<path d="M45.3855 71.4643L45.2657 71.0469C44.9013 71.3879 44.4183 71.575 43.9183 71.5686C43.5564 71.5745 43.2013 71.4705 42.9002 71.2705C42.5916 71.0674 42.3517 70.7765 42.2115 70.4357C42.0418 70.0247 41.9602 69.583 41.972 69.1388C41.9412 68.4895 42.1311 67.8488 42.5109 67.3202C42.6865 67.0951 42.9147 66.9162 43.1757 66.7993C43.4367 66.6824 43.7225 66.6309 44.0081 66.6493C44.428 66.6715 44.8307 66.8225 45.1609 67.0816V64.6816H46.5083V71.4643H45.3855ZM44.3674 70.555C44.6651 70.5497 44.9554 70.4619 45.2058 70.3015V67.8866C44.9303 67.7224 44.6135 67.6397 44.2925 67.6481C44.1516 67.6387 44.0107 67.6668 43.8844 67.7297C43.7581 67.7926 43.6509 67.888 43.5739 68.0059C43.3908 68.3436 43.3077 68.7261 43.3344 69.109C43.3014 69.4894 43.3905 69.8704 43.5889 70.1972C43.6765 70.3188 43.7942 70.4157 43.9307 70.4784C44.0672 70.5411 44.2176 70.5675 44.3674 70.555Z" fill="#112244"/>
<path d="M50.5429 71.4647L50.4381 71.0474C50.2434 71.2221 50.0208 71.3632 49.7794 71.4647C49.5451 71.5555 49.297 71.6059 49.0458 71.6138C48.8493 71.6229 48.653 71.5933 48.4681 71.5268C48.2831 71.4603 48.1131 71.3582 47.9678 71.2262C47.8267 71.0957 47.716 70.936 47.6436 70.7583C47.5711 70.5806 47.5387 70.3892 47.5486 70.1977C47.5428 69.9226 47.6211 69.6522 47.7732 69.4225C47.93 69.1938 48.1478 69.0131 48.402 68.9008C48.7128 68.764 49.0504 68.6978 49.3901 68.707C49.7177 68.7143 50.0437 68.7542 50.3632 68.8262V68.3641C50.376 68.2601 50.3666 68.1545 50.3357 68.0544C50.3047 67.9542 50.2529 67.8616 50.1836 67.7827C49.9925 67.661 49.7652 67.6083 49.5398 67.6337C48.9744 67.6405 48.4135 67.736 47.878 67.9169V67.0821C48.1492 66.9553 48.4362 66.8651 48.7314 66.8138C49.0759 66.7415 49.4273 66.7065 49.7794 66.7094C50.2685 66.6655 50.7572 66.7977 51.1567 67.0821C51.3154 67.2355 51.438 67.422 51.5157 67.6282C51.5933 67.8344 51.6241 68.0552 51.6059 68.2747V71.5244L50.5429 71.4647ZM49.435 70.7045C49.5938 70.7025 49.751 70.6722 49.8991 70.6151C50.0652 70.5405 50.2212 70.4454 50.3632 70.3318V69.5418C50.1191 69.5218 49.8738 69.5218 49.6296 69.5418C49.1056 69.5418 48.8362 69.7654 48.8362 70.1977C48.8305 70.2761 48.8408 70.3548 48.8665 70.4291C48.8923 70.5034 48.9329 70.5717 48.9859 70.63C49.1199 70.7127 49.2813 70.7395 49.435 70.7045Z" fill="#112244"/>
<path d="M52.875 71.4627V66.7819H53.9679L54.1326 67.4676C54.3346 67.2419 54.5723 67.0505 54.8363 66.9012C55.0475 66.7877 55.285 66.7312 55.5249 66.7372C55.6493 66.723 55.7749 66.723 55.8992 66.7372V67.9745C55.7103 67.9509 55.5192 67.9509 55.3303 67.9745C54.9461 67.9716 54.5648 68.0425 54.2075 68.1832V71.4925L52.875 71.4627Z" fill="#112244"/>
<path d="M59.7761 71.4643L59.6563 71.0469C59.2919 71.3879 58.8089 71.575 58.3089 71.5686C57.947 71.5745 57.5919 71.4705 57.2908 71.2705C56.9823 71.0674 56.7423 70.7765 56.6021 70.4357C56.4324 70.0247 56.3509 69.583 56.3626 69.1388C56.3319 68.4895 56.5217 67.8488 56.9016 67.3202C57.0771 67.0951 57.3053 66.9162 57.5663 66.7993C57.8273 66.6824 58.1131 66.6309 58.3987 66.6493C58.8512 66.6406 59.2937 66.7822 59.6563 67.0518V64.6816H61.0037V71.4643H59.7761ZM58.743 70.555C59.0457 70.5517 59.3414 70.4639 59.5964 70.3015V67.8866C59.3209 67.7224 59.0041 67.6397 58.6832 67.6481C58.542 67.6371 58.4005 67.6645 58.2739 67.7276C58.1473 67.7906 58.0403 67.8868 57.9645 68.0059C57.7814 68.3436 57.6984 68.7261 57.725 69.109C57.6961 69.4872 57.7794 69.8656 57.9645 70.1972C58.055 70.3157 58.1733 70.4103 58.309 70.4727C58.4447 70.5351 58.5938 70.5633 58.743 70.555Z" fill="#112244"/>
<path d="M134.583 5.65039H0.648438V9.04916H134.583V5.65039Z" fill="#112244"/>
</g>
<defs>
<clipPath id="clip0_4810_2650">
<rect width="135" height="130" fill="white"/>
</clipPath>
</defs>
</svg>
