<svg width="111" height="130" viewBox="0 0 111 130" fill="none" xmlns="http://www.w3.org/2000/svg">
<g clip-path="url(#clip0_4810_2643)">
<path d="M10.093 92.4084L10.3016 92.5333C10.4416 92.617 10.5584 92.6517 10.6521 92.6372C10.7458 92.6228 10.8231 92.5643 10.8839 92.4618C10.9457 92.3577 10.9561 92.2626 10.9151 92.1766C10.8741 92.0906 10.7854 92.0068 10.6488 91.925L10.4502 91.8061L10.093 92.4084ZM9.94504 92.6578L9.50863 93.3936L9.20825 93.2138L10.3008 91.3718L10.8198 91.6825C11.057 91.8245 11.2061 91.9741 11.2672 92.1314C11.3284 92.2886 11.3057 92.4571 11.199 92.6369C11.063 92.8662 10.8472 92.9583 10.5514 92.9133L10.587 94.0392L10.2451 93.8345L10.2417 92.8354L9.94504 92.6578ZM11.8941 94.8217L10.8547 94.1994L11.9472 92.3575L12.9866 92.9797L12.8357 93.2342L12.0967 92.7918L11.7992 93.2932L12.4918 93.7078L12.3423 93.9598L11.6498 93.5452L11.3068 94.1235L12.0458 94.5659L11.8941 94.8217ZM14.0293 93.9181C13.8567 93.8147 13.6846 93.7948 13.513 93.8582C13.3414 93.9217 13.1915 94.0613 13.0635 94.2772C12.9295 94.5031 12.8755 94.7024 12.9014 94.875C12.9282 95.0481 13.0316 95.1885 13.2118 95.2964C13.2897 95.343 13.3696 95.3806 13.4515 95.4091C13.5338 95.4368 13.6216 95.4621 13.7148 95.4849L13.5616 95.7431C13.3851 95.7115 13.2055 95.6409 13.0229 95.5316C12.7539 95.3706 12.5957 95.1655 12.5482 94.9162C12.5013 94.6662 12.5679 94.3891 12.7483 94.085C12.8619 93.8935 12.996 93.7468 13.1508 93.6448C13.3063 93.5433 13.473 93.494 13.6507 93.4968C13.8284 93.4996 14.0065 93.5544 14.185 93.6613C14.3727 93.7736 14.5227 93.917 14.6351 94.0912L14.3783 94.2772C14.3337 94.2107 14.2831 94.1457 14.2265 94.0822C14.1713 94.0184 14.1055 93.9637 14.0293 93.9181ZM16.103 96.09C15.9252 96.3898 15.7119 96.578 15.4633 96.6545C15.2155 96.7316 14.9546 96.6881 14.6806 96.524C14.4033 96.358 14.2389 96.148 14.1874 95.8941C14.1372 95.6399 14.2023 95.3607 14.3826 95.0566C14.563 94.7526 14.7761 94.5637 15.0218 94.4901C15.2685 94.4169 15.5305 94.4633 15.8078 94.6294C16.081 94.7929 16.243 95.002 16.294 95.2568C16.345 95.5116 16.2814 95.7893 16.103 96.09ZM14.7004 95.2503C14.5659 95.4771 14.5094 95.6766 14.531 95.8489C14.5531 96.0203 14.6538 96.1597 14.8331 96.267C15.0116 96.3739 15.1804 96.3964 15.3397 96.3347C15.4997 96.2734 15.6478 96.1282 15.7838 95.8989C15.9178 95.6729 15.9742 95.4745 15.9529 95.3036C15.9325 95.1331 15.8331 94.9945 15.6546 94.8877C15.4745 94.7798 15.3037 94.7567 15.1423 94.8183C14.9817 94.8803 14.8344 95.0243 14.7004 95.2503ZM17.2941 96.7006L17.9703 97.1054L17.4218 98.0302C17.2897 98.0001 17.1681 97.962 17.057 97.9159C16.9466 97.8703 16.8324 97.8122 16.7142 97.7414C16.436 97.5749 16.2704 97.3642 16.2172 97.1093C16.1645 96.8535 16.2273 96.5753 16.4057 96.2746C16.5815 95.9781 16.8041 95.7972 17.0733 95.7319C17.343 95.6657 17.627 95.7219 17.9253 95.9005C18.1172 96.0153 18.2771 96.1612 18.405 96.3379L18.1508 96.5254C18.0425 96.3673 17.9137 96.2435 17.7646 96.1542C17.5685 96.0369 17.3769 96.0058 17.1897 96.0611C17.0025 96.1163 16.8454 96.251 16.7184 96.4652C16.5849 96.6903 16.5344 96.8923 16.5668 97.071C16.6007 97.2495 16.7139 97.3964 16.9066 97.5118C17.0038 97.57 17.115 97.62 17.24 97.6618L17.5217 97.1868L17.1409 96.9589L17.2941 96.7006ZM19.3509 99.2858L18.9827 99.0653L18.9496 97.0566L18.9395 97.0505L18.8972 97.1362C18.8163 97.2994 18.7375 97.4457 18.6607 97.5751L18.0928 98.5326L17.8201 98.3693L18.9126 96.5274L19.2771 96.7456L19.3121 98.7453L19.3197 98.7498C19.3295 98.7295 19.3677 98.6573 19.4344 98.5334C19.5016 98.4086 19.5554 98.3121 19.5958 98.2441L20.1682 97.279L20.4434 97.4438L19.3509 99.2858ZM19.8361 99.5762L20.9286 97.7342L21.2289 97.9141L20.1364 99.756L19.8361 99.5762ZM21.7779 100.739L20.4632 99.9517L20.5873 99.7425L22.3288 98.9225L21.4277 98.383L21.5809 98.1247L22.8452 98.8817L22.7197 99.0933L20.9759 99.9086L21.9311 100.48L21.7779 100.739ZM23.1428 101.556L22.1034 100.934L23.1959 99.0916L24.2353 99.7138L24.0843 99.9683L23.3453 99.5259L23.0479 100.027L23.7404 100.442L23.591 100.694L22.8985 100.279L22.5555 100.858L23.2945 101.3L23.1428 101.556ZM25.5923 101.75C25.412 102.054 25.1898 102.237 24.9257 102.297C24.6621 102.357 24.372 102.292 24.0552 102.102L23.5412 101.794L24.6337 99.9524L25.2018 100.292C25.4942 100.468 25.6749 100.683 25.7438 100.938C25.8127 101.193 25.7622 101.464 25.5923 101.75ZM25.2696 101.571C25.5311 101.13 25.4562 100.786 25.0448 100.54L24.7846 100.384L23.9918 101.721L24.2054 101.849C24.6479 102.114 25.0026 102.021 25.2696 101.571ZM27.1926 101.484L27.7381 101.811C27.9911 101.962 28.1519 102.109 28.2203 102.25C28.2896 102.391 28.2769 102.542 28.1822 102.702C28.1185 102.809 28.0378 102.882 27.9401 102.92C27.8425 102.959 27.7362 102.956 27.6214 102.912L27.6139 102.925C27.7285 103.026 27.7945 103.131 27.812 103.24C27.8308 103.348 27.8039 103.463 27.7311 103.586C27.633 103.751 27.4982 103.846 27.3268 103.871C27.1567 103.896 26.969 103.846 26.7637 103.724L26.1001 103.326L27.1926 101.484ZM27.0417 102.425L27.3307 102.598C27.4564 102.673 27.5599 102.709 27.6411 102.704C27.7228 102.698 27.7921 102.647 27.8489 102.552C27.9002 102.465 27.9059 102.384 27.866 102.307C27.8269 102.232 27.7395 102.153 27.6037 102.072L27.3436 101.916L27.0417 102.425ZM26.8967 102.67L26.5507 103.253L26.8699 103.444C26.9956 103.519 27.1045 103.552 27.1966 103.542C27.29 103.532 27.3676 103.475 27.4294 103.371C27.4862 103.275 27.4956 103.185 27.4576 103.099C27.4197 103.014 27.3341 102.931 27.2008 102.852L26.8967 102.67ZM28.9125 103.653L29.8458 103.073L30.1726 103.268L28.8917 104.029L28.468 104.744L28.1664 104.563L28.5841 103.859L28.6493 102.356L28.9761 102.552L28.9125 103.653Z" fill="#112244"/>
<path d="M55.5511 30.3799C62.336 30.3799 68.9685 32.4012 74.6099 36.1882C80.2513 39.9753 84.6483 45.3579 87.2447 51.6555C89.8412 57.9531 90.5205 64.8829 89.1969 71.5684C87.8732 78.2539 84.606 84.3949 79.8084 89.2149C75.0107 94.0349 68.8982 97.3173 62.2437 98.6472C55.5892 99.977 48.6916 99.2945 42.4232 96.6859C36.1548 94.0774 30.7971 89.6599 27.0277 83.9922C23.2582 78.3245 21.2462 71.6611 21.2462 64.8446C21.2541 55.7064 24.8709 46.9448 31.3026 40.4831C37.7343 34.0214 46.4553 30.3878 55.5511 30.3799ZM55.5511 26.832C48.0678 26.832 40.7526 29.0614 34.5304 33.2383C28.3083 37.4152 23.4587 43.3519 20.595 50.2978C17.7312 57.2437 16.982 64.8868 18.4419 72.2605C19.9018 79.6342 23.5054 86.4074 28.7968 91.7236C34.0883 97.0397 40.8301 100.66 48.1696 102.127C55.5092 103.594 63.1168 102.841 70.0304 99.9637C76.9441 97.0866 82.8533 92.2144 87.0108 85.9633C91.1684 79.7122 93.3874 72.3628 93.3874 64.8446C93.3874 54.7631 89.4011 45.0944 82.3054 37.9657C75.2097 30.8369 65.5859 26.832 55.5511 26.832Z" fill="#112244"/>
<path d="M57.0354 59.4348C56.3302 59.001 55.5309 58.7452 54.7058 58.6895H51.7383V70.9876H54.7058C55.5366 70.9276 56.3384 70.6557 57.0354 70.1976C58.5191 69.2286 59.3204 67.41 59.3204 64.846C59.3204 62.282 58.5933 60.4037 57.0354 59.4348Z" fill="#112244"/>
<path d="M55.5513 33.0488C49.2917 33.0488 43.1727 34.9137 37.9681 38.4075C32.7634 41.9013 28.7069 46.8672 26.3115 52.6773C23.9161 58.4873 23.2893 64.8805 24.5105 71.0484C25.7317 77.2163 28.7459 82.8819 33.1721 87.3287C37.5983 91.7755 43.2376 94.8038 49.3769 96.0307C55.5162 97.2576 61.8797 96.6279 67.6628 94.2213C73.4459 91.8147 78.3888 87.7393 81.8664 82.5104C85.344 77.2815 87.2002 71.134 87.2002 64.8452C87.2002 56.4123 83.8658 48.3248 77.9305 42.3618C71.9951 36.3988 63.9451 33.0488 55.5513 33.0488ZM45.1649 58.6887H41.218V72.5521C41.218 72.9475 41.0617 73.3266 40.7834 73.6062C40.5052 73.8857 40.1278 74.0428 39.7342 74.0428C39.3407 74.0428 38.9633 73.8857 38.6851 73.6062C38.4068 73.3266 38.2505 72.9475 38.2505 72.5521V58.6887H34.1849C33.7776 58.6887 33.387 58.5261 33.099 58.2368C32.811 57.9475 32.6492 57.555 32.6492 57.1458C32.6492 56.7366 32.811 56.3442 33.099 56.0549C33.387 55.7655 33.7776 55.603 34.1849 55.603H45.1649C45.5722 55.603 45.9628 55.7655 46.2508 56.0549C46.5388 56.3442 46.7006 56.7366 46.7006 57.1458C46.7006 57.555 46.5388 57.9475 46.2508 58.2368C45.9628 58.5261 45.5722 58.6887 45.1649 58.6887ZM54.661 74.0875H50.2097C49.8162 74.0875 49.4388 73.9305 49.1605 73.6509C48.8823 73.3713 48.7259 72.9922 48.7259 72.5968V57.1235C48.7259 56.7281 48.8823 56.3489 49.1605 56.0694C49.4388 55.7898 49.8162 55.6328 50.2097 55.6328H54.661C54.8539 55.6328 62.4657 55.6328 62.4657 64.8751C62.4657 74.1173 54.8391 74.0875 54.6462 74.0875H54.661ZM77.1254 74.0875C76.8055 74.1065 76.4881 74.0209 76.2206 73.8436C75.9531 73.6662 75.75 73.4066 75.6416 73.1037L74.4843 70.2266L73.2527 67.2453L70.9529 61.2825L68.6085 67.2453L67.377 70.2266L66.2642 73.044C66.1558 73.347 65.9526 73.6066 65.6852 73.7839C65.4177 73.9613 65.1003 74.0469 64.7804 74.0279C64.3869 74.0279 64.0094 73.8708 63.7312 73.5913C63.4529 73.3117 63.2966 72.9326 63.2966 72.5372C63.2898 72.3367 63.3305 72.1374 63.4153 71.9558L69.5433 56.6464C69.6612 56.35 69.8666 56.0969 70.1318 55.921C70.397 55.7452 70.7094 55.655 71.0271 55.6626C71.347 55.6436 71.6644 55.7292 71.9319 55.9065C72.1993 56.0839 72.4024 56.3435 72.5108 56.6464L78.6388 72.0304C78.7117 72.2153 78.747 72.4129 78.7427 72.6117C78.7417 72.8194 78.6974 73.0246 78.6129 73.2142C78.5283 73.4037 78.4052 73.5734 78.2515 73.7123C78.0979 73.8513 77.917 73.9564 77.7205 74.021C77.524 74.0856 77.3163 74.1083 77.1105 74.0875H77.1254Z" fill="#112244"/>
<path d="M55.5574 4.47237C56.8245 4.47569 58.0683 4.81508 59.163 5.45623L104.923 32.0203C106.053 32.6884 106.99 33.6432 107.638 34.789C108.287 35.9348 108.624 37.2315 108.617 38.5495V91.1411C108.624 92.4591 108.287 93.7558 107.638 94.9016C106.99 96.0475 106.053 97.0022 104.923 97.6703L59.163 124.309C58.0698 124.954 56.8251 125.294 55.5574 125.294C54.2897 125.294 53.045 124.954 51.9518 124.309L6.19219 97.6703C5.06133 97.0022 4.12489 96.0475 3.47652 94.9016C2.82816 93.7558 2.49059 92.4591 2.49759 91.1411V38.5495C2.49059 37.2315 2.82816 35.9348 3.47652 34.789C4.12489 33.6432 5.06133 32.6884 6.19219 32.0203L51.9518 5.38169C53.0537 4.76656 54.297 4.45299 55.5574 4.47237ZM55.5574 2.23634C53.9104 2.23428 52.2924 2.67154 50.8687 3.50342L5.10903 30.142C3.64705 30.9988 2.43479 32.2264 1.59367 33.7019C0.752553 35.1775 0.312104 36.8492 0.316438 38.5495V91.1411C0.312104 92.8415 0.752553 94.5131 1.59367 95.9887C2.43479 97.4642 3.64705 98.6918 5.10903 99.5486L50.8687 126.187C52.2932 127.017 53.9107 127.454 55.5574 127.454C57.2041 127.454 58.8216 127.017 60.2461 126.187L106.006 99.5486C107.468 98.6918 108.68 97.4642 109.521 95.9887C110.362 94.5131 110.803 92.8415 110.798 91.1411V38.5495C110.803 36.8492 110.362 35.1775 109.521 33.7019C108.68 32.2264 107.468 30.9988 106.006 30.142L60.2461 3.50342C58.8224 2.67154 57.2044 2.23428 55.5574 2.23634Z" fill="#112244"/>
</g>
<defs>
<clipPath id="clip0_4810_2643">
<rect width="111" height="130" fill="white"/>
</clipPath>
</defs>
</svg>
