<svg width="92" height="101" viewBox="0 0 92 101" fill="none" xmlns="http://www.w3.org/2000/svg">
<g clip-path="url(#clip0_1736_1243)">
<path d="M0.190908 25.2912L45.5185 0.300781L90.8461 25.2912L90.8215 25.3485H91.0313V75.1907H90.7003L90.7477 75.3011L45.4693 100.302L0.190908 75.3011L0.23828 75.1903H0.0371094V25.3488H0.215517L0.190908 25.2912Z" fill="#112244"/>
<path d="M4.25715 27.3565L45.5054 4.42969L86.7533 27.3565L86.7312 27.4088H86.9219V73.1359H86.6207L86.6638 73.2374L45.4605 96.1738L4.25715 73.2371L4.30021 73.1356H4.11719V27.4094H4.27929L4.25715 27.3571V27.3565Z" fill="#C6D0DB"/>
<path d="M8.03524 29.4064L45.5012 8.58203L82.9673 29.4064L82.947 29.4544H83.1201V39.7017H7.9082V29.4544H8.05585L8.03524 29.4064ZM8.03524 70.443L45.5012 91.2674L82.9673 70.443L82.947 70.395H83.1201V60.1477H7.9082V70.395H8.05585L8.03524 70.443Z" fill="#112244"/>
<path d="M50.1412 18.8659L45.5321 14.2305L42.1692 17.6126L38.3086 21.4952L40.0937 23.2906L41.0693 20.681H42.9177L41.6694 23.9907C40.7441 23.8349 40.0741 23.6044 40.0741 23.2906V24.2936C40.0741 24.7743 42.3154 25.2747 45.5343 25.2747C48.7511 25.2747 50.9945 24.7743 50.9945 24.2936V23.2906C50.9945 23.6044 50.3267 23.8327 49.4036 23.9907L48.5852 21.7257H50.4118L50.9923 23.2906L52.7579 21.4952L50.1412 18.8659ZM48.4499 24.1202C47.8912 24.1795 47.2998 24.2212 46.7346 24.2453L45.5343 20.7644L44.932 22.4983L44.3122 24.2453C43.7535 24.2212 43.1687 24.1795 42.6165 24.1202L44.764 18.4269H46.3418L47.0467 20.3474L48.4499 24.1202Z" fill="white"/>
<path d="M36.7843 32.9035L36.3478 31.4001H34.1895L33.753 32.9035H32.4043L34.4382 26.5781H36.0575L38.1133 32.9035H36.7843ZM36.0575 30.2742L35.6625 28.8958C35.6407 28.8541 35.6211 28.7488 35.5796 28.6456C35.5381 28.5205 35.5163 28.3954 35.4748 28.2484C35.4334 28.1013 35.3919 27.9565 35.3701 27.8094C35.3286 27.6624 35.3068 27.5373 35.2872 27.4341C35.2653 27.4977 35.2653 27.5811 35.2457 27.6645C35.2239 27.748 35.2042 27.8533 35.1824 27.9367C35.1606 28.0421 35.1409 28.1255 35.0995 28.2286C35.0777 28.334 35.058 28.4174 35.0166 28.5008C34.9947 28.5842 34.9751 28.6676 34.9533 28.7312C34.9314 28.7949 34.9118 28.8366 34.9118 28.8783L34.5212 30.2522L36.0575 30.2742ZM40.8107 32.9869C40.4571 32.9869 40.1472 32.9452 39.8766 32.8399C39.606 32.7345 39.3572 32.5897 39.1717 32.4009C38.984 32.1924 38.8182 31.9422 38.7156 31.6283C38.6109 31.3145 38.5498 30.9392 38.5498 30.5002C38.5498 30.0196 38.6131 29.6223 38.7156 29.2887C38.8204 28.9748 38.9644 28.7049 39.1717 28.5161C39.3594 28.3274 39.6082 28.1825 39.8766 28.0991C40.1472 28.0157 40.4571 27.974 40.791 27.974C41.0398 27.974 41.2886 27.996 41.5177 28.0574C41.7665 28.1211 41.9957 28.2045 42.203 28.3076L41.8298 29.3106C41.6421 29.2272 41.4566 29.1636 41.2908 29.1021C41.1249 29.0385 40.9591 29.0187 40.7932 29.0187C40.4811 29.0187 40.2542 29.1438 40.108 29.3743C39.9617 29.6245 39.9006 29.9801 39.9006 30.4607C39.9006 30.9414 39.9639 31.2947 40.108 31.5252C40.2542 31.7556 40.4811 31.8807 40.7714 31.8807C41.0202 31.8807 41.2493 31.839 41.4566 31.7754C41.664 31.7118 41.8713 31.6283 42.0786 31.5252V32.6314C41.9739 32.6731 41.8713 32.7367 41.7665 32.7784C41.6618 32.8201 41.5592 32.8421 41.4545 32.8838C41.3497 32.9057 41.2471 32.9255 41.1424 32.9474C41.0616 32.9869 40.9372 32.9869 40.8107 32.9869ZM44.5075 32.9035H43.2003V28.0816H44.5075V32.9035ZM47.9949 32.9869C47.6414 32.9869 47.3315 32.9452 47.0391 32.8399C46.7488 32.7345 46.5 32.5897 46.2927 32.3812C46.0854 32.1727 45.9195 31.9225 45.8148 31.6086C45.6904 31.2947 45.6489 30.9414 45.6489 30.5222C45.6489 30.103 45.7122 29.7299 45.8148 29.416C45.9195 29.1021 46.0636 28.8322 46.2512 28.6237C46.4389 28.4152 46.6659 28.2484 46.9365 28.143C47.2071 28.0377 47.4974 27.9762 47.8291 27.9762C48.1411 27.9762 48.4314 28.0179 48.6802 28.1233C48.929 28.2286 49.1581 28.3537 49.324 28.5403C49.5117 28.729 49.636 28.9573 49.7386 29.2294C49.8434 29.5016 49.8848 29.8133 49.8848 30.1688V30.8163H46.9561C46.9561 31.005 46.9976 31.1718 47.0391 31.3167C47.1023 31.4637 47.1635 31.5888 47.2682 31.692C47.373 31.7973 47.4755 31.8807 47.6217 31.9225C47.768 31.9861 47.912 32.0059 48.0779 32.0059C48.2241 32.0059 48.3681 32.0059 48.4925 31.9839C48.6169 31.962 48.7413 31.9422 48.8657 31.9203C48.9901 31.8786 49.1145 31.8566 49.2389 31.7952C49.3633 31.7535 49.4876 31.6898 49.612 31.6283V32.6511C49.4876 32.7148 49.3829 32.7565 49.2585 32.7982C49.1341 32.8399 49.0294 32.8816 48.8853 32.9035C48.7609 32.9255 48.6147 32.9452 48.4707 32.9672C48.3266 32.9869 48.1804 32.9869 47.9949 32.9869ZM47.8291 28.9178C47.5999 28.9178 47.4144 29.0012 47.2486 29.168C47.1023 29.3348 46.9998 29.585 46.978 29.9406H48.6387C48.6387 29.7935 48.6169 29.6486 48.5754 29.5433C48.534 29.4182 48.4925 29.3128 48.4292 29.2294C48.3659 29.146 48.283 29.0626 48.1804 29.0209C48.0779 28.9595 47.9731 28.9178 47.8291 28.9178ZM52.9357 31.9444C53.0601 31.9444 53.1845 31.9225 53.3089 31.9027C53.4333 31.8829 53.5381 31.839 53.6625 31.7973V32.7784C53.5381 32.8421 53.3918 32.9035 53.2064 32.9452C53.0187 32.9869 52.8332 33.0089 52.604 33.0089C52.3967 33.0089 52.209 32.9869 52.0235 32.9452C51.8358 32.9035 51.6918 32.8201 51.5456 32.695C51.4212 32.5699 51.3164 32.4031 51.2335 32.1946C51.1506 31.9861 51.1288 31.7359 51.1288 31.422V29.0626H50.5068V28.4986L51.2335 28.0596L51.6067 27.0368H52.436V28.0596H53.5992V29.0407H52.436V31.3584C52.436 31.5471 52.4774 31.692 52.5822 31.7754C52.6651 31.9027 52.7895 31.9444 52.9357 31.9444ZM53.9527 28.0816H55.3843L56.1525 30.7965C56.194 30.9436 56.2354 31.1104 56.2573 31.2772C56.2791 31.444 56.2987 31.591 56.2987 31.7359H56.3205C56.3205 31.6722 56.3424 31.5888 56.3424 31.5054C56.3424 31.422 56.3642 31.3386 56.3838 31.2552C56.4057 31.1718 56.4057 31.0884 56.4253 31.005C56.4471 30.9216 56.4668 30.858 56.4886 30.7746L57.2349 28.0596H58.6666L56.7767 33.5093C56.589 34.0097 56.362 34.407 56.0499 34.6374C55.7379 34.8876 55.3647 35.0127 54.9086 35.0127C54.7624 35.0127 54.638 35.0127 54.5136 34.9908C54.4088 34.9688 54.3062 34.9491 54.243 34.9491V33.9044C54.3062 33.9263 54.3674 33.9263 54.4721 33.9461C54.555 33.968 54.6598 33.968 54.7624 33.968C54.9086 33.968 55.0111 33.9461 55.1159 33.9044C55.2206 33.8626 55.3036 33.8209 55.3647 33.7375C55.428 33.6739 55.4891 33.5905 55.5524 33.4873C55.5938 33.382 55.6353 33.2788 55.6768 33.1735L55.7597 32.9233L53.9527 28.0816Z" fill="white"/>
<path d="M16.9847 43.1696H17.9002L19.2484 47.023L20.5965 43.1696H21.5121L19.6161 48.418H18.8807L16.9847 43.1696ZM16.4908 43.1696H17.4028L17.5686 46.9256V48.418H16.4908V43.1696ZM21.094 43.1696H22.0096V48.418H20.9282V46.9256L21.094 43.1696ZM24.9978 47.5384V45.801C24.9978 45.676 24.9774 45.5691 24.9365 45.4802C24.8957 45.3889 24.832 45.318 24.7455 45.2675C24.6614 45.217 24.552 45.1918 24.4175 45.1918C24.3021 45.1918 24.2024 45.2122 24.1183 45.2531C24.0342 45.2915 23.9693 45.348 23.9236 45.4225C23.878 45.4946 23.8551 45.5799 23.8551 45.6784H22.817C22.817 45.5126 22.8554 45.3552 22.9323 45.2062C23.0092 45.0572 23.121 44.9263 23.2676 44.8133C23.4142 44.698 23.5884 44.6078 23.7903 44.543C23.9945 44.4781 24.2228 44.4456 24.4751 44.4456C24.7779 44.4456 25.0471 44.4961 25.2826 44.597C25.5181 44.698 25.7031 44.8494 25.8377 45.0512C25.9747 45.2531 26.0432 45.5054 26.0432 45.8082V47.4772C26.0432 47.691 26.0564 47.8665 26.0828 48.0034C26.1093 48.138 26.1477 48.2558 26.1982 48.3567V48.418H25.1492C25.0987 48.3122 25.0603 48.1801 25.0339 48.0215C25.0098 47.8604 24.9978 47.6994 24.9978 47.5384ZM25.1348 46.0425L25.142 46.6301H24.5617C24.4247 46.6301 24.3057 46.6457 24.2048 46.6769C24.1039 46.7082 24.021 46.7526 23.9561 46.8103C23.8912 46.8656 23.8431 46.9304 23.8119 47.0049C23.783 47.0794 23.7686 47.1611 23.7686 47.2501C23.7686 47.339 23.7891 47.4195 23.8299 47.4916C23.8708 47.5613 23.9296 47.6165 24.0065 47.6574C24.0834 47.6958 24.1735 47.7151 24.2769 47.7151C24.4331 47.7151 24.5689 47.6838 24.6842 47.6213C24.7996 47.5589 24.8885 47.482 24.951 47.3906C25.0158 47.2993 25.0495 47.2128 25.0519 47.1311L25.3258 47.5709C25.2874 47.6694 25.2345 47.7715 25.1672 47.8773C25.1023 47.983 25.0194 48.0827 24.9185 48.1765C24.8176 48.2678 24.6962 48.3435 24.5544 48.4036C24.4127 48.4612 24.2444 48.4901 24.0498 48.4901C23.8023 48.4901 23.5776 48.4408 23.3757 48.3423C23.1763 48.2413 23.0177 48.1032 22.8999 47.9277C22.7846 47.7499 22.7269 47.548 22.7269 47.3222C22.7269 47.1179 22.7653 46.9365 22.8422 46.7778C22.9191 46.6192 23.0321 46.4859 23.1811 46.3777C23.3325 46.2672 23.5211 46.1843 23.747 46.129C23.9729 46.0713 24.2348 46.0425 24.5328 46.0425H25.1348ZM28.4547 47.679C28.582 47.679 28.695 47.655 28.7935 47.6069C28.892 47.5565 28.9689 47.4868 29.0242 47.3978C29.0819 47.3065 29.1119 47.1996 29.1143 47.077H30.0912C30.0888 47.351 30.0155 47.5949 29.8713 47.8088C29.7271 48.0203 29.5337 48.1873 29.291 48.3098C29.0483 48.43 28.7767 48.4901 28.4763 48.4901C28.1735 48.4901 27.9092 48.4396 27.6833 48.3387C27.4598 48.2377 27.2736 48.0984 27.1246 47.9205C26.9756 47.7403 26.8638 47.5312 26.7893 47.2933C26.7148 47.053 26.6776 46.7959 26.6776 46.5219V46.4174C26.6776 46.141 26.7148 45.8839 26.7893 45.646C26.8638 45.4057 26.9756 45.1966 27.1246 45.0188C27.2736 44.8385 27.4598 44.698 27.6833 44.597C27.9068 44.4961 28.1687 44.4456 28.4691 44.4456C28.7887 44.4456 29.0687 44.5069 29.309 44.6295C29.5517 44.752 29.7415 44.9275 29.8785 45.1558C30.0179 45.3816 30.0888 45.6496 30.0912 45.9596H29.1143C29.1119 45.8298 29.0843 45.7121 29.0314 45.6063C28.981 45.5006 28.9065 45.4165 28.8079 45.354C28.7118 45.2891 28.5929 45.2567 28.4511 45.2567C28.2997 45.2567 28.1759 45.2891 28.0798 45.354C27.9837 45.4165 27.9092 45.503 27.8563 45.6135C27.8034 45.7217 27.7662 45.8454 27.7446 45.9848C27.7253 46.1218 27.7157 46.266 27.7157 46.4174V46.5219C27.7157 46.6733 27.7253 46.8187 27.7446 46.9581C27.7638 47.0975 27.7998 47.2212 27.8527 47.3294C27.908 47.4375 27.9837 47.5228 28.0798 47.5853C28.1759 47.6478 28.3009 47.679 28.4547 47.679ZM31.7061 42.8812V48.418H30.6679V42.8812H31.7061ZM31.5583 46.3309H31.2735C31.2759 46.0593 31.312 45.8094 31.3817 45.5811C31.4514 45.3504 31.5511 45.1509 31.6809 44.9827C31.8106 44.8121 31.9656 44.6799 32.1459 44.5862C32.3285 44.4925 32.5304 44.4456 32.7514 44.4456C32.9437 44.4456 33.1179 44.4733 33.2741 44.5285C33.4327 44.5814 33.5685 44.6679 33.6814 44.7881C33.7968 44.9058 33.8857 45.0608 33.9482 45.2531C34.0107 45.4453 34.0419 45.6784 34.0419 45.9524V48.418H32.9966V45.9452C32.9966 45.7721 32.9713 45.6364 32.9209 45.5378C32.8728 45.4369 32.8019 45.366 32.7082 45.3252C32.6169 45.2819 32.5039 45.2603 32.3693 45.2603C32.2204 45.2603 32.093 45.2879 31.9873 45.3432C31.8839 45.3985 31.801 45.4754 31.7385 45.5739C31.676 45.67 31.6304 45.783 31.6016 45.9127C31.5727 46.0425 31.5583 46.1819 31.5583 46.3309ZM35.9271 44.5177V48.418H34.8854V44.5177H35.9271ZM34.8205 43.5012C34.8205 43.3498 34.8734 43.2249 34.9791 43.1263C35.0849 43.0278 35.2266 42.9785 35.4045 42.9785C35.5799 42.9785 35.7205 43.0278 35.8262 43.1263C35.9344 43.2249 35.9884 43.3498 35.9884 43.5012C35.9884 43.6526 35.9344 43.7776 35.8262 43.8761C35.7205 43.9746 35.5799 44.0239 35.4045 44.0239C35.2266 44.0239 35.0849 43.9746 34.9791 43.8761C34.8734 43.7776 34.8205 43.6526 34.8205 43.5012ZM37.8016 45.3504V48.418H36.7634V44.5177H37.7367L37.8016 45.3504ZM37.6502 46.3309H37.369C37.369 46.0425 37.4063 45.783 37.4808 45.5523C37.5552 45.3192 37.6598 45.1209 37.7944 44.9575C37.9289 44.7917 38.0887 44.6655 38.2738 44.579C38.4612 44.4901 38.6703 44.4456 38.901 44.4456C39.0836 44.4456 39.2506 44.4721 39.402 44.5249C39.5534 44.5778 39.6832 44.6619 39.7913 44.7773C39.9019 44.8926 39.986 45.0452 40.0437 45.2351C40.1037 45.4249 40.1338 45.6568 40.1338 45.9308V48.418H39.0884V45.9271C39.0884 45.7541 39.0644 45.6196 39.0163 45.5234C38.9683 45.4273 38.8974 45.36 38.8037 45.3216C38.7123 45.2807 38.5994 45.2603 38.4648 45.2603C38.3254 45.2603 38.2041 45.2879 38.1008 45.3432C37.9998 45.3985 37.9157 45.4754 37.8484 45.5739C37.7835 45.67 37.7343 45.783 37.7006 45.9127C37.667 46.0425 37.6502 46.1819 37.6502 46.3309ZM42.7183 48.4901C42.4155 48.4901 42.144 48.442 41.9037 48.3459C41.6634 48.2473 41.4591 48.1116 41.2909 47.9385C41.1251 47.7655 40.9977 47.5649 40.9088 47.3366C40.8199 47.1059 40.7754 46.8608 40.7754 46.6012V46.457C40.7754 46.1615 40.8175 45.8911 40.9016 45.646C40.9857 45.4009 41.1058 45.1882 41.262 45.008C41.4206 44.8277 41.6129 44.6895 41.8388 44.5934C42.0647 44.4949 42.3194 44.4456 42.603 44.4456C42.8793 44.4456 43.1244 44.4913 43.3383 44.5826C43.5522 44.6739 43.7312 44.8037 43.8754 44.9719C44.022 45.1401 44.1326 45.342 44.207 45.5775C44.2815 45.8106 44.3188 46.0701 44.3188 46.3561V46.7887H41.2188V46.0966H43.2987V46.0173C43.2987 45.8731 43.2722 45.7445 43.2194 45.6316C43.1689 45.5162 43.092 45.4249 42.9887 45.3576C42.8853 45.2903 42.7532 45.2567 42.5922 45.2567C42.4552 45.2567 42.3374 45.2867 42.2389 45.3468C42.1404 45.4069 42.0599 45.491 41.9974 45.5991C41.9373 45.7073 41.8917 45.8346 41.8604 45.9812C41.8316 46.1254 41.8172 46.284 41.8172 46.457V46.6012C41.8172 46.7574 41.8388 46.9016 41.882 47.0338C41.9277 47.166 41.9914 47.2801 42.0731 47.3762C42.1572 47.4723 42.2581 47.5468 42.3759 47.5997C42.496 47.6526 42.6318 47.679 42.7832 47.679C42.9707 47.679 43.1449 47.643 43.3059 47.5709C43.4693 47.4964 43.6099 47.3846 43.7276 47.2356L44.2323 47.7835C44.1506 47.9013 44.0388 48.0142 43.897 48.1224C43.7577 48.2305 43.5895 48.3194 43.3924 48.3891C43.1953 48.4564 42.9707 48.4901 42.7183 48.4901ZM50.1872 47.5745V48.418H47.545V47.5745H50.1872ZM47.8946 43.1696V48.418H46.8132V43.1696H47.8946ZM52.5374 48.4901C52.2346 48.4901 51.9631 48.442 51.7228 48.3459C51.4825 48.2473 51.2782 48.1116 51.11 47.9385C50.9442 47.7655 50.8168 47.5649 50.7279 47.3366C50.639 47.1059 50.5945 46.8608 50.5945 46.6012V46.457C50.5945 46.1615 50.6366 45.8911 50.7207 45.646C50.8048 45.4009 50.9249 45.1882 51.0811 45.008C51.2397 44.8277 51.432 44.6895 51.6579 44.5934C51.8838 44.4949 52.1385 44.4456 52.4221 44.4456C52.6984 44.4456 52.9435 44.4913 53.1574 44.5826C53.3713 44.6739 53.5503 44.8037 53.6945 44.9719C53.8411 45.1401 53.9516 45.342 54.0261 45.5775C54.1006 45.8106 54.1379 46.0701 54.1379 46.3561V46.7887H51.0379V46.0966H53.1178V46.0173C53.1178 45.8731 53.0913 45.7445 53.0385 45.6316C52.988 45.5162 52.9111 45.4249 52.8078 45.3576C52.7044 45.2903 52.5723 45.2567 52.4113 45.2567C52.2743 45.2567 52.1565 45.2867 52.058 45.3468C51.9595 45.4069 51.879 45.491 51.8165 45.5991C51.7564 45.7073 51.7108 45.8346 51.6795 45.9812C51.6507 46.1254 51.6363 46.284 51.6363 46.457V46.6012C51.6363 46.7574 51.6579 46.9016 51.7011 47.0338C51.7468 47.166 51.8105 47.2801 51.8922 47.3762C51.9763 47.4723 52.0772 47.5468 52.195 47.5997C52.3151 47.6526 52.4509 47.679 52.6023 47.679C52.7897 47.679 52.964 47.643 53.125 47.5709C53.2884 47.4964 53.429 47.3846 53.5467 47.2356L54.0514 47.7835C53.9697 47.9013 53.8579 48.0142 53.7161 48.1224C53.5768 48.2305 53.4085 48.3194 53.2115 48.3891C53.0144 48.4564 52.7897 48.4901 52.5374 48.4901ZM56.8342 47.5384V45.801C56.8342 45.676 56.8137 45.5691 56.7729 45.4802C56.732 45.3889 56.6684 45.318 56.5818 45.2675C56.4977 45.217 56.3884 45.1918 56.2538 45.1918C56.1385 45.1918 56.0387 45.2122 55.9546 45.2531C55.8705 45.2915 55.8056 45.348 55.76 45.4225C55.7143 45.4946 55.6915 45.5799 55.6915 45.6784H54.6533C54.6533 45.5126 54.6918 45.3552 54.7687 45.2062C54.8456 45.0572 54.9573 44.9263 55.1039 44.8133C55.2505 44.698 55.4247 44.6078 55.6266 44.543C55.8309 44.4781 56.0592 44.4456 56.3115 44.4456C56.6143 44.4456 56.8834 44.4961 57.1189 44.597C57.3544 44.698 57.5395 44.8494 57.6741 45.0512C57.811 45.2531 57.8795 45.5054 57.8795 45.8082V47.4772C57.8795 47.691 57.8927 47.8665 57.9192 48.0034C57.9456 48.138 57.9841 48.2558 58.0345 48.3567V48.418H56.9856C56.9351 48.3122 56.8966 48.1801 56.8702 48.0215C56.8462 47.8604 56.8342 47.6994 56.8342 47.5384ZM56.9711 46.0425L56.9784 46.6301H56.398C56.261 46.6301 56.1421 46.6457 56.0411 46.6769C55.9402 46.7082 55.8573 46.7526 55.7924 46.8103C55.7275 46.8656 55.6795 46.9304 55.6482 47.0049C55.6194 47.0794 55.605 47.1611 55.605 47.2501C55.605 47.339 55.6254 47.4195 55.6663 47.4916C55.7071 47.5613 55.766 47.6165 55.8429 47.6574C55.9198 47.6958 56.0099 47.7151 56.1132 47.7151C56.2694 47.7151 56.4052 47.6838 56.5206 47.6213C56.6359 47.5589 56.7248 47.482 56.7873 47.3906C56.8522 47.2993 56.8858 47.2128 56.8882 47.1311L57.1622 47.5709C57.1237 47.6694 57.0709 47.7715 57.0036 47.8773C56.9387 47.983 56.8558 48.0827 56.7549 48.1765C56.6539 48.2678 56.5326 48.3435 56.3908 48.4036C56.249 48.4612 56.0808 48.4901 55.8861 48.4901C55.6386 48.4901 55.4139 48.4408 55.2121 48.3423C55.0126 48.2413 54.854 48.1032 54.7363 47.9277C54.6209 47.7499 54.5632 47.548 54.5632 47.3222C54.5632 47.1179 54.6017 46.9365 54.6786 46.7778C54.7555 46.6192 54.8684 46.4859 55.0174 46.3777C55.1688 46.2672 55.3575 46.1843 55.5834 46.129C55.8092 46.0713 56.0712 46.0425 56.3692 46.0425H56.9711ZM59.7179 45.3684V48.418H58.6798V44.5177H59.6566L59.7179 45.3684ZM60.893 44.4925L60.875 45.4549C60.8245 45.4477 60.7633 45.4417 60.6912 45.4369C60.6215 45.4297 60.5578 45.4261 60.5001 45.4261C60.3535 45.4261 60.2262 45.4453 60.118 45.4838C60.0123 45.5198 59.9234 45.5739 59.8513 45.646C59.7816 45.7181 59.7287 45.8058 59.6927 45.9091C59.659 46.0125 59.6398 46.1302 59.635 46.2624L59.4259 46.1975C59.4259 45.9452 59.4512 45.7133 59.5016 45.5018C59.5521 45.2879 59.6254 45.1017 59.7215 44.9431C59.82 44.7845 59.9402 44.6619 60.082 44.5754C60.2238 44.4889 60.386 44.4456 60.5686 44.4456C60.6263 44.4456 60.6852 44.4504 60.7452 44.4601C60.8053 44.4673 60.8546 44.4781 60.893 44.4925ZM62.3998 45.3504V48.418H61.3616V44.5177H62.3349L62.3998 45.3504ZM62.2484 46.3309H61.9672C61.9672 46.0425 62.0045 45.783 62.079 45.5523C62.1534 45.3192 62.258 45.1209 62.3926 44.9575C62.5271 44.7917 62.6869 44.6655 62.872 44.579C63.0594 44.4901 63.2685 44.4456 63.4992 44.4456C63.6818 44.4456 63.8488 44.4721 64.0002 44.5249C64.1516 44.5778 64.2814 44.6619 64.3895 44.7773C64.5001 44.8926 64.5842 45.0452 64.6419 45.2351C64.7019 45.4249 64.732 45.6568 64.732 45.9308V48.418H63.6866V45.9271C63.6866 45.7541 63.6626 45.6196 63.6145 45.5234C63.5665 45.4273 63.4956 45.36 63.4019 45.3216C63.3105 45.2807 63.1976 45.2603 63.063 45.2603C62.9236 45.2603 62.8023 45.2879 62.699 45.3432C62.598 45.3985 62.5139 45.4754 62.4466 45.5739C62.3817 45.67 62.3325 45.783 62.2988 45.9127C62.2652 46.0425 62.2484 46.1819 62.2484 46.3309ZM66.6172 44.5177V48.418H65.5755V44.5177H66.6172ZM65.5106 43.5012C65.5106 43.3498 65.5635 43.2249 65.6692 43.1263C65.7749 43.0278 65.9167 42.9785 66.0945 42.9785C66.27 42.9785 66.4106 43.0278 66.5163 43.1263C66.6244 43.2249 66.6785 43.3498 66.6785 43.5012C66.6785 43.6526 66.6244 43.7776 66.5163 43.8761C66.4106 43.9746 66.27 44.0239 66.0945 44.0239C65.9167 44.0239 65.7749 43.9746 65.6692 43.8761C65.5635 43.7776 65.5106 43.6526 65.5106 43.5012ZM68.4916 45.3504V48.418H67.4535V44.5177H68.4268L68.4916 45.3504ZM68.3402 46.3309H68.0591C68.0591 46.0425 68.0963 45.783 68.1708 45.5523C68.2453 45.3192 68.3499 45.1209 68.4844 44.9575C68.619 44.7917 68.7788 44.6655 68.9639 44.579C69.1513 44.4901 69.3604 44.4456 69.5911 44.4456C69.7737 44.4456 69.9407 44.4721 70.0921 44.5249C70.2435 44.5778 70.3733 44.6619 70.4814 44.7773C70.592 44.8926 70.6761 45.0452 70.7337 45.2351C70.7938 45.4249 70.8239 45.6568 70.8239 45.9308V48.418H69.7785V45.9271C69.7785 45.7541 69.7545 45.6196 69.7064 45.5234C69.6583 45.4273 69.5875 45.36 69.4937 45.3216C69.4024 45.2807 69.2895 45.2603 69.1549 45.2603C69.0155 45.2603 68.8942 45.2879 68.7908 45.3432C68.6899 45.3985 68.6058 45.4754 68.5385 45.5739C68.4736 45.67 68.4244 45.783 68.3907 45.9127C68.3571 46.0425 68.3402 46.1819 68.3402 46.3309ZM74.0825 44.5177H75.0233V48.2882C75.0233 48.6439 74.944 48.9455 74.7854 49.193C74.6292 49.4429 74.4105 49.6315 74.1293 49.7589C73.8482 49.8887 73.5213 49.9536 73.1489 49.9536C72.9855 49.9536 72.8124 49.9319 72.6298 49.8887C72.4496 49.8454 72.2765 49.7781 72.1107 49.6868C71.9473 49.5955 71.8103 49.4801 71.6998 49.3408L72.1576 48.728C72.2777 48.8673 72.4171 48.9755 72.5757 49.0524C72.7343 49.1317 72.9098 49.1713 73.102 49.1713C73.2894 49.1713 73.4481 49.1365 73.5778 49.0668C73.7076 48.9995 73.8073 48.8998 73.877 48.7676C73.9467 48.6379 73.9815 48.4804 73.9815 48.2954V45.4189L74.0825 44.5177ZM71.4583 46.5147V46.439C71.4583 46.141 71.4943 45.8707 71.5664 45.628C71.6409 45.3828 71.7454 45.1726 71.88 44.9971C72.017 44.8217 72.1828 44.6859 72.3775 44.5898C72.5721 44.4937 72.792 44.4456 73.0371 44.4456C73.2967 44.4456 73.5141 44.4937 73.6896 44.5898C73.865 44.6859 74.0092 44.8229 74.1221 45.0008C74.2351 45.1762 74.3228 45.384 74.3853 45.6244C74.4501 45.8623 74.5006 46.123 74.5367 46.4066V46.5724C74.5006 46.8439 74.4465 47.0963 74.3744 47.3294C74.3024 47.5625 74.2074 47.7667 74.0897 47.9422C73.9719 48.1152 73.8253 48.2498 73.6499 48.3459C73.4769 48.442 73.2702 48.4901 73.0299 48.4901C72.7896 48.4901 72.5721 48.4408 72.3775 48.3423C72.1852 48.2437 72.0206 48.1056 71.8836 47.9277C71.7467 47.7499 71.6409 47.5408 71.5664 47.3005C71.4943 47.0602 71.4583 46.7983 71.4583 46.5147ZM72.4964 46.439V46.5147C72.4964 46.6757 72.512 46.8259 72.5433 46.9653C72.5745 47.1047 72.6226 47.2284 72.6875 47.3366C72.7548 47.4423 72.8377 47.5252 72.9362 47.5853C73.0371 47.643 73.1561 47.6718 73.2931 47.6718C73.4829 47.6718 73.6379 47.6322 73.7581 47.5529C73.8782 47.4711 73.9683 47.3594 74.0284 47.2176C74.0885 47.0758 74.1233 46.9124 74.1329 46.7274V46.2552C74.1281 46.1038 74.1077 45.968 74.0717 45.8478C74.0356 45.7253 73.9851 45.6208 73.9203 45.5342C73.8554 45.4477 73.7713 45.3804 73.6679 45.3324C73.5646 45.2843 73.442 45.2603 73.3003 45.2603C73.1633 45.2603 73.0443 45.2915 72.9434 45.354C72.8449 45.4141 72.762 45.497 72.6947 45.6027C72.6298 45.7085 72.5805 45.8334 72.5469 45.9776C72.5132 46.1194 72.4964 46.2732 72.4964 46.439ZM25.9494 57.418H24.8068L24.814 56.5745H25.9494C26.233 56.5745 26.4721 56.5108 26.6668 56.3834C26.8614 56.2537 27.008 56.065 27.1065 55.8175C27.2075 55.57 27.2579 55.2708 27.2579 54.9199V54.664C27.2579 54.3949 27.2291 54.1582 27.1714 53.9539C27.1162 53.7496 27.0332 53.5778 26.9227 53.4384C26.8122 53.299 26.6764 53.1945 26.5154 53.1248C26.3544 53.0527 26.1693 53.0167 25.9603 53.0167H24.7851V52.1696H25.9603C26.3111 52.1696 26.6319 52.2297 26.9227 52.3498C27.2159 52.4676 27.4694 52.637 27.6833 52.8581C27.8972 53.0792 28.0618 53.3435 28.1771 53.6511C28.2949 53.9563 28.3538 54.2963 28.3538 54.6712V54.9199C28.3538 55.2924 28.2949 55.6325 28.1771 55.9401C28.0618 56.2477 27.8972 56.512 27.6833 56.7331C27.4718 56.9518 27.2183 57.1212 26.9227 57.2413C26.6295 57.3591 26.3051 57.418 25.9494 57.418ZM25.4196 52.1696V57.418H24.3382V52.1696H25.4196ZM30.8698 57.4901C30.567 57.4901 30.2955 57.442 30.0552 57.3459C29.8148 57.2473 29.6106 57.1116 29.4424 56.9385C29.2765 56.7655 29.1492 56.5649 29.0603 56.3366C28.9713 56.1059 28.9269 55.8608 28.9269 55.6012V55.457C28.9269 55.1615 28.9689 54.8911 29.0531 54.646C29.1372 54.4009 29.2573 54.1882 29.4135 54.008C29.5721 53.8277 29.7644 53.6895 29.9903 53.5934C30.2162 53.4949 30.4709 53.4456 30.7545 53.4456C31.0308 53.4456 31.2759 53.4913 31.4898 53.5826C31.7037 53.6739 31.8827 53.8037 32.0269 53.9719C32.1735 54.1401 32.284 54.342 32.3585 54.5775C32.433 54.8106 32.4703 55.0701 32.4703 55.3561V55.7887H29.3703V55.0966H31.4502V55.0173C31.4502 54.8731 31.4237 54.7445 31.3709 54.6316C31.3204 54.5162 31.2435 54.4249 31.1402 54.3576C31.0368 54.2903 30.9046 54.2567 30.7436 54.2567C30.6067 54.2567 30.4889 54.2867 30.3904 54.3468C30.2919 54.4069 30.2114 54.491 30.1489 54.5991C30.0888 54.7073 30.0431 54.8346 30.0119 54.9812C29.9831 55.1254 29.9686 55.284 29.9686 55.457V55.6012C29.9686 55.7574 29.9903 55.9016 30.0335 56.0338C30.0792 56.166 30.1429 56.2801 30.2246 56.3762C30.3087 56.4723 30.4096 56.5468 30.5274 56.5997C30.6475 56.6526 30.7833 56.679 30.9347 56.679C31.1221 56.679 31.2964 56.643 31.4574 56.5709C31.6208 56.4964 31.7614 56.3846 31.8791 56.2356L32.3838 56.7835C32.3021 56.9013 32.1903 57.0142 32.0485 57.1224C31.9091 57.2305 31.7409 57.3194 31.5439 57.3891C31.3468 57.4564 31.1221 57.4901 30.8698 57.4901ZM34.3375 56.661L35.2026 53.5177H36.2876L34.9719 57.418H34.3159L34.3375 56.661ZM33.7427 53.5177L34.6114 56.6646L34.6295 57.418H33.9698L32.6541 53.5177H33.7427ZM38.4973 57.4901C38.1945 57.4901 37.9229 57.442 37.6826 57.3459C37.4423 57.2473 37.238 57.1116 37.0698 56.9385C36.904 56.7655 36.7766 56.5649 36.6877 56.3366C36.5988 56.1059 36.5544 55.8608 36.5544 55.6012V55.457C36.5544 55.1615 36.5964 54.8911 36.6805 54.646C36.7646 54.4009 36.8848 54.1882 37.041 54.008C37.1996 53.8277 37.3918 53.6895 37.6177 53.5934C37.8436 53.4949 38.0984 53.4456 38.3819 53.4456C38.6583 53.4456 38.9034 53.4913 39.1173 53.5826C39.3311 53.6739 39.5102 53.8037 39.6544 53.9719C39.801 54.1401 39.9115 54.342 39.986 54.5775C40.0605 54.8106 40.0977 55.0701 40.0977 55.3561V55.7887H36.9977V55.0966H39.0776V55.0173C39.0776 54.8731 39.0512 54.7445 38.9983 54.6316C38.9478 54.5162 38.8709 54.4249 38.7676 54.3576C38.6643 54.2903 38.5321 54.2567 38.3711 54.2567C38.2341 54.2567 38.1164 54.2867 38.0178 54.3468C37.9193 54.4069 37.8388 54.491 37.7763 54.5991C37.7163 54.7073 37.6706 54.8346 37.6394 54.9812C37.6105 55.1254 37.5961 55.284 37.5961 55.457V55.6012C37.5961 55.7574 37.6177 55.9016 37.661 56.0338C37.7066 56.166 37.7703 56.2801 37.852 56.3762C37.9361 56.4723 38.0371 56.5468 38.1548 56.5997C38.275 56.6526 38.4108 56.679 38.5622 56.679C38.7496 56.679 38.9238 56.643 39.0848 56.5709C39.2482 56.4964 39.3888 56.3846 39.5066 56.2356L40.0112 56.7835C39.9295 56.9013 39.8178 57.0142 39.676 57.1224C39.5366 57.2305 39.3684 57.3194 39.1713 57.3891C38.9743 57.4564 38.7496 57.4901 38.4973 57.4901ZM41.7847 51.8812V57.418H40.743V51.8812H41.7847ZM42.4768 55.5075V55.4318C42.4768 55.1458 42.5177 54.8827 42.5994 54.6424C42.6811 54.3997 42.8 54.1894 42.9562 54.0116C43.1124 53.8337 43.3047 53.6956 43.533 53.597C43.7613 53.4961 44.0232 53.4456 44.3188 53.4456C44.6144 53.4456 44.8775 53.4961 45.1082 53.597C45.3389 53.6956 45.5324 53.8337 45.6886 54.0116C45.8472 54.1894 45.9673 54.3997 46.049 54.6424C46.1307 54.8827 46.1716 55.1458 46.1716 55.4318V55.5075C46.1716 55.7911 46.1307 56.0542 46.049 56.2969C45.9673 56.5372 45.8472 56.7475 45.6886 56.9277C45.5324 57.1056 45.3401 57.2437 45.1118 57.3423C44.8835 57.4408 44.6216 57.4901 44.326 57.4901C44.0304 57.4901 43.7673 57.4408 43.5366 57.3423C43.3083 57.2437 43.1148 57.1056 42.9562 56.9277C42.8 56.7475 42.6811 56.5372 42.5994 56.2969C42.5177 56.0542 42.4768 55.7911 42.4768 55.5075ZM43.515 55.4318V55.5075C43.515 55.6709 43.5294 55.8235 43.5582 55.9653C43.587 56.1071 43.6327 56.232 43.6952 56.3402C43.7601 56.4459 43.8442 56.5288 43.9475 56.5889C44.0508 56.649 44.177 56.679 44.326 56.679C44.4702 56.679 44.5939 56.649 44.6973 56.5889C44.8006 56.5288 44.8835 56.4459 44.946 56.3402C45.0085 56.232 45.0541 56.1071 45.083 55.9653C45.1142 55.8235 45.1298 55.6709 45.1298 55.5075V55.4318C45.1298 55.2732 45.1142 55.1242 45.083 54.9848C45.0541 54.843 45.0073 54.7181 44.9424 54.6099C44.8799 54.4994 44.797 54.4129 44.6937 54.3504C44.5903 54.2879 44.4654 54.2567 44.3188 54.2567C44.1722 54.2567 44.0472 54.2879 43.9439 54.3504C43.843 54.4129 43.7601 54.4994 43.6952 54.6099C43.6327 54.7181 43.587 54.843 43.5582 54.9848C43.5294 55.1242 43.515 55.2732 43.515 55.4318ZM47.8478 54.2675V58.9175H46.8096V53.5177H47.7721L47.8478 54.2675ZM50.3169 55.4246V55.5003C50.3169 55.7839 50.2833 56.047 50.216 56.2897C50.1511 56.5324 50.055 56.7439 49.9276 56.9241C49.8003 57.102 49.6417 57.2413 49.4518 57.3423C49.2644 57.4408 49.0481 57.4901 48.803 57.4901C48.5651 57.4901 48.3584 57.442 48.183 57.3459C48.0076 57.2498 47.8598 57.1152 47.7396 56.9422C47.6219 56.7667 47.5269 56.5637 47.4548 56.333C47.3828 56.1023 47.3275 55.8547 47.289 55.5904V55.3921C47.3275 55.1086 47.3828 54.849 47.4548 54.6135C47.5269 54.3756 47.6219 54.1702 47.7396 53.9971C47.8598 53.8217 48.0064 53.6859 48.1794 53.5898C48.3548 53.4937 48.5603 53.4456 48.7958 53.4456C49.0433 53.4456 49.2608 53.4925 49.4482 53.5862C49.6381 53.6799 49.7967 53.8145 49.924 53.9899C50.0538 54.1654 50.1511 54.3744 50.216 54.6171C50.2833 54.8599 50.3169 55.129 50.3169 55.4246ZM49.2752 55.5003V55.4246C49.2752 55.2588 49.2608 55.1062 49.2319 54.9668C49.2055 54.825 49.1623 54.7013 49.1022 54.5955C49.0445 54.4898 48.9676 54.4081 48.8715 54.3504C48.7778 54.2903 48.6636 54.2603 48.529 54.2603C48.3873 54.2603 48.2659 54.2831 48.165 54.3288C48.0664 54.3744 47.9859 54.4405 47.9235 54.527C47.861 54.6135 47.8141 54.7169 47.7829 54.837C47.7516 54.9572 47.7324 55.093 47.7252 55.2444V55.7454C47.7372 55.9232 47.7709 56.083 47.8261 56.2248C47.8814 56.3642 47.9667 56.4747 48.0821 56.5565C48.1974 56.6382 48.3488 56.679 48.5362 56.679C48.6732 56.679 48.7886 56.649 48.8823 56.5889C48.976 56.5264 49.0517 56.4411 49.1094 56.333C49.1695 56.2248 49.2115 56.0999 49.2355 55.9581C49.262 55.8163 49.2752 55.6637 49.2752 55.5003ZM52.0003 54.3252V57.418H50.9586V53.5177H51.9354L52.0003 54.3252ZM51.8561 55.3309H51.5678C51.5678 55.0593 51.6002 54.8094 51.6651 54.5811C51.7324 54.3504 51.8297 54.1509 51.9571 53.9827C52.0868 53.8121 52.2466 53.6799 52.4365 53.5862C52.6263 53.4925 52.8462 53.4456 53.0961 53.4456C53.2692 53.4456 53.4278 53.4721 53.572 53.5249C53.7161 53.5754 53.8399 53.6559 53.9432 53.7664C54.049 53.8746 54.1307 54.0164 54.1883 54.1918C54.246 54.3648 54.2749 54.5727 54.2749 54.8154V57.418H53.2367V54.9308C53.2367 54.7529 53.2127 54.6159 53.1646 54.5198C53.1166 54.4237 53.0481 54.3564 52.9592 54.318C52.8726 54.2795 52.7681 54.2603 52.6456 54.2603C52.511 54.2603 52.3932 54.2879 52.2923 54.3432C52.1938 54.3985 52.1121 54.4754 52.0472 54.5739C51.9823 54.67 51.9342 54.783 51.903 54.9127C51.8718 55.0425 51.8561 55.1819 51.8561 55.3309ZM54.1775 55.2119L53.8063 55.2588C53.8063 55.004 53.8375 54.7673 53.9 54.5487C53.9649 54.33 54.0598 54.1377 54.1847 53.9719C54.3121 53.8061 54.4695 53.6775 54.657 53.5862C54.8444 53.4925 55.0607 53.4456 55.3058 53.4456C55.4932 53.4456 55.6639 53.4733 55.8177 53.5285C55.9715 53.5814 56.1024 53.6667 56.2106 53.7845C56.3211 53.8998 56.4052 54.0512 56.4629 54.2387C56.523 54.4261 56.553 54.6556 56.553 54.9271V57.418H55.5113V54.9271C55.5113 54.7469 55.4872 54.6099 55.4392 54.5162C55.3935 54.4201 55.3262 54.354 55.2373 54.318C55.1508 54.2795 55.0475 54.2603 54.9273 54.2603C54.8023 54.2603 54.693 54.2855 54.5993 54.336C54.5056 54.384 54.4275 54.4513 54.365 54.5378C54.3025 54.6244 54.2556 54.7253 54.2244 54.8406C54.1932 54.9536 54.1775 55.0773 54.1775 55.2119ZM59.152 57.4901C58.8492 57.4901 58.5776 57.442 58.3373 57.3459C58.097 57.2473 57.8927 57.1116 57.7245 56.9385C57.5587 56.7655 57.4313 56.5649 57.3424 56.3366C57.2535 56.1059 57.2091 55.8608 57.2091 55.6012V55.457C57.2091 55.1615 57.2511 54.8911 57.3352 54.646C57.4193 54.4009 57.5395 54.1882 57.6957 54.008C57.8543 53.8277 58.0465 53.6895 58.2724 53.5934C58.4983 53.4949 58.7531 53.4456 59.0366 53.4456C59.313 53.4456 59.5581 53.4913 59.772 53.5826C59.9858 53.6739 60.1649 53.8037 60.3091 53.9719C60.4557 54.1401 60.5662 54.342 60.6407 54.5775C60.7152 54.8106 60.7524 55.0701 60.7524 55.3561V55.7887H57.6524V55.0966H59.7323V55.0173C59.7323 54.8731 59.7059 54.7445 59.653 54.6316C59.6026 54.5162 59.5257 54.4249 59.4223 54.3576C59.319 54.2903 59.1868 54.2567 59.0258 54.2567C58.8888 54.2567 58.7711 54.2867 58.6725 54.3468C58.574 54.4069 58.4935 54.491 58.431 54.5991C58.371 54.7073 58.3253 54.8346 58.2941 54.9812C58.2652 55.1254 58.2508 55.284 58.2508 55.457V55.6012C58.2508 55.7574 58.2724 55.9016 58.3157 56.0338C58.3613 56.166 58.425 56.2801 58.5067 56.3762C58.5908 56.4723 58.6918 56.5468 58.8095 56.5997C58.9297 56.6526 59.0655 56.679 59.2169 56.679C59.4043 56.679 59.5785 56.643 59.7395 56.5709C59.9029 56.4964 60.0435 56.3846 60.1613 56.2356L60.6659 56.7835C60.5842 56.9013 60.4725 57.0142 60.3307 57.1224C60.1913 57.2305 60.0231 57.3194 59.826 57.3891C59.629 57.4564 59.4043 57.4901 59.152 57.4901ZM62.3601 54.3504V57.418H61.322V53.5177H62.2952L62.3601 54.3504ZM62.2087 55.3309H61.9276C61.9276 55.0425 61.9648 54.783 62.0393 54.5523C62.1138 54.3192 62.2183 54.1209 62.3529 53.9575C62.4875 53.7917 62.6473 53.6655 62.8323 53.579C63.0198 53.4901 63.2288 53.4456 63.4595 53.4456C63.6422 53.4456 63.8092 53.4721 63.9606 53.5249C64.112 53.5778 64.2417 53.6619 64.3499 53.7773C64.4604 53.8926 64.5445 54.0452 64.6022 54.2351C64.6623 54.4249 64.6923 54.6568 64.6923 54.9308V57.418H63.647V54.9271C63.647 54.7541 63.6229 54.6196 63.5749 54.5234C63.5268 54.4273 63.4559 54.36 63.3622 54.3216C63.2709 54.2807 63.1579 54.2603 63.0234 54.2603C62.884 54.2603 62.7626 54.2879 62.6593 54.3432C62.5584 54.3985 62.4743 54.4754 62.407 54.5739C62.3421 54.67 62.2928 54.783 62.2592 54.9127C62.2255 55.0425 62.2087 55.1819 62.2087 55.3309ZM67.3922 53.5177V54.2531H65.1213V53.5177H67.3922ZM65.6836 52.5553H66.7218V56.2428C66.7218 56.3558 66.7362 56.4423 66.765 56.5024C66.7962 56.5625 66.8419 56.6045 66.902 56.6285C66.9621 56.6502 67.0378 56.661 67.1291 56.661C67.194 56.661 67.2516 56.6586 67.3021 56.6538C67.355 56.6466 67.3994 56.6394 67.4355 56.6322L67.4391 57.3963C67.3502 57.4252 67.254 57.448 67.1507 57.4648C67.0474 57.4817 66.9332 57.4901 66.8083 57.4901C66.58 57.4901 66.3805 57.4528 66.2099 57.3783C66.0417 57.3014 65.9119 57.1789 65.8206 57.0106C65.7293 56.8424 65.6836 56.6213 65.6836 56.3474V52.5553Z" fill="#112244"/>
<path d="M35.8536 65.8802V70.0352H35.0004V65.8802H35.8536ZM37.1321 65.8802V66.5508H33.7419V65.8802H37.1321ZM40.9532 67.8606V68.0575C40.9532 68.3734 40.9104 68.6568 40.8248 68.9079C40.7392 69.1591 40.6184 69.3731 40.4623 69.55C40.3063 69.7251 40.1199 69.8592 39.903 69.9524C39.688 70.0456 39.4493 70.0922 39.1867 70.0922C38.9261 70.0922 38.6874 70.0456 38.4705 69.9524C38.2555 69.8592 38.0691 69.7251 37.9112 69.55C37.7532 69.3731 37.6305 69.1591 37.543 68.9079C37.4574 68.6568 37.4146 68.3734 37.4146 68.0575V67.8606C37.4146 67.5429 37.4574 67.2595 37.543 67.0102C37.6286 66.7591 37.7494 66.5451 37.9054 66.3682C38.0633 66.1912 38.2498 66.0562 38.4648 65.9629C38.6816 65.8697 38.9204 65.8231 39.181 65.8231C39.4436 65.8231 39.6823 65.8697 39.8973 65.9629C40.1142 66.0562 40.3006 66.1912 40.4566 66.3682C40.6145 66.5451 40.7363 66.7591 40.8219 67.0102C40.9094 67.2595 40.9532 67.5429 40.9532 67.8606ZM40.0885 68.0575V67.8549C40.0885 67.6343 40.0685 67.4402 40.0286 67.2728C39.9886 67.1054 39.9297 66.9646 39.8517 66.8504C39.7737 66.7363 39.6785 66.6507 39.5663 66.5936C39.454 66.5346 39.3256 66.5051 39.181 66.5051C39.0365 66.5051 38.908 66.5346 38.7958 66.5936C38.6855 66.6507 38.5913 66.7363 38.5133 66.8504C38.4372 66.9646 38.3792 67.1054 38.3392 67.2728C38.2993 67.4402 38.2793 67.6343 38.2793 67.8549V68.0575C38.2793 68.2763 38.2993 68.4704 38.3392 68.6397C38.3792 68.8071 38.4381 68.9489 38.5161 69.0649C38.5941 69.179 38.6893 69.2656 38.8015 69.3246C38.9137 69.3836 39.0422 69.4131 39.1867 69.4131C39.3313 69.4131 39.4598 69.3836 39.572 69.3246C39.6842 69.2656 39.7784 69.179 39.8545 69.0649C39.9306 68.9489 39.9886 68.8071 40.0286 68.6397C40.0685 68.4704 40.0885 68.2763 40.0885 68.0575ZM43.1876 68.5541H42.1289V67.8863H43.1876C43.3512 67.8863 43.4844 67.8597 43.5871 67.8064C43.6899 67.7513 43.765 67.6752 43.8126 67.5781C43.8601 67.4811 43.8839 67.3717 43.8839 67.25C43.8839 67.1263 43.8601 67.0112 43.8126 66.9047C43.765 66.7981 43.6899 66.7125 43.5871 66.6478C43.4844 66.5831 43.3512 66.5508 43.1876 66.5508H42.4257V70.0352H41.5696V65.8802H43.1876C43.5129 65.8802 43.7917 65.9392 44.0238 66.0571C44.2578 66.1732 44.4366 66.3339 44.5602 66.5394C44.6839 66.7449 44.7457 66.9798 44.7457 67.2442C44.7457 67.5125 44.6839 67.7446 44.5602 67.9405C44.4366 68.1365 44.2578 68.2877 44.0238 68.3943C43.7917 68.5008 43.5129 68.5541 43.1876 68.5541ZM48.7095 65.8716V70.0352H47.8876V66.819L46.9003 67.133V66.4852L48.621 65.8716H48.7095ZM52.8588 67.5924V68.3115C52.8588 68.6235 52.8255 68.8927 52.7589 69.1191C52.6923 69.3436 52.5962 69.5282 52.4707 69.6727C52.347 69.8154 52.1996 69.921 52.0284 69.9895C51.8571 70.058 51.6669 70.0922 51.4576 70.0922C51.2902 70.0922 51.1342 70.0713 50.9896 70.0294C50.845 69.9857 50.7147 69.9182 50.5987 69.8268C50.4845 69.7355 50.3856 69.6204 50.3019 69.4815C50.2201 69.3408 50.1573 69.1733 50.1135 68.9793C50.0698 68.7852 50.0479 68.5627 50.0479 68.3115V67.5924C50.0479 67.2804 50.0812 67.0131 50.1478 66.7905C50.2163 66.566 50.3123 66.3824 50.436 66.2397C50.5616 66.0971 50.7099 65.9924 50.8812 65.9258C51.0524 65.8574 51.2426 65.8231 51.4519 65.8231C51.6193 65.8231 51.7744 65.845 51.9171 65.8887C52.0616 65.9306 52.192 65.9962 52.308 66.0857C52.4241 66.1751 52.523 66.2902 52.6048 66.4309C52.6866 66.5698 52.7494 66.7363 52.7931 66.9303C52.8369 67.1225 52.8588 67.3432 52.8588 67.5924ZM52.0341 68.42V67.4811C52.0341 67.3308 52.0255 67.1995 52.0084 67.0873C51.9932 66.9751 51.9694 66.8799 51.937 66.8019C51.9047 66.722 51.8647 66.6573 51.8172 66.6079C51.7696 66.5584 51.7154 66.5223 51.6545 66.4994C51.5936 66.4766 51.5261 66.4652 51.4519 66.4652C51.3587 66.4652 51.2759 66.4833 51.2036 66.5194C51.1332 66.5556 51.0733 66.6136 51.0239 66.6935C50.9744 66.7715 50.9363 66.8761 50.9097 67.0074C50.885 67.1368 50.8726 67.2947 50.8726 67.4811V68.42C50.8726 68.5703 50.8802 68.7025 50.8954 68.8166C50.9126 68.9308 50.9373 69.0288 50.9696 69.1106C51.0039 69.1905 51.0438 69.2561 51.0895 69.3075C51.137 69.3569 51.1913 69.3931 51.2521 69.4159C51.3149 69.4387 51.3834 69.4501 51.4576 69.4501C51.5489 69.4501 51.6298 69.4321 51.7002 69.3959C51.7725 69.3579 51.8333 69.2989 51.8828 69.219C51.9342 69.1372 51.9722 69.0307 51.997 68.8994C52.0217 68.7681 52.0341 68.6083 52.0341 68.42ZM53.4067 66.899V66.6792C53.4067 66.5213 53.4409 66.3777 53.5094 66.2483C53.5779 66.1189 53.6787 66.0153 53.8119 65.9373C53.9451 65.8593 54.1087 65.8203 54.3027 65.8203C54.5025 65.8203 54.669 65.8593 54.8021 65.9373C54.9372 66.0153 55.038 66.1189 55.1046 66.2483C55.1731 66.3777 55.2074 66.5213 55.2074 66.6792V66.899C55.2074 67.0531 55.1731 67.1948 55.1046 67.3242C55.038 67.4535 54.9382 67.5572 54.805 67.6352C54.6718 67.7132 54.5063 67.7522 54.3084 67.7522C54.1125 67.7522 53.947 67.7132 53.8119 67.6352C53.6787 67.5572 53.5779 67.4535 53.5094 67.3242C53.4409 67.1948 53.4067 67.0531 53.4067 66.899ZM53.9517 66.6792V66.899C53.9517 66.9655 53.9641 67.0293 53.9888 67.0901C54.0155 67.1491 54.0554 67.1976 54.1087 67.2357C54.1639 67.2718 54.2304 67.2899 54.3084 67.2899C54.3903 67.2899 54.4568 67.2718 54.5082 67.2357C54.5596 67.1976 54.5976 67.1491 54.6224 67.0901C54.6471 67.0293 54.6595 66.9655 54.6595 66.899V66.6792C54.6595 66.6088 54.6461 66.5441 54.6195 66.4852C54.5948 66.4243 54.5558 66.3758 54.5025 66.3396C54.4511 66.3016 54.3845 66.2826 54.3027 66.2826C54.2266 66.2826 54.162 66.3016 54.1087 66.3396C54.0554 66.3758 54.0155 66.4243 53.9888 66.4852C53.9641 66.5441 53.9517 66.6088 53.9517 66.6792ZM55.3929 69.2361V69.0164C55.3929 68.8604 55.4271 68.7177 55.4956 68.5883C55.566 68.459 55.6678 68.3553 55.8009 68.2773C55.936 68.1993 56.1015 68.1603 56.2975 68.1603C56.4953 68.1603 56.6608 68.1993 56.794 68.2773C56.9272 68.3553 57.028 68.459 57.0965 68.5883C57.165 68.7177 57.1992 68.8604 57.1992 69.0164V69.2361C57.1992 69.3921 57.165 69.5348 57.0965 69.6642C57.0299 69.7935 56.93 69.8972 56.7969 69.9752C56.6637 70.0532 56.4991 70.0922 56.3032 70.0922C56.1053 70.0922 55.9389 70.0532 55.8038 69.9752C55.6687 69.8972 55.566 69.7935 55.4956 69.6642C55.4271 69.5348 55.3929 69.3921 55.3929 69.2361ZM55.9408 69.0164V69.2361C55.9408 69.3046 55.956 69.3693 55.9864 69.4302C56.0169 69.4911 56.0587 69.5396 56.112 69.5757C56.1672 69.6119 56.2309 69.6299 56.3032 69.6299C56.3945 69.6299 56.4658 69.6119 56.5172 69.5757C56.5686 69.5396 56.6038 69.4911 56.6228 69.4302C56.6437 69.3693 56.6542 69.3046 56.6542 69.2361V69.0164C56.6542 68.9479 56.6409 68.8842 56.6142 68.8252C56.5876 68.7643 56.5476 68.7158 56.4944 68.6797C56.443 68.6416 56.3774 68.6226 56.2975 68.6226C56.2176 68.6226 56.151 68.6416 56.0977 68.6797C56.0463 68.7158 56.0073 68.7643 55.9807 68.8252C55.9541 68.8842 55.9408 68.9479 55.9408 69.0164ZM56.5001 66.4738L54.4711 69.7213L54.0716 69.5101L56.1006 66.2626L56.5001 66.4738Z" fill="white"/>
<path d="M40.9019 77.1331V78.0117H37.0125V77.2619L38.8517 75.2899C39.0366 75.0842 39.1824 74.9033 39.2891 74.7471C39.3959 74.5883 39.4727 74.4464 39.5195 74.3214C39.569 74.1939 39.5937 74.0728 39.5937 73.9583C39.5937 73.7865 39.5651 73.6394 39.5078 73.517C39.4505 73.392 39.3659 73.2957 39.254 73.228C39.1446 73.1603 39.0093 73.1265 38.8478 73.1265C38.676 73.1265 38.5276 73.1682 38.4027 73.2515C38.2803 73.3348 38.1866 73.4506 38.1215 73.599C38.059 73.7474 38.0278 73.9153 38.0278 74.1028H36.8992C36.8992 73.7643 36.9799 73.4545 37.1413 73.1734C37.3027 72.8896 37.5305 72.6644 37.8247 72.4978C38.1189 72.3286 38.4678 72.244 38.8713 72.244C39.2696 72.244 39.6054 72.309 39.8788 72.4392C40.1547 72.5668 40.363 72.7516 40.5036 72.9937C40.6468 73.2332 40.7184 73.5196 40.7184 73.8528C40.7184 74.0403 40.6884 74.2238 40.6285 74.4035C40.5687 74.5805 40.4828 74.7575 40.3708 74.9345C40.2615 75.109 40.1287 75.286 39.9725 75.4656C39.8163 75.6453 39.6432 75.8314 39.4531 76.024L38.4652 77.1331H40.9019ZM45.4318 74.669V75.6531C45.4318 76.08 45.3862 76.4484 45.2951 76.7582C45.204 77.0654 45.0725 77.3179 44.9007 77.5158C44.7315 77.711 44.5297 77.8555 44.2954 77.9492C44.0611 78.043 43.8007 78.0898 43.5144 78.0898C43.2853 78.0898 43.0718 78.0612 42.8739 78.0039C42.6761 77.944 42.4978 77.8516 42.339 77.7267C42.1828 77.6017 42.0474 77.4442 41.9328 77.2541C41.8209 77.0615 41.735 76.8324 41.6751 76.5669C41.6152 76.3013 41.5853 75.9967 41.5853 75.6531V74.669C41.5853 74.242 41.6308 73.8763 41.722 73.5717C41.8157 73.2645 41.9472 73.0133 42.1164 72.818C42.2882 72.6228 42.4913 72.4796 42.7256 72.3884C42.9599 72.2947 43.2202 72.2479 43.5066 72.2479C43.7357 72.2479 43.9478 72.2778 44.1431 72.3377C44.3409 72.395 44.5193 72.4848 44.6781 72.6071C44.8369 72.7295 44.9723 72.887 45.0842 73.0796C45.1962 73.2697 45.2821 73.4975 45.3419 73.763C45.4018 74.026 45.4318 74.328 45.4318 74.669ZM44.3032 75.8015V74.5167C44.3032 74.311 44.2915 74.1314 44.2681 73.9778C44.2472 73.8242 44.2147 73.694 44.1704 73.5873C44.1262 73.478 44.0715 73.3894 44.0064 73.3218C43.9413 73.2541 43.8671 73.2046 43.7838 73.1734C43.7005 73.1421 43.6081 73.1265 43.5066 73.1265C43.379 73.1265 43.2658 73.1512 43.1668 73.2007C43.0705 73.2502 42.9885 73.3296 42.9208 73.4389C42.8531 73.5456 42.8011 73.6888 42.7646 73.8685C42.7308 74.0455 42.7138 74.2616 42.7138 74.5167V75.8015C42.7138 76.0071 42.7243 76.1881 42.7451 76.3443C42.7685 76.5005 42.8024 76.6345 42.8466 76.7465C42.8935 76.8558 42.9481 76.9456 43.0106 77.0159C43.0757 77.0836 43.1499 77.1331 43.2332 77.1643C43.3191 77.1956 43.4128 77.2112 43.5144 77.2112C43.6393 77.2112 43.75 77.1865 43.8463 77.137C43.9452 77.0849 44.0285 77.0042 44.0962 76.8949C44.1665 76.7829 44.2186 76.6371 44.2524 76.4575C44.2863 76.2779 44.3032 76.0592 44.3032 75.8015ZM50.0866 77.1331V78.0117H46.1971V77.2619L48.0364 75.2899C48.2213 75.0842 48.3671 74.9033 48.4738 74.7471C48.5805 74.5883 48.6573 74.4464 48.7042 74.3214C48.7537 74.1939 48.7784 74.0728 48.7784 73.9583C48.7784 73.7865 48.7497 73.6394 48.6925 73.517C48.6352 73.392 48.5506 73.2957 48.4386 73.228C48.3293 73.1603 48.1939 73.1265 48.0325 73.1265C47.8607 73.1265 47.7123 73.1682 47.5873 73.2515C47.465 73.3348 47.3713 73.4506 47.3062 73.599C47.2437 73.7474 47.2125 73.9153 47.2125 74.1028H46.0839C46.0839 73.7643 46.1646 73.4545 46.326 73.1734C46.4874 72.8896 46.7152 72.6644 47.0094 72.4978C47.3036 72.3286 47.6524 72.244 48.0559 72.244C48.4543 72.244 48.7901 72.309 49.0635 72.4392C49.3394 72.5668 49.5477 72.7516 49.6883 72.9937C49.8314 73.2332 49.903 73.5196 49.903 73.8528C49.903 74.0403 49.8731 74.2238 49.8132 74.4035C49.7533 74.5805 49.6674 74.7575 49.5555 74.9345C49.4461 75.109 49.3134 75.286 49.1572 75.4656C49.001 75.6453 48.8278 75.8314 48.6378 76.024L47.6498 77.1331H50.0866ZM54.7726 75.8874V76.7699H50.6762L50.6216 76.0865L52.9919 72.326H53.8862L52.9177 73.9466L51.7384 75.8874H54.7726ZM54.1283 72.326V78.0117H53.0036V72.326H54.1283Z" fill="white"/>
</g>
<defs>
<clipPath id="clip0_1736_1243">
<rect width="90.9935" height="100" fill="white" transform="translate(0.0371094 0.300781)"/>
</clipPath>
</defs>
</svg>
