<svg width="135" height="58" viewBox="0 0 135 58" fill="none" xmlns="http://www.w3.org/2000/svg">
<g clip-path="url(#clip0_3753_20066)">
<path d="M0.27769 28.334V15.489C0.282198 15.4085 0.317585 15.3328 0.37657 15.2775C0.435556 15.2221 0.513651 15.1913 0.594785 15.1915H15.3397C16.5058 15.1586 17.6687 15.3304 18.7748 15.699C19.1624 15.839 19.5676 15.839 19.9551 15.979C21.4482 16.5177 22.85 17.2789 24.1126 18.2365C24.6957 18.7583 25.2159 19.3455 25.6628 19.9865C26.5989 21.2002 27.298 22.5772 27.7239 24.0465C27.9712 25.0362 28.1478 26.042 28.2524 27.0565C28.4142 28.1947 28.3544 29.3531 28.0763 30.469C27.8821 31.3862 27.617 32.2872 27.2835 33.164C26.8513 34.2493 26.2575 35.2639 25.5219 36.174C24.5514 37.4631 23.3586 38.5711 21.9986 39.4465C21.3419 39.8645 20.6384 40.2052 19.9023 40.4615C18.9334 40.794 17.9469 40.899 16.9604 41.1615C16.5264 41.2541 16.0829 41.2953 15.6391 41.284H0.947111C0.856275 41.2893 0.765344 41.2752 0.680492 41.2425C0.595641 41.2099 0.518857 41.1595 0.455354 41.0947C0.391852 41.03 0.343118 40.9524 0.312463 40.8673C0.281807 40.7822 0.269948 40.6915 0.27769 40.6015C0.27769 36.524 0.27769 32.4465 0.27769 28.334ZM10.6009 36.6465H15.463C16.6846 36.6066 17.8844 36.3145 18.9862 35.789C19.9376 35.3145 20.7825 34.6537 21.4701 33.8465C22.0685 33.1387 22.561 32.3489 22.9323 31.5015C23.0531 31.1116 23.1473 30.714 23.2142 30.3115C23.4444 29.5622 23.5689 28.7847 23.5841 28.0015C23.5691 27.6431 23.5279 27.2863 23.4608 26.934C23.3198 26.2515 23.1965 25.569 23.0204 24.904C22.9371 24.7178 22.843 24.5367 22.7385 24.3615C22.4175 23.5445 21.9251 22.8047 21.294 22.1915C20.3879 21.3132 19.2821 20.6649 18.0702 20.3015C17.1118 20.007 16.1138 19.8595 15.1106 19.864H5.38643C5.05172 19.864 4.9284 19.9515 4.9284 20.284V35.6315C4.94603 35.7475 4.94603 35.8654 4.9284 35.9815C4.88406 36.1184 4.89626 36.2672 4.96233 36.3952C5.0284 36.5231 5.14292 36.6198 5.28073 36.664C5.3644 36.7191 5.46217 36.7495 5.56259 36.7515H10.6537L10.6009 36.6465Z" fill="white"/>
<path d="M92.8662 40.0217L92.6582 40.8978C92.6582 41.0705 93.0432 41.3097 93.3484 41.3342H96.4247C96.721 41.3862 97.0262 41.345 97.2978 41.2164C97.5694 41.0878 97.7938 40.8781 97.9397 40.6167C98.3448 39.8992 98.6972 39.4092 99.208 38.4992C99.7189 37.5892 100.106 36.9767 100.776 35.8392C101.445 34.7017 102.15 33.5642 102.837 32.4267C103.683 30.9567 104.563 29.4692 105.444 27.9992L107.858 23.9742C108.28 23.2917 108.65 22.6092 109.038 21.9267C109.046 21.8999 109.059 21.875 109.077 21.8539C109.096 21.8327 109.118 21.8158 109.144 21.8042C109.196 21.7549 109.265 21.7275 109.337 21.7275C109.41 21.7275 109.479 21.7549 109.531 21.8042C109.707 22.0317 109.866 22.2592 110.024 22.5042L111.927 25.7242L113.336 27.9992L114.992 30.4492C115.01 30.5769 115.01 30.7064 114.992 30.8342C114.957 30.9567 114.763 30.9567 114.622 30.9567H107.963C107.68 30.9393 107.398 31.0134 107.16 31.1679C106.922 31.3224 106.74 31.549 106.642 31.8142C106.349 32.4166 106.02 33.001 105.656 33.5642L105.215 34.0892C105.149 34.1412 105.105 34.2162 105.092 34.2992C105.082 34.3986 105.111 34.4981 105.174 34.5765C105.236 34.6549 105.327 34.706 105.427 34.7192H116.648C116.793 34.6803 116.947 34.6863 117.089 34.7363C117.23 34.7863 117.353 34.878 117.441 34.9992C117.864 35.6292 118.269 36.1542 118.709 36.8892C119.15 37.6242 119.696 38.4467 120.031 39.0942C120.365 39.7417 120.7 40.2842 120.982 40.8442C121.043 41.0159 121.158 41.1634 121.31 41.2644C121.463 41.3654 121.644 41.4145 121.827 41.4042H126.231C126.319 41.4069 126.406 41.3893 126.485 41.3529C126.565 41.3164 126.635 41.2621 126.69 41.1942C126.706 41.0026 126.657 40.8111 126.549 40.6517C126.478 40.5117 126.337 40.4067 126.231 40.2492L124.135 36.7492L121.722 32.7417C120.947 31.4292 120.154 30.1342 119.361 28.8217L117.599 26.1442C116.877 25.0067 116.173 23.8167 115.45 22.6442C114.957 21.8917 114.499 21.0342 113.971 20.1417C113.442 19.2492 112.896 18.3742 112.332 17.4992C112.028 16.7945 111.618 16.1397 111.117 15.5567C110.891 15.3254 110.614 15.1484 110.309 15.0392C110.004 14.9301 109.678 14.8916 109.355 14.9267C109.006 14.9637 108.669 15.0732 108.366 15.248C108.062 15.4229 107.799 15.6592 107.593 15.9417C107.412 16.2116 107.247 16.4921 107.1 16.7817L105.973 18.6192L104.951 20.4392C104.211 21.8042 103.277 23.1517 102.449 24.4992L100.071 28.2967L98.7676 30.4842L97.1469 33.1092C96.4423 34.2292 95.72 35.4717 95.0153 36.6092C94.3107 37.7467 93.5884 38.8842 92.8662 40.0217Z" fill="white"/>
<path d="M43.6642 15.1953H54.8858C54.9577 15.2019 55.0275 15.2226 55.0912 15.2561C55.155 15.2896 55.2114 15.3354 55.2573 15.3907C55.3032 15.446 55.3376 15.5098 55.3584 15.5784C55.3793 15.647 55.3864 15.719 55.3791 15.7903C55.3874 15.8189 55.3874 15.8493 55.3791 15.8778V17.8028C55.3542 18.2605 55.3897 18.7194 55.4848 19.1678C55.5014 19.2877 55.4728 19.4094 55.4045 19.5096C55.3362 19.6097 55.233 19.6812 55.1148 19.7103C54.8121 19.7684 54.5062 19.8092 54.1988 19.8328H36.8291C36.7781 19.8372 36.7285 19.8516 36.6832 19.8751C36.6378 19.8987 36.5976 19.9309 36.5648 19.9699C36.5321 20.009 36.5074 20.0541 36.4923 20.1026C36.4772 20.1512 36.4719 20.2022 36.4767 20.2528V35.8628C36.4695 35.9447 36.479 36.0272 36.5045 36.1054C36.5301 36.1835 36.5712 36.2558 36.6254 36.3178C36.6797 36.3799 36.7459 36.4305 36.8203 36.4665C36.8946 36.5026 36.9755 36.5235 37.0581 36.5279H54.6744C55.291 36.5279 55.5024 36.8779 55.4319 37.4029C55.3967 38.0557 55.3967 38.71 55.4319 39.3628V40.4478C55.4636 40.5916 55.4369 40.742 55.3578 40.8665C55.2787 40.9909 55.1534 41.0794 55.0091 41.1128H33.3939C32.9828 41.1128 32.5777 41.1128 32.1784 41.1128C31.8965 41.1128 31.8084 40.8854 31.8084 40.6054V16.1053C31.8084 14.9328 31.9141 15.2128 32.7245 15.2128L43.6642 15.1953Z" fill="white"/>
<path d="M132.096 15.1772H133.858C134.421 15.1772 134.615 15.4047 134.615 15.9647V40.4647C134.615 40.9722 134.457 41.1472 133.963 41.1472H131.321C131.004 41.1647 130.687 41.1647 130.37 41.1472C129.753 41.1472 129.753 40.7097 129.806 40.3247C129.824 39.9866 129.824 39.6478 129.806 39.3097V16.5597C129.824 16.241 129.788 15.9216 129.7 15.6147C129.595 15.3172 129.841 15.0547 130.246 15.0547L132.096 15.1772Z" fill="white"/>
<path d="M81.1397 25.9733C81.1644 25.0838 80.9684 24.2019 80.569 23.4054C80.1696 22.6089 79.5791 21.9222 78.8496 21.4058L79.2019 21.0383L80.9636 19.2883L82.549 17.5383L84.3107 15.7008C84.6102 15.4033 84.892 15.1058 85.1563 14.7908C85.3235 14.6212 85.5238 14.4872 85.7449 14.397C85.966 14.3067 86.2033 14.2621 86.4422 14.2658H91.8857C92.2909 14.2658 92.2909 14.2658 92.3261 14.3883C92.3697 14.4596 92.3927 14.5413 92.3927 14.6246C92.3927 14.7079 92.3697 14.7896 92.3261 14.8608C92.1449 15.0874 91.9445 15.2982 91.7271 15.4908L87.4464 19.8483C86.9179 20.4083 86.3542 20.9333 85.6847 21.5983L82.461 24.8708C82.2143 25.1158 82.0029 25.4133 81.7739 25.6583C81.6953 25.7508 81.5985 25.8265 81.4894 25.8806C81.3804 25.9348 81.2614 25.9663 81.1397 25.9733Z" fill="white"/>
<path d="M47.0748 29.9941H40.5391C39.7993 29.9941 39.6055 29.6791 39.6936 28.9441C39.764 28.2107 39.764 27.4724 39.6936 26.7391C39.6936 26.2316 39.6936 26.0391 40.2925 26.0391H53.7866C54.2446 26.0391 54.5089 26.2491 54.4913 26.8091C54.4736 27.3691 54.4913 28.4016 54.4913 29.2066C54.4913 29.6966 54.2446 29.9941 53.6457 30.0116H47.0748V29.9941Z" fill="white"/>
<path d="M41.7182 57.198L39.7628 57.023C39.2519 57.023 39.0406 56.6905 39.0406 56.0955V49.358C39.0229 49.0607 39.0229 48.7627 39.0406 48.4655C39.0486 48.3661 39.092 48.2727 39.163 48.2022C39.234 48.1316 39.328 48.0885 39.4281 48.0805C40.4578 47.907 41.505 47.86 42.5462 47.9405C42.9334 47.94 43.3188 47.993 43.6913 48.098C44.061 48.1988 44.407 48.3714 44.7094 48.6056C45.0117 48.8399 45.2644 49.1313 45.4529 49.463C45.6847 49.8354 45.7924 50.2709 45.7608 50.7075C45.7291 51.1442 45.5598 51.5599 45.2767 51.8955C44.8716 52.298 44.8539 52.4205 45.2767 52.823C45.5698 53.0796 45.7952 53.4035 45.9333 53.7665C46.0715 54.1295 46.1183 54.5205 46.0695 54.9055C46.0077 55.2403 45.8733 55.5578 45.6755 55.8358C45.4778 56.1139 45.2215 56.3458 44.9244 56.5155C44.2597 56.9251 43.4862 57.1264 42.7048 57.093H41.7887L41.7182 57.198ZM42.3877 55.308H42.7576C42.9994 55.2774 43.2328 55.2001 43.4446 55.0805C43.5922 54.9575 43.6996 54.7935 43.7529 54.6096C43.8063 54.4257 43.8032 54.2302 43.7441 54.048C43.6921 53.8432 43.581 53.658 43.4246 53.515C43.2681 53.372 43.0731 53.2775 42.8633 53.243C42.506 53.208 42.146 53.208 41.7887 53.243C41.6677 53.2276 41.5454 53.259 41.4471 53.3306C41.3487 53.4023 41.2818 53.5087 41.2602 53.628C41.252 53.6474 41.2477 53.6682 41.2477 53.6892C41.2477 53.7103 41.252 53.7311 41.2602 53.7505C41.2778 54.0536 41.2778 54.3574 41.2602 54.6605C41.2602 54.9755 41.2602 55.203 41.6125 55.273C41.8859 55.3263 42.1625 55.3614 42.4405 55.378L42.3877 55.308ZM41.3659 50.7405V50.933C41.3659 51.4405 41.4716 51.6505 41.9472 51.6855C42.392 51.6996 42.8367 51.6524 43.2685 51.5455C43.4513 51.497 43.6114 51.3865 43.7208 51.233C43.8302 51.0796 43.8821 50.893 43.8674 50.7055C43.869 50.4995 43.8002 50.299 43.6722 50.1368C43.5442 49.9747 43.3646 49.8605 43.1628 49.813C42.676 49.778 42.1874 49.778 41.7006 49.813C41.6505 49.8129 41.6009 49.823 41.5549 49.8425C41.5088 49.8621 41.4672 49.8907 41.4326 49.9267C41.398 49.9627 41.3711 50.0054 41.3536 50.052C41.3361 50.0986 41.3283 50.1483 41.3307 50.198V50.7405H41.3659Z" fill="white"/>
<path d="M3.05885 47.9141C3.64938 47.9192 4.23852 47.9718 4.82048 48.0716C5.35313 48.1779 5.84383 48.434 6.2342 48.8094C6.62457 49.1848 6.89819 49.6637 7.02252 50.1891C7.17134 50.7475 7.12925 51.3393 6.90287 51.8714C6.67649 52.4035 6.27863 52.8459 5.77176 53.1291C5.69876 53.16 5.63919 53.2157 5.6037 53.2862C5.5682 53.3567 5.55909 53.4375 5.57798 53.5141V53.6016C5.98316 54.3716 6.38833 55.1241 6.81113 55.8766C6.90077 56.0332 7.00708 56.1799 7.12822 56.3141C7.41008 56.6991 7.25153 57.0666 6.79351 57.0841C6.29501 57.1192 5.79462 57.1192 5.29612 57.0841C5.20629 57.0608 5.12232 57.0192 5.04953 56.962C4.97675 56.9047 4.91674 56.8331 4.87333 56.7516C4.46815 56.0516 4.06298 55.3341 3.69304 54.6166C3.69304 54.4591 3.53449 54.2841 3.42879 54.1266C3.3099 53.9718 3.15187 53.851 2.97077 53.7766C2.54797 53.6716 2.37181 53.7766 2.38943 54.3191C2.40704 54.8616 2.38943 55.1066 2.38943 55.4916C2.37141 55.6953 2.37141 55.9003 2.38943 56.1041C2.49512 56.7691 2.38943 57.0841 1.64954 57.1191H0.592561C0.345932 57.1191 0.240234 56.9266 0.240234 56.6641V48.5791C0.240234 48.1766 0.434014 48.0891 0.803957 48.0541L3.05885 47.9141ZM3.28786 49.7516H2.97077C2.84748 49.7467 2.72712 49.7896 2.63509 49.8712C2.54305 49.9529 2.48655 50.0668 2.47751 50.1891V51.4491C2.46637 51.5823 2.50516 51.715 2.58644 51.8215C2.66773 51.9281 2.78577 52.0011 2.91792 52.0266H3.02361C3.37594 52.0266 3.74588 52.0266 4.09821 52.0266C4.23693 52.0293 4.37387 51.9951 4.49472 51.9274C4.61557 51.8597 4.7159 51.7609 4.78525 51.6416C4.93781 51.3925 4.98991 51.0953 4.93109 50.8097C4.87228 50.5241 4.70691 50.2711 4.46815 50.1016C4.1764 49.8712 3.69933 49.713 3.28786 49.7516Z" fill="white"/>
<path d="M65.4628 52.6038C65.5394 53.417 65.4556 54.2373 65.2162 55.0187C64.9563 55.6647 64.5086 56.2192 63.9302 56.6112C63.3469 57.0233 62.635 57.2157 61.9219 57.1537C61.4614 57.1711 61.0003 57.1358 60.5478 57.0487C59.8612 56.8608 59.2539 56.4579 58.816 55.8999C58.378 55.3419 58.1329 54.6586 58.1168 53.9513V51.9212C58.0925 51.2551 58.1941 50.5903 58.4163 49.9612C58.7105 49.2657 59.2488 48.6998 59.9313 48.3687C60.5258 48.0734 61.1851 47.9299 61.8495 47.9513C62.5138 47.9727 63.1624 48.1583 63.7364 48.4912C64.2789 48.7896 64.7294 49.229 65.0398 49.7624C65.3501 50.2957 65.5085 50.9028 65.498 51.5187L65.4628 52.6038ZM60.3012 52.9188V53.8637C60.2939 54.2359 60.4257 54.5975 60.6712 54.8788C60.9354 55.1406 61.2933 55.2876 61.6665 55.2876C62.0397 55.2876 62.3976 55.1406 62.6618 54.8788C62.9373 54.4977 63.074 54.0348 63.0494 53.5663V51.5187C63.0557 51.2742 63.0104 51.0311 62.9164 50.805C62.8223 50.5789 62.6816 50.375 62.5033 50.2062C62.3344 50.0424 62.1206 49.9317 61.8887 49.8881C61.6568 49.8445 61.4171 49.87 61.1997 49.9612C60.9578 50.035 60.7442 50.1798 60.5869 50.3767C60.4297 50.5735 60.3362 50.8131 60.3188 51.0638L60.3012 52.9188Z" fill="white"/>
<path d="M26.71 52.6898C26.7075 53.3688 26.6604 54.0469 26.569 54.7198C26.3963 55.4887 25.9287 56.1604 25.2654 56.5923C24.7043 57.0099 24.0088 57.209 23.31 57.1523C22.8203 57.1691 22.3301 57.1339 21.8479 57.0473C21.1409 56.8333 20.5228 56.3973 20.0862 55.8048C19.8248 55.3983 19.662 54.937 19.6106 54.4573C19.3109 53.0475 19.3289 51.5893 19.6634 50.1873C19.8734 49.6498 20.2183 49.1746 20.6655 48.807C21.1126 48.4394 21.647 48.1917 22.2178 48.0873C22.9215 47.9641 23.644 48 24.3318 48.1923C24.966 48.3931 25.5227 48.7829 25.9261 49.3089C26.3296 49.8349 26.5602 50.4716 26.5867 51.1323C26.6043 51.5523 26.71 52.0773 26.71 52.6898ZM21.5484 52.6898V53.8973C21.5554 54.2673 21.6995 54.6217 21.9529 54.8929C22.2064 55.1641 22.5516 55.333 22.9225 55.3673C23.2325 55.4075 23.5462 55.3257 23.7963 55.1393C24.0465 54.9529 24.2134 54.6768 24.2613 54.3698C24.4021 53.3186 24.4021 52.2535 24.2613 51.2023C24.2674 51.0022 24.2267 50.8034 24.1423 50.6215C24.058 50.4396 23.9324 50.2797 23.7753 50.1542C23.6183 50.0287 23.4341 49.9411 23.2372 49.8983C23.0403 49.8554 22.8361 49.8585 22.6406 49.9073C22.3964 49.9581 22.1719 50.0774 21.9939 50.2511C21.8159 50.4248 21.6919 50.6456 21.6365 50.8873C21.5375 51.466 21.4786 52.0507 21.4603 52.6373L21.5484 52.6898Z" fill="white"/>
<path d="M130.762 57.1877L129.141 57.0302C128.595 57.0302 128.436 56.6277 128.366 56.1202C128.366 55.4902 128.366 55.3502 129.088 55.3502H130.973C131.151 55.3757 131.332 55.3605 131.503 55.306C131.674 55.2514 131.83 55.1588 131.96 55.0352C132.046 54.9317 132.093 54.8018 132.093 54.6677C132.093 54.5335 132.046 54.4036 131.96 54.3002C131.809 54.0953 131.625 53.9177 131.414 53.7752C130.691 53.3027 129.951 52.8827 129.247 52.3752C128.979 52.2091 128.747 51.9922 128.564 51.7367C128.38 51.4812 128.25 51.1923 128.179 50.8866C128.109 50.5809 128.1 50.2643 128.153 49.9552C128.207 49.646 128.321 49.3503 128.489 49.0852L128.648 48.8577C128.838 48.6252 129.073 48.4327 129.34 48.2915C129.606 48.1503 129.898 48.0631 130.198 48.0352H133.351C133.489 48.0366 133.623 48.079 133.736 48.157C133.849 48.235 133.936 48.345 133.986 48.4727C134.064 48.6406 134.123 48.8167 134.162 48.9977C134.177 49.1296 134.16 49.2633 134.112 49.3873C134.064 49.5112 133.986 49.6218 133.886 49.7095C133.786 49.7972 133.665 49.8595 133.535 49.8909C133.405 49.9224 133.27 49.9221 133.14 49.8902C132.375 49.7879 131.604 49.7469 130.832 49.7677C130.738 49.7844 130.648 49.8212 130.569 49.8756C130.49 49.9299 130.423 50.0006 130.374 50.0827C130.322 50.1778 130.306 50.2881 130.329 50.394C130.351 50.4998 130.411 50.5942 130.498 50.6602C130.745 50.8607 131.004 51.0476 131.273 51.2202C131.96 51.6402 132.7 52.0077 133.369 52.4802C133.679 52.7109 133.936 53.0054 134.122 53.3436C134.307 53.6819 134.417 54.0559 134.444 54.4402C134.461 54.5562 134.461 54.6741 134.444 54.7902C134.306 55.326 134.025 55.8152 133.632 56.2062C133.238 56.5973 132.746 56.8759 132.206 57.0127C131.729 57.1043 131.247 57.1628 130.762 57.1877Z" fill="white"/>
<path d="M110.589 52.4947V50.7447C110.618 50.0958 110.873 49.4771 111.311 48.9947C111.569 48.6635 111.889 48.3863 112.255 48.1791C112.621 47.9718 113.025 47.8386 113.443 47.7872C114.237 47.6647 115.045 47.6647 115.839 47.7872C115.951 47.8079 116.053 47.8629 116.132 47.9445C116.211 48.0261 116.262 48.1302 116.279 48.2422C116.333 48.419 116.368 48.6008 116.385 48.7847C116.385 49.4147 116.208 49.6072 115.61 49.5722H114.218C113.875 49.5717 113.544 49.7022 113.295 49.9367C113.046 50.1712 112.897 50.4917 112.879 50.8322V53.6147C112.862 53.8314 112.891 54.0492 112.964 54.2541C113.036 54.4591 113.152 54.6466 113.302 54.8047C113.428 54.9241 113.578 55.0166 113.741 55.0768C113.905 55.137 114.079 55.1635 114.253 55.1547H115.786C116.261 55.1547 116.455 55.3472 116.455 55.8197V56.4497C116.455 56.6422 116.156 56.9397 115.768 56.9572C115.123 56.9922 114.476 56.9922 113.83 56.9572C113.331 56.9699 112.836 56.8618 112.388 56.6424C111.94 56.4229 111.552 56.0985 111.258 55.6972C110.783 55.1086 110.539 54.3686 110.571 53.6147C110.597 53.2419 110.603 52.8681 110.589 52.4947Z" fill="white"/>
<path d="M80.3363 47.9492H83.0845C83.6482 47.9492 83.8596 48.1242 83.9301 48.6492V48.9992C83.9301 49.5592 83.6834 49.7167 83.1902 49.7692H82.1332C81.7456 49.7692 81.5871 49.9092 81.5871 50.2767V54.2842C81.5725 54.9795 81.6019 55.6751 81.6752 56.3667C81.6903 56.5285 81.6419 56.6898 81.5402 56.817C81.4384 56.9441 81.2911 57.0273 81.1291 57.0492C80.6831 57.1542 80.2186 57.1542 79.7726 57.0492C79.3851 56.9267 79.3146 56.6992 79.3498 56.2792V50.4517C79.3498 50.0842 79.1208 49.9092 78.7156 49.8917C78.3105 49.8742 77.9229 49.8917 77.5353 49.8917C77.1478 49.8917 76.9188 49.5592 76.9892 49.0867V48.8067C76.9892 48.2642 77.183 48.1417 77.7291 48.1417H80.1426L80.3363 47.9492Z" fill="white"/>
<path d="M98.1665 52.3798V56.7198C98.1665 56.8173 98.1275 56.9108 98.0581 56.9797C97.9887 57.0486 97.8946 57.0873 97.7965 57.0873C97.2793 57.1925 96.7459 57.1925 96.2287 57.0873C95.9292 57.0873 95.8235 56.8073 95.8763 56.4748C95.9028 56.213 95.9028 55.9492 95.8763 55.6873V48.5648C95.8763 48.2148 95.8763 48.0398 96.2815 48.0223C96.7683 47.9873 97.2569 47.9873 97.7437 48.0223C97.9903 48.0223 98.1488 48.2848 98.1488 48.5823L98.1665 52.3798Z" fill="white"/>
<path d="M68.3986 4.54701L71.2524 4.33701L74.2648 4.03951C74.8927 4.03296 75.505 3.84441 76.0265 3.49701C76.3359 3.28087 76.5502 2.95524 76.6254 2.58701C76.6254 2.27201 76.784 1.97451 76.8721 1.67701C76.9369 1.53978 77.0387 1.42302 77.1662 1.33964C77.2936 1.25626 77.4418 1.2095 77.5943 1.20451C78.299 1.08201 79.0036 0.942014 79.7083 0.889514C81.8046 0.714514 83.9186 0.627014 85.9973 0.259514C86.345 0.191859 86.7055 0.262002 87.0018 0.454947C87.298 0.647891 87.5066 0.948325 87.5828 1.29201V1.44951L87.9175 5.61451C87.8741 6.13279 87.8741 6.65374 87.9175 7.17201C87.9385 7.25705 87.9424 7.34537 87.929 7.43191C87.9155 7.51845 87.885 7.6015 87.8392 7.67629C87.7934 7.75109 87.7331 7.81616 87.6619 7.86776C87.5907 7.91937 87.5099 7.9565 87.4242 7.97701C86.8429 8.08201 86.2616 8.18701 85.6626 8.25701C84.3238 8.39701 82.9673 8.46701 81.6285 8.60701C80.7476 8.69451 79.8668 8.81701 79.0036 8.92201C78.1404 9.02701 77.7881 8.74701 77.2596 7.83701C77.0817 7.47729 76.8755 7.13206 76.643 6.80451C76.4625 6.57365 76.2176 6.40073 75.9387 6.30736C75.6599 6.21399 75.3595 6.20431 75.0752 6.27951L73.3136 6.57701C73.108 6.63677 72.887 6.61325 72.6988 6.51159C72.5106 6.40994 72.3706 6.23841 72.3094 6.03451C72.2517 5.86208 72.1603 5.70264 72.0405 5.56531C71.9207 5.42799 71.7748 5.31547 71.6112 5.23421C71.4476 5.15294 71.2695 5.10451 71.087 5.0917C70.9045 5.07888 70.7213 5.10192 70.5478 5.15951C70.3432 5.20797 70.1586 5.31798 70.0193 5.47451C69.768 5.73791 69.5811 6.05528 69.4732 6.40201C69.3675 6.85701 68.9447 6.96201 68.5571 7.03201C67.6587 7.18951 66.7955 7.27701 65.809 7.38201L63.695 7.71451L61.9334 7.90701C60.6644 7.95056 59.3994 8.0733 58.1459 8.27451C57.5117 8.41451 56.8599 8.41451 56.2257 8.51951C55.5915 8.62451 54.7636 8.78201 54.0413 8.86951C53.319 8.95701 53.1252 8.99201 52.6672 9.02701C51.8068 9.05279 50.9483 9.12288 50.0952 9.23701C49.2342 9.45629 48.3314 9.45629 47.4704 9.23701C47.1387 9.0863 46.8622 8.83701 46.6792 8.52354C46.4962 8.21008 46.4156 7.8479 46.4487 7.48701C46.4671 7.119 46.5695 6.75996 46.7481 6.43701C46.8962 6.18812 47.104 5.97954 47.353 5.8299C47.602 5.68027 47.8844 5.59424 48.1751 5.57951C49.602 5.40451 51.0994 5.24701 52.5263 5.24701C53.9532 5.24701 55.1864 5.24701 56.5252 5.12451C57.864 5.00201 58.9386 4.87951 60.1718 4.79201L63.3603 4.63451C63.6803 4.63744 63.9892 4.51845 64.2235 4.30201L65.6681 3.09451C65.8225 2.96705 66.008 2.88216 66.2059 2.84838C66.4037 2.81459 66.6071 2.83309 66.7955 2.90201C66.9424 2.9465 67.0656 3.04693 67.1382 3.18136C67.2109 3.3158 67.227 3.47332 67.1831 3.61951V3.72451C66.9541 4.30201 67.0598 4.45951 67.6939 4.49451H68.4867L68.3986 4.54701ZM78.9684 3.19951L80.2896 3.02451L84.8346 2.62201C85.2551 2.5665 85.6685 2.46678 86.0678 2.32451C86.2263 2.32451 86.4201 2.04451 86.4025 1.92201C86.377 1.82605 86.3284 1.73769 86.2609 1.66452C86.1933 1.59136 86.1089 1.53559 86.0149 1.50201C85.7623 1.4071 85.491 1.37118 85.2222 1.39701L82.9321 1.62451L79.5497 1.95701C79.1338 1.98553 78.7212 2.04994 78.3166 2.14951C78.2148 2.16809 78.1219 2.21916 78.0519 2.29496C77.982 2.37075 77.9388 2.46715 77.929 2.56951C77.9187 2.67561 77.9493 2.78165 78.0147 2.86614C78.0802 2.95063 78.1755 3.00725 78.2814 3.02451L78.9508 3.18201L78.9684 3.19951ZM85.6097 3.65451H85.275L83.4253 3.84701L81.1704 4.03951L78.8451 4.33701C78.7035 4.33811 78.5667 4.38754 78.4575 4.47701C78.3718 4.5218 78.3071 4.59821 78.2775 4.68984C78.2478 4.78146 78.2556 4.88098 78.299 4.96701C78.3406 5.04244 78.4101 5.09889 78.4928 5.12451C78.8161 5.3149 79.1955 5.38904 79.5673 5.33451L81.5228 5.08951L85.7155 4.68701C85.8764 4.70025 86.0384 4.67897 86.1903 4.62462C86.3423 4.57028 86.4807 4.48413 86.5963 4.37201C86.6296 4.34409 86.6564 4.30926 86.6748 4.26996C86.6932 4.23067 86.7028 4.18785 86.7028 4.14451C86.7028 4.10118 86.6932 4.05836 86.6748 4.01906C86.6564 3.97977 86.6296 3.94494 86.5963 3.91701C86.4836 3.80171 86.345 3.71462 86.1919 3.6629C86.0388 3.61118 85.8755 3.59631 85.7155 3.61951L85.6097 3.65451ZM85.9797 5.84201L84.359 6.03451L79.3912 6.55951C79.1696 6.57208 78.9533 6.63176 78.757 6.73451C78.6859 6.78239 78.6257 6.84447 78.5802 6.9168C78.5347 6.98912 78.5049 7.07009 78.4928 7.15451C78.5024 7.23519 78.5337 7.31182 78.5832 7.37645C78.6328 7.44107 78.6989 7.49134 78.7746 7.52201C79.0368 7.6288 79.3196 7.67661 79.6026 7.66201C80.0806 7.63363 80.5569 7.58106 81.0295 7.50451L85.9973 6.99701C86.2116 6.96671 86.4163 6.88897 86.5963 6.76951C86.6429 6.74949 86.6846 6.71968 86.7186 6.68213C86.7525 6.64458 86.7779 6.60018 86.793 6.55197C86.8081 6.50377 86.8124 6.45289 86.8058 6.40284C86.7993 6.35279 86.7818 6.30475 86.7548 6.26201C86.712 6.20518 86.6581 6.15756 86.5963 6.12201C86.4115 6.01119 86.2169 5.91746 86.0149 5.84201H85.9797Z" fill="white"/>
<path d="M76.7356 31.0384C76.6436 31.4009 76.5137 31.7528 76.3481 32.0884C75.6786 33.1559 74.9916 34.2234 74.3046 35.2734C74.0403 35.6759 73.7409 36.0784 73.459 36.4634C73.3552 36.6126 73.2996 36.7896 73.2996 36.9709C73.2996 37.1523 73.3552 37.3293 73.459 37.4784C73.6826 37.8878 73.8712 38.3152 74.0227 38.7559C74.1449 39.2444 74.2274 39.7418 74.2693 40.2434C74.2848 40.3636 74.2532 40.4851 74.1811 40.5828C74.109 40.6805 74.0018 40.747 73.8818 40.7684H58.8022C58.6736 40.7859 58.5432 40.7859 58.4146 40.7684C57.9214 40.6459 57.8509 40.4884 57.9919 39.9984C58.1328 39.5084 58.1152 39.2459 58.2033 38.8784C58.5368 37.4615 59.3064 36.1831 60.4053 35.2209C60.6872 34.9934 60.9162 34.7309 61.198 34.5384C61.5366 34.2778 61.9028 34.0548 62.2902 33.8734C62.9673 33.5426 63.668 33.2619 64.3866 33.0334C64.8218 32.9493 65.2644 32.9083 65.7078 32.9109C65.9388 32.8929 66.1594 32.8077 66.342 32.6659C66.8881 32.2109 67.3814 31.7034 67.8922 31.1959L69.7772 29.4459C70.0238 29.1834 70.2881 28.9034 70.5699 28.6584C70.8518 28.4134 71.0808 28.4134 71.3098 28.7459C71.7755 29.512 72.4356 30.1431 73.2239 30.5761C74.0123 31.0091 74.9013 31.2289 75.802 31.2134L76.7356 31.0384Z" fill="white"/>
<path d="M66.8413 15.5234L67.1584 15.6459L67.9159 16.1709L70.7522 18.4459L73.3241 20.5109L73.5003 20.6684C73.6236 20.8084 73.6412 20.9309 73.5003 21.0534C72.783 21.3782 72.1508 21.863 71.6528 22.47C71.1547 23.077 70.8044 23.79 70.6288 24.5534C70.6288 24.7984 70.4351 24.8334 70.2589 24.7459C70.1132 24.6419 69.9828 24.5182 69.8713 24.3784C69.6235 24.1203 69.3939 23.8455 69.1843 23.5559L66.5771 20.5984L64.375 18.0259C64.0403 17.6409 64.0756 17.3259 64.604 17.2034C65.3436 16.9955 65.9743 16.513 66.3657 15.8559C66.5076 15.7233 66.6678 15.6114 66.8413 15.5234Z" fill="white"/>
<path d="M78.9647 25.7599C78.9794 26.5593 78.6807 27.333 78.1318 27.9175C77.5828 28.5021 76.8265 28.8517 76.0227 28.8924H75.8818C75.47 28.8924 75.0623 28.8119 74.6818 28.6553C74.3014 28.4988 73.9557 28.2693 73.6645 27.9801C73.3733 27.6908 73.1424 27.3474 72.9848 26.9695C72.8272 26.5916 72.7461 26.1865 72.7461 25.7774C72.8055 24.9894 73.1626 24.2527 73.7458 23.7152C74.3289 23.1776 75.0951 22.8789 75.8906 22.8789C76.6862 22.8789 77.4523 23.1776 78.0355 23.7152C78.6186 24.2527 78.9757 24.9894 79.0351 25.7774L78.9647 25.7599Z" fill="white"/>
<path d="M67.4452 13.6811C67.223 13.6614 67.0147 13.5648 66.8569 13.408C66.6991 13.2513 66.6018 13.0444 66.582 12.8236C66.582 12.4386 66.582 12.2461 67.0753 12.0711L68.4494 11.4586C68.5607 11.3976 68.6586 11.3151 68.7372 11.2159C68.8159 11.1167 68.8738 11.0029 68.9074 10.8811C69.096 10.3062 69.2548 9.72213 69.383 9.13108C69.524 8.53608 69.5768 8.15108 69.7001 7.67858C69.8234 7.20608 69.9996 6.68108 70.1229 6.20858C70.2462 5.73608 71.1975 5.73608 71.4618 6.10358C71.5764 6.24693 71.6527 6.41678 71.6835 6.59732C71.7143 6.77785 71.6986 6.96319 71.6379 7.13608C71.3032 8.43108 70.9685 9.74358 70.6514 11.0561C70.6338 11.178 70.6338 11.3017 70.6514 11.4236C70.6317 11.7287 70.5319 12.0233 70.3619 12.2781C70.1919 12.533 69.9577 12.7391 69.6825 12.8761C69.0722 13.2266 68.4134 13.4861 67.7271 13.6461L67.4452 13.6811Z" fill="white"/>
<path d="M63.5818 12.4548C64.0256 12.4534 64.4536 12.6185 64.7802 12.917C65.1068 13.2154 65.308 13.6254 65.3435 14.0648V14.1523C65.3435 14.6165 65.1579 15.0616 64.8275 15.3898C64.4971 15.718 64.049 15.9023 63.5818 15.9023C63.1146 15.9023 62.6665 15.718 62.3362 15.3898C62.0058 15.0616 61.8202 14.6165 61.8202 14.1523C61.8202 13.6882 62.0058 13.2431 62.3362 12.9149C62.6665 12.5867 63.1146 12.4023 63.5818 12.4023V12.4548Z" fill="white"/>
<path d="M61.5127 10.4888C61.4874 10.2298 61.4463 9.9727 61.3894 9.71877C61.338 9.55621 61.3514 9.38026 61.4267 9.22721C61.5021 9.07416 61.6338 8.9557 61.7945 8.89627C61.9602 8.8225 62.1422 8.79237 62.323 8.80877C62.3888 8.78053 62.4596 8.76585 62.5312 8.76563C62.6028 8.7654 62.6737 8.77963 62.7396 8.80745C62.8055 8.83527 62.865 8.87611 62.9145 8.92748C62.964 8.97884 63.0025 9.03967 63.0277 9.10627C63.0353 9.14086 63.0353 9.17669 63.0277 9.21127V9.35127C63.0455 9.67186 63.0455 9.99318 63.0277 10.3138C63.0231 10.5799 62.9134 10.8336 62.7223 11.0202C62.5311 11.2068 62.2739 11.3113 62.0059 11.3113H61.7769C61.6541 11.2901 61.5433 11.225 61.4655 11.1283C61.3876 11.0316 61.348 10.91 61.3541 10.7863V10.4888H61.5127Z" fill="white"/>
<path d="M79.177 29.9034C78.5061 30.4451 77.715 30.8202 76.8691 30.9978C77.1713 31.1987 77.4492 31.4336 77.6971 31.6978C78.2432 32.3103 78.7893 32.9578 79.3178 33.5878L81.3085 35.9678L83.2991 38.2953L84.7789 40.0453C85.0784 40.4478 85.6068 40.9203 85.9239 40.9203H91.3321C91.6574 40.9668 91.5739 40.904 92.6568 40.904L92.2482 40.4303C91.2793 39.3628 90.328 38.2953 89.3591 37.2628L81.0618 28.1103L80.7271 27.8828C80.3793 28.6691 79.8479 29.3617 79.177 29.9034Z" fill="white"/>
</g>
<defs>
<clipPath id="clip0_3753_20066">
<rect width="135" height="58" fill="white"/>
</clipPath>
</defs>
</svg>
